%TF.GenerationSoftware,KiCad,Pcbnew,5.1.6*%
%TF.CreationDate,2020-06-02T09:47:57+02:00*%
%TF.ProjectId,OTTO_FrontPanel_SMD,4f54544f-5f46-4726-9f6e-7450616e656c,rev?*%
%TF.SameCoordinates,PX269fb20PYbb65a20*%
%TF.FileFunction,Legend,Bot*%
%TF.FilePolarity,Positive*%
%FSLAX46Y46*%
G04 Gerber Fmt 4.6, Leading zero omitted, Abs format (unit mm)*
G04 Created by KiCad (PCBNEW 5.1.6) date 2020-06-02 09:47:57*
%MOMM*%
%LPD*%
G01*
G04 APERTURE LIST*
%ADD10C,0.150000*%
G04 APERTURE END LIST*
D10*
X251319047Y93697620D02*
X251319047Y92983334D01*
X251366666Y92840477D01*
X251461904Y92745239D01*
X251604761Y92697620D01*
X251700000Y92697620D01*
X250366666Y92697620D02*
X250842857Y92697620D01*
X250842857Y93697620D01*
X249461904Y92792858D02*
X249509523Y92745239D01*
X249652380Y92697620D01*
X249747619Y92697620D01*
X249890476Y92745239D01*
X249985714Y92840477D01*
X250033333Y92935715D01*
X250080952Y93126191D01*
X250080952Y93269048D01*
X250033333Y93459524D01*
X249985714Y93554762D01*
X249890476Y93650000D01*
X249747619Y93697620D01*
X249652380Y93697620D01*
X249509523Y93650000D01*
X249461904Y93602381D01*
X248747619Y93697620D02*
X248747619Y92983334D01*
X248795238Y92840477D01*
X248890476Y92745239D01*
X249033333Y92697620D01*
X249128571Y92697620D01*
X247795238Y92697620D02*
X248271428Y92697620D01*
X248271428Y93697620D01*
X246890476Y92792858D02*
X246938095Y92745239D01*
X247080952Y92697620D01*
X247176190Y92697620D01*
X247319047Y92745239D01*
X247414285Y92840477D01*
X247461904Y92935715D01*
X247509523Y93126191D01*
X247509523Y93269048D01*
X247461904Y93459524D01*
X247414285Y93554762D01*
X247319047Y93650000D01*
X247176190Y93697620D01*
X247080952Y93697620D01*
X246938095Y93650000D01*
X246890476Y93602381D01*
X246176190Y93697620D02*
X246176190Y92983334D01*
X246223809Y92840477D01*
X246319047Y92745239D01*
X246461904Y92697620D01*
X246557142Y92697620D01*
X245223809Y92697620D02*
X245700000Y92697620D01*
X245700000Y93697620D01*
X244319047Y92792858D02*
X244366666Y92745239D01*
X244509523Y92697620D01*
X244604761Y92697620D01*
X244747619Y92745239D01*
X244842857Y92840477D01*
X244890476Y92935715D01*
X244938095Y93126191D01*
X244938095Y93269048D01*
X244890476Y93459524D01*
X244842857Y93554762D01*
X244747619Y93650000D01*
X244604761Y93697620D01*
X244509523Y93697620D01*
X244366666Y93650000D01*
X244319047Y93602381D01*
X243604761Y93697620D02*
X243604761Y92983334D01*
X243652380Y92840477D01*
X243747619Y92745239D01*
X243890476Y92697620D01*
X243985714Y92697620D01*
X242652380Y92697620D02*
X243128571Y92697620D01*
X243128571Y93697620D01*
X241747619Y92792858D02*
X241795238Y92745239D01*
X241938095Y92697620D01*
X242033333Y92697620D01*
X242176190Y92745239D01*
X242271428Y92840477D01*
X242319047Y92935715D01*
X242366666Y93126191D01*
X242366666Y93269048D01*
X242319047Y93459524D01*
X242271428Y93554762D01*
X242176190Y93650000D01*
X242033333Y93697620D01*
X241938095Y93697620D01*
X241795238Y93650000D01*
X241747619Y93602381D01*
M02*
