%TF.GenerationSoftware,KiCad,Pcbnew,5.1.6*%
%TF.CreationDate,2020-06-02T09:47:57+02:00*%
%TF.ProjectId,OTTO_FrontPanel_SMD,4f54544f-5f46-4726-9f6e-7450616e656c,rev?*%
%TF.SameCoordinates,PX269fb20PYbb65a20*%
%TF.FileFunction,Legend,Top*%
%TF.FilePolarity,Positive*%
%FSLAX46Y46*%
G04 Gerber Fmt 4.6, Leading zero omitted, Abs format (unit mm)*
G04 Created by KiCad (PCBNEW 5.1.6) date 2020-06-02 09:47:57*
%MOMM*%
%LPD*%
G01*
G04 APERTURE LIST*
%ADD10C,1.000000*%
%ADD11C,0.500000*%
%ADD12C,0.300000*%
%ADD13C,0.150000*%
G04 APERTURE END LIST*
D10*
X-16800000Y110950000D02*
X-11800000Y110950000D01*
D11*
X187950000Y148650000D02*
G75*
G03*
X187950000Y148650000I-2250000J0D01*
G01*
X211950000Y148650000D02*
G75*
G03*
X211950000Y148650000I-2250000J0D01*
G01*
X199950000Y148650000D02*
G75*
G03*
X199950000Y148650000I-2250000J0D01*
G01*
X235950000Y148650000D02*
G75*
G03*
X235950000Y148650000I-2250000J0D01*
G01*
X223950000Y148650000D02*
G75*
G03*
X223950000Y148650000I-2250000J0D01*
G01*
X187950000Y172650000D02*
G75*
G03*
X187950000Y172650000I-2250000J0D01*
G01*
X187950000Y136650000D02*
G75*
G03*
X187950000Y136650000I-2250000J0D01*
G01*
X187950000Y160650000D02*
G75*
G03*
X187950000Y160650000I-2250000J0D01*
G01*
D10*
X199200000Y110950000D02*
X204200000Y110950000D01*
X127200000Y110950000D02*
X132200000Y110950000D01*
X55200000Y110950000D02*
X60200000Y110950000D01*
D12*
X128064285Y165946429D02*
X128064285Y165589286D01*
X127754761Y165732143D02*
X128064285Y165589286D01*
X128373809Y165732143D01*
X127878571Y165303572D02*
X128064285Y165589286D01*
X128250000Y165303572D01*
X129859523Y164446429D02*
X129859523Y165446429D01*
X129859523Y165160715D02*
X129921428Y165303572D01*
X129983333Y165375000D01*
X130107142Y165446429D01*
X130230952Y165446429D01*
X130850000Y164446429D02*
X130726190Y164517858D01*
X130664285Y164589286D01*
X130602380Y164732143D01*
X130602380Y165160715D01*
X130664285Y165303572D01*
X130726190Y165375000D01*
X130850000Y165446429D01*
X131035714Y165446429D01*
X131159523Y165375000D01*
X131221428Y165303572D01*
X131283333Y165160715D01*
X131283333Y164732143D01*
X131221428Y164589286D01*
X131159523Y164517858D01*
X131035714Y164446429D01*
X130850000Y164446429D01*
X132397619Y165446429D02*
X132397619Y164446429D01*
X131840476Y165446429D02*
X131840476Y164660715D01*
X131902380Y164517858D01*
X132026190Y164446429D01*
X132211904Y164446429D01*
X132335714Y164517858D01*
X132397619Y164589286D01*
X132830952Y165446429D02*
X133326190Y165446429D01*
X133016666Y165946429D02*
X133016666Y164660715D01*
X133078571Y164517858D01*
X133202380Y164446429D01*
X133326190Y164446429D01*
X134254761Y164517858D02*
X134130952Y164446429D01*
X133883333Y164446429D01*
X133759523Y164517858D01*
X133697619Y164660715D01*
X133697619Y165232143D01*
X133759523Y165375000D01*
X133883333Y165446429D01*
X134130952Y165446429D01*
X134254761Y165375000D01*
X134316666Y165232143D01*
X134316666Y165089286D01*
X133697619Y164946429D01*
X135430952Y164446429D02*
X135430952Y165946429D01*
X135430952Y164517858D02*
X135307142Y164446429D01*
X135059523Y164446429D01*
X134935714Y164517858D01*
X134873809Y164589286D01*
X134811904Y164732143D01*
X134811904Y165160715D01*
X134873809Y165303572D01*
X134935714Y165375000D01*
X135059523Y165446429D01*
X135307142Y165446429D01*
X135430952Y165375000D01*
X137597619Y164517858D02*
X137473809Y164446429D01*
X137226190Y164446429D01*
X137102380Y164517858D01*
X137040476Y164589286D01*
X136978571Y164732143D01*
X136978571Y165160715D01*
X137040476Y165303572D01*
X137102380Y165375000D01*
X137226190Y165446429D01*
X137473809Y165446429D01*
X137597619Y165375000D01*
X138711904Y165446429D02*
X138711904Y164446429D01*
X138154761Y165446429D02*
X138154761Y164660715D01*
X138216666Y164517858D01*
X138340476Y164446429D01*
X138526190Y164446429D01*
X138650000Y164517858D01*
X138711904Y164589286D01*
X139145238Y165446429D02*
X139640476Y165446429D01*
X139330952Y165946429D02*
X139330952Y164660715D01*
X139392857Y164517858D01*
X139516666Y164446429D01*
X139640476Y164446429D01*
X140259523Y164446429D02*
X140135714Y164517858D01*
X140073809Y164589286D01*
X140011904Y164732143D01*
X140011904Y165160715D01*
X140073809Y165303572D01*
X140135714Y165375000D01*
X140259523Y165446429D01*
X140445238Y165446429D01*
X140569047Y165375000D01*
X140630952Y165303572D01*
X140692857Y165160715D01*
X140692857Y164732143D01*
X140630952Y164589286D01*
X140569047Y164517858D01*
X140445238Y164446429D01*
X140259523Y164446429D01*
X141807142Y165446429D02*
X141807142Y164446429D01*
X141250000Y165446429D02*
X141250000Y164660715D01*
X141311904Y164517858D01*
X141435714Y164446429D01*
X141621428Y164446429D01*
X141745238Y164517858D01*
X141807142Y164589286D01*
X142240476Y165446429D02*
X142735714Y165446429D01*
X142426190Y165946429D02*
X142426190Y164660715D01*
X142488095Y164517858D01*
X142611904Y164446429D01*
X142735714Y164446429D01*
X143230952Y164517858D02*
X143230952Y164446429D01*
X143169047Y164303572D01*
X143107142Y164232143D01*
X144778571Y164446429D02*
X144778571Y165446429D01*
X144778571Y165160715D02*
X144840476Y165303572D01*
X144902380Y165375000D01*
X145026190Y165446429D01*
X145150000Y165446429D01*
X146078571Y164517858D02*
X145954761Y164446429D01*
X145707142Y164446429D01*
X145583333Y164517858D01*
X145521428Y164660715D01*
X145521428Y165232143D01*
X145583333Y165375000D01*
X145707142Y165446429D01*
X145954761Y165446429D01*
X146078571Y165375000D01*
X146140476Y165232143D01*
X146140476Y165089286D01*
X145521428Y164946429D01*
X147254761Y164517858D02*
X147130952Y164446429D01*
X146883333Y164446429D01*
X146759523Y164517858D01*
X146697619Y164589286D01*
X146635714Y164732143D01*
X146635714Y165160715D01*
X146697619Y165303572D01*
X146759523Y165375000D01*
X146883333Y165446429D01*
X147130952Y165446429D01*
X147254761Y165375000D01*
X147626190Y165446429D02*
X148121428Y165446429D01*
X147811904Y165946429D02*
X147811904Y164660715D01*
X147873809Y164517858D01*
X147997619Y164446429D01*
X148121428Y164446429D01*
X149111904Y164446429D02*
X149111904Y165232143D01*
X149050000Y165375000D01*
X148926190Y165446429D01*
X148678571Y165446429D01*
X148554761Y165375000D01*
X149111904Y164517858D02*
X148988095Y164446429D01*
X148678571Y164446429D01*
X148554761Y164517858D01*
X148492857Y164660715D01*
X148492857Y164803572D01*
X148554761Y164946429D01*
X148678571Y165017858D01*
X148988095Y165017858D01*
X149111904Y165089286D01*
X149730952Y165446429D02*
X149730952Y164446429D01*
X149730952Y165303572D02*
X149792857Y165375000D01*
X149916666Y165446429D01*
X150102380Y165446429D01*
X150226190Y165375000D01*
X150288095Y165232143D01*
X150288095Y164446429D01*
X151464285Y165446429D02*
X151464285Y164232143D01*
X151402380Y164089286D01*
X151340476Y164017858D01*
X151216666Y163946429D01*
X151030952Y163946429D01*
X150907142Y164017858D01*
X151464285Y164517858D02*
X151340476Y164446429D01*
X151092857Y164446429D01*
X150969047Y164517858D01*
X150907142Y164589286D01*
X150845238Y164732143D01*
X150845238Y165160715D01*
X150907142Y165303572D01*
X150969047Y165375000D01*
X151092857Y165446429D01*
X151340476Y165446429D01*
X151464285Y165375000D01*
X152640476Y165446429D02*
X152640476Y164446429D01*
X152083333Y165446429D02*
X152083333Y164660715D01*
X152145238Y164517858D01*
X152269047Y164446429D01*
X152454761Y164446429D01*
X152578571Y164517858D01*
X152640476Y164589286D01*
X153445238Y164446429D02*
X153321428Y164517858D01*
X153259523Y164660715D01*
X153259523Y165946429D01*
X154497619Y164446429D02*
X154497619Y165232143D01*
X154435714Y165375000D01*
X154311904Y165446429D01*
X154064285Y165446429D01*
X153940476Y165375000D01*
X154497619Y164517858D02*
X154373809Y164446429D01*
X154064285Y164446429D01*
X153940476Y164517858D01*
X153878571Y164660715D01*
X153878571Y164803572D01*
X153940476Y164946429D01*
X154064285Y165017858D01*
X154373809Y165017858D01*
X154497619Y165089286D01*
X155116666Y164446429D02*
X155116666Y165446429D01*
X155116666Y165160715D02*
X155178571Y165303572D01*
X155240476Y165375000D01*
X155364285Y165446429D01*
X155488095Y165446429D01*
X155983333Y164517858D02*
X155983333Y164446429D01*
X155921428Y164303572D01*
X155859523Y164232143D01*
X123204761Y162896429D02*
X123204761Y161896429D01*
X122895238Y163467858D02*
X122585714Y162396429D01*
X123390476Y162396429D01*
X123761904Y163396429D02*
X124566666Y163396429D01*
X124133333Y162825000D01*
X124319047Y162825000D01*
X124442857Y162753572D01*
X124504761Y162682143D01*
X124566666Y162539286D01*
X124566666Y162182143D01*
X124504761Y162039286D01*
X124442857Y161967858D01*
X124319047Y161896429D01*
X123947619Y161896429D01*
X123823809Y161967858D01*
X123761904Y162039286D01*
X125123809Y162039286D02*
X125185714Y161967858D01*
X125123809Y161896429D01*
X125061904Y161967858D01*
X125123809Y162039286D01*
X125123809Y161896429D01*
X125680952Y163253572D02*
X125742857Y163325000D01*
X125866666Y163396429D01*
X126176190Y163396429D01*
X126300000Y163325000D01*
X126361904Y163253572D01*
X126423809Y163110715D01*
X126423809Y162967858D01*
X126361904Y162753572D01*
X125619047Y161896429D01*
X126423809Y161896429D01*
X126980952Y161896429D02*
X126980952Y162896429D01*
X126980952Y162753572D02*
X127042857Y162825000D01*
X127166666Y162896429D01*
X127352380Y162896429D01*
X127476190Y162825000D01*
X127538095Y162682143D01*
X127538095Y161896429D01*
X127538095Y162682143D02*
X127600000Y162825000D01*
X127723809Y162896429D01*
X127909523Y162896429D01*
X128033333Y162825000D01*
X128095238Y162682143D01*
X128095238Y161896429D01*
X128714285Y161896429D02*
X128714285Y162896429D01*
X128714285Y162753572D02*
X128776190Y162825000D01*
X128900000Y162896429D01*
X129085714Y162896429D01*
X129209523Y162825000D01*
X129271428Y162682143D01*
X129271428Y161896429D01*
X129271428Y162682143D02*
X129333333Y162825000D01*
X129457142Y162896429D01*
X129642857Y162896429D01*
X129766666Y162825000D01*
X129828571Y162682143D01*
X129828571Y161896429D01*
X131314285Y161896429D02*
X131995238Y162896429D01*
X131314285Y162896429D02*
X131995238Y161896429D01*
X134100000Y163396429D02*
X133480952Y163396429D01*
X133419047Y162682143D01*
X133480952Y162753572D01*
X133604761Y162825000D01*
X133914285Y162825000D01*
X134038095Y162753572D01*
X134100000Y162682143D01*
X134161904Y162539286D01*
X134161904Y162182143D01*
X134100000Y162039286D01*
X134038095Y161967858D01*
X133914285Y161896429D01*
X133604761Y161896429D01*
X133480952Y161967858D01*
X133419047Y162039286D01*
X134595238Y163396429D02*
X135461904Y163396429D01*
X134904761Y161896429D01*
X135957142Y162039286D02*
X136019047Y161967858D01*
X135957142Y161896429D01*
X135895238Y161967858D01*
X135957142Y162039286D01*
X135957142Y161896429D01*
X137133333Y163396429D02*
X136885714Y163396429D01*
X136761904Y163325000D01*
X136700000Y163253572D01*
X136576190Y163039286D01*
X136514285Y162753572D01*
X136514285Y162182143D01*
X136576190Y162039286D01*
X136638095Y161967858D01*
X136761904Y161896429D01*
X137009523Y161896429D01*
X137133333Y161967858D01*
X137195238Y162039286D01*
X137257142Y162182143D01*
X137257142Y162539286D01*
X137195238Y162682143D01*
X137133333Y162753572D01*
X137009523Y162825000D01*
X136761904Y162825000D01*
X136638095Y162753572D01*
X136576190Y162682143D01*
X136514285Y162539286D01*
X137814285Y161896429D02*
X137814285Y162896429D01*
X137814285Y162753572D02*
X137876190Y162825000D01*
X138000000Y162896429D01*
X138185714Y162896429D01*
X138309523Y162825000D01*
X138371428Y162682143D01*
X138371428Y161896429D01*
X138371428Y162682143D02*
X138433333Y162825000D01*
X138557142Y162896429D01*
X138742857Y162896429D01*
X138866666Y162825000D01*
X138928571Y162682143D01*
X138928571Y161896429D01*
X139547619Y161896429D02*
X139547619Y162896429D01*
X139547619Y162753572D02*
X139609523Y162825000D01*
X139733333Y162896429D01*
X139919047Y162896429D01*
X140042857Y162825000D01*
X140104761Y162682143D01*
X140104761Y161896429D01*
X140104761Y162682143D02*
X140166666Y162825000D01*
X140290476Y162896429D01*
X140476190Y162896429D01*
X140600000Y162825000D01*
X140661904Y162682143D01*
X140661904Y161896429D01*
X141342857Y161967858D02*
X141342857Y161896429D01*
X141280952Y161753572D01*
X141219047Y161682143D01*
X143571428Y161896429D02*
X142828571Y161896429D01*
X143200000Y161896429D02*
X143200000Y163396429D01*
X143076190Y163182143D01*
X142952380Y163039286D01*
X142828571Y162967858D01*
X144128571Y161896429D02*
X144128571Y162896429D01*
X144128571Y162753572D02*
X144190476Y162825000D01*
X144314285Y162896429D01*
X144500000Y162896429D01*
X144623809Y162825000D01*
X144685714Y162682143D01*
X144685714Y161896429D01*
X144685714Y162682143D02*
X144747619Y162825000D01*
X144871428Y162896429D01*
X145057142Y162896429D01*
X145180952Y162825000D01*
X145242857Y162682143D01*
X145242857Y161896429D01*
X145861904Y161896429D02*
X145861904Y162896429D01*
X145861904Y162753572D02*
X145923809Y162825000D01*
X146047619Y162896429D01*
X146233333Y162896429D01*
X146357142Y162825000D01*
X146419047Y162682143D01*
X146419047Y161896429D01*
X146419047Y162682143D02*
X146480952Y162825000D01*
X146604761Y162896429D01*
X146790476Y162896429D01*
X146914285Y162825000D01*
X146976190Y162682143D01*
X146976190Y161896429D01*
X149142857Y161967858D02*
X149019047Y161896429D01*
X148771428Y161896429D01*
X148647619Y161967858D01*
X148585714Y162039286D01*
X148523809Y162182143D01*
X148523809Y162610715D01*
X148585714Y162753572D01*
X148647619Y162825000D01*
X148771428Y162896429D01*
X149019047Y162896429D01*
X149142857Y162825000D01*
X149885714Y161896429D02*
X149761904Y161967858D01*
X149699999Y162039286D01*
X149638095Y162182143D01*
X149638095Y162610715D01*
X149699999Y162753572D01*
X149761904Y162825000D01*
X149885714Y162896429D01*
X150071428Y162896429D01*
X150195238Y162825000D01*
X150257142Y162753572D01*
X150319047Y162610715D01*
X150319047Y162182143D01*
X150257142Y162039286D01*
X150195238Y161967858D01*
X150071428Y161896429D01*
X149885714Y161896429D01*
X150876190Y161896429D02*
X150876190Y162896429D01*
X150876190Y162610715D02*
X150938095Y162753572D01*
X150999999Y162825000D01*
X151123809Y162896429D01*
X151247619Y162896429D01*
X151680952Y162896429D02*
X151680952Y161896429D01*
X151680952Y162753572D02*
X151742857Y162825000D01*
X151866666Y162896429D01*
X152052380Y162896429D01*
X152176190Y162825000D01*
X152238095Y162682143D01*
X152238095Y161896429D01*
X153352380Y161967858D02*
X153228571Y161896429D01*
X152980952Y161896429D01*
X152857142Y161967858D01*
X152795238Y162110715D01*
X152795238Y162682143D01*
X152857142Y162825000D01*
X152980952Y162896429D01*
X153228571Y162896429D01*
X153352380Y162825000D01*
X153414285Y162682143D01*
X153414285Y162539286D01*
X152795238Y162396429D01*
X153971428Y161896429D02*
X153971428Y162896429D01*
X153971428Y162610715D02*
X154033333Y162753572D01*
X154095238Y162825000D01*
X154219047Y162896429D01*
X154342857Y162896429D01*
X155766666Y161896429D02*
X155766666Y162896429D01*
X155766666Y162610715D02*
X155828571Y162753572D01*
X155890476Y162825000D01*
X156014285Y162896429D01*
X156138095Y162896429D01*
X157128571Y161896429D02*
X157128571Y162682143D01*
X157066666Y162825000D01*
X156942857Y162896429D01*
X156695238Y162896429D01*
X156571428Y162825000D01*
X157128571Y161967858D02*
X157004761Y161896429D01*
X156695238Y161896429D01*
X156571428Y161967858D01*
X156509523Y162110715D01*
X156509523Y162253572D01*
X156571428Y162396429D01*
X156695238Y162467858D01*
X157004761Y162467858D01*
X157128571Y162539286D01*
X158304761Y161896429D02*
X158304761Y163396429D01*
X158304761Y161967858D02*
X158180952Y161896429D01*
X157933333Y161896429D01*
X157809523Y161967858D01*
X157747619Y162039286D01*
X157685714Y162182143D01*
X157685714Y162610715D01*
X157747619Y162753572D01*
X157809523Y162825000D01*
X157933333Y162896429D01*
X158180952Y162896429D01*
X158304761Y162825000D01*
X158923809Y161896429D02*
X158923809Y162896429D01*
X158923809Y163396429D02*
X158861904Y163325000D01*
X158923809Y163253572D01*
X158985714Y163325000D01*
X158923809Y163396429D01*
X158923809Y163253572D01*
X160099999Y162896429D02*
X160099999Y161896429D01*
X159542857Y162896429D02*
X159542857Y162110715D01*
X159604761Y161967858D01*
X159728571Y161896429D01*
X159914285Y161896429D01*
X160038095Y161967858D01*
X160099999Y162039286D01*
X160657142Y161967858D02*
X160780952Y161896429D01*
X161028571Y161896429D01*
X161152380Y161967858D01*
X161214285Y162110715D01*
X161214285Y162182143D01*
X161152380Y162325000D01*
X161028571Y162396429D01*
X160842857Y162396429D01*
X160719047Y162467858D01*
X160657142Y162610715D01*
X160657142Y162682143D01*
X160719047Y162825000D01*
X160842857Y162896429D01*
X161028571Y162896429D01*
X161152380Y162825000D01*
X132645238Y159417858D02*
X132521428Y159346429D01*
X132273809Y159346429D01*
X132150000Y159417858D01*
X132088095Y159489286D01*
X132026190Y159632143D01*
X132026190Y160060715D01*
X132088095Y160203572D01*
X132150000Y160275000D01*
X132273809Y160346429D01*
X132521428Y160346429D01*
X132645238Y160275000D01*
X133388095Y159346429D02*
X133264285Y159417858D01*
X133202380Y159489286D01*
X133140476Y159632143D01*
X133140476Y160060715D01*
X133202380Y160203572D01*
X133264285Y160275000D01*
X133388095Y160346429D01*
X133573809Y160346429D01*
X133697619Y160275000D01*
X133759523Y160203572D01*
X133821428Y160060715D01*
X133821428Y159632143D01*
X133759523Y159489286D01*
X133697619Y159417858D01*
X133573809Y159346429D01*
X133388095Y159346429D01*
X134378571Y160346429D02*
X134378571Y158846429D01*
X134378571Y160275000D02*
X134502380Y160346429D01*
X134750000Y160346429D01*
X134873809Y160275000D01*
X134935714Y160203572D01*
X134997619Y160060715D01*
X134997619Y159632143D01*
X134935714Y159489286D01*
X134873809Y159417858D01*
X134750000Y159346429D01*
X134502380Y159346429D01*
X134378571Y159417858D01*
X135554761Y160346429D02*
X135554761Y158846429D01*
X135554761Y160275000D02*
X135678571Y160346429D01*
X135926190Y160346429D01*
X136050000Y160275000D01*
X136111904Y160203572D01*
X136173809Y160060715D01*
X136173809Y159632143D01*
X136111904Y159489286D01*
X136050000Y159417858D01*
X135926190Y159346429D01*
X135678571Y159346429D01*
X135554761Y159417858D01*
X137226190Y159417858D02*
X137102380Y159346429D01*
X136854761Y159346429D01*
X136730952Y159417858D01*
X136669047Y159560715D01*
X136669047Y160132143D01*
X136730952Y160275000D01*
X136854761Y160346429D01*
X137102380Y160346429D01*
X137226190Y160275000D01*
X137288095Y160132143D01*
X137288095Y159989286D01*
X136669047Y159846429D01*
X137845238Y159346429D02*
X137845238Y160346429D01*
X137845238Y160060715D02*
X137907142Y160203572D01*
X137969047Y160275000D01*
X138092857Y160346429D01*
X138216666Y160346429D01*
X139640476Y160346429D02*
X139640476Y158846429D01*
X139640476Y160275000D02*
X139764285Y160346429D01*
X140011904Y160346429D01*
X140135714Y160275000D01*
X140197619Y160203572D01*
X140259523Y160060715D01*
X140259523Y159632143D01*
X140197619Y159489286D01*
X140135714Y159417858D01*
X140011904Y159346429D01*
X139764285Y159346429D01*
X139640476Y159417858D01*
X141002380Y159346429D02*
X140878571Y159417858D01*
X140816666Y159560715D01*
X140816666Y160846429D01*
X142054761Y159346429D02*
X142054761Y160132143D01*
X141992857Y160275000D01*
X141869047Y160346429D01*
X141621428Y160346429D01*
X141497619Y160275000D01*
X142054761Y159417858D02*
X141930952Y159346429D01*
X141621428Y159346429D01*
X141497619Y159417858D01*
X141435714Y159560715D01*
X141435714Y159703572D01*
X141497619Y159846429D01*
X141621428Y159917858D01*
X141930952Y159917858D01*
X142054761Y159989286D01*
X142488095Y160346429D02*
X142983333Y160346429D01*
X142673809Y160846429D02*
X142673809Y159560715D01*
X142735714Y159417858D01*
X142859523Y159346429D01*
X142983333Y159346429D01*
X143911904Y159417858D02*
X143788095Y159346429D01*
X143540476Y159346429D01*
X143416666Y159417858D01*
X143354761Y159560715D01*
X143354761Y160132143D01*
X143416666Y160275000D01*
X143540476Y160346429D01*
X143788095Y160346429D01*
X143911904Y160275000D01*
X143973809Y160132143D01*
X143973809Y159989286D01*
X143354761Y159846429D01*
X145088095Y159346429D02*
X145088095Y160846429D01*
X145088095Y159417858D02*
X144964285Y159346429D01*
X144716666Y159346429D01*
X144592857Y159417858D01*
X144530952Y159489286D01*
X144469047Y159632143D01*
X144469047Y160060715D01*
X144530952Y160203572D01*
X144592857Y160275000D01*
X144716666Y160346429D01*
X144964285Y160346429D01*
X145088095Y160275000D01*
X147192857Y159417858D02*
X147069047Y159346429D01*
X146821428Y159346429D01*
X146697619Y159417858D01*
X146635714Y159560715D01*
X146635714Y160132143D01*
X146697619Y160275000D01*
X146821428Y160346429D01*
X147069047Y160346429D01*
X147192857Y160275000D01*
X147254761Y160132143D01*
X147254761Y159989286D01*
X146635714Y159846429D01*
X148369047Y159346429D02*
X148369047Y160846429D01*
X148369047Y159417858D02*
X148245238Y159346429D01*
X147997619Y159346429D01*
X147873809Y159417858D01*
X147811904Y159489286D01*
X147750000Y159632143D01*
X147750000Y160060715D01*
X147811904Y160203572D01*
X147873809Y160275000D01*
X147997619Y160346429D01*
X148245238Y160346429D01*
X148369047Y160275000D01*
X149545238Y160346429D02*
X149545238Y159132143D01*
X149483333Y158989286D01*
X149421428Y158917858D01*
X149297619Y158846429D01*
X149111904Y158846429D01*
X148988095Y158917858D01*
X149545238Y159417858D02*
X149421428Y159346429D01*
X149173809Y159346429D01*
X149050000Y159417858D01*
X148988095Y159489286D01*
X148926190Y159632143D01*
X148926190Y160060715D01*
X148988095Y160203572D01*
X149050000Y160275000D01*
X149173809Y160346429D01*
X149421428Y160346429D01*
X149545238Y160275000D01*
X150659523Y159417858D02*
X150535714Y159346429D01*
X150288095Y159346429D01*
X150164285Y159417858D01*
X150102380Y159560715D01*
X150102380Y160132143D01*
X150164285Y160275000D01*
X150288095Y160346429D01*
X150535714Y160346429D01*
X150659523Y160275000D01*
X150721428Y160132143D01*
X150721428Y159989286D01*
X150102380Y159846429D01*
X151216666Y159417858D02*
X151340476Y159346429D01*
X151588095Y159346429D01*
X151711904Y159417858D01*
X151773809Y159560715D01*
X151773809Y159632143D01*
X151711904Y159775000D01*
X151588095Y159846429D01*
X151402380Y159846429D01*
X151278571Y159917858D01*
X151216666Y160060715D01*
X151216666Y160132143D01*
X151278571Y160275000D01*
X151402380Y160346429D01*
X151588095Y160346429D01*
X151711904Y160275000D01*
X118190476Y158296429D02*
X118190476Y157939286D01*
X117880952Y158082143D02*
X118190476Y157939286D01*
X118500000Y158082143D01*
X118004761Y157653572D02*
X118190476Y157939286D01*
X118376190Y157653572D01*
X119800000Y157796429D02*
X120295238Y157796429D01*
X119985714Y158296429D02*
X119985714Y157010715D01*
X120047619Y156867858D01*
X120171428Y156796429D01*
X120295238Y156796429D01*
X120728571Y156796429D02*
X120728571Y158296429D01*
X121285714Y156796429D02*
X121285714Y157582143D01*
X121223809Y157725000D01*
X121100000Y157796429D01*
X120914285Y157796429D01*
X120790476Y157725000D01*
X120728571Y157653572D01*
X121904761Y156796429D02*
X121904761Y157796429D01*
X121904761Y158296429D02*
X121842857Y158225000D01*
X121904761Y158153572D01*
X121966666Y158225000D01*
X121904761Y158296429D01*
X121904761Y158153572D01*
X122461904Y156867858D02*
X122585714Y156796429D01*
X122833333Y156796429D01*
X122957142Y156867858D01*
X123019047Y157010715D01*
X123019047Y157082143D01*
X122957142Y157225000D01*
X122833333Y157296429D01*
X122647619Y157296429D01*
X122523809Y157367858D01*
X122461904Y157510715D01*
X122461904Y157582143D01*
X122523809Y157725000D01*
X122647619Y157796429D01*
X122833333Y157796429D01*
X122957142Y157725000D01*
X124566666Y156796429D02*
X124566666Y157796429D01*
X124566666Y158296429D02*
X124504761Y158225000D01*
X124566666Y158153572D01*
X124628571Y158225000D01*
X124566666Y158296429D01*
X124566666Y158153572D01*
X125123809Y156867858D02*
X125247619Y156796429D01*
X125495238Y156796429D01*
X125619047Y156867858D01*
X125680952Y157010715D01*
X125680952Y157082143D01*
X125619047Y157225000D01*
X125495238Y157296429D01*
X125309523Y157296429D01*
X125185714Y157367858D01*
X125123809Y157510715D01*
X125123809Y157582143D01*
X125185714Y157725000D01*
X125309523Y157796429D01*
X125495238Y157796429D01*
X125619047Y157725000D01*
X127785714Y156796429D02*
X127785714Y157582143D01*
X127723809Y157725000D01*
X127600000Y157796429D01*
X127352380Y157796429D01*
X127228571Y157725000D01*
X127785714Y156867858D02*
X127661904Y156796429D01*
X127352380Y156796429D01*
X127228571Y156867858D01*
X127166666Y157010715D01*
X127166666Y157153572D01*
X127228571Y157296429D01*
X127352380Y157367858D01*
X127661904Y157367858D01*
X127785714Y157439286D01*
X129209523Y157796429D02*
X129704761Y157796429D01*
X129395238Y156796429D02*
X129395238Y158082143D01*
X129457142Y158225000D01*
X129580952Y158296429D01*
X129704761Y158296429D01*
X130138095Y156796429D02*
X130138095Y157796429D01*
X130138095Y157510715D02*
X130200000Y157653572D01*
X130261904Y157725000D01*
X130385714Y157796429D01*
X130509523Y157796429D01*
X131128571Y156796429D02*
X131004761Y156867858D01*
X130942857Y156939286D01*
X130880952Y157082143D01*
X130880952Y157510715D01*
X130942857Y157653572D01*
X131004761Y157725000D01*
X131128571Y157796429D01*
X131314285Y157796429D01*
X131438095Y157725000D01*
X131500000Y157653572D01*
X131561904Y157510715D01*
X131561904Y157082143D01*
X131500000Y156939286D01*
X131438095Y156867858D01*
X131314285Y156796429D01*
X131128571Y156796429D01*
X132119047Y157796429D02*
X132119047Y156796429D01*
X132119047Y157653572D02*
X132180952Y157725000D01*
X132304761Y157796429D01*
X132490476Y157796429D01*
X132614285Y157725000D01*
X132676190Y157582143D01*
X132676190Y156796429D01*
X133109523Y157796429D02*
X133604761Y157796429D01*
X133295238Y158296429D02*
X133295238Y157010715D01*
X133357142Y156867858D01*
X133480952Y156796429D01*
X133604761Y156796429D01*
X135028571Y157796429D02*
X135028571Y156296429D01*
X135028571Y157725000D02*
X135152380Y157796429D01*
X135400000Y157796429D01*
X135523809Y157725000D01*
X135585714Y157653572D01*
X135647619Y157510715D01*
X135647619Y157082143D01*
X135585714Y156939286D01*
X135523809Y156867858D01*
X135400000Y156796429D01*
X135152380Y156796429D01*
X135028571Y156867858D01*
X136761904Y156796429D02*
X136761904Y157582143D01*
X136700000Y157725000D01*
X136576190Y157796429D01*
X136328571Y157796429D01*
X136204761Y157725000D01*
X136761904Y156867858D02*
X136638095Y156796429D01*
X136328571Y156796429D01*
X136204761Y156867858D01*
X136142857Y157010715D01*
X136142857Y157153572D01*
X136204761Y157296429D01*
X136328571Y157367858D01*
X136638095Y157367858D01*
X136761904Y157439286D01*
X137380952Y157796429D02*
X137380952Y156796429D01*
X137380952Y157653572D02*
X137442857Y157725000D01*
X137566666Y157796429D01*
X137752380Y157796429D01*
X137876190Y157725000D01*
X137938095Y157582143D01*
X137938095Y156796429D01*
X139052380Y156867858D02*
X138928571Y156796429D01*
X138680952Y156796429D01*
X138557142Y156867858D01*
X138495238Y157010715D01*
X138495238Y157582143D01*
X138557142Y157725000D01*
X138680952Y157796429D01*
X138928571Y157796429D01*
X139052380Y157725000D01*
X139114285Y157582143D01*
X139114285Y157439286D01*
X138495238Y157296429D01*
X139857142Y156796429D02*
X139733333Y156867858D01*
X139671428Y157010715D01*
X139671428Y158296429D01*
X140414285Y156867858D02*
X140414285Y156796429D01*
X140352380Y156653572D01*
X140290476Y156582143D01*
X141900000Y156867858D02*
X142023809Y156796429D01*
X142271428Y156796429D01*
X142395238Y156867858D01*
X142457142Y157010715D01*
X142457142Y157082143D01*
X142395238Y157225000D01*
X142271428Y157296429D01*
X142085714Y157296429D01*
X141961904Y157367858D01*
X141900000Y157510715D01*
X141900000Y157582143D01*
X141961904Y157725000D01*
X142085714Y157796429D01*
X142271428Y157796429D01*
X142395238Y157725000D01*
X143200000Y156796429D02*
X143076190Y156867858D01*
X143014285Y156939286D01*
X142952380Y157082143D01*
X142952380Y157510715D01*
X143014285Y157653572D01*
X143076190Y157725000D01*
X143200000Y157796429D01*
X143385714Y157796429D01*
X143509523Y157725000D01*
X143571428Y157653572D01*
X143633333Y157510715D01*
X143633333Y157082143D01*
X143571428Y156939286D01*
X143509523Y156867858D01*
X143385714Y156796429D01*
X143200000Y156796429D01*
X145180952Y156796429D02*
X145180952Y157796429D01*
X145180952Y158296429D02*
X145119047Y158225000D01*
X145180952Y158153572D01*
X145242857Y158225000D01*
X145180952Y158296429D01*
X145180952Y158153572D01*
X145614285Y157796429D02*
X146109523Y157796429D01*
X145800000Y158296429D02*
X145800000Y157010715D01*
X145861904Y156867858D01*
X145985714Y156796429D01*
X146109523Y156796429D01*
X147533333Y156796429D02*
X147533333Y157796429D01*
X147533333Y158296429D02*
X147471428Y158225000D01*
X147533333Y158153572D01*
X147595238Y158225000D01*
X147533333Y158296429D01*
X147533333Y158153572D01*
X148090476Y156867858D02*
X148214285Y156796429D01*
X148461904Y156796429D01*
X148585714Y156867858D01*
X148647619Y157010715D01*
X148647619Y157082143D01*
X148585714Y157225000D01*
X148461904Y157296429D01*
X148276190Y157296429D01*
X148152380Y157367858D01*
X148090476Y157510715D01*
X148090476Y157582143D01*
X148152380Y157725000D01*
X148276190Y157796429D01*
X148461904Y157796429D01*
X148585714Y157725000D01*
X150752380Y156867858D02*
X150628571Y156796429D01*
X150380952Y156796429D01*
X150257142Y156867858D01*
X150195238Y156939286D01*
X150133333Y157082143D01*
X150133333Y157510715D01*
X150195238Y157653572D01*
X150257142Y157725000D01*
X150380952Y157796429D01*
X150628571Y157796429D01*
X150752380Y157725000D01*
X151495238Y156796429D02*
X151371428Y156867858D01*
X151309523Y156939286D01*
X151247619Y157082143D01*
X151247619Y157510715D01*
X151309523Y157653572D01*
X151371428Y157725000D01*
X151495238Y157796429D01*
X151680952Y157796429D01*
X151804761Y157725000D01*
X151866666Y157653572D01*
X151928571Y157510715D01*
X151928571Y157082143D01*
X151866666Y156939286D01*
X151804761Y156867858D01*
X151680952Y156796429D01*
X151495238Y156796429D01*
X152485714Y156796429D02*
X152485714Y157796429D01*
X152485714Y157510715D02*
X152547619Y157653572D01*
X152609523Y157725000D01*
X152733333Y157796429D01*
X152857142Y157796429D01*
X153290476Y156796429D02*
X153290476Y157796429D01*
X153290476Y157510715D02*
X153352380Y157653572D01*
X153414285Y157725000D01*
X153538095Y157796429D01*
X153661904Y157796429D01*
X154590476Y156867858D02*
X154466666Y156796429D01*
X154219047Y156796429D01*
X154095238Y156867858D01*
X154033333Y157010715D01*
X154033333Y157582143D01*
X154095238Y157725000D01*
X154219047Y157796429D01*
X154466666Y157796429D01*
X154590476Y157725000D01*
X154652380Y157582143D01*
X154652380Y157439286D01*
X154033333Y157296429D01*
X155766666Y156867858D02*
X155642857Y156796429D01*
X155395238Y156796429D01*
X155271428Y156867858D01*
X155209523Y156939286D01*
X155147619Y157082143D01*
X155147619Y157510715D01*
X155209523Y157653572D01*
X155271428Y157725000D01*
X155395238Y157796429D01*
X155642857Y157796429D01*
X155766666Y157725000D01*
X156138095Y157796429D02*
X156633333Y157796429D01*
X156323809Y158296429D02*
X156323809Y157010715D01*
X156385714Y156867858D01*
X156509523Y156796429D01*
X156633333Y156796429D01*
X157871428Y157796429D02*
X158366666Y157796429D01*
X158057142Y158296429D02*
X158057142Y157010715D01*
X158119047Y156867858D01*
X158242857Y156796429D01*
X158366666Y156796429D01*
X158800000Y156796429D02*
X158800000Y158296429D01*
X159357142Y156796429D02*
X159357142Y157582143D01*
X159295238Y157725000D01*
X159171428Y157796429D01*
X158985714Y157796429D01*
X158861904Y157725000D01*
X158800000Y157653572D01*
X160533333Y156796429D02*
X160533333Y157582143D01*
X160471428Y157725000D01*
X160347619Y157796429D01*
X160100000Y157796429D01*
X159976190Y157725000D01*
X160533333Y156867858D02*
X160409523Y156796429D01*
X160100000Y156796429D01*
X159976190Y156867858D01*
X159914285Y157010715D01*
X159914285Y157153572D01*
X159976190Y157296429D01*
X160100000Y157367858D01*
X160409523Y157367858D01*
X160533333Y157439286D01*
X160966666Y157796429D02*
X161461904Y157796429D01*
X161152380Y158296429D02*
X161152380Y157010715D01*
X161214285Y156867858D01*
X161338095Y156796429D01*
X161461904Y156796429D01*
X163442857Y156796429D02*
X163442857Y157582143D01*
X163380952Y157725000D01*
X163257142Y157796429D01*
X163009523Y157796429D01*
X162885714Y157725000D01*
X163442857Y156867858D02*
X163319047Y156796429D01*
X163009523Y156796429D01*
X162885714Y156867858D01*
X162823809Y157010715D01*
X162823809Y157153572D01*
X162885714Y157296429D01*
X163009523Y157367858D01*
X163319047Y157367858D01*
X163442857Y157439286D01*
X164247619Y156796429D02*
X164123809Y156867858D01*
X164061904Y157010715D01*
X164061904Y158296429D01*
X164928571Y156796429D02*
X164804761Y156867858D01*
X164742857Y157010715D01*
X164742857Y158296429D01*
X119676190Y155246429D02*
X119676190Y153746429D01*
X119676190Y155175000D02*
X119800000Y155246429D01*
X120047619Y155246429D01*
X120171428Y155175000D01*
X120233333Y155103572D01*
X120295238Y154960715D01*
X120295238Y154532143D01*
X120233333Y154389286D01*
X120171428Y154317858D01*
X120047619Y154246429D01*
X119800000Y154246429D01*
X119676190Y154317858D01*
X121409523Y154246429D02*
X121409523Y155032143D01*
X121347619Y155175000D01*
X121223809Y155246429D01*
X120976190Y155246429D01*
X120852380Y155175000D01*
X121409523Y154317858D02*
X121285714Y154246429D01*
X120976190Y154246429D01*
X120852380Y154317858D01*
X120790476Y154460715D01*
X120790476Y154603572D01*
X120852380Y154746429D01*
X120976190Y154817858D01*
X121285714Y154817858D01*
X121409523Y154889286D01*
X122585714Y154246429D02*
X122585714Y155746429D01*
X122585714Y154317858D02*
X122461904Y154246429D01*
X122214285Y154246429D01*
X122090476Y154317858D01*
X122028571Y154389286D01*
X121966666Y154532143D01*
X121966666Y154960715D01*
X122028571Y155103572D01*
X122090476Y155175000D01*
X122214285Y155246429D01*
X122461904Y155246429D01*
X122585714Y155175000D01*
X123142857Y154317858D02*
X123266666Y154246429D01*
X123514285Y154246429D01*
X123638095Y154317858D01*
X123700000Y154460715D01*
X123700000Y154532143D01*
X123638095Y154675000D01*
X123514285Y154746429D01*
X123328571Y154746429D01*
X123204761Y154817858D01*
X123142857Y154960715D01*
X123142857Y155032143D01*
X123204761Y155175000D01*
X123328571Y155246429D01*
X123514285Y155246429D01*
X123638095Y155175000D01*
X125742857Y154317858D02*
X125619047Y154246429D01*
X125371428Y154246429D01*
X125247619Y154317858D01*
X125185714Y154460715D01*
X125185714Y155032143D01*
X125247619Y155175000D01*
X125371428Y155246429D01*
X125619047Y155246429D01*
X125742857Y155175000D01*
X125804761Y155032143D01*
X125804761Y154889286D01*
X125185714Y154746429D01*
X126238095Y154246429D02*
X126919047Y155246429D01*
X126238095Y155246429D02*
X126919047Y154246429D01*
X127971428Y154317858D02*
X127847619Y154246429D01*
X127600000Y154246429D01*
X127476190Y154317858D01*
X127414285Y154389286D01*
X127352380Y154532143D01*
X127352380Y154960715D01*
X127414285Y155103572D01*
X127476190Y155175000D01*
X127600000Y155246429D01*
X127847619Y155246429D01*
X127971428Y155175000D01*
X129023809Y154317858D02*
X128900000Y154246429D01*
X128652380Y154246429D01*
X128528571Y154317858D01*
X128466666Y154460715D01*
X128466666Y155032143D01*
X128528571Y155175000D01*
X128652380Y155246429D01*
X128900000Y155246429D01*
X129023809Y155175000D01*
X129085714Y155032143D01*
X129085714Y154889286D01*
X128466666Y154746429D01*
X129642857Y155246429D02*
X129642857Y153746429D01*
X129642857Y155175000D02*
X129766666Y155246429D01*
X130014285Y155246429D01*
X130138095Y155175000D01*
X130200000Y155103572D01*
X130261904Y154960715D01*
X130261904Y154532143D01*
X130200000Y154389286D01*
X130138095Y154317858D01*
X130014285Y154246429D01*
X129766666Y154246429D01*
X129642857Y154317858D01*
X130633333Y155246429D02*
X131128571Y155246429D01*
X130819047Y155746429D02*
X130819047Y154460715D01*
X130880952Y154317858D01*
X131004761Y154246429D01*
X131128571Y154246429D01*
X132738095Y154246429D02*
X132614285Y154317858D01*
X132552380Y154389286D01*
X132490476Y154532143D01*
X132490476Y154960715D01*
X132552380Y155103572D01*
X132614285Y155175000D01*
X132738095Y155246429D01*
X132923809Y155246429D01*
X133047619Y155175000D01*
X133109523Y155103572D01*
X133171428Y154960715D01*
X133171428Y154532143D01*
X133109523Y154389286D01*
X133047619Y154317858D01*
X132923809Y154246429D01*
X132738095Y154246429D01*
X133728571Y155246429D02*
X133728571Y154246429D01*
X133728571Y155103572D02*
X133790476Y155175000D01*
X133914285Y155246429D01*
X134100000Y155246429D01*
X134223809Y155175000D01*
X134285714Y155032143D01*
X134285714Y154246429D01*
X135400000Y154317858D02*
X135276190Y154246429D01*
X135028571Y154246429D01*
X134904761Y154317858D01*
X134842857Y154460715D01*
X134842857Y155032143D01*
X134904761Y155175000D01*
X135028571Y155246429D01*
X135276190Y155246429D01*
X135400000Y155175000D01*
X135461904Y155032143D01*
X135461904Y154889286D01*
X134842857Y154746429D01*
X137566666Y154246429D02*
X137566666Y155032143D01*
X137504761Y155175000D01*
X137380952Y155246429D01*
X137133333Y155246429D01*
X137009523Y155175000D01*
X137566666Y154317858D02*
X137442857Y154246429D01*
X137133333Y154246429D01*
X137009523Y154317858D01*
X136947619Y154460715D01*
X136947619Y154603572D01*
X137009523Y154746429D01*
X137133333Y154817858D01*
X137442857Y154817858D01*
X137566666Y154889286D01*
X138185714Y154246429D02*
X138185714Y155246429D01*
X138185714Y154960715D02*
X138247619Y155103572D01*
X138309523Y155175000D01*
X138433333Y155246429D01*
X138557142Y155246429D01*
X139485714Y154317858D02*
X139361904Y154246429D01*
X139114285Y154246429D01*
X138990476Y154317858D01*
X138928571Y154460715D01*
X138928571Y155032143D01*
X138990476Y155175000D01*
X139114285Y155246429D01*
X139361904Y155246429D01*
X139485714Y155175000D01*
X139547619Y155032143D01*
X139547619Y154889286D01*
X138928571Y154746429D01*
X141652380Y154317858D02*
X141528571Y154246429D01*
X141280952Y154246429D01*
X141157142Y154317858D01*
X141095238Y154389286D01*
X141033333Y154532143D01*
X141033333Y154960715D01*
X141095238Y155103572D01*
X141157142Y155175000D01*
X141280952Y155246429D01*
X141528571Y155246429D01*
X141652380Y155175000D01*
X142395238Y154246429D02*
X142271428Y154317858D01*
X142209523Y154389286D01*
X142147619Y154532143D01*
X142147619Y154960715D01*
X142209523Y155103572D01*
X142271428Y155175000D01*
X142395238Y155246429D01*
X142580952Y155246429D01*
X142704761Y155175000D01*
X142766666Y155103572D01*
X142828571Y154960715D01*
X142828571Y154532143D01*
X142766666Y154389286D01*
X142704761Y154317858D01*
X142580952Y154246429D01*
X142395238Y154246429D01*
X143261904Y155246429D02*
X143571428Y154246429D01*
X143880952Y155246429D01*
X144871428Y154317858D02*
X144747619Y154246429D01*
X144500000Y154246429D01*
X144376190Y154317858D01*
X144314285Y154460715D01*
X144314285Y155032143D01*
X144376190Y155175000D01*
X144500000Y155246429D01*
X144747619Y155246429D01*
X144871428Y155175000D01*
X144933333Y155032143D01*
X144933333Y154889286D01*
X144314285Y154746429D01*
X145490476Y154246429D02*
X145490476Y155246429D01*
X145490476Y154960715D02*
X145552380Y155103572D01*
X145614285Y155175000D01*
X145738095Y155246429D01*
X145861904Y155246429D01*
X146790476Y154317858D02*
X146666666Y154246429D01*
X146419047Y154246429D01*
X146295238Y154317858D01*
X146233333Y154460715D01*
X146233333Y155032143D01*
X146295238Y155175000D01*
X146419047Y155246429D01*
X146666666Y155246429D01*
X146790476Y155175000D01*
X146852380Y155032143D01*
X146852380Y154889286D01*
X146233333Y154746429D01*
X147966666Y154246429D02*
X147966666Y155746429D01*
X147966666Y154317858D02*
X147842857Y154246429D01*
X147595238Y154246429D01*
X147471428Y154317858D01*
X147409523Y154389286D01*
X147347619Y154532143D01*
X147347619Y154960715D01*
X147409523Y155103572D01*
X147471428Y155175000D01*
X147595238Y155246429D01*
X147842857Y155246429D01*
X147966666Y155175000D01*
X149576190Y154246429D02*
X149576190Y155746429D01*
X149576190Y155175000D02*
X149699999Y155246429D01*
X149947619Y155246429D01*
X150071428Y155175000D01*
X150133333Y155103572D01*
X150195238Y154960715D01*
X150195238Y154532143D01*
X150133333Y154389286D01*
X150071428Y154317858D01*
X149947619Y154246429D01*
X149699999Y154246429D01*
X149576190Y154317858D01*
X150628571Y155246429D02*
X150938095Y154246429D01*
X151247619Y155246429D02*
X150938095Y154246429D01*
X150814285Y153889286D01*
X150752380Y153817858D01*
X150628571Y153746429D01*
X152671428Y154317858D02*
X152795238Y154246429D01*
X153042857Y154246429D01*
X153166666Y154317858D01*
X153228571Y154460715D01*
X153228571Y154532143D01*
X153166666Y154675000D01*
X153042857Y154746429D01*
X152857142Y154746429D01*
X152733333Y154817858D01*
X152671428Y154960715D01*
X152671428Y155032143D01*
X152733333Y155175000D01*
X152857142Y155246429D01*
X153042857Y155246429D01*
X153166666Y155175000D01*
X153971428Y154246429D02*
X153847619Y154317858D01*
X153785714Y154389286D01*
X153723809Y154532143D01*
X153723809Y154960715D01*
X153785714Y155103572D01*
X153847619Y155175000D01*
X153971428Y155246429D01*
X154157142Y155246429D01*
X154280952Y155175000D01*
X154342857Y155103572D01*
X154404761Y154960715D01*
X154404761Y154532143D01*
X154342857Y154389286D01*
X154280952Y154317858D01*
X154157142Y154246429D01*
X153971428Y154246429D01*
X155147619Y154246429D02*
X155023809Y154317858D01*
X154961904Y154460715D01*
X154961904Y155746429D01*
X156200000Y154246429D02*
X156200000Y155746429D01*
X156200000Y154317858D02*
X156076190Y154246429D01*
X155828571Y154246429D01*
X155704761Y154317858D01*
X155642857Y154389286D01*
X155580952Y154532143D01*
X155580952Y154960715D01*
X155642857Y155103572D01*
X155704761Y155175000D01*
X155828571Y155246429D01*
X156076190Y155246429D01*
X156200000Y155175000D01*
X157314285Y154317858D02*
X157190476Y154246429D01*
X156942857Y154246429D01*
X156819047Y154317858D01*
X156757142Y154460715D01*
X156757142Y155032143D01*
X156819047Y155175000D01*
X156942857Y155246429D01*
X157190476Y155246429D01*
X157314285Y155175000D01*
X157376190Y155032143D01*
X157376190Y154889286D01*
X156757142Y154746429D01*
X157933333Y154246429D02*
X157933333Y155246429D01*
X157933333Y154960715D02*
X157995238Y155103572D01*
X158057142Y155175000D01*
X158180952Y155246429D01*
X158304761Y155246429D01*
X159728571Y154246429D02*
X159728571Y155246429D01*
X159728571Y155103572D02*
X159790476Y155175000D01*
X159914285Y155246429D01*
X160100000Y155246429D01*
X160223809Y155175000D01*
X160285714Y155032143D01*
X160285714Y154246429D01*
X160285714Y155032143D02*
X160347619Y155175000D01*
X160471428Y155246429D01*
X160657142Y155246429D01*
X160780952Y155175000D01*
X160842857Y155032143D01*
X160842857Y154246429D01*
X162019047Y154246429D02*
X162019047Y155032143D01*
X161957142Y155175000D01*
X161833333Y155246429D01*
X161585714Y155246429D01*
X161461904Y155175000D01*
X162019047Y154317858D02*
X161895238Y154246429D01*
X161585714Y154246429D01*
X161461904Y154317858D01*
X161400000Y154460715D01*
X161400000Y154603572D01*
X161461904Y154746429D01*
X161585714Y154817858D01*
X161895238Y154817858D01*
X162019047Y154889286D01*
X162576190Y154317858D02*
X162700000Y154246429D01*
X162947619Y154246429D01*
X163071428Y154317858D01*
X163133333Y154460715D01*
X163133333Y154532143D01*
X163071428Y154675000D01*
X162947619Y154746429D01*
X162761904Y154746429D01*
X162638095Y154817858D01*
X162576190Y154960715D01*
X162576190Y155032143D01*
X162638095Y155175000D01*
X162761904Y155246429D01*
X162947619Y155246429D01*
X163071428Y155175000D01*
X163690476Y154246429D02*
X163690476Y155746429D01*
X163814285Y154817858D02*
X164185714Y154246429D01*
X164185714Y155246429D02*
X163690476Y154675000D01*
X130323809Y153196429D02*
X130323809Y152839286D01*
X130014285Y152982143D02*
X130323809Y152839286D01*
X130633333Y152982143D01*
X130138095Y152553572D02*
X130323809Y152839286D01*
X130509523Y152553572D01*
X132119047Y151696429D02*
X132119047Y153196429D01*
X132614285Y153196429D01*
X132738095Y153125000D01*
X132800000Y153053572D01*
X132861904Y152910715D01*
X132861904Y152696429D01*
X132800000Y152553572D01*
X132738095Y152482143D01*
X132614285Y152410715D01*
X132119047Y152410715D01*
X134161904Y151839286D02*
X134100000Y151767858D01*
X133914285Y151696429D01*
X133790476Y151696429D01*
X133604761Y151767858D01*
X133480952Y151910715D01*
X133419047Y152053572D01*
X133357142Y152339286D01*
X133357142Y152553572D01*
X133419047Y152839286D01*
X133480952Y152982143D01*
X133604761Y153125000D01*
X133790476Y153196429D01*
X133914285Y153196429D01*
X134100000Y153125000D01*
X134161904Y153053572D01*
X135152380Y152482143D02*
X135338095Y152410715D01*
X135400000Y152339286D01*
X135461904Y152196429D01*
X135461904Y151982143D01*
X135400000Y151839286D01*
X135338095Y151767858D01*
X135214285Y151696429D01*
X134719047Y151696429D01*
X134719047Y153196429D01*
X135152380Y153196429D01*
X135276190Y153125000D01*
X135338095Y153053572D01*
X135400000Y152910715D01*
X135400000Y152767858D01*
X135338095Y152625000D01*
X135276190Y152553572D01*
X135152380Y152482143D01*
X134719047Y152482143D01*
X136823809Y152696429D02*
X137319047Y152696429D01*
X137009523Y153196429D02*
X137009523Y151910715D01*
X137071428Y151767858D01*
X137195238Y151696429D01*
X137319047Y151696429D01*
X137752380Y151696429D02*
X137752380Y153196429D01*
X138309523Y151696429D02*
X138309523Y152482143D01*
X138247619Y152625000D01*
X138123809Y152696429D01*
X137938095Y152696429D01*
X137814285Y152625000D01*
X137752380Y152553572D01*
X138928571Y151696429D02*
X138928571Y152696429D01*
X138928571Y153196429D02*
X138866666Y153125000D01*
X138928571Y153053572D01*
X138990476Y153125000D01*
X138928571Y153196429D01*
X138928571Y153053572D01*
X140104761Y151767858D02*
X139980952Y151696429D01*
X139733333Y151696429D01*
X139609523Y151767858D01*
X139547619Y151839286D01*
X139485714Y151982143D01*
X139485714Y152410715D01*
X139547619Y152553572D01*
X139609523Y152625000D01*
X139733333Y152696429D01*
X139980952Y152696429D01*
X140104761Y152625000D01*
X140661904Y151696429D02*
X140661904Y153196429D01*
X140785714Y152267858D02*
X141157142Y151696429D01*
X141157142Y152696429D02*
X140661904Y152125000D01*
X141714285Y152696429D02*
X141714285Y151696429D01*
X141714285Y152553572D02*
X141776190Y152625000D01*
X141900000Y152696429D01*
X142085714Y152696429D01*
X142209523Y152625000D01*
X142271428Y152482143D01*
X142271428Y151696429D01*
X143385714Y151767858D02*
X143261904Y151696429D01*
X143014285Y151696429D01*
X142890476Y151767858D01*
X142828571Y151910715D01*
X142828571Y152482143D01*
X142890476Y152625000D01*
X143014285Y152696429D01*
X143261904Y152696429D01*
X143385714Y152625000D01*
X143447619Y152482143D01*
X143447619Y152339286D01*
X142828571Y152196429D01*
X143942857Y151767858D02*
X144066666Y151696429D01*
X144314285Y151696429D01*
X144438095Y151767858D01*
X144500000Y151910715D01*
X144500000Y151982143D01*
X144438095Y152125000D01*
X144314285Y152196429D01*
X144128571Y152196429D01*
X144004761Y152267858D01*
X143942857Y152410715D01*
X143942857Y152482143D01*
X144004761Y152625000D01*
X144128571Y152696429D01*
X144314285Y152696429D01*
X144438095Y152625000D01*
X144995238Y151767858D02*
X145119047Y151696429D01*
X145366666Y151696429D01*
X145490476Y151767858D01*
X145552380Y151910715D01*
X145552380Y151982143D01*
X145490476Y152125000D01*
X145366666Y152196429D01*
X145180952Y152196429D01*
X145057142Y152267858D01*
X144995238Y152410715D01*
X144995238Y152482143D01*
X145057142Y152625000D01*
X145180952Y152696429D01*
X145366666Y152696429D01*
X145490476Y152625000D01*
X146109523Y151839286D02*
X146171428Y151767858D01*
X146109523Y151696429D01*
X146047619Y151767858D01*
X146109523Y151839286D01*
X146109523Y151696429D01*
X146109523Y152625000D02*
X146171428Y152553572D01*
X146109523Y152482143D01*
X146047619Y152553572D01*
X146109523Y152625000D01*
X146109523Y152482143D01*
X148400000Y151696429D02*
X147657142Y151696429D01*
X148028571Y151696429D02*
X148028571Y153196429D01*
X147904761Y152982143D01*
X147780952Y152839286D01*
X147657142Y152767858D01*
X148957142Y151839286D02*
X149019047Y151767858D01*
X148957142Y151696429D01*
X148895238Y151767858D01*
X148957142Y151839286D01*
X148957142Y151696429D01*
X149514285Y153053572D02*
X149576190Y153125000D01*
X149700000Y153196429D01*
X150009523Y153196429D01*
X150133333Y153125000D01*
X150195238Y153053572D01*
X150257142Y152910715D01*
X150257142Y152767858D01*
X150195238Y152553572D01*
X149452380Y151696429D01*
X150257142Y151696429D01*
X150814285Y151696429D02*
X150814285Y152696429D01*
X150814285Y152553572D02*
X150876190Y152625000D01*
X151000000Y152696429D01*
X151185714Y152696429D01*
X151309523Y152625000D01*
X151371428Y152482143D01*
X151371428Y151696429D01*
X151371428Y152482143D02*
X151433333Y152625000D01*
X151557142Y152696429D01*
X151742857Y152696429D01*
X151866666Y152625000D01*
X151928571Y152482143D01*
X151928571Y151696429D01*
X152547619Y151696429D02*
X152547619Y152696429D01*
X152547619Y152553572D02*
X152609523Y152625000D01*
X152733333Y152696429D01*
X152919047Y152696429D01*
X153042857Y152625000D01*
X153104761Y152482143D01*
X153104761Y151696429D01*
X153104761Y152482143D02*
X153166666Y152625000D01*
X153290476Y152696429D01*
X153476190Y152696429D01*
X153600000Y152625000D01*
X153661904Y152482143D01*
X153661904Y151696429D01*
D11*
X199950000Y172650000D02*
G75*
G03*
X199950000Y172650000I-2250000J0D01*
G01*
X211950000Y172650000D02*
G75*
G03*
X211950000Y172650000I-2250000J0D01*
G01*
X223950000Y172650000D02*
G75*
G03*
X223950000Y172650000I-2250000J0D01*
G01*
X235950000Y172650000D02*
G75*
G03*
X235950000Y172650000I-2250000J0D01*
G01*
X253950000Y172650000D02*
G75*
G03*
X253950000Y172650000I-2250000J0D01*
G01*
X265950000Y172650000D02*
G75*
G03*
X265950000Y172650000I-2250000J0D01*
G01*
X265950000Y160650000D02*
G75*
G03*
X265950000Y160650000I-2250000J0D01*
G01*
X253950000Y160650000D02*
G75*
G03*
X253950000Y160650000I-2250000J0D01*
G01*
X235950000Y160650000D02*
G75*
G03*
X235950000Y160650000I-2250000J0D01*
G01*
X223950000Y160650000D02*
G75*
G03*
X223950000Y160650000I-2250000J0D01*
G01*
X211950000Y160650000D02*
G75*
G03*
X211950000Y160650000I-2250000J0D01*
G01*
X199950000Y160650000D02*
G75*
G03*
X199950000Y160650000I-2250000J0D01*
G01*
X199950000Y136650000D02*
G75*
G03*
X199950000Y136650000I-2250000J0D01*
G01*
X211950000Y136650000D02*
G75*
G03*
X211950000Y136650000I-2250000J0D01*
G01*
X223950000Y136650000D02*
G75*
G03*
X223950000Y136650000I-2250000J0D01*
G01*
X235950000Y136650000D02*
G75*
G03*
X235950000Y136650000I-2250000J0D01*
G01*
X253950000Y136650000D02*
G75*
G03*
X253950000Y136650000I-2250000J0D01*
G01*
X265950000Y136650000D02*
G75*
G03*
X265950000Y136650000I-2250000J0D01*
G01*
D13*
X-15633334Y99995239D02*
X-15490477Y99947620D01*
X-15252381Y99947620D01*
X-15157143Y99995239D01*
X-15109524Y100042858D01*
X-15061905Y100138096D01*
X-15061905Y100233334D01*
X-15109524Y100328572D01*
X-15157143Y100376191D01*
X-15252381Y100423810D01*
X-15442858Y100471429D01*
X-15538096Y100519048D01*
X-15585715Y100566667D01*
X-15633334Y100661905D01*
X-15633334Y100757143D01*
X-15585715Y100852381D01*
X-15538096Y100900000D01*
X-15442858Y100947620D01*
X-15204762Y100947620D01*
X-15061905Y100900000D01*
X-14728572Y100947620D02*
X-14490477Y99947620D01*
X-14300000Y100661905D01*
X-14109524Y99947620D01*
X-13871429Y100947620D01*
X-12966667Y99947620D02*
X-13538096Y99947620D01*
X-13252381Y99947620D02*
X-13252381Y100947620D01*
X-13347620Y100804762D01*
X-13442858Y100709524D01*
X-13538096Y100661905D01*
X2366666Y99995239D02*
X2509523Y99947620D01*
X2747619Y99947620D01*
X2842857Y99995239D01*
X2890476Y100042858D01*
X2938095Y100138096D01*
X2938095Y100233334D01*
X2890476Y100328572D01*
X2842857Y100376191D01*
X2747619Y100423810D01*
X2557142Y100471429D01*
X2461904Y100519048D01*
X2414285Y100566667D01*
X2366666Y100661905D01*
X2366666Y100757143D01*
X2414285Y100852381D01*
X2461904Y100900000D01*
X2557142Y100947620D01*
X2795238Y100947620D01*
X2938095Y100900000D01*
X3271428Y100947620D02*
X3509523Y99947620D01*
X3700000Y100661905D01*
X3890476Y99947620D01*
X4128571Y100947620D01*
X4461904Y100852381D02*
X4509523Y100900000D01*
X4604761Y100947620D01*
X4842857Y100947620D01*
X4938095Y100900000D01*
X4985714Y100852381D01*
X5033333Y100757143D01*
X5033333Y100661905D01*
X4985714Y100519048D01*
X4414285Y99947620D01*
X5033333Y99947620D01*
X235890476Y99995239D02*
X236033333Y99947620D01*
X236271428Y99947620D01*
X236366666Y99995239D01*
X236414285Y100042858D01*
X236461904Y100138096D01*
X236461904Y100233334D01*
X236414285Y100328572D01*
X236366666Y100376191D01*
X236271428Y100423810D01*
X236080952Y100471429D01*
X235985714Y100519048D01*
X235938095Y100566667D01*
X235890476Y100661905D01*
X235890476Y100757143D01*
X235938095Y100852381D01*
X235985714Y100900000D01*
X236080952Y100947620D01*
X236319047Y100947620D01*
X236461904Y100900000D01*
X236795238Y100947620D02*
X237033333Y99947620D01*
X237223809Y100661905D01*
X237414285Y99947620D01*
X237652380Y100947620D01*
X238557142Y99947620D02*
X237985714Y99947620D01*
X238271428Y99947620D02*
X238271428Y100947620D01*
X238176190Y100804762D01*
X238080952Y100709524D01*
X237985714Y100661905D01*
X239461904Y100947620D02*
X238985714Y100947620D01*
X238938095Y100471429D01*
X238985714Y100519048D01*
X239080952Y100566667D01*
X239319047Y100566667D01*
X239414285Y100519048D01*
X239461904Y100471429D01*
X239509523Y100376191D01*
X239509523Y100138096D01*
X239461904Y100042858D01*
X239414285Y99995239D01*
X239319047Y99947620D01*
X239080952Y99947620D01*
X238985714Y99995239D01*
X238938095Y100042858D01*
X253890476Y99995239D02*
X254033333Y99947620D01*
X254271428Y99947620D01*
X254366666Y99995239D01*
X254414285Y100042858D01*
X254461904Y100138096D01*
X254461904Y100233334D01*
X254414285Y100328572D01*
X254366666Y100376191D01*
X254271428Y100423810D01*
X254080952Y100471429D01*
X253985714Y100519048D01*
X253938095Y100566667D01*
X253890476Y100661905D01*
X253890476Y100757143D01*
X253938095Y100852381D01*
X253985714Y100900000D01*
X254080952Y100947620D01*
X254319047Y100947620D01*
X254461904Y100900000D01*
X254795238Y100947620D02*
X255033333Y99947620D01*
X255223809Y100661905D01*
X255414285Y99947620D01*
X255652380Y100947620D01*
X256557142Y99947620D02*
X255985714Y99947620D01*
X256271428Y99947620D02*
X256271428Y100947620D01*
X256176190Y100804762D01*
X256080952Y100709524D01*
X255985714Y100661905D01*
X257414285Y100947620D02*
X257223809Y100947620D01*
X257128571Y100900000D01*
X257080952Y100852381D01*
X256985714Y100709524D01*
X256938095Y100519048D01*
X256938095Y100138096D01*
X256985714Y100042858D01*
X257033333Y99995239D01*
X257128571Y99947620D01*
X257319047Y99947620D01*
X257414285Y99995239D01*
X257461904Y100042858D01*
X257509523Y100138096D01*
X257509523Y100376191D01*
X257461904Y100471429D01*
X257414285Y100519048D01*
X257319047Y100566667D01*
X257128571Y100566667D01*
X257033333Y100519048D01*
X256985714Y100471429D01*
X256938095Y100376191D01*
X10890476Y115495239D02*
X11033333Y115447620D01*
X11271428Y115447620D01*
X11366666Y115495239D01*
X11414285Y115542858D01*
X11461904Y115638096D01*
X11461904Y115733334D01*
X11414285Y115828572D01*
X11366666Y115876191D01*
X11271428Y115923810D01*
X11080952Y115971429D01*
X10985714Y116019048D01*
X10938095Y116066667D01*
X10890476Y116161905D01*
X10890476Y116257143D01*
X10938095Y116352381D01*
X10985714Y116400000D01*
X11080952Y116447620D01*
X11319047Y116447620D01*
X11461904Y116400000D01*
X11795238Y116447620D02*
X12033333Y115447620D01*
X12223809Y116161905D01*
X12414285Y115447620D01*
X12652380Y116447620D01*
X13557142Y115447620D02*
X12985714Y115447620D01*
X13271428Y115447620D02*
X13271428Y116447620D01*
X13176190Y116304762D01*
X13080952Y116209524D01*
X12985714Y116161905D01*
X13890476Y116447620D02*
X14557142Y116447620D01*
X14128571Y115447620D01*
X28890476Y115495239D02*
X29033333Y115447620D01*
X29271428Y115447620D01*
X29366666Y115495239D01*
X29414285Y115542858D01*
X29461904Y115638096D01*
X29461904Y115733334D01*
X29414285Y115828572D01*
X29366666Y115876191D01*
X29271428Y115923810D01*
X29080952Y115971429D01*
X28985714Y116019048D01*
X28938095Y116066667D01*
X28890476Y116161905D01*
X28890476Y116257143D01*
X28938095Y116352381D01*
X28985714Y116400000D01*
X29080952Y116447620D01*
X29319047Y116447620D01*
X29461904Y116400000D01*
X29795238Y116447620D02*
X30033333Y115447620D01*
X30223809Y116161905D01*
X30414285Y115447620D01*
X30652380Y116447620D01*
X31557142Y115447620D02*
X30985714Y115447620D01*
X31271428Y115447620D02*
X31271428Y116447620D01*
X31176190Y116304762D01*
X31080952Y116209524D01*
X30985714Y116161905D01*
X32128571Y116019048D02*
X32033333Y116066667D01*
X31985714Y116114286D01*
X31938095Y116209524D01*
X31938095Y116257143D01*
X31985714Y116352381D01*
X32033333Y116400000D01*
X32128571Y116447620D01*
X32319047Y116447620D01*
X32414285Y116400000D01*
X32461904Y116352381D01*
X32509523Y116257143D01*
X32509523Y116209524D01*
X32461904Y116114286D01*
X32414285Y116066667D01*
X32319047Y116019048D01*
X32128571Y116019048D01*
X32033333Y115971429D01*
X31985714Y115923810D01*
X31938095Y115828572D01*
X31938095Y115638096D01*
X31985714Y115542858D01*
X32033333Y115495239D01*
X32128571Y115447620D01*
X32319047Y115447620D01*
X32414285Y115495239D01*
X32461904Y115542858D01*
X32509523Y115638096D01*
X32509523Y115828572D01*
X32461904Y115923810D01*
X32414285Y115971429D01*
X32319047Y116019048D01*
X100890476Y115495239D02*
X101033333Y115447620D01*
X101271428Y115447620D01*
X101366666Y115495239D01*
X101414285Y115542858D01*
X101461904Y115638096D01*
X101461904Y115733334D01*
X101414285Y115828572D01*
X101366666Y115876191D01*
X101271428Y115923810D01*
X101080952Y115971429D01*
X100985714Y116019048D01*
X100938095Y116066667D01*
X100890476Y116161905D01*
X100890476Y116257143D01*
X100938095Y116352381D01*
X100985714Y116400000D01*
X101080952Y116447620D01*
X101319047Y116447620D01*
X101461904Y116400000D01*
X101795238Y116447620D02*
X102033333Y115447620D01*
X102223809Y116161905D01*
X102414285Y115447620D01*
X102652380Y116447620D01*
X102985714Y116352381D02*
X103033333Y116400000D01*
X103128571Y116447620D01*
X103366666Y116447620D01*
X103461904Y116400000D01*
X103509523Y116352381D01*
X103557142Y116257143D01*
X103557142Y116161905D01*
X103509523Y116019048D01*
X102938095Y115447620D01*
X103557142Y115447620D01*
X104509523Y115447620D02*
X103938095Y115447620D01*
X104223809Y115447620D02*
X104223809Y116447620D01*
X104128571Y116304762D01*
X104033333Y116209524D01*
X103938095Y116161905D01*
X136890476Y115495239D02*
X137033333Y115447620D01*
X137271428Y115447620D01*
X137366666Y115495239D01*
X137414285Y115542858D01*
X137461904Y115638096D01*
X137461904Y115733334D01*
X137414285Y115828572D01*
X137366666Y115876191D01*
X137271428Y115923810D01*
X137080952Y115971429D01*
X136985714Y116019048D01*
X136938095Y116066667D01*
X136890476Y116161905D01*
X136890476Y116257143D01*
X136938095Y116352381D01*
X136985714Y116400000D01*
X137080952Y116447620D01*
X137319047Y116447620D01*
X137461904Y116400000D01*
X137795238Y116447620D02*
X138033333Y115447620D01*
X138223809Y116161905D01*
X138414285Y115447620D01*
X138652380Y116447620D01*
X138985714Y116352381D02*
X139033333Y116400000D01*
X139128571Y116447620D01*
X139366666Y116447620D01*
X139461904Y116400000D01*
X139509523Y116352381D01*
X139557142Y116257143D01*
X139557142Y116161905D01*
X139509523Y116019048D01*
X138938095Y115447620D01*
X139557142Y115447620D01*
X139938095Y116352381D02*
X139985714Y116400000D01*
X140080952Y116447620D01*
X140319047Y116447620D01*
X140414285Y116400000D01*
X140461904Y116352381D01*
X140509523Y116257143D01*
X140509523Y116161905D01*
X140461904Y116019048D01*
X139890476Y115447620D01*
X140509523Y115447620D01*
X154890476Y115495239D02*
X155033333Y115447620D01*
X155271428Y115447620D01*
X155366666Y115495239D01*
X155414285Y115542858D01*
X155461904Y115638096D01*
X155461904Y115733334D01*
X155414285Y115828572D01*
X155366666Y115876191D01*
X155271428Y115923810D01*
X155080952Y115971429D01*
X154985714Y116019048D01*
X154938095Y116066667D01*
X154890476Y116161905D01*
X154890476Y116257143D01*
X154938095Y116352381D01*
X154985714Y116400000D01*
X155080952Y116447620D01*
X155319047Y116447620D01*
X155461904Y116400000D01*
X155795238Y116447620D02*
X156033333Y115447620D01*
X156223809Y116161905D01*
X156414285Y115447620D01*
X156652380Y116447620D01*
X156985714Y116352381D02*
X157033333Y116400000D01*
X157128571Y116447620D01*
X157366666Y116447620D01*
X157461904Y116400000D01*
X157509523Y116352381D01*
X157557142Y116257143D01*
X157557142Y116161905D01*
X157509523Y116019048D01*
X156938095Y115447620D01*
X157557142Y115447620D01*
X157890476Y116447620D02*
X158509523Y116447620D01*
X158176190Y116066667D01*
X158319047Y116066667D01*
X158414285Y116019048D01*
X158461904Y115971429D01*
X158509523Y115876191D01*
X158509523Y115638096D01*
X158461904Y115542858D01*
X158414285Y115495239D01*
X158319047Y115447620D01*
X158033333Y115447620D01*
X157938095Y115495239D01*
X157890476Y115542858D01*
X190890476Y115495239D02*
X191033333Y115447620D01*
X191271428Y115447620D01*
X191366666Y115495239D01*
X191414285Y115542858D01*
X191461904Y115638096D01*
X191461904Y115733334D01*
X191414285Y115828572D01*
X191366666Y115876191D01*
X191271428Y115923810D01*
X191080952Y115971429D01*
X190985714Y116019048D01*
X190938095Y116066667D01*
X190890476Y116161905D01*
X190890476Y116257143D01*
X190938095Y116352381D01*
X190985714Y116400000D01*
X191080952Y116447620D01*
X191319047Y116447620D01*
X191461904Y116400000D01*
X191795238Y116447620D02*
X192033333Y115447620D01*
X192223809Y116161905D01*
X192414285Y115447620D01*
X192652380Y116447620D01*
X192985714Y116352381D02*
X193033333Y116400000D01*
X193128571Y116447620D01*
X193366666Y116447620D01*
X193461904Y116400000D01*
X193509523Y116352381D01*
X193557142Y116257143D01*
X193557142Y116161905D01*
X193509523Y116019048D01*
X192938095Y115447620D01*
X193557142Y115447620D01*
X194414285Y116114286D02*
X194414285Y115447620D01*
X194176190Y116495239D02*
X193938095Y115780953D01*
X194557142Y115780953D01*
X20366666Y99995239D02*
X20509523Y99947620D01*
X20747619Y99947620D01*
X20842857Y99995239D01*
X20890476Y100042858D01*
X20938095Y100138096D01*
X20938095Y100233334D01*
X20890476Y100328572D01*
X20842857Y100376191D01*
X20747619Y100423810D01*
X20557142Y100471429D01*
X20461904Y100519048D01*
X20414285Y100566667D01*
X20366666Y100661905D01*
X20366666Y100757143D01*
X20414285Y100852381D01*
X20461904Y100900000D01*
X20557142Y100947620D01*
X20795238Y100947620D01*
X20938095Y100900000D01*
X21271428Y100947620D02*
X21509523Y99947620D01*
X21700000Y100661905D01*
X21890476Y99947620D01*
X22128571Y100947620D01*
X22414285Y100947620D02*
X23033333Y100947620D01*
X22700000Y100566667D01*
X22842857Y100566667D01*
X22938095Y100519048D01*
X22985714Y100471429D01*
X23033333Y100376191D01*
X23033333Y100138096D01*
X22985714Y100042858D01*
X22938095Y99995239D01*
X22842857Y99947620D01*
X22557142Y99947620D01*
X22461904Y99995239D01*
X22414285Y100042858D01*
X38366666Y99995239D02*
X38509523Y99947620D01*
X38747619Y99947620D01*
X38842857Y99995239D01*
X38890476Y100042858D01*
X38938095Y100138096D01*
X38938095Y100233334D01*
X38890476Y100328572D01*
X38842857Y100376191D01*
X38747619Y100423810D01*
X38557142Y100471429D01*
X38461904Y100519048D01*
X38414285Y100566667D01*
X38366666Y100661905D01*
X38366666Y100757143D01*
X38414285Y100852381D01*
X38461904Y100900000D01*
X38557142Y100947620D01*
X38795238Y100947620D01*
X38938095Y100900000D01*
X39271428Y100947620D02*
X39509523Y99947620D01*
X39700000Y100661905D01*
X39890476Y99947620D01*
X40128571Y100947620D01*
X40938095Y100614286D02*
X40938095Y99947620D01*
X40700000Y100995239D02*
X40461904Y100280953D01*
X41080952Y100280953D01*
X56366666Y99995239D02*
X56509523Y99947620D01*
X56747619Y99947620D01*
X56842857Y99995239D01*
X56890476Y100042858D01*
X56938095Y100138096D01*
X56938095Y100233334D01*
X56890476Y100328572D01*
X56842857Y100376191D01*
X56747619Y100423810D01*
X56557142Y100471429D01*
X56461904Y100519048D01*
X56414285Y100566667D01*
X56366666Y100661905D01*
X56366666Y100757143D01*
X56414285Y100852381D01*
X56461904Y100900000D01*
X56557142Y100947620D01*
X56795238Y100947620D01*
X56938095Y100900000D01*
X57271428Y100947620D02*
X57509523Y99947620D01*
X57700000Y100661905D01*
X57890476Y99947620D01*
X58128571Y100947620D01*
X58985714Y100947620D02*
X58509523Y100947620D01*
X58461904Y100471429D01*
X58509523Y100519048D01*
X58604761Y100566667D01*
X58842857Y100566667D01*
X58938095Y100519048D01*
X58985714Y100471429D01*
X59033333Y100376191D01*
X59033333Y100138096D01*
X58985714Y100042858D01*
X58938095Y99995239D01*
X58842857Y99947620D01*
X58604761Y99947620D01*
X58509523Y99995239D01*
X58461904Y100042858D01*
X74366666Y99995239D02*
X74509523Y99947620D01*
X74747619Y99947620D01*
X74842857Y99995239D01*
X74890476Y100042858D01*
X74938095Y100138096D01*
X74938095Y100233334D01*
X74890476Y100328572D01*
X74842857Y100376191D01*
X74747619Y100423810D01*
X74557142Y100471429D01*
X74461904Y100519048D01*
X74414285Y100566667D01*
X74366666Y100661905D01*
X74366666Y100757143D01*
X74414285Y100852381D01*
X74461904Y100900000D01*
X74557142Y100947620D01*
X74795238Y100947620D01*
X74938095Y100900000D01*
X75271428Y100947620D02*
X75509523Y99947620D01*
X75700000Y100661905D01*
X75890476Y99947620D01*
X76128571Y100947620D01*
X76938095Y100947620D02*
X76747619Y100947620D01*
X76652380Y100900000D01*
X76604761Y100852381D01*
X76509523Y100709524D01*
X76461904Y100519048D01*
X76461904Y100138096D01*
X76509523Y100042858D01*
X76557142Y99995239D01*
X76652380Y99947620D01*
X76842857Y99947620D01*
X76938095Y99995239D01*
X76985714Y100042858D01*
X77033333Y100138096D01*
X77033333Y100376191D01*
X76985714Y100471429D01*
X76938095Y100519048D01*
X76842857Y100566667D01*
X76652380Y100566667D01*
X76557142Y100519048D01*
X76509523Y100471429D01*
X76461904Y100376191D01*
X92366666Y99995239D02*
X92509523Y99947620D01*
X92747619Y99947620D01*
X92842857Y99995239D01*
X92890476Y100042858D01*
X92938095Y100138096D01*
X92938095Y100233334D01*
X92890476Y100328572D01*
X92842857Y100376191D01*
X92747619Y100423810D01*
X92557142Y100471429D01*
X92461904Y100519048D01*
X92414285Y100566667D01*
X92366666Y100661905D01*
X92366666Y100757143D01*
X92414285Y100852381D01*
X92461904Y100900000D01*
X92557142Y100947620D01*
X92795238Y100947620D01*
X92938095Y100900000D01*
X93271428Y100947620D02*
X93509523Y99947620D01*
X93700000Y100661905D01*
X93890476Y99947620D01*
X94128571Y100947620D01*
X94414285Y100947620D02*
X95080952Y100947620D01*
X94652380Y99947620D01*
X110366666Y99995239D02*
X110509523Y99947620D01*
X110747619Y99947620D01*
X110842857Y99995239D01*
X110890476Y100042858D01*
X110938095Y100138096D01*
X110938095Y100233334D01*
X110890476Y100328572D01*
X110842857Y100376191D01*
X110747619Y100423810D01*
X110557142Y100471429D01*
X110461904Y100519048D01*
X110414285Y100566667D01*
X110366666Y100661905D01*
X110366666Y100757143D01*
X110414285Y100852381D01*
X110461904Y100900000D01*
X110557142Y100947620D01*
X110795238Y100947620D01*
X110938095Y100900000D01*
X111271428Y100947620D02*
X111509523Y99947620D01*
X111700000Y100661905D01*
X111890476Y99947620D01*
X112128571Y100947620D01*
X112652380Y100519048D02*
X112557142Y100566667D01*
X112509523Y100614286D01*
X112461904Y100709524D01*
X112461904Y100757143D01*
X112509523Y100852381D01*
X112557142Y100900000D01*
X112652380Y100947620D01*
X112842857Y100947620D01*
X112938095Y100900000D01*
X112985714Y100852381D01*
X113033333Y100757143D01*
X113033333Y100709524D01*
X112985714Y100614286D01*
X112938095Y100566667D01*
X112842857Y100519048D01*
X112652380Y100519048D01*
X112557142Y100471429D01*
X112509523Y100423810D01*
X112461904Y100328572D01*
X112461904Y100138096D01*
X112509523Y100042858D01*
X112557142Y99995239D01*
X112652380Y99947620D01*
X112842857Y99947620D01*
X112938095Y99995239D01*
X112985714Y100042858D01*
X113033333Y100138096D01*
X113033333Y100328572D01*
X112985714Y100423810D01*
X112938095Y100471429D01*
X112842857Y100519048D01*
X128366666Y99995239D02*
X128509523Y99947620D01*
X128747619Y99947620D01*
X128842857Y99995239D01*
X128890476Y100042858D01*
X128938095Y100138096D01*
X128938095Y100233334D01*
X128890476Y100328572D01*
X128842857Y100376191D01*
X128747619Y100423810D01*
X128557142Y100471429D01*
X128461904Y100519048D01*
X128414285Y100566667D01*
X128366666Y100661905D01*
X128366666Y100757143D01*
X128414285Y100852381D01*
X128461904Y100900000D01*
X128557142Y100947620D01*
X128795238Y100947620D01*
X128938095Y100900000D01*
X129271428Y100947620D02*
X129509523Y99947620D01*
X129700000Y100661905D01*
X129890476Y99947620D01*
X130128571Y100947620D01*
X130557142Y99947620D02*
X130747619Y99947620D01*
X130842857Y99995239D01*
X130890476Y100042858D01*
X130985714Y100185715D01*
X131033333Y100376191D01*
X131033333Y100757143D01*
X130985714Y100852381D01*
X130938095Y100900000D01*
X130842857Y100947620D01*
X130652380Y100947620D01*
X130557142Y100900000D01*
X130509523Y100852381D01*
X130461904Y100757143D01*
X130461904Y100519048D01*
X130509523Y100423810D01*
X130557142Y100376191D01*
X130652380Y100328572D01*
X130842857Y100328572D01*
X130938095Y100376191D01*
X130985714Y100423810D01*
X131033333Y100519048D01*
X145890476Y99995239D02*
X146033333Y99947620D01*
X146271428Y99947620D01*
X146366666Y99995239D01*
X146414285Y100042858D01*
X146461904Y100138096D01*
X146461904Y100233334D01*
X146414285Y100328572D01*
X146366666Y100376191D01*
X146271428Y100423810D01*
X146080952Y100471429D01*
X145985714Y100519048D01*
X145938095Y100566667D01*
X145890476Y100661905D01*
X145890476Y100757143D01*
X145938095Y100852381D01*
X145985714Y100900000D01*
X146080952Y100947620D01*
X146319047Y100947620D01*
X146461904Y100900000D01*
X146795238Y100947620D02*
X147033333Y99947620D01*
X147223809Y100661905D01*
X147414285Y99947620D01*
X147652380Y100947620D01*
X148557142Y99947620D02*
X147985714Y99947620D01*
X148271428Y99947620D02*
X148271428Y100947620D01*
X148176190Y100804762D01*
X148080952Y100709524D01*
X147985714Y100661905D01*
X149176190Y100947620D02*
X149271428Y100947620D01*
X149366666Y100900000D01*
X149414285Y100852381D01*
X149461904Y100757143D01*
X149509523Y100566667D01*
X149509523Y100328572D01*
X149461904Y100138096D01*
X149414285Y100042858D01*
X149366666Y99995239D01*
X149271428Y99947620D01*
X149176190Y99947620D01*
X149080952Y99995239D01*
X149033333Y100042858D01*
X148985714Y100138096D01*
X148938095Y100328572D01*
X148938095Y100566667D01*
X148985714Y100757143D01*
X149033333Y100852381D01*
X149080952Y100900000D01*
X149176190Y100947620D01*
X163890476Y99995239D02*
X164033333Y99947620D01*
X164271428Y99947620D01*
X164366666Y99995239D01*
X164414285Y100042858D01*
X164461904Y100138096D01*
X164461904Y100233334D01*
X164414285Y100328572D01*
X164366666Y100376191D01*
X164271428Y100423810D01*
X164080952Y100471429D01*
X163985714Y100519048D01*
X163938095Y100566667D01*
X163890476Y100661905D01*
X163890476Y100757143D01*
X163938095Y100852381D01*
X163985714Y100900000D01*
X164080952Y100947620D01*
X164319047Y100947620D01*
X164461904Y100900000D01*
X164795238Y100947620D02*
X165033333Y99947620D01*
X165223809Y100661905D01*
X165414285Y99947620D01*
X165652380Y100947620D01*
X166557142Y99947620D02*
X165985714Y99947620D01*
X166271428Y99947620D02*
X166271428Y100947620D01*
X166176190Y100804762D01*
X166080952Y100709524D01*
X165985714Y100661905D01*
X167509523Y99947620D02*
X166938095Y99947620D01*
X167223809Y99947620D02*
X167223809Y100947620D01*
X167128571Y100804762D01*
X167033333Y100709524D01*
X166938095Y100661905D01*
X181890476Y99995239D02*
X182033333Y99947620D01*
X182271428Y99947620D01*
X182366666Y99995239D01*
X182414285Y100042858D01*
X182461904Y100138096D01*
X182461904Y100233334D01*
X182414285Y100328572D01*
X182366666Y100376191D01*
X182271428Y100423810D01*
X182080952Y100471429D01*
X181985714Y100519048D01*
X181938095Y100566667D01*
X181890476Y100661905D01*
X181890476Y100757143D01*
X181938095Y100852381D01*
X181985714Y100900000D01*
X182080952Y100947620D01*
X182319047Y100947620D01*
X182461904Y100900000D01*
X182795238Y100947620D02*
X183033333Y99947620D01*
X183223809Y100661905D01*
X183414285Y99947620D01*
X183652380Y100947620D01*
X184557142Y99947620D02*
X183985714Y99947620D01*
X184271428Y99947620D02*
X184271428Y100947620D01*
X184176190Y100804762D01*
X184080952Y100709524D01*
X183985714Y100661905D01*
X184938095Y100852381D02*
X184985714Y100900000D01*
X185080952Y100947620D01*
X185319047Y100947620D01*
X185414285Y100900000D01*
X185461904Y100852381D01*
X185509523Y100757143D01*
X185509523Y100661905D01*
X185461904Y100519048D01*
X184890476Y99947620D01*
X185509523Y99947620D01*
X199890476Y99995239D02*
X200033333Y99947620D01*
X200271428Y99947620D01*
X200366666Y99995239D01*
X200414285Y100042858D01*
X200461904Y100138096D01*
X200461904Y100233334D01*
X200414285Y100328572D01*
X200366666Y100376191D01*
X200271428Y100423810D01*
X200080952Y100471429D01*
X199985714Y100519048D01*
X199938095Y100566667D01*
X199890476Y100661905D01*
X199890476Y100757143D01*
X199938095Y100852381D01*
X199985714Y100900000D01*
X200080952Y100947620D01*
X200319047Y100947620D01*
X200461904Y100900000D01*
X200795238Y100947620D02*
X201033333Y99947620D01*
X201223809Y100661905D01*
X201414285Y99947620D01*
X201652380Y100947620D01*
X202557142Y99947620D02*
X201985714Y99947620D01*
X202271428Y99947620D02*
X202271428Y100947620D01*
X202176190Y100804762D01*
X202080952Y100709524D01*
X201985714Y100661905D01*
X202890476Y100947620D02*
X203509523Y100947620D01*
X203176190Y100566667D01*
X203319047Y100566667D01*
X203414285Y100519048D01*
X203461904Y100471429D01*
X203509523Y100376191D01*
X203509523Y100138096D01*
X203461904Y100042858D01*
X203414285Y99995239D01*
X203319047Y99947620D01*
X203033333Y99947620D01*
X202938095Y99995239D01*
X202890476Y100042858D01*
X217890476Y99995239D02*
X218033333Y99947620D01*
X218271428Y99947620D01*
X218366666Y99995239D01*
X218414285Y100042858D01*
X218461904Y100138096D01*
X218461904Y100233334D01*
X218414285Y100328572D01*
X218366666Y100376191D01*
X218271428Y100423810D01*
X218080952Y100471429D01*
X217985714Y100519048D01*
X217938095Y100566667D01*
X217890476Y100661905D01*
X217890476Y100757143D01*
X217938095Y100852381D01*
X217985714Y100900000D01*
X218080952Y100947620D01*
X218319047Y100947620D01*
X218461904Y100900000D01*
X218795238Y100947620D02*
X219033333Y99947620D01*
X219223809Y100661905D01*
X219414285Y99947620D01*
X219652380Y100947620D01*
X220557142Y99947620D02*
X219985714Y99947620D01*
X220271428Y99947620D02*
X220271428Y100947620D01*
X220176190Y100804762D01*
X220080952Y100709524D01*
X219985714Y100661905D01*
X221414285Y100614286D02*
X221414285Y99947620D01*
X221176190Y100995239D02*
X220938095Y100280953D01*
X221557142Y100280953D01*
X64890476Y115495239D02*
X65033333Y115447620D01*
X65271428Y115447620D01*
X65366666Y115495239D01*
X65414285Y115542858D01*
X65461904Y115638096D01*
X65461904Y115733334D01*
X65414285Y115828572D01*
X65366666Y115876191D01*
X65271428Y115923810D01*
X65080952Y115971429D01*
X64985714Y116019048D01*
X64938095Y116066667D01*
X64890476Y116161905D01*
X64890476Y116257143D01*
X64938095Y116352381D01*
X64985714Y116400000D01*
X65080952Y116447620D01*
X65319047Y116447620D01*
X65461904Y116400000D01*
X65795238Y116447620D02*
X66033333Y115447620D01*
X66223809Y116161905D01*
X66414285Y115447620D01*
X66652380Y116447620D01*
X67557142Y115447620D02*
X66985714Y115447620D01*
X67271428Y115447620D02*
X67271428Y116447620D01*
X67176190Y116304762D01*
X67080952Y116209524D01*
X66985714Y116161905D01*
X68033333Y115447620D02*
X68223809Y115447620D01*
X68319047Y115495239D01*
X68366666Y115542858D01*
X68461904Y115685715D01*
X68509523Y115876191D01*
X68509523Y116257143D01*
X68461904Y116352381D01*
X68414285Y116400000D01*
X68319047Y116447620D01*
X68128571Y116447620D01*
X68033333Y116400000D01*
X67985714Y116352381D01*
X67938095Y116257143D01*
X67938095Y116019048D01*
X67985714Y115923810D01*
X68033333Y115876191D01*
X68128571Y115828572D01*
X68319047Y115828572D01*
X68414285Y115876191D01*
X68461904Y115923810D01*
X68509523Y116019048D01*
X82890476Y115495239D02*
X83033333Y115447620D01*
X83271428Y115447620D01*
X83366666Y115495239D01*
X83414285Y115542858D01*
X83461904Y115638096D01*
X83461904Y115733334D01*
X83414285Y115828572D01*
X83366666Y115876191D01*
X83271428Y115923810D01*
X83080952Y115971429D01*
X82985714Y116019048D01*
X82938095Y116066667D01*
X82890476Y116161905D01*
X82890476Y116257143D01*
X82938095Y116352381D01*
X82985714Y116400000D01*
X83080952Y116447620D01*
X83319047Y116447620D01*
X83461904Y116400000D01*
X83795238Y116447620D02*
X84033333Y115447620D01*
X84223809Y116161905D01*
X84414285Y115447620D01*
X84652380Y116447620D01*
X84985714Y116352381D02*
X85033333Y116400000D01*
X85128571Y116447620D01*
X85366666Y116447620D01*
X85461904Y116400000D01*
X85509523Y116352381D01*
X85557142Y116257143D01*
X85557142Y116161905D01*
X85509523Y116019048D01*
X84938095Y115447620D01*
X85557142Y115447620D01*
X86176190Y116447620D02*
X86271428Y116447620D01*
X86366666Y116400000D01*
X86414285Y116352381D01*
X86461904Y116257143D01*
X86509523Y116066667D01*
X86509523Y115828572D01*
X86461904Y115638096D01*
X86414285Y115542858D01*
X86366666Y115495239D01*
X86271428Y115447620D01*
X86176190Y115447620D01*
X86080952Y115495239D01*
X86033333Y115542858D01*
X85985714Y115638096D01*
X85938095Y115828572D01*
X85938095Y116066667D01*
X85985714Y116257143D01*
X86033333Y116352381D01*
X86080952Y116400000D01*
X86176190Y116447620D01*
X208890476Y115495239D02*
X209033333Y115447620D01*
X209271428Y115447620D01*
X209366666Y115495239D01*
X209414285Y115542858D01*
X209461904Y115638096D01*
X209461904Y115733334D01*
X209414285Y115828572D01*
X209366666Y115876191D01*
X209271428Y115923810D01*
X209080952Y115971429D01*
X208985714Y116019048D01*
X208938095Y116066667D01*
X208890476Y116161905D01*
X208890476Y116257143D01*
X208938095Y116352381D01*
X208985714Y116400000D01*
X209080952Y116447620D01*
X209319047Y116447620D01*
X209461904Y116400000D01*
X209795238Y116447620D02*
X210033333Y115447620D01*
X210223809Y116161905D01*
X210414285Y115447620D01*
X210652380Y116447620D01*
X210985714Y116352381D02*
X211033333Y116400000D01*
X211128571Y116447620D01*
X211366666Y116447620D01*
X211461904Y116400000D01*
X211509523Y116352381D01*
X211557142Y116257143D01*
X211557142Y116161905D01*
X211509523Y116019048D01*
X210938095Y115447620D01*
X211557142Y115447620D01*
X212461904Y116447620D02*
X211985714Y116447620D01*
X211938095Y115971429D01*
X211985714Y116019048D01*
X212080952Y116066667D01*
X212319047Y116066667D01*
X212414285Y116019048D01*
X212461904Y115971429D01*
X212509523Y115876191D01*
X212509523Y115638096D01*
X212461904Y115542858D01*
X212414285Y115495239D01*
X212319047Y115447620D01*
X212080952Y115447620D01*
X211985714Y115495239D01*
X211938095Y115542858D01*
X226890476Y115495239D02*
X227033333Y115447620D01*
X227271428Y115447620D01*
X227366666Y115495239D01*
X227414285Y115542858D01*
X227461904Y115638096D01*
X227461904Y115733334D01*
X227414285Y115828572D01*
X227366666Y115876191D01*
X227271428Y115923810D01*
X227080952Y115971429D01*
X226985714Y116019048D01*
X226938095Y116066667D01*
X226890476Y116161905D01*
X226890476Y116257143D01*
X226938095Y116352381D01*
X226985714Y116400000D01*
X227080952Y116447620D01*
X227319047Y116447620D01*
X227461904Y116400000D01*
X227795238Y116447620D02*
X228033333Y115447620D01*
X228223809Y116161905D01*
X228414285Y115447620D01*
X228652380Y116447620D01*
X228985714Y116352381D02*
X229033333Y116400000D01*
X229128571Y116447620D01*
X229366666Y116447620D01*
X229461904Y116400000D01*
X229509523Y116352381D01*
X229557142Y116257143D01*
X229557142Y116161905D01*
X229509523Y116019048D01*
X228938095Y115447620D01*
X229557142Y115447620D01*
X230414285Y116447620D02*
X230223809Y116447620D01*
X230128571Y116400000D01*
X230080952Y116352381D01*
X229985714Y116209524D01*
X229938095Y116019048D01*
X229938095Y115638096D01*
X229985714Y115542858D01*
X230033333Y115495239D01*
X230128571Y115447620D01*
X230319047Y115447620D01*
X230414285Y115495239D01*
X230461904Y115542858D01*
X230509523Y115638096D01*
X230509523Y115876191D01*
X230461904Y115971429D01*
X230414285Y116019048D01*
X230319047Y116066667D01*
X230128571Y116066667D01*
X230033333Y116019048D01*
X229985714Y115971429D01*
X229938095Y115876191D01*
X-13357143Y143528572D02*
X-13357143Y143795239D01*
X-12938096Y143909524D02*
X-12938096Y143528572D01*
X-13738096Y143528572D01*
X-13738096Y143909524D01*
X-12938096Y144252381D02*
X-13738096Y144252381D01*
X-12938096Y144709524D01*
X-13738096Y144709524D01*
X-13014286Y145547620D02*
X-12976191Y145509524D01*
X-12938096Y145395239D01*
X-12938096Y145319048D01*
X-12976191Y145204762D01*
X-13052381Y145128572D01*
X-13128572Y145090477D01*
X-13280953Y145052381D01*
X-13395239Y145052381D01*
X-13547620Y145090477D01*
X-13623810Y145128572D01*
X-13700000Y145204762D01*
X-13738096Y145319048D01*
X-13738096Y145395239D01*
X-13700000Y145509524D01*
X-13661905Y145547620D01*
X-12938096Y146309524D02*
X-12938096Y145852381D01*
X-12938096Y146080953D02*
X-13738096Y146080953D01*
X-13623810Y146004762D01*
X-13547620Y145928572D01*
X-13509524Y145852381D01*
X40642857Y143528572D02*
X40642857Y143795239D01*
X41061904Y143909524D02*
X41061904Y143528572D01*
X40261904Y143528572D01*
X40261904Y143909524D01*
X41061904Y144252381D02*
X40261904Y144252381D01*
X41061904Y144709524D01*
X40261904Y144709524D01*
X40985714Y145547620D02*
X41023809Y145509524D01*
X41061904Y145395239D01*
X41061904Y145319048D01*
X41023809Y145204762D01*
X40947619Y145128572D01*
X40871428Y145090477D01*
X40719047Y145052381D01*
X40604761Y145052381D01*
X40452380Y145090477D01*
X40376190Y145128572D01*
X40300000Y145204762D01*
X40261904Y145319048D01*
X40261904Y145395239D01*
X40300000Y145509524D01*
X40338095Y145547620D01*
X40261904Y145814286D02*
X40261904Y146309524D01*
X40566666Y146042858D01*
X40566666Y146157143D01*
X40604761Y146233334D01*
X40642857Y146271429D01*
X40719047Y146309524D01*
X40909523Y146309524D01*
X40985714Y146271429D01*
X41023809Y146233334D01*
X41061904Y146157143D01*
X41061904Y145928572D01*
X41023809Y145852381D01*
X40985714Y145814286D01*
X13642857Y163528572D02*
X13642857Y163795239D01*
X14061904Y163909524D02*
X14061904Y163528572D01*
X13261904Y163528572D01*
X13261904Y163909524D01*
X14061904Y164252381D02*
X13261904Y164252381D01*
X14061904Y164709524D01*
X13261904Y164709524D01*
X13985714Y165547620D02*
X14023809Y165509524D01*
X14061904Y165395239D01*
X14061904Y165319048D01*
X14023809Y165204762D01*
X13947619Y165128572D01*
X13871428Y165090477D01*
X13719047Y165052381D01*
X13604761Y165052381D01*
X13452380Y165090477D01*
X13376190Y165128572D01*
X13300000Y165204762D01*
X13261904Y165319048D01*
X13261904Y165395239D01*
X13300000Y165509524D01*
X13338095Y165547620D01*
X13338095Y165852381D02*
X13300000Y165890477D01*
X13261904Y165966667D01*
X13261904Y166157143D01*
X13300000Y166233334D01*
X13338095Y166271429D01*
X13414285Y166309524D01*
X13490476Y166309524D01*
X13604761Y166271429D01*
X14061904Y165814286D01*
X14061904Y166309524D01*
X74328571Y156957143D02*
X74595238Y156957143D01*
X74709523Y156538096D02*
X74328571Y156538096D01*
X74328571Y157338096D01*
X74709523Y157338096D01*
X75052380Y156538096D02*
X75052380Y157338096D01*
X75509523Y156538096D01*
X75509523Y157338096D01*
X76347619Y156614286D02*
X76309523Y156576191D01*
X76195238Y156538096D01*
X76119047Y156538096D01*
X76004761Y156576191D01*
X75928571Y156652381D01*
X75890476Y156728572D01*
X75852380Y156880953D01*
X75852380Y156995239D01*
X75890476Y157147620D01*
X75928571Y157223810D01*
X76004761Y157300000D01*
X76119047Y157338096D01*
X76195238Y157338096D01*
X76309523Y157300000D01*
X76347619Y157261905D01*
X77033333Y157071429D02*
X77033333Y156538096D01*
X76842857Y157376191D02*
X76652380Y156804762D01*
X77147619Y156804762D01*
M02*
