G04 #@! TF.GenerationSoftware,KiCad,Pcbnew,5.1.9*
G04 #@! TF.CreationDate,2021-03-31T15:37:06+02:00*
G04 #@! TF.ProjectId,OTTO-Beta-Main,4f54544f-2d42-4657-9461-2d4d61696e2e,rev?*
G04 #@! TF.SameCoordinates,Original*
G04 #@! TF.FileFunction,Legend,Top*
G04 #@! TF.FilePolarity,Positive*
%FSLAX46Y46*%
G04 Gerber Fmt 4.6, Leading zero omitted, Abs format (unit mm)*
G04 Created by KiCad (PCBNEW 5.1.9) date 2021-03-31 15:37:06*
%MOMM*%
%LPD*%
G01*
G04 APERTURE LIST*
%ADD10C,0.150000*%
%ADD11C,0.200000*%
%ADD12C,0.240000*%
%ADD13C,0.120000*%
%ADD14C,0.250000*%
%ADD15C,0.010000*%
G04 APERTURE END LIST*
D10*
X271167952Y-18233380D02*
X271167952Y-17233380D01*
X271501285Y-17947666D01*
X271834619Y-17233380D01*
X271834619Y-18233380D01*
X272310809Y-18233380D02*
X272310809Y-17233380D01*
X273358428Y-18138142D02*
X273310809Y-18185761D01*
X273167952Y-18233380D01*
X273072714Y-18233380D01*
X272929857Y-18185761D01*
X272834619Y-18090523D01*
X272787000Y-17995285D01*
X272739380Y-17804809D01*
X272739380Y-17661952D01*
X272787000Y-17471476D01*
X272834619Y-17376238D01*
X272929857Y-17281000D01*
X273072714Y-17233380D01*
X273167952Y-17233380D01*
X273310809Y-17281000D01*
X273358428Y-17328619D01*
X274358428Y-18233380D02*
X274025095Y-17757190D01*
X273787000Y-18233380D02*
X273787000Y-17233380D01*
X274167952Y-17233380D01*
X274263190Y-17281000D01*
X274310809Y-17328619D01*
X274358428Y-17423857D01*
X274358428Y-17566714D01*
X274310809Y-17661952D01*
X274263190Y-17709571D01*
X274167952Y-17757190D01*
X273787000Y-17757190D01*
X274977476Y-17233380D02*
X275167952Y-17233380D01*
X275263190Y-17281000D01*
X275358428Y-17376238D01*
X275406047Y-17566714D01*
X275406047Y-17900047D01*
X275358428Y-18090523D01*
X275263190Y-18185761D01*
X275167952Y-18233380D01*
X274977476Y-18233380D01*
X274882238Y-18185761D01*
X274787000Y-18090523D01*
X274739380Y-17900047D01*
X274739380Y-17566714D01*
X274787000Y-17376238D01*
X274882238Y-17281000D01*
X274977476Y-17233380D01*
X275834619Y-18233380D02*
X275834619Y-17233380D01*
X276215571Y-17233380D01*
X276310809Y-17281000D01*
X276358428Y-17328619D01*
X276406047Y-17423857D01*
X276406047Y-17566714D01*
X276358428Y-17661952D01*
X276310809Y-17709571D01*
X276215571Y-17757190D01*
X275834619Y-17757190D01*
X276834619Y-18233380D02*
X276834619Y-17233380D01*
X276834619Y-17709571D02*
X277406047Y-17709571D01*
X277406047Y-18233380D02*
X277406047Y-17233380D01*
X278072714Y-17233380D02*
X278263190Y-17233380D01*
X278358428Y-17281000D01*
X278453666Y-17376238D01*
X278501285Y-17566714D01*
X278501285Y-17900047D01*
X278453666Y-18090523D01*
X278358428Y-18185761D01*
X278263190Y-18233380D01*
X278072714Y-18233380D01*
X277977476Y-18185761D01*
X277882238Y-18090523D01*
X277834619Y-17900047D01*
X277834619Y-17566714D01*
X277882238Y-17376238D01*
X277977476Y-17281000D01*
X278072714Y-17233380D01*
X278929857Y-18233380D02*
X278929857Y-17233380D01*
X279501285Y-18233380D01*
X279501285Y-17233380D01*
X279977476Y-17709571D02*
X280310809Y-17709571D01*
X280453666Y-18233380D02*
X279977476Y-18233380D01*
X279977476Y-17233380D01*
X280453666Y-17233380D01*
X213953000Y-73075000D02*
X214207000Y-73075000D01*
X213572000Y-72694000D02*
X214588000Y-72694000D01*
X213318000Y-72313000D02*
X214842000Y-72313000D01*
X214080000Y-71297000D02*
X214080000Y-72313000D01*
X212197142Y-71525714D02*
X212197142Y-72211428D01*
X210997142Y-71868571D02*
X212197142Y-71868571D01*
X212197142Y-72497142D02*
X210997142Y-73297142D01*
X212197142Y-73297142D02*
X210997142Y-72497142D01*
X208457142Y-72240000D02*
X209028571Y-71840000D01*
X208457142Y-71554285D02*
X209657142Y-71554285D01*
X209657142Y-72011428D01*
X209600000Y-72125714D01*
X209542857Y-72182857D01*
X209428571Y-72240000D01*
X209257142Y-72240000D01*
X209142857Y-72182857D01*
X209085714Y-72125714D01*
X209028571Y-72011428D01*
X209028571Y-71554285D01*
X209657142Y-72640000D02*
X208457142Y-73440000D01*
X209657142Y-73440000D02*
X208457142Y-72640000D01*
X208428571Y-68242857D02*
X208028571Y-67671428D01*
X207742857Y-68242857D02*
X207742857Y-67042857D01*
X208200000Y-67042857D01*
X208314285Y-67100000D01*
X208371428Y-67157142D01*
X208428571Y-67271428D01*
X208428571Y-67442857D01*
X208371428Y-67557142D01*
X208314285Y-67614285D01*
X208200000Y-67671428D01*
X207742857Y-67671428D01*
X208942857Y-68242857D02*
X208942857Y-67042857D01*
X209400000Y-67042857D01*
X209514285Y-67100000D01*
X209571428Y-67157142D01*
X209628571Y-67271428D01*
X209628571Y-67442857D01*
X209571428Y-67557142D01*
X209514285Y-67614285D01*
X209400000Y-67671428D01*
X208942857Y-67671428D01*
X210142857Y-68242857D02*
X210142857Y-67042857D01*
X211628571Y-67042857D02*
X211628571Y-68014285D01*
X211685714Y-68128571D01*
X211742857Y-68185714D01*
X211857142Y-68242857D01*
X212085714Y-68242857D01*
X212200000Y-68185714D01*
X212257142Y-68128571D01*
X212314285Y-68014285D01*
X212314285Y-67042857D01*
X212828571Y-67900000D02*
X213400000Y-67900000D01*
X212714285Y-68242857D02*
X213114285Y-67042857D01*
X213514285Y-68242857D01*
X214600000Y-68242857D02*
X214200000Y-67671428D01*
X213914285Y-68242857D02*
X213914285Y-67042857D01*
X214371428Y-67042857D01*
X214485714Y-67100000D01*
X214542857Y-67157142D01*
X214600000Y-67271428D01*
X214600000Y-67442857D01*
X214542857Y-67557142D01*
X214485714Y-67614285D01*
X214371428Y-67671428D01*
X213914285Y-67671428D01*
X214942857Y-67042857D02*
X215628571Y-67042857D01*
X215285714Y-68242857D02*
X215285714Y-67042857D01*
X37193090Y-14023000D02*
G75*
G03*
X37193090Y-14023000I-555090J0D01*
G01*
X40828833Y-14023000D02*
G75*
G03*
X40828833Y-14023000I-540833J0D01*
G01*
X114598571Y-55316380D02*
X114598571Y-54316380D01*
X114931904Y-55030666D01*
X115265238Y-54316380D01*
X115265238Y-55316380D01*
X115693809Y-55030666D02*
X116170000Y-55030666D01*
X115598571Y-55316380D02*
X115931904Y-54316380D01*
X116265238Y-55316380D01*
X116598571Y-55316380D02*
X116598571Y-54316380D01*
X117074761Y-55316380D02*
X117074761Y-54316380D01*
X117646190Y-55316380D01*
X117646190Y-54316380D01*
X119217619Y-54792571D02*
X119360476Y-54840190D01*
X119408095Y-54887809D01*
X119455714Y-54983047D01*
X119455714Y-55125904D01*
X119408095Y-55221142D01*
X119360476Y-55268761D01*
X119265238Y-55316380D01*
X118884285Y-55316380D01*
X118884285Y-54316380D01*
X119217619Y-54316380D01*
X119312857Y-54364000D01*
X119360476Y-54411619D01*
X119408095Y-54506857D01*
X119408095Y-54602095D01*
X119360476Y-54697333D01*
X119312857Y-54744952D01*
X119217619Y-54792571D01*
X118884285Y-54792571D01*
X120074761Y-54316380D02*
X120265238Y-54316380D01*
X120360476Y-54364000D01*
X120455714Y-54459238D01*
X120503333Y-54649714D01*
X120503333Y-54983047D01*
X120455714Y-55173523D01*
X120360476Y-55268761D01*
X120265238Y-55316380D01*
X120074761Y-55316380D01*
X119979523Y-55268761D01*
X119884285Y-55173523D01*
X119836666Y-54983047D01*
X119836666Y-54649714D01*
X119884285Y-54459238D01*
X119979523Y-54364000D01*
X120074761Y-54316380D01*
X120884285Y-55030666D02*
X121360476Y-55030666D01*
X120789047Y-55316380D02*
X121122380Y-54316380D01*
X121455714Y-55316380D01*
X122360476Y-55316380D02*
X122027142Y-54840190D01*
X121789047Y-55316380D02*
X121789047Y-54316380D01*
X122170000Y-54316380D01*
X122265238Y-54364000D01*
X122312857Y-54411619D01*
X122360476Y-54506857D01*
X122360476Y-54649714D01*
X122312857Y-54744952D01*
X122265238Y-54792571D01*
X122170000Y-54840190D01*
X121789047Y-54840190D01*
X122789047Y-55316380D02*
X122789047Y-54316380D01*
X123027142Y-54316380D01*
X123170000Y-54364000D01*
X123265238Y-54459238D01*
X123312857Y-54554476D01*
X123360476Y-54744952D01*
X123360476Y-54887809D01*
X123312857Y-55078285D01*
X123265238Y-55173523D01*
X123170000Y-55268761D01*
X123027142Y-55316380D01*
X122789047Y-55316380D01*
X124408095Y-54316380D02*
X124741428Y-55316380D01*
X125074761Y-54316380D01*
X125598571Y-54316380D02*
X125693809Y-54316380D01*
X125789047Y-54364000D01*
X125836666Y-54411619D01*
X125884285Y-54506857D01*
X125931904Y-54697333D01*
X125931904Y-54935428D01*
X125884285Y-55125904D01*
X125836666Y-55221142D01*
X125789047Y-55268761D01*
X125693809Y-55316380D01*
X125598571Y-55316380D01*
X125503333Y-55268761D01*
X125455714Y-55221142D01*
X125408095Y-55125904D01*
X125360476Y-54935428D01*
X125360476Y-54697333D01*
X125408095Y-54506857D01*
X125455714Y-54411619D01*
X125503333Y-54364000D01*
X125598571Y-54316380D01*
X126360476Y-55221142D02*
X126408095Y-55268761D01*
X126360476Y-55316380D01*
X126312857Y-55268761D01*
X126360476Y-55221142D01*
X126360476Y-55316380D01*
X126741428Y-54316380D02*
X127360476Y-54316380D01*
X127027142Y-54697333D01*
X127170000Y-54697333D01*
X127265238Y-54744952D01*
X127312857Y-54792571D01*
X127360476Y-54887809D01*
X127360476Y-55125904D01*
X127312857Y-55221142D01*
X127265238Y-55268761D01*
X127170000Y-55316380D01*
X126884285Y-55316380D01*
X126789047Y-55268761D01*
X126741428Y-55221142D01*
X127789047Y-55221142D02*
X127836666Y-55268761D01*
X127789047Y-55316380D01*
X127741428Y-55268761D01*
X127789047Y-55221142D01*
X127789047Y-55316380D01*
X128455714Y-54316380D02*
X128550952Y-54316380D01*
X128646190Y-54364000D01*
X128693809Y-54411619D01*
X128741428Y-54506857D01*
X128789047Y-54697333D01*
X128789047Y-54935428D01*
X128741428Y-55125904D01*
X128693809Y-55221142D01*
X128646190Y-55268761D01*
X128550952Y-55316380D01*
X128455714Y-55316380D01*
X128360476Y-55268761D01*
X128312857Y-55221142D01*
X128265238Y-55125904D01*
X128217619Y-54935428D01*
X128217619Y-54697333D01*
X128265238Y-54506857D01*
X128312857Y-54411619D01*
X128360476Y-54364000D01*
X128455714Y-54316380D01*
D11*
X124256485Y-67081857D02*
X124470771Y-67153285D01*
X124542200Y-67224714D01*
X124613628Y-67367571D01*
X124613628Y-67581857D01*
X124542200Y-67724714D01*
X124470771Y-67796142D01*
X124327914Y-67867571D01*
X123756485Y-67867571D01*
X123756485Y-66367571D01*
X124256485Y-66367571D01*
X124399342Y-66439000D01*
X124470771Y-66510428D01*
X124542200Y-66653285D01*
X124542200Y-66796142D01*
X124470771Y-66939000D01*
X124399342Y-67010428D01*
X124256485Y-67081857D01*
X123756485Y-67081857D01*
X125542200Y-67153285D02*
X125542200Y-67867571D01*
X125042200Y-66367571D02*
X125542200Y-67153285D01*
X126042200Y-66367571D01*
X128185057Y-67081857D02*
X128399342Y-67153285D01*
X128470771Y-67224714D01*
X128542200Y-67367571D01*
X128542200Y-67581857D01*
X128470771Y-67724714D01*
X128399342Y-67796142D01*
X128256485Y-67867571D01*
X127685057Y-67867571D01*
X127685057Y-66367571D01*
X128185057Y-66367571D01*
X128327914Y-66439000D01*
X128399342Y-66510428D01*
X128470771Y-66653285D01*
X128470771Y-66796142D01*
X128399342Y-66939000D01*
X128327914Y-67010428D01*
X128185057Y-67081857D01*
X127685057Y-67081857D01*
X129185057Y-67867571D02*
X129185057Y-66367571D01*
X129685057Y-66367571D02*
X130542200Y-66367571D01*
X130113628Y-67867571D02*
X130113628Y-66367571D01*
X131542200Y-67081857D02*
X131042200Y-67081857D01*
X131042200Y-67867571D02*
X131042200Y-66367571D01*
X131756485Y-66367571D01*
X132327914Y-67867571D02*
X132327914Y-66367571D01*
X133042200Y-67081857D02*
X133542200Y-67081857D01*
X133756485Y-67867571D02*
X133042200Y-67867571D01*
X133042200Y-66367571D01*
X133756485Y-66367571D01*
X135113628Y-67867571D02*
X134399342Y-67867571D01*
X134399342Y-66367571D01*
X135613628Y-67867571D02*
X135613628Y-66367571D01*
X135970771Y-66367571D01*
X136185057Y-66439000D01*
X136327914Y-66581857D01*
X136399342Y-66724714D01*
X136470771Y-67010428D01*
X136470771Y-67224714D01*
X136399342Y-67510428D01*
X136327914Y-67653285D01*
X136185057Y-67796142D01*
X135970771Y-67867571D01*
X135613628Y-67867571D01*
X138185057Y-67439000D02*
X138899342Y-67439000D01*
X138042200Y-67867571D02*
X138542200Y-66367571D01*
X139042200Y-67867571D01*
X139542200Y-66367571D02*
X139542200Y-67581857D01*
X139613628Y-67724714D01*
X139685057Y-67796142D01*
X139827914Y-67867571D01*
X140113628Y-67867571D01*
X140256485Y-67796142D01*
X140327914Y-67724714D01*
X140399342Y-67581857D01*
X140399342Y-66367571D01*
X141113628Y-67867571D02*
X141113628Y-66367571D01*
X141470771Y-66367571D01*
X141685057Y-66439000D01*
X141827914Y-66581857D01*
X141899342Y-66724714D01*
X141970771Y-67010428D01*
X141970771Y-67224714D01*
X141899342Y-67510428D01*
X141827914Y-67653285D01*
X141685057Y-67796142D01*
X141470771Y-67867571D01*
X141113628Y-67867571D01*
X142613628Y-67867571D02*
X142613628Y-66367571D01*
X143613628Y-66367571D02*
X143899342Y-66367571D01*
X144042200Y-66439000D01*
X144185057Y-66581857D01*
X144256485Y-66867571D01*
X144256485Y-67367571D01*
X144185057Y-67653285D01*
X144042200Y-67796142D01*
X143899342Y-67867571D01*
X143613628Y-67867571D01*
X143470771Y-67796142D01*
X143327914Y-67653285D01*
X143256485Y-67367571D01*
X143256485Y-66867571D01*
X143327914Y-66581857D01*
X143470771Y-66439000D01*
X143613628Y-66367571D01*
D10*
X40288000Y-13773000D02*
X40288000Y-14273000D01*
X40038000Y-14023000D02*
X40538000Y-14023000D01*
X36388000Y-14023000D02*
X36888000Y-14023000D01*
X37963000Y-14023000D02*
X37193090Y-14023000D01*
X38563000Y-14023000D02*
X39713000Y-14023000D01*
D12*
X38683000Y-14023000D02*
G75*
G03*
X38683000Y-14023000I-120000J0D01*
G01*
D10*
X39063000Y-14273000D02*
G75*
G02*
X39063000Y-13773000I-500000J250000D01*
G01*
X35903476Y-11300380D02*
X36093952Y-11300380D01*
X36189190Y-11252761D01*
X36236809Y-11205142D01*
X36332047Y-11062285D01*
X36379666Y-10871809D01*
X36379666Y-10490857D01*
X36332047Y-10395619D01*
X36284428Y-10348000D01*
X36189190Y-10300380D01*
X35998714Y-10300380D01*
X35903476Y-10348000D01*
X35855857Y-10395619D01*
X35808238Y-10490857D01*
X35808238Y-10728952D01*
X35855857Y-10824190D01*
X35903476Y-10871809D01*
X35998714Y-10919428D01*
X36189190Y-10919428D01*
X36284428Y-10871809D01*
X36332047Y-10824190D01*
X36379666Y-10728952D01*
X36808238Y-10919428D02*
X37570142Y-10919428D01*
X37998714Y-10395619D02*
X38046333Y-10348000D01*
X38141571Y-10300380D01*
X38379666Y-10300380D01*
X38474904Y-10348000D01*
X38522523Y-10395619D01*
X38570142Y-10490857D01*
X38570142Y-10586095D01*
X38522523Y-10728952D01*
X37951095Y-11300380D01*
X38570142Y-11300380D01*
X39427285Y-10633714D02*
X39427285Y-11300380D01*
X39189190Y-10252761D02*
X38951095Y-10967047D01*
X39570142Y-10967047D01*
X39808238Y-10300380D02*
X40141571Y-11300380D01*
X40474904Y-10300380D01*
X40808238Y-10776571D02*
X41570142Y-10776571D01*
X41570142Y-11062285D02*
X40808238Y-11062285D01*
X36903476Y-12045619D02*
X36951095Y-11998000D01*
X37046333Y-11950380D01*
X37284428Y-11950380D01*
X37379666Y-11998000D01*
X37427285Y-12045619D01*
X37474904Y-12140857D01*
X37474904Y-12236095D01*
X37427285Y-12378952D01*
X36855857Y-12950380D01*
X37474904Y-12950380D01*
X37903476Y-12855142D02*
X37951095Y-12902761D01*
X37903476Y-12950380D01*
X37855857Y-12902761D01*
X37903476Y-12855142D01*
X37903476Y-12950380D01*
X38855857Y-11950380D02*
X38379666Y-11950380D01*
X38332047Y-12426571D01*
X38379666Y-12378952D01*
X38474904Y-12331333D01*
X38713000Y-12331333D01*
X38808238Y-12378952D01*
X38855857Y-12426571D01*
X38903476Y-12521809D01*
X38903476Y-12759904D01*
X38855857Y-12855142D01*
X38808238Y-12902761D01*
X38713000Y-12950380D01*
X38474904Y-12950380D01*
X38379666Y-12902761D01*
X38332047Y-12855142D01*
X40046333Y-12664666D02*
X40522523Y-12664666D01*
X39951095Y-12950380D02*
X40284428Y-11950380D01*
X40617761Y-12950380D01*
X51147095Y-10932380D02*
X51147095Y-11741904D01*
X51194714Y-11837142D01*
X51242333Y-11884761D01*
X51337571Y-11932380D01*
X51528047Y-11932380D01*
X51623285Y-11884761D01*
X51670904Y-11837142D01*
X51718523Y-11741904D01*
X51718523Y-10932380D01*
X52147095Y-11884761D02*
X52289952Y-11932380D01*
X52528047Y-11932380D01*
X52623285Y-11884761D01*
X52670904Y-11837142D01*
X52718523Y-11741904D01*
X52718523Y-11646666D01*
X52670904Y-11551428D01*
X52623285Y-11503809D01*
X52528047Y-11456190D01*
X52337571Y-11408571D01*
X52242333Y-11360952D01*
X52194714Y-11313333D01*
X52147095Y-11218095D01*
X52147095Y-11122857D01*
X52194714Y-11027619D01*
X52242333Y-10980000D01*
X52337571Y-10932380D01*
X52575666Y-10932380D01*
X52718523Y-10980000D01*
X53480428Y-11408571D02*
X53623285Y-11456190D01*
X53670904Y-11503809D01*
X53718523Y-11599047D01*
X53718523Y-11741904D01*
X53670904Y-11837142D01*
X53623285Y-11884761D01*
X53528047Y-11932380D01*
X53147095Y-11932380D01*
X53147095Y-10932380D01*
X53480428Y-10932380D01*
X53575666Y-10980000D01*
X53623285Y-11027619D01*
X53670904Y-11122857D01*
X53670904Y-11218095D01*
X53623285Y-11313333D01*
X53575666Y-11360952D01*
X53480428Y-11408571D01*
X53147095Y-11408571D01*
X194802380Y-11302380D02*
X194326190Y-11302380D01*
X194326190Y-10302380D01*
X195135714Y-11302380D02*
X195135714Y-10302380D01*
X195611904Y-11302380D02*
X195611904Y-10302380D01*
X196183333Y-11302380D01*
X196183333Y-10302380D01*
X196659523Y-10778571D02*
X196992857Y-10778571D01*
X197135714Y-11302380D02*
X196659523Y-11302380D01*
X196659523Y-10302380D01*
X197135714Y-10302380D01*
X198326190Y-11302380D02*
X198326190Y-10302380D01*
X198802380Y-11302380D02*
X198802380Y-10302380D01*
X199373809Y-11302380D01*
X199373809Y-10302380D01*
X178860714Y-11327380D02*
X178384523Y-11327380D01*
X178384523Y-10327380D01*
X179194047Y-11327380D02*
X179194047Y-10327380D01*
X179670238Y-11327380D02*
X179670238Y-10327380D01*
X180241666Y-11327380D01*
X180241666Y-10327380D01*
X180717857Y-10803571D02*
X181051190Y-10803571D01*
X181194047Y-11327380D02*
X180717857Y-11327380D01*
X180717857Y-10327380D01*
X181194047Y-10327380D01*
X182575000Y-10327380D02*
X182765476Y-10327380D01*
X182860714Y-10375000D01*
X182955952Y-10470238D01*
X183003571Y-10660714D01*
X183003571Y-10994047D01*
X182955952Y-11184523D01*
X182860714Y-11279761D01*
X182765476Y-11327380D01*
X182575000Y-11327380D01*
X182479761Y-11279761D01*
X182384523Y-11184523D01*
X182336904Y-10994047D01*
X182336904Y-10660714D01*
X182384523Y-10470238D01*
X182479761Y-10375000D01*
X182575000Y-10327380D01*
X183432142Y-10327380D02*
X183432142Y-11136904D01*
X183479761Y-11232142D01*
X183527380Y-11279761D01*
X183622619Y-11327380D01*
X183813095Y-11327380D01*
X183908333Y-11279761D01*
X183955952Y-11232142D01*
X184003571Y-11136904D01*
X184003571Y-10327380D01*
X184336904Y-10327380D02*
X184908333Y-10327380D01*
X184622619Y-11327380D02*
X184622619Y-10327380D01*
X160308333Y-11402380D02*
X160308333Y-10402380D01*
X160308333Y-10878571D02*
X160879761Y-10878571D01*
X160879761Y-11402380D02*
X160879761Y-10402380D01*
X161355952Y-10878571D02*
X161689285Y-10878571D01*
X161832142Y-11402380D02*
X161355952Y-11402380D01*
X161355952Y-10402380D01*
X161832142Y-10402380D01*
X162213095Y-11116666D02*
X162689285Y-11116666D01*
X162117857Y-11402380D02*
X162451190Y-10402380D01*
X162784523Y-11402380D01*
X163117857Y-11402380D02*
X163117857Y-10402380D01*
X163355952Y-10402380D01*
X163498809Y-10450000D01*
X163594047Y-10545238D01*
X163641666Y-10640476D01*
X163689285Y-10830952D01*
X163689285Y-10973809D01*
X163641666Y-11164285D01*
X163594047Y-11259523D01*
X163498809Y-11354761D01*
X163355952Y-11402380D01*
X163117857Y-11402380D01*
X164117857Y-11402380D02*
X164117857Y-10402380D01*
X164498809Y-10402380D01*
X164594047Y-10450000D01*
X164641666Y-10497619D01*
X164689285Y-10592857D01*
X164689285Y-10735714D01*
X164641666Y-10830952D01*
X164594047Y-10878571D01*
X164498809Y-10926190D01*
X164117857Y-10926190D01*
X165117857Y-11402380D02*
X165117857Y-10402380D01*
X165117857Y-10878571D02*
X165689285Y-10878571D01*
X165689285Y-11402380D02*
X165689285Y-10402380D01*
X166355952Y-10402380D02*
X166546428Y-10402380D01*
X166641666Y-10450000D01*
X166736904Y-10545238D01*
X166784523Y-10735714D01*
X166784523Y-11069047D01*
X166736904Y-11259523D01*
X166641666Y-11354761D01*
X166546428Y-11402380D01*
X166355952Y-11402380D01*
X166260714Y-11354761D01*
X166165476Y-11259523D01*
X166117857Y-11069047D01*
X166117857Y-10735714D01*
X166165476Y-10545238D01*
X166260714Y-10450000D01*
X166355952Y-10402380D01*
X167213095Y-11402380D02*
X167213095Y-10402380D01*
X167784523Y-11402380D01*
X167784523Y-10402380D01*
X168260714Y-10878571D02*
X168594047Y-10878571D01*
X168736904Y-11402380D02*
X168260714Y-11402380D01*
X168260714Y-10402380D01*
X168736904Y-10402380D01*
X169117857Y-11354761D02*
X169260714Y-11402380D01*
X169498809Y-11402380D01*
X169594047Y-11354761D01*
X169641666Y-11307142D01*
X169689285Y-11211904D01*
X169689285Y-11116666D01*
X169641666Y-11021428D01*
X169594047Y-10973809D01*
X169498809Y-10926190D01*
X169308333Y-10878571D01*
X169213095Y-10830952D01*
X169165476Y-10783333D01*
X169117857Y-10688095D01*
X169117857Y-10592857D01*
X169165476Y-10497619D01*
X169213095Y-10450000D01*
X169308333Y-10402380D01*
X169546428Y-10402380D01*
X169689285Y-10450000D01*
X91890476Y-14977380D02*
X91890476Y-13977380D01*
X92223809Y-14691666D01*
X92557142Y-13977380D01*
X92557142Y-14977380D01*
X93033333Y-14977380D02*
X93033333Y-13977380D01*
X93509523Y-14977380D02*
X93509523Y-13977380D01*
X93747619Y-13977380D01*
X93890476Y-14025000D01*
X93985714Y-14120238D01*
X94033333Y-14215476D01*
X94080952Y-14405952D01*
X94080952Y-14548809D01*
X94033333Y-14739285D01*
X93985714Y-14834523D01*
X93890476Y-14929761D01*
X93747619Y-14977380D01*
X93509523Y-14977380D01*
X94509523Y-14977380D02*
X94509523Y-13977380D01*
X92200000Y-15627380D02*
X92390476Y-15627380D01*
X92485714Y-15675000D01*
X92580952Y-15770238D01*
X92628571Y-15960714D01*
X92628571Y-16294047D01*
X92580952Y-16484523D01*
X92485714Y-16579761D01*
X92390476Y-16627380D01*
X92200000Y-16627380D01*
X92104761Y-16579761D01*
X92009523Y-16484523D01*
X91961904Y-16294047D01*
X91961904Y-15960714D01*
X92009523Y-15770238D01*
X92104761Y-15675000D01*
X92200000Y-15627380D01*
X93057142Y-15627380D02*
X93057142Y-16436904D01*
X93104761Y-16532142D01*
X93152380Y-16579761D01*
X93247619Y-16627380D01*
X93438095Y-16627380D01*
X93533333Y-16579761D01*
X93580952Y-16532142D01*
X93628571Y-16436904D01*
X93628571Y-15627380D01*
X93961904Y-15627380D02*
X94533333Y-15627380D01*
X94247619Y-16627380D02*
X94247619Y-15627380D01*
X79890476Y-15227380D02*
X79890476Y-14227380D01*
X80223809Y-14941666D01*
X80557142Y-14227380D01*
X80557142Y-15227380D01*
X81033333Y-15227380D02*
X81033333Y-14227380D01*
X81509523Y-15227380D02*
X81509523Y-14227380D01*
X81747619Y-14227380D01*
X81890476Y-14275000D01*
X81985714Y-14370238D01*
X82033333Y-14465476D01*
X82080952Y-14655952D01*
X82080952Y-14798809D01*
X82033333Y-14989285D01*
X81985714Y-15084523D01*
X81890476Y-15179761D01*
X81747619Y-15227380D01*
X81509523Y-15227380D01*
X82509523Y-15227380D02*
X82509523Y-14227380D01*
X79366666Y-15877380D02*
X79938095Y-15877380D01*
X79652380Y-16877380D02*
X79652380Y-15877380D01*
X80271428Y-16877380D02*
X80271428Y-15877380D01*
X80271428Y-16353571D02*
X80842857Y-16353571D01*
X80842857Y-16877380D02*
X80842857Y-15877380D01*
X81890476Y-16877380D02*
X81557142Y-16401190D01*
X81319047Y-16877380D02*
X81319047Y-15877380D01*
X81700000Y-15877380D01*
X81795238Y-15925000D01*
X81842857Y-15972619D01*
X81890476Y-16067857D01*
X81890476Y-16210714D01*
X81842857Y-16305952D01*
X81795238Y-16353571D01*
X81700000Y-16401190D01*
X81319047Y-16401190D01*
X82319047Y-15877380D02*
X82319047Y-16686904D01*
X82366666Y-16782142D01*
X82414285Y-16829761D01*
X82509523Y-16877380D01*
X82700000Y-16877380D01*
X82795238Y-16829761D01*
X82842857Y-16782142D01*
X82890476Y-16686904D01*
X82890476Y-15877380D01*
X67890476Y-14977380D02*
X67890476Y-13977380D01*
X68223809Y-14691666D01*
X68557142Y-13977380D01*
X68557142Y-14977380D01*
X69033333Y-14977380D02*
X69033333Y-13977380D01*
X69509523Y-14977380D02*
X69509523Y-13977380D01*
X69747619Y-13977380D01*
X69890476Y-14025000D01*
X69985714Y-14120238D01*
X70033333Y-14215476D01*
X70080952Y-14405952D01*
X70080952Y-14548809D01*
X70033333Y-14739285D01*
X69985714Y-14834523D01*
X69890476Y-14929761D01*
X69747619Y-14977380D01*
X69509523Y-14977380D01*
X70509523Y-14977380D02*
X70509523Y-13977380D01*
X68676190Y-16627380D02*
X68676190Y-15627380D01*
X69152380Y-16627380D02*
X69152380Y-15627380D01*
X69723809Y-16627380D01*
X69723809Y-15627380D01*
X73691904Y-39042380D02*
X73691904Y-39756666D01*
X73644285Y-39899523D01*
X73549047Y-39994761D01*
X73406190Y-40042380D01*
X73310952Y-40042380D01*
X74025238Y-39042380D02*
X74596666Y-39042380D01*
X74310952Y-40042380D02*
X74310952Y-39042380D01*
X74882380Y-39756666D02*
X75358571Y-39756666D01*
X74787142Y-40042380D02*
X75120476Y-39042380D01*
X75453809Y-40042380D01*
X76310952Y-39090000D02*
X76215714Y-39042380D01*
X76072857Y-39042380D01*
X75930000Y-39090000D01*
X75834761Y-39185238D01*
X75787142Y-39280476D01*
X75739523Y-39470952D01*
X75739523Y-39613809D01*
X75787142Y-39804285D01*
X75834761Y-39899523D01*
X75930000Y-39994761D01*
X76072857Y-40042380D01*
X76168095Y-40042380D01*
X76310952Y-39994761D01*
X76358571Y-39947142D01*
X76358571Y-39613809D01*
X76168095Y-39613809D01*
X77501428Y-38994761D02*
X76644285Y-40280476D01*
X77787142Y-39994761D02*
X77930000Y-40042380D01*
X78168095Y-40042380D01*
X78263333Y-39994761D01*
X78310952Y-39947142D01*
X78358571Y-39851904D01*
X78358571Y-39756666D01*
X78310952Y-39661428D01*
X78263333Y-39613809D01*
X78168095Y-39566190D01*
X77977619Y-39518571D01*
X77882380Y-39470952D01*
X77834761Y-39423333D01*
X77787142Y-39328095D01*
X77787142Y-39232857D01*
X77834761Y-39137619D01*
X77882380Y-39090000D01*
X77977619Y-39042380D01*
X78215714Y-39042380D01*
X78358571Y-39090000D01*
X78691904Y-39042380D02*
X78930000Y-40042380D01*
X79120476Y-39328095D01*
X79310952Y-40042380D01*
X79549047Y-39042380D01*
X79930000Y-40042380D02*
X79930000Y-39042380D01*
X80168095Y-39042380D01*
X80310952Y-39090000D01*
X80406190Y-39185238D01*
X80453809Y-39280476D01*
X80501428Y-39470952D01*
X80501428Y-39613809D01*
X80453809Y-39804285D01*
X80406190Y-39899523D01*
X80310952Y-39994761D01*
X80168095Y-40042380D01*
X79930000Y-40042380D01*
D11*
X138491247Y-64646142D02*
X138776961Y-64741380D01*
X138872200Y-64836619D01*
X138967438Y-65027095D01*
X138967438Y-65312809D01*
X138872200Y-65503285D01*
X138776961Y-65598523D01*
X138586485Y-65693761D01*
X137824580Y-65693761D01*
X137824580Y-63693761D01*
X138491247Y-63693761D01*
X138681723Y-63789000D01*
X138776961Y-63884238D01*
X138872200Y-64074714D01*
X138872200Y-64265190D01*
X138776961Y-64455666D01*
X138681723Y-64550904D01*
X138491247Y-64646142D01*
X137824580Y-64646142D01*
X139824580Y-64646142D02*
X140491247Y-64646142D01*
X140776961Y-65693761D02*
X139824580Y-65693761D01*
X139824580Y-63693761D01*
X140776961Y-63693761D01*
X141348390Y-63693761D02*
X142491247Y-63693761D01*
X141919819Y-65693761D02*
X141919819Y-63693761D01*
X143062676Y-65122333D02*
X144015057Y-65122333D01*
X142872200Y-65693761D02*
X143538866Y-63693761D01*
X144205533Y-65693761D01*
D13*
X183391800Y-59056200D02*
X185371800Y-59056200D01*
X183391800Y-59406200D02*
X183391800Y-59056200D01*
X182621800Y-59406200D02*
X183391800Y-59406200D01*
X182621800Y-58210800D02*
X182621800Y-59406200D01*
X182621800Y-54829800D02*
X182621800Y-55129800D01*
X183421800Y-54829800D02*
X182621800Y-54829800D01*
X183421800Y-53936200D02*
X183421800Y-54829800D01*
X207241800Y-53936200D02*
X183421800Y-53936200D01*
X207241800Y-54829800D02*
X207241800Y-53936200D01*
X208041800Y-54829800D02*
X207241800Y-54829800D01*
X208041800Y-55129800D02*
X208041800Y-54829800D01*
X208041800Y-59406200D02*
X208041800Y-58210800D01*
X207271800Y-59406200D02*
X208041800Y-59406200D01*
X207271800Y-59056200D02*
X207271800Y-59406200D01*
X205291800Y-59056200D02*
X207271800Y-59056200D01*
X205291800Y-59646200D02*
X205291800Y-59056200D01*
X80120000Y-34985000D02*
X80185000Y-34985000D01*
X80120000Y-38515000D02*
X80185000Y-38515000D01*
X73715000Y-34985000D02*
X73780000Y-34985000D01*
X73715000Y-38515000D02*
X73780000Y-38515000D01*
X73780000Y-39840000D02*
X73780000Y-38515000D01*
X80185000Y-38515000D02*
X80185000Y-34985000D01*
X73715000Y-38515000D02*
X73715000Y-34985000D01*
X215410000Y-71230000D02*
X215410000Y-68570000D01*
X210270000Y-71230000D02*
X215410000Y-71230000D01*
X210270000Y-68570000D02*
X215410000Y-68570000D01*
X210270000Y-71230000D02*
X210270000Y-68570000D01*
X209000000Y-71230000D02*
X207670000Y-71230000D01*
X207670000Y-71230000D02*
X207670000Y-69900000D01*
D10*
X279070000Y-13800000D02*
G75*
G03*
X279070000Y-13800000I-3000000J0D01*
G01*
D14*
X275020000Y-14850000D02*
X274020000Y-15850000D01*
D10*
X265810913Y-23496447D02*
X269346447Y-19960913D01*
X268462563Y-26855204D02*
X266694796Y-25087437D01*
X273589087Y-24203553D02*
X270053553Y-27739087D01*
X270937437Y-20844796D02*
X272705204Y-22612563D01*
X283810913Y-23496447D02*
X287346447Y-19960913D01*
X286462563Y-26855204D02*
X284694796Y-25087437D01*
X291589087Y-24203553D02*
X288053553Y-27739087D01*
X288937437Y-20844796D02*
X290705204Y-22612563D01*
X217810913Y-23496447D02*
X221346447Y-19960913D01*
X220462563Y-26855204D02*
X218694796Y-25087437D01*
X225589087Y-24203553D02*
X222053553Y-27739087D01*
X222937437Y-20844796D02*
X224705204Y-22612563D01*
X229810913Y-23496447D02*
X233346447Y-19960913D01*
X232462563Y-26855204D02*
X230694796Y-25087437D01*
X237589087Y-24203553D02*
X234053553Y-27739087D01*
X234937437Y-20844796D02*
X236705204Y-22612563D01*
X241810913Y-23496447D02*
X245346447Y-19960913D01*
X244462563Y-26855204D02*
X242694796Y-25087437D01*
X249589087Y-24203553D02*
X246053553Y-27739087D01*
X246937437Y-20844796D02*
X248705204Y-22612563D01*
X253810913Y-23496447D02*
X257346447Y-19960913D01*
X256462563Y-26855204D02*
X254694796Y-25087437D01*
X261589087Y-24203553D02*
X258053553Y-27739087D01*
X258937437Y-20844796D02*
X260705204Y-22612563D01*
X295810913Y-23496447D02*
X299346447Y-19960913D01*
X298462563Y-26855204D02*
X296694796Y-25087437D01*
X303589087Y-24203553D02*
X300053553Y-27739087D01*
X300937437Y-20844796D02*
X302705204Y-22612563D01*
X295810913Y-35496447D02*
X299346447Y-31960913D01*
X298462563Y-38855204D02*
X296694796Y-37087437D01*
X303589087Y-36203553D02*
X300053553Y-39739087D01*
X300937437Y-32844796D02*
X302705204Y-34612563D01*
X283810913Y-35496447D02*
X287346447Y-31960913D01*
X286462563Y-38855204D02*
X284694796Y-37087437D01*
X291589087Y-36203553D02*
X288053553Y-39739087D01*
X288937437Y-32844796D02*
X290705204Y-34612563D01*
X265810913Y-35496447D02*
X269346447Y-31960913D01*
X268462563Y-38855204D02*
X266694796Y-37087437D01*
X273589087Y-36203553D02*
X270053553Y-39739087D01*
X270937437Y-32844796D02*
X272705204Y-34612563D01*
X253810913Y-35496447D02*
X257346447Y-31960913D01*
X256462563Y-38855204D02*
X254694796Y-37087437D01*
X261589087Y-36203553D02*
X258053553Y-39739087D01*
X258937437Y-32844796D02*
X260705204Y-34612563D01*
X241810913Y-35496447D02*
X245346447Y-31960913D01*
X244462563Y-38855204D02*
X242694796Y-37087437D01*
X249589087Y-36203553D02*
X246053553Y-39739087D01*
X246937437Y-32844796D02*
X248705204Y-34612563D01*
X229810913Y-35496447D02*
X233346447Y-31960913D01*
X232462563Y-38855204D02*
X230694796Y-37087437D01*
X237589087Y-36203553D02*
X234053553Y-39739087D01*
X234937437Y-32844796D02*
X236705204Y-34612563D01*
X217810913Y-35496447D02*
X221346447Y-31960913D01*
X220462563Y-38855204D02*
X218694796Y-37087437D01*
X225589087Y-36203553D02*
X222053553Y-39739087D01*
X222937437Y-32844796D02*
X224705204Y-34612563D01*
X295810913Y-47496447D02*
X299346447Y-43960913D01*
X298462563Y-50855204D02*
X296694796Y-49087437D01*
X303589087Y-48203553D02*
X300053553Y-51739087D01*
X300937437Y-44844796D02*
X302705204Y-46612563D01*
X283810913Y-47496447D02*
X287346447Y-43960913D01*
X286462563Y-50855204D02*
X284694796Y-49087437D01*
X291589087Y-48203553D02*
X288053553Y-51739087D01*
X288937437Y-44844796D02*
X290705204Y-46612563D01*
X265810913Y-47496447D02*
X269346447Y-43960913D01*
X268462563Y-50855204D02*
X266694796Y-49087437D01*
X273589087Y-48203553D02*
X270053553Y-51739087D01*
X270937437Y-44844796D02*
X272705204Y-46612563D01*
X253810913Y-47496447D02*
X257346447Y-43960913D01*
X256462563Y-50855204D02*
X254694796Y-49087437D01*
X261589087Y-48203553D02*
X258053553Y-51739087D01*
X258937437Y-44844796D02*
X260705204Y-46612563D01*
X241810913Y-47496447D02*
X245346447Y-43960913D01*
X244462563Y-50855204D02*
X242694796Y-49087437D01*
X249589087Y-48203553D02*
X246053553Y-51739087D01*
X246937437Y-44844796D02*
X248705204Y-46612563D01*
X229810913Y-47496447D02*
X233346447Y-43960913D01*
X232462563Y-50855204D02*
X230694796Y-49087437D01*
X237589087Y-48203553D02*
X234053553Y-51739087D01*
X234937437Y-44844796D02*
X236705204Y-46612563D01*
X217810913Y-47496447D02*
X221346447Y-43960913D01*
X220462563Y-50855204D02*
X218694796Y-49087437D01*
X225589087Y-48203553D02*
X222053553Y-51739087D01*
X222937437Y-44844796D02*
X224705204Y-46612563D01*
X295810913Y-59496447D02*
X299346447Y-55960913D01*
X298462563Y-62855204D02*
X296694796Y-61087437D01*
X303589087Y-60203553D02*
X300053553Y-63739087D01*
X300937437Y-56844796D02*
X302705204Y-58612563D01*
X283810913Y-59496447D02*
X287346447Y-55960913D01*
X286462563Y-62855204D02*
X284694796Y-61087437D01*
X291589087Y-60203553D02*
X288053553Y-63739087D01*
X288937437Y-56844796D02*
X290705204Y-58612563D01*
X265810913Y-59496447D02*
X269346447Y-55960913D01*
X268462563Y-62855204D02*
X266694796Y-61087437D01*
X273589087Y-60203553D02*
X270053553Y-63739087D01*
X270937437Y-56844796D02*
X272705204Y-58612563D01*
X253810913Y-59496447D02*
X257346447Y-55960913D01*
X256462563Y-62855204D02*
X254694796Y-61087437D01*
X261589087Y-60203553D02*
X258053553Y-63739087D01*
X258937437Y-56844796D02*
X260705204Y-58612563D01*
X241810913Y-59496447D02*
X245346447Y-55960913D01*
X244462563Y-62855204D02*
X242694796Y-61087437D01*
X249589087Y-60203553D02*
X246053553Y-63739087D01*
X246937437Y-56844796D02*
X248705204Y-58612563D01*
X229810913Y-59496447D02*
X233346447Y-55960913D01*
X232462563Y-62855204D02*
X230694796Y-61087437D01*
X237589087Y-60203553D02*
X234053553Y-63739087D01*
X234937437Y-56844796D02*
X236705204Y-58612563D01*
X217810913Y-59496447D02*
X221346447Y-55960913D01*
X220462563Y-62855204D02*
X218694796Y-61087437D01*
X225589087Y-60203553D02*
X222053553Y-63739087D01*
X222937437Y-56844796D02*
X224705204Y-58612563D01*
D15*
G36*
X139767069Y-55947928D02*
G01*
X139816175Y-55953105D01*
X139877143Y-55961323D01*
X139954374Y-55972702D01*
X139969438Y-55974959D01*
X140050662Y-55991248D01*
X140135294Y-56015205D01*
X140212310Y-56043590D01*
X140230664Y-56051731D01*
X140258638Y-56064163D01*
X140277563Y-56071537D01*
X140281160Y-56072412D01*
X140292694Y-56077403D01*
X140318234Y-56090701D01*
X140353008Y-56109791D01*
X140366394Y-56117328D01*
X140486772Y-56194655D01*
X140602488Y-56286377D01*
X140707067Y-56387040D01*
X140764060Y-56452273D01*
X140803173Y-56500760D01*
X140830547Y-56535242D01*
X140848204Y-56558454D01*
X140858168Y-56573129D01*
X140862462Y-56582003D01*
X140863177Y-56586219D01*
X140869774Y-56601780D01*
X140878363Y-56613307D01*
X140891154Y-56632069D01*
X140908675Y-56662897D01*
X140922597Y-56690005D01*
X140940176Y-56725575D01*
X140955347Y-56755734D01*
X140962805Y-56770130D01*
X140976194Y-56800201D01*
X140992228Y-56843495D01*
X141008275Y-56892215D01*
X141021706Y-56938565D01*
X141027170Y-56960879D01*
X141035745Y-56998503D01*
X141046788Y-57045329D01*
X141055185Y-57080063D01*
X141060714Y-57114709D01*
X141065326Y-57167551D01*
X141069018Y-57235240D01*
X141071790Y-57314431D01*
X141073640Y-57401775D01*
X141074565Y-57493925D01*
X141074565Y-57587534D01*
X141073638Y-57679256D01*
X141071783Y-57765741D01*
X141068996Y-57843644D01*
X141065279Y-57909617D01*
X141060627Y-57960313D01*
X141055619Y-57990200D01*
X141044340Y-58036036D01*
X141033468Y-58081740D01*
X141027154Y-58109385D01*
X140986755Y-58244775D01*
X140926791Y-58378413D01*
X140849356Y-58507787D01*
X140756543Y-58630384D01*
X140650443Y-58743690D01*
X140533150Y-58845196D01*
X140406756Y-58932386D01*
X140289069Y-58995555D01*
X140236941Y-59019461D01*
X140192009Y-59038614D01*
X140150034Y-59054211D01*
X140106775Y-59067453D01*
X140057991Y-59079537D01*
X139999441Y-59091662D01*
X139926884Y-59105026D01*
X139861088Y-59116521D01*
X139812637Y-59122144D01*
X139751475Y-59125342D01*
X139685202Y-59126099D01*
X139621419Y-59124398D01*
X139567726Y-59120224D01*
X139546874Y-59117174D01*
X139512869Y-59111054D01*
X139468137Y-59103188D01*
X139429652Y-59096533D01*
X139385335Y-59087200D01*
X139332453Y-59073490D01*
X139277588Y-59057390D01*
X139227321Y-59040886D01*
X139188233Y-59025967D01*
X139174531Y-59019506D01*
X139156183Y-59010262D01*
X139124910Y-58995035D01*
X139087393Y-58977077D01*
X139086388Y-58976601D01*
X138954466Y-58902869D01*
X138828247Y-58810667D01*
X138710779Y-58703031D01*
X138605107Y-58582997D01*
X138514277Y-58453602D01*
X138455510Y-58347754D01*
X138426099Y-58282728D01*
X138398653Y-58212498D01*
X138375608Y-58144014D01*
X138359403Y-58084226D01*
X138354765Y-58060628D01*
X138349019Y-58027419D01*
X138340825Y-57982902D01*
X138332438Y-57939191D01*
X138327283Y-57904795D01*
X138323283Y-57858864D01*
X138320355Y-57799282D01*
X138318417Y-57723934D01*
X138317388Y-57630703D01*
X138317164Y-57543715D01*
X138317313Y-57449514D01*
X138317856Y-57373455D01*
X138318996Y-57312010D01*
X138320938Y-57261652D01*
X138323883Y-57218853D01*
X138328035Y-57180086D01*
X138333598Y-57141824D01*
X138340775Y-57100539D01*
X138343563Y-57085481D01*
X138359208Y-57005353D01*
X138373842Y-56940673D01*
X138389431Y-56885425D01*
X138407940Y-56833591D01*
X138431332Y-56779154D01*
X138461574Y-56716099D01*
X138469158Y-56700840D01*
X138516745Y-56614487D01*
X138572070Y-56532646D01*
X138613986Y-56478723D01*
X138656011Y-56430144D01*
X138705573Y-56377899D01*
X138758345Y-56326101D01*
X138809999Y-56278863D01*
X138856207Y-56240297D01*
X138890890Y-56215579D01*
X138915520Y-56200194D01*
X138949333Y-56178760D01*
X138972621Y-56163866D01*
X139006435Y-56143526D01*
X139047894Y-56121368D01*
X139100531Y-56095632D01*
X139167880Y-56064561D01*
X139210990Y-56045219D01*
X139282056Y-56019051D01*
X139372914Y-55995137D01*
X139484292Y-55973300D01*
X139545305Y-55963497D01*
X139601168Y-55955252D01*
X139646872Y-55949454D01*
X139686821Y-55946222D01*
X139725419Y-55945673D01*
X139767069Y-55947928D01*
G37*
X139767069Y-55947928D02*
X139816175Y-55953105D01*
X139877143Y-55961323D01*
X139954374Y-55972702D01*
X139969438Y-55974959D01*
X140050662Y-55991248D01*
X140135294Y-56015205D01*
X140212310Y-56043590D01*
X140230664Y-56051731D01*
X140258638Y-56064163D01*
X140277563Y-56071537D01*
X140281160Y-56072412D01*
X140292694Y-56077403D01*
X140318234Y-56090701D01*
X140353008Y-56109791D01*
X140366394Y-56117328D01*
X140486772Y-56194655D01*
X140602488Y-56286377D01*
X140707067Y-56387040D01*
X140764060Y-56452273D01*
X140803173Y-56500760D01*
X140830547Y-56535242D01*
X140848204Y-56558454D01*
X140858168Y-56573129D01*
X140862462Y-56582003D01*
X140863177Y-56586219D01*
X140869774Y-56601780D01*
X140878363Y-56613307D01*
X140891154Y-56632069D01*
X140908675Y-56662897D01*
X140922597Y-56690005D01*
X140940176Y-56725575D01*
X140955347Y-56755734D01*
X140962805Y-56770130D01*
X140976194Y-56800201D01*
X140992228Y-56843495D01*
X141008275Y-56892215D01*
X141021706Y-56938565D01*
X141027170Y-56960879D01*
X141035745Y-56998503D01*
X141046788Y-57045329D01*
X141055185Y-57080063D01*
X141060714Y-57114709D01*
X141065326Y-57167551D01*
X141069018Y-57235240D01*
X141071790Y-57314431D01*
X141073640Y-57401775D01*
X141074565Y-57493925D01*
X141074565Y-57587534D01*
X141073638Y-57679256D01*
X141071783Y-57765741D01*
X141068996Y-57843644D01*
X141065279Y-57909617D01*
X141060627Y-57960313D01*
X141055619Y-57990200D01*
X141044340Y-58036036D01*
X141033468Y-58081740D01*
X141027154Y-58109385D01*
X140986755Y-58244775D01*
X140926791Y-58378413D01*
X140849356Y-58507787D01*
X140756543Y-58630384D01*
X140650443Y-58743690D01*
X140533150Y-58845196D01*
X140406756Y-58932386D01*
X140289069Y-58995555D01*
X140236941Y-59019461D01*
X140192009Y-59038614D01*
X140150034Y-59054211D01*
X140106775Y-59067453D01*
X140057991Y-59079537D01*
X139999441Y-59091662D01*
X139926884Y-59105026D01*
X139861088Y-59116521D01*
X139812637Y-59122144D01*
X139751475Y-59125342D01*
X139685202Y-59126099D01*
X139621419Y-59124398D01*
X139567726Y-59120224D01*
X139546874Y-59117174D01*
X139512869Y-59111054D01*
X139468137Y-59103188D01*
X139429652Y-59096533D01*
X139385335Y-59087200D01*
X139332453Y-59073490D01*
X139277588Y-59057390D01*
X139227321Y-59040886D01*
X139188233Y-59025967D01*
X139174531Y-59019506D01*
X139156183Y-59010262D01*
X139124910Y-58995035D01*
X139087393Y-58977077D01*
X139086388Y-58976601D01*
X138954466Y-58902869D01*
X138828247Y-58810667D01*
X138710779Y-58703031D01*
X138605107Y-58582997D01*
X138514277Y-58453602D01*
X138455510Y-58347754D01*
X138426099Y-58282728D01*
X138398653Y-58212498D01*
X138375608Y-58144014D01*
X138359403Y-58084226D01*
X138354765Y-58060628D01*
X138349019Y-58027419D01*
X138340825Y-57982902D01*
X138332438Y-57939191D01*
X138327283Y-57904795D01*
X138323283Y-57858864D01*
X138320355Y-57799282D01*
X138318417Y-57723934D01*
X138317388Y-57630703D01*
X138317164Y-57543715D01*
X138317313Y-57449514D01*
X138317856Y-57373455D01*
X138318996Y-57312010D01*
X138320938Y-57261652D01*
X138323883Y-57218853D01*
X138328035Y-57180086D01*
X138333598Y-57141824D01*
X138340775Y-57100539D01*
X138343563Y-57085481D01*
X138359208Y-57005353D01*
X138373842Y-56940673D01*
X138389431Y-56885425D01*
X138407940Y-56833591D01*
X138431332Y-56779154D01*
X138461574Y-56716099D01*
X138469158Y-56700840D01*
X138516745Y-56614487D01*
X138572070Y-56532646D01*
X138613986Y-56478723D01*
X138656011Y-56430144D01*
X138705573Y-56377899D01*
X138758345Y-56326101D01*
X138809999Y-56278863D01*
X138856207Y-56240297D01*
X138890890Y-56215579D01*
X138915520Y-56200194D01*
X138949333Y-56178760D01*
X138972621Y-56163866D01*
X139006435Y-56143526D01*
X139047894Y-56121368D01*
X139100531Y-56095632D01*
X139167880Y-56064561D01*
X139210990Y-56045219D01*
X139282056Y-56019051D01*
X139372914Y-55995137D01*
X139484292Y-55973300D01*
X139545305Y-55963497D01*
X139601168Y-55955252D01*
X139646872Y-55949454D01*
X139686821Y-55946222D01*
X139725419Y-55945673D01*
X139767069Y-55947928D01*
G36*
X115902281Y-55946475D02*
G01*
X115930912Y-55949161D01*
X115960842Y-55952843D01*
X116059691Y-55966237D01*
X116141470Y-55979285D01*
X116210723Y-55993223D01*
X116271992Y-56009290D01*
X116329820Y-56028719D01*
X116388751Y-56052749D01*
X116453325Y-56082614D01*
X116473219Y-56092280D01*
X116574539Y-56149640D01*
X116677843Y-56222186D01*
X116778139Y-56305559D01*
X116870434Y-56395400D01*
X116949736Y-56487352D01*
X116990335Y-56543733D01*
X117012144Y-56576607D01*
X117032374Y-56606863D01*
X117037731Y-56614807D01*
X117072530Y-56674578D01*
X117107879Y-56750224D01*
X117141663Y-56836115D01*
X117171768Y-56926619D01*
X117196077Y-57016108D01*
X117206397Y-57063811D01*
X117211922Y-57103757D01*
X117216904Y-57161367D01*
X117221270Y-57232983D01*
X117224951Y-57314943D01*
X117227876Y-57403586D01*
X117229973Y-57495252D01*
X117231173Y-57586281D01*
X117231404Y-57673011D01*
X117230595Y-57751783D01*
X117228676Y-57818937D01*
X117225577Y-57870810D01*
X117222504Y-57897067D01*
X117214337Y-57946258D01*
X117205132Y-58001489D01*
X117199773Y-58033540D01*
X117187159Y-58094496D01*
X117169417Y-58161823D01*
X117149235Y-58226173D01*
X117129684Y-58277327D01*
X117107759Y-58325048D01*
X117084822Y-58371384D01*
X117063648Y-58411025D01*
X117047012Y-58438663D01*
X117041441Y-58446122D01*
X117029038Y-58465452D01*
X117026400Y-58475209D01*
X117019768Y-58489263D01*
X117001815Y-58515929D01*
X116975459Y-58551478D01*
X116943615Y-58592186D01*
X116909201Y-58634326D01*
X116875134Y-58674172D01*
X116844331Y-58707997D01*
X116843500Y-58708866D01*
X116789448Y-58760571D01*
X116723092Y-58816792D01*
X116651364Y-58872143D01*
X116581195Y-58921239D01*
X116527992Y-58954008D01*
X116473523Y-58983935D01*
X116427855Y-59006651D01*
X116382584Y-59025870D01*
X116329305Y-59045304D01*
X116295040Y-59056930D01*
X116262941Y-59067127D01*
X116230541Y-59076016D01*
X116193737Y-59084448D01*
X116148427Y-59093274D01*
X116090511Y-59103346D01*
X116015885Y-59115515D01*
X116002496Y-59117653D01*
X115960386Y-59122167D01*
X115906567Y-59124838D01*
X115847361Y-59125697D01*
X115789091Y-59124774D01*
X115738078Y-59122096D01*
X115700644Y-59117695D01*
X115693700Y-59116218D01*
X115662342Y-59109348D01*
X115619979Y-59101220D01*
X115585350Y-59095200D01*
X115448393Y-59062836D01*
X115309813Y-59011289D01*
X115173476Y-58942340D01*
X115043245Y-58857772D01*
X115001456Y-58826101D01*
X114888993Y-58727101D01*
X114786906Y-58616445D01*
X114697319Y-58497309D01*
X114622357Y-58372871D01*
X114564143Y-58246306D01*
X114524803Y-58120793D01*
X114522201Y-58109385D01*
X114513579Y-58071790D01*
X114502409Y-58024997D01*
X114493855Y-57990200D01*
X114488969Y-57967288D01*
X114485043Y-57940144D01*
X114481982Y-57906308D01*
X114479690Y-57863321D01*
X114478070Y-57808722D01*
X114477026Y-57740050D01*
X114476462Y-57654846D01*
X114476282Y-57550650D01*
X114476282Y-57540549D01*
X114476364Y-57438377D01*
X114476693Y-57355087D01*
X114477410Y-57287893D01*
X114478654Y-57234007D01*
X114480565Y-57190643D01*
X114483282Y-57155012D01*
X114486944Y-57124330D01*
X114491691Y-57095807D01*
X114497664Y-57066657D01*
X114500702Y-57052976D01*
X114512686Y-57002518D01*
X114524852Y-56955889D01*
X114535383Y-56919857D01*
X114539940Y-56906704D01*
X114552055Y-56873242D01*
X114561379Y-56843362D01*
X114561821Y-56841694D01*
X114576753Y-56799256D01*
X114601568Y-56744764D01*
X114633306Y-56683623D01*
X114669012Y-56621234D01*
X114705729Y-56563002D01*
X114740498Y-56514329D01*
X114742130Y-56512246D01*
X114833476Y-56406921D01*
X114935117Y-56308525D01*
X115042608Y-56220780D01*
X115151501Y-56147408D01*
X115227796Y-56105801D01*
X115307656Y-56070192D01*
X115394717Y-56036962D01*
X115482265Y-56008331D01*
X115563586Y-55986523D01*
X115623273Y-55974939D01*
X115701378Y-55963655D01*
X115761818Y-55955316D01*
X115808360Y-55949675D01*
X115844773Y-55946485D01*
X115874824Y-55945501D01*
X115902281Y-55946475D01*
G37*
X115902281Y-55946475D02*
X115930912Y-55949161D01*
X115960842Y-55952843D01*
X116059691Y-55966237D01*
X116141470Y-55979285D01*
X116210723Y-55993223D01*
X116271992Y-56009290D01*
X116329820Y-56028719D01*
X116388751Y-56052749D01*
X116453325Y-56082614D01*
X116473219Y-56092280D01*
X116574539Y-56149640D01*
X116677843Y-56222186D01*
X116778139Y-56305559D01*
X116870434Y-56395400D01*
X116949736Y-56487352D01*
X116990335Y-56543733D01*
X117012144Y-56576607D01*
X117032374Y-56606863D01*
X117037731Y-56614807D01*
X117072530Y-56674578D01*
X117107879Y-56750224D01*
X117141663Y-56836115D01*
X117171768Y-56926619D01*
X117196077Y-57016108D01*
X117206397Y-57063811D01*
X117211922Y-57103757D01*
X117216904Y-57161367D01*
X117221270Y-57232983D01*
X117224951Y-57314943D01*
X117227876Y-57403586D01*
X117229973Y-57495252D01*
X117231173Y-57586281D01*
X117231404Y-57673011D01*
X117230595Y-57751783D01*
X117228676Y-57818937D01*
X117225577Y-57870810D01*
X117222504Y-57897067D01*
X117214337Y-57946258D01*
X117205132Y-58001489D01*
X117199773Y-58033540D01*
X117187159Y-58094496D01*
X117169417Y-58161823D01*
X117149235Y-58226173D01*
X117129684Y-58277327D01*
X117107759Y-58325048D01*
X117084822Y-58371384D01*
X117063648Y-58411025D01*
X117047012Y-58438663D01*
X117041441Y-58446122D01*
X117029038Y-58465452D01*
X117026400Y-58475209D01*
X117019768Y-58489263D01*
X117001815Y-58515929D01*
X116975459Y-58551478D01*
X116943615Y-58592186D01*
X116909201Y-58634326D01*
X116875134Y-58674172D01*
X116844331Y-58707997D01*
X116843500Y-58708866D01*
X116789448Y-58760571D01*
X116723092Y-58816792D01*
X116651364Y-58872143D01*
X116581195Y-58921239D01*
X116527992Y-58954008D01*
X116473523Y-58983935D01*
X116427855Y-59006651D01*
X116382584Y-59025870D01*
X116329305Y-59045304D01*
X116295040Y-59056930D01*
X116262941Y-59067127D01*
X116230541Y-59076016D01*
X116193737Y-59084448D01*
X116148427Y-59093274D01*
X116090511Y-59103346D01*
X116015885Y-59115515D01*
X116002496Y-59117653D01*
X115960386Y-59122167D01*
X115906567Y-59124838D01*
X115847361Y-59125697D01*
X115789091Y-59124774D01*
X115738078Y-59122096D01*
X115700644Y-59117695D01*
X115693700Y-59116218D01*
X115662342Y-59109348D01*
X115619979Y-59101220D01*
X115585350Y-59095200D01*
X115448393Y-59062836D01*
X115309813Y-59011289D01*
X115173476Y-58942340D01*
X115043245Y-58857772D01*
X115001456Y-58826101D01*
X114888993Y-58727101D01*
X114786906Y-58616445D01*
X114697319Y-58497309D01*
X114622357Y-58372871D01*
X114564143Y-58246306D01*
X114524803Y-58120793D01*
X114522201Y-58109385D01*
X114513579Y-58071790D01*
X114502409Y-58024997D01*
X114493855Y-57990200D01*
X114488969Y-57967288D01*
X114485043Y-57940144D01*
X114481982Y-57906308D01*
X114479690Y-57863321D01*
X114478070Y-57808722D01*
X114477026Y-57740050D01*
X114476462Y-57654846D01*
X114476282Y-57550650D01*
X114476282Y-57540549D01*
X114476364Y-57438377D01*
X114476693Y-57355087D01*
X114477410Y-57287893D01*
X114478654Y-57234007D01*
X114480565Y-57190643D01*
X114483282Y-57155012D01*
X114486944Y-57124330D01*
X114491691Y-57095807D01*
X114497664Y-57066657D01*
X114500702Y-57052976D01*
X114512686Y-57002518D01*
X114524852Y-56955889D01*
X114535383Y-56919857D01*
X114539940Y-56906704D01*
X114552055Y-56873242D01*
X114561379Y-56843362D01*
X114561821Y-56841694D01*
X114576753Y-56799256D01*
X114601568Y-56744764D01*
X114633306Y-56683623D01*
X114669012Y-56621234D01*
X114705729Y-56563002D01*
X114740498Y-56514329D01*
X114742130Y-56512246D01*
X114833476Y-56406921D01*
X114935117Y-56308525D01*
X115042608Y-56220780D01*
X115151501Y-56147408D01*
X115227796Y-56105801D01*
X115307656Y-56070192D01*
X115394717Y-56036962D01*
X115482265Y-56008331D01*
X115563586Y-55986523D01*
X115623273Y-55974939D01*
X115701378Y-55963655D01*
X115761818Y-55955316D01*
X115808360Y-55949675D01*
X115844773Y-55946485D01*
X115874824Y-55945501D01*
X115902281Y-55946475D01*
G36*
X132294840Y-55945412D02*
G01*
X132554434Y-55945791D01*
X132793254Y-55946151D01*
X133012198Y-55946502D01*
X133212161Y-55946852D01*
X133394040Y-55947213D01*
X133558732Y-55947594D01*
X133707132Y-55948004D01*
X133840138Y-55948453D01*
X133958646Y-55948952D01*
X134063552Y-55949509D01*
X134155753Y-55950135D01*
X134236145Y-55950839D01*
X134305624Y-55951631D01*
X134365088Y-55952521D01*
X134415433Y-55953519D01*
X134457554Y-55954634D01*
X134492350Y-55955876D01*
X134520715Y-55957255D01*
X134543547Y-55958780D01*
X134561742Y-55960462D01*
X134576196Y-55962310D01*
X134587806Y-55964334D01*
X134597469Y-55966544D01*
X134606080Y-55968949D01*
X134611548Y-55970624D01*
X134699752Y-56007221D01*
X134770632Y-56056787D01*
X134824473Y-56119661D01*
X134861560Y-56196182D01*
X134882178Y-56286689D01*
X134883015Y-56293584D01*
X134886317Y-56335256D01*
X134888943Y-56394395D01*
X134890898Y-56467174D01*
X134892187Y-56549767D01*
X134892813Y-56638347D01*
X134892781Y-56729087D01*
X134892095Y-56818159D01*
X134890761Y-56901737D01*
X134888782Y-56975994D01*
X134886163Y-57037102D01*
X134882909Y-57081235D01*
X134882092Y-57088414D01*
X134861316Y-57181196D01*
X134823977Y-57260010D01*
X134770016Y-57324924D01*
X134699377Y-57376007D01*
X134612001Y-57413326D01*
X134607510Y-57414733D01*
X134592531Y-57419198D01*
X134577507Y-57423042D01*
X134560774Y-57426311D01*
X134540667Y-57429053D01*
X134515521Y-57431314D01*
X134483669Y-57433142D01*
X134443448Y-57434583D01*
X134393192Y-57435684D01*
X134331236Y-57436492D01*
X134255915Y-57437055D01*
X134165563Y-57437418D01*
X134058515Y-57437629D01*
X133933107Y-57437736D01*
X133789658Y-57437783D01*
X133664437Y-57437933D01*
X133545449Y-57438313D01*
X133434487Y-57438901D01*
X133333346Y-57439677D01*
X133243818Y-57440620D01*
X133167697Y-57441709D01*
X133106776Y-57442925D01*
X133062850Y-57444245D01*
X133037711Y-57445649D01*
X133032375Y-57446534D01*
X133030102Y-57452198D01*
X133028053Y-57466838D01*
X133026213Y-57491483D01*
X133024568Y-57527162D01*
X133023103Y-57574902D01*
X133021802Y-57635733D01*
X133020650Y-57710683D01*
X133019632Y-57800781D01*
X133018735Y-57907054D01*
X133017941Y-58030531D01*
X133017238Y-58172242D01*
X133016609Y-58333213D01*
X133016040Y-58514474D01*
X133015856Y-58581331D01*
X133012857Y-59707542D01*
X132986370Y-59772552D01*
X132949994Y-59849512D01*
X132909013Y-59909021D01*
X132859194Y-59955294D01*
X132796303Y-59992546D01*
X132742516Y-60015406D01*
X132722860Y-60022471D01*
X132703478Y-60028086D01*
X132681592Y-60032451D01*
X132654425Y-60035766D01*
X132619202Y-60038231D01*
X132573144Y-60040045D01*
X132513475Y-60041408D01*
X132437418Y-60042520D01*
X132352458Y-60043474D01*
X132264963Y-60044070D01*
X132179481Y-60044055D01*
X132099828Y-60043473D01*
X132029822Y-60042372D01*
X131973281Y-60040794D01*
X131934021Y-60038787D01*
X131929894Y-60038455D01*
X131846724Y-60026858D01*
X131778307Y-60006532D01*
X131718697Y-59975160D01*
X131669191Y-59936919D01*
X131605446Y-59868176D01*
X131561111Y-59791942D01*
X131542824Y-59737663D01*
X131540539Y-59721447D01*
X131538458Y-59691735D01*
X131536570Y-59647753D01*
X131534865Y-59588728D01*
X131533331Y-59513885D01*
X131531959Y-59422452D01*
X131530738Y-59313653D01*
X131529656Y-59186716D01*
X131528703Y-59040866D01*
X131527869Y-58875330D01*
X131527143Y-58689334D01*
X131526777Y-58575289D01*
X131526220Y-58395176D01*
X131525672Y-58235495D01*
X131525110Y-58095006D01*
X131524509Y-57972471D01*
X131523846Y-57866651D01*
X131523098Y-57776307D01*
X131522239Y-57700200D01*
X131521247Y-57637091D01*
X131520098Y-57585743D01*
X131518768Y-57544915D01*
X131517233Y-57513370D01*
X131515470Y-57489868D01*
X131513454Y-57473171D01*
X131511162Y-57462040D01*
X131508570Y-57455236D01*
X131505655Y-57451521D01*
X131505198Y-57451161D01*
X131496854Y-57448386D01*
X131478990Y-57445988D01*
X131450344Y-57443943D01*
X131409656Y-57442230D01*
X131355665Y-57440825D01*
X131287107Y-57439707D01*
X131202723Y-57438853D01*
X131101251Y-57438240D01*
X130981429Y-57437847D01*
X130841996Y-57437650D01*
X130743219Y-57437617D01*
X130598127Y-57437603D01*
X130473040Y-57437529D01*
X130366294Y-57437348D01*
X130276226Y-57437012D01*
X130201169Y-57436474D01*
X130139461Y-57435687D01*
X130089437Y-57434604D01*
X130049432Y-57433176D01*
X130017782Y-57431357D01*
X129992823Y-57429100D01*
X129972891Y-57426356D01*
X129956320Y-57423079D01*
X129941447Y-57419222D01*
X129926607Y-57414736D01*
X129925379Y-57414351D01*
X129838670Y-57378486D01*
X129767632Y-57329197D01*
X129709202Y-57263946D01*
X129673260Y-57205737D01*
X129643716Y-57150491D01*
X129643716Y-56229519D01*
X129673251Y-56174290D01*
X129712409Y-56113922D01*
X129760590Y-56059144D01*
X129811465Y-56016925D01*
X129822493Y-56009954D01*
X129850776Y-55996976D01*
X129892574Y-55982253D01*
X129940182Y-55968418D01*
X129954487Y-55964824D01*
X130048559Y-55942153D01*
X132294840Y-55945412D01*
G37*
X132294840Y-55945412D02*
X132554434Y-55945791D01*
X132793254Y-55946151D01*
X133012198Y-55946502D01*
X133212161Y-55946852D01*
X133394040Y-55947213D01*
X133558732Y-55947594D01*
X133707132Y-55948004D01*
X133840138Y-55948453D01*
X133958646Y-55948952D01*
X134063552Y-55949509D01*
X134155753Y-55950135D01*
X134236145Y-55950839D01*
X134305624Y-55951631D01*
X134365088Y-55952521D01*
X134415433Y-55953519D01*
X134457554Y-55954634D01*
X134492350Y-55955876D01*
X134520715Y-55957255D01*
X134543547Y-55958780D01*
X134561742Y-55960462D01*
X134576196Y-55962310D01*
X134587806Y-55964334D01*
X134597469Y-55966544D01*
X134606080Y-55968949D01*
X134611548Y-55970624D01*
X134699752Y-56007221D01*
X134770632Y-56056787D01*
X134824473Y-56119661D01*
X134861560Y-56196182D01*
X134882178Y-56286689D01*
X134883015Y-56293584D01*
X134886317Y-56335256D01*
X134888943Y-56394395D01*
X134890898Y-56467174D01*
X134892187Y-56549767D01*
X134892813Y-56638347D01*
X134892781Y-56729087D01*
X134892095Y-56818159D01*
X134890761Y-56901737D01*
X134888782Y-56975994D01*
X134886163Y-57037102D01*
X134882909Y-57081235D01*
X134882092Y-57088414D01*
X134861316Y-57181196D01*
X134823977Y-57260010D01*
X134770016Y-57324924D01*
X134699377Y-57376007D01*
X134612001Y-57413326D01*
X134607510Y-57414733D01*
X134592531Y-57419198D01*
X134577507Y-57423042D01*
X134560774Y-57426311D01*
X134540667Y-57429053D01*
X134515521Y-57431314D01*
X134483669Y-57433142D01*
X134443448Y-57434583D01*
X134393192Y-57435684D01*
X134331236Y-57436492D01*
X134255915Y-57437055D01*
X134165563Y-57437418D01*
X134058515Y-57437629D01*
X133933107Y-57437736D01*
X133789658Y-57437783D01*
X133664437Y-57437933D01*
X133545449Y-57438313D01*
X133434487Y-57438901D01*
X133333346Y-57439677D01*
X133243818Y-57440620D01*
X133167697Y-57441709D01*
X133106776Y-57442925D01*
X133062850Y-57444245D01*
X133037711Y-57445649D01*
X133032375Y-57446534D01*
X133030102Y-57452198D01*
X133028053Y-57466838D01*
X133026213Y-57491483D01*
X133024568Y-57527162D01*
X133023103Y-57574902D01*
X133021802Y-57635733D01*
X133020650Y-57710683D01*
X133019632Y-57800781D01*
X133018735Y-57907054D01*
X133017941Y-58030531D01*
X133017238Y-58172242D01*
X133016609Y-58333213D01*
X133016040Y-58514474D01*
X133015856Y-58581331D01*
X133012857Y-59707542D01*
X132986370Y-59772552D01*
X132949994Y-59849512D01*
X132909013Y-59909021D01*
X132859194Y-59955294D01*
X132796303Y-59992546D01*
X132742516Y-60015406D01*
X132722860Y-60022471D01*
X132703478Y-60028086D01*
X132681592Y-60032451D01*
X132654425Y-60035766D01*
X132619202Y-60038231D01*
X132573144Y-60040045D01*
X132513475Y-60041408D01*
X132437418Y-60042520D01*
X132352458Y-60043474D01*
X132264963Y-60044070D01*
X132179481Y-60044055D01*
X132099828Y-60043473D01*
X132029822Y-60042372D01*
X131973281Y-60040794D01*
X131934021Y-60038787D01*
X131929894Y-60038455D01*
X131846724Y-60026858D01*
X131778307Y-60006532D01*
X131718697Y-59975160D01*
X131669191Y-59936919D01*
X131605446Y-59868176D01*
X131561111Y-59791942D01*
X131542824Y-59737663D01*
X131540539Y-59721447D01*
X131538458Y-59691735D01*
X131536570Y-59647753D01*
X131534865Y-59588728D01*
X131533331Y-59513885D01*
X131531959Y-59422452D01*
X131530738Y-59313653D01*
X131529656Y-59186716D01*
X131528703Y-59040866D01*
X131527869Y-58875330D01*
X131527143Y-58689334D01*
X131526777Y-58575289D01*
X131526220Y-58395176D01*
X131525672Y-58235495D01*
X131525110Y-58095006D01*
X131524509Y-57972471D01*
X131523846Y-57866651D01*
X131523098Y-57776307D01*
X131522239Y-57700200D01*
X131521247Y-57637091D01*
X131520098Y-57585743D01*
X131518768Y-57544915D01*
X131517233Y-57513370D01*
X131515470Y-57489868D01*
X131513454Y-57473171D01*
X131511162Y-57462040D01*
X131508570Y-57455236D01*
X131505655Y-57451521D01*
X131505198Y-57451161D01*
X131496854Y-57448386D01*
X131478990Y-57445988D01*
X131450344Y-57443943D01*
X131409656Y-57442230D01*
X131355665Y-57440825D01*
X131287107Y-57439707D01*
X131202723Y-57438853D01*
X131101251Y-57438240D01*
X130981429Y-57437847D01*
X130841996Y-57437650D01*
X130743219Y-57437617D01*
X130598127Y-57437603D01*
X130473040Y-57437529D01*
X130366294Y-57437348D01*
X130276226Y-57437012D01*
X130201169Y-57436474D01*
X130139461Y-57435687D01*
X130089437Y-57434604D01*
X130049432Y-57433176D01*
X130017782Y-57431357D01*
X129992823Y-57429100D01*
X129972891Y-57426356D01*
X129956320Y-57423079D01*
X129941447Y-57419222D01*
X129926607Y-57414736D01*
X129925379Y-57414351D01*
X129838670Y-57378486D01*
X129767632Y-57329197D01*
X129709202Y-57263946D01*
X129673260Y-57205737D01*
X129643716Y-57150491D01*
X129643716Y-56229519D01*
X129673251Y-56174290D01*
X129712409Y-56113922D01*
X129760590Y-56059144D01*
X129811465Y-56016925D01*
X129822493Y-56009954D01*
X129850776Y-55996976D01*
X129892574Y-55982253D01*
X129940182Y-55968418D01*
X129954487Y-55964824D01*
X130048559Y-55942153D01*
X132294840Y-55945412D01*
G36*
X122560482Y-55944264D02*
G01*
X122770033Y-55944412D01*
X122998720Y-55944660D01*
X123247435Y-55944996D01*
X123471313Y-55945336D01*
X123727228Y-55945744D01*
X123962384Y-55946130D01*
X124177689Y-55946506D01*
X124374053Y-55946881D01*
X124552387Y-55947265D01*
X124713599Y-55947670D01*
X124858600Y-55948105D01*
X124988298Y-55948579D01*
X125103605Y-55949105D01*
X125205430Y-55949690D01*
X125294682Y-55950347D01*
X125372272Y-55951085D01*
X125439108Y-55951913D01*
X125496101Y-55952844D01*
X125544160Y-55953885D01*
X125584196Y-55955049D01*
X125617117Y-55956344D01*
X125643834Y-55957782D01*
X125665256Y-55959371D01*
X125682294Y-55961124D01*
X125695856Y-55963049D01*
X125706853Y-55965157D01*
X125716194Y-55967458D01*
X125724789Y-55969962D01*
X125726877Y-55970605D01*
X125814352Y-56006647D01*
X125884478Y-56055521D01*
X125937784Y-56117869D01*
X125974802Y-56194334D01*
X125996059Y-56285557D01*
X125997711Y-56298688D01*
X126001219Y-56342606D01*
X126004006Y-56404165D01*
X126006072Y-56479347D01*
X126007418Y-56564136D01*
X126008045Y-56654514D01*
X126007953Y-56746464D01*
X126007143Y-56835969D01*
X126005615Y-56919012D01*
X126003370Y-56991576D01*
X126000409Y-57049642D01*
X125997605Y-57082250D01*
X125978439Y-57175146D01*
X125943494Y-57253504D01*
X125892072Y-57318176D01*
X125823473Y-57370015D01*
X125737000Y-57409874D01*
X125726114Y-57413649D01*
X125711962Y-57418306D01*
X125698084Y-57422316D01*
X125682829Y-57425729D01*
X125664547Y-57428593D01*
X125641590Y-57430955D01*
X125612308Y-57432864D01*
X125575052Y-57434369D01*
X125528171Y-57435517D01*
X125470017Y-57436356D01*
X125398940Y-57436936D01*
X125313290Y-57437303D01*
X125211418Y-57437507D01*
X125091675Y-57437596D01*
X124952411Y-57437617D01*
X124906139Y-57437617D01*
X124759250Y-57437658D01*
X124632526Y-57437802D01*
X124524465Y-57438082D01*
X124433560Y-57438533D01*
X124358310Y-57439187D01*
X124297209Y-57440079D01*
X124248753Y-57441241D01*
X124211439Y-57442707D01*
X124183761Y-57444510D01*
X124164217Y-57446685D01*
X124151302Y-57449263D01*
X124143513Y-57452279D01*
X124140329Y-57454644D01*
X124137567Y-57459028D01*
X124135118Y-57467151D01*
X124132962Y-57480235D01*
X124131081Y-57499504D01*
X124129457Y-57526180D01*
X124128071Y-57561488D01*
X124126906Y-57606651D01*
X124125942Y-57662892D01*
X124125163Y-57731435D01*
X124124548Y-57813503D01*
X124124080Y-57910319D01*
X124123741Y-58023107D01*
X124123513Y-58153090D01*
X124123376Y-58301492D01*
X124123313Y-58469535D01*
X124123303Y-58591351D01*
X124123303Y-59711032D01*
X124099258Y-59774297D01*
X124061493Y-59855260D01*
X124015188Y-59918465D01*
X123957158Y-59967152D01*
X123884217Y-60004563D01*
X123866022Y-60011539D01*
X123843062Y-60019769D01*
X123822475Y-60026304D01*
X123801453Y-60031359D01*
X123777190Y-60035146D01*
X123746881Y-60037879D01*
X123707720Y-60039770D01*
X123656900Y-60041035D01*
X123591615Y-60041884D01*
X123509059Y-60042533D01*
X123453455Y-60042892D01*
X123365813Y-60043178D01*
X123280894Y-60042952D01*
X123202310Y-60042262D01*
X123133672Y-60041156D01*
X123078592Y-60039679D01*
X123040678Y-60037881D01*
X123034389Y-60037394D01*
X122984333Y-60030759D01*
X122934714Y-60020512D01*
X122895861Y-60008808D01*
X122894271Y-60008176D01*
X122840439Y-59978932D01*
X122785001Y-59936379D01*
X122735322Y-59886935D01*
X122699764Y-59838733D01*
X122690261Y-59822162D01*
X122681803Y-59805864D01*
X122674329Y-59788542D01*
X122667777Y-59768900D01*
X122662088Y-59745640D01*
X122657200Y-59717464D01*
X122653053Y-59683076D01*
X122649585Y-59641179D01*
X122646736Y-59590474D01*
X122644445Y-59529665D01*
X122642652Y-59457455D01*
X122641295Y-59372546D01*
X122640313Y-59273641D01*
X122639647Y-59159444D01*
X122639235Y-59028656D01*
X122639016Y-58879980D01*
X122638929Y-58712120D01*
X122638914Y-58540456D01*
X122638905Y-58363613D01*
X122638862Y-58207175D01*
X122638761Y-58069876D01*
X122638578Y-57950450D01*
X122638288Y-57847633D01*
X122637868Y-57760159D01*
X122637292Y-57686762D01*
X122636536Y-57626178D01*
X122635577Y-57577140D01*
X122634389Y-57538383D01*
X122632949Y-57508643D01*
X122631233Y-57486653D01*
X122629215Y-57471148D01*
X122626872Y-57460863D01*
X122624180Y-57454532D01*
X122621113Y-57450890D01*
X122617955Y-57448833D01*
X122602086Y-57446288D01*
X122564681Y-57444066D01*
X122505869Y-57442169D01*
X122425782Y-57440598D01*
X122324551Y-57439357D01*
X122202306Y-57438447D01*
X122059178Y-57437869D01*
X121895298Y-57437626D01*
X121855914Y-57437617D01*
X121711091Y-57437603D01*
X121586270Y-57437528D01*
X121479783Y-57437345D01*
X121389963Y-57437007D01*
X121315142Y-57436465D01*
X121253652Y-57435673D01*
X121203825Y-57434582D01*
X121163994Y-57433146D01*
X121132490Y-57431316D01*
X121107647Y-57429046D01*
X121087796Y-57426287D01*
X121071269Y-57422993D01*
X121056399Y-57419114D01*
X121041519Y-57414605D01*
X121040800Y-57414380D01*
X120957283Y-57380660D01*
X120889213Y-57335405D01*
X120832671Y-57275320D01*
X120784866Y-57199248D01*
X120759046Y-57150491D01*
X120759046Y-56695081D01*
X120759096Y-56583195D01*
X120759305Y-56490836D01*
X120759763Y-56415858D01*
X120760561Y-56356119D01*
X120761789Y-56309473D01*
X120763536Y-56273778D01*
X120765893Y-56246889D01*
X120768950Y-56226662D01*
X120772796Y-56210954D01*
X120777522Y-56197620D01*
X120780208Y-56191255D01*
X120823479Y-56116392D01*
X120881279Y-56053086D01*
X120949898Y-56004618D01*
X121025623Y-55974267D01*
X121025796Y-55974222D01*
X121041620Y-55970490D01*
X121059594Y-55967058D01*
X121080614Y-55963914D01*
X121105573Y-55961048D01*
X121135365Y-55958450D01*
X121170884Y-55956110D01*
X121213023Y-55954015D01*
X121262677Y-55952157D01*
X121320739Y-55950523D01*
X121388104Y-55949105D01*
X121465665Y-55947891D01*
X121554316Y-55946870D01*
X121654951Y-55946033D01*
X121768464Y-55945368D01*
X121895749Y-55944866D01*
X122037699Y-55944514D01*
X122195209Y-55944304D01*
X122369172Y-55944224D01*
X122560482Y-55944264D01*
G37*
X122560482Y-55944264D02*
X122770033Y-55944412D01*
X122998720Y-55944660D01*
X123247435Y-55944996D01*
X123471313Y-55945336D01*
X123727228Y-55945744D01*
X123962384Y-55946130D01*
X124177689Y-55946506D01*
X124374053Y-55946881D01*
X124552387Y-55947265D01*
X124713599Y-55947670D01*
X124858600Y-55948105D01*
X124988298Y-55948579D01*
X125103605Y-55949105D01*
X125205430Y-55949690D01*
X125294682Y-55950347D01*
X125372272Y-55951085D01*
X125439108Y-55951913D01*
X125496101Y-55952844D01*
X125544160Y-55953885D01*
X125584196Y-55955049D01*
X125617117Y-55956344D01*
X125643834Y-55957782D01*
X125665256Y-55959371D01*
X125682294Y-55961124D01*
X125695856Y-55963049D01*
X125706853Y-55965157D01*
X125716194Y-55967458D01*
X125724789Y-55969962D01*
X125726877Y-55970605D01*
X125814352Y-56006647D01*
X125884478Y-56055521D01*
X125937784Y-56117869D01*
X125974802Y-56194334D01*
X125996059Y-56285557D01*
X125997711Y-56298688D01*
X126001219Y-56342606D01*
X126004006Y-56404165D01*
X126006072Y-56479347D01*
X126007418Y-56564136D01*
X126008045Y-56654514D01*
X126007953Y-56746464D01*
X126007143Y-56835969D01*
X126005615Y-56919012D01*
X126003370Y-56991576D01*
X126000409Y-57049642D01*
X125997605Y-57082250D01*
X125978439Y-57175146D01*
X125943494Y-57253504D01*
X125892072Y-57318176D01*
X125823473Y-57370015D01*
X125737000Y-57409874D01*
X125726114Y-57413649D01*
X125711962Y-57418306D01*
X125698084Y-57422316D01*
X125682829Y-57425729D01*
X125664547Y-57428593D01*
X125641590Y-57430955D01*
X125612308Y-57432864D01*
X125575052Y-57434369D01*
X125528171Y-57435517D01*
X125470017Y-57436356D01*
X125398940Y-57436936D01*
X125313290Y-57437303D01*
X125211418Y-57437507D01*
X125091675Y-57437596D01*
X124952411Y-57437617D01*
X124906139Y-57437617D01*
X124759250Y-57437658D01*
X124632526Y-57437802D01*
X124524465Y-57438082D01*
X124433560Y-57438533D01*
X124358310Y-57439187D01*
X124297209Y-57440079D01*
X124248753Y-57441241D01*
X124211439Y-57442707D01*
X124183761Y-57444510D01*
X124164217Y-57446685D01*
X124151302Y-57449263D01*
X124143513Y-57452279D01*
X124140329Y-57454644D01*
X124137567Y-57459028D01*
X124135118Y-57467151D01*
X124132962Y-57480235D01*
X124131081Y-57499504D01*
X124129457Y-57526180D01*
X124128071Y-57561488D01*
X124126906Y-57606651D01*
X124125942Y-57662892D01*
X124125163Y-57731435D01*
X124124548Y-57813503D01*
X124124080Y-57910319D01*
X124123741Y-58023107D01*
X124123513Y-58153090D01*
X124123376Y-58301492D01*
X124123313Y-58469535D01*
X124123303Y-58591351D01*
X124123303Y-59711032D01*
X124099258Y-59774297D01*
X124061493Y-59855260D01*
X124015188Y-59918465D01*
X123957158Y-59967152D01*
X123884217Y-60004563D01*
X123866022Y-60011539D01*
X123843062Y-60019769D01*
X123822475Y-60026304D01*
X123801453Y-60031359D01*
X123777190Y-60035146D01*
X123746881Y-60037879D01*
X123707720Y-60039770D01*
X123656900Y-60041035D01*
X123591615Y-60041884D01*
X123509059Y-60042533D01*
X123453455Y-60042892D01*
X123365813Y-60043178D01*
X123280894Y-60042952D01*
X123202310Y-60042262D01*
X123133672Y-60041156D01*
X123078592Y-60039679D01*
X123040678Y-60037881D01*
X123034389Y-60037394D01*
X122984333Y-60030759D01*
X122934714Y-60020512D01*
X122895861Y-60008808D01*
X122894271Y-60008176D01*
X122840439Y-59978932D01*
X122785001Y-59936379D01*
X122735322Y-59886935D01*
X122699764Y-59838733D01*
X122690261Y-59822162D01*
X122681803Y-59805864D01*
X122674329Y-59788542D01*
X122667777Y-59768900D01*
X122662088Y-59745640D01*
X122657200Y-59717464D01*
X122653053Y-59683076D01*
X122649585Y-59641179D01*
X122646736Y-59590474D01*
X122644445Y-59529665D01*
X122642652Y-59457455D01*
X122641295Y-59372546D01*
X122640313Y-59273641D01*
X122639647Y-59159444D01*
X122639235Y-59028656D01*
X122639016Y-58879980D01*
X122638929Y-58712120D01*
X122638914Y-58540456D01*
X122638905Y-58363613D01*
X122638862Y-58207175D01*
X122638761Y-58069876D01*
X122638578Y-57950450D01*
X122638288Y-57847633D01*
X122637868Y-57760159D01*
X122637292Y-57686762D01*
X122636536Y-57626178D01*
X122635577Y-57577140D01*
X122634389Y-57538383D01*
X122632949Y-57508643D01*
X122631233Y-57486653D01*
X122629215Y-57471148D01*
X122626872Y-57460863D01*
X122624180Y-57454532D01*
X122621113Y-57450890D01*
X122617955Y-57448833D01*
X122602086Y-57446288D01*
X122564681Y-57444066D01*
X122505869Y-57442169D01*
X122425782Y-57440598D01*
X122324551Y-57439357D01*
X122202306Y-57438447D01*
X122059178Y-57437869D01*
X121895298Y-57437626D01*
X121855914Y-57437617D01*
X121711091Y-57437603D01*
X121586270Y-57437528D01*
X121479783Y-57437345D01*
X121389963Y-57437007D01*
X121315142Y-57436465D01*
X121253652Y-57435673D01*
X121203825Y-57434582D01*
X121163994Y-57433146D01*
X121132490Y-57431316D01*
X121107647Y-57429046D01*
X121087796Y-57426287D01*
X121071269Y-57422993D01*
X121056399Y-57419114D01*
X121041519Y-57414605D01*
X121040800Y-57414380D01*
X120957283Y-57380660D01*
X120889213Y-57335405D01*
X120832671Y-57275320D01*
X120784866Y-57199248D01*
X120759046Y-57150491D01*
X120759046Y-56695081D01*
X120759096Y-56583195D01*
X120759305Y-56490836D01*
X120759763Y-56415858D01*
X120760561Y-56356119D01*
X120761789Y-56309473D01*
X120763536Y-56273778D01*
X120765893Y-56246889D01*
X120768950Y-56226662D01*
X120772796Y-56210954D01*
X120777522Y-56197620D01*
X120780208Y-56191255D01*
X120823479Y-56116392D01*
X120881279Y-56053086D01*
X120949898Y-56004618D01*
X121025623Y-55974267D01*
X121025796Y-55974222D01*
X121041620Y-55970490D01*
X121059594Y-55967058D01*
X121080614Y-55963914D01*
X121105573Y-55961048D01*
X121135365Y-55958450D01*
X121170884Y-55956110D01*
X121213023Y-55954015D01*
X121262677Y-55952157D01*
X121320739Y-55950523D01*
X121388104Y-55949105D01*
X121465665Y-55947891D01*
X121554316Y-55946870D01*
X121654951Y-55946033D01*
X121768464Y-55945368D01*
X121895749Y-55944866D01*
X122037699Y-55944514D01*
X122195209Y-55944304D01*
X122369172Y-55944224D01*
X122560482Y-55944264D01*
G36*
X127920359Y-59893833D02*
G01*
X127996712Y-59906166D01*
X128067234Y-59924740D01*
X128125566Y-59948808D01*
X128126821Y-59949478D01*
X128196424Y-59990579D01*
X128257226Y-60033654D01*
X128303519Y-60074631D01*
X128306437Y-60077709D01*
X128367370Y-60149425D01*
X128415298Y-60221574D01*
X128451959Y-60298446D01*
X128479093Y-60384329D01*
X128498435Y-60483513D01*
X128509889Y-60579757D01*
X128527675Y-60712104D01*
X128555903Y-60850852D01*
X128592165Y-60984952D01*
X128610255Y-61040243D01*
X128621464Y-61074527D01*
X128632337Y-61110669D01*
X128642160Y-61141015D01*
X128657040Y-61182408D01*
X128674162Y-61227490D01*
X128690711Y-61268900D01*
X128703873Y-61299280D01*
X128706633Y-61304933D01*
X128714763Y-61321121D01*
X128730175Y-61352088D01*
X128750558Y-61393182D01*
X128770642Y-61433767D01*
X128875338Y-61621517D01*
X128997568Y-61797482D01*
X129136059Y-61960304D01*
X129289537Y-62108625D01*
X129456729Y-62241085D01*
X129634626Y-62355332D01*
X129829196Y-62456970D01*
X130024575Y-62539267D01*
X130174630Y-62588953D01*
X130224520Y-62603605D01*
X130272765Y-62618006D01*
X130311212Y-62629713D01*
X130320902Y-62632741D01*
X130363928Y-62644376D01*
X130409156Y-62653801D01*
X130418416Y-62655282D01*
X130459982Y-62662785D01*
X130506156Y-62673116D01*
X130521348Y-62677019D01*
X130557209Y-62684925D01*
X130606046Y-62693389D01*
X130659258Y-62700973D01*
X130678455Y-62703283D01*
X130730148Y-62709836D01*
X130779766Y-62717323D01*
X130819171Y-62724476D01*
X130830145Y-62726933D01*
X130846063Y-62728766D01*
X130878814Y-62730512D01*
X130928789Y-62732175D01*
X130996380Y-62733759D01*
X131081978Y-62735270D01*
X131185975Y-62736710D01*
X131308763Y-62738084D01*
X131450733Y-62739396D01*
X131612277Y-62740651D01*
X131793786Y-62741853D01*
X131995652Y-62743005D01*
X132218268Y-62744113D01*
X132462024Y-62745181D01*
X132552904Y-62745548D01*
X132741758Y-62746339D01*
X132924752Y-62747192D01*
X133100710Y-62748098D01*
X133268455Y-62749047D01*
X133426809Y-62750030D01*
X133574595Y-62751037D01*
X133710637Y-62752059D01*
X133833757Y-62753085D01*
X133942779Y-62754108D01*
X134036524Y-62755116D01*
X134113816Y-62756101D01*
X134173478Y-62757053D01*
X134214332Y-62757963D01*
X134235203Y-62758821D01*
X134237741Y-62759172D01*
X134251553Y-62762055D01*
X134283389Y-62765825D01*
X134329638Y-62770146D01*
X134386688Y-62774679D01*
X134449023Y-62778964D01*
X134519091Y-62783988D01*
X134587556Y-62789890D01*
X134649126Y-62796144D01*
X134698507Y-62802220D01*
X134725315Y-62806528D01*
X134778929Y-62815791D01*
X134838278Y-62824301D01*
X134877004Y-62828800D01*
X134919491Y-62834041D01*
X134956692Y-62840445D01*
X134979613Y-62846336D01*
X135003705Y-62853559D01*
X135040954Y-62862780D01*
X135082545Y-62871844D01*
X135138387Y-62884313D01*
X135202517Y-62900481D01*
X135271416Y-62919259D01*
X135341562Y-62939564D01*
X135409434Y-62960308D01*
X135471511Y-62980408D01*
X135524272Y-62998776D01*
X135564196Y-63014328D01*
X135587762Y-63025977D01*
X135591267Y-63028697D01*
X135611190Y-63038571D01*
X135617612Y-63039293D01*
X135635046Y-63043667D01*
X135665170Y-63054885D01*
X135701294Y-63070091D01*
X135736731Y-63086430D01*
X135764793Y-63101045D01*
X135770889Y-63104740D01*
X135793520Y-63116842D01*
X135814229Y-63125992D01*
X135841243Y-63138182D01*
X135857569Y-63147103D01*
X135876716Y-63158009D01*
X135906332Y-63173662D01*
X135920857Y-63181059D01*
X135985284Y-63217288D01*
X136060157Y-63265688D01*
X136140894Y-63322818D01*
X136222913Y-63385237D01*
X136301630Y-63449503D01*
X136372465Y-63512176D01*
X136410152Y-63548463D01*
X136478623Y-63621375D01*
X136548698Y-63703602D01*
X136616319Y-63789870D01*
X136677425Y-63874903D01*
X136727958Y-63953427D01*
X136745932Y-63984802D01*
X136773128Y-64036032D01*
X136800501Y-64090064D01*
X136826192Y-64142938D01*
X136848344Y-64190694D01*
X136865098Y-64229374D01*
X136874597Y-64255016D01*
X136876055Y-64262095D01*
X136880636Y-64278515D01*
X136891661Y-64303179D01*
X136891773Y-64303397D01*
X136907304Y-64340448D01*
X136925161Y-64393924D01*
X136944039Y-64458883D01*
X136962635Y-64530386D01*
X136979644Y-64603493D01*
X136993762Y-64673265D01*
X137001413Y-64718713D01*
X137009636Y-64772788D01*
X137018436Y-64829450D01*
X137026038Y-64877274D01*
X137026682Y-64881237D01*
X137030686Y-64916950D01*
X137034110Y-64968598D01*
X137036684Y-65030448D01*
X137038139Y-65096766D01*
X137038362Y-65129678D01*
X137038053Y-65200404D01*
X137036650Y-65254110D01*
X137033734Y-65295431D01*
X137028884Y-65329008D01*
X137021683Y-65359476D01*
X137015839Y-65378882D01*
X136971249Y-65490489D01*
X136913405Y-65586007D01*
X136840879Y-65667507D01*
X136783958Y-65714858D01*
X136734805Y-65749015D01*
X136688339Y-65775317D01*
X136636471Y-65797799D01*
X136573879Y-65819598D01*
X136515463Y-65833953D01*
X136448938Y-65843016D01*
X136380614Y-65846605D01*
X136316800Y-65844536D01*
X136263806Y-65836624D01*
X136240539Y-65829297D01*
X136210229Y-65818592D01*
X136185779Y-65813199D01*
X136182820Y-65813044D01*
X136160168Y-65807220D01*
X136125226Y-65791688D01*
X136083325Y-65769355D01*
X136039792Y-65743131D01*
X135999957Y-65715925D01*
X135987588Y-65706482D01*
X135934188Y-65658068D01*
X135882060Y-65600255D01*
X135839236Y-65542115D01*
X135832547Y-65531335D01*
X135802298Y-65476026D01*
X135780419Y-65423096D01*
X135765132Y-65366241D01*
X135754661Y-65299159D01*
X135748516Y-65233374D01*
X135741325Y-65149098D01*
X135732843Y-65067287D01*
X135723541Y-64991302D01*
X135713894Y-64924499D01*
X135704373Y-64870239D01*
X135695452Y-64831879D01*
X135689787Y-64816227D01*
X135677441Y-64785572D01*
X135668204Y-64753030D01*
X135649876Y-64700487D01*
X135617095Y-64639665D01*
X135572866Y-64575126D01*
X135520189Y-64511434D01*
X135485172Y-64474926D01*
X135427740Y-64420263D01*
X135380473Y-64378893D01*
X135344582Y-64351797D01*
X135321279Y-64339953D01*
X135317720Y-64339489D01*
X135302708Y-64333548D01*
X135282068Y-64320177D01*
X135257681Y-64305119D01*
X135222406Y-64286911D01*
X135196636Y-64275096D01*
X135154931Y-64257077D01*
X135113482Y-64239193D01*
X135093704Y-64230672D01*
X135029084Y-64206188D01*
X134949301Y-64181144D01*
X134860741Y-64157244D01*
X134769791Y-64136195D01*
X134682838Y-64119703D01*
X134671140Y-64117822D01*
X134619402Y-64109451D01*
X134568393Y-64100755D01*
X134527199Y-64093295D01*
X134518699Y-64091648D01*
X134490741Y-64087047D01*
X134454637Y-64082824D01*
X134409495Y-64078962D01*
X134354425Y-64075445D01*
X134288536Y-64072255D01*
X134210938Y-64069375D01*
X134120740Y-64066787D01*
X134017052Y-64064475D01*
X133898984Y-64062422D01*
X133765644Y-64060611D01*
X133616143Y-64059023D01*
X133449591Y-64057643D01*
X133265095Y-64056453D01*
X133061767Y-64055436D01*
X132838716Y-64054575D01*
X132595050Y-64053852D01*
X132547487Y-64053732D01*
X132313527Y-64053092D01*
X132100169Y-64052364D01*
X131906348Y-64051526D01*
X131730996Y-64050555D01*
X131573046Y-64049428D01*
X131431430Y-64048125D01*
X131305083Y-64046621D01*
X131192938Y-64044896D01*
X131093926Y-64042926D01*
X131006982Y-64040689D01*
X130931038Y-64038164D01*
X130865028Y-64035327D01*
X130807884Y-64032157D01*
X130758540Y-64028630D01*
X130715928Y-64024726D01*
X130678982Y-64020421D01*
X130646635Y-64015693D01*
X130635116Y-64013744D01*
X130598675Y-64007918D01*
X130548461Y-64000655D01*
X130492222Y-63993052D01*
X130456339Y-63988475D01*
X130405024Y-63981449D01*
X130359345Y-63974001D01*
X130325051Y-63967137D01*
X130310067Y-63962899D01*
X130285018Y-63955976D01*
X130247338Y-63948901D01*
X130212552Y-63944112D01*
X130173032Y-63938490D01*
X130140390Y-63931831D01*
X130123572Y-63926356D01*
X130103853Y-63919215D01*
X130070255Y-63909996D01*
X130031475Y-63901010D01*
X129959919Y-63884198D01*
X129879256Y-63862587D01*
X129797117Y-63838421D01*
X129721134Y-63813942D01*
X129659969Y-63791800D01*
X129623487Y-63779055D01*
X129582828Y-63767007D01*
X129576455Y-63765348D01*
X129546957Y-63755981D01*
X129527414Y-63746262D01*
X129524350Y-63743271D01*
X129509000Y-63733904D01*
X129500226Y-63732731D01*
X129480217Y-63728359D01*
X129450109Y-63717318D01*
X129435855Y-63711061D01*
X129395949Y-63692731D01*
X129351803Y-63672684D01*
X129337629Y-63666303D01*
X129295099Y-63646553D01*
X129242337Y-63621066D01*
X129184816Y-63592593D01*
X129128007Y-63563883D01*
X129077383Y-63537686D01*
X129038416Y-63516752D01*
X129026123Y-63509771D01*
X128991165Y-63489515D01*
X128957716Y-63470474D01*
X128950279Y-63466313D01*
X128902752Y-63437976D01*
X128842813Y-63399334D01*
X128775019Y-63353552D01*
X128703930Y-63303796D01*
X128634106Y-63253235D01*
X128570105Y-63205034D01*
X128539008Y-63180652D01*
X128422765Y-63082091D01*
X128303415Y-62970319D01*
X128185492Y-62850126D01*
X128073529Y-62726304D01*
X127972060Y-62603646D01*
X127893725Y-62498590D01*
X127869599Y-62466613D01*
X127848666Y-62443154D01*
X127834994Y-62432704D01*
X127833909Y-62432535D01*
X127821581Y-62435684D01*
X127805832Y-62446533D01*
X127784630Y-62467188D01*
X127755944Y-62499752D01*
X127717745Y-62546332D01*
X127687560Y-62584225D01*
X127588698Y-62701383D01*
X127474660Y-62823059D01*
X127350050Y-62944917D01*
X127219471Y-63062623D01*
X127087529Y-63171844D01*
X126967843Y-63261853D01*
X126931739Y-63287368D01*
X126900744Y-63308654D01*
X126869800Y-63328983D01*
X126833852Y-63351623D01*
X126787843Y-63379845D01*
X126747584Y-63404285D01*
X126694861Y-63436075D01*
X126652241Y-63461217D01*
X126614317Y-63482641D01*
X126575686Y-63503278D01*
X126530940Y-63526058D01*
X126474674Y-63553911D01*
X126441985Y-63569945D01*
X126386168Y-63597333D01*
X126335044Y-63622508D01*
X126292758Y-63643424D01*
X126263456Y-63658033D01*
X126254204Y-63662725D01*
X126229057Y-63673895D01*
X126211600Y-63678556D01*
X126211576Y-63678556D01*
X126194998Y-63682742D01*
X126167481Y-63693266D01*
X126155571Y-63698459D01*
X126089632Y-63726211D01*
X126009924Y-63755940D01*
X125913879Y-63788563D01*
X125813557Y-63820470D01*
X125765550Y-63834923D01*
X125715274Y-63849029D01*
X125657144Y-63864283D01*
X125585578Y-63882178D01*
X125553518Y-63890025D01*
X125506199Y-63901824D01*
X125457767Y-63914317D01*
X125428916Y-63922026D01*
X125384212Y-63932461D01*
X125334392Y-63941541D01*
X125315149Y-63944270D01*
X125268293Y-63951525D01*
X125219325Y-63961225D01*
X125201382Y-63965469D01*
X125162027Y-63973602D01*
X125112241Y-63981347D01*
X125065945Y-63986704D01*
X125012208Y-63992696D01*
X124950921Y-64001112D01*
X124898003Y-64009676D01*
X124865221Y-64015072D01*
X124829149Y-64019988D01*
X124788687Y-64024449D01*
X124742737Y-64028479D01*
X124690201Y-64032105D01*
X124629980Y-64035351D01*
X124560974Y-64038243D01*
X124482086Y-64040805D01*
X124392216Y-64043063D01*
X124290266Y-64045041D01*
X124175137Y-64046766D01*
X124045730Y-64048261D01*
X123900947Y-64049553D01*
X123739689Y-64050666D01*
X123560858Y-64051625D01*
X123363354Y-64052456D01*
X123146079Y-64053183D01*
X122974796Y-64053663D01*
X122728369Y-64054398D01*
X122502724Y-64055273D01*
X122296978Y-64056306D01*
X122110243Y-64057514D01*
X121941634Y-64058914D01*
X121790265Y-64060524D01*
X121655249Y-64062361D01*
X121535701Y-64064443D01*
X121430735Y-64066786D01*
X121339465Y-64069409D01*
X121261004Y-64072328D01*
X121194468Y-64075562D01*
X121138969Y-64079127D01*
X121093622Y-64083041D01*
X121057541Y-64087321D01*
X121030672Y-64091816D01*
X120993021Y-64098949D01*
X120943615Y-64107709D01*
X120892108Y-64116393D01*
X120883648Y-64117770D01*
X120822212Y-64128591D01*
X120759615Y-64141149D01*
X120700621Y-64154335D01*
X120649994Y-64167042D01*
X120612499Y-64178161D01*
X120596121Y-64184657D01*
X120570604Y-64194302D01*
X120538298Y-64202531D01*
X120537189Y-64202745D01*
X120502177Y-64212162D01*
X120463454Y-64226343D01*
X120455927Y-64229617D01*
X120420335Y-64245464D01*
X120377139Y-64264370D01*
X120352735Y-64274916D01*
X120317428Y-64291175D01*
X120288581Y-64306395D01*
X120276037Y-64314580D01*
X120258162Y-64326209D01*
X120250401Y-64328654D01*
X120234510Y-64335531D01*
X120206443Y-64354225D01*
X120169925Y-64381832D01*
X120128683Y-64415446D01*
X120086442Y-64452161D01*
X120056369Y-64479964D01*
X119979241Y-64568180D01*
X119916256Y-64671414D01*
X119868528Y-64787368D01*
X119837171Y-64913742D01*
X119832846Y-64940871D01*
X119827461Y-64982938D01*
X119821104Y-65040242D01*
X119814433Y-65106412D01*
X119808109Y-65175077D01*
X119805701Y-65203288D01*
X119800134Y-65268782D01*
X119795208Y-65317570D01*
X119789774Y-65354541D01*
X119782684Y-65384584D01*
X119772789Y-65412588D01*
X119758940Y-65443442D01*
X119740408Y-65481192D01*
X119677520Y-65585001D01*
X119600050Y-65672966D01*
X119508738Y-65744461D01*
X119404324Y-65798859D01*
X119337984Y-65822349D01*
X119250580Y-65840143D01*
X119154865Y-65845491D01*
X119059515Y-65838481D01*
X118973203Y-65819203D01*
X118971277Y-65818578D01*
X118867636Y-65777878D01*
X118780730Y-65728128D01*
X118706555Y-65666564D01*
X118641482Y-65590927D01*
X118607325Y-65541774D01*
X118581022Y-65495308D01*
X118558541Y-65443440D01*
X118536742Y-65380848D01*
X118526706Y-65347646D01*
X118519629Y-65316844D01*
X118515016Y-65283551D01*
X118512373Y-65242875D01*
X118511205Y-65189923D01*
X118511009Y-65126226D01*
X118511821Y-65060316D01*
X118513912Y-64995932D01*
X118517002Y-64938910D01*
X118520813Y-64895091D01*
X118522689Y-64881237D01*
X118530067Y-64834971D01*
X118538826Y-64778691D01*
X118547190Y-64723822D01*
X118547958Y-64718713D01*
X118557066Y-64666826D01*
X118569749Y-64606708D01*
X118584926Y-64542342D01*
X118601516Y-64477712D01*
X118618439Y-64416804D01*
X118634614Y-64363601D01*
X118648962Y-64322089D01*
X118660402Y-64296250D01*
X118663850Y-64291273D01*
X118672635Y-64271688D01*
X118673315Y-64265022D01*
X118678467Y-64245750D01*
X118692683Y-64211355D01*
X118714105Y-64165428D01*
X118740875Y-64111562D01*
X118771133Y-64053347D01*
X118803022Y-63994377D01*
X118834682Y-63938242D01*
X118864255Y-63888536D01*
X118884684Y-63856528D01*
X119000022Y-63701998D01*
X119133849Y-63555578D01*
X119283870Y-63419235D01*
X119447792Y-63294936D01*
X119623323Y-63184648D01*
X119740559Y-63122393D01*
X119815510Y-63086063D01*
X119872632Y-63060005D01*
X119911587Y-63044367D01*
X119931758Y-63039293D01*
X119953194Y-63032532D01*
X119958103Y-63028697D01*
X119975432Y-63018658D01*
X120010068Y-63004296D01*
X120058376Y-62986853D01*
X120116723Y-62967571D01*
X120181471Y-62947693D01*
X120248987Y-62928461D01*
X120260638Y-62925302D01*
X120305732Y-62912804D01*
X120351139Y-62899646D01*
X120374405Y-62892591D01*
X120413256Y-62882273D01*
X120460661Y-62872128D01*
X120490290Y-62866929D01*
X120529149Y-62859787D01*
X120561379Y-62851921D01*
X120576970Y-62846365D01*
X120597001Y-62840420D01*
X120631539Y-62834206D01*
X120673475Y-62828979D01*
X120677784Y-62828560D01*
X120729676Y-62822422D01*
X120784016Y-62814068D01*
X120824056Y-62806349D01*
X120857371Y-62800654D01*
X120906924Y-62794415D01*
X120967315Y-62788209D01*
X121033140Y-62782614D01*
X121072012Y-62779854D01*
X121133301Y-62775445D01*
X121187323Y-62770803D01*
X121230238Y-62766315D01*
X121258209Y-62762374D01*
X121267041Y-62760030D01*
X121279061Y-62759102D01*
X121311573Y-62758122D01*
X121363398Y-62757102D01*
X121433358Y-62756050D01*
X121520275Y-62754977D01*
X121622970Y-62753893D01*
X121740265Y-62752808D01*
X121870982Y-62751732D01*
X122013943Y-62750674D01*
X122167969Y-62749646D01*
X122331882Y-62748656D01*
X122504504Y-62747715D01*
X122684657Y-62746833D01*
X122871161Y-62746021D01*
X122953126Y-62745694D01*
X123199099Y-62744690D01*
X123423945Y-62743657D01*
X123628208Y-62742590D01*
X123812433Y-62741482D01*
X123977163Y-62740329D01*
X124122943Y-62739123D01*
X124250315Y-62737860D01*
X124359823Y-62736532D01*
X124452012Y-62735135D01*
X124527425Y-62733662D01*
X124586606Y-62732107D01*
X124630099Y-62730464D01*
X124658447Y-62728728D01*
X124672067Y-62726928D01*
X124700129Y-62721020D01*
X124743907Y-62713867D01*
X124797550Y-62706347D01*
X124855209Y-62699336D01*
X124858791Y-62698937D01*
X124912465Y-62692592D01*
X124958558Y-62686389D01*
X124992671Y-62680973D01*
X125010405Y-62676991D01*
X125011509Y-62676483D01*
X125026827Y-62671544D01*
X125057512Y-62664570D01*
X125097526Y-62656906D01*
X125106494Y-62655344D01*
X125179767Y-62641554D01*
X125251128Y-62625863D01*
X125314821Y-62609669D01*
X125365090Y-62594372D01*
X125380159Y-62588815D01*
X125417445Y-62575800D01*
X125457717Y-62564248D01*
X125461421Y-62563342D01*
X125502019Y-62552328D01*
X125546251Y-62538296D01*
X125588313Y-62523338D01*
X125622399Y-62509543D01*
X125642708Y-62499001D01*
X125644771Y-62497306D01*
X125664693Y-62487432D01*
X125671115Y-62486710D01*
X125687793Y-62482944D01*
X125718110Y-62471238D01*
X125763432Y-62450984D01*
X125825127Y-62421571D01*
X125900237Y-62384547D01*
X125991582Y-62337266D01*
X126072421Y-62291072D01*
X126149037Y-62241912D01*
X126227717Y-62185734D01*
X126314745Y-62118483D01*
X126322800Y-62112069D01*
X126464636Y-61988836D01*
X126596973Y-61853815D01*
X126716660Y-61710721D01*
X126820544Y-61563268D01*
X126891678Y-61441801D01*
X126911739Y-61404197D01*
X126928985Y-61372244D01*
X126939896Y-61352456D01*
X126940359Y-61351649D01*
X126952938Y-61326659D01*
X126962033Y-61305699D01*
X126974147Y-61278695D01*
X126982941Y-61262359D01*
X127000615Y-61228465D01*
X127022293Y-61178624D01*
X127046191Y-61117773D01*
X127070526Y-61050848D01*
X127093513Y-60982783D01*
X127113368Y-60918515D01*
X127128308Y-60862980D01*
X127130185Y-60854961D01*
X127140039Y-60815132D01*
X127149966Y-60780414D01*
X127156059Y-60762864D01*
X127162774Y-60739435D01*
X127170286Y-60702204D01*
X127177049Y-60658912D01*
X127177487Y-60655602D01*
X127190464Y-60559089D01*
X127202006Y-60480950D01*
X127212868Y-60418000D01*
X127223805Y-60367053D01*
X127235572Y-60324924D01*
X127248924Y-60288429D01*
X127264614Y-60254381D01*
X127278879Y-60227621D01*
X127293730Y-60200368D01*
X127304356Y-60180364D01*
X127322678Y-60153966D01*
X127352867Y-60119086D01*
X127389903Y-60080821D01*
X127428765Y-60044270D01*
X127464432Y-60014528D01*
X127475869Y-60006232D01*
X127509029Y-59985560D01*
X127548735Y-59963727D01*
X127589217Y-59943558D01*
X127624702Y-59927875D01*
X127649419Y-59919504D01*
X127654511Y-59918824D01*
X127671891Y-59915638D01*
X127701462Y-59907520D01*
X127719915Y-59901740D01*
X127775601Y-59890874D01*
X127844536Y-59888487D01*
X127920359Y-59893833D01*
G37*
X127920359Y-59893833D02*
X127996712Y-59906166D01*
X128067234Y-59924740D01*
X128125566Y-59948808D01*
X128126821Y-59949478D01*
X128196424Y-59990579D01*
X128257226Y-60033654D01*
X128303519Y-60074631D01*
X128306437Y-60077709D01*
X128367370Y-60149425D01*
X128415298Y-60221574D01*
X128451959Y-60298446D01*
X128479093Y-60384329D01*
X128498435Y-60483513D01*
X128509889Y-60579757D01*
X128527675Y-60712104D01*
X128555903Y-60850852D01*
X128592165Y-60984952D01*
X128610255Y-61040243D01*
X128621464Y-61074527D01*
X128632337Y-61110669D01*
X128642160Y-61141015D01*
X128657040Y-61182408D01*
X128674162Y-61227490D01*
X128690711Y-61268900D01*
X128703873Y-61299280D01*
X128706633Y-61304933D01*
X128714763Y-61321121D01*
X128730175Y-61352088D01*
X128750558Y-61393182D01*
X128770642Y-61433767D01*
X128875338Y-61621517D01*
X128997568Y-61797482D01*
X129136059Y-61960304D01*
X129289537Y-62108625D01*
X129456729Y-62241085D01*
X129634626Y-62355332D01*
X129829196Y-62456970D01*
X130024575Y-62539267D01*
X130174630Y-62588953D01*
X130224520Y-62603605D01*
X130272765Y-62618006D01*
X130311212Y-62629713D01*
X130320902Y-62632741D01*
X130363928Y-62644376D01*
X130409156Y-62653801D01*
X130418416Y-62655282D01*
X130459982Y-62662785D01*
X130506156Y-62673116D01*
X130521348Y-62677019D01*
X130557209Y-62684925D01*
X130606046Y-62693389D01*
X130659258Y-62700973D01*
X130678455Y-62703283D01*
X130730148Y-62709836D01*
X130779766Y-62717323D01*
X130819171Y-62724476D01*
X130830145Y-62726933D01*
X130846063Y-62728766D01*
X130878814Y-62730512D01*
X130928789Y-62732175D01*
X130996380Y-62733759D01*
X131081978Y-62735270D01*
X131185975Y-62736710D01*
X131308763Y-62738084D01*
X131450733Y-62739396D01*
X131612277Y-62740651D01*
X131793786Y-62741853D01*
X131995652Y-62743005D01*
X132218268Y-62744113D01*
X132462024Y-62745181D01*
X132552904Y-62745548D01*
X132741758Y-62746339D01*
X132924752Y-62747192D01*
X133100710Y-62748098D01*
X133268455Y-62749047D01*
X133426809Y-62750030D01*
X133574595Y-62751037D01*
X133710637Y-62752059D01*
X133833757Y-62753085D01*
X133942779Y-62754108D01*
X134036524Y-62755116D01*
X134113816Y-62756101D01*
X134173478Y-62757053D01*
X134214332Y-62757963D01*
X134235203Y-62758821D01*
X134237741Y-62759172D01*
X134251553Y-62762055D01*
X134283389Y-62765825D01*
X134329638Y-62770146D01*
X134386688Y-62774679D01*
X134449023Y-62778964D01*
X134519091Y-62783988D01*
X134587556Y-62789890D01*
X134649126Y-62796144D01*
X134698507Y-62802220D01*
X134725315Y-62806528D01*
X134778929Y-62815791D01*
X134838278Y-62824301D01*
X134877004Y-62828800D01*
X134919491Y-62834041D01*
X134956692Y-62840445D01*
X134979613Y-62846336D01*
X135003705Y-62853559D01*
X135040954Y-62862780D01*
X135082545Y-62871844D01*
X135138387Y-62884313D01*
X135202517Y-62900481D01*
X135271416Y-62919259D01*
X135341562Y-62939564D01*
X135409434Y-62960308D01*
X135471511Y-62980408D01*
X135524272Y-62998776D01*
X135564196Y-63014328D01*
X135587762Y-63025977D01*
X135591267Y-63028697D01*
X135611190Y-63038571D01*
X135617612Y-63039293D01*
X135635046Y-63043667D01*
X135665170Y-63054885D01*
X135701294Y-63070091D01*
X135736731Y-63086430D01*
X135764793Y-63101045D01*
X135770889Y-63104740D01*
X135793520Y-63116842D01*
X135814229Y-63125992D01*
X135841243Y-63138182D01*
X135857569Y-63147103D01*
X135876716Y-63158009D01*
X135906332Y-63173662D01*
X135920857Y-63181059D01*
X135985284Y-63217288D01*
X136060157Y-63265688D01*
X136140894Y-63322818D01*
X136222913Y-63385237D01*
X136301630Y-63449503D01*
X136372465Y-63512176D01*
X136410152Y-63548463D01*
X136478623Y-63621375D01*
X136548698Y-63703602D01*
X136616319Y-63789870D01*
X136677425Y-63874903D01*
X136727958Y-63953427D01*
X136745932Y-63984802D01*
X136773128Y-64036032D01*
X136800501Y-64090064D01*
X136826192Y-64142938D01*
X136848344Y-64190694D01*
X136865098Y-64229374D01*
X136874597Y-64255016D01*
X136876055Y-64262095D01*
X136880636Y-64278515D01*
X136891661Y-64303179D01*
X136891773Y-64303397D01*
X136907304Y-64340448D01*
X136925161Y-64393924D01*
X136944039Y-64458883D01*
X136962635Y-64530386D01*
X136979644Y-64603493D01*
X136993762Y-64673265D01*
X137001413Y-64718713D01*
X137009636Y-64772788D01*
X137018436Y-64829450D01*
X137026038Y-64877274D01*
X137026682Y-64881237D01*
X137030686Y-64916950D01*
X137034110Y-64968598D01*
X137036684Y-65030448D01*
X137038139Y-65096766D01*
X137038362Y-65129678D01*
X137038053Y-65200404D01*
X137036650Y-65254110D01*
X137033734Y-65295431D01*
X137028884Y-65329008D01*
X137021683Y-65359476D01*
X137015839Y-65378882D01*
X136971249Y-65490489D01*
X136913405Y-65586007D01*
X136840879Y-65667507D01*
X136783958Y-65714858D01*
X136734805Y-65749015D01*
X136688339Y-65775317D01*
X136636471Y-65797799D01*
X136573879Y-65819598D01*
X136515463Y-65833953D01*
X136448938Y-65843016D01*
X136380614Y-65846605D01*
X136316800Y-65844536D01*
X136263806Y-65836624D01*
X136240539Y-65829297D01*
X136210229Y-65818592D01*
X136185779Y-65813199D01*
X136182820Y-65813044D01*
X136160168Y-65807220D01*
X136125226Y-65791688D01*
X136083325Y-65769355D01*
X136039792Y-65743131D01*
X135999957Y-65715925D01*
X135987588Y-65706482D01*
X135934188Y-65658068D01*
X135882060Y-65600255D01*
X135839236Y-65542115D01*
X135832547Y-65531335D01*
X135802298Y-65476026D01*
X135780419Y-65423096D01*
X135765132Y-65366241D01*
X135754661Y-65299159D01*
X135748516Y-65233374D01*
X135741325Y-65149098D01*
X135732843Y-65067287D01*
X135723541Y-64991302D01*
X135713894Y-64924499D01*
X135704373Y-64870239D01*
X135695452Y-64831879D01*
X135689787Y-64816227D01*
X135677441Y-64785572D01*
X135668204Y-64753030D01*
X135649876Y-64700487D01*
X135617095Y-64639665D01*
X135572866Y-64575126D01*
X135520189Y-64511434D01*
X135485172Y-64474926D01*
X135427740Y-64420263D01*
X135380473Y-64378893D01*
X135344582Y-64351797D01*
X135321279Y-64339953D01*
X135317720Y-64339489D01*
X135302708Y-64333548D01*
X135282068Y-64320177D01*
X135257681Y-64305119D01*
X135222406Y-64286911D01*
X135196636Y-64275096D01*
X135154931Y-64257077D01*
X135113482Y-64239193D01*
X135093704Y-64230672D01*
X135029084Y-64206188D01*
X134949301Y-64181144D01*
X134860741Y-64157244D01*
X134769791Y-64136195D01*
X134682838Y-64119703D01*
X134671140Y-64117822D01*
X134619402Y-64109451D01*
X134568393Y-64100755D01*
X134527199Y-64093295D01*
X134518699Y-64091648D01*
X134490741Y-64087047D01*
X134454637Y-64082824D01*
X134409495Y-64078962D01*
X134354425Y-64075445D01*
X134288536Y-64072255D01*
X134210938Y-64069375D01*
X134120740Y-64066787D01*
X134017052Y-64064475D01*
X133898984Y-64062422D01*
X133765644Y-64060611D01*
X133616143Y-64059023D01*
X133449591Y-64057643D01*
X133265095Y-64056453D01*
X133061767Y-64055436D01*
X132838716Y-64054575D01*
X132595050Y-64053852D01*
X132547487Y-64053732D01*
X132313527Y-64053092D01*
X132100169Y-64052364D01*
X131906348Y-64051526D01*
X131730996Y-64050555D01*
X131573046Y-64049428D01*
X131431430Y-64048125D01*
X131305083Y-64046621D01*
X131192938Y-64044896D01*
X131093926Y-64042926D01*
X131006982Y-64040689D01*
X130931038Y-64038164D01*
X130865028Y-64035327D01*
X130807884Y-64032157D01*
X130758540Y-64028630D01*
X130715928Y-64024726D01*
X130678982Y-64020421D01*
X130646635Y-64015693D01*
X130635116Y-64013744D01*
X130598675Y-64007918D01*
X130548461Y-64000655D01*
X130492222Y-63993052D01*
X130456339Y-63988475D01*
X130405024Y-63981449D01*
X130359345Y-63974001D01*
X130325051Y-63967137D01*
X130310067Y-63962899D01*
X130285018Y-63955976D01*
X130247338Y-63948901D01*
X130212552Y-63944112D01*
X130173032Y-63938490D01*
X130140390Y-63931831D01*
X130123572Y-63926356D01*
X130103853Y-63919215D01*
X130070255Y-63909996D01*
X130031475Y-63901010D01*
X129959919Y-63884198D01*
X129879256Y-63862587D01*
X129797117Y-63838421D01*
X129721134Y-63813942D01*
X129659969Y-63791800D01*
X129623487Y-63779055D01*
X129582828Y-63767007D01*
X129576455Y-63765348D01*
X129546957Y-63755981D01*
X129527414Y-63746262D01*
X129524350Y-63743271D01*
X129509000Y-63733904D01*
X129500226Y-63732731D01*
X129480217Y-63728359D01*
X129450109Y-63717318D01*
X129435855Y-63711061D01*
X129395949Y-63692731D01*
X129351803Y-63672684D01*
X129337629Y-63666303D01*
X129295099Y-63646553D01*
X129242337Y-63621066D01*
X129184816Y-63592593D01*
X129128007Y-63563883D01*
X129077383Y-63537686D01*
X129038416Y-63516752D01*
X129026123Y-63509771D01*
X128991165Y-63489515D01*
X128957716Y-63470474D01*
X128950279Y-63466313D01*
X128902752Y-63437976D01*
X128842813Y-63399334D01*
X128775019Y-63353552D01*
X128703930Y-63303796D01*
X128634106Y-63253235D01*
X128570105Y-63205034D01*
X128539008Y-63180652D01*
X128422765Y-63082091D01*
X128303415Y-62970319D01*
X128185492Y-62850126D01*
X128073529Y-62726304D01*
X127972060Y-62603646D01*
X127893725Y-62498590D01*
X127869599Y-62466613D01*
X127848666Y-62443154D01*
X127834994Y-62432704D01*
X127833909Y-62432535D01*
X127821581Y-62435684D01*
X127805832Y-62446533D01*
X127784630Y-62467188D01*
X127755944Y-62499752D01*
X127717745Y-62546332D01*
X127687560Y-62584225D01*
X127588698Y-62701383D01*
X127474660Y-62823059D01*
X127350050Y-62944917D01*
X127219471Y-63062623D01*
X127087529Y-63171844D01*
X126967843Y-63261853D01*
X126931739Y-63287368D01*
X126900744Y-63308654D01*
X126869800Y-63328983D01*
X126833852Y-63351623D01*
X126787843Y-63379845D01*
X126747584Y-63404285D01*
X126694861Y-63436075D01*
X126652241Y-63461217D01*
X126614317Y-63482641D01*
X126575686Y-63503278D01*
X126530940Y-63526058D01*
X126474674Y-63553911D01*
X126441985Y-63569945D01*
X126386168Y-63597333D01*
X126335044Y-63622508D01*
X126292758Y-63643424D01*
X126263456Y-63658033D01*
X126254204Y-63662725D01*
X126229057Y-63673895D01*
X126211600Y-63678556D01*
X126211576Y-63678556D01*
X126194998Y-63682742D01*
X126167481Y-63693266D01*
X126155571Y-63698459D01*
X126089632Y-63726211D01*
X126009924Y-63755940D01*
X125913879Y-63788563D01*
X125813557Y-63820470D01*
X125765550Y-63834923D01*
X125715274Y-63849029D01*
X125657144Y-63864283D01*
X125585578Y-63882178D01*
X125553518Y-63890025D01*
X125506199Y-63901824D01*
X125457767Y-63914317D01*
X125428916Y-63922026D01*
X125384212Y-63932461D01*
X125334392Y-63941541D01*
X125315149Y-63944270D01*
X125268293Y-63951525D01*
X125219325Y-63961225D01*
X125201382Y-63965469D01*
X125162027Y-63973602D01*
X125112241Y-63981347D01*
X125065945Y-63986704D01*
X125012208Y-63992696D01*
X124950921Y-64001112D01*
X124898003Y-64009676D01*
X124865221Y-64015072D01*
X124829149Y-64019988D01*
X124788687Y-64024449D01*
X124742737Y-64028479D01*
X124690201Y-64032105D01*
X124629980Y-64035351D01*
X124560974Y-64038243D01*
X124482086Y-64040805D01*
X124392216Y-64043063D01*
X124290266Y-64045041D01*
X124175137Y-64046766D01*
X124045730Y-64048261D01*
X123900947Y-64049553D01*
X123739689Y-64050666D01*
X123560858Y-64051625D01*
X123363354Y-64052456D01*
X123146079Y-64053183D01*
X122974796Y-64053663D01*
X122728369Y-64054398D01*
X122502724Y-64055273D01*
X122296978Y-64056306D01*
X122110243Y-64057514D01*
X121941634Y-64058914D01*
X121790265Y-64060524D01*
X121655249Y-64062361D01*
X121535701Y-64064443D01*
X121430735Y-64066786D01*
X121339465Y-64069409D01*
X121261004Y-64072328D01*
X121194468Y-64075562D01*
X121138969Y-64079127D01*
X121093622Y-64083041D01*
X121057541Y-64087321D01*
X121030672Y-64091816D01*
X120993021Y-64098949D01*
X120943615Y-64107709D01*
X120892108Y-64116393D01*
X120883648Y-64117770D01*
X120822212Y-64128591D01*
X120759615Y-64141149D01*
X120700621Y-64154335D01*
X120649994Y-64167042D01*
X120612499Y-64178161D01*
X120596121Y-64184657D01*
X120570604Y-64194302D01*
X120538298Y-64202531D01*
X120537189Y-64202745D01*
X120502177Y-64212162D01*
X120463454Y-64226343D01*
X120455927Y-64229617D01*
X120420335Y-64245464D01*
X120377139Y-64264370D01*
X120352735Y-64274916D01*
X120317428Y-64291175D01*
X120288581Y-64306395D01*
X120276037Y-64314580D01*
X120258162Y-64326209D01*
X120250401Y-64328654D01*
X120234510Y-64335531D01*
X120206443Y-64354225D01*
X120169925Y-64381832D01*
X120128683Y-64415446D01*
X120086442Y-64452161D01*
X120056369Y-64479964D01*
X119979241Y-64568180D01*
X119916256Y-64671414D01*
X119868528Y-64787368D01*
X119837171Y-64913742D01*
X119832846Y-64940871D01*
X119827461Y-64982938D01*
X119821104Y-65040242D01*
X119814433Y-65106412D01*
X119808109Y-65175077D01*
X119805701Y-65203288D01*
X119800134Y-65268782D01*
X119795208Y-65317570D01*
X119789774Y-65354541D01*
X119782684Y-65384584D01*
X119772789Y-65412588D01*
X119758940Y-65443442D01*
X119740408Y-65481192D01*
X119677520Y-65585001D01*
X119600050Y-65672966D01*
X119508738Y-65744461D01*
X119404324Y-65798859D01*
X119337984Y-65822349D01*
X119250580Y-65840143D01*
X119154865Y-65845491D01*
X119059515Y-65838481D01*
X118973203Y-65819203D01*
X118971277Y-65818578D01*
X118867636Y-65777878D01*
X118780730Y-65728128D01*
X118706555Y-65666564D01*
X118641482Y-65590927D01*
X118607325Y-65541774D01*
X118581022Y-65495308D01*
X118558541Y-65443440D01*
X118536742Y-65380848D01*
X118526706Y-65347646D01*
X118519629Y-65316844D01*
X118515016Y-65283551D01*
X118512373Y-65242875D01*
X118511205Y-65189923D01*
X118511009Y-65126226D01*
X118511821Y-65060316D01*
X118513912Y-64995932D01*
X118517002Y-64938910D01*
X118520813Y-64895091D01*
X118522689Y-64881237D01*
X118530067Y-64834971D01*
X118538826Y-64778691D01*
X118547190Y-64723822D01*
X118547958Y-64718713D01*
X118557066Y-64666826D01*
X118569749Y-64606708D01*
X118584926Y-64542342D01*
X118601516Y-64477712D01*
X118618439Y-64416804D01*
X118634614Y-64363601D01*
X118648962Y-64322089D01*
X118660402Y-64296250D01*
X118663850Y-64291273D01*
X118672635Y-64271688D01*
X118673315Y-64265022D01*
X118678467Y-64245750D01*
X118692683Y-64211355D01*
X118714105Y-64165428D01*
X118740875Y-64111562D01*
X118771133Y-64053347D01*
X118803022Y-63994377D01*
X118834682Y-63938242D01*
X118864255Y-63888536D01*
X118884684Y-63856528D01*
X119000022Y-63701998D01*
X119133849Y-63555578D01*
X119283870Y-63419235D01*
X119447792Y-63294936D01*
X119623323Y-63184648D01*
X119740559Y-63122393D01*
X119815510Y-63086063D01*
X119872632Y-63060005D01*
X119911587Y-63044367D01*
X119931758Y-63039293D01*
X119953194Y-63032532D01*
X119958103Y-63028697D01*
X119975432Y-63018658D01*
X120010068Y-63004296D01*
X120058376Y-62986853D01*
X120116723Y-62967571D01*
X120181471Y-62947693D01*
X120248987Y-62928461D01*
X120260638Y-62925302D01*
X120305732Y-62912804D01*
X120351139Y-62899646D01*
X120374405Y-62892591D01*
X120413256Y-62882273D01*
X120460661Y-62872128D01*
X120490290Y-62866929D01*
X120529149Y-62859787D01*
X120561379Y-62851921D01*
X120576970Y-62846365D01*
X120597001Y-62840420D01*
X120631539Y-62834206D01*
X120673475Y-62828979D01*
X120677784Y-62828560D01*
X120729676Y-62822422D01*
X120784016Y-62814068D01*
X120824056Y-62806349D01*
X120857371Y-62800654D01*
X120906924Y-62794415D01*
X120967315Y-62788209D01*
X121033140Y-62782614D01*
X121072012Y-62779854D01*
X121133301Y-62775445D01*
X121187323Y-62770803D01*
X121230238Y-62766315D01*
X121258209Y-62762374D01*
X121267041Y-62760030D01*
X121279061Y-62759102D01*
X121311573Y-62758122D01*
X121363398Y-62757102D01*
X121433358Y-62756050D01*
X121520275Y-62754977D01*
X121622970Y-62753893D01*
X121740265Y-62752808D01*
X121870982Y-62751732D01*
X122013943Y-62750674D01*
X122167969Y-62749646D01*
X122331882Y-62748656D01*
X122504504Y-62747715D01*
X122684657Y-62746833D01*
X122871161Y-62746021D01*
X122953126Y-62745694D01*
X123199099Y-62744690D01*
X123423945Y-62743657D01*
X123628208Y-62742590D01*
X123812433Y-62741482D01*
X123977163Y-62740329D01*
X124122943Y-62739123D01*
X124250315Y-62737860D01*
X124359823Y-62736532D01*
X124452012Y-62735135D01*
X124527425Y-62733662D01*
X124586606Y-62732107D01*
X124630099Y-62730464D01*
X124658447Y-62728728D01*
X124672067Y-62726928D01*
X124700129Y-62721020D01*
X124743907Y-62713867D01*
X124797550Y-62706347D01*
X124855209Y-62699336D01*
X124858791Y-62698937D01*
X124912465Y-62692592D01*
X124958558Y-62686389D01*
X124992671Y-62680973D01*
X125010405Y-62676991D01*
X125011509Y-62676483D01*
X125026827Y-62671544D01*
X125057512Y-62664570D01*
X125097526Y-62656906D01*
X125106494Y-62655344D01*
X125179767Y-62641554D01*
X125251128Y-62625863D01*
X125314821Y-62609669D01*
X125365090Y-62594372D01*
X125380159Y-62588815D01*
X125417445Y-62575800D01*
X125457717Y-62564248D01*
X125461421Y-62563342D01*
X125502019Y-62552328D01*
X125546251Y-62538296D01*
X125588313Y-62523338D01*
X125622399Y-62509543D01*
X125642708Y-62499001D01*
X125644771Y-62497306D01*
X125664693Y-62487432D01*
X125671115Y-62486710D01*
X125687793Y-62482944D01*
X125718110Y-62471238D01*
X125763432Y-62450984D01*
X125825127Y-62421571D01*
X125900237Y-62384547D01*
X125991582Y-62337266D01*
X126072421Y-62291072D01*
X126149037Y-62241912D01*
X126227717Y-62185734D01*
X126314745Y-62118483D01*
X126322800Y-62112069D01*
X126464636Y-61988836D01*
X126596973Y-61853815D01*
X126716660Y-61710721D01*
X126820544Y-61563268D01*
X126891678Y-61441801D01*
X126911739Y-61404197D01*
X126928985Y-61372244D01*
X126939896Y-61352456D01*
X126940359Y-61351649D01*
X126952938Y-61326659D01*
X126962033Y-61305699D01*
X126974147Y-61278695D01*
X126982941Y-61262359D01*
X127000615Y-61228465D01*
X127022293Y-61178624D01*
X127046191Y-61117773D01*
X127070526Y-61050848D01*
X127093513Y-60982783D01*
X127113368Y-60918515D01*
X127128308Y-60862980D01*
X127130185Y-60854961D01*
X127140039Y-60815132D01*
X127149966Y-60780414D01*
X127156059Y-60762864D01*
X127162774Y-60739435D01*
X127170286Y-60702204D01*
X127177049Y-60658912D01*
X127177487Y-60655602D01*
X127190464Y-60559089D01*
X127202006Y-60480950D01*
X127212868Y-60418000D01*
X127223805Y-60367053D01*
X127235572Y-60324924D01*
X127248924Y-60288429D01*
X127264614Y-60254381D01*
X127278879Y-60227621D01*
X127293730Y-60200368D01*
X127304356Y-60180364D01*
X127322678Y-60153966D01*
X127352867Y-60119086D01*
X127389903Y-60080821D01*
X127428765Y-60044270D01*
X127464432Y-60014528D01*
X127475869Y-60006232D01*
X127509029Y-59985560D01*
X127548735Y-59963727D01*
X127589217Y-59943558D01*
X127624702Y-59927875D01*
X127649419Y-59919504D01*
X127654511Y-59918824D01*
X127671891Y-59915638D01*
X127701462Y-59907520D01*
X127719915Y-59901740D01*
X127775601Y-59890874D01*
X127844536Y-59888487D01*
X127920359Y-59893833D01*
D10*
X275200000Y-75600000D02*
X275200000Y-76800000D01*
X263200000Y-75600000D02*
X263200000Y-76800000D01*
X263200000Y-85600000D02*
X263200000Y-84400000D01*
X275200000Y-85600000D02*
X275200000Y-84400000D01*
X275200000Y-79400000D02*
X275200000Y-81800000D01*
X264200000Y-74600000D02*
X274200000Y-74600000D01*
X263200000Y-81800000D02*
X263200000Y-79400000D01*
X274200000Y-86600000D02*
X264200000Y-86600000D01*
X274200000Y-74600000D02*
G75*
G02*
X275200000Y-75600000I0J-1000000D01*
G01*
X263200000Y-75600000D02*
G75*
G02*
X264200000Y-74600000I1000000J0D01*
G01*
X264200000Y-86600000D02*
G75*
G02*
X263200000Y-85600000I0J1000000D01*
G01*
X275200000Y-85600000D02*
G75*
G02*
X274200000Y-86600000I-1000000J0D01*
G01*
X257200000Y-75600000D02*
X257200000Y-76800000D01*
X245200000Y-75600000D02*
X245200000Y-76800000D01*
X245200000Y-85600000D02*
X245200000Y-84400000D01*
X257200000Y-85600000D02*
X257200000Y-84400000D01*
X257200000Y-79400000D02*
X257200000Y-81800000D01*
X246200000Y-74600000D02*
X256200000Y-74600000D01*
X245200000Y-81800000D02*
X245200000Y-79400000D01*
X256200000Y-86600000D02*
X246200000Y-86600000D01*
X256200000Y-74600000D02*
G75*
G02*
X257200000Y-75600000I0J-1000000D01*
G01*
X245200000Y-75600000D02*
G75*
G02*
X246200000Y-74600000I1000000J0D01*
G01*
X246200000Y-86600000D02*
G75*
G02*
X245200000Y-85600000I0J1000000D01*
G01*
X257200000Y-85600000D02*
G75*
G02*
X256200000Y-86600000I-1000000J0D01*
G01*
X239200000Y-75600000D02*
X239200000Y-76800000D01*
X227200000Y-75600000D02*
X227200000Y-76800000D01*
X227200000Y-85600000D02*
X227200000Y-84400000D01*
X239200000Y-85600000D02*
X239200000Y-84400000D01*
X239200000Y-79400000D02*
X239200000Y-81800000D01*
X228200000Y-74600000D02*
X238200000Y-74600000D01*
X227200000Y-81800000D02*
X227200000Y-79400000D01*
X238200000Y-86600000D02*
X228200000Y-86600000D01*
X238200000Y-74600000D02*
G75*
G02*
X239200000Y-75600000I0J-1000000D01*
G01*
X227200000Y-75600000D02*
G75*
G02*
X228200000Y-74600000I1000000J0D01*
G01*
X228200000Y-86600000D02*
G75*
G02*
X227200000Y-85600000I0J1000000D01*
G01*
X239200000Y-85600000D02*
G75*
G02*
X238200000Y-86600000I-1000000J0D01*
G01*
X203200000Y-75600000D02*
X203200000Y-76800000D01*
X191200000Y-75600000D02*
X191200000Y-76800000D01*
X191200000Y-85600000D02*
X191200000Y-84400000D01*
X203200000Y-85600000D02*
X203200000Y-84400000D01*
X203200000Y-79400000D02*
X203200000Y-81800000D01*
X192200000Y-74600000D02*
X202200000Y-74600000D01*
X191200000Y-81800000D02*
X191200000Y-79400000D01*
X202200000Y-86600000D02*
X192200000Y-86600000D01*
X202200000Y-74600000D02*
G75*
G02*
X203200000Y-75600000I0J-1000000D01*
G01*
X191200000Y-75600000D02*
G75*
G02*
X192200000Y-74600000I1000000J0D01*
G01*
X192200000Y-86600000D02*
G75*
G02*
X191200000Y-85600000I0J1000000D01*
G01*
X203200000Y-85600000D02*
G75*
G02*
X202200000Y-86600000I-1000000J0D01*
G01*
X185200000Y-75600000D02*
X185200000Y-76800000D01*
X173200000Y-75600000D02*
X173200000Y-76800000D01*
X173200000Y-85600000D02*
X173200000Y-84400000D01*
X185200000Y-85600000D02*
X185200000Y-84400000D01*
X185200000Y-79400000D02*
X185200000Y-81800000D01*
X174200000Y-74600000D02*
X184200000Y-74600000D01*
X173200000Y-81800000D02*
X173200000Y-79400000D01*
X184200000Y-86600000D02*
X174200000Y-86600000D01*
X184200000Y-74600000D02*
G75*
G02*
X185200000Y-75600000I0J-1000000D01*
G01*
X173200000Y-75600000D02*
G75*
G02*
X174200000Y-74600000I1000000J0D01*
G01*
X174200000Y-86600000D02*
G75*
G02*
X173200000Y-85600000I0J1000000D01*
G01*
X185200000Y-85600000D02*
G75*
G02*
X184200000Y-86600000I-1000000J0D01*
G01*
X149200000Y-75600000D02*
X149200000Y-76800000D01*
X137200000Y-75600000D02*
X137200000Y-76800000D01*
X137200000Y-85600000D02*
X137200000Y-84400000D01*
X149200000Y-85600000D02*
X149200000Y-84400000D01*
X149200000Y-79400000D02*
X149200000Y-81800000D01*
X138200000Y-74600000D02*
X148200000Y-74600000D01*
X137200000Y-81800000D02*
X137200000Y-79400000D01*
X148200000Y-86600000D02*
X138200000Y-86600000D01*
X148200000Y-74600000D02*
G75*
G02*
X149200000Y-75600000I0J-1000000D01*
G01*
X137200000Y-75600000D02*
G75*
G02*
X138200000Y-74600000I1000000J0D01*
G01*
X138200000Y-86600000D02*
G75*
G02*
X137200000Y-85600000I0J1000000D01*
G01*
X149200000Y-85600000D02*
G75*
G02*
X148200000Y-86600000I-1000000J0D01*
G01*
X131200000Y-75600000D02*
X131200000Y-76800000D01*
X119200000Y-75600000D02*
X119200000Y-76800000D01*
X119200000Y-85600000D02*
X119200000Y-84400000D01*
X131200000Y-85600000D02*
X131200000Y-84400000D01*
X131200000Y-79400000D02*
X131200000Y-81800000D01*
X120200000Y-74600000D02*
X130200000Y-74600000D01*
X119200000Y-81800000D02*
X119200000Y-79400000D01*
X130200000Y-86600000D02*
X120200000Y-86600000D01*
X130200000Y-74600000D02*
G75*
G02*
X131200000Y-75600000I0J-1000000D01*
G01*
X119200000Y-75600000D02*
G75*
G02*
X120200000Y-74600000I1000000J0D01*
G01*
X120200000Y-86600000D02*
G75*
G02*
X119200000Y-85600000I0J1000000D01*
G01*
X131200000Y-85600000D02*
G75*
G02*
X130200000Y-86600000I-1000000J0D01*
G01*
X113200000Y-75600000D02*
X113200000Y-76800000D01*
X101200000Y-75600000D02*
X101200000Y-76800000D01*
X101200000Y-85600000D02*
X101200000Y-84400000D01*
X113200000Y-85600000D02*
X113200000Y-84400000D01*
X113200000Y-79400000D02*
X113200000Y-81800000D01*
X102200000Y-74600000D02*
X112200000Y-74600000D01*
X101200000Y-81800000D02*
X101200000Y-79400000D01*
X112200000Y-86600000D02*
X102200000Y-86600000D01*
X112200000Y-74600000D02*
G75*
G02*
X113200000Y-75600000I0J-1000000D01*
G01*
X101200000Y-75600000D02*
G75*
G02*
X102200000Y-74600000I1000000J0D01*
G01*
X102200000Y-86600000D02*
G75*
G02*
X101200000Y-85600000I0J1000000D01*
G01*
X113200000Y-85600000D02*
G75*
G02*
X112200000Y-86600000I-1000000J0D01*
G01*
X77200000Y-75600000D02*
X77200000Y-76800000D01*
X65200000Y-75600000D02*
X65200000Y-76800000D01*
X65200000Y-85600000D02*
X65200000Y-84400000D01*
X77200000Y-85600000D02*
X77200000Y-84400000D01*
X77200000Y-79400000D02*
X77200000Y-81800000D01*
X66200000Y-74600000D02*
X76200000Y-74600000D01*
X65200000Y-81800000D02*
X65200000Y-79400000D01*
X76200000Y-86600000D02*
X66200000Y-86600000D01*
X76200000Y-74600000D02*
G75*
G02*
X77200000Y-75600000I0J-1000000D01*
G01*
X65200000Y-75600000D02*
G75*
G02*
X66200000Y-74600000I1000000J0D01*
G01*
X66200000Y-86600000D02*
G75*
G02*
X65200000Y-85600000I0J1000000D01*
G01*
X77200000Y-85600000D02*
G75*
G02*
X76200000Y-86600000I-1000000J0D01*
G01*
X59200000Y-75600000D02*
X59200000Y-76800000D01*
X47200000Y-75600000D02*
X47200000Y-76800000D01*
X47200000Y-85600000D02*
X47200000Y-84400000D01*
X59200000Y-85600000D02*
X59200000Y-84400000D01*
X59200000Y-79400000D02*
X59200000Y-81800000D01*
X48200000Y-74600000D02*
X58200000Y-74600000D01*
X47200000Y-81800000D02*
X47200000Y-79400000D01*
X58200000Y-86600000D02*
X48200000Y-86600000D01*
X58200000Y-74600000D02*
G75*
G02*
X59200000Y-75600000I0J-1000000D01*
G01*
X47200000Y-75600000D02*
G75*
G02*
X48200000Y-74600000I1000000J0D01*
G01*
X48200000Y-86600000D02*
G75*
G02*
X47200000Y-85600000I0J1000000D01*
G01*
X59200000Y-85600000D02*
G75*
G02*
X58200000Y-86600000I-1000000J0D01*
G01*
X301200000Y-102100000D02*
X291200000Y-102100000D01*
X290200000Y-97300000D02*
X290200000Y-94900000D01*
X291200000Y-90100000D02*
X301200000Y-90100000D01*
X302200000Y-94900000D02*
X302200000Y-97300000D01*
X302200000Y-101100000D02*
X302200000Y-99900000D01*
X290200000Y-101100000D02*
X290200000Y-99900000D01*
X290200000Y-91100000D02*
X290200000Y-92300000D01*
X302200000Y-91100000D02*
X302200000Y-92300000D01*
X302200000Y-101100000D02*
G75*
G02*
X301200000Y-102100000I-1000000J0D01*
G01*
X291200000Y-102100000D02*
G75*
G02*
X290200000Y-101100000I0J1000000D01*
G01*
X290200000Y-91100000D02*
G75*
G02*
X291200000Y-90100000I1000000J0D01*
G01*
X301200000Y-90100000D02*
G75*
G02*
X302200000Y-91100000I0J-1000000D01*
G01*
X283200000Y-102100000D02*
X273200000Y-102100000D01*
X272200000Y-97300000D02*
X272200000Y-94900000D01*
X273200000Y-90100000D02*
X283200000Y-90100000D01*
X284200000Y-94900000D02*
X284200000Y-97300000D01*
X284200000Y-101100000D02*
X284200000Y-99900000D01*
X272200000Y-101100000D02*
X272200000Y-99900000D01*
X272200000Y-91100000D02*
X272200000Y-92300000D01*
X284200000Y-91100000D02*
X284200000Y-92300000D01*
X284200000Y-101100000D02*
G75*
G02*
X283200000Y-102100000I-1000000J0D01*
G01*
X273200000Y-102100000D02*
G75*
G02*
X272200000Y-101100000I0J1000000D01*
G01*
X272200000Y-91100000D02*
G75*
G02*
X273200000Y-90100000I1000000J0D01*
G01*
X283200000Y-90100000D02*
G75*
G02*
X284200000Y-91100000I0J-1000000D01*
G01*
X265200000Y-102100000D02*
X255200000Y-102100000D01*
X254200000Y-97300000D02*
X254200000Y-94900000D01*
X255200000Y-90100000D02*
X265200000Y-90100000D01*
X266200000Y-94900000D02*
X266200000Y-97300000D01*
X266200000Y-101100000D02*
X266200000Y-99900000D01*
X254200000Y-101100000D02*
X254200000Y-99900000D01*
X254200000Y-91100000D02*
X254200000Y-92300000D01*
X266200000Y-91100000D02*
X266200000Y-92300000D01*
X266200000Y-101100000D02*
G75*
G02*
X265200000Y-102100000I-1000000J0D01*
G01*
X255200000Y-102100000D02*
G75*
G02*
X254200000Y-101100000I0J1000000D01*
G01*
X254200000Y-91100000D02*
G75*
G02*
X255200000Y-90100000I1000000J0D01*
G01*
X265200000Y-90100000D02*
G75*
G02*
X266200000Y-91100000I0J-1000000D01*
G01*
X247200000Y-102100000D02*
X237200000Y-102100000D01*
X236200000Y-97300000D02*
X236200000Y-94900000D01*
X237200000Y-90100000D02*
X247200000Y-90100000D01*
X248200000Y-94900000D02*
X248200000Y-97300000D01*
X248200000Y-101100000D02*
X248200000Y-99900000D01*
X236200000Y-101100000D02*
X236200000Y-99900000D01*
X236200000Y-91100000D02*
X236200000Y-92300000D01*
X248200000Y-91100000D02*
X248200000Y-92300000D01*
X248200000Y-101100000D02*
G75*
G02*
X247200000Y-102100000I-1000000J0D01*
G01*
X237200000Y-102100000D02*
G75*
G02*
X236200000Y-101100000I0J1000000D01*
G01*
X236200000Y-91100000D02*
G75*
G02*
X237200000Y-90100000I1000000J0D01*
G01*
X247200000Y-90100000D02*
G75*
G02*
X248200000Y-91100000I0J-1000000D01*
G01*
X229200000Y-102100000D02*
X219200000Y-102100000D01*
X218200000Y-97300000D02*
X218200000Y-94900000D01*
X219200000Y-90100000D02*
X229200000Y-90100000D01*
X230200000Y-94900000D02*
X230200000Y-97300000D01*
X230200000Y-101100000D02*
X230200000Y-99900000D01*
X218200000Y-101100000D02*
X218200000Y-99900000D01*
X218200000Y-91100000D02*
X218200000Y-92300000D01*
X230200000Y-91100000D02*
X230200000Y-92300000D01*
X230200000Y-101100000D02*
G75*
G02*
X229200000Y-102100000I-1000000J0D01*
G01*
X219200000Y-102100000D02*
G75*
G02*
X218200000Y-101100000I0J1000000D01*
G01*
X218200000Y-91100000D02*
G75*
G02*
X219200000Y-90100000I1000000J0D01*
G01*
X229200000Y-90100000D02*
G75*
G02*
X230200000Y-91100000I0J-1000000D01*
G01*
X211200000Y-102100000D02*
X201200000Y-102100000D01*
X200200000Y-97300000D02*
X200200000Y-94900000D01*
X201200000Y-90100000D02*
X211200000Y-90100000D01*
X212200000Y-94900000D02*
X212200000Y-97300000D01*
X212200000Y-101100000D02*
X212200000Y-99900000D01*
X200200000Y-101100000D02*
X200200000Y-99900000D01*
X200200000Y-91100000D02*
X200200000Y-92300000D01*
X212200000Y-91100000D02*
X212200000Y-92300000D01*
X212200000Y-101100000D02*
G75*
G02*
X211200000Y-102100000I-1000000J0D01*
G01*
X201200000Y-102100000D02*
G75*
G02*
X200200000Y-101100000I0J1000000D01*
G01*
X200200000Y-91100000D02*
G75*
G02*
X201200000Y-90100000I1000000J0D01*
G01*
X211200000Y-90100000D02*
G75*
G02*
X212200000Y-91100000I0J-1000000D01*
G01*
X193200000Y-102100000D02*
X183200000Y-102100000D01*
X182200000Y-97300000D02*
X182200000Y-94900000D01*
X183200000Y-90100000D02*
X193200000Y-90100000D01*
X194200000Y-94900000D02*
X194200000Y-97300000D01*
X194200000Y-101100000D02*
X194200000Y-99900000D01*
X182200000Y-101100000D02*
X182200000Y-99900000D01*
X182200000Y-91100000D02*
X182200000Y-92300000D01*
X194200000Y-91100000D02*
X194200000Y-92300000D01*
X194200000Y-101100000D02*
G75*
G02*
X193200000Y-102100000I-1000000J0D01*
G01*
X183200000Y-102100000D02*
G75*
G02*
X182200000Y-101100000I0J1000000D01*
G01*
X182200000Y-91100000D02*
G75*
G02*
X183200000Y-90100000I1000000J0D01*
G01*
X193200000Y-90100000D02*
G75*
G02*
X194200000Y-91100000I0J-1000000D01*
G01*
X175200000Y-102100000D02*
X165200000Y-102100000D01*
X164200000Y-97300000D02*
X164200000Y-94900000D01*
X165200000Y-90100000D02*
X175200000Y-90100000D01*
X176200000Y-94900000D02*
X176200000Y-97300000D01*
X176200000Y-101100000D02*
X176200000Y-99900000D01*
X164200000Y-101100000D02*
X164200000Y-99900000D01*
X164200000Y-91100000D02*
X164200000Y-92300000D01*
X176200000Y-91100000D02*
X176200000Y-92300000D01*
X176200000Y-101100000D02*
G75*
G02*
X175200000Y-102100000I-1000000J0D01*
G01*
X165200000Y-102100000D02*
G75*
G02*
X164200000Y-101100000I0J1000000D01*
G01*
X164200000Y-91100000D02*
G75*
G02*
X165200000Y-90100000I1000000J0D01*
G01*
X175200000Y-90100000D02*
G75*
G02*
X176200000Y-91100000I0J-1000000D01*
G01*
X157200000Y-102100000D02*
X147200000Y-102100000D01*
X146200000Y-97300000D02*
X146200000Y-94900000D01*
X147200000Y-90100000D02*
X157200000Y-90100000D01*
X158200000Y-94900000D02*
X158200000Y-97300000D01*
X158200000Y-101100000D02*
X158200000Y-99900000D01*
X146200000Y-101100000D02*
X146200000Y-99900000D01*
X146200000Y-91100000D02*
X146200000Y-92300000D01*
X158200000Y-91100000D02*
X158200000Y-92300000D01*
X158200000Y-101100000D02*
G75*
G02*
X157200000Y-102100000I-1000000J0D01*
G01*
X147200000Y-102100000D02*
G75*
G02*
X146200000Y-101100000I0J1000000D01*
G01*
X146200000Y-91100000D02*
G75*
G02*
X147200000Y-90100000I1000000J0D01*
G01*
X157200000Y-90100000D02*
G75*
G02*
X158200000Y-91100000I0J-1000000D01*
G01*
X139200000Y-102100000D02*
X129200000Y-102100000D01*
X128200000Y-97300000D02*
X128200000Y-94900000D01*
X129200000Y-90100000D02*
X139200000Y-90100000D01*
X140200000Y-94900000D02*
X140200000Y-97300000D01*
X140200000Y-101100000D02*
X140200000Y-99900000D01*
X128200000Y-101100000D02*
X128200000Y-99900000D01*
X128200000Y-91100000D02*
X128200000Y-92300000D01*
X140200000Y-91100000D02*
X140200000Y-92300000D01*
X140200000Y-101100000D02*
G75*
G02*
X139200000Y-102100000I-1000000J0D01*
G01*
X129200000Y-102100000D02*
G75*
G02*
X128200000Y-101100000I0J1000000D01*
G01*
X128200000Y-91100000D02*
G75*
G02*
X129200000Y-90100000I1000000J0D01*
G01*
X139200000Y-90100000D02*
G75*
G02*
X140200000Y-91100000I0J-1000000D01*
G01*
X121200000Y-102100000D02*
X111200000Y-102100000D01*
X110200000Y-97300000D02*
X110200000Y-94900000D01*
X111200000Y-90100000D02*
X121200000Y-90100000D01*
X122200000Y-94900000D02*
X122200000Y-97300000D01*
X122200000Y-101100000D02*
X122200000Y-99900000D01*
X110200000Y-101100000D02*
X110200000Y-99900000D01*
X110200000Y-91100000D02*
X110200000Y-92300000D01*
X122200000Y-91100000D02*
X122200000Y-92300000D01*
X122200000Y-101100000D02*
G75*
G02*
X121200000Y-102100000I-1000000J0D01*
G01*
X111200000Y-102100000D02*
G75*
G02*
X110200000Y-101100000I0J1000000D01*
G01*
X110200000Y-91100000D02*
G75*
G02*
X111200000Y-90100000I1000000J0D01*
G01*
X121200000Y-90100000D02*
G75*
G02*
X122200000Y-91100000I0J-1000000D01*
G01*
X103200000Y-102100000D02*
X93200000Y-102100000D01*
X92200000Y-97300000D02*
X92200000Y-94900000D01*
X93200000Y-90100000D02*
X103200000Y-90100000D01*
X104200000Y-94900000D02*
X104200000Y-97300000D01*
X104200000Y-101100000D02*
X104200000Y-99900000D01*
X92200000Y-101100000D02*
X92200000Y-99900000D01*
X92200000Y-91100000D02*
X92200000Y-92300000D01*
X104200000Y-91100000D02*
X104200000Y-92300000D01*
X104200000Y-101100000D02*
G75*
G02*
X103200000Y-102100000I-1000000J0D01*
G01*
X93200000Y-102100000D02*
G75*
G02*
X92200000Y-101100000I0J1000000D01*
G01*
X92200000Y-91100000D02*
G75*
G02*
X93200000Y-90100000I1000000J0D01*
G01*
X103200000Y-90100000D02*
G75*
G02*
X104200000Y-91100000I0J-1000000D01*
G01*
X85200000Y-102100000D02*
X75200000Y-102100000D01*
X74200000Y-97300000D02*
X74200000Y-94900000D01*
X75200000Y-90100000D02*
X85200000Y-90100000D01*
X86200000Y-94900000D02*
X86200000Y-97300000D01*
X86200000Y-101100000D02*
X86200000Y-99900000D01*
X74200000Y-101100000D02*
X74200000Y-99900000D01*
X74200000Y-91100000D02*
X74200000Y-92300000D01*
X86200000Y-91100000D02*
X86200000Y-92300000D01*
X86200000Y-101100000D02*
G75*
G02*
X85200000Y-102100000I-1000000J0D01*
G01*
X75200000Y-102100000D02*
G75*
G02*
X74200000Y-101100000I0J1000000D01*
G01*
X74200000Y-91100000D02*
G75*
G02*
X75200000Y-90100000I1000000J0D01*
G01*
X85200000Y-90100000D02*
G75*
G02*
X86200000Y-91100000I0J-1000000D01*
G01*
X67200000Y-102100000D02*
X57200000Y-102100000D01*
X56200000Y-97300000D02*
X56200000Y-94900000D01*
X57200000Y-90100000D02*
X67200000Y-90100000D01*
X68200000Y-94900000D02*
X68200000Y-97300000D01*
X68200000Y-101100000D02*
X68200000Y-99900000D01*
X56200000Y-101100000D02*
X56200000Y-99900000D01*
X56200000Y-91100000D02*
X56200000Y-92300000D01*
X68200000Y-91100000D02*
X68200000Y-92300000D01*
X68200000Y-101100000D02*
G75*
G02*
X67200000Y-102100000I-1000000J0D01*
G01*
X57200000Y-102100000D02*
G75*
G02*
X56200000Y-101100000I0J1000000D01*
G01*
X56200000Y-91100000D02*
G75*
G02*
X57200000Y-90100000I1000000J0D01*
G01*
X67200000Y-90100000D02*
G75*
G02*
X68200000Y-91100000I0J-1000000D01*
G01*
X49200000Y-102100000D02*
X39200000Y-102100000D01*
X38200000Y-97300000D02*
X38200000Y-94900000D01*
X39200000Y-90100000D02*
X49200000Y-90100000D01*
X50200000Y-94900000D02*
X50200000Y-97300000D01*
X50200000Y-101100000D02*
X50200000Y-99900000D01*
X38200000Y-101100000D02*
X38200000Y-99900000D01*
X38200000Y-91100000D02*
X38200000Y-92300000D01*
X50200000Y-91100000D02*
X50200000Y-92300000D01*
X50200000Y-101100000D02*
G75*
G02*
X49200000Y-102100000I-1000000J0D01*
G01*
X39200000Y-102100000D02*
G75*
G02*
X38200000Y-101100000I0J1000000D01*
G01*
X38200000Y-91100000D02*
G75*
G02*
X39200000Y-90100000I1000000J0D01*
G01*
X49200000Y-90100000D02*
G75*
G02*
X50200000Y-91100000I0J-1000000D01*
G01*
X31195000Y-102100000D02*
X21195000Y-102100000D01*
X20195000Y-97300000D02*
X20195000Y-94900000D01*
X21195000Y-90100000D02*
X31195000Y-90100000D01*
X32195000Y-94900000D02*
X32195000Y-97300000D01*
X32195000Y-101100000D02*
X32195000Y-99900000D01*
X20195000Y-101100000D02*
X20195000Y-99900000D01*
X20195000Y-91100000D02*
X20195000Y-92300000D01*
X32195000Y-91100000D02*
X32195000Y-92300000D01*
X32195000Y-101100000D02*
G75*
G02*
X31195000Y-102100000I-1000000J0D01*
G01*
X21195000Y-102100000D02*
G75*
G02*
X20195000Y-101100000I0J1000000D01*
G01*
X20195000Y-91100000D02*
G75*
G02*
X21195000Y-90100000I1000000J0D01*
G01*
X31195000Y-90100000D02*
G75*
G02*
X32195000Y-91100000I0J-1000000D01*
G01*
X29350000Y-57600000D02*
X29350000Y-53850000D01*
X41050000Y-57600000D02*
X41050000Y-53850000D01*
X41050000Y-57600000D02*
X29350000Y-57600000D01*
X29350000Y-49350000D02*
X29350000Y-45600000D01*
X29350000Y-45600000D02*
X31950000Y-45600000D01*
X33450000Y-45600000D02*
X36950000Y-45600000D01*
X38450000Y-45600000D02*
X41050000Y-45600000D01*
X41050000Y-45600000D02*
X41050000Y-49350000D01*
X122200000Y-37450000D02*
X118450000Y-37450000D01*
X122200000Y-25750000D02*
X118450000Y-25750000D01*
X122200000Y-25750000D02*
X122200000Y-37450000D01*
X113950000Y-37450000D02*
X110200000Y-37450000D01*
X110200000Y-37450000D02*
X110200000Y-34850000D01*
X110200000Y-33350000D02*
X110200000Y-29850000D01*
X110200000Y-28350000D02*
X110200000Y-25750000D01*
X110200000Y-25750000D02*
X113950000Y-25750000D01*
X83350000Y-57600000D02*
X83350000Y-53850000D01*
X95050000Y-57600000D02*
X95050000Y-53850000D01*
X95050000Y-57600000D02*
X83350000Y-57600000D01*
X83350000Y-49350000D02*
X83350000Y-45600000D01*
X83350000Y-45600000D02*
X85950000Y-45600000D01*
X87450000Y-45600000D02*
X90950000Y-45600000D01*
X92450000Y-45600000D02*
X95050000Y-45600000D01*
X95050000Y-45600000D02*
X95050000Y-49350000D01*
X56350000Y-37600000D02*
X56350000Y-33850000D01*
X68050000Y-37600000D02*
X68050000Y-33850000D01*
X68050000Y-37600000D02*
X56350000Y-37600000D01*
X56350000Y-29350000D02*
X56350000Y-25600000D01*
X56350000Y-25600000D02*
X58950000Y-25600000D01*
X60450000Y-25600000D02*
X63950000Y-25600000D01*
X65450000Y-25600000D02*
X68050000Y-25600000D01*
X68050000Y-25600000D02*
X68050000Y-29350000D01*
D13*
X72350000Y-43350000D02*
G75*
G03*
X72350000Y-43350000I-700000J0D01*
G01*
X107150000Y-28350000D02*
G75*
G03*
X107150000Y-28350000I-700000J0D01*
G01*
X108150000Y-42330000D02*
G75*
G03*
X108150000Y-42330000I-700000J0D01*
G01*
X95900000Y-34700000D02*
G75*
G03*
X95900000Y-34700000I-700000J0D01*
G01*
X95900000Y-37250000D02*
G75*
G03*
X95900000Y-37250000I-700000J0D01*
G01*
D10*
X194998466Y-60298580D02*
X194998466Y-61012866D01*
X194950847Y-61155723D01*
X194855609Y-61250961D01*
X194712752Y-61298580D01*
X194617514Y-61298580D01*
X195379419Y-60298580D02*
X196046085Y-60298580D01*
X195617514Y-61298580D01*
X72167380Y-37083333D02*
X72881666Y-37083333D01*
X73024523Y-37130952D01*
X73119761Y-37226190D01*
X73167380Y-37369047D01*
X73167380Y-37464285D01*
X73167380Y-36083333D02*
X73167380Y-36654761D01*
X73167380Y-36369047D02*
X72167380Y-36369047D01*
X72310238Y-36464285D01*
X72405476Y-36559523D01*
X72453095Y-36654761D01*
X267390476Y-81004761D02*
X267533333Y-81052380D01*
X267771428Y-81052380D01*
X267866666Y-81004761D01*
X267914285Y-80957142D01*
X267961904Y-80861904D01*
X267961904Y-80766666D01*
X267914285Y-80671428D01*
X267866666Y-80623809D01*
X267771428Y-80576190D01*
X267580952Y-80528571D01*
X267485714Y-80480952D01*
X267438095Y-80433333D01*
X267390476Y-80338095D01*
X267390476Y-80242857D01*
X267438095Y-80147619D01*
X267485714Y-80100000D01*
X267580952Y-80052380D01*
X267819047Y-80052380D01*
X267961904Y-80100000D01*
X268295238Y-80052380D02*
X268533333Y-81052380D01*
X268723809Y-80338095D01*
X268914285Y-81052380D01*
X269152380Y-80052380D01*
X269485714Y-80147619D02*
X269533333Y-80100000D01*
X269628571Y-80052380D01*
X269866666Y-80052380D01*
X269961904Y-80100000D01*
X270009523Y-80147619D01*
X270057142Y-80242857D01*
X270057142Y-80338095D01*
X270009523Y-80480952D01*
X269438095Y-81052380D01*
X270057142Y-81052380D01*
X270914285Y-80052380D02*
X270723809Y-80052380D01*
X270628571Y-80100000D01*
X270580952Y-80147619D01*
X270485714Y-80290476D01*
X270438095Y-80480952D01*
X270438095Y-80861904D01*
X270485714Y-80957142D01*
X270533333Y-81004761D01*
X270628571Y-81052380D01*
X270819047Y-81052380D01*
X270914285Y-81004761D01*
X270961904Y-80957142D01*
X271009523Y-80861904D01*
X271009523Y-80623809D01*
X270961904Y-80528571D01*
X270914285Y-80480952D01*
X270819047Y-80433333D01*
X270628571Y-80433333D01*
X270533333Y-80480952D01*
X270485714Y-80528571D01*
X270438095Y-80623809D01*
X249390476Y-81004761D02*
X249533333Y-81052380D01*
X249771428Y-81052380D01*
X249866666Y-81004761D01*
X249914285Y-80957142D01*
X249961904Y-80861904D01*
X249961904Y-80766666D01*
X249914285Y-80671428D01*
X249866666Y-80623809D01*
X249771428Y-80576190D01*
X249580952Y-80528571D01*
X249485714Y-80480952D01*
X249438095Y-80433333D01*
X249390476Y-80338095D01*
X249390476Y-80242857D01*
X249438095Y-80147619D01*
X249485714Y-80100000D01*
X249580952Y-80052380D01*
X249819047Y-80052380D01*
X249961904Y-80100000D01*
X250295238Y-80052380D02*
X250533333Y-81052380D01*
X250723809Y-80338095D01*
X250914285Y-81052380D01*
X251152380Y-80052380D01*
X251485714Y-80147619D02*
X251533333Y-80100000D01*
X251628571Y-80052380D01*
X251866666Y-80052380D01*
X251961904Y-80100000D01*
X252009523Y-80147619D01*
X252057142Y-80242857D01*
X252057142Y-80338095D01*
X252009523Y-80480952D01*
X251438095Y-81052380D01*
X252057142Y-81052380D01*
X252961904Y-80052380D02*
X252485714Y-80052380D01*
X252438095Y-80528571D01*
X252485714Y-80480952D01*
X252580952Y-80433333D01*
X252819047Y-80433333D01*
X252914285Y-80480952D01*
X252961904Y-80528571D01*
X253009523Y-80623809D01*
X253009523Y-80861904D01*
X252961904Y-80957142D01*
X252914285Y-81004761D01*
X252819047Y-81052380D01*
X252580952Y-81052380D01*
X252485714Y-81004761D01*
X252438095Y-80957142D01*
X231390476Y-81004761D02*
X231533333Y-81052380D01*
X231771428Y-81052380D01*
X231866666Y-81004761D01*
X231914285Y-80957142D01*
X231961904Y-80861904D01*
X231961904Y-80766666D01*
X231914285Y-80671428D01*
X231866666Y-80623809D01*
X231771428Y-80576190D01*
X231580952Y-80528571D01*
X231485714Y-80480952D01*
X231438095Y-80433333D01*
X231390476Y-80338095D01*
X231390476Y-80242857D01*
X231438095Y-80147619D01*
X231485714Y-80100000D01*
X231580952Y-80052380D01*
X231819047Y-80052380D01*
X231961904Y-80100000D01*
X232295238Y-80052380D02*
X232533333Y-81052380D01*
X232723809Y-80338095D01*
X232914285Y-81052380D01*
X233152380Y-80052380D01*
X233485714Y-80147619D02*
X233533333Y-80100000D01*
X233628571Y-80052380D01*
X233866666Y-80052380D01*
X233961904Y-80100000D01*
X234009523Y-80147619D01*
X234057142Y-80242857D01*
X234057142Y-80338095D01*
X234009523Y-80480952D01*
X233438095Y-81052380D01*
X234057142Y-81052380D01*
X234914285Y-80385714D02*
X234914285Y-81052380D01*
X234676190Y-80004761D02*
X234438095Y-80719047D01*
X235057142Y-80719047D01*
X195390476Y-81004761D02*
X195533333Y-81052380D01*
X195771428Y-81052380D01*
X195866666Y-81004761D01*
X195914285Y-80957142D01*
X195961904Y-80861904D01*
X195961904Y-80766666D01*
X195914285Y-80671428D01*
X195866666Y-80623809D01*
X195771428Y-80576190D01*
X195580952Y-80528571D01*
X195485714Y-80480952D01*
X195438095Y-80433333D01*
X195390476Y-80338095D01*
X195390476Y-80242857D01*
X195438095Y-80147619D01*
X195485714Y-80100000D01*
X195580952Y-80052380D01*
X195819047Y-80052380D01*
X195961904Y-80100000D01*
X196295238Y-80052380D02*
X196533333Y-81052380D01*
X196723809Y-80338095D01*
X196914285Y-81052380D01*
X197152380Y-80052380D01*
X197485714Y-80147619D02*
X197533333Y-80100000D01*
X197628571Y-80052380D01*
X197866666Y-80052380D01*
X197961904Y-80100000D01*
X198009523Y-80147619D01*
X198057142Y-80242857D01*
X198057142Y-80338095D01*
X198009523Y-80480952D01*
X197438095Y-81052380D01*
X198057142Y-81052380D01*
X198390476Y-80052380D02*
X199009523Y-80052380D01*
X198676190Y-80433333D01*
X198819047Y-80433333D01*
X198914285Y-80480952D01*
X198961904Y-80528571D01*
X199009523Y-80623809D01*
X199009523Y-80861904D01*
X198961904Y-80957142D01*
X198914285Y-81004761D01*
X198819047Y-81052380D01*
X198533333Y-81052380D01*
X198438095Y-81004761D01*
X198390476Y-80957142D01*
X177390476Y-81004761D02*
X177533333Y-81052380D01*
X177771428Y-81052380D01*
X177866666Y-81004761D01*
X177914285Y-80957142D01*
X177961904Y-80861904D01*
X177961904Y-80766666D01*
X177914285Y-80671428D01*
X177866666Y-80623809D01*
X177771428Y-80576190D01*
X177580952Y-80528571D01*
X177485714Y-80480952D01*
X177438095Y-80433333D01*
X177390476Y-80338095D01*
X177390476Y-80242857D01*
X177438095Y-80147619D01*
X177485714Y-80100000D01*
X177580952Y-80052380D01*
X177819047Y-80052380D01*
X177961904Y-80100000D01*
X178295238Y-80052380D02*
X178533333Y-81052380D01*
X178723809Y-80338095D01*
X178914285Y-81052380D01*
X179152380Y-80052380D01*
X179485714Y-80147619D02*
X179533333Y-80100000D01*
X179628571Y-80052380D01*
X179866666Y-80052380D01*
X179961904Y-80100000D01*
X180009523Y-80147619D01*
X180057142Y-80242857D01*
X180057142Y-80338095D01*
X180009523Y-80480952D01*
X179438095Y-81052380D01*
X180057142Y-81052380D01*
X180438095Y-80147619D02*
X180485714Y-80100000D01*
X180580952Y-80052380D01*
X180819047Y-80052380D01*
X180914285Y-80100000D01*
X180961904Y-80147619D01*
X181009523Y-80242857D01*
X181009523Y-80338095D01*
X180961904Y-80480952D01*
X180390476Y-81052380D01*
X181009523Y-81052380D01*
X141390476Y-81004761D02*
X141533333Y-81052380D01*
X141771428Y-81052380D01*
X141866666Y-81004761D01*
X141914285Y-80957142D01*
X141961904Y-80861904D01*
X141961904Y-80766666D01*
X141914285Y-80671428D01*
X141866666Y-80623809D01*
X141771428Y-80576190D01*
X141580952Y-80528571D01*
X141485714Y-80480952D01*
X141438095Y-80433333D01*
X141390476Y-80338095D01*
X141390476Y-80242857D01*
X141438095Y-80147619D01*
X141485714Y-80100000D01*
X141580952Y-80052380D01*
X141819047Y-80052380D01*
X141961904Y-80100000D01*
X142295238Y-80052380D02*
X142533333Y-81052380D01*
X142723809Y-80338095D01*
X142914285Y-81052380D01*
X143152380Y-80052380D01*
X143485714Y-80147619D02*
X143533333Y-80100000D01*
X143628571Y-80052380D01*
X143866666Y-80052380D01*
X143961904Y-80100000D01*
X144009523Y-80147619D01*
X144057142Y-80242857D01*
X144057142Y-80338095D01*
X144009523Y-80480952D01*
X143438095Y-81052380D01*
X144057142Y-81052380D01*
X145009523Y-81052380D02*
X144438095Y-81052380D01*
X144723809Y-81052380D02*
X144723809Y-80052380D01*
X144628571Y-80195238D01*
X144533333Y-80290476D01*
X144438095Y-80338095D01*
X123390476Y-81004761D02*
X123533333Y-81052380D01*
X123771428Y-81052380D01*
X123866666Y-81004761D01*
X123914285Y-80957142D01*
X123961904Y-80861904D01*
X123961904Y-80766666D01*
X123914285Y-80671428D01*
X123866666Y-80623809D01*
X123771428Y-80576190D01*
X123580952Y-80528571D01*
X123485714Y-80480952D01*
X123438095Y-80433333D01*
X123390476Y-80338095D01*
X123390476Y-80242857D01*
X123438095Y-80147619D01*
X123485714Y-80100000D01*
X123580952Y-80052380D01*
X123819047Y-80052380D01*
X123961904Y-80100000D01*
X124295238Y-80052380D02*
X124533333Y-81052380D01*
X124723809Y-80338095D01*
X124914285Y-81052380D01*
X125152380Y-80052380D01*
X125485714Y-80147619D02*
X125533333Y-80100000D01*
X125628571Y-80052380D01*
X125866666Y-80052380D01*
X125961904Y-80100000D01*
X126009523Y-80147619D01*
X126057142Y-80242857D01*
X126057142Y-80338095D01*
X126009523Y-80480952D01*
X125438095Y-81052380D01*
X126057142Y-81052380D01*
X126676190Y-80052380D02*
X126771428Y-80052380D01*
X126866666Y-80100000D01*
X126914285Y-80147619D01*
X126961904Y-80242857D01*
X127009523Y-80433333D01*
X127009523Y-80671428D01*
X126961904Y-80861904D01*
X126914285Y-80957142D01*
X126866666Y-81004761D01*
X126771428Y-81052380D01*
X126676190Y-81052380D01*
X126580952Y-81004761D01*
X126533333Y-80957142D01*
X126485714Y-80861904D01*
X126438095Y-80671428D01*
X126438095Y-80433333D01*
X126485714Y-80242857D01*
X126533333Y-80147619D01*
X126580952Y-80100000D01*
X126676190Y-80052380D01*
X105390476Y-81004761D02*
X105533333Y-81052380D01*
X105771428Y-81052380D01*
X105866666Y-81004761D01*
X105914285Y-80957142D01*
X105961904Y-80861904D01*
X105961904Y-80766666D01*
X105914285Y-80671428D01*
X105866666Y-80623809D01*
X105771428Y-80576190D01*
X105580952Y-80528571D01*
X105485714Y-80480952D01*
X105438095Y-80433333D01*
X105390476Y-80338095D01*
X105390476Y-80242857D01*
X105438095Y-80147619D01*
X105485714Y-80100000D01*
X105580952Y-80052380D01*
X105819047Y-80052380D01*
X105961904Y-80100000D01*
X106295238Y-80052380D02*
X106533333Y-81052380D01*
X106723809Y-80338095D01*
X106914285Y-81052380D01*
X107152380Y-80052380D01*
X108057142Y-81052380D02*
X107485714Y-81052380D01*
X107771428Y-81052380D02*
X107771428Y-80052380D01*
X107676190Y-80195238D01*
X107580952Y-80290476D01*
X107485714Y-80338095D01*
X108533333Y-81052380D02*
X108723809Y-81052380D01*
X108819047Y-81004761D01*
X108866666Y-80957142D01*
X108961904Y-80814285D01*
X109009523Y-80623809D01*
X109009523Y-80242857D01*
X108961904Y-80147619D01*
X108914285Y-80100000D01*
X108819047Y-80052380D01*
X108628571Y-80052380D01*
X108533333Y-80100000D01*
X108485714Y-80147619D01*
X108438095Y-80242857D01*
X108438095Y-80480952D01*
X108485714Y-80576190D01*
X108533333Y-80623809D01*
X108628571Y-80671428D01*
X108819047Y-80671428D01*
X108914285Y-80623809D01*
X108961904Y-80576190D01*
X109009523Y-80480952D01*
X69390476Y-81004761D02*
X69533333Y-81052380D01*
X69771428Y-81052380D01*
X69866666Y-81004761D01*
X69914285Y-80957142D01*
X69961904Y-80861904D01*
X69961904Y-80766666D01*
X69914285Y-80671428D01*
X69866666Y-80623809D01*
X69771428Y-80576190D01*
X69580952Y-80528571D01*
X69485714Y-80480952D01*
X69438095Y-80433333D01*
X69390476Y-80338095D01*
X69390476Y-80242857D01*
X69438095Y-80147619D01*
X69485714Y-80100000D01*
X69580952Y-80052380D01*
X69819047Y-80052380D01*
X69961904Y-80100000D01*
X70295238Y-80052380D02*
X70533333Y-81052380D01*
X70723809Y-80338095D01*
X70914285Y-81052380D01*
X71152380Y-80052380D01*
X72057142Y-81052380D02*
X71485714Y-81052380D01*
X71771428Y-81052380D02*
X71771428Y-80052380D01*
X71676190Y-80195238D01*
X71580952Y-80290476D01*
X71485714Y-80338095D01*
X72628571Y-80480952D02*
X72533333Y-80433333D01*
X72485714Y-80385714D01*
X72438095Y-80290476D01*
X72438095Y-80242857D01*
X72485714Y-80147619D01*
X72533333Y-80100000D01*
X72628571Y-80052380D01*
X72819047Y-80052380D01*
X72914285Y-80100000D01*
X72961904Y-80147619D01*
X73009523Y-80242857D01*
X73009523Y-80290476D01*
X72961904Y-80385714D01*
X72914285Y-80433333D01*
X72819047Y-80480952D01*
X72628571Y-80480952D01*
X72533333Y-80528571D01*
X72485714Y-80576190D01*
X72438095Y-80671428D01*
X72438095Y-80861904D01*
X72485714Y-80957142D01*
X72533333Y-81004761D01*
X72628571Y-81052380D01*
X72819047Y-81052380D01*
X72914285Y-81004761D01*
X72961904Y-80957142D01*
X73009523Y-80861904D01*
X73009523Y-80671428D01*
X72961904Y-80576190D01*
X72914285Y-80528571D01*
X72819047Y-80480952D01*
X51390476Y-81004761D02*
X51533333Y-81052380D01*
X51771428Y-81052380D01*
X51866666Y-81004761D01*
X51914285Y-80957142D01*
X51961904Y-80861904D01*
X51961904Y-80766666D01*
X51914285Y-80671428D01*
X51866666Y-80623809D01*
X51771428Y-80576190D01*
X51580952Y-80528571D01*
X51485714Y-80480952D01*
X51438095Y-80433333D01*
X51390476Y-80338095D01*
X51390476Y-80242857D01*
X51438095Y-80147619D01*
X51485714Y-80100000D01*
X51580952Y-80052380D01*
X51819047Y-80052380D01*
X51961904Y-80100000D01*
X52295238Y-80052380D02*
X52533333Y-81052380D01*
X52723809Y-80338095D01*
X52914285Y-81052380D01*
X53152380Y-80052380D01*
X54057142Y-81052380D02*
X53485714Y-81052380D01*
X53771428Y-81052380D02*
X53771428Y-80052380D01*
X53676190Y-80195238D01*
X53580952Y-80290476D01*
X53485714Y-80338095D01*
X54390476Y-80052380D02*
X55057142Y-80052380D01*
X54628571Y-81052380D01*
X294390476Y-96504761D02*
X294533333Y-96552380D01*
X294771428Y-96552380D01*
X294866666Y-96504761D01*
X294914285Y-96457142D01*
X294961904Y-96361904D01*
X294961904Y-96266666D01*
X294914285Y-96171428D01*
X294866666Y-96123809D01*
X294771428Y-96076190D01*
X294580952Y-96028571D01*
X294485714Y-95980952D01*
X294438095Y-95933333D01*
X294390476Y-95838095D01*
X294390476Y-95742857D01*
X294438095Y-95647619D01*
X294485714Y-95600000D01*
X294580952Y-95552380D01*
X294819047Y-95552380D01*
X294961904Y-95600000D01*
X295295238Y-95552380D02*
X295533333Y-96552380D01*
X295723809Y-95838095D01*
X295914285Y-96552380D01*
X296152380Y-95552380D01*
X297057142Y-96552380D02*
X296485714Y-96552380D01*
X296771428Y-96552380D02*
X296771428Y-95552380D01*
X296676190Y-95695238D01*
X296580952Y-95790476D01*
X296485714Y-95838095D01*
X297914285Y-95552380D02*
X297723809Y-95552380D01*
X297628571Y-95600000D01*
X297580952Y-95647619D01*
X297485714Y-95790476D01*
X297438095Y-95980952D01*
X297438095Y-96361904D01*
X297485714Y-96457142D01*
X297533333Y-96504761D01*
X297628571Y-96552380D01*
X297819047Y-96552380D01*
X297914285Y-96504761D01*
X297961904Y-96457142D01*
X298009523Y-96361904D01*
X298009523Y-96123809D01*
X297961904Y-96028571D01*
X297914285Y-95980952D01*
X297819047Y-95933333D01*
X297628571Y-95933333D01*
X297533333Y-95980952D01*
X297485714Y-96028571D01*
X297438095Y-96123809D01*
X276390476Y-96504761D02*
X276533333Y-96552380D01*
X276771428Y-96552380D01*
X276866666Y-96504761D01*
X276914285Y-96457142D01*
X276961904Y-96361904D01*
X276961904Y-96266666D01*
X276914285Y-96171428D01*
X276866666Y-96123809D01*
X276771428Y-96076190D01*
X276580952Y-96028571D01*
X276485714Y-95980952D01*
X276438095Y-95933333D01*
X276390476Y-95838095D01*
X276390476Y-95742857D01*
X276438095Y-95647619D01*
X276485714Y-95600000D01*
X276580952Y-95552380D01*
X276819047Y-95552380D01*
X276961904Y-95600000D01*
X277295238Y-95552380D02*
X277533333Y-96552380D01*
X277723809Y-95838095D01*
X277914285Y-96552380D01*
X278152380Y-95552380D01*
X279057142Y-96552380D02*
X278485714Y-96552380D01*
X278771428Y-96552380D02*
X278771428Y-95552380D01*
X278676190Y-95695238D01*
X278580952Y-95790476D01*
X278485714Y-95838095D01*
X279961904Y-95552380D02*
X279485714Y-95552380D01*
X279438095Y-96028571D01*
X279485714Y-95980952D01*
X279580952Y-95933333D01*
X279819047Y-95933333D01*
X279914285Y-95980952D01*
X279961904Y-96028571D01*
X280009523Y-96123809D01*
X280009523Y-96361904D01*
X279961904Y-96457142D01*
X279914285Y-96504761D01*
X279819047Y-96552380D01*
X279580952Y-96552380D01*
X279485714Y-96504761D01*
X279438095Y-96457142D01*
X258390476Y-96504761D02*
X258533333Y-96552380D01*
X258771428Y-96552380D01*
X258866666Y-96504761D01*
X258914285Y-96457142D01*
X258961904Y-96361904D01*
X258961904Y-96266666D01*
X258914285Y-96171428D01*
X258866666Y-96123809D01*
X258771428Y-96076190D01*
X258580952Y-96028571D01*
X258485714Y-95980952D01*
X258438095Y-95933333D01*
X258390476Y-95838095D01*
X258390476Y-95742857D01*
X258438095Y-95647619D01*
X258485714Y-95600000D01*
X258580952Y-95552380D01*
X258819047Y-95552380D01*
X258961904Y-95600000D01*
X259295238Y-95552380D02*
X259533333Y-96552380D01*
X259723809Y-95838095D01*
X259914285Y-96552380D01*
X260152380Y-95552380D01*
X261057142Y-96552380D02*
X260485714Y-96552380D01*
X260771428Y-96552380D02*
X260771428Y-95552380D01*
X260676190Y-95695238D01*
X260580952Y-95790476D01*
X260485714Y-95838095D01*
X261914285Y-95885714D02*
X261914285Y-96552380D01*
X261676190Y-95504761D02*
X261438095Y-96219047D01*
X262057142Y-96219047D01*
X240390476Y-96504761D02*
X240533333Y-96552380D01*
X240771428Y-96552380D01*
X240866666Y-96504761D01*
X240914285Y-96457142D01*
X240961904Y-96361904D01*
X240961904Y-96266666D01*
X240914285Y-96171428D01*
X240866666Y-96123809D01*
X240771428Y-96076190D01*
X240580952Y-96028571D01*
X240485714Y-95980952D01*
X240438095Y-95933333D01*
X240390476Y-95838095D01*
X240390476Y-95742857D01*
X240438095Y-95647619D01*
X240485714Y-95600000D01*
X240580952Y-95552380D01*
X240819047Y-95552380D01*
X240961904Y-95600000D01*
X241295238Y-95552380D02*
X241533333Y-96552380D01*
X241723809Y-95838095D01*
X241914285Y-96552380D01*
X242152380Y-95552380D01*
X243057142Y-96552380D02*
X242485714Y-96552380D01*
X242771428Y-96552380D02*
X242771428Y-95552380D01*
X242676190Y-95695238D01*
X242580952Y-95790476D01*
X242485714Y-95838095D01*
X243390476Y-95552380D02*
X244009523Y-95552380D01*
X243676190Y-95933333D01*
X243819047Y-95933333D01*
X243914285Y-95980952D01*
X243961904Y-96028571D01*
X244009523Y-96123809D01*
X244009523Y-96361904D01*
X243961904Y-96457142D01*
X243914285Y-96504761D01*
X243819047Y-96552380D01*
X243533333Y-96552380D01*
X243438095Y-96504761D01*
X243390476Y-96457142D01*
X222390476Y-96504761D02*
X222533333Y-96552380D01*
X222771428Y-96552380D01*
X222866666Y-96504761D01*
X222914285Y-96457142D01*
X222961904Y-96361904D01*
X222961904Y-96266666D01*
X222914285Y-96171428D01*
X222866666Y-96123809D01*
X222771428Y-96076190D01*
X222580952Y-96028571D01*
X222485714Y-95980952D01*
X222438095Y-95933333D01*
X222390476Y-95838095D01*
X222390476Y-95742857D01*
X222438095Y-95647619D01*
X222485714Y-95600000D01*
X222580952Y-95552380D01*
X222819047Y-95552380D01*
X222961904Y-95600000D01*
X223295238Y-95552380D02*
X223533333Y-96552380D01*
X223723809Y-95838095D01*
X223914285Y-96552380D01*
X224152380Y-95552380D01*
X225057142Y-96552380D02*
X224485714Y-96552380D01*
X224771428Y-96552380D02*
X224771428Y-95552380D01*
X224676190Y-95695238D01*
X224580952Y-95790476D01*
X224485714Y-95838095D01*
X225438095Y-95647619D02*
X225485714Y-95600000D01*
X225580952Y-95552380D01*
X225819047Y-95552380D01*
X225914285Y-95600000D01*
X225961904Y-95647619D01*
X226009523Y-95742857D01*
X226009523Y-95838095D01*
X225961904Y-95980952D01*
X225390476Y-96552380D01*
X226009523Y-96552380D01*
X204390476Y-96504761D02*
X204533333Y-96552380D01*
X204771428Y-96552380D01*
X204866666Y-96504761D01*
X204914285Y-96457142D01*
X204961904Y-96361904D01*
X204961904Y-96266666D01*
X204914285Y-96171428D01*
X204866666Y-96123809D01*
X204771428Y-96076190D01*
X204580952Y-96028571D01*
X204485714Y-95980952D01*
X204438095Y-95933333D01*
X204390476Y-95838095D01*
X204390476Y-95742857D01*
X204438095Y-95647619D01*
X204485714Y-95600000D01*
X204580952Y-95552380D01*
X204819047Y-95552380D01*
X204961904Y-95600000D01*
X205295238Y-95552380D02*
X205533333Y-96552380D01*
X205723809Y-95838095D01*
X205914285Y-96552380D01*
X206152380Y-95552380D01*
X207057142Y-96552380D02*
X206485714Y-96552380D01*
X206771428Y-96552380D02*
X206771428Y-95552380D01*
X206676190Y-95695238D01*
X206580952Y-95790476D01*
X206485714Y-95838095D01*
X208009523Y-96552380D02*
X207438095Y-96552380D01*
X207723809Y-96552380D02*
X207723809Y-95552380D01*
X207628571Y-95695238D01*
X207533333Y-95790476D01*
X207438095Y-95838095D01*
X186390476Y-96504761D02*
X186533333Y-96552380D01*
X186771428Y-96552380D01*
X186866666Y-96504761D01*
X186914285Y-96457142D01*
X186961904Y-96361904D01*
X186961904Y-96266666D01*
X186914285Y-96171428D01*
X186866666Y-96123809D01*
X186771428Y-96076190D01*
X186580952Y-96028571D01*
X186485714Y-95980952D01*
X186438095Y-95933333D01*
X186390476Y-95838095D01*
X186390476Y-95742857D01*
X186438095Y-95647619D01*
X186485714Y-95600000D01*
X186580952Y-95552380D01*
X186819047Y-95552380D01*
X186961904Y-95600000D01*
X187295238Y-95552380D02*
X187533333Y-96552380D01*
X187723809Y-95838095D01*
X187914285Y-96552380D01*
X188152380Y-95552380D01*
X189057142Y-96552380D02*
X188485714Y-96552380D01*
X188771428Y-96552380D02*
X188771428Y-95552380D01*
X188676190Y-95695238D01*
X188580952Y-95790476D01*
X188485714Y-95838095D01*
X189676190Y-95552380D02*
X189771428Y-95552380D01*
X189866666Y-95600000D01*
X189914285Y-95647619D01*
X189961904Y-95742857D01*
X190009523Y-95933333D01*
X190009523Y-96171428D01*
X189961904Y-96361904D01*
X189914285Y-96457142D01*
X189866666Y-96504761D01*
X189771428Y-96552380D01*
X189676190Y-96552380D01*
X189580952Y-96504761D01*
X189533333Y-96457142D01*
X189485714Y-96361904D01*
X189438095Y-96171428D01*
X189438095Y-95933333D01*
X189485714Y-95742857D01*
X189533333Y-95647619D01*
X189580952Y-95600000D01*
X189676190Y-95552380D01*
X168866666Y-96504761D02*
X169009523Y-96552380D01*
X169247619Y-96552380D01*
X169342857Y-96504761D01*
X169390476Y-96457142D01*
X169438095Y-96361904D01*
X169438095Y-96266666D01*
X169390476Y-96171428D01*
X169342857Y-96123809D01*
X169247619Y-96076190D01*
X169057142Y-96028571D01*
X168961904Y-95980952D01*
X168914285Y-95933333D01*
X168866666Y-95838095D01*
X168866666Y-95742857D01*
X168914285Y-95647619D01*
X168961904Y-95600000D01*
X169057142Y-95552380D01*
X169295238Y-95552380D01*
X169438095Y-95600000D01*
X169771428Y-95552380D02*
X170009523Y-96552380D01*
X170200000Y-95838095D01*
X170390476Y-96552380D01*
X170628571Y-95552380D01*
X171057142Y-96552380D02*
X171247619Y-96552380D01*
X171342857Y-96504761D01*
X171390476Y-96457142D01*
X171485714Y-96314285D01*
X171533333Y-96123809D01*
X171533333Y-95742857D01*
X171485714Y-95647619D01*
X171438095Y-95600000D01*
X171342857Y-95552380D01*
X171152380Y-95552380D01*
X171057142Y-95600000D01*
X171009523Y-95647619D01*
X170961904Y-95742857D01*
X170961904Y-95980952D01*
X171009523Y-96076190D01*
X171057142Y-96123809D01*
X171152380Y-96171428D01*
X171342857Y-96171428D01*
X171438095Y-96123809D01*
X171485714Y-96076190D01*
X171533333Y-95980952D01*
X150866666Y-96504761D02*
X151009523Y-96552380D01*
X151247619Y-96552380D01*
X151342857Y-96504761D01*
X151390476Y-96457142D01*
X151438095Y-96361904D01*
X151438095Y-96266666D01*
X151390476Y-96171428D01*
X151342857Y-96123809D01*
X151247619Y-96076190D01*
X151057142Y-96028571D01*
X150961904Y-95980952D01*
X150914285Y-95933333D01*
X150866666Y-95838095D01*
X150866666Y-95742857D01*
X150914285Y-95647619D01*
X150961904Y-95600000D01*
X151057142Y-95552380D01*
X151295238Y-95552380D01*
X151438095Y-95600000D01*
X151771428Y-95552380D02*
X152009523Y-96552380D01*
X152200000Y-95838095D01*
X152390476Y-96552380D01*
X152628571Y-95552380D01*
X153152380Y-95980952D02*
X153057142Y-95933333D01*
X153009523Y-95885714D01*
X152961904Y-95790476D01*
X152961904Y-95742857D01*
X153009523Y-95647619D01*
X153057142Y-95600000D01*
X153152380Y-95552380D01*
X153342857Y-95552380D01*
X153438095Y-95600000D01*
X153485714Y-95647619D01*
X153533333Y-95742857D01*
X153533333Y-95790476D01*
X153485714Y-95885714D01*
X153438095Y-95933333D01*
X153342857Y-95980952D01*
X153152380Y-95980952D01*
X153057142Y-96028571D01*
X153009523Y-96076190D01*
X152961904Y-96171428D01*
X152961904Y-96361904D01*
X153009523Y-96457142D01*
X153057142Y-96504761D01*
X153152380Y-96552380D01*
X153342857Y-96552380D01*
X153438095Y-96504761D01*
X153485714Y-96457142D01*
X153533333Y-96361904D01*
X153533333Y-96171428D01*
X153485714Y-96076190D01*
X153438095Y-96028571D01*
X153342857Y-95980952D01*
X132866666Y-96504761D02*
X133009523Y-96552380D01*
X133247619Y-96552380D01*
X133342857Y-96504761D01*
X133390476Y-96457142D01*
X133438095Y-96361904D01*
X133438095Y-96266666D01*
X133390476Y-96171428D01*
X133342857Y-96123809D01*
X133247619Y-96076190D01*
X133057142Y-96028571D01*
X132961904Y-95980952D01*
X132914285Y-95933333D01*
X132866666Y-95838095D01*
X132866666Y-95742857D01*
X132914285Y-95647619D01*
X132961904Y-95600000D01*
X133057142Y-95552380D01*
X133295238Y-95552380D01*
X133438095Y-95600000D01*
X133771428Y-95552380D02*
X134009523Y-96552380D01*
X134200000Y-95838095D01*
X134390476Y-96552380D01*
X134628571Y-95552380D01*
X134914285Y-95552380D02*
X135580952Y-95552380D01*
X135152380Y-96552380D01*
X114866666Y-96504761D02*
X115009523Y-96552380D01*
X115247619Y-96552380D01*
X115342857Y-96504761D01*
X115390476Y-96457142D01*
X115438095Y-96361904D01*
X115438095Y-96266666D01*
X115390476Y-96171428D01*
X115342857Y-96123809D01*
X115247619Y-96076190D01*
X115057142Y-96028571D01*
X114961904Y-95980952D01*
X114914285Y-95933333D01*
X114866666Y-95838095D01*
X114866666Y-95742857D01*
X114914285Y-95647619D01*
X114961904Y-95600000D01*
X115057142Y-95552380D01*
X115295238Y-95552380D01*
X115438095Y-95600000D01*
X115771428Y-95552380D02*
X116009523Y-96552380D01*
X116200000Y-95838095D01*
X116390476Y-96552380D01*
X116628571Y-95552380D01*
X117438095Y-95552380D02*
X117247619Y-95552380D01*
X117152380Y-95600000D01*
X117104761Y-95647619D01*
X117009523Y-95790476D01*
X116961904Y-95980952D01*
X116961904Y-96361904D01*
X117009523Y-96457142D01*
X117057142Y-96504761D01*
X117152380Y-96552380D01*
X117342857Y-96552380D01*
X117438095Y-96504761D01*
X117485714Y-96457142D01*
X117533333Y-96361904D01*
X117533333Y-96123809D01*
X117485714Y-96028571D01*
X117438095Y-95980952D01*
X117342857Y-95933333D01*
X117152380Y-95933333D01*
X117057142Y-95980952D01*
X117009523Y-96028571D01*
X116961904Y-96123809D01*
X96866666Y-96504761D02*
X97009523Y-96552380D01*
X97247619Y-96552380D01*
X97342857Y-96504761D01*
X97390476Y-96457142D01*
X97438095Y-96361904D01*
X97438095Y-96266666D01*
X97390476Y-96171428D01*
X97342857Y-96123809D01*
X97247619Y-96076190D01*
X97057142Y-96028571D01*
X96961904Y-95980952D01*
X96914285Y-95933333D01*
X96866666Y-95838095D01*
X96866666Y-95742857D01*
X96914285Y-95647619D01*
X96961904Y-95600000D01*
X97057142Y-95552380D01*
X97295238Y-95552380D01*
X97438095Y-95600000D01*
X97771428Y-95552380D02*
X98009523Y-96552380D01*
X98200000Y-95838095D01*
X98390476Y-96552380D01*
X98628571Y-95552380D01*
X99485714Y-95552380D02*
X99009523Y-95552380D01*
X98961904Y-96028571D01*
X99009523Y-95980952D01*
X99104761Y-95933333D01*
X99342857Y-95933333D01*
X99438095Y-95980952D01*
X99485714Y-96028571D01*
X99533333Y-96123809D01*
X99533333Y-96361904D01*
X99485714Y-96457142D01*
X99438095Y-96504761D01*
X99342857Y-96552380D01*
X99104761Y-96552380D01*
X99009523Y-96504761D01*
X98961904Y-96457142D01*
X78866666Y-96504761D02*
X79009523Y-96552380D01*
X79247619Y-96552380D01*
X79342857Y-96504761D01*
X79390476Y-96457142D01*
X79438095Y-96361904D01*
X79438095Y-96266666D01*
X79390476Y-96171428D01*
X79342857Y-96123809D01*
X79247619Y-96076190D01*
X79057142Y-96028571D01*
X78961904Y-95980952D01*
X78914285Y-95933333D01*
X78866666Y-95838095D01*
X78866666Y-95742857D01*
X78914285Y-95647619D01*
X78961904Y-95600000D01*
X79057142Y-95552380D01*
X79295238Y-95552380D01*
X79438095Y-95600000D01*
X79771428Y-95552380D02*
X80009523Y-96552380D01*
X80200000Y-95838095D01*
X80390476Y-96552380D01*
X80628571Y-95552380D01*
X81438095Y-95885714D02*
X81438095Y-96552380D01*
X81200000Y-95504761D02*
X80961904Y-96219047D01*
X81580952Y-96219047D01*
X60866666Y-96504761D02*
X61009523Y-96552380D01*
X61247619Y-96552380D01*
X61342857Y-96504761D01*
X61390476Y-96457142D01*
X61438095Y-96361904D01*
X61438095Y-96266666D01*
X61390476Y-96171428D01*
X61342857Y-96123809D01*
X61247619Y-96076190D01*
X61057142Y-96028571D01*
X60961904Y-95980952D01*
X60914285Y-95933333D01*
X60866666Y-95838095D01*
X60866666Y-95742857D01*
X60914285Y-95647619D01*
X60961904Y-95600000D01*
X61057142Y-95552380D01*
X61295238Y-95552380D01*
X61438095Y-95600000D01*
X61771428Y-95552380D02*
X62009523Y-96552380D01*
X62200000Y-95838095D01*
X62390476Y-96552380D01*
X62628571Y-95552380D01*
X62914285Y-95552380D02*
X63533333Y-95552380D01*
X63200000Y-95933333D01*
X63342857Y-95933333D01*
X63438095Y-95980952D01*
X63485714Y-96028571D01*
X63533333Y-96123809D01*
X63533333Y-96361904D01*
X63485714Y-96457142D01*
X63438095Y-96504761D01*
X63342857Y-96552380D01*
X63057142Y-96552380D01*
X62961904Y-96504761D01*
X62914285Y-96457142D01*
X42866666Y-96504761D02*
X43009523Y-96552380D01*
X43247619Y-96552380D01*
X43342857Y-96504761D01*
X43390476Y-96457142D01*
X43438095Y-96361904D01*
X43438095Y-96266666D01*
X43390476Y-96171428D01*
X43342857Y-96123809D01*
X43247619Y-96076190D01*
X43057142Y-96028571D01*
X42961904Y-95980952D01*
X42914285Y-95933333D01*
X42866666Y-95838095D01*
X42866666Y-95742857D01*
X42914285Y-95647619D01*
X42961904Y-95600000D01*
X43057142Y-95552380D01*
X43295238Y-95552380D01*
X43438095Y-95600000D01*
X43771428Y-95552380D02*
X44009523Y-96552380D01*
X44200000Y-95838095D01*
X44390476Y-96552380D01*
X44628571Y-95552380D01*
X44961904Y-95647619D02*
X45009523Y-95600000D01*
X45104761Y-95552380D01*
X45342857Y-95552380D01*
X45438095Y-95600000D01*
X45485714Y-95647619D01*
X45533333Y-95742857D01*
X45533333Y-95838095D01*
X45485714Y-95980952D01*
X44914285Y-96552380D01*
X45533333Y-96552380D01*
X24861666Y-96504761D02*
X25004523Y-96552380D01*
X25242619Y-96552380D01*
X25337857Y-96504761D01*
X25385476Y-96457142D01*
X25433095Y-96361904D01*
X25433095Y-96266666D01*
X25385476Y-96171428D01*
X25337857Y-96123809D01*
X25242619Y-96076190D01*
X25052142Y-96028571D01*
X24956904Y-95980952D01*
X24909285Y-95933333D01*
X24861666Y-95838095D01*
X24861666Y-95742857D01*
X24909285Y-95647619D01*
X24956904Y-95600000D01*
X25052142Y-95552380D01*
X25290238Y-95552380D01*
X25433095Y-95600000D01*
X25766428Y-95552380D02*
X26004523Y-96552380D01*
X26195000Y-95838095D01*
X26385476Y-96552380D01*
X26623571Y-95552380D01*
X27528333Y-96552380D02*
X26956904Y-96552380D01*
X27242619Y-96552380D02*
X27242619Y-95552380D01*
X27147380Y-95695238D01*
X27052142Y-95790476D01*
X26956904Y-95838095D01*
X27142857Y-52971428D02*
X27142857Y-52704761D01*
X27561904Y-52590476D02*
X27561904Y-52971428D01*
X26761904Y-52971428D01*
X26761904Y-52590476D01*
X27561904Y-52247619D02*
X26761904Y-52247619D01*
X27561904Y-51790476D01*
X26761904Y-51790476D01*
X27485714Y-50952380D02*
X27523809Y-50990476D01*
X27561904Y-51104761D01*
X27561904Y-51180952D01*
X27523809Y-51295238D01*
X27447619Y-51371428D01*
X27371428Y-51409523D01*
X27219047Y-51447619D01*
X27104761Y-51447619D01*
X26952380Y-51409523D01*
X26876190Y-51371428D01*
X26800000Y-51295238D01*
X26761904Y-51180952D01*
X26761904Y-51104761D01*
X26800000Y-50990476D01*
X26838095Y-50952380D01*
X27561904Y-50190476D02*
X27561904Y-50647619D01*
X27561904Y-50419047D02*
X26761904Y-50419047D01*
X26876190Y-50495238D01*
X26952380Y-50571428D01*
X26990476Y-50647619D01*
X114828571Y-39542857D02*
X115095238Y-39542857D01*
X115209523Y-39961904D02*
X114828571Y-39961904D01*
X114828571Y-39161904D01*
X115209523Y-39161904D01*
X115552380Y-39961904D02*
X115552380Y-39161904D01*
X116009523Y-39961904D01*
X116009523Y-39161904D01*
X116847619Y-39885714D02*
X116809523Y-39923809D01*
X116695238Y-39961904D01*
X116619047Y-39961904D01*
X116504761Y-39923809D01*
X116428571Y-39847619D01*
X116390476Y-39771428D01*
X116352380Y-39619047D01*
X116352380Y-39504761D01*
X116390476Y-39352380D01*
X116428571Y-39276190D01*
X116504761Y-39200000D01*
X116619047Y-39161904D01*
X116695238Y-39161904D01*
X116809523Y-39200000D01*
X116847619Y-39238095D01*
X117533333Y-39428571D02*
X117533333Y-39961904D01*
X117342857Y-39123809D02*
X117152380Y-39695238D01*
X117647619Y-39695238D01*
X81142857Y-52971428D02*
X81142857Y-52704761D01*
X81561904Y-52590476D02*
X81561904Y-52971428D01*
X80761904Y-52971428D01*
X80761904Y-52590476D01*
X81561904Y-52247619D02*
X80761904Y-52247619D01*
X81561904Y-51790476D01*
X80761904Y-51790476D01*
X81485714Y-50952380D02*
X81523809Y-50990476D01*
X81561904Y-51104761D01*
X81561904Y-51180952D01*
X81523809Y-51295238D01*
X81447619Y-51371428D01*
X81371428Y-51409523D01*
X81219047Y-51447619D01*
X81104761Y-51447619D01*
X80952380Y-51409523D01*
X80876190Y-51371428D01*
X80800000Y-51295238D01*
X80761904Y-51180952D01*
X80761904Y-51104761D01*
X80800000Y-50990476D01*
X80838095Y-50952380D01*
X80761904Y-50685714D02*
X80761904Y-50190476D01*
X81066666Y-50457142D01*
X81066666Y-50342857D01*
X81104761Y-50266666D01*
X81142857Y-50228571D01*
X81219047Y-50190476D01*
X81409523Y-50190476D01*
X81485714Y-50228571D01*
X81523809Y-50266666D01*
X81561904Y-50342857D01*
X81561904Y-50571428D01*
X81523809Y-50647619D01*
X81485714Y-50685714D01*
X54142857Y-32971428D02*
X54142857Y-32704761D01*
X54561904Y-32590476D02*
X54561904Y-32971428D01*
X53761904Y-32971428D01*
X53761904Y-32590476D01*
X54561904Y-32247619D02*
X53761904Y-32247619D01*
X54561904Y-31790476D01*
X53761904Y-31790476D01*
X54485714Y-30952380D02*
X54523809Y-30990476D01*
X54561904Y-31104761D01*
X54561904Y-31180952D01*
X54523809Y-31295238D01*
X54447619Y-31371428D01*
X54371428Y-31409523D01*
X54219047Y-31447619D01*
X54104761Y-31447619D01*
X53952380Y-31409523D01*
X53876190Y-31371428D01*
X53800000Y-31295238D01*
X53761904Y-31180952D01*
X53761904Y-31104761D01*
X53800000Y-30990476D01*
X53838095Y-30952380D01*
X53838095Y-30647619D02*
X53800000Y-30609523D01*
X53761904Y-30533333D01*
X53761904Y-30342857D01*
X53800000Y-30266666D01*
X53838095Y-30228571D01*
X53914285Y-30190476D01*
X53990476Y-30190476D01*
X54104761Y-30228571D01*
X54561904Y-30685714D01*
X54561904Y-30190476D01*
X72461904Y-42752380D02*
X73033333Y-42752380D01*
X72747619Y-43752380D02*
X72747619Y-42752380D01*
X73366666Y-43752380D02*
X73366666Y-42752380D01*
X73747619Y-42752380D01*
X73842857Y-42800000D01*
X73890476Y-42847619D01*
X73938095Y-42942857D01*
X73938095Y-43085714D01*
X73890476Y-43180952D01*
X73842857Y-43228571D01*
X73747619Y-43276190D01*
X73366666Y-43276190D01*
X74890476Y-43752380D02*
X74319047Y-43752380D01*
X74604761Y-43752380D02*
X74604761Y-42752380D01*
X74509523Y-42895238D01*
X74414285Y-42990476D01*
X74319047Y-43038095D01*
X75461904Y-43180952D02*
X75366666Y-43133333D01*
X75319047Y-43085714D01*
X75271428Y-42990476D01*
X75271428Y-42942857D01*
X75319047Y-42847619D01*
X75366666Y-42800000D01*
X75461904Y-42752380D01*
X75652380Y-42752380D01*
X75747619Y-42800000D01*
X75795238Y-42847619D01*
X75842857Y-42942857D01*
X75842857Y-42990476D01*
X75795238Y-43085714D01*
X75747619Y-43133333D01*
X75652380Y-43180952D01*
X75461904Y-43180952D01*
X75366666Y-43228571D01*
X75319047Y-43276190D01*
X75271428Y-43371428D01*
X75271428Y-43561904D01*
X75319047Y-43657142D01*
X75366666Y-43704761D01*
X75461904Y-43752380D01*
X75652380Y-43752380D01*
X75747619Y-43704761D01*
X75795238Y-43657142D01*
X75842857Y-43561904D01*
X75842857Y-43371428D01*
X75795238Y-43276190D01*
X75747619Y-43228571D01*
X75652380Y-43180952D01*
X175610504Y-57206180D02*
X176181933Y-57206180D01*
X175896219Y-58206180D02*
X175896219Y-57206180D01*
X176515266Y-58206180D02*
X176515266Y-57206180D01*
X176896219Y-57206180D01*
X176991457Y-57253800D01*
X177039076Y-57301419D01*
X177086695Y-57396657D01*
X177086695Y-57539514D01*
X177039076Y-57634752D01*
X176991457Y-57682371D01*
X176896219Y-57729990D01*
X176515266Y-57729990D01*
X178039076Y-58206180D02*
X177467647Y-58206180D01*
X177753361Y-58206180D02*
X177753361Y-57206180D01*
X177658123Y-57349038D01*
X177562885Y-57444276D01*
X177467647Y-57491895D01*
X178943838Y-57206180D02*
X178467647Y-57206180D01*
X178420028Y-57682371D01*
X178467647Y-57634752D01*
X178562885Y-57587133D01*
X178800980Y-57587133D01*
X178896219Y-57634752D01*
X178943838Y-57682371D01*
X178991457Y-57777609D01*
X178991457Y-58015704D01*
X178943838Y-58110942D01*
X178896219Y-58158561D01*
X178800980Y-58206180D01*
X178562885Y-58206180D01*
X178467647Y-58158561D01*
X178420028Y-58110942D01*
X105188095Y-26354380D02*
X105759523Y-26354380D01*
X105473809Y-27354380D02*
X105473809Y-26354380D01*
X106092857Y-27354380D02*
X106092857Y-26354380D01*
X106473809Y-26354380D01*
X106569047Y-26402000D01*
X106616666Y-26449619D01*
X106664285Y-26544857D01*
X106664285Y-26687714D01*
X106616666Y-26782952D01*
X106569047Y-26830571D01*
X106473809Y-26878190D01*
X106092857Y-26878190D01*
X107140476Y-27354380D02*
X107330952Y-27354380D01*
X107426190Y-27306761D01*
X107473809Y-27259142D01*
X107569047Y-27116285D01*
X107616666Y-26925809D01*
X107616666Y-26544857D01*
X107569047Y-26449619D01*
X107521428Y-26402000D01*
X107426190Y-26354380D01*
X107235714Y-26354380D01*
X107140476Y-26402000D01*
X107092857Y-26449619D01*
X107045238Y-26544857D01*
X107045238Y-26782952D01*
X107092857Y-26878190D01*
X107140476Y-26925809D01*
X107235714Y-26973428D01*
X107426190Y-26973428D01*
X107521428Y-26925809D01*
X107569047Y-26878190D01*
X107616666Y-26782952D01*
X106138095Y-43452380D02*
X106709523Y-43452380D01*
X106423809Y-44452380D02*
X106423809Y-43452380D01*
X107042857Y-44452380D02*
X107042857Y-43452380D01*
X107423809Y-43452380D01*
X107519047Y-43500000D01*
X107566666Y-43547619D01*
X107614285Y-43642857D01*
X107614285Y-43785714D01*
X107566666Y-43880952D01*
X107519047Y-43928571D01*
X107423809Y-43976190D01*
X107042857Y-43976190D01*
X108185714Y-43880952D02*
X108090476Y-43833333D01*
X108042857Y-43785714D01*
X107995238Y-43690476D01*
X107995238Y-43642857D01*
X108042857Y-43547619D01*
X108090476Y-43500000D01*
X108185714Y-43452380D01*
X108376190Y-43452380D01*
X108471428Y-43500000D01*
X108519047Y-43547619D01*
X108566666Y-43642857D01*
X108566666Y-43690476D01*
X108519047Y-43785714D01*
X108471428Y-43833333D01*
X108376190Y-43880952D01*
X108185714Y-43880952D01*
X108090476Y-43928571D01*
X108042857Y-43976190D01*
X107995238Y-44071428D01*
X107995238Y-44261904D01*
X108042857Y-44357142D01*
X108090476Y-44404761D01*
X108185714Y-44452380D01*
X108376190Y-44452380D01*
X108471428Y-44404761D01*
X108519047Y-44357142D01*
X108566666Y-44261904D01*
X108566666Y-44071428D01*
X108519047Y-43976190D01*
X108471428Y-43928571D01*
X108376190Y-43880952D01*
M02*
