M48
; DRILL file {KiCad 5.1.9} date Wed Mar 31 15:37:12 2021
; FORMAT={-:-/ absolute / inch / decimal}
; #@! TF.CreationDate,2021-03-31T15:37:12+02:00
; #@! TF.GenerationSoftware,Kicad,Pcbnew,5.1.9
; #@! TF.FileFunction,NonPlated,1,4,NPTH
FMAT,2
INCH
T1C0.0454
T2C0.0472
T3C0.0669
T4C0.0709
T5C0.0984
T6C0.1102
%
G90
G05
T1
X0.7862Y-3.9902
X0.8059Y-0.5256
X11.8886Y-3.9902
T2
X2.7244Y-0.4685
X2.7244Y-0.7441
X3.1969Y-0.4685
X3.1969Y-0.7441
X3.6693Y-0.4685
X3.6693Y-0.7441
X6.8189Y-0.4685
X6.8189Y-0.7441
X7.4094Y-0.4685
X7.4094Y-0.7441
X8.0Y-0.4685
X8.0Y-0.7441
T3
X1.0313Y-3.6063
X1.0313Y-3.9606
X1.7402Y-3.6063
X1.7402Y-3.9606
X2.0945Y-2.9961
X2.0945Y-3.3504
X2.4488Y-3.6063
X2.4488Y-3.9606
X2.8031Y-2.9961
X2.8031Y-3.3504
X3.1575Y-3.6063
X3.1575Y-3.9606
X3.8661Y-3.6063
X3.8661Y-3.9606
X4.2205Y-2.9961
X4.2205Y-3.3504
X4.5748Y-3.6063
X4.5748Y-3.9606
X4.9291Y-2.9961
X4.9291Y-3.3504
X5.2835Y-3.6063
X5.2835Y-3.9606
X5.6378Y-2.9961
X5.6378Y-3.3504
X5.9921Y-3.6063
X5.9921Y-3.9606
X6.7008Y-3.6063
X6.7008Y-3.9606
X7.0551Y-2.9961
X7.0551Y-3.3504
X7.4094Y-3.6063
X7.4094Y-3.9606
X7.7638Y-2.9961
X7.7638Y-3.3504
X8.1181Y-3.6063
X8.1181Y-3.9606
X8.8268Y-3.6063
X8.8268Y-3.9606
X9.1811Y-2.9961
X9.1811Y-3.3504
X9.5354Y-3.6063
X9.5354Y-3.9606
X9.8898Y-2.9961
X9.8898Y-3.3504
X10.2441Y-3.6063
X10.2441Y-3.9606
X10.5984Y-2.9961
X10.5984Y-3.3504
X10.9528Y-3.6063
X10.9528Y-3.9606
X11.6614Y-3.6063
X11.6614Y-3.9606
T4
X3.9646Y-0.8165
X3.9646Y-2.6165
X6.5587Y-1.4803
X6.6587Y-1.4803
X7.9587Y-1.4803
X8.3587Y-1.4803
T5
X3.9646Y-0.5748
X3.9646Y-2.8583
X5.8937Y-0.5748
X5.8937Y-2.8583
T6
X0.824Y-0.7539
X0.824Y-3.1496
X6.3465Y-3.1732
X11.8531Y-0.5512
X11.8689Y-3.1732
T0
M30
