G04 #@! TF.GenerationSoftware,KiCad,Pcbnew,5.1.9*
G04 #@! TF.CreationDate,2021-05-03T15:36:02+02:00*
G04 #@! TF.ProjectId,OTTO-Beta-Main,4f54544f-2d42-4657-9461-2d4d61696e2e,rev?*
G04 #@! TF.SameCoordinates,Original*
G04 #@! TF.FileFunction,Paste,Bot*
G04 #@! TF.FilePolarity,Positive*
%FSLAX46Y46*%
G04 Gerber Fmt 4.6, Leading zero omitted, Abs format (unit mm)*
G04 Created by KiCad (PCBNEW 5.1.9) date 2021-05-03 15:36:02*
%MOMM*%
%LPD*%
G01*
G04 APERTURE LIST*
%ADD10R,0.800000X0.900000*%
%ADD11R,1.900000X2.500000*%
%ADD12R,1.800000X2.500000*%
%ADD13R,3.500000X2.200000*%
%ADD14R,3.100000X2.600000*%
%ADD15R,0.600000X1.550000*%
%ADD16R,3.100000X1.600000*%
%ADD17R,2.180000X1.020000*%
%ADD18R,1.100000X1.100000*%
%ADD19R,1.750000X0.450000*%
%ADD20R,0.650000X1.060000*%
%ADD21R,3.800000X2.000000*%
%ADD22R,1.500000X2.000000*%
%ADD23R,1.200000X1.400000*%
%ADD24R,1.850000X0.900000*%
%ADD25C,0.150000*%
%ADD26R,1.100000X1.800000*%
%ADD27R,1.800000X1.200000*%
%ADD28R,1.020000X2.180000*%
%ADD29R,0.900000X1.200000*%
G04 APERTURE END LIST*
G36*
G01*
X66600000Y-48725000D02*
X66600000Y-50125000D01*
G75*
G02*
X66525000Y-50200000I-75000J0D01*
G01*
X66375000Y-50200000D01*
G75*
G02*
X66300000Y-50125000I0J75000D01*
G01*
X66300000Y-48725000D01*
G75*
G02*
X66375000Y-48650000I75000J0D01*
G01*
X66525000Y-48650000D01*
G75*
G02*
X66600000Y-48725000I0J-75000D01*
G01*
G37*
G36*
G01*
X66100000Y-48725000D02*
X66100000Y-50125000D01*
G75*
G02*
X66025000Y-50200000I-75000J0D01*
G01*
X65875000Y-50200000D01*
G75*
G02*
X65800000Y-50125000I0J75000D01*
G01*
X65800000Y-48725000D01*
G75*
G02*
X65875000Y-48650000I75000J0D01*
G01*
X66025000Y-48650000D01*
G75*
G02*
X66100000Y-48725000I0J-75000D01*
G01*
G37*
G36*
G01*
X65600000Y-48725000D02*
X65600000Y-50125000D01*
G75*
G02*
X65525000Y-50200000I-75000J0D01*
G01*
X65375000Y-50200000D01*
G75*
G02*
X65300000Y-50125000I0J75000D01*
G01*
X65300000Y-48725000D01*
G75*
G02*
X65375000Y-48650000I75000J0D01*
G01*
X65525000Y-48650000D01*
G75*
G02*
X65600000Y-48725000I0J-75000D01*
G01*
G37*
G36*
G01*
X65100000Y-48725000D02*
X65100000Y-50125000D01*
G75*
G02*
X65025000Y-50200000I-75000J0D01*
G01*
X64875000Y-50200000D01*
G75*
G02*
X64800000Y-50125000I0J75000D01*
G01*
X64800000Y-48725000D01*
G75*
G02*
X64875000Y-48650000I75000J0D01*
G01*
X65025000Y-48650000D01*
G75*
G02*
X65100000Y-48725000I0J-75000D01*
G01*
G37*
G36*
G01*
X64600000Y-48725000D02*
X64600000Y-50125000D01*
G75*
G02*
X64525000Y-50200000I-75000J0D01*
G01*
X64375000Y-50200000D01*
G75*
G02*
X64300000Y-50125000I0J75000D01*
G01*
X64300000Y-48725000D01*
G75*
G02*
X64375000Y-48650000I75000J0D01*
G01*
X64525000Y-48650000D01*
G75*
G02*
X64600000Y-48725000I0J-75000D01*
G01*
G37*
G36*
G01*
X64100000Y-48725000D02*
X64100000Y-50125000D01*
G75*
G02*
X64025000Y-50200000I-75000J0D01*
G01*
X63875000Y-50200000D01*
G75*
G02*
X63800000Y-50125000I0J75000D01*
G01*
X63800000Y-48725000D01*
G75*
G02*
X63875000Y-48650000I75000J0D01*
G01*
X64025000Y-48650000D01*
G75*
G02*
X64100000Y-48725000I0J-75000D01*
G01*
G37*
G36*
G01*
X63600000Y-48725000D02*
X63600000Y-50125000D01*
G75*
G02*
X63525000Y-50200000I-75000J0D01*
G01*
X63375000Y-50200000D01*
G75*
G02*
X63300000Y-50125000I0J75000D01*
G01*
X63300000Y-48725000D01*
G75*
G02*
X63375000Y-48650000I75000J0D01*
G01*
X63525000Y-48650000D01*
G75*
G02*
X63600000Y-48725000I0J-75000D01*
G01*
G37*
G36*
G01*
X63100000Y-48725000D02*
X63100000Y-50125000D01*
G75*
G02*
X63025000Y-50200000I-75000J0D01*
G01*
X62875000Y-50200000D01*
G75*
G02*
X62800000Y-50125000I0J75000D01*
G01*
X62800000Y-48725000D01*
G75*
G02*
X62875000Y-48650000I75000J0D01*
G01*
X63025000Y-48650000D01*
G75*
G02*
X63100000Y-48725000I0J-75000D01*
G01*
G37*
G36*
G01*
X62600000Y-48725000D02*
X62600000Y-50125000D01*
G75*
G02*
X62525000Y-50200000I-75000J0D01*
G01*
X62375000Y-50200000D01*
G75*
G02*
X62300000Y-50125000I0J75000D01*
G01*
X62300000Y-48725000D01*
G75*
G02*
X62375000Y-48650000I75000J0D01*
G01*
X62525000Y-48650000D01*
G75*
G02*
X62600000Y-48725000I0J-75000D01*
G01*
G37*
G36*
G01*
X62100000Y-48725000D02*
X62100000Y-50125000D01*
G75*
G02*
X62025000Y-50200000I-75000J0D01*
G01*
X61875000Y-50200000D01*
G75*
G02*
X61800000Y-50125000I0J75000D01*
G01*
X61800000Y-48725000D01*
G75*
G02*
X61875000Y-48650000I75000J0D01*
G01*
X62025000Y-48650000D01*
G75*
G02*
X62100000Y-48725000I0J-75000D01*
G01*
G37*
G36*
G01*
X61600000Y-48725000D02*
X61600000Y-50125000D01*
G75*
G02*
X61525000Y-50200000I-75000J0D01*
G01*
X61375000Y-50200000D01*
G75*
G02*
X61300000Y-50125000I0J75000D01*
G01*
X61300000Y-48725000D01*
G75*
G02*
X61375000Y-48650000I75000J0D01*
G01*
X61525000Y-48650000D01*
G75*
G02*
X61600000Y-48725000I0J-75000D01*
G01*
G37*
G36*
G01*
X61100000Y-48725000D02*
X61100000Y-50125000D01*
G75*
G02*
X61025000Y-50200000I-75000J0D01*
G01*
X60875000Y-50200000D01*
G75*
G02*
X60800000Y-50125000I0J75000D01*
G01*
X60800000Y-48725000D01*
G75*
G02*
X60875000Y-48650000I75000J0D01*
G01*
X61025000Y-48650000D01*
G75*
G02*
X61100000Y-48725000I0J-75000D01*
G01*
G37*
G36*
G01*
X60600000Y-48725000D02*
X60600000Y-50125000D01*
G75*
G02*
X60525000Y-50200000I-75000J0D01*
G01*
X60375000Y-50200000D01*
G75*
G02*
X60300000Y-50125000I0J75000D01*
G01*
X60300000Y-48725000D01*
G75*
G02*
X60375000Y-48650000I75000J0D01*
G01*
X60525000Y-48650000D01*
G75*
G02*
X60600000Y-48725000I0J-75000D01*
G01*
G37*
G36*
G01*
X60100000Y-48725000D02*
X60100000Y-50125000D01*
G75*
G02*
X60025000Y-50200000I-75000J0D01*
G01*
X59875000Y-50200000D01*
G75*
G02*
X59800000Y-50125000I0J75000D01*
G01*
X59800000Y-48725000D01*
G75*
G02*
X59875000Y-48650000I75000J0D01*
G01*
X60025000Y-48650000D01*
G75*
G02*
X60100000Y-48725000I0J-75000D01*
G01*
G37*
G36*
G01*
X59600000Y-48725000D02*
X59600000Y-50125000D01*
G75*
G02*
X59525000Y-50200000I-75000J0D01*
G01*
X59375000Y-50200000D01*
G75*
G02*
X59300000Y-50125000I0J75000D01*
G01*
X59300000Y-48725000D01*
G75*
G02*
X59375000Y-48650000I75000J0D01*
G01*
X59525000Y-48650000D01*
G75*
G02*
X59600000Y-48725000I0J-75000D01*
G01*
G37*
G36*
G01*
X59100000Y-48725000D02*
X59100000Y-50125000D01*
G75*
G02*
X59025000Y-50200000I-75000J0D01*
G01*
X58875000Y-50200000D01*
G75*
G02*
X58800000Y-50125000I0J75000D01*
G01*
X58800000Y-48725000D01*
G75*
G02*
X58875000Y-48650000I75000J0D01*
G01*
X59025000Y-48650000D01*
G75*
G02*
X59100000Y-48725000I0J-75000D01*
G01*
G37*
G36*
G01*
X57800000Y-51275000D02*
X57800000Y-51425000D01*
G75*
G02*
X57725000Y-51500000I-75000J0D01*
G01*
X56325000Y-51500000D01*
G75*
G02*
X56250000Y-51425000I0J75000D01*
G01*
X56250000Y-51275000D01*
G75*
G02*
X56325000Y-51200000I75000J0D01*
G01*
X57725000Y-51200000D01*
G75*
G02*
X57800000Y-51275000I0J-75000D01*
G01*
G37*
G36*
G01*
X57800000Y-51775000D02*
X57800000Y-51925000D01*
G75*
G02*
X57725000Y-52000000I-75000J0D01*
G01*
X56325000Y-52000000D01*
G75*
G02*
X56250000Y-51925000I0J75000D01*
G01*
X56250000Y-51775000D01*
G75*
G02*
X56325000Y-51700000I75000J0D01*
G01*
X57725000Y-51700000D01*
G75*
G02*
X57800000Y-51775000I0J-75000D01*
G01*
G37*
G36*
G01*
X57800000Y-52275000D02*
X57800000Y-52425000D01*
G75*
G02*
X57725000Y-52500000I-75000J0D01*
G01*
X56325000Y-52500000D01*
G75*
G02*
X56250000Y-52425000I0J75000D01*
G01*
X56250000Y-52275000D01*
G75*
G02*
X56325000Y-52200000I75000J0D01*
G01*
X57725000Y-52200000D01*
G75*
G02*
X57800000Y-52275000I0J-75000D01*
G01*
G37*
G36*
G01*
X57800000Y-52775000D02*
X57800000Y-52925000D01*
G75*
G02*
X57725000Y-53000000I-75000J0D01*
G01*
X56325000Y-53000000D01*
G75*
G02*
X56250000Y-52925000I0J75000D01*
G01*
X56250000Y-52775000D01*
G75*
G02*
X56325000Y-52700000I75000J0D01*
G01*
X57725000Y-52700000D01*
G75*
G02*
X57800000Y-52775000I0J-75000D01*
G01*
G37*
G36*
G01*
X57800000Y-53275000D02*
X57800000Y-53425000D01*
G75*
G02*
X57725000Y-53500000I-75000J0D01*
G01*
X56325000Y-53500000D01*
G75*
G02*
X56250000Y-53425000I0J75000D01*
G01*
X56250000Y-53275000D01*
G75*
G02*
X56325000Y-53200000I75000J0D01*
G01*
X57725000Y-53200000D01*
G75*
G02*
X57800000Y-53275000I0J-75000D01*
G01*
G37*
G36*
G01*
X57800000Y-53775000D02*
X57800000Y-53925000D01*
G75*
G02*
X57725000Y-54000000I-75000J0D01*
G01*
X56325000Y-54000000D01*
G75*
G02*
X56250000Y-53925000I0J75000D01*
G01*
X56250000Y-53775000D01*
G75*
G02*
X56325000Y-53700000I75000J0D01*
G01*
X57725000Y-53700000D01*
G75*
G02*
X57800000Y-53775000I0J-75000D01*
G01*
G37*
G36*
G01*
X57800000Y-54275000D02*
X57800000Y-54425000D01*
G75*
G02*
X57725000Y-54500000I-75000J0D01*
G01*
X56325000Y-54500000D01*
G75*
G02*
X56250000Y-54425000I0J75000D01*
G01*
X56250000Y-54275000D01*
G75*
G02*
X56325000Y-54200000I75000J0D01*
G01*
X57725000Y-54200000D01*
G75*
G02*
X57800000Y-54275000I0J-75000D01*
G01*
G37*
G36*
G01*
X57800000Y-54775000D02*
X57800000Y-54925000D01*
G75*
G02*
X57725000Y-55000000I-75000J0D01*
G01*
X56325000Y-55000000D01*
G75*
G02*
X56250000Y-54925000I0J75000D01*
G01*
X56250000Y-54775000D01*
G75*
G02*
X56325000Y-54700000I75000J0D01*
G01*
X57725000Y-54700000D01*
G75*
G02*
X57800000Y-54775000I0J-75000D01*
G01*
G37*
G36*
G01*
X57800000Y-55275000D02*
X57800000Y-55425000D01*
G75*
G02*
X57725000Y-55500000I-75000J0D01*
G01*
X56325000Y-55500000D01*
G75*
G02*
X56250000Y-55425000I0J75000D01*
G01*
X56250000Y-55275000D01*
G75*
G02*
X56325000Y-55200000I75000J0D01*
G01*
X57725000Y-55200000D01*
G75*
G02*
X57800000Y-55275000I0J-75000D01*
G01*
G37*
G36*
G01*
X57800000Y-55775000D02*
X57800000Y-55925000D01*
G75*
G02*
X57725000Y-56000000I-75000J0D01*
G01*
X56325000Y-56000000D01*
G75*
G02*
X56250000Y-55925000I0J75000D01*
G01*
X56250000Y-55775000D01*
G75*
G02*
X56325000Y-55700000I75000J0D01*
G01*
X57725000Y-55700000D01*
G75*
G02*
X57800000Y-55775000I0J-75000D01*
G01*
G37*
G36*
G01*
X57800000Y-56275000D02*
X57800000Y-56425000D01*
G75*
G02*
X57725000Y-56500000I-75000J0D01*
G01*
X56325000Y-56500000D01*
G75*
G02*
X56250000Y-56425000I0J75000D01*
G01*
X56250000Y-56275000D01*
G75*
G02*
X56325000Y-56200000I75000J0D01*
G01*
X57725000Y-56200000D01*
G75*
G02*
X57800000Y-56275000I0J-75000D01*
G01*
G37*
G36*
G01*
X57800000Y-56775000D02*
X57800000Y-56925000D01*
G75*
G02*
X57725000Y-57000000I-75000J0D01*
G01*
X56325000Y-57000000D01*
G75*
G02*
X56250000Y-56925000I0J75000D01*
G01*
X56250000Y-56775000D01*
G75*
G02*
X56325000Y-56700000I75000J0D01*
G01*
X57725000Y-56700000D01*
G75*
G02*
X57800000Y-56775000I0J-75000D01*
G01*
G37*
G36*
G01*
X57800000Y-57275000D02*
X57800000Y-57425000D01*
G75*
G02*
X57725000Y-57500000I-75000J0D01*
G01*
X56325000Y-57500000D01*
G75*
G02*
X56250000Y-57425000I0J75000D01*
G01*
X56250000Y-57275000D01*
G75*
G02*
X56325000Y-57200000I75000J0D01*
G01*
X57725000Y-57200000D01*
G75*
G02*
X57800000Y-57275000I0J-75000D01*
G01*
G37*
G36*
G01*
X57800000Y-57775000D02*
X57800000Y-57925000D01*
G75*
G02*
X57725000Y-58000000I-75000J0D01*
G01*
X56325000Y-58000000D01*
G75*
G02*
X56250000Y-57925000I0J75000D01*
G01*
X56250000Y-57775000D01*
G75*
G02*
X56325000Y-57700000I75000J0D01*
G01*
X57725000Y-57700000D01*
G75*
G02*
X57800000Y-57775000I0J-75000D01*
G01*
G37*
G36*
G01*
X57800000Y-58275000D02*
X57800000Y-58425000D01*
G75*
G02*
X57725000Y-58500000I-75000J0D01*
G01*
X56325000Y-58500000D01*
G75*
G02*
X56250000Y-58425000I0J75000D01*
G01*
X56250000Y-58275000D01*
G75*
G02*
X56325000Y-58200000I75000J0D01*
G01*
X57725000Y-58200000D01*
G75*
G02*
X57800000Y-58275000I0J-75000D01*
G01*
G37*
G36*
G01*
X57800000Y-58775000D02*
X57800000Y-58925000D01*
G75*
G02*
X57725000Y-59000000I-75000J0D01*
G01*
X56325000Y-59000000D01*
G75*
G02*
X56250000Y-58925000I0J75000D01*
G01*
X56250000Y-58775000D01*
G75*
G02*
X56325000Y-58700000I75000J0D01*
G01*
X57725000Y-58700000D01*
G75*
G02*
X57800000Y-58775000I0J-75000D01*
G01*
G37*
G36*
G01*
X59100000Y-60075000D02*
X59100000Y-61475000D01*
G75*
G02*
X59025000Y-61550000I-75000J0D01*
G01*
X58875000Y-61550000D01*
G75*
G02*
X58800000Y-61475000I0J75000D01*
G01*
X58800000Y-60075000D01*
G75*
G02*
X58875000Y-60000000I75000J0D01*
G01*
X59025000Y-60000000D01*
G75*
G02*
X59100000Y-60075000I0J-75000D01*
G01*
G37*
G36*
G01*
X59600000Y-60075000D02*
X59600000Y-61475000D01*
G75*
G02*
X59525000Y-61550000I-75000J0D01*
G01*
X59375000Y-61550000D01*
G75*
G02*
X59300000Y-61475000I0J75000D01*
G01*
X59300000Y-60075000D01*
G75*
G02*
X59375000Y-60000000I75000J0D01*
G01*
X59525000Y-60000000D01*
G75*
G02*
X59600000Y-60075000I0J-75000D01*
G01*
G37*
G36*
G01*
X60100000Y-60075000D02*
X60100000Y-61475000D01*
G75*
G02*
X60025000Y-61550000I-75000J0D01*
G01*
X59875000Y-61550000D01*
G75*
G02*
X59800000Y-61475000I0J75000D01*
G01*
X59800000Y-60075000D01*
G75*
G02*
X59875000Y-60000000I75000J0D01*
G01*
X60025000Y-60000000D01*
G75*
G02*
X60100000Y-60075000I0J-75000D01*
G01*
G37*
G36*
G01*
X60600000Y-60075000D02*
X60600000Y-61475000D01*
G75*
G02*
X60525000Y-61550000I-75000J0D01*
G01*
X60375000Y-61550000D01*
G75*
G02*
X60300000Y-61475000I0J75000D01*
G01*
X60300000Y-60075000D01*
G75*
G02*
X60375000Y-60000000I75000J0D01*
G01*
X60525000Y-60000000D01*
G75*
G02*
X60600000Y-60075000I0J-75000D01*
G01*
G37*
G36*
G01*
X61100000Y-60075000D02*
X61100000Y-61475000D01*
G75*
G02*
X61025000Y-61550000I-75000J0D01*
G01*
X60875000Y-61550000D01*
G75*
G02*
X60800000Y-61475000I0J75000D01*
G01*
X60800000Y-60075000D01*
G75*
G02*
X60875000Y-60000000I75000J0D01*
G01*
X61025000Y-60000000D01*
G75*
G02*
X61100000Y-60075000I0J-75000D01*
G01*
G37*
G36*
G01*
X61600000Y-60075000D02*
X61600000Y-61475000D01*
G75*
G02*
X61525000Y-61550000I-75000J0D01*
G01*
X61375000Y-61550000D01*
G75*
G02*
X61300000Y-61475000I0J75000D01*
G01*
X61300000Y-60075000D01*
G75*
G02*
X61375000Y-60000000I75000J0D01*
G01*
X61525000Y-60000000D01*
G75*
G02*
X61600000Y-60075000I0J-75000D01*
G01*
G37*
G36*
G01*
X62100000Y-60075000D02*
X62100000Y-61475000D01*
G75*
G02*
X62025000Y-61550000I-75000J0D01*
G01*
X61875000Y-61550000D01*
G75*
G02*
X61800000Y-61475000I0J75000D01*
G01*
X61800000Y-60075000D01*
G75*
G02*
X61875000Y-60000000I75000J0D01*
G01*
X62025000Y-60000000D01*
G75*
G02*
X62100000Y-60075000I0J-75000D01*
G01*
G37*
G36*
G01*
X62600000Y-60075000D02*
X62600000Y-61475000D01*
G75*
G02*
X62525000Y-61550000I-75000J0D01*
G01*
X62375000Y-61550000D01*
G75*
G02*
X62300000Y-61475000I0J75000D01*
G01*
X62300000Y-60075000D01*
G75*
G02*
X62375000Y-60000000I75000J0D01*
G01*
X62525000Y-60000000D01*
G75*
G02*
X62600000Y-60075000I0J-75000D01*
G01*
G37*
G36*
G01*
X63100000Y-60075000D02*
X63100000Y-61475000D01*
G75*
G02*
X63025000Y-61550000I-75000J0D01*
G01*
X62875000Y-61550000D01*
G75*
G02*
X62800000Y-61475000I0J75000D01*
G01*
X62800000Y-60075000D01*
G75*
G02*
X62875000Y-60000000I75000J0D01*
G01*
X63025000Y-60000000D01*
G75*
G02*
X63100000Y-60075000I0J-75000D01*
G01*
G37*
G36*
G01*
X63600000Y-60075000D02*
X63600000Y-61475000D01*
G75*
G02*
X63525000Y-61550000I-75000J0D01*
G01*
X63375000Y-61550000D01*
G75*
G02*
X63300000Y-61475000I0J75000D01*
G01*
X63300000Y-60075000D01*
G75*
G02*
X63375000Y-60000000I75000J0D01*
G01*
X63525000Y-60000000D01*
G75*
G02*
X63600000Y-60075000I0J-75000D01*
G01*
G37*
G36*
G01*
X64100000Y-60075000D02*
X64100000Y-61475000D01*
G75*
G02*
X64025000Y-61550000I-75000J0D01*
G01*
X63875000Y-61550000D01*
G75*
G02*
X63800000Y-61475000I0J75000D01*
G01*
X63800000Y-60075000D01*
G75*
G02*
X63875000Y-60000000I75000J0D01*
G01*
X64025000Y-60000000D01*
G75*
G02*
X64100000Y-60075000I0J-75000D01*
G01*
G37*
G36*
G01*
X64600000Y-60075000D02*
X64600000Y-61475000D01*
G75*
G02*
X64525000Y-61550000I-75000J0D01*
G01*
X64375000Y-61550000D01*
G75*
G02*
X64300000Y-61475000I0J75000D01*
G01*
X64300000Y-60075000D01*
G75*
G02*
X64375000Y-60000000I75000J0D01*
G01*
X64525000Y-60000000D01*
G75*
G02*
X64600000Y-60075000I0J-75000D01*
G01*
G37*
G36*
G01*
X65100000Y-60075000D02*
X65100000Y-61475000D01*
G75*
G02*
X65025000Y-61550000I-75000J0D01*
G01*
X64875000Y-61550000D01*
G75*
G02*
X64800000Y-61475000I0J75000D01*
G01*
X64800000Y-60075000D01*
G75*
G02*
X64875000Y-60000000I75000J0D01*
G01*
X65025000Y-60000000D01*
G75*
G02*
X65100000Y-60075000I0J-75000D01*
G01*
G37*
G36*
G01*
X65600000Y-60075000D02*
X65600000Y-61475000D01*
G75*
G02*
X65525000Y-61550000I-75000J0D01*
G01*
X65375000Y-61550000D01*
G75*
G02*
X65300000Y-61475000I0J75000D01*
G01*
X65300000Y-60075000D01*
G75*
G02*
X65375000Y-60000000I75000J0D01*
G01*
X65525000Y-60000000D01*
G75*
G02*
X65600000Y-60075000I0J-75000D01*
G01*
G37*
G36*
G01*
X66100000Y-60075000D02*
X66100000Y-61475000D01*
G75*
G02*
X66025000Y-61550000I-75000J0D01*
G01*
X65875000Y-61550000D01*
G75*
G02*
X65800000Y-61475000I0J75000D01*
G01*
X65800000Y-60075000D01*
G75*
G02*
X65875000Y-60000000I75000J0D01*
G01*
X66025000Y-60000000D01*
G75*
G02*
X66100000Y-60075000I0J-75000D01*
G01*
G37*
G36*
G01*
X66600000Y-60075000D02*
X66600000Y-61475000D01*
G75*
G02*
X66525000Y-61550000I-75000J0D01*
G01*
X66375000Y-61550000D01*
G75*
G02*
X66300000Y-61475000I0J75000D01*
G01*
X66300000Y-60075000D01*
G75*
G02*
X66375000Y-60000000I75000J0D01*
G01*
X66525000Y-60000000D01*
G75*
G02*
X66600000Y-60075000I0J-75000D01*
G01*
G37*
G36*
G01*
X69150000Y-58775000D02*
X69150000Y-58925000D01*
G75*
G02*
X69075000Y-59000000I-75000J0D01*
G01*
X67675000Y-59000000D01*
G75*
G02*
X67600000Y-58925000I0J75000D01*
G01*
X67600000Y-58775000D01*
G75*
G02*
X67675000Y-58700000I75000J0D01*
G01*
X69075000Y-58700000D01*
G75*
G02*
X69150000Y-58775000I0J-75000D01*
G01*
G37*
G36*
G01*
X69150000Y-58275000D02*
X69150000Y-58425000D01*
G75*
G02*
X69075000Y-58500000I-75000J0D01*
G01*
X67675000Y-58500000D01*
G75*
G02*
X67600000Y-58425000I0J75000D01*
G01*
X67600000Y-58275000D01*
G75*
G02*
X67675000Y-58200000I75000J0D01*
G01*
X69075000Y-58200000D01*
G75*
G02*
X69150000Y-58275000I0J-75000D01*
G01*
G37*
G36*
G01*
X69150000Y-57775000D02*
X69150000Y-57925000D01*
G75*
G02*
X69075000Y-58000000I-75000J0D01*
G01*
X67675000Y-58000000D01*
G75*
G02*
X67600000Y-57925000I0J75000D01*
G01*
X67600000Y-57775000D01*
G75*
G02*
X67675000Y-57700000I75000J0D01*
G01*
X69075000Y-57700000D01*
G75*
G02*
X69150000Y-57775000I0J-75000D01*
G01*
G37*
G36*
G01*
X69150000Y-57275000D02*
X69150000Y-57425000D01*
G75*
G02*
X69075000Y-57500000I-75000J0D01*
G01*
X67675000Y-57500000D01*
G75*
G02*
X67600000Y-57425000I0J75000D01*
G01*
X67600000Y-57275000D01*
G75*
G02*
X67675000Y-57200000I75000J0D01*
G01*
X69075000Y-57200000D01*
G75*
G02*
X69150000Y-57275000I0J-75000D01*
G01*
G37*
G36*
G01*
X69150000Y-56775000D02*
X69150000Y-56925000D01*
G75*
G02*
X69075000Y-57000000I-75000J0D01*
G01*
X67675000Y-57000000D01*
G75*
G02*
X67600000Y-56925000I0J75000D01*
G01*
X67600000Y-56775000D01*
G75*
G02*
X67675000Y-56700000I75000J0D01*
G01*
X69075000Y-56700000D01*
G75*
G02*
X69150000Y-56775000I0J-75000D01*
G01*
G37*
G36*
G01*
X69150000Y-56275000D02*
X69150000Y-56425000D01*
G75*
G02*
X69075000Y-56500000I-75000J0D01*
G01*
X67675000Y-56500000D01*
G75*
G02*
X67600000Y-56425000I0J75000D01*
G01*
X67600000Y-56275000D01*
G75*
G02*
X67675000Y-56200000I75000J0D01*
G01*
X69075000Y-56200000D01*
G75*
G02*
X69150000Y-56275000I0J-75000D01*
G01*
G37*
G36*
G01*
X69150000Y-55775000D02*
X69150000Y-55925000D01*
G75*
G02*
X69075000Y-56000000I-75000J0D01*
G01*
X67675000Y-56000000D01*
G75*
G02*
X67600000Y-55925000I0J75000D01*
G01*
X67600000Y-55775000D01*
G75*
G02*
X67675000Y-55700000I75000J0D01*
G01*
X69075000Y-55700000D01*
G75*
G02*
X69150000Y-55775000I0J-75000D01*
G01*
G37*
G36*
G01*
X69150000Y-55275000D02*
X69150000Y-55425000D01*
G75*
G02*
X69075000Y-55500000I-75000J0D01*
G01*
X67675000Y-55500000D01*
G75*
G02*
X67600000Y-55425000I0J75000D01*
G01*
X67600000Y-55275000D01*
G75*
G02*
X67675000Y-55200000I75000J0D01*
G01*
X69075000Y-55200000D01*
G75*
G02*
X69150000Y-55275000I0J-75000D01*
G01*
G37*
G36*
G01*
X69150000Y-54775000D02*
X69150000Y-54925000D01*
G75*
G02*
X69075000Y-55000000I-75000J0D01*
G01*
X67675000Y-55000000D01*
G75*
G02*
X67600000Y-54925000I0J75000D01*
G01*
X67600000Y-54775000D01*
G75*
G02*
X67675000Y-54700000I75000J0D01*
G01*
X69075000Y-54700000D01*
G75*
G02*
X69150000Y-54775000I0J-75000D01*
G01*
G37*
G36*
G01*
X69150000Y-54275000D02*
X69150000Y-54425000D01*
G75*
G02*
X69075000Y-54500000I-75000J0D01*
G01*
X67675000Y-54500000D01*
G75*
G02*
X67600000Y-54425000I0J75000D01*
G01*
X67600000Y-54275000D01*
G75*
G02*
X67675000Y-54200000I75000J0D01*
G01*
X69075000Y-54200000D01*
G75*
G02*
X69150000Y-54275000I0J-75000D01*
G01*
G37*
G36*
G01*
X69150000Y-53775000D02*
X69150000Y-53925000D01*
G75*
G02*
X69075000Y-54000000I-75000J0D01*
G01*
X67675000Y-54000000D01*
G75*
G02*
X67600000Y-53925000I0J75000D01*
G01*
X67600000Y-53775000D01*
G75*
G02*
X67675000Y-53700000I75000J0D01*
G01*
X69075000Y-53700000D01*
G75*
G02*
X69150000Y-53775000I0J-75000D01*
G01*
G37*
G36*
G01*
X69150000Y-53275000D02*
X69150000Y-53425000D01*
G75*
G02*
X69075000Y-53500000I-75000J0D01*
G01*
X67675000Y-53500000D01*
G75*
G02*
X67600000Y-53425000I0J75000D01*
G01*
X67600000Y-53275000D01*
G75*
G02*
X67675000Y-53200000I75000J0D01*
G01*
X69075000Y-53200000D01*
G75*
G02*
X69150000Y-53275000I0J-75000D01*
G01*
G37*
G36*
G01*
X69150000Y-52775000D02*
X69150000Y-52925000D01*
G75*
G02*
X69075000Y-53000000I-75000J0D01*
G01*
X67675000Y-53000000D01*
G75*
G02*
X67600000Y-52925000I0J75000D01*
G01*
X67600000Y-52775000D01*
G75*
G02*
X67675000Y-52700000I75000J0D01*
G01*
X69075000Y-52700000D01*
G75*
G02*
X69150000Y-52775000I0J-75000D01*
G01*
G37*
G36*
G01*
X69150000Y-52275000D02*
X69150000Y-52425000D01*
G75*
G02*
X69075000Y-52500000I-75000J0D01*
G01*
X67675000Y-52500000D01*
G75*
G02*
X67600000Y-52425000I0J75000D01*
G01*
X67600000Y-52275000D01*
G75*
G02*
X67675000Y-52200000I75000J0D01*
G01*
X69075000Y-52200000D01*
G75*
G02*
X69150000Y-52275000I0J-75000D01*
G01*
G37*
G36*
G01*
X69150000Y-51775000D02*
X69150000Y-51925000D01*
G75*
G02*
X69075000Y-52000000I-75000J0D01*
G01*
X67675000Y-52000000D01*
G75*
G02*
X67600000Y-51925000I0J75000D01*
G01*
X67600000Y-51775000D01*
G75*
G02*
X67675000Y-51700000I75000J0D01*
G01*
X69075000Y-51700000D01*
G75*
G02*
X69150000Y-51775000I0J-75000D01*
G01*
G37*
G36*
G01*
X69150000Y-51275000D02*
X69150000Y-51425000D01*
G75*
G02*
X69075000Y-51500000I-75000J0D01*
G01*
X67675000Y-51500000D01*
G75*
G02*
X67600000Y-51425000I0J75000D01*
G01*
X67600000Y-51275000D01*
G75*
G02*
X67675000Y-51200000I75000J0D01*
G01*
X69075000Y-51200000D01*
G75*
G02*
X69150000Y-51275000I0J-75000D01*
G01*
G37*
G36*
G01*
X20444000Y-55507799D02*
X20444000Y-56407801D01*
G75*
G02*
X20194001Y-56657800I-249999J0D01*
G01*
X19543999Y-56657800D01*
G75*
G02*
X19294000Y-56407801I0J249999D01*
G01*
X19294000Y-55507799D01*
G75*
G02*
X19543999Y-55257800I249999J0D01*
G01*
X20194001Y-55257800D01*
G75*
G02*
X20444000Y-55507799I0J-249999D01*
G01*
G37*
G36*
G01*
X22494000Y-55507799D02*
X22494000Y-56407801D01*
G75*
G02*
X22244001Y-56657800I-249999J0D01*
G01*
X21593999Y-56657800D01*
G75*
G02*
X21344000Y-56407801I0J249999D01*
G01*
X21344000Y-55507799D01*
G75*
G02*
X21593999Y-55257800I249999J0D01*
G01*
X22244001Y-55257800D01*
G75*
G02*
X22494000Y-55507799I0J-249999D01*
G01*
G37*
G36*
G01*
X86400001Y-65050000D02*
X85499999Y-65050000D01*
G75*
G02*
X85250000Y-64800001I0J249999D01*
G01*
X85250000Y-64274999D01*
G75*
G02*
X85499999Y-64025000I249999J0D01*
G01*
X86400001Y-64025000D01*
G75*
G02*
X86650000Y-64274999I0J-249999D01*
G01*
X86650000Y-64800001D01*
G75*
G02*
X86400001Y-65050000I-249999J0D01*
G01*
G37*
G36*
G01*
X86400001Y-66875000D02*
X85499999Y-66875000D01*
G75*
G02*
X85250000Y-66625001I0J249999D01*
G01*
X85250000Y-66099999D01*
G75*
G02*
X85499999Y-65850000I249999J0D01*
G01*
X86400001Y-65850000D01*
G75*
G02*
X86650000Y-66099999I0J-249999D01*
G01*
X86650000Y-66625001D01*
G75*
G02*
X86400001Y-66875000I-249999J0D01*
G01*
G37*
G36*
G01*
X26242600Y-70701000D02*
X27332600Y-70701000D01*
G75*
G02*
X27582600Y-70951000I0J-250000D01*
G01*
X27582600Y-71461000D01*
G75*
G02*
X27332600Y-71711000I-250000J0D01*
G01*
X26242600Y-71711000D01*
G75*
G02*
X25992600Y-71461000I0J250000D01*
G01*
X25992600Y-70951000D01*
G75*
G02*
X26242600Y-70701000I250000J0D01*
G01*
G37*
G36*
G01*
X24342600Y-70701000D02*
X25432600Y-70701000D01*
G75*
G02*
X25682600Y-70951000I0J-250000D01*
G01*
X25682600Y-71461000D01*
G75*
G02*
X25432600Y-71711000I-250000J0D01*
G01*
X24342600Y-71711000D01*
G75*
G02*
X24092600Y-71461000I0J250000D01*
G01*
X24092600Y-70951000D01*
G75*
G02*
X24342600Y-70701000I250000J0D01*
G01*
G37*
G36*
G01*
X26242600Y-69501000D02*
X27332600Y-69501000D01*
G75*
G02*
X27582600Y-69751000I0J-250000D01*
G01*
X27582600Y-70261000D01*
G75*
G02*
X27332600Y-70511000I-250000J0D01*
G01*
X26242600Y-70511000D01*
G75*
G02*
X25992600Y-70261000I0J250000D01*
G01*
X25992600Y-69751000D01*
G75*
G02*
X26242600Y-69501000I250000J0D01*
G01*
G37*
G36*
G01*
X24342600Y-69501000D02*
X25432600Y-69501000D01*
G75*
G02*
X25682600Y-69751000I0J-250000D01*
G01*
X25682600Y-70261000D01*
G75*
G02*
X25432600Y-70511000I-250000J0D01*
G01*
X24342600Y-70511000D01*
G75*
G02*
X24092600Y-70261000I0J250000D01*
G01*
X24092600Y-69751000D01*
G75*
G02*
X24342600Y-69501000I250000J0D01*
G01*
G37*
G36*
G01*
X23782600Y-72106000D02*
X24082600Y-72106000D01*
G75*
G02*
X24232600Y-72256000I0J-150000D01*
G01*
X24232600Y-73906000D01*
G75*
G02*
X24082600Y-74056000I-150000J0D01*
G01*
X23782600Y-74056000D01*
G75*
G02*
X23632600Y-73906000I0J150000D01*
G01*
X23632600Y-72256000D01*
G75*
G02*
X23782600Y-72106000I150000J0D01*
G01*
G37*
G36*
G01*
X25052600Y-72106000D02*
X25352600Y-72106000D01*
G75*
G02*
X25502600Y-72256000I0J-150000D01*
G01*
X25502600Y-73906000D01*
G75*
G02*
X25352600Y-74056000I-150000J0D01*
G01*
X25052600Y-74056000D01*
G75*
G02*
X24902600Y-73906000I0J150000D01*
G01*
X24902600Y-72256000D01*
G75*
G02*
X25052600Y-72106000I150000J0D01*
G01*
G37*
G36*
G01*
X26322600Y-72106000D02*
X26622600Y-72106000D01*
G75*
G02*
X26772600Y-72256000I0J-150000D01*
G01*
X26772600Y-73906000D01*
G75*
G02*
X26622600Y-74056000I-150000J0D01*
G01*
X26322600Y-74056000D01*
G75*
G02*
X26172600Y-73906000I0J150000D01*
G01*
X26172600Y-72256000D01*
G75*
G02*
X26322600Y-72106000I150000J0D01*
G01*
G37*
G36*
G01*
X27592600Y-72106000D02*
X27892600Y-72106000D01*
G75*
G02*
X28042600Y-72256000I0J-150000D01*
G01*
X28042600Y-73906000D01*
G75*
G02*
X27892600Y-74056000I-150000J0D01*
G01*
X27592600Y-74056000D01*
G75*
G02*
X27442600Y-73906000I0J150000D01*
G01*
X27442600Y-72256000D01*
G75*
G02*
X27592600Y-72106000I150000J0D01*
G01*
G37*
G36*
G01*
X27592600Y-67156000D02*
X27892600Y-67156000D01*
G75*
G02*
X28042600Y-67306000I0J-150000D01*
G01*
X28042600Y-68956000D01*
G75*
G02*
X27892600Y-69106000I-150000J0D01*
G01*
X27592600Y-69106000D01*
G75*
G02*
X27442600Y-68956000I0J150000D01*
G01*
X27442600Y-67306000D01*
G75*
G02*
X27592600Y-67156000I150000J0D01*
G01*
G37*
G36*
G01*
X26322600Y-67156000D02*
X26622600Y-67156000D01*
G75*
G02*
X26772600Y-67306000I0J-150000D01*
G01*
X26772600Y-68956000D01*
G75*
G02*
X26622600Y-69106000I-150000J0D01*
G01*
X26322600Y-69106000D01*
G75*
G02*
X26172600Y-68956000I0J150000D01*
G01*
X26172600Y-67306000D01*
G75*
G02*
X26322600Y-67156000I150000J0D01*
G01*
G37*
G36*
G01*
X25052600Y-67156000D02*
X25352600Y-67156000D01*
G75*
G02*
X25502600Y-67306000I0J-150000D01*
G01*
X25502600Y-68956000D01*
G75*
G02*
X25352600Y-69106000I-150000J0D01*
G01*
X25052600Y-69106000D01*
G75*
G02*
X24902600Y-68956000I0J150000D01*
G01*
X24902600Y-67306000D01*
G75*
G02*
X25052600Y-67156000I150000J0D01*
G01*
G37*
G36*
G01*
X23782600Y-67156000D02*
X24082600Y-67156000D01*
G75*
G02*
X24232600Y-67306000I0J-150000D01*
G01*
X24232600Y-68956000D01*
G75*
G02*
X24082600Y-69106000I-150000J0D01*
G01*
X23782600Y-69106000D01*
G75*
G02*
X23632600Y-68956000I0J150000D01*
G01*
X23632600Y-67306000D01*
G75*
G02*
X23782600Y-67156000I150000J0D01*
G01*
G37*
G36*
G01*
X19683600Y-62369201D02*
X19683600Y-61469199D01*
G75*
G02*
X19933599Y-61219200I249999J0D01*
G01*
X20583601Y-61219200D01*
G75*
G02*
X20833600Y-61469199I0J-249999D01*
G01*
X20833600Y-62369201D01*
G75*
G02*
X20583601Y-62619200I-249999J0D01*
G01*
X19933599Y-62619200D01*
G75*
G02*
X19683600Y-62369201I0J249999D01*
G01*
G37*
G36*
G01*
X17633600Y-62369201D02*
X17633600Y-61469199D01*
G75*
G02*
X17883599Y-61219200I249999J0D01*
G01*
X18533601Y-61219200D01*
G75*
G02*
X18783600Y-61469199I0J-249999D01*
G01*
X18783600Y-62369201D01*
G75*
G02*
X18533601Y-62619200I-249999J0D01*
G01*
X17883599Y-62619200D01*
G75*
G02*
X17633600Y-62369201I0J249999D01*
G01*
G37*
G36*
G01*
X19683600Y-60540401D02*
X19683600Y-59640399D01*
G75*
G02*
X19933599Y-59390400I249999J0D01*
G01*
X20583601Y-59390400D01*
G75*
G02*
X20833600Y-59640399I0J-249999D01*
G01*
X20833600Y-60540401D01*
G75*
G02*
X20583601Y-60790400I-249999J0D01*
G01*
X19933599Y-60790400D01*
G75*
G02*
X19683600Y-60540401I0J249999D01*
G01*
G37*
G36*
G01*
X17633600Y-60540401D02*
X17633600Y-59640399D01*
G75*
G02*
X17883599Y-59390400I249999J0D01*
G01*
X18533601Y-59390400D01*
G75*
G02*
X18783600Y-59640399I0J-249999D01*
G01*
X18783600Y-60540401D01*
G75*
G02*
X18533601Y-60790400I-249999J0D01*
G01*
X17883599Y-60790400D01*
G75*
G02*
X17633600Y-60540401I0J249999D01*
G01*
G37*
G36*
G01*
X28130800Y-80290599D02*
X28130800Y-81190601D01*
G75*
G02*
X27880801Y-81440600I-249999J0D01*
G01*
X27230799Y-81440600D01*
G75*
G02*
X26980800Y-81190601I0J249999D01*
G01*
X26980800Y-80290599D01*
G75*
G02*
X27230799Y-80040600I249999J0D01*
G01*
X27880801Y-80040600D01*
G75*
G02*
X28130800Y-80290599I0J-249999D01*
G01*
G37*
G36*
G01*
X30180800Y-80290599D02*
X30180800Y-81190601D01*
G75*
G02*
X29930801Y-81440600I-249999J0D01*
G01*
X29280799Y-81440600D01*
G75*
G02*
X29030800Y-81190601I0J249999D01*
G01*
X29030800Y-80290599D01*
G75*
G02*
X29280799Y-80040600I249999J0D01*
G01*
X29930801Y-80040600D01*
G75*
G02*
X30180800Y-80290599I0J-249999D01*
G01*
G37*
G36*
G01*
X32956799Y-70319400D02*
X33856801Y-70319400D01*
G75*
G02*
X34106800Y-70569399I0J-249999D01*
G01*
X34106800Y-71219401D01*
G75*
G02*
X33856801Y-71469400I-249999J0D01*
G01*
X32956799Y-71469400D01*
G75*
G02*
X32706800Y-71219401I0J249999D01*
G01*
X32706800Y-70569399D01*
G75*
G02*
X32956799Y-70319400I249999J0D01*
G01*
G37*
G36*
G01*
X32956799Y-68269400D02*
X33856801Y-68269400D01*
G75*
G02*
X34106800Y-68519399I0J-249999D01*
G01*
X34106800Y-69169401D01*
G75*
G02*
X33856801Y-69419400I-249999J0D01*
G01*
X32956799Y-69419400D01*
G75*
G02*
X32706800Y-69169401I0J249999D01*
G01*
X32706800Y-68519399D01*
G75*
G02*
X32956799Y-68269400I249999J0D01*
G01*
G37*
G36*
G01*
X28130800Y-77445799D02*
X28130800Y-78345801D01*
G75*
G02*
X27880801Y-78595800I-249999J0D01*
G01*
X27230799Y-78595800D01*
G75*
G02*
X26980800Y-78345801I0J249999D01*
G01*
X26980800Y-77445799D01*
G75*
G02*
X27230799Y-77195800I249999J0D01*
G01*
X27880801Y-77195800D01*
G75*
G02*
X28130800Y-77445799I0J-249999D01*
G01*
G37*
G36*
G01*
X30180800Y-77445799D02*
X30180800Y-78345801D01*
G75*
G02*
X29930801Y-78595800I-249999J0D01*
G01*
X29280799Y-78595800D01*
G75*
G02*
X29030800Y-78345801I0J249999D01*
G01*
X29030800Y-77445799D01*
G75*
G02*
X29280799Y-77195800I249999J0D01*
G01*
X29930801Y-77195800D01*
G75*
G02*
X30180800Y-77445799I0J-249999D01*
G01*
G37*
G36*
G01*
X30950199Y-70370200D02*
X31850201Y-70370200D01*
G75*
G02*
X32100200Y-70620199I0J-249999D01*
G01*
X32100200Y-71270201D01*
G75*
G02*
X31850201Y-71520200I-249999J0D01*
G01*
X30950199Y-71520200D01*
G75*
G02*
X30700200Y-71270201I0J249999D01*
G01*
X30700200Y-70620199D01*
G75*
G02*
X30950199Y-70370200I249999J0D01*
G01*
G37*
G36*
G01*
X30950199Y-68320200D02*
X31850201Y-68320200D01*
G75*
G02*
X32100200Y-68570199I0J-249999D01*
G01*
X32100200Y-69220201D01*
G75*
G02*
X31850201Y-69470200I-249999J0D01*
G01*
X30950199Y-69470200D01*
G75*
G02*
X30700200Y-69220201I0J249999D01*
G01*
X30700200Y-68570199D01*
G75*
G02*
X30950199Y-68320200I249999J0D01*
G01*
G37*
G36*
G01*
X22085600Y-75261399D02*
X22085600Y-76161401D01*
G75*
G02*
X21835601Y-76411400I-249999J0D01*
G01*
X21185599Y-76411400D01*
G75*
G02*
X20935600Y-76161401I0J249999D01*
G01*
X20935600Y-75261399D01*
G75*
G02*
X21185599Y-75011400I249999J0D01*
G01*
X21835601Y-75011400D01*
G75*
G02*
X22085600Y-75261399I0J-249999D01*
G01*
G37*
G36*
G01*
X24135600Y-75261399D02*
X24135600Y-76161401D01*
G75*
G02*
X23885601Y-76411400I-249999J0D01*
G01*
X23235599Y-76411400D01*
G75*
G02*
X22985600Y-76161401I0J249999D01*
G01*
X22985600Y-75261399D01*
G75*
G02*
X23235599Y-75011400I249999J0D01*
G01*
X23885601Y-75011400D01*
G75*
G02*
X24135600Y-75261399I0J-249999D01*
G01*
G37*
D10*
X19894000Y-63707800D03*
X18944000Y-65707800D03*
X20844000Y-65707800D03*
D11*
X31443600Y-63595600D03*
X27343600Y-63595600D03*
D12*
X19335200Y-74155400D03*
X19335200Y-70155400D03*
G36*
G01*
X23030600Y-58220800D02*
X23030600Y-59470800D01*
G75*
G02*
X22780600Y-59720800I-250000J0D01*
G01*
X21855600Y-59720800D01*
G75*
G02*
X21605600Y-59470800I0J250000D01*
G01*
X21605600Y-58220800D01*
G75*
G02*
X21855600Y-57970800I250000J0D01*
G01*
X22780600Y-57970800D01*
G75*
G02*
X23030600Y-58220800I0J-250000D01*
G01*
G37*
G36*
G01*
X26005600Y-58220800D02*
X26005600Y-59470800D01*
G75*
G02*
X25755600Y-59720800I-250000J0D01*
G01*
X24830600Y-59720800D01*
G75*
G02*
X24580600Y-59470800I0J250000D01*
G01*
X24580600Y-58220800D01*
G75*
G02*
X24830600Y-57970800I250000J0D01*
G01*
X25755600Y-57970800D01*
G75*
G02*
X26005600Y-58220800I0J-250000D01*
G01*
G37*
G36*
G01*
X23030600Y-60430600D02*
X23030600Y-61680600D01*
G75*
G02*
X22780600Y-61930600I-250000J0D01*
G01*
X21855600Y-61930600D01*
G75*
G02*
X21605600Y-61680600I0J250000D01*
G01*
X21605600Y-60430600D01*
G75*
G02*
X21855600Y-60180600I250000J0D01*
G01*
X22780600Y-60180600D01*
G75*
G02*
X23030600Y-60430600I0J-250000D01*
G01*
G37*
G36*
G01*
X26005600Y-60430600D02*
X26005600Y-61680600D01*
G75*
G02*
X25755600Y-61930600I-250000J0D01*
G01*
X24830600Y-61930600D01*
G75*
G02*
X24580600Y-61680600I0J250000D01*
G01*
X24580600Y-60430600D01*
G75*
G02*
X24830600Y-60180600I250000J0D01*
G01*
X25755600Y-60180600D01*
G75*
G02*
X26005600Y-60430600I0J-250000D01*
G01*
G37*
G36*
G01*
X24501400Y-80194800D02*
X25751400Y-80194800D01*
G75*
G02*
X26001400Y-80444800I0J-250000D01*
G01*
X26001400Y-81369800D01*
G75*
G02*
X25751400Y-81619800I-250000J0D01*
G01*
X24501400Y-81619800D01*
G75*
G02*
X24251400Y-81369800I0J250000D01*
G01*
X24251400Y-80444800D01*
G75*
G02*
X24501400Y-80194800I250000J0D01*
G01*
G37*
G36*
G01*
X24501400Y-77219800D02*
X25751400Y-77219800D01*
G75*
G02*
X26001400Y-77469800I0J-250000D01*
G01*
X26001400Y-78394800D01*
G75*
G02*
X25751400Y-78644800I-250000J0D01*
G01*
X24501400Y-78644800D01*
G75*
G02*
X24251400Y-78394800I0J250000D01*
G01*
X24251400Y-77469800D01*
G75*
G02*
X24501400Y-77219800I250000J0D01*
G01*
G37*
G36*
G01*
X25870200Y-75312199D02*
X25870200Y-76212201D01*
G75*
G02*
X25620201Y-76462200I-249999J0D01*
G01*
X24970199Y-76462200D01*
G75*
G02*
X24720200Y-76212201I0J249999D01*
G01*
X24720200Y-75312199D01*
G75*
G02*
X24970199Y-75062200I249999J0D01*
G01*
X25620201Y-75062200D01*
G75*
G02*
X25870200Y-75312199I0J-249999D01*
G01*
G37*
G36*
G01*
X27920200Y-75312199D02*
X27920200Y-76212201D01*
G75*
G02*
X27670201Y-76462200I-249999J0D01*
G01*
X27020199Y-76462200D01*
G75*
G02*
X26770200Y-76212201I0J249999D01*
G01*
X26770200Y-75312199D01*
G75*
G02*
X27020199Y-75062200I249999J0D01*
G01*
X27670201Y-75062200D01*
G75*
G02*
X27920200Y-75312199I0J-249999D01*
G01*
G37*
G36*
G01*
X22757001Y-71680000D02*
X21856999Y-71680000D01*
G75*
G02*
X21607000Y-71430001I0J249999D01*
G01*
X21607000Y-70779999D01*
G75*
G02*
X21856999Y-70530000I249999J0D01*
G01*
X22757001Y-70530000D01*
G75*
G02*
X23007000Y-70779999I0J-249999D01*
G01*
X23007000Y-71430001D01*
G75*
G02*
X22757001Y-71680000I-249999J0D01*
G01*
G37*
G36*
G01*
X22757001Y-73730000D02*
X21856999Y-73730000D01*
G75*
G02*
X21607000Y-73480001I0J249999D01*
G01*
X21607000Y-72829999D01*
G75*
G02*
X21856999Y-72580000I249999J0D01*
G01*
X22757001Y-72580000D01*
G75*
G02*
X23007000Y-72829999I0J-249999D01*
G01*
X23007000Y-73480001D01*
G75*
G02*
X22757001Y-73730000I-249999J0D01*
G01*
G37*
G36*
G01*
X28968999Y-69582800D02*
X29869001Y-69582800D01*
G75*
G02*
X30119000Y-69832799I0J-249999D01*
G01*
X30119000Y-70482801D01*
G75*
G02*
X29869001Y-70732800I-249999J0D01*
G01*
X28968999Y-70732800D01*
G75*
G02*
X28719000Y-70482801I0J249999D01*
G01*
X28719000Y-69832799D01*
G75*
G02*
X28968999Y-69582800I249999J0D01*
G01*
G37*
G36*
G01*
X28968999Y-67532800D02*
X29869001Y-67532800D01*
G75*
G02*
X30119000Y-67782799I0J-249999D01*
G01*
X30119000Y-68432801D01*
G75*
G02*
X29869001Y-68682800I-249999J0D01*
G01*
X28968999Y-68682800D01*
G75*
G02*
X28719000Y-68432801I0J249999D01*
G01*
X28719000Y-67782799D01*
G75*
G02*
X28968999Y-67532800I249999J0D01*
G01*
G37*
D13*
X23470000Y-38965000D03*
X23470000Y-33065000D03*
D14*
X21902400Y-47470200D03*
D15*
X23807400Y-50170200D03*
X22537400Y-50170200D03*
X21267400Y-50170200D03*
X19997400Y-50170200D03*
X19997400Y-44770200D03*
X21267400Y-44770200D03*
X22537400Y-44770200D03*
X23807400Y-44770200D03*
G36*
G01*
X175425001Y-48987500D02*
X174574999Y-48987500D01*
G75*
G02*
X174325000Y-48737501I0J249999D01*
G01*
X174325000Y-47662499D01*
G75*
G02*
X174574999Y-47412500I249999J0D01*
G01*
X175425001Y-47412500D01*
G75*
G02*
X175675000Y-47662499I0J-249999D01*
G01*
X175675000Y-48737501D01*
G75*
G02*
X175425001Y-48987500I-249999J0D01*
G01*
G37*
G36*
G01*
X175425001Y-46112500D02*
X174574999Y-46112500D01*
G75*
G02*
X174325000Y-45862501I0J249999D01*
G01*
X174325000Y-44787499D01*
G75*
G02*
X174574999Y-44537500I249999J0D01*
G01*
X175425001Y-44537500D01*
G75*
G02*
X175675000Y-44787499I0J-249999D01*
G01*
X175675000Y-45862501D01*
G75*
G02*
X175425001Y-46112500I-249999J0D01*
G01*
G37*
G36*
G01*
X167025001Y-55287500D02*
X166174999Y-55287500D01*
G75*
G02*
X165925000Y-55037501I0J249999D01*
G01*
X165925000Y-53962499D01*
G75*
G02*
X166174999Y-53712500I249999J0D01*
G01*
X167025001Y-53712500D01*
G75*
G02*
X167275000Y-53962499I0J-249999D01*
G01*
X167275000Y-55037501D01*
G75*
G02*
X167025001Y-55287500I-249999J0D01*
G01*
G37*
G36*
G01*
X167025001Y-52412500D02*
X166174999Y-52412500D01*
G75*
G02*
X165925000Y-52162501I0J249999D01*
G01*
X165925000Y-51087499D01*
G75*
G02*
X166174999Y-50837500I249999J0D01*
G01*
X167025001Y-50837500D01*
G75*
G02*
X167275000Y-51087499I0J-249999D01*
G01*
X167275000Y-52162501D01*
G75*
G02*
X167025001Y-52412500I-249999J0D01*
G01*
G37*
G36*
G01*
X170688000Y-32440000D02*
X169588000Y-32440000D01*
G75*
G02*
X169338000Y-32190000I0J250000D01*
G01*
X169338000Y-29190000D01*
G75*
G02*
X169588000Y-28940000I250000J0D01*
G01*
X170688000Y-28940000D01*
G75*
G02*
X170938000Y-29190000I0J-250000D01*
G01*
X170938000Y-32190000D01*
G75*
G02*
X170688000Y-32440000I-250000J0D01*
G01*
G37*
G36*
G01*
X170688000Y-27040000D02*
X169588000Y-27040000D01*
G75*
G02*
X169338000Y-26790000I0J250000D01*
G01*
X169338000Y-23790000D01*
G75*
G02*
X169588000Y-23540000I250000J0D01*
G01*
X170688000Y-23540000D01*
G75*
G02*
X170938000Y-23790000I0J-250000D01*
G01*
X170938000Y-26790000D01*
G75*
G02*
X170688000Y-27040000I-250000J0D01*
G01*
G37*
G36*
G01*
X163576000Y-32440000D02*
X162476000Y-32440000D01*
G75*
G02*
X162226000Y-32190000I0J250000D01*
G01*
X162226000Y-29190000D01*
G75*
G02*
X162476000Y-28940000I250000J0D01*
G01*
X163576000Y-28940000D01*
G75*
G02*
X163826000Y-29190000I0J-250000D01*
G01*
X163826000Y-32190000D01*
G75*
G02*
X163576000Y-32440000I-250000J0D01*
G01*
G37*
G36*
G01*
X163576000Y-27040000D02*
X162476000Y-27040000D01*
G75*
G02*
X162226000Y-26790000I0J250000D01*
G01*
X162226000Y-23790000D01*
G75*
G02*
X162476000Y-23540000I250000J0D01*
G01*
X163576000Y-23540000D01*
G75*
G02*
X163826000Y-23790000I0J-250000D01*
G01*
X163826000Y-26790000D01*
G75*
G02*
X163576000Y-27040000I-250000J0D01*
G01*
G37*
G36*
G01*
X93550000Y-70900000D02*
X93550000Y-72000000D01*
G75*
G02*
X93300000Y-72250000I-250000J0D01*
G01*
X90300000Y-72250000D01*
G75*
G02*
X90050000Y-72000000I0J250000D01*
G01*
X90050000Y-70900000D01*
G75*
G02*
X90300000Y-70650000I250000J0D01*
G01*
X93300000Y-70650000D01*
G75*
G02*
X93550000Y-70900000I0J-250000D01*
G01*
G37*
G36*
G01*
X88150000Y-70900000D02*
X88150000Y-72000000D01*
G75*
G02*
X87900000Y-72250000I-250000J0D01*
G01*
X84900000Y-72250000D01*
G75*
G02*
X84650000Y-72000000I0J250000D01*
G01*
X84650000Y-70900000D01*
G75*
G02*
X84900000Y-70650000I250000J0D01*
G01*
X87900000Y-70650000D01*
G75*
G02*
X88150000Y-70900000I0J-250000D01*
G01*
G37*
G36*
G01*
X93550000Y-78150000D02*
X93550000Y-79250000D01*
G75*
G02*
X93300000Y-79500000I-250000J0D01*
G01*
X90300000Y-79500000D01*
G75*
G02*
X90050000Y-79250000I0J250000D01*
G01*
X90050000Y-78150000D01*
G75*
G02*
X90300000Y-77900000I250000J0D01*
G01*
X93300000Y-77900000D01*
G75*
G02*
X93550000Y-78150000I0J-250000D01*
G01*
G37*
G36*
G01*
X88150000Y-78150000D02*
X88150000Y-79250000D01*
G75*
G02*
X87900000Y-79500000I-250000J0D01*
G01*
X84900000Y-79500000D01*
G75*
G02*
X84650000Y-79250000I0J250000D01*
G01*
X84650000Y-78150000D01*
G75*
G02*
X84900000Y-77900000I250000J0D01*
G01*
X87900000Y-77900000D01*
G75*
G02*
X88150000Y-78150000I0J-250000D01*
G01*
G37*
G36*
G01*
X93550000Y-85400000D02*
X93550000Y-86500000D01*
G75*
G02*
X93300000Y-86750000I-250000J0D01*
G01*
X90300000Y-86750000D01*
G75*
G02*
X90050000Y-86500000I0J250000D01*
G01*
X90050000Y-85400000D01*
G75*
G02*
X90300000Y-85150000I250000J0D01*
G01*
X93300000Y-85150000D01*
G75*
G02*
X93550000Y-85400000I0J-250000D01*
G01*
G37*
G36*
G01*
X88150000Y-85400000D02*
X88150000Y-86500000D01*
G75*
G02*
X87900000Y-86750000I-250000J0D01*
G01*
X84900000Y-86750000D01*
G75*
G02*
X84650000Y-86500000I0J250000D01*
G01*
X84650000Y-85400000D01*
G75*
G02*
X84900000Y-85150000I250000J0D01*
G01*
X87900000Y-85150000D01*
G75*
G02*
X88150000Y-85400000I0J-250000D01*
G01*
G37*
D16*
X71305000Y-24515000D03*
X80195000Y-32135000D03*
X71305000Y-27055000D03*
X80195000Y-29595000D03*
X71305000Y-29595000D03*
X80195000Y-27055000D03*
X71305000Y-32135000D03*
X80195000Y-24515000D03*
D12*
X28970000Y-46350000D03*
X28970000Y-42350000D03*
G36*
G01*
X19552399Y-53545200D02*
X20452401Y-53545200D01*
G75*
G02*
X20702400Y-53795199I0J-249999D01*
G01*
X20702400Y-54445201D01*
G75*
G02*
X20452401Y-54695200I-249999J0D01*
G01*
X19552399Y-54695200D01*
G75*
G02*
X19302400Y-54445201I0J249999D01*
G01*
X19302400Y-53795199D01*
G75*
G02*
X19552399Y-53545200I249999J0D01*
G01*
G37*
G36*
G01*
X19552399Y-51495200D02*
X20452401Y-51495200D01*
G75*
G02*
X20702400Y-51745199I0J-249999D01*
G01*
X20702400Y-52395201D01*
G75*
G02*
X20452401Y-52645200I-249999J0D01*
G01*
X19552399Y-52645200D01*
G75*
G02*
X19302400Y-52395201I0J249999D01*
G01*
X19302400Y-51745199D01*
G75*
G02*
X19552399Y-51495200I249999J0D01*
G01*
G37*
G36*
G01*
X24252401Y-52645200D02*
X23352399Y-52645200D01*
G75*
G02*
X23102400Y-52395201I0J249999D01*
G01*
X23102400Y-51745199D01*
G75*
G02*
X23352399Y-51495200I249999J0D01*
G01*
X24252401Y-51495200D01*
G75*
G02*
X24502400Y-51745199I0J-249999D01*
G01*
X24502400Y-52395201D01*
G75*
G02*
X24252401Y-52645200I-249999J0D01*
G01*
G37*
G36*
G01*
X24252401Y-54695200D02*
X23352399Y-54695200D01*
G75*
G02*
X23102400Y-54445201I0J249999D01*
G01*
X23102400Y-53795199D01*
G75*
G02*
X23352399Y-53545200I249999J0D01*
G01*
X24252401Y-53545200D01*
G75*
G02*
X24502400Y-53795199I0J-249999D01*
G01*
X24502400Y-54445201D01*
G75*
G02*
X24252401Y-54695200I-249999J0D01*
G01*
G37*
G36*
G01*
X21952400Y-43220201D02*
X21952400Y-42320199D01*
G75*
G02*
X22202399Y-42070200I249999J0D01*
G01*
X22852401Y-42070200D01*
G75*
G02*
X23102400Y-42320199I0J-249999D01*
G01*
X23102400Y-43220201D01*
G75*
G02*
X22852401Y-43470200I-249999J0D01*
G01*
X22202399Y-43470200D01*
G75*
G02*
X21952400Y-43220201I0J249999D01*
G01*
G37*
G36*
G01*
X19902400Y-43220201D02*
X19902400Y-42320199D01*
G75*
G02*
X20152399Y-42070200I249999J0D01*
G01*
X20802401Y-42070200D01*
G75*
G02*
X21052400Y-42320199I0J-249999D01*
G01*
X21052400Y-43220201D01*
G75*
G02*
X20802401Y-43470200I-249999J0D01*
G01*
X20152399Y-43470200D01*
G75*
G02*
X19902400Y-43220201I0J249999D01*
G01*
G37*
G36*
G01*
X21452399Y-53545200D02*
X22352401Y-53545200D01*
G75*
G02*
X22602400Y-53795199I0J-249999D01*
G01*
X22602400Y-54445201D01*
G75*
G02*
X22352401Y-54695200I-249999J0D01*
G01*
X21452399Y-54695200D01*
G75*
G02*
X21202400Y-54445201I0J249999D01*
G01*
X21202400Y-53795199D01*
G75*
G02*
X21452399Y-53545200I249999J0D01*
G01*
G37*
G36*
G01*
X21452399Y-51495200D02*
X22352401Y-51495200D01*
G75*
G02*
X22602400Y-51745199I0J-249999D01*
G01*
X22602400Y-52395201D01*
G75*
G02*
X22352401Y-52645200I-249999J0D01*
G01*
X21452399Y-52645200D01*
G75*
G02*
X21202400Y-52395201I0J249999D01*
G01*
X21202400Y-51745199D01*
G75*
G02*
X21452399Y-51495200I249999J0D01*
G01*
G37*
G36*
G01*
X25126799Y-47961600D02*
X26026801Y-47961600D01*
G75*
G02*
X26276800Y-48211599I0J-249999D01*
G01*
X26276800Y-48861601D01*
G75*
G02*
X26026801Y-49111600I-249999J0D01*
G01*
X25126799Y-49111600D01*
G75*
G02*
X24876800Y-48861601I0J249999D01*
G01*
X24876800Y-48211599D01*
G75*
G02*
X25126799Y-47961600I249999J0D01*
G01*
G37*
G36*
G01*
X25126799Y-45911600D02*
X26026801Y-45911600D01*
G75*
G02*
X26276800Y-46161599I0J-249999D01*
G01*
X26276800Y-46811601D01*
G75*
G02*
X26026801Y-47061600I-249999J0D01*
G01*
X25126799Y-47061600D01*
G75*
G02*
X24876800Y-46811601I0J249999D01*
G01*
X24876800Y-46161599D01*
G75*
G02*
X25126799Y-45911600I249999J0D01*
G01*
G37*
D17*
X97990000Y-29630000D03*
X97990000Y-27090000D03*
X97990000Y-34710000D03*
X97990000Y-37250000D03*
X97990000Y-39790000D03*
X97990000Y-19470000D03*
X97990000Y-24550000D03*
X97990000Y-22010000D03*
X97990000Y-42330000D03*
X97990000Y-32170000D03*
X97990000Y-55030000D03*
X97990000Y-60110000D03*
X97990000Y-52490000D03*
X97990000Y-67730000D03*
X97990000Y-57570000D03*
X97990000Y-44870000D03*
X97990000Y-62650000D03*
X97990000Y-49950000D03*
X97990000Y-65190000D03*
X97990000Y-47410000D03*
X103410000Y-44870000D03*
X103410000Y-49950000D03*
X103410000Y-47410000D03*
X103410000Y-67730000D03*
X103410000Y-52490000D03*
X103410000Y-62650000D03*
X103410000Y-60110000D03*
X103410000Y-55030000D03*
X103410000Y-57570000D03*
X103410000Y-65190000D03*
X103410000Y-42330000D03*
X103410000Y-34710000D03*
X103410000Y-37250000D03*
X103410000Y-39790000D03*
X103410000Y-27090000D03*
X103410000Y-32170000D03*
X103410000Y-29630000D03*
X103410000Y-24550000D03*
X103410000Y-22010000D03*
X103410000Y-19470000D03*
D18*
X180679000Y-15293000D03*
X180679000Y-12493000D03*
G36*
G01*
X54400000Y-46300001D02*
X54400000Y-45399999D01*
G75*
G02*
X54649999Y-45150000I249999J0D01*
G01*
X55300001Y-45150000D01*
G75*
G02*
X55550000Y-45399999I0J-249999D01*
G01*
X55550000Y-46300001D01*
G75*
G02*
X55300001Y-46550000I-249999J0D01*
G01*
X54649999Y-46550000D01*
G75*
G02*
X54400000Y-46300001I0J249999D01*
G01*
G37*
G36*
G01*
X52350000Y-46300001D02*
X52350000Y-45399999D01*
G75*
G02*
X52599999Y-45150000I249999J0D01*
G01*
X53250001Y-45150000D01*
G75*
G02*
X53500000Y-45399999I0J-249999D01*
G01*
X53500000Y-46300001D01*
G75*
G02*
X53250001Y-46550000I-249999J0D01*
G01*
X52599999Y-46550000D01*
G75*
G02*
X52350000Y-46300001I0J249999D01*
G01*
G37*
G36*
G01*
X26000000Y-17399999D02*
X26000000Y-18300001D01*
G75*
G02*
X25750001Y-18550000I-249999J0D01*
G01*
X25099999Y-18550000D01*
G75*
G02*
X24850000Y-18300001I0J249999D01*
G01*
X24850000Y-17399999D01*
G75*
G02*
X25099999Y-17150000I249999J0D01*
G01*
X25750001Y-17150000D01*
G75*
G02*
X26000000Y-17399999I0J-249999D01*
G01*
G37*
G36*
G01*
X28050000Y-17399999D02*
X28050000Y-18300001D01*
G75*
G02*
X27800001Y-18550000I-249999J0D01*
G01*
X27149999Y-18550000D01*
G75*
G02*
X26900000Y-18300001I0J249999D01*
G01*
X26900000Y-17399999D01*
G75*
G02*
X27149999Y-17150000I249999J0D01*
G01*
X27800001Y-17150000D01*
G75*
G02*
X28050000Y-17399999I0J-249999D01*
G01*
G37*
G36*
G01*
X71050000Y-34799999D02*
X71050000Y-35700001D01*
G75*
G02*
X70800001Y-35950000I-249999J0D01*
G01*
X70149999Y-35950000D01*
G75*
G02*
X69900000Y-35700001I0J249999D01*
G01*
X69900000Y-34799999D01*
G75*
G02*
X70149999Y-34550000I249999J0D01*
G01*
X70800001Y-34550000D01*
G75*
G02*
X71050000Y-34799999I0J-249999D01*
G01*
G37*
G36*
G01*
X73100000Y-34799999D02*
X73100000Y-35700001D01*
G75*
G02*
X72850001Y-35950000I-249999J0D01*
G01*
X72199999Y-35950000D01*
G75*
G02*
X71950000Y-35700001I0J249999D01*
G01*
X71950000Y-34799999D01*
G75*
G02*
X72199999Y-34550000I249999J0D01*
G01*
X72850001Y-34550000D01*
G75*
G02*
X73100000Y-34799999I0J-249999D01*
G01*
G37*
D19*
X191050000Y-45525000D03*
X191050000Y-44875000D03*
X191050000Y-44225000D03*
X191050000Y-43575000D03*
X191050000Y-42925000D03*
X191050000Y-42275000D03*
X191050000Y-41625000D03*
X191050000Y-40975000D03*
X191050000Y-40325000D03*
X191050000Y-39675000D03*
X191050000Y-39025000D03*
X191050000Y-38375000D03*
X191050000Y-37725000D03*
X191050000Y-37075000D03*
X183850000Y-37075000D03*
X183850000Y-37725000D03*
X183850000Y-38375000D03*
X183850000Y-39025000D03*
X183850000Y-39675000D03*
X183850000Y-40325000D03*
X183850000Y-40975000D03*
X183850000Y-41625000D03*
X183850000Y-42275000D03*
X183850000Y-42925000D03*
X183850000Y-43575000D03*
X183850000Y-44225000D03*
X183850000Y-44875000D03*
X183850000Y-45525000D03*
G36*
G01*
X91160000Y-31150000D02*
X90860000Y-31150000D01*
G75*
G02*
X90710000Y-31000000I0J150000D01*
G01*
X90710000Y-29350000D01*
G75*
G02*
X90860000Y-29200000I150000J0D01*
G01*
X91160000Y-29200000D01*
G75*
G02*
X91310000Y-29350000I0J-150000D01*
G01*
X91310000Y-31000000D01*
G75*
G02*
X91160000Y-31150000I-150000J0D01*
G01*
G37*
G36*
G01*
X89890000Y-31150000D02*
X89590000Y-31150000D01*
G75*
G02*
X89440000Y-31000000I0J150000D01*
G01*
X89440000Y-29350000D01*
G75*
G02*
X89590000Y-29200000I150000J0D01*
G01*
X89890000Y-29200000D01*
G75*
G02*
X90040000Y-29350000I0J-150000D01*
G01*
X90040000Y-31000000D01*
G75*
G02*
X89890000Y-31150000I-150000J0D01*
G01*
G37*
G36*
G01*
X88620000Y-31150000D02*
X88320000Y-31150000D01*
G75*
G02*
X88170000Y-31000000I0J150000D01*
G01*
X88170000Y-29350000D01*
G75*
G02*
X88320000Y-29200000I150000J0D01*
G01*
X88620000Y-29200000D01*
G75*
G02*
X88770000Y-29350000I0J-150000D01*
G01*
X88770000Y-31000000D01*
G75*
G02*
X88620000Y-31150000I-150000J0D01*
G01*
G37*
G36*
G01*
X87350000Y-31150000D02*
X87050000Y-31150000D01*
G75*
G02*
X86900000Y-31000000I0J150000D01*
G01*
X86900000Y-29350000D01*
G75*
G02*
X87050000Y-29200000I150000J0D01*
G01*
X87350000Y-29200000D01*
G75*
G02*
X87500000Y-29350000I0J-150000D01*
G01*
X87500000Y-31000000D01*
G75*
G02*
X87350000Y-31150000I-150000J0D01*
G01*
G37*
G36*
G01*
X86080000Y-31150000D02*
X85780000Y-31150000D01*
G75*
G02*
X85630000Y-31000000I0J150000D01*
G01*
X85630000Y-29350000D01*
G75*
G02*
X85780000Y-29200000I150000J0D01*
G01*
X86080000Y-29200000D01*
G75*
G02*
X86230000Y-29350000I0J-150000D01*
G01*
X86230000Y-31000000D01*
G75*
G02*
X86080000Y-31150000I-150000J0D01*
G01*
G37*
G36*
G01*
X84810000Y-31150000D02*
X84510000Y-31150000D01*
G75*
G02*
X84360000Y-31000000I0J150000D01*
G01*
X84360000Y-29350000D01*
G75*
G02*
X84510000Y-29200000I150000J0D01*
G01*
X84810000Y-29200000D01*
G75*
G02*
X84960000Y-29350000I0J-150000D01*
G01*
X84960000Y-31000000D01*
G75*
G02*
X84810000Y-31150000I-150000J0D01*
G01*
G37*
G36*
G01*
X83540000Y-31150000D02*
X83240000Y-31150000D01*
G75*
G02*
X83090000Y-31000000I0J150000D01*
G01*
X83090000Y-29350000D01*
G75*
G02*
X83240000Y-29200000I150000J0D01*
G01*
X83540000Y-29200000D01*
G75*
G02*
X83690000Y-29350000I0J-150000D01*
G01*
X83690000Y-31000000D01*
G75*
G02*
X83540000Y-31150000I-150000J0D01*
G01*
G37*
G36*
G01*
X83540000Y-26200000D02*
X83240000Y-26200000D01*
G75*
G02*
X83090000Y-26050000I0J150000D01*
G01*
X83090000Y-24400000D01*
G75*
G02*
X83240000Y-24250000I150000J0D01*
G01*
X83540000Y-24250000D01*
G75*
G02*
X83690000Y-24400000I0J-150000D01*
G01*
X83690000Y-26050000D01*
G75*
G02*
X83540000Y-26200000I-150000J0D01*
G01*
G37*
G36*
G01*
X84810000Y-26200000D02*
X84510000Y-26200000D01*
G75*
G02*
X84360000Y-26050000I0J150000D01*
G01*
X84360000Y-24400000D01*
G75*
G02*
X84510000Y-24250000I150000J0D01*
G01*
X84810000Y-24250000D01*
G75*
G02*
X84960000Y-24400000I0J-150000D01*
G01*
X84960000Y-26050000D01*
G75*
G02*
X84810000Y-26200000I-150000J0D01*
G01*
G37*
G36*
G01*
X86080000Y-26200000D02*
X85780000Y-26200000D01*
G75*
G02*
X85630000Y-26050000I0J150000D01*
G01*
X85630000Y-24400000D01*
G75*
G02*
X85780000Y-24250000I150000J0D01*
G01*
X86080000Y-24250000D01*
G75*
G02*
X86230000Y-24400000I0J-150000D01*
G01*
X86230000Y-26050000D01*
G75*
G02*
X86080000Y-26200000I-150000J0D01*
G01*
G37*
G36*
G01*
X87350000Y-26200000D02*
X87050000Y-26200000D01*
G75*
G02*
X86900000Y-26050000I0J150000D01*
G01*
X86900000Y-24400000D01*
G75*
G02*
X87050000Y-24250000I150000J0D01*
G01*
X87350000Y-24250000D01*
G75*
G02*
X87500000Y-24400000I0J-150000D01*
G01*
X87500000Y-26050000D01*
G75*
G02*
X87350000Y-26200000I-150000J0D01*
G01*
G37*
G36*
G01*
X88620000Y-26200000D02*
X88320000Y-26200000D01*
G75*
G02*
X88170000Y-26050000I0J150000D01*
G01*
X88170000Y-24400000D01*
G75*
G02*
X88320000Y-24250000I150000J0D01*
G01*
X88620000Y-24250000D01*
G75*
G02*
X88770000Y-24400000I0J-150000D01*
G01*
X88770000Y-26050000D01*
G75*
G02*
X88620000Y-26200000I-150000J0D01*
G01*
G37*
G36*
G01*
X89890000Y-26200000D02*
X89590000Y-26200000D01*
G75*
G02*
X89440000Y-26050000I0J150000D01*
G01*
X89440000Y-24400000D01*
G75*
G02*
X89590000Y-24250000I150000J0D01*
G01*
X89890000Y-24250000D01*
G75*
G02*
X90040000Y-24400000I0J-150000D01*
G01*
X90040000Y-26050000D01*
G75*
G02*
X89890000Y-26200000I-150000J0D01*
G01*
G37*
G36*
G01*
X91160000Y-26200000D02*
X90860000Y-26200000D01*
G75*
G02*
X90710000Y-26050000I0J150000D01*
G01*
X90710000Y-24400000D01*
G75*
G02*
X90860000Y-24250000I150000J0D01*
G01*
X91160000Y-24250000D01*
G75*
G02*
X91310000Y-24400000I0J-150000D01*
G01*
X91310000Y-26050000D01*
G75*
G02*
X91160000Y-26200000I-150000J0D01*
G01*
G37*
D20*
X52650000Y-31200000D03*
X51700000Y-31200000D03*
X50750000Y-31200000D03*
X50750000Y-29000000D03*
X52650000Y-29000000D03*
X51700000Y-29000000D03*
G36*
G01*
X31750000Y-30855000D02*
X31750000Y-30555000D01*
G75*
G02*
X31900000Y-30405000I150000J0D01*
G01*
X33550000Y-30405000D01*
G75*
G02*
X33700000Y-30555000I0J-150000D01*
G01*
X33700000Y-30855000D01*
G75*
G02*
X33550000Y-31005000I-150000J0D01*
G01*
X31900000Y-31005000D01*
G75*
G02*
X31750000Y-30855000I0J150000D01*
G01*
G37*
G36*
G01*
X31750000Y-29585000D02*
X31750000Y-29285000D01*
G75*
G02*
X31900000Y-29135000I150000J0D01*
G01*
X33550000Y-29135000D01*
G75*
G02*
X33700000Y-29285000I0J-150000D01*
G01*
X33700000Y-29585000D01*
G75*
G02*
X33550000Y-29735000I-150000J0D01*
G01*
X31900000Y-29735000D01*
G75*
G02*
X31750000Y-29585000I0J150000D01*
G01*
G37*
G36*
G01*
X31750000Y-28315000D02*
X31750000Y-28015000D01*
G75*
G02*
X31900000Y-27865000I150000J0D01*
G01*
X33550000Y-27865000D01*
G75*
G02*
X33700000Y-28015000I0J-150000D01*
G01*
X33700000Y-28315000D01*
G75*
G02*
X33550000Y-28465000I-150000J0D01*
G01*
X31900000Y-28465000D01*
G75*
G02*
X31750000Y-28315000I0J150000D01*
G01*
G37*
G36*
G01*
X31750000Y-27045000D02*
X31750000Y-26745000D01*
G75*
G02*
X31900000Y-26595000I150000J0D01*
G01*
X33550000Y-26595000D01*
G75*
G02*
X33700000Y-26745000I0J-150000D01*
G01*
X33700000Y-27045000D01*
G75*
G02*
X33550000Y-27195000I-150000J0D01*
G01*
X31900000Y-27195000D01*
G75*
G02*
X31750000Y-27045000I0J150000D01*
G01*
G37*
G36*
G01*
X36700000Y-27045000D02*
X36700000Y-26745000D01*
G75*
G02*
X36850000Y-26595000I150000J0D01*
G01*
X38500000Y-26595000D01*
G75*
G02*
X38650000Y-26745000I0J-150000D01*
G01*
X38650000Y-27045000D01*
G75*
G02*
X38500000Y-27195000I-150000J0D01*
G01*
X36850000Y-27195000D01*
G75*
G02*
X36700000Y-27045000I0J150000D01*
G01*
G37*
G36*
G01*
X36700000Y-28315000D02*
X36700000Y-28015000D01*
G75*
G02*
X36850000Y-27865000I150000J0D01*
G01*
X38500000Y-27865000D01*
G75*
G02*
X38650000Y-28015000I0J-150000D01*
G01*
X38650000Y-28315000D01*
G75*
G02*
X38500000Y-28465000I-150000J0D01*
G01*
X36850000Y-28465000D01*
G75*
G02*
X36700000Y-28315000I0J150000D01*
G01*
G37*
G36*
G01*
X36700000Y-29585000D02*
X36700000Y-29285000D01*
G75*
G02*
X36850000Y-29135000I150000J0D01*
G01*
X38500000Y-29135000D01*
G75*
G02*
X38650000Y-29285000I0J-150000D01*
G01*
X38650000Y-29585000D01*
G75*
G02*
X38500000Y-29735000I-150000J0D01*
G01*
X36850000Y-29735000D01*
G75*
G02*
X36700000Y-29585000I0J150000D01*
G01*
G37*
G36*
G01*
X36700000Y-30855000D02*
X36700000Y-30555000D01*
G75*
G02*
X36850000Y-30405000I150000J0D01*
G01*
X38500000Y-30405000D01*
G75*
G02*
X38650000Y-30555000I0J-150000D01*
G01*
X38650000Y-30855000D01*
G75*
G02*
X38500000Y-31005000I-150000J0D01*
G01*
X36850000Y-31005000D01*
G75*
G02*
X36700000Y-30855000I0J150000D01*
G01*
G37*
X91950000Y-66600000D03*
X91000000Y-66600000D03*
X90050000Y-66600000D03*
X90050000Y-64400000D03*
X91950000Y-64400000D03*
X91000000Y-64400000D03*
D21*
X171400000Y-48250000D03*
D22*
X171400000Y-54550000D03*
X169100000Y-54550000D03*
X173700000Y-54550000D03*
G36*
G01*
X88200000Y-61649999D02*
X88200000Y-62550001D01*
G75*
G02*
X87950001Y-62800000I-249999J0D01*
G01*
X87299999Y-62800000D01*
G75*
G02*
X87050000Y-62550001I0J249999D01*
G01*
X87050000Y-61649999D01*
G75*
G02*
X87299999Y-61400000I249999J0D01*
G01*
X87950001Y-61400000D01*
G75*
G02*
X88200000Y-61649999I0J-249999D01*
G01*
G37*
G36*
G01*
X90250000Y-61649999D02*
X90250000Y-62550001D01*
G75*
G02*
X90000001Y-62800000I-249999J0D01*
G01*
X89349999Y-62800000D01*
G75*
G02*
X89100000Y-62550001I0J249999D01*
G01*
X89100000Y-61649999D01*
G75*
G02*
X89349999Y-61400000I249999J0D01*
G01*
X90000001Y-61400000D01*
G75*
G02*
X90250000Y-61649999I0J-249999D01*
G01*
G37*
G36*
G01*
X75200000Y-65900001D02*
X75200000Y-64999999D01*
G75*
G02*
X75449999Y-64750000I249999J0D01*
G01*
X76100001Y-64750000D01*
G75*
G02*
X76350000Y-64999999I0J-249999D01*
G01*
X76350000Y-65900001D01*
G75*
G02*
X76100001Y-66150000I-249999J0D01*
G01*
X75449999Y-66150000D01*
G75*
G02*
X75200000Y-65900001I0J249999D01*
G01*
G37*
G36*
G01*
X73150000Y-65900001D02*
X73150000Y-64999999D01*
G75*
G02*
X73399999Y-64750000I249999J0D01*
G01*
X74050001Y-64750000D01*
G75*
G02*
X74300000Y-64999999I0J-249999D01*
G01*
X74300000Y-65900001D01*
G75*
G02*
X74050001Y-66150000I-249999J0D01*
G01*
X73399999Y-66150000D01*
G75*
G02*
X73150000Y-65900001I0J249999D01*
G01*
G37*
D18*
X178393000Y-15293000D03*
X178393000Y-12493000D03*
X193125000Y-15293000D03*
X193125000Y-12493000D03*
X195538000Y-15293000D03*
X195538000Y-12493000D03*
X203450000Y-25450000D03*
X203450000Y-28250000D03*
X206200000Y-25450000D03*
X206200000Y-28250000D03*
D23*
X195350000Y-43900000D03*
X195350000Y-46100000D03*
X197050000Y-46100000D03*
X197050000Y-43900000D03*
X79673000Y-55800000D03*
X79673000Y-53600000D03*
X77973000Y-53600000D03*
X77973000Y-55800000D03*
G36*
G01*
X107950000Y-18700001D02*
X107950000Y-17799999D01*
G75*
G02*
X108199999Y-17550000I249999J0D01*
G01*
X108850001Y-17550000D01*
G75*
G02*
X109100000Y-17799999I0J-249999D01*
G01*
X109100000Y-18700001D01*
G75*
G02*
X108850001Y-18950000I-249999J0D01*
G01*
X108199999Y-18950000D01*
G75*
G02*
X107950000Y-18700001I0J249999D01*
G01*
G37*
G36*
G01*
X105900000Y-18700001D02*
X105900000Y-17799999D01*
G75*
G02*
X106149999Y-17550000I249999J0D01*
G01*
X106800001Y-17550000D01*
G75*
G02*
X107050000Y-17799999I0J-249999D01*
G01*
X107050000Y-18700001D01*
G75*
G02*
X106800001Y-18950000I-249999J0D01*
G01*
X106149999Y-18950000D01*
G75*
G02*
X105900000Y-18700001I0J249999D01*
G01*
G37*
G36*
G01*
X180650000Y-44400001D02*
X180650000Y-43499999D01*
G75*
G02*
X180899999Y-43250000I249999J0D01*
G01*
X181550001Y-43250000D01*
G75*
G02*
X181800000Y-43499999I0J-249999D01*
G01*
X181800000Y-44400001D01*
G75*
G02*
X181550001Y-44650000I-249999J0D01*
G01*
X180899999Y-44650000D01*
G75*
G02*
X180650000Y-44400001I0J249999D01*
G01*
G37*
G36*
G01*
X178600000Y-44400001D02*
X178600000Y-43499999D01*
G75*
G02*
X178849999Y-43250000I249999J0D01*
G01*
X179500001Y-43250000D01*
G75*
G02*
X179750000Y-43499999I0J-249999D01*
G01*
X179750000Y-44400001D01*
G75*
G02*
X179500001Y-44650000I-249999J0D01*
G01*
X178849999Y-44650000D01*
G75*
G02*
X178600000Y-44400001I0J249999D01*
G01*
G37*
G36*
G01*
X107950000Y-25950001D02*
X107950000Y-25049999D01*
G75*
G02*
X108199999Y-24800000I249999J0D01*
G01*
X108850001Y-24800000D01*
G75*
G02*
X109100000Y-25049999I0J-249999D01*
G01*
X109100000Y-25950001D01*
G75*
G02*
X108850001Y-26200000I-249999J0D01*
G01*
X108199999Y-26200000D01*
G75*
G02*
X107950000Y-25950001I0J249999D01*
G01*
G37*
G36*
G01*
X105900000Y-25950001D02*
X105900000Y-25049999D01*
G75*
G02*
X106149999Y-24800000I249999J0D01*
G01*
X106800001Y-24800000D01*
G75*
G02*
X107050000Y-25049999I0J-249999D01*
G01*
X107050000Y-25950001D01*
G75*
G02*
X106800001Y-26200000I-249999J0D01*
G01*
X106149999Y-26200000D01*
G75*
G02*
X105900000Y-25950001I0J249999D01*
G01*
G37*
G36*
G01*
X107950000Y-53450001D02*
X107950000Y-52549999D01*
G75*
G02*
X108199999Y-52300000I249999J0D01*
G01*
X108850001Y-52300000D01*
G75*
G02*
X109100000Y-52549999I0J-249999D01*
G01*
X109100000Y-53450001D01*
G75*
G02*
X108850001Y-53700000I-249999J0D01*
G01*
X108199999Y-53700000D01*
G75*
G02*
X107950000Y-53450001I0J249999D01*
G01*
G37*
G36*
G01*
X105900000Y-53450001D02*
X105900000Y-52549999D01*
G75*
G02*
X106149999Y-52300000I249999J0D01*
G01*
X106800001Y-52300000D01*
G75*
G02*
X107050000Y-52549999I0J-249999D01*
G01*
X107050000Y-53450001D01*
G75*
G02*
X106800001Y-53700000I-249999J0D01*
G01*
X106149999Y-53700000D01*
G75*
G02*
X105900000Y-53450001I0J249999D01*
G01*
G37*
G36*
G01*
X182260999Y-14733000D02*
X183161001Y-14733000D01*
G75*
G02*
X183411000Y-14982999I0J-249999D01*
G01*
X183411000Y-15633001D01*
G75*
G02*
X183161001Y-15883000I-249999J0D01*
G01*
X182260999Y-15883000D01*
G75*
G02*
X182011000Y-15633001I0J249999D01*
G01*
X182011000Y-14982999D01*
G75*
G02*
X182260999Y-14733000I249999J0D01*
G01*
G37*
G36*
G01*
X182260999Y-12683000D02*
X183161001Y-12683000D01*
G75*
G02*
X183411000Y-12932999I0J-249999D01*
G01*
X183411000Y-13583001D01*
G75*
G02*
X183161001Y-13833000I-249999J0D01*
G01*
X182260999Y-13833000D01*
G75*
G02*
X182011000Y-13583001I0J249999D01*
G01*
X182011000Y-12932999D01*
G75*
G02*
X182260999Y-12683000I249999J0D01*
G01*
G37*
G36*
G01*
X178400000Y-18749999D02*
X178400000Y-19650001D01*
G75*
G02*
X178150001Y-19900000I-249999J0D01*
G01*
X177499999Y-19900000D01*
G75*
G02*
X177250000Y-19650001I0J249999D01*
G01*
X177250000Y-18749999D01*
G75*
G02*
X177499999Y-18500000I249999J0D01*
G01*
X178150001Y-18500000D01*
G75*
G02*
X178400000Y-18749999I0J-249999D01*
G01*
G37*
G36*
G01*
X180450000Y-18749999D02*
X180450000Y-19650001D01*
G75*
G02*
X180200001Y-19900000I-249999J0D01*
G01*
X179549999Y-19900000D01*
G75*
G02*
X179300000Y-19650001I0J249999D01*
G01*
X179300000Y-18749999D01*
G75*
G02*
X179549999Y-18500000I249999J0D01*
G01*
X180200001Y-18500000D01*
G75*
G02*
X180450000Y-18749999I0J-249999D01*
G01*
G37*
G36*
G01*
X162067999Y-20693000D02*
X162968001Y-20693000D01*
G75*
G02*
X163218000Y-20942999I0J-249999D01*
G01*
X163218000Y-21593001D01*
G75*
G02*
X162968001Y-21843000I-249999J0D01*
G01*
X162067999Y-21843000D01*
G75*
G02*
X161818000Y-21593001I0J249999D01*
G01*
X161818000Y-20942999D01*
G75*
G02*
X162067999Y-20693000I249999J0D01*
G01*
G37*
G36*
G01*
X162067999Y-18643000D02*
X162968001Y-18643000D01*
G75*
G02*
X163218000Y-18892999I0J-249999D01*
G01*
X163218000Y-19543001D01*
G75*
G02*
X162968001Y-19793000I-249999J0D01*
G01*
X162067999Y-19793000D01*
G75*
G02*
X161818000Y-19543001I0J249999D01*
G01*
X161818000Y-18892999D01*
G75*
G02*
X162067999Y-18643000I249999J0D01*
G01*
G37*
G36*
G01*
X178750000Y-34499999D02*
X178750000Y-35400001D01*
G75*
G02*
X178500001Y-35650000I-249999J0D01*
G01*
X177849999Y-35650000D01*
G75*
G02*
X177600000Y-35400001I0J249999D01*
G01*
X177600000Y-34499999D01*
G75*
G02*
X177849999Y-34250000I249999J0D01*
G01*
X178500001Y-34250000D01*
G75*
G02*
X178750000Y-34499999I0J-249999D01*
G01*
G37*
G36*
G01*
X180800000Y-34499999D02*
X180800000Y-35400001D01*
G75*
G02*
X180550001Y-35650000I-249999J0D01*
G01*
X179899999Y-35650000D01*
G75*
G02*
X179650000Y-35400001I0J249999D01*
G01*
X179650000Y-34499999D01*
G75*
G02*
X179899999Y-34250000I249999J0D01*
G01*
X180550001Y-34250000D01*
G75*
G02*
X180800000Y-34499999I0J-249999D01*
G01*
G37*
G36*
G01*
X178750000Y-32599999D02*
X178750000Y-33500001D01*
G75*
G02*
X178500001Y-33750000I-249999J0D01*
G01*
X177849999Y-33750000D01*
G75*
G02*
X177600000Y-33500001I0J249999D01*
G01*
X177600000Y-32599999D01*
G75*
G02*
X177849999Y-32350000I249999J0D01*
G01*
X178500001Y-32350000D01*
G75*
G02*
X178750000Y-32599999I0J-249999D01*
G01*
G37*
G36*
G01*
X180800000Y-32599999D02*
X180800000Y-33500001D01*
G75*
G02*
X180550001Y-33750000I-249999J0D01*
G01*
X179899999Y-33750000D01*
G75*
G02*
X179650000Y-33500001I0J249999D01*
G01*
X179650000Y-32599999D01*
G75*
G02*
X179899999Y-32350000I249999J0D01*
G01*
X180550001Y-32350000D01*
G75*
G02*
X180800000Y-32599999I0J-249999D01*
G01*
G37*
G36*
G01*
X183000000Y-23450001D02*
X183000000Y-22549999D01*
G75*
G02*
X183249999Y-22300000I249999J0D01*
G01*
X183900001Y-22300000D01*
G75*
G02*
X184150000Y-22549999I0J-249999D01*
G01*
X184150000Y-23450001D01*
G75*
G02*
X183900001Y-23700000I-249999J0D01*
G01*
X183249999Y-23700000D01*
G75*
G02*
X183000000Y-23450001I0J249999D01*
G01*
G37*
G36*
G01*
X180950000Y-23450001D02*
X180950000Y-22549999D01*
G75*
G02*
X181199999Y-22300000I249999J0D01*
G01*
X181850001Y-22300000D01*
G75*
G02*
X182100000Y-22549999I0J-249999D01*
G01*
X182100000Y-23450001D01*
G75*
G02*
X181850001Y-23700000I-249999J0D01*
G01*
X181199999Y-23700000D01*
G75*
G02*
X180950000Y-23450001I0J249999D01*
G01*
G37*
G36*
G01*
X194300000Y-21550001D02*
X194300000Y-20649999D01*
G75*
G02*
X194549999Y-20400000I249999J0D01*
G01*
X195200001Y-20400000D01*
G75*
G02*
X195450000Y-20649999I0J-249999D01*
G01*
X195450000Y-21550001D01*
G75*
G02*
X195200001Y-21800000I-249999J0D01*
G01*
X194549999Y-21800000D01*
G75*
G02*
X194300000Y-21550001I0J249999D01*
G01*
G37*
G36*
G01*
X192250000Y-21550001D02*
X192250000Y-20649999D01*
G75*
G02*
X192499999Y-20400000I249999J0D01*
G01*
X193150001Y-20400000D01*
G75*
G02*
X193400000Y-20649999I0J-249999D01*
G01*
X193400000Y-21550001D01*
G75*
G02*
X193150001Y-21800000I-249999J0D01*
G01*
X192499999Y-21800000D01*
G75*
G02*
X192250000Y-21550001I0J249999D01*
G01*
G37*
G36*
G01*
X183000000Y-21550001D02*
X183000000Y-20649999D01*
G75*
G02*
X183249999Y-20400000I249999J0D01*
G01*
X183900001Y-20400000D01*
G75*
G02*
X184150000Y-20649999I0J-249999D01*
G01*
X184150000Y-21550001D01*
G75*
G02*
X183900001Y-21800000I-249999J0D01*
G01*
X183249999Y-21800000D01*
G75*
G02*
X183000000Y-21550001I0J249999D01*
G01*
G37*
G36*
G01*
X180950000Y-21550001D02*
X180950000Y-20649999D01*
G75*
G02*
X181199999Y-20400000I249999J0D01*
G01*
X181850001Y-20400000D01*
G75*
G02*
X182100000Y-20649999I0J-249999D01*
G01*
X182100000Y-21550001D01*
G75*
G02*
X181850001Y-21800000I-249999J0D01*
G01*
X181199999Y-21800000D01*
G75*
G02*
X180950000Y-21550001I0J249999D01*
G01*
G37*
G36*
G01*
X198000000Y-19650001D02*
X198000000Y-18749999D01*
G75*
G02*
X198249999Y-18500000I249999J0D01*
G01*
X198900001Y-18500000D01*
G75*
G02*
X199150000Y-18749999I0J-249999D01*
G01*
X199150000Y-19650001D01*
G75*
G02*
X198900001Y-19900000I-249999J0D01*
G01*
X198249999Y-19900000D01*
G75*
G02*
X198000000Y-19650001I0J249999D01*
G01*
G37*
G36*
G01*
X195950000Y-19650001D02*
X195950000Y-18749999D01*
G75*
G02*
X196199999Y-18500000I249999J0D01*
G01*
X196850001Y-18500000D01*
G75*
G02*
X197100000Y-18749999I0J-249999D01*
G01*
X197100000Y-19650001D01*
G75*
G02*
X196850001Y-19900000I-249999J0D01*
G01*
X196199999Y-19900000D01*
G75*
G02*
X195950000Y-19650001I0J249999D01*
G01*
G37*
G36*
G01*
X178400000Y-22549999D02*
X178400000Y-23450001D01*
G75*
G02*
X178150001Y-23700000I-249999J0D01*
G01*
X177499999Y-23700000D01*
G75*
G02*
X177250000Y-23450001I0J249999D01*
G01*
X177250000Y-22549999D01*
G75*
G02*
X177499999Y-22300000I249999J0D01*
G01*
X178150001Y-22300000D01*
G75*
G02*
X178400000Y-22549999I0J-249999D01*
G01*
G37*
G36*
G01*
X180450000Y-22549999D02*
X180450000Y-23450001D01*
G75*
G02*
X180200001Y-23700000I-249999J0D01*
G01*
X179549999Y-23700000D01*
G75*
G02*
X179300000Y-23450001I0J249999D01*
G01*
X179300000Y-22549999D01*
G75*
G02*
X179549999Y-22300000I249999J0D01*
G01*
X180200001Y-22300000D01*
G75*
G02*
X180450000Y-22549999I0J-249999D01*
G01*
G37*
G36*
G01*
X183000000Y-19650001D02*
X183000000Y-18749999D01*
G75*
G02*
X183249999Y-18500000I249999J0D01*
G01*
X183900001Y-18500000D01*
G75*
G02*
X184150000Y-18749999I0J-249999D01*
G01*
X184150000Y-19650001D01*
G75*
G02*
X183900001Y-19900000I-249999J0D01*
G01*
X183249999Y-19900000D01*
G75*
G02*
X183000000Y-19650001I0J249999D01*
G01*
G37*
G36*
G01*
X180950000Y-19650001D02*
X180950000Y-18749999D01*
G75*
G02*
X181199999Y-18500000I249999J0D01*
G01*
X181850001Y-18500000D01*
G75*
G02*
X182100000Y-18749999I0J-249999D01*
G01*
X182100000Y-19650001D01*
G75*
G02*
X181850001Y-19900000I-249999J0D01*
G01*
X181199999Y-19900000D01*
G75*
G02*
X180950000Y-19650001I0J249999D01*
G01*
G37*
G36*
G01*
X197100000Y-20649999D02*
X197100000Y-21550001D01*
G75*
G02*
X196850001Y-21800000I-249999J0D01*
G01*
X196199999Y-21800000D01*
G75*
G02*
X195950000Y-21550001I0J249999D01*
G01*
X195950000Y-20649999D01*
G75*
G02*
X196199999Y-20400000I249999J0D01*
G01*
X196850001Y-20400000D01*
G75*
G02*
X197100000Y-20649999I0J-249999D01*
G01*
G37*
G36*
G01*
X199150000Y-20649999D02*
X199150000Y-21550001D01*
G75*
G02*
X198900001Y-21800000I-249999J0D01*
G01*
X198249999Y-21800000D01*
G75*
G02*
X198000000Y-21550001I0J249999D01*
G01*
X198000000Y-20649999D01*
G75*
G02*
X198249999Y-20400000I249999J0D01*
G01*
X198900001Y-20400000D01*
G75*
G02*
X199150000Y-20649999I0J-249999D01*
G01*
G37*
G36*
G01*
X198000000Y-17750001D02*
X198000000Y-16849999D01*
G75*
G02*
X198249999Y-16600000I249999J0D01*
G01*
X198900001Y-16600000D01*
G75*
G02*
X199150000Y-16849999I0J-249999D01*
G01*
X199150000Y-17750001D01*
G75*
G02*
X198900001Y-18000000I-249999J0D01*
G01*
X198249999Y-18000000D01*
G75*
G02*
X198000000Y-17750001I0J249999D01*
G01*
G37*
G36*
G01*
X195950000Y-17750001D02*
X195950000Y-16849999D01*
G75*
G02*
X196199999Y-16600000I249999J0D01*
G01*
X196850001Y-16600000D01*
G75*
G02*
X197100000Y-16849999I0J-249999D01*
G01*
X197100000Y-17750001D01*
G75*
G02*
X196850001Y-18000000I-249999J0D01*
G01*
X196199999Y-18000000D01*
G75*
G02*
X195950000Y-17750001I0J249999D01*
G01*
G37*
G36*
G01*
X75250000Y-21299999D02*
X75250000Y-22200001D01*
G75*
G02*
X75000001Y-22450000I-249999J0D01*
G01*
X74349999Y-22450000D01*
G75*
G02*
X74100000Y-22200001I0J249999D01*
G01*
X74100000Y-21299999D01*
G75*
G02*
X74349999Y-21050000I249999J0D01*
G01*
X75000001Y-21050000D01*
G75*
G02*
X75250000Y-21299999I0J-249999D01*
G01*
G37*
G36*
G01*
X77300000Y-21299999D02*
X77300000Y-22200001D01*
G75*
G02*
X77050001Y-22450000I-249999J0D01*
G01*
X76399999Y-22450000D01*
G75*
G02*
X76150000Y-22200001I0J249999D01*
G01*
X76150000Y-21299999D01*
G75*
G02*
X76399999Y-21050000I249999J0D01*
G01*
X77050001Y-21050000D01*
G75*
G02*
X77300000Y-21299999I0J-249999D01*
G01*
G37*
G36*
G01*
X66700000Y-26699999D02*
X66700000Y-27600001D01*
G75*
G02*
X66450001Y-27850000I-249999J0D01*
G01*
X65799999Y-27850000D01*
G75*
G02*
X65550000Y-27600001I0J249999D01*
G01*
X65550000Y-26699999D01*
G75*
G02*
X65799999Y-26450000I249999J0D01*
G01*
X66450001Y-26450000D01*
G75*
G02*
X66700000Y-26699999I0J-249999D01*
G01*
G37*
G36*
G01*
X68750000Y-26699999D02*
X68750000Y-27600001D01*
G75*
G02*
X68500001Y-27850000I-249999J0D01*
G01*
X67849999Y-27850000D01*
G75*
G02*
X67600000Y-27600001I0J249999D01*
G01*
X67600000Y-26699999D01*
G75*
G02*
X67849999Y-26450000I249999J0D01*
G01*
X68500001Y-26450000D01*
G75*
G02*
X68750000Y-26699999I0J-249999D01*
G01*
G37*
G36*
G01*
X88600001Y-15750000D02*
X87699999Y-15750000D01*
G75*
G02*
X87450000Y-15500001I0J249999D01*
G01*
X87450000Y-14849999D01*
G75*
G02*
X87699999Y-14600000I249999J0D01*
G01*
X88600001Y-14600000D01*
G75*
G02*
X88850000Y-14849999I0J-249999D01*
G01*
X88850000Y-15500001D01*
G75*
G02*
X88600001Y-15750000I-249999J0D01*
G01*
G37*
G36*
G01*
X88600001Y-17800000D02*
X87699999Y-17800000D01*
G75*
G02*
X87450000Y-17550001I0J249999D01*
G01*
X87450000Y-16899999D01*
G75*
G02*
X87699999Y-16650000I249999J0D01*
G01*
X88600001Y-16650000D01*
G75*
G02*
X88850000Y-16899999I0J-249999D01*
G01*
X88850000Y-17550001D01*
G75*
G02*
X88600001Y-17800000I-249999J0D01*
G01*
G37*
G36*
G01*
X86700001Y-15750000D02*
X85799999Y-15750000D01*
G75*
G02*
X85550000Y-15500001I0J249999D01*
G01*
X85550000Y-14849999D01*
G75*
G02*
X85799999Y-14600000I249999J0D01*
G01*
X86700001Y-14600000D01*
G75*
G02*
X86950000Y-14849999I0J-249999D01*
G01*
X86950000Y-15500001D01*
G75*
G02*
X86700001Y-15750000I-249999J0D01*
G01*
G37*
G36*
G01*
X86700001Y-17800000D02*
X85799999Y-17800000D01*
G75*
G02*
X85550000Y-17550001I0J249999D01*
G01*
X85550000Y-16899999D01*
G75*
G02*
X85799999Y-16650000I249999J0D01*
G01*
X86700001Y-16650000D01*
G75*
G02*
X86950000Y-16899999I0J-249999D01*
G01*
X86950000Y-17550001D01*
G75*
G02*
X86700001Y-17800000I-249999J0D01*
G01*
G37*
G36*
G01*
X85799999Y-21600000D02*
X86700001Y-21600000D01*
G75*
G02*
X86950000Y-21849999I0J-249999D01*
G01*
X86950000Y-22500001D01*
G75*
G02*
X86700001Y-22750000I-249999J0D01*
G01*
X85799999Y-22750000D01*
G75*
G02*
X85550000Y-22500001I0J249999D01*
G01*
X85550000Y-21849999D01*
G75*
G02*
X85799999Y-21600000I249999J0D01*
G01*
G37*
G36*
G01*
X85799999Y-19550000D02*
X86700001Y-19550000D01*
G75*
G02*
X86950000Y-19799999I0J-249999D01*
G01*
X86950000Y-20450001D01*
G75*
G02*
X86700001Y-20700000I-249999J0D01*
G01*
X85799999Y-20700000D01*
G75*
G02*
X85550000Y-20450001I0J249999D01*
G01*
X85550000Y-19799999D01*
G75*
G02*
X85799999Y-19550000I249999J0D01*
G01*
G37*
G36*
G01*
X88600001Y-20700000D02*
X87699999Y-20700000D01*
G75*
G02*
X87450000Y-20450001I0J249999D01*
G01*
X87450000Y-19799999D01*
G75*
G02*
X87699999Y-19550000I249999J0D01*
G01*
X88600001Y-19550000D01*
G75*
G02*
X88850000Y-19799999I0J-249999D01*
G01*
X88850000Y-20450001D01*
G75*
G02*
X88600001Y-20700000I-249999J0D01*
G01*
G37*
G36*
G01*
X88600001Y-22750000D02*
X87699999Y-22750000D01*
G75*
G02*
X87450000Y-22500001I0J249999D01*
G01*
X87450000Y-21849999D01*
G75*
G02*
X87699999Y-21600000I249999J0D01*
G01*
X88600001Y-21600000D01*
G75*
G02*
X88850000Y-21849999I0J-249999D01*
G01*
X88850000Y-22500001D01*
G75*
G02*
X88600001Y-22750000I-249999J0D01*
G01*
G37*
G36*
G01*
X107050000Y-64749999D02*
X107050000Y-65650001D01*
G75*
G02*
X106800001Y-65900000I-249999J0D01*
G01*
X106149999Y-65900000D01*
G75*
G02*
X105900000Y-65650001I0J249999D01*
G01*
X105900000Y-64749999D01*
G75*
G02*
X106149999Y-64500000I249999J0D01*
G01*
X106800001Y-64500000D01*
G75*
G02*
X107050000Y-64749999I0J-249999D01*
G01*
G37*
G36*
G01*
X109100000Y-64749999D02*
X109100000Y-65650001D01*
G75*
G02*
X108850001Y-65900000I-249999J0D01*
G01*
X108199999Y-65900000D01*
G75*
G02*
X107950000Y-65650001I0J249999D01*
G01*
X107950000Y-64749999D01*
G75*
G02*
X108199999Y-64500000I249999J0D01*
G01*
X108850001Y-64500000D01*
G75*
G02*
X109100000Y-64749999I0J-249999D01*
G01*
G37*
G36*
G01*
X84600000Y-37400001D02*
X84600000Y-36499999D01*
G75*
G02*
X84849999Y-36250000I249999J0D01*
G01*
X85500001Y-36250000D01*
G75*
G02*
X85750000Y-36499999I0J-249999D01*
G01*
X85750000Y-37400001D01*
G75*
G02*
X85500001Y-37650000I-249999J0D01*
G01*
X84849999Y-37650000D01*
G75*
G02*
X84600000Y-37400001I0J249999D01*
G01*
G37*
G36*
G01*
X82550000Y-37400001D02*
X82550000Y-36499999D01*
G75*
G02*
X82799999Y-36250000I249999J0D01*
G01*
X83450001Y-36250000D01*
G75*
G02*
X83700000Y-36499999I0J-249999D01*
G01*
X83700000Y-37400001D01*
G75*
G02*
X83450001Y-37650000I-249999J0D01*
G01*
X82799999Y-37650000D01*
G75*
G02*
X82550000Y-37400001I0J249999D01*
G01*
G37*
G36*
G01*
X83700001Y-33700000D02*
X82799999Y-33700000D01*
G75*
G02*
X82550000Y-33450001I0J249999D01*
G01*
X82550000Y-32799999D01*
G75*
G02*
X82799999Y-32550000I249999J0D01*
G01*
X83700001Y-32550000D01*
G75*
G02*
X83950000Y-32799999I0J-249999D01*
G01*
X83950000Y-33450001D01*
G75*
G02*
X83700001Y-33700000I-249999J0D01*
G01*
G37*
G36*
G01*
X83700001Y-35750000D02*
X82799999Y-35750000D01*
G75*
G02*
X82550000Y-35500001I0J249999D01*
G01*
X82550000Y-34849999D01*
G75*
G02*
X82799999Y-34600000I249999J0D01*
G01*
X83700001Y-34600000D01*
G75*
G02*
X83950000Y-34849999I0J-249999D01*
G01*
X83950000Y-35500001D01*
G75*
G02*
X83700001Y-35750000I-249999J0D01*
G01*
G37*
G36*
G01*
X107050000Y-62199999D02*
X107050000Y-63100001D01*
G75*
G02*
X106800001Y-63350000I-249999J0D01*
G01*
X106149999Y-63350000D01*
G75*
G02*
X105900000Y-63100001I0J249999D01*
G01*
X105900000Y-62199999D01*
G75*
G02*
X106149999Y-61950000I249999J0D01*
G01*
X106800001Y-61950000D01*
G75*
G02*
X107050000Y-62199999I0J-249999D01*
G01*
G37*
G36*
G01*
X109100000Y-62199999D02*
X109100000Y-63100001D01*
G75*
G02*
X108850001Y-63350000I-249999J0D01*
G01*
X108199999Y-63350000D01*
G75*
G02*
X107950000Y-63100001I0J249999D01*
G01*
X107950000Y-62199999D01*
G75*
G02*
X108199999Y-61950000I249999J0D01*
G01*
X108850001Y-61950000D01*
G75*
G02*
X109100000Y-62199999I0J-249999D01*
G01*
G37*
G36*
G01*
X50750000Y-56899999D02*
X50750000Y-57800001D01*
G75*
G02*
X50500001Y-58050000I-249999J0D01*
G01*
X49849999Y-58050000D01*
G75*
G02*
X49600000Y-57800001I0J249999D01*
G01*
X49600000Y-56899999D01*
G75*
G02*
X49849999Y-56650000I249999J0D01*
G01*
X50500001Y-56650000D01*
G75*
G02*
X50750000Y-56899999I0J-249999D01*
G01*
G37*
G36*
G01*
X52800000Y-56899999D02*
X52800000Y-57800001D01*
G75*
G02*
X52550001Y-58050000I-249999J0D01*
G01*
X51899999Y-58050000D01*
G75*
G02*
X51650000Y-57800001I0J249999D01*
G01*
X51650000Y-56899999D01*
G75*
G02*
X51899999Y-56650000I249999J0D01*
G01*
X52550001Y-56650000D01*
G75*
G02*
X52800000Y-56899999I0J-249999D01*
G01*
G37*
G36*
G01*
X107950000Y-55500001D02*
X107950000Y-54599999D01*
G75*
G02*
X108199999Y-54350000I249999J0D01*
G01*
X108850001Y-54350000D01*
G75*
G02*
X109100000Y-54599999I0J-249999D01*
G01*
X109100000Y-55500001D01*
G75*
G02*
X108850001Y-55750000I-249999J0D01*
G01*
X108199999Y-55750000D01*
G75*
G02*
X107950000Y-55500001I0J249999D01*
G01*
G37*
G36*
G01*
X105900000Y-55500001D02*
X105900000Y-54599999D01*
G75*
G02*
X106149999Y-54350000I249999J0D01*
G01*
X106800001Y-54350000D01*
G75*
G02*
X107050000Y-54599999I0J-249999D01*
G01*
X107050000Y-55500001D01*
G75*
G02*
X106800001Y-55750000I-249999J0D01*
G01*
X106149999Y-55750000D01*
G75*
G02*
X105900000Y-55500001I0J249999D01*
G01*
G37*
G36*
G01*
X35670000Y-25550001D02*
X35670000Y-24649999D01*
G75*
G02*
X35919999Y-24400000I249999J0D01*
G01*
X36570001Y-24400000D01*
G75*
G02*
X36820000Y-24649999I0J-249999D01*
G01*
X36820000Y-25550001D01*
G75*
G02*
X36570001Y-25800000I-249999J0D01*
G01*
X35919999Y-25800000D01*
G75*
G02*
X35670000Y-25550001I0J249999D01*
G01*
G37*
G36*
G01*
X33620000Y-25550001D02*
X33620000Y-24649999D01*
G75*
G02*
X33869999Y-24400000I249999J0D01*
G01*
X34520001Y-24400000D01*
G75*
G02*
X34770000Y-24649999I0J-249999D01*
G01*
X34770000Y-25550001D01*
G75*
G02*
X34520001Y-25800000I-249999J0D01*
G01*
X33869999Y-25800000D01*
G75*
G02*
X33620000Y-25550001I0J249999D01*
G01*
G37*
G36*
G01*
X54400000Y-50800001D02*
X54400000Y-49899999D01*
G75*
G02*
X54649999Y-49650000I249999J0D01*
G01*
X55300001Y-49650000D01*
G75*
G02*
X55550000Y-49899999I0J-249999D01*
G01*
X55550000Y-50800001D01*
G75*
G02*
X55300001Y-51050000I-249999J0D01*
G01*
X54649999Y-51050000D01*
G75*
G02*
X54400000Y-50800001I0J249999D01*
G01*
G37*
G36*
G01*
X52350000Y-50800001D02*
X52350000Y-49899999D01*
G75*
G02*
X52599999Y-49650000I249999J0D01*
G01*
X53250001Y-49650000D01*
G75*
G02*
X53500000Y-49899999I0J-249999D01*
G01*
X53500000Y-50800001D01*
G75*
G02*
X53250001Y-51050000I-249999J0D01*
G01*
X52599999Y-51050000D01*
G75*
G02*
X52350000Y-50800001I0J249999D01*
G01*
G37*
G36*
G01*
X74300000Y-57399999D02*
X74300000Y-58300001D01*
G75*
G02*
X74050001Y-58550000I-249999J0D01*
G01*
X73399999Y-58550000D01*
G75*
G02*
X73150000Y-58300001I0J249999D01*
G01*
X73150000Y-57399999D01*
G75*
G02*
X73399999Y-57150000I249999J0D01*
G01*
X74050001Y-57150000D01*
G75*
G02*
X74300000Y-57399999I0J-249999D01*
G01*
G37*
G36*
G01*
X76350000Y-57399999D02*
X76350000Y-58300001D01*
G75*
G02*
X76100001Y-58550000I-249999J0D01*
G01*
X75449999Y-58550000D01*
G75*
G02*
X75200000Y-58300001I0J249999D01*
G01*
X75200000Y-57399999D01*
G75*
G02*
X75449999Y-57150000I249999J0D01*
G01*
X76100001Y-57150000D01*
G75*
G02*
X76350000Y-57399999I0J-249999D01*
G01*
G37*
G36*
G01*
X107050000Y-59649999D02*
X107050000Y-60550001D01*
G75*
G02*
X106800001Y-60800000I-249999J0D01*
G01*
X106149999Y-60800000D01*
G75*
G02*
X105900000Y-60550001I0J249999D01*
G01*
X105900000Y-59649999D01*
G75*
G02*
X106149999Y-59400000I249999J0D01*
G01*
X106800001Y-59400000D01*
G75*
G02*
X107050000Y-59649999I0J-249999D01*
G01*
G37*
G36*
G01*
X109100000Y-59649999D02*
X109100000Y-60550001D01*
G75*
G02*
X108850001Y-60800000I-249999J0D01*
G01*
X108199999Y-60800000D01*
G75*
G02*
X107950000Y-60550001I0J249999D01*
G01*
X107950000Y-59649999D01*
G75*
G02*
X108199999Y-59400000I249999J0D01*
G01*
X108850001Y-59400000D01*
G75*
G02*
X109100000Y-59649999I0J-249999D01*
G01*
G37*
G36*
G01*
X95700001Y-27000000D02*
X94799999Y-27000000D01*
G75*
G02*
X94550000Y-26750001I0J249999D01*
G01*
X94550000Y-26099999D01*
G75*
G02*
X94799999Y-25850000I249999J0D01*
G01*
X95700001Y-25850000D01*
G75*
G02*
X95950000Y-26099999I0J-249999D01*
G01*
X95950000Y-26750001D01*
G75*
G02*
X95700001Y-27000000I-249999J0D01*
G01*
G37*
G36*
G01*
X95700001Y-29050000D02*
X94799999Y-29050000D01*
G75*
G02*
X94550000Y-28800001I0J249999D01*
G01*
X94550000Y-28149999D01*
G75*
G02*
X94799999Y-27900000I249999J0D01*
G01*
X95700001Y-27900000D01*
G75*
G02*
X95950000Y-28149999I0J-249999D01*
G01*
X95950000Y-28800001D01*
G75*
G02*
X95700001Y-29050000I-249999J0D01*
G01*
G37*
G36*
G01*
X107950000Y-32050001D02*
X107950000Y-31149999D01*
G75*
G02*
X108199999Y-30900000I249999J0D01*
G01*
X108850001Y-30900000D01*
G75*
G02*
X109100000Y-31149999I0J-249999D01*
G01*
X109100000Y-32050001D01*
G75*
G02*
X108850001Y-32300000I-249999J0D01*
G01*
X108199999Y-32300000D01*
G75*
G02*
X107950000Y-32050001I0J249999D01*
G01*
G37*
G36*
G01*
X105900000Y-32050001D02*
X105900000Y-31149999D01*
G75*
G02*
X106149999Y-30900000I249999J0D01*
G01*
X106800001Y-30900000D01*
G75*
G02*
X107050000Y-31149999I0J-249999D01*
G01*
X107050000Y-32050001D01*
G75*
G02*
X106800001Y-32300000I-249999J0D01*
G01*
X106149999Y-32300000D01*
G75*
G02*
X105900000Y-32050001I0J249999D01*
G01*
G37*
G36*
G01*
X192849999Y-46150000D02*
X193750001Y-46150000D01*
G75*
G02*
X194000000Y-46399999I0J-249999D01*
G01*
X194000000Y-47050001D01*
G75*
G02*
X193750001Y-47300000I-249999J0D01*
G01*
X192849999Y-47300000D01*
G75*
G02*
X192600000Y-47050001I0J249999D01*
G01*
X192600000Y-46399999D01*
G75*
G02*
X192849999Y-46150000I249999J0D01*
G01*
G37*
G36*
G01*
X192849999Y-44100000D02*
X193750001Y-44100000D01*
G75*
G02*
X194000000Y-44349999I0J-249999D01*
G01*
X194000000Y-45000001D01*
G75*
G02*
X193750001Y-45250000I-249999J0D01*
G01*
X192849999Y-45250000D01*
G75*
G02*
X192600000Y-45000001I0J249999D01*
G01*
X192600000Y-44349999D01*
G75*
G02*
X192849999Y-44100000I249999J0D01*
G01*
G37*
G36*
G01*
X193750001Y-41600000D02*
X192849999Y-41600000D01*
G75*
G02*
X192600000Y-41350001I0J249999D01*
G01*
X192600000Y-40699999D01*
G75*
G02*
X192849999Y-40450000I249999J0D01*
G01*
X193750001Y-40450000D01*
G75*
G02*
X194000000Y-40699999I0J-249999D01*
G01*
X194000000Y-41350001D01*
G75*
G02*
X193750001Y-41600000I-249999J0D01*
G01*
G37*
G36*
G01*
X193750001Y-43650000D02*
X192849999Y-43650000D01*
G75*
G02*
X192600000Y-43400001I0J249999D01*
G01*
X192600000Y-42749999D01*
G75*
G02*
X192849999Y-42500000I249999J0D01*
G01*
X193750001Y-42500000D01*
G75*
G02*
X194000000Y-42749999I0J-249999D01*
G01*
X194000000Y-43400001D01*
G75*
G02*
X193750001Y-43650000I-249999J0D01*
G01*
G37*
G36*
G01*
X189750000Y-33550001D02*
X189750000Y-32649999D01*
G75*
G02*
X189999999Y-32400000I249999J0D01*
G01*
X190650001Y-32400000D01*
G75*
G02*
X190900000Y-32649999I0J-249999D01*
G01*
X190900000Y-33550001D01*
G75*
G02*
X190650001Y-33800000I-249999J0D01*
G01*
X189999999Y-33800000D01*
G75*
G02*
X189750000Y-33550001I0J249999D01*
G01*
G37*
G36*
G01*
X187700000Y-33550001D02*
X187700000Y-32649999D01*
G75*
G02*
X187949999Y-32400000I249999J0D01*
G01*
X188600001Y-32400000D01*
G75*
G02*
X188850000Y-32649999I0J-249999D01*
G01*
X188850000Y-33550001D01*
G75*
G02*
X188600001Y-33800000I-249999J0D01*
G01*
X187949999Y-33800000D01*
G75*
G02*
X187700000Y-33550001I0J249999D01*
G01*
G37*
G36*
G01*
X214850001Y-44300000D02*
X213949999Y-44300000D01*
G75*
G02*
X213700000Y-44050001I0J249999D01*
G01*
X213700000Y-43399999D01*
G75*
G02*
X213949999Y-43150000I249999J0D01*
G01*
X214850001Y-43150000D01*
G75*
G02*
X215100000Y-43399999I0J-249999D01*
G01*
X215100000Y-44050001D01*
G75*
G02*
X214850001Y-44300000I-249999J0D01*
G01*
G37*
G36*
G01*
X214850001Y-46350000D02*
X213949999Y-46350000D01*
G75*
G02*
X213700000Y-46100001I0J249999D01*
G01*
X213700000Y-45449999D01*
G75*
G02*
X213949999Y-45200000I249999J0D01*
G01*
X214850001Y-45200000D01*
G75*
G02*
X215100000Y-45449999I0J-249999D01*
G01*
X215100000Y-46100001D01*
G75*
G02*
X214850001Y-46350000I-249999J0D01*
G01*
G37*
G36*
G01*
X213949999Y-30900000D02*
X214850001Y-30900000D01*
G75*
G02*
X215100000Y-31149999I0J-249999D01*
G01*
X215100000Y-31800001D01*
G75*
G02*
X214850001Y-32050000I-249999J0D01*
G01*
X213949999Y-32050000D01*
G75*
G02*
X213700000Y-31800001I0J249999D01*
G01*
X213700000Y-31149999D01*
G75*
G02*
X213949999Y-30900000I249999J0D01*
G01*
G37*
G36*
G01*
X213949999Y-28850000D02*
X214850001Y-28850000D01*
G75*
G02*
X215100000Y-29099999I0J-249999D01*
G01*
X215100000Y-29750001D01*
G75*
G02*
X214850001Y-30000000I-249999J0D01*
G01*
X213949999Y-30000000D01*
G75*
G02*
X213700000Y-29750001I0J249999D01*
G01*
X213700000Y-29099999D01*
G75*
G02*
X213949999Y-28850000I249999J0D01*
G01*
G37*
G36*
G01*
X179300000Y-21550001D02*
X179300000Y-20649999D01*
G75*
G02*
X179549999Y-20400000I249999J0D01*
G01*
X180200001Y-20400000D01*
G75*
G02*
X180450000Y-20649999I0J-249999D01*
G01*
X180450000Y-21550001D01*
G75*
G02*
X180200001Y-21800000I-249999J0D01*
G01*
X179549999Y-21800000D01*
G75*
G02*
X179300000Y-21550001I0J249999D01*
G01*
G37*
G36*
G01*
X177250000Y-21550001D02*
X177250000Y-20649999D01*
G75*
G02*
X177499999Y-20400000I249999J0D01*
G01*
X178150001Y-20400000D01*
G75*
G02*
X178400000Y-20649999I0J-249999D01*
G01*
X178400000Y-21550001D01*
G75*
G02*
X178150001Y-21800000I-249999J0D01*
G01*
X177499999Y-21800000D01*
G75*
G02*
X177250000Y-21550001I0J249999D01*
G01*
G37*
G36*
G01*
X194300000Y-23450001D02*
X194300000Y-22549999D01*
G75*
G02*
X194549999Y-22300000I249999J0D01*
G01*
X195200001Y-22300000D01*
G75*
G02*
X195450000Y-22549999I0J-249999D01*
G01*
X195450000Y-23450001D01*
G75*
G02*
X195200001Y-23700000I-249999J0D01*
G01*
X194549999Y-23700000D01*
G75*
G02*
X194300000Y-23450001I0J249999D01*
G01*
G37*
G36*
G01*
X192250000Y-23450001D02*
X192250000Y-22549999D01*
G75*
G02*
X192499999Y-22300000I249999J0D01*
G01*
X193150001Y-22300000D01*
G75*
G02*
X193400000Y-22549999I0J-249999D01*
G01*
X193400000Y-23450001D01*
G75*
G02*
X193150001Y-23700000I-249999J0D01*
G01*
X192499999Y-23700000D01*
G75*
G02*
X192250000Y-23450001I0J249999D01*
G01*
G37*
G36*
G01*
X197100000Y-22549999D02*
X197100000Y-23450001D01*
G75*
G02*
X196850001Y-23700000I-249999J0D01*
G01*
X196199999Y-23700000D01*
G75*
G02*
X195950000Y-23450001I0J249999D01*
G01*
X195950000Y-22549999D01*
G75*
G02*
X196199999Y-22300000I249999J0D01*
G01*
X196850001Y-22300000D01*
G75*
G02*
X197100000Y-22549999I0J-249999D01*
G01*
G37*
G36*
G01*
X199150000Y-22549999D02*
X199150000Y-23450001D01*
G75*
G02*
X198900001Y-23700000I-249999J0D01*
G01*
X198249999Y-23700000D01*
G75*
G02*
X198000000Y-23450001I0J249999D01*
G01*
X198000000Y-22549999D01*
G75*
G02*
X198249999Y-22300000I249999J0D01*
G01*
X198900001Y-22300000D01*
G75*
G02*
X199150000Y-22549999I0J-249999D01*
G01*
G37*
G36*
G01*
X180100000Y-38850001D02*
X180100000Y-37949999D01*
G75*
G02*
X180349999Y-37700000I249999J0D01*
G01*
X181000001Y-37700000D01*
G75*
G02*
X181250000Y-37949999I0J-249999D01*
G01*
X181250000Y-38850001D01*
G75*
G02*
X181000001Y-39100000I-249999J0D01*
G01*
X180349999Y-39100000D01*
G75*
G02*
X180100000Y-38850001I0J249999D01*
G01*
G37*
G36*
G01*
X178050000Y-38850001D02*
X178050000Y-37949999D01*
G75*
G02*
X178299999Y-37700000I249999J0D01*
G01*
X178950001Y-37700000D01*
G75*
G02*
X179200000Y-37949999I0J-249999D01*
G01*
X179200000Y-38850001D01*
G75*
G02*
X178950001Y-39100000I-249999J0D01*
G01*
X178299999Y-39100000D01*
G75*
G02*
X178050000Y-38850001I0J249999D01*
G01*
G37*
G36*
G01*
X188900000Y-49049999D02*
X188900000Y-49950001D01*
G75*
G02*
X188650001Y-50200000I-249999J0D01*
G01*
X187999999Y-50200000D01*
G75*
G02*
X187750000Y-49950001I0J249999D01*
G01*
X187750000Y-49049999D01*
G75*
G02*
X187999999Y-48800000I249999J0D01*
G01*
X188650001Y-48800000D01*
G75*
G02*
X188900000Y-49049999I0J-249999D01*
G01*
G37*
G36*
G01*
X190950000Y-49049999D02*
X190950000Y-49950001D01*
G75*
G02*
X190700001Y-50200000I-249999J0D01*
G01*
X190049999Y-50200000D01*
G75*
G02*
X189800000Y-49950001I0J249999D01*
G01*
X189800000Y-49049999D01*
G75*
G02*
X190049999Y-48800000I249999J0D01*
G01*
X190700001Y-48800000D01*
G75*
G02*
X190950000Y-49049999I0J-249999D01*
G01*
G37*
G36*
G01*
X185150000Y-32649999D02*
X185150000Y-33550001D01*
G75*
G02*
X184900001Y-33800000I-249999J0D01*
G01*
X184249999Y-33800000D01*
G75*
G02*
X184000000Y-33550001I0J249999D01*
G01*
X184000000Y-32649999D01*
G75*
G02*
X184249999Y-32400000I249999J0D01*
G01*
X184900001Y-32400000D01*
G75*
G02*
X185150000Y-32649999I0J-249999D01*
G01*
G37*
G36*
G01*
X187200000Y-32649999D02*
X187200000Y-33550001D01*
G75*
G02*
X186950001Y-33800000I-249999J0D01*
G01*
X186299999Y-33800000D01*
G75*
G02*
X186050000Y-33550001I0J249999D01*
G01*
X186050000Y-32649999D01*
G75*
G02*
X186299999Y-32400000I249999J0D01*
G01*
X186950001Y-32400000D01*
G75*
G02*
X187200000Y-32649999I0J-249999D01*
G01*
G37*
G36*
G01*
X185200000Y-49049999D02*
X185200000Y-49950001D01*
G75*
G02*
X184950001Y-50200000I-249999J0D01*
G01*
X184299999Y-50200000D01*
G75*
G02*
X184050000Y-49950001I0J249999D01*
G01*
X184050000Y-49049999D01*
G75*
G02*
X184299999Y-48800000I249999J0D01*
G01*
X184950001Y-48800000D01*
G75*
G02*
X185200000Y-49049999I0J-249999D01*
G01*
G37*
G36*
G01*
X187250000Y-49049999D02*
X187250000Y-49950001D01*
G75*
G02*
X187000001Y-50200000I-249999J0D01*
G01*
X186349999Y-50200000D01*
G75*
G02*
X186100000Y-49950001I0J249999D01*
G01*
X186100000Y-49049999D01*
G75*
G02*
X186349999Y-48800000I249999J0D01*
G01*
X187000001Y-48800000D01*
G75*
G02*
X187250000Y-49049999I0J-249999D01*
G01*
G37*
G36*
G01*
X75200000Y-64000001D02*
X75200000Y-63099999D01*
G75*
G02*
X75449999Y-62850000I249999J0D01*
G01*
X76100001Y-62850000D01*
G75*
G02*
X76350000Y-63099999I0J-249999D01*
G01*
X76350000Y-64000001D01*
G75*
G02*
X76100001Y-64250000I-249999J0D01*
G01*
X75449999Y-64250000D01*
G75*
G02*
X75200000Y-64000001I0J249999D01*
G01*
G37*
G36*
G01*
X73150000Y-64000001D02*
X73150000Y-63099999D01*
G75*
G02*
X73399999Y-62850000I249999J0D01*
G01*
X74050001Y-62850000D01*
G75*
G02*
X74300000Y-63099999I0J-249999D01*
G01*
X74300000Y-64000001D01*
G75*
G02*
X74050001Y-64250000I-249999J0D01*
G01*
X73399999Y-64250000D01*
G75*
G02*
X73150000Y-64000001I0J249999D01*
G01*
G37*
G36*
G01*
X74300000Y-45399999D02*
X74300000Y-46300001D01*
G75*
G02*
X74050001Y-46550000I-249999J0D01*
G01*
X73399999Y-46550000D01*
G75*
G02*
X73150000Y-46300001I0J249999D01*
G01*
X73150000Y-45399999D01*
G75*
G02*
X73399999Y-45150000I249999J0D01*
G01*
X74050001Y-45150000D01*
G75*
G02*
X74300000Y-45399999I0J-249999D01*
G01*
G37*
G36*
G01*
X76350000Y-45399999D02*
X76350000Y-46300001D01*
G75*
G02*
X76100001Y-46550000I-249999J0D01*
G01*
X75449999Y-46550000D01*
G75*
G02*
X75200000Y-46300001I0J249999D01*
G01*
X75200000Y-45399999D01*
G75*
G02*
X75449999Y-45150000I249999J0D01*
G01*
X76100001Y-45150000D01*
G75*
G02*
X76350000Y-45399999I0J-249999D01*
G01*
G37*
G36*
G01*
X67400000Y-41999999D02*
X67400000Y-42900001D01*
G75*
G02*
X67150001Y-43150000I-249999J0D01*
G01*
X66499999Y-43150000D01*
G75*
G02*
X66250000Y-42900001I0J249999D01*
G01*
X66250000Y-41999999D01*
G75*
G02*
X66499999Y-41750000I249999J0D01*
G01*
X67150001Y-41750000D01*
G75*
G02*
X67400000Y-41999999I0J-249999D01*
G01*
G37*
G36*
G01*
X69450000Y-41999999D02*
X69450000Y-42900001D01*
G75*
G02*
X69200001Y-43150000I-249999J0D01*
G01*
X68549999Y-43150000D01*
G75*
G02*
X68300000Y-42900001I0J249999D01*
G01*
X68300000Y-41999999D01*
G75*
G02*
X68549999Y-41750000I249999J0D01*
G01*
X69200001Y-41750000D01*
G75*
G02*
X69450000Y-41999999I0J-249999D01*
G01*
G37*
G36*
G01*
X75200000Y-56250001D02*
X75200000Y-55349999D01*
G75*
G02*
X75449999Y-55100000I249999J0D01*
G01*
X76100001Y-55100000D01*
G75*
G02*
X76350000Y-55349999I0J-249999D01*
G01*
X76350000Y-56250001D01*
G75*
G02*
X76100001Y-56500000I-249999J0D01*
G01*
X75449999Y-56500000D01*
G75*
G02*
X75200000Y-56250001I0J249999D01*
G01*
G37*
G36*
G01*
X73150000Y-56250001D02*
X73150000Y-55349999D01*
G75*
G02*
X73399999Y-55100000I249999J0D01*
G01*
X74050001Y-55100000D01*
G75*
G02*
X74300000Y-55349999I0J-249999D01*
G01*
X74300000Y-56250001D01*
G75*
G02*
X74050001Y-56500000I-249999J0D01*
G01*
X73399999Y-56500000D01*
G75*
G02*
X73150000Y-56250001I0J249999D01*
G01*
G37*
G36*
G01*
X75200000Y-54218001D02*
X75200000Y-53317999D01*
G75*
G02*
X75449999Y-53068000I249999J0D01*
G01*
X76100001Y-53068000D01*
G75*
G02*
X76350000Y-53317999I0J-249999D01*
G01*
X76350000Y-54218001D01*
G75*
G02*
X76100001Y-54468000I-249999J0D01*
G01*
X75449999Y-54468000D01*
G75*
G02*
X75200000Y-54218001I0J249999D01*
G01*
G37*
G36*
G01*
X73150000Y-54218001D02*
X73150000Y-53317999D01*
G75*
G02*
X73399999Y-53068000I249999J0D01*
G01*
X74050001Y-53068000D01*
G75*
G02*
X74300000Y-53317999I0J-249999D01*
G01*
X74300000Y-54218001D01*
G75*
G02*
X74050001Y-54468000I-249999J0D01*
G01*
X73399999Y-54468000D01*
G75*
G02*
X73150000Y-54218001I0J249999D01*
G01*
G37*
G36*
G01*
X74875000Y-11949999D02*
X74875000Y-12850001D01*
G75*
G02*
X74625001Y-13100000I-249999J0D01*
G01*
X73974999Y-13100000D01*
G75*
G02*
X73725000Y-12850001I0J249999D01*
G01*
X73725000Y-11949999D01*
G75*
G02*
X73974999Y-11700000I249999J0D01*
G01*
X74625001Y-11700000D01*
G75*
G02*
X74875000Y-11949999I0J-249999D01*
G01*
G37*
G36*
G01*
X76925000Y-11949999D02*
X76925000Y-12850001D01*
G75*
G02*
X76675001Y-13100000I-249999J0D01*
G01*
X76024999Y-13100000D01*
G75*
G02*
X75775000Y-12850001I0J249999D01*
G01*
X75775000Y-11949999D01*
G75*
G02*
X76024999Y-11700000I249999J0D01*
G01*
X76675001Y-11700000D01*
G75*
G02*
X76925000Y-11949999I0J-249999D01*
G01*
G37*
G36*
G01*
X75200000Y-50250001D02*
X75200000Y-49349999D01*
G75*
G02*
X75449999Y-49100000I249999J0D01*
G01*
X76100001Y-49100000D01*
G75*
G02*
X76350000Y-49349999I0J-249999D01*
G01*
X76350000Y-50250001D01*
G75*
G02*
X76100001Y-50500000I-249999J0D01*
G01*
X75449999Y-50500000D01*
G75*
G02*
X75200000Y-50250001I0J249999D01*
G01*
G37*
G36*
G01*
X73150000Y-50250001D02*
X73150000Y-49349999D01*
G75*
G02*
X73399999Y-49100000I249999J0D01*
G01*
X74050001Y-49100000D01*
G75*
G02*
X74300000Y-49349999I0J-249999D01*
G01*
X74300000Y-50250001D01*
G75*
G02*
X74050001Y-50500000I-249999J0D01*
G01*
X73399999Y-50500000D01*
G75*
G02*
X73150000Y-50250001I0J249999D01*
G01*
G37*
G36*
G01*
X75200000Y-48350001D02*
X75200000Y-47449999D01*
G75*
G02*
X75449999Y-47200000I249999J0D01*
G01*
X76100001Y-47200000D01*
G75*
G02*
X76350000Y-47449999I0J-249999D01*
G01*
X76350000Y-48350001D01*
G75*
G02*
X76100001Y-48600000I-249999J0D01*
G01*
X75449999Y-48600000D01*
G75*
G02*
X75200000Y-48350001I0J249999D01*
G01*
G37*
G36*
G01*
X73150000Y-48350001D02*
X73150000Y-47449999D01*
G75*
G02*
X73399999Y-47200000I249999J0D01*
G01*
X74050001Y-47200000D01*
G75*
G02*
X74300000Y-47449999I0J-249999D01*
G01*
X74300000Y-48350001D01*
G75*
G02*
X74050001Y-48600000I-249999J0D01*
G01*
X73399999Y-48600000D01*
G75*
G02*
X73150000Y-48350001I0J249999D01*
G01*
G37*
G36*
G01*
X87699999Y-65900000D02*
X88600001Y-65900000D01*
G75*
G02*
X88850000Y-66149999I0J-249999D01*
G01*
X88850000Y-66800001D01*
G75*
G02*
X88600001Y-67050000I-249999J0D01*
G01*
X87699999Y-67050000D01*
G75*
G02*
X87450000Y-66800001I0J249999D01*
G01*
X87450000Y-66149999D01*
G75*
G02*
X87699999Y-65900000I249999J0D01*
G01*
G37*
G36*
G01*
X87699999Y-63850000D02*
X88600001Y-63850000D01*
G75*
G02*
X88850000Y-64099999I0J-249999D01*
G01*
X88850000Y-64750001D01*
G75*
G02*
X88600001Y-65000000I-249999J0D01*
G01*
X87699999Y-65000000D01*
G75*
G02*
X87450000Y-64750001I0J249999D01*
G01*
X87450000Y-64099999D01*
G75*
G02*
X87699999Y-63850000I249999J0D01*
G01*
G37*
G36*
G01*
X188850000Y-34549999D02*
X188850000Y-35450001D01*
G75*
G02*
X188600001Y-35700000I-249999J0D01*
G01*
X187949999Y-35700000D01*
G75*
G02*
X187700000Y-35450001I0J249999D01*
G01*
X187700000Y-34549999D01*
G75*
G02*
X187949999Y-34300000I249999J0D01*
G01*
X188600001Y-34300000D01*
G75*
G02*
X188850000Y-34549999I0J-249999D01*
G01*
G37*
G36*
G01*
X190900000Y-34549999D02*
X190900000Y-35450001D01*
G75*
G02*
X190650001Y-35700000I-249999J0D01*
G01*
X189999999Y-35700000D01*
G75*
G02*
X189750000Y-35450001I0J249999D01*
G01*
X189750000Y-34549999D01*
G75*
G02*
X189999999Y-34300000I249999J0D01*
G01*
X190650001Y-34300000D01*
G75*
G02*
X190900000Y-34549999I0J-249999D01*
G01*
G37*
G36*
G01*
X179200000Y-39849999D02*
X179200000Y-40750001D01*
G75*
G02*
X178950001Y-41000000I-249999J0D01*
G01*
X178299999Y-41000000D01*
G75*
G02*
X178050000Y-40750001I0J249999D01*
G01*
X178050000Y-39849999D01*
G75*
G02*
X178299999Y-39600000I249999J0D01*
G01*
X178950001Y-39600000D01*
G75*
G02*
X179200000Y-39849999I0J-249999D01*
G01*
G37*
G36*
G01*
X181250000Y-39849999D02*
X181250000Y-40750001D01*
G75*
G02*
X181000001Y-41000000I-249999J0D01*
G01*
X180349999Y-41000000D01*
G75*
G02*
X180100000Y-40750001I0J249999D01*
G01*
X180100000Y-39849999D01*
G75*
G02*
X180349999Y-39600000I249999J0D01*
G01*
X181000001Y-39600000D01*
G75*
G02*
X181250000Y-39849999I0J-249999D01*
G01*
G37*
G36*
G01*
X186050000Y-35450001D02*
X186050000Y-34549999D01*
G75*
G02*
X186299999Y-34300000I249999J0D01*
G01*
X186950001Y-34300000D01*
G75*
G02*
X187200000Y-34549999I0J-249999D01*
G01*
X187200000Y-35450001D01*
G75*
G02*
X186950001Y-35700000I-249999J0D01*
G01*
X186299999Y-35700000D01*
G75*
G02*
X186050000Y-35450001I0J249999D01*
G01*
G37*
G36*
G01*
X184000000Y-35450001D02*
X184000000Y-34549999D01*
G75*
G02*
X184249999Y-34300000I249999J0D01*
G01*
X184900001Y-34300000D01*
G75*
G02*
X185150000Y-34549999I0J-249999D01*
G01*
X185150000Y-35450001D01*
G75*
G02*
X184900001Y-35700000I-249999J0D01*
G01*
X184249999Y-35700000D01*
G75*
G02*
X184000000Y-35450001I0J249999D01*
G01*
G37*
G36*
G01*
X189800000Y-48050001D02*
X189800000Y-47149999D01*
G75*
G02*
X190049999Y-46900000I249999J0D01*
G01*
X190700001Y-46900000D01*
G75*
G02*
X190950000Y-47149999I0J-249999D01*
G01*
X190950000Y-48050001D01*
G75*
G02*
X190700001Y-48300000I-249999J0D01*
G01*
X190049999Y-48300000D01*
G75*
G02*
X189800000Y-48050001I0J249999D01*
G01*
G37*
G36*
G01*
X187750000Y-48050001D02*
X187750000Y-47149999D01*
G75*
G02*
X187999999Y-46900000I249999J0D01*
G01*
X188650001Y-46900000D01*
G75*
G02*
X188900000Y-47149999I0J-249999D01*
G01*
X188900000Y-48050001D01*
G75*
G02*
X188650001Y-48300000I-249999J0D01*
G01*
X187999999Y-48300000D01*
G75*
G02*
X187750000Y-48050001I0J249999D01*
G01*
G37*
G36*
G01*
X186100000Y-48050001D02*
X186100000Y-47149999D01*
G75*
G02*
X186349999Y-46900000I249999J0D01*
G01*
X187000001Y-46900000D01*
G75*
G02*
X187250000Y-47149999I0J-249999D01*
G01*
X187250000Y-48050001D01*
G75*
G02*
X187000001Y-48300000I-249999J0D01*
G01*
X186349999Y-48300000D01*
G75*
G02*
X186100000Y-48050001I0J249999D01*
G01*
G37*
G36*
G01*
X184050000Y-48050001D02*
X184050000Y-47149999D01*
G75*
G02*
X184299999Y-46900000I249999J0D01*
G01*
X184950001Y-46900000D01*
G75*
G02*
X185200000Y-47149999I0J-249999D01*
G01*
X185200000Y-48050001D01*
G75*
G02*
X184950001Y-48300000I-249999J0D01*
G01*
X184299999Y-48300000D01*
G75*
G02*
X184050000Y-48050001I0J249999D01*
G01*
G37*
G36*
G01*
X93400001Y-27000000D02*
X92499999Y-27000000D01*
G75*
G02*
X92250000Y-26750001I0J249999D01*
G01*
X92250000Y-26099999D01*
G75*
G02*
X92499999Y-25850000I249999J0D01*
G01*
X93400001Y-25850000D01*
G75*
G02*
X93650000Y-26099999I0J-249999D01*
G01*
X93650000Y-26750001D01*
G75*
G02*
X93400001Y-27000000I-249999J0D01*
G01*
G37*
G36*
G01*
X93400001Y-29050000D02*
X92499999Y-29050000D01*
G75*
G02*
X92250000Y-28800001I0J249999D01*
G01*
X92250000Y-28149999D01*
G75*
G02*
X92499999Y-27900000I249999J0D01*
G01*
X93400001Y-27900000D01*
G75*
G02*
X93650000Y-28149999I0J-249999D01*
G01*
X93650000Y-28800001D01*
G75*
G02*
X93400001Y-29050000I-249999J0D01*
G01*
G37*
G36*
G01*
X68125000Y-24975001D02*
X68125000Y-24074999D01*
G75*
G02*
X68374999Y-23825000I249999J0D01*
G01*
X69025001Y-23825000D01*
G75*
G02*
X69275000Y-24074999I0J-249999D01*
G01*
X69275000Y-24975001D01*
G75*
G02*
X69025001Y-25225000I-249999J0D01*
G01*
X68374999Y-25225000D01*
G75*
G02*
X68125000Y-24975001I0J249999D01*
G01*
G37*
G36*
G01*
X66075000Y-24975001D02*
X66075000Y-24074999D01*
G75*
G02*
X66324999Y-23825000I249999J0D01*
G01*
X66975001Y-23825000D01*
G75*
G02*
X67225000Y-24074999I0J-249999D01*
G01*
X67225000Y-24975001D01*
G75*
G02*
X66975001Y-25225000I-249999J0D01*
G01*
X66324999Y-25225000D01*
G75*
G02*
X66075000Y-24975001I0J249999D01*
G01*
G37*
G36*
G01*
X123150000Y-26800001D02*
X123150000Y-25899999D01*
G75*
G02*
X123399999Y-25650000I249999J0D01*
G01*
X124050001Y-25650000D01*
G75*
G02*
X124300000Y-25899999I0J-249999D01*
G01*
X124300000Y-26800001D01*
G75*
G02*
X124050001Y-27050000I-249999J0D01*
G01*
X123399999Y-27050000D01*
G75*
G02*
X123150000Y-26800001I0J249999D01*
G01*
G37*
G36*
G01*
X121100000Y-26800001D02*
X121100000Y-25899999D01*
G75*
G02*
X121349999Y-25650000I249999J0D01*
G01*
X122000001Y-25650000D01*
G75*
G02*
X122250000Y-25899999I0J-249999D01*
G01*
X122250000Y-26800001D01*
G75*
G02*
X122000001Y-27050000I-249999J0D01*
G01*
X121349999Y-27050000D01*
G75*
G02*
X121100000Y-26800001I0J249999D01*
G01*
G37*
G36*
G01*
X121099001Y-31197000D02*
X120198999Y-31197000D01*
G75*
G02*
X119949000Y-30947001I0J249999D01*
G01*
X119949000Y-30296999D01*
G75*
G02*
X120198999Y-30047000I249999J0D01*
G01*
X121099001Y-30047000D01*
G75*
G02*
X121349000Y-30296999I0J-249999D01*
G01*
X121349000Y-30947001D01*
G75*
G02*
X121099001Y-31197000I-249999J0D01*
G01*
G37*
G36*
G01*
X121099001Y-33247000D02*
X120198999Y-33247000D01*
G75*
G02*
X119949000Y-32997001I0J249999D01*
G01*
X119949000Y-32346999D01*
G75*
G02*
X120198999Y-32097000I249999J0D01*
G01*
X121099001Y-32097000D01*
G75*
G02*
X121349000Y-32346999I0J-249999D01*
G01*
X121349000Y-32997001D01*
G75*
G02*
X121099001Y-33247000I-249999J0D01*
G01*
G37*
G36*
G01*
X91249999Y-56100000D02*
X92150001Y-56100000D01*
G75*
G02*
X92400000Y-56349999I0J-249999D01*
G01*
X92400000Y-57000001D01*
G75*
G02*
X92150001Y-57250000I-249999J0D01*
G01*
X91249999Y-57250000D01*
G75*
G02*
X91000000Y-57000001I0J249999D01*
G01*
X91000000Y-56349999D01*
G75*
G02*
X91249999Y-56100000I249999J0D01*
G01*
G37*
G36*
G01*
X91249999Y-54050000D02*
X92150001Y-54050000D01*
G75*
G02*
X92400000Y-54299999I0J-249999D01*
G01*
X92400000Y-54950001D01*
G75*
G02*
X92150001Y-55200000I-249999J0D01*
G01*
X91249999Y-55200000D01*
G75*
G02*
X91000000Y-54950001I0J249999D01*
G01*
X91000000Y-54299999D01*
G75*
G02*
X91249999Y-54050000I249999J0D01*
G01*
G37*
G36*
G01*
X88400000Y-57000001D02*
X88400000Y-56099999D01*
G75*
G02*
X88649999Y-55850000I249999J0D01*
G01*
X89300001Y-55850000D01*
G75*
G02*
X89550000Y-56099999I0J-249999D01*
G01*
X89550000Y-57000001D01*
G75*
G02*
X89300001Y-57250000I-249999J0D01*
G01*
X88649999Y-57250000D01*
G75*
G02*
X88400000Y-57000001I0J249999D01*
G01*
G37*
G36*
G01*
X86350000Y-57000001D02*
X86350000Y-56099999D01*
G75*
G02*
X86599999Y-55850000I249999J0D01*
G01*
X87250001Y-55850000D01*
G75*
G02*
X87500000Y-56099999I0J-249999D01*
G01*
X87500000Y-57000001D01*
G75*
G02*
X87250001Y-57250000I-249999J0D01*
G01*
X86599999Y-57250000D01*
G75*
G02*
X86350000Y-57000001I0J249999D01*
G01*
G37*
G36*
G01*
X64249999Y-36100000D02*
X65150001Y-36100000D01*
G75*
G02*
X65400000Y-36349999I0J-249999D01*
G01*
X65400000Y-37000001D01*
G75*
G02*
X65150001Y-37250000I-249999J0D01*
G01*
X64249999Y-37250000D01*
G75*
G02*
X64000000Y-37000001I0J249999D01*
G01*
X64000000Y-36349999D01*
G75*
G02*
X64249999Y-36100000I249999J0D01*
G01*
G37*
G36*
G01*
X64249999Y-34050000D02*
X65150001Y-34050000D01*
G75*
G02*
X65400000Y-34299999I0J-249999D01*
G01*
X65400000Y-34950001D01*
G75*
G02*
X65150001Y-35200000I-249999J0D01*
G01*
X64249999Y-35200000D01*
G75*
G02*
X64000000Y-34950001I0J249999D01*
G01*
X64000000Y-34299999D01*
G75*
G02*
X64249999Y-34050000I249999J0D01*
G01*
G37*
G36*
G01*
X60150001Y-35200000D02*
X59249999Y-35200000D01*
G75*
G02*
X59000000Y-34950001I0J249999D01*
G01*
X59000000Y-34299999D01*
G75*
G02*
X59249999Y-34050000I249999J0D01*
G01*
X60150001Y-34050000D01*
G75*
G02*
X60400000Y-34299999I0J-249999D01*
G01*
X60400000Y-34950001D01*
G75*
G02*
X60150001Y-35200000I-249999J0D01*
G01*
G37*
G36*
G01*
X60150001Y-37250000D02*
X59249999Y-37250000D01*
G75*
G02*
X59000000Y-37000001I0J249999D01*
G01*
X59000000Y-36349999D01*
G75*
G02*
X59249999Y-36100000I249999J0D01*
G01*
X60150001Y-36100000D01*
G75*
G02*
X60400000Y-36349999I0J-249999D01*
G01*
X60400000Y-37000001D01*
G75*
G02*
X60150001Y-37250000I-249999J0D01*
G01*
G37*
G36*
G01*
X37500000Y-57100001D02*
X37500000Y-56199999D01*
G75*
G02*
X37749999Y-55950000I249999J0D01*
G01*
X38400001Y-55950000D01*
G75*
G02*
X38650000Y-56199999I0J-249999D01*
G01*
X38650000Y-57100001D01*
G75*
G02*
X38400001Y-57350000I-249999J0D01*
G01*
X37749999Y-57350000D01*
G75*
G02*
X37500000Y-57100001I0J249999D01*
G01*
G37*
G36*
G01*
X35450000Y-57100001D02*
X35450000Y-56199999D01*
G75*
G02*
X35699999Y-55950000I249999J0D01*
G01*
X36350001Y-55950000D01*
G75*
G02*
X36600000Y-56199999I0J-249999D01*
G01*
X36600000Y-57100001D01*
G75*
G02*
X36350001Y-57350000I-249999J0D01*
G01*
X35699999Y-57350000D01*
G75*
G02*
X35450000Y-57100001I0J249999D01*
G01*
G37*
G36*
G01*
X33800000Y-57100001D02*
X33800000Y-56199999D01*
G75*
G02*
X34049999Y-55950000I249999J0D01*
G01*
X34700001Y-55950000D01*
G75*
G02*
X34950000Y-56199999I0J-249999D01*
G01*
X34950000Y-57100001D01*
G75*
G02*
X34700001Y-57350000I-249999J0D01*
G01*
X34049999Y-57350000D01*
G75*
G02*
X33800000Y-57100001I0J249999D01*
G01*
G37*
G36*
G01*
X31750000Y-57100001D02*
X31750000Y-56199999D01*
G75*
G02*
X31999999Y-55950000I249999J0D01*
G01*
X32650001Y-55950000D01*
G75*
G02*
X32900000Y-56199999I0J-249999D01*
G01*
X32900000Y-57100001D01*
G75*
G02*
X32650001Y-57350000I-249999J0D01*
G01*
X31999999Y-57350000D01*
G75*
G02*
X31750000Y-57100001I0J249999D01*
G01*
G37*
G36*
G01*
X75200000Y-62100001D02*
X75200000Y-61199999D01*
G75*
G02*
X75449999Y-60950000I249999J0D01*
G01*
X76100001Y-60950000D01*
G75*
G02*
X76350000Y-61199999I0J-249999D01*
G01*
X76350000Y-62100001D01*
G75*
G02*
X76100001Y-62350000I-249999J0D01*
G01*
X75449999Y-62350000D01*
G75*
G02*
X75200000Y-62100001I0J249999D01*
G01*
G37*
G36*
G01*
X73150000Y-62100001D02*
X73150000Y-61199999D01*
G75*
G02*
X73399999Y-60950000I249999J0D01*
G01*
X74050001Y-60950000D01*
G75*
G02*
X74300000Y-61199999I0J-249999D01*
G01*
X74300000Y-62100001D01*
G75*
G02*
X74050001Y-62350000I-249999J0D01*
G01*
X73399999Y-62350000D01*
G75*
G02*
X73150000Y-62100001I0J249999D01*
G01*
G37*
G36*
G01*
X67400000Y-43949999D02*
X67400000Y-44850001D01*
G75*
G02*
X67150001Y-45100000I-249999J0D01*
G01*
X66499999Y-45100000D01*
G75*
G02*
X66250000Y-44850001I0J249999D01*
G01*
X66250000Y-43949999D01*
G75*
G02*
X66499999Y-43700000I249999J0D01*
G01*
X67150001Y-43700000D01*
G75*
G02*
X67400000Y-43949999I0J-249999D01*
G01*
G37*
G36*
G01*
X69450000Y-43949999D02*
X69450000Y-44850001D01*
G75*
G02*
X69200001Y-45100000I-249999J0D01*
G01*
X68549999Y-45100000D01*
G75*
G02*
X68300000Y-44850001I0J249999D01*
G01*
X68300000Y-43949999D01*
G75*
G02*
X68549999Y-43700000I249999J0D01*
G01*
X69200001Y-43700000D01*
G75*
G02*
X69450000Y-43949999I0J-249999D01*
G01*
G37*
G36*
G01*
X53500000Y-47649999D02*
X53500000Y-48550001D01*
G75*
G02*
X53250001Y-48800000I-249999J0D01*
G01*
X52599999Y-48800000D01*
G75*
G02*
X52350000Y-48550001I0J249999D01*
G01*
X52350000Y-47649999D01*
G75*
G02*
X52599999Y-47400000I249999J0D01*
G01*
X53250001Y-47400000D01*
G75*
G02*
X53500000Y-47649999I0J-249999D01*
G01*
G37*
G36*
G01*
X55550000Y-47649999D02*
X55550000Y-48550001D01*
G75*
G02*
X55300001Y-48800000I-249999J0D01*
G01*
X54649999Y-48800000D01*
G75*
G02*
X54400000Y-48550001I0J249999D01*
G01*
X54400000Y-47649999D01*
G75*
G02*
X54649999Y-47400000I249999J0D01*
G01*
X55300001Y-47400000D01*
G75*
G02*
X55550000Y-47649999I0J-249999D01*
G01*
G37*
G36*
G01*
X57250000Y-64149999D02*
X57250000Y-65050001D01*
G75*
G02*
X57000001Y-65300000I-249999J0D01*
G01*
X56349999Y-65300000D01*
G75*
G02*
X56100000Y-65050001I0J249999D01*
G01*
X56100000Y-64149999D01*
G75*
G02*
X56349999Y-63900000I249999J0D01*
G01*
X57000001Y-63900000D01*
G75*
G02*
X57250000Y-64149999I0J-249999D01*
G01*
G37*
G36*
G01*
X59300000Y-64149999D02*
X59300000Y-65050001D01*
G75*
G02*
X59050001Y-65300000I-249999J0D01*
G01*
X58399999Y-65300000D01*
G75*
G02*
X58150000Y-65050001I0J249999D01*
G01*
X58150000Y-64149999D01*
G75*
G02*
X58399999Y-63900000I249999J0D01*
G01*
X59050001Y-63900000D01*
G75*
G02*
X59300000Y-64149999I0J-249999D01*
G01*
G37*
G36*
G01*
X66975000Y-65050001D02*
X66975000Y-64149999D01*
G75*
G02*
X67224999Y-63900000I249999J0D01*
G01*
X67875001Y-63900000D01*
G75*
G02*
X68125000Y-64149999I0J-249999D01*
G01*
X68125000Y-65050001D01*
G75*
G02*
X67875001Y-65300000I-249999J0D01*
G01*
X67224999Y-65300000D01*
G75*
G02*
X66975000Y-65050001I0J249999D01*
G01*
G37*
G36*
G01*
X64925000Y-65050001D02*
X64925000Y-64149999D01*
G75*
G02*
X65174999Y-63900000I249999J0D01*
G01*
X65825001Y-63900000D01*
G75*
G02*
X66075000Y-64149999I0J-249999D01*
G01*
X66075000Y-65050001D01*
G75*
G02*
X65825001Y-65300000I-249999J0D01*
G01*
X65174999Y-65300000D01*
G75*
G02*
X64925000Y-65050001I0J249999D01*
G01*
G37*
G36*
G01*
X75200000Y-60200001D02*
X75200000Y-59299999D01*
G75*
G02*
X75449999Y-59050000I249999J0D01*
G01*
X76100001Y-59050000D01*
G75*
G02*
X76350000Y-59299999I0J-249999D01*
G01*
X76350000Y-60200001D01*
G75*
G02*
X76100001Y-60450000I-249999J0D01*
G01*
X75449999Y-60450000D01*
G75*
G02*
X75200000Y-60200001I0J249999D01*
G01*
G37*
G36*
G01*
X73150000Y-60200001D02*
X73150000Y-59299999D01*
G75*
G02*
X73399999Y-59050000I249999J0D01*
G01*
X74050001Y-59050000D01*
G75*
G02*
X74300000Y-59299999I0J-249999D01*
G01*
X74300000Y-60200001D01*
G75*
G02*
X74050001Y-60450000I-249999J0D01*
G01*
X73399999Y-60450000D01*
G75*
G02*
X73150000Y-60200001I0J249999D01*
G01*
G37*
G36*
G01*
X75200000Y-52300001D02*
X75200000Y-51399999D01*
G75*
G02*
X75449999Y-51150000I249999J0D01*
G01*
X76100001Y-51150000D01*
G75*
G02*
X76350000Y-51399999I0J-249999D01*
G01*
X76350000Y-52300001D01*
G75*
G02*
X76100001Y-52550000I-249999J0D01*
G01*
X75449999Y-52550000D01*
G75*
G02*
X75200000Y-52300001I0J249999D01*
G01*
G37*
G36*
G01*
X73150000Y-52300001D02*
X73150000Y-51399999D01*
G75*
G02*
X73399999Y-51150000I249999J0D01*
G01*
X74050001Y-51150000D01*
G75*
G02*
X74300000Y-51399999I0J-249999D01*
G01*
X74300000Y-52300001D01*
G75*
G02*
X74050001Y-52550000I-249999J0D01*
G01*
X73399999Y-52550000D01*
G75*
G02*
X73150000Y-52300001I0J249999D01*
G01*
G37*
G36*
G01*
X76650001Y-70500000D02*
X75749999Y-70500000D01*
G75*
G02*
X75500000Y-70250001I0J249999D01*
G01*
X75500000Y-69599999D01*
G75*
G02*
X75749999Y-69350000I249999J0D01*
G01*
X76650001Y-69350000D01*
G75*
G02*
X76900000Y-69599999I0J-249999D01*
G01*
X76900000Y-70250001D01*
G75*
G02*
X76650001Y-70500000I-249999J0D01*
G01*
G37*
G36*
G01*
X76650001Y-72550000D02*
X75749999Y-72550000D01*
G75*
G02*
X75500000Y-72300001I0J249999D01*
G01*
X75500000Y-71649999D01*
G75*
G02*
X75749999Y-71400000I249999J0D01*
G01*
X76650001Y-71400000D01*
G75*
G02*
X76900000Y-71649999I0J-249999D01*
G01*
X76900000Y-72300001D01*
G75*
G02*
X76650001Y-72550000I-249999J0D01*
G01*
G37*
G36*
G01*
X47100000Y-57093750D02*
X47100000Y-57606250D01*
G75*
G02*
X46881250Y-57825000I-218750J0D01*
G01*
X46443750Y-57825000D01*
G75*
G02*
X46225000Y-57606250I0J218750D01*
G01*
X46225000Y-57093750D01*
G75*
G02*
X46443750Y-56875000I218750J0D01*
G01*
X46881250Y-56875000D01*
G75*
G02*
X47100000Y-57093750I0J-218750D01*
G01*
G37*
G36*
G01*
X48675000Y-57093750D02*
X48675000Y-57606250D01*
G75*
G02*
X48456250Y-57825000I-218750J0D01*
G01*
X48018750Y-57825000D01*
G75*
G02*
X47800000Y-57606250I0J218750D01*
G01*
X47800000Y-57093750D01*
G75*
G02*
X48018750Y-56875000I218750J0D01*
G01*
X48456250Y-56875000D01*
G75*
G02*
X48675000Y-57093750I0J-218750D01*
G01*
G37*
D24*
X85525000Y-39215000D03*
X93175000Y-40485000D03*
X85525000Y-40485000D03*
X93175000Y-39215000D03*
X85525000Y-33465000D03*
X93175000Y-34735000D03*
X85525000Y-34735000D03*
X93175000Y-33465000D03*
D25*
G36*
X221987868Y-23360051D02*
G01*
X221210051Y-24137868D01*
X220432234Y-23360051D01*
X221210051Y-22582234D01*
X221987868Y-23360051D01*
G37*
G36*
X223967766Y-25339949D02*
G01*
X223189949Y-26117766D01*
X222412132Y-25339949D01*
X223189949Y-24562132D01*
X223967766Y-25339949D01*
G37*
G36*
X233987868Y-23360051D02*
G01*
X233210051Y-24137868D01*
X232432234Y-23360051D01*
X233210051Y-22582234D01*
X233987868Y-23360051D01*
G37*
G36*
X235967766Y-25339949D02*
G01*
X235189949Y-26117766D01*
X234412132Y-25339949D01*
X235189949Y-24562132D01*
X235967766Y-25339949D01*
G37*
G36*
X245987868Y-23360051D02*
G01*
X245210051Y-24137868D01*
X244432234Y-23360051D01*
X245210051Y-22582234D01*
X245987868Y-23360051D01*
G37*
G36*
X247967766Y-25339949D02*
G01*
X247189949Y-26117766D01*
X246412132Y-25339949D01*
X247189949Y-24562132D01*
X247967766Y-25339949D01*
G37*
G36*
X257987868Y-23360051D02*
G01*
X257210051Y-24137868D01*
X256432234Y-23360051D01*
X257210051Y-22582234D01*
X257987868Y-23360051D01*
G37*
G36*
X259967766Y-25339949D02*
G01*
X259189949Y-26117766D01*
X258412132Y-25339949D01*
X259189949Y-24562132D01*
X259967766Y-25339949D01*
G37*
G36*
X269987868Y-23360051D02*
G01*
X269210051Y-24137868D01*
X268432234Y-23360051D01*
X269210051Y-22582234D01*
X269987868Y-23360051D01*
G37*
G36*
X271967766Y-25339949D02*
G01*
X271189949Y-26117766D01*
X270412132Y-25339949D01*
X271189949Y-24562132D01*
X271967766Y-25339949D01*
G37*
G36*
X287987868Y-23360051D02*
G01*
X287210051Y-24137868D01*
X286432234Y-23360051D01*
X287210051Y-22582234D01*
X287987868Y-23360051D01*
G37*
G36*
X289967766Y-25339949D02*
G01*
X289189949Y-26117766D01*
X288412132Y-25339949D01*
X289189949Y-24562132D01*
X289967766Y-25339949D01*
G37*
G36*
X299987868Y-23360051D02*
G01*
X299210051Y-24137868D01*
X298432234Y-23360051D01*
X299210051Y-22582234D01*
X299987868Y-23360051D01*
G37*
G36*
X301967766Y-25339949D02*
G01*
X301189949Y-26117766D01*
X300412132Y-25339949D01*
X301189949Y-24562132D01*
X301967766Y-25339949D01*
G37*
D26*
X82250000Y-76075000D03*
X82250000Y-69875000D03*
X78550000Y-76075000D03*
X78550000Y-69875000D03*
D27*
X78600000Y-50200000D03*
X78600000Y-47500000D03*
D28*
X167860000Y-34890000D03*
X167860000Y-40310000D03*
X165320000Y-34890000D03*
X170400000Y-34890000D03*
X170400000Y-40310000D03*
X165320000Y-40310000D03*
X200880000Y-40310000D03*
X205960000Y-40310000D03*
X203420000Y-40310000D03*
X213580000Y-40310000D03*
X208500000Y-40310000D03*
X211040000Y-40310000D03*
X213580000Y-34890000D03*
X208500000Y-34890000D03*
X211040000Y-34890000D03*
X205960000Y-34890000D03*
X203420000Y-34890000D03*
X200880000Y-34890000D03*
D29*
X73550000Y-19400000D03*
X76850000Y-19400000D03*
D18*
X114800000Y-31600000D03*
X117600000Y-31600000D03*
X62200000Y-30200000D03*
X62200000Y-33000000D03*
X89200000Y-50200000D03*
X89200000Y-53000000D03*
X35200000Y-50200000D03*
X35200000Y-53000000D03*
D29*
X36620000Y-32600000D03*
X33320000Y-32600000D03*
D18*
X40220000Y-27200000D03*
X40220000Y-30000000D03*
D25*
G36*
X299987868Y-35360051D02*
G01*
X299210051Y-36137868D01*
X298432234Y-35360051D01*
X299210051Y-34582234D01*
X299987868Y-35360051D01*
G37*
G36*
X301967766Y-37339949D02*
G01*
X301189949Y-38117766D01*
X300412132Y-37339949D01*
X301189949Y-36562132D01*
X301967766Y-37339949D01*
G37*
G36*
X287987868Y-35360051D02*
G01*
X287210051Y-36137868D01*
X286432234Y-35360051D01*
X287210051Y-34582234D01*
X287987868Y-35360051D01*
G37*
G36*
X289967766Y-37339949D02*
G01*
X289189949Y-38117766D01*
X288412132Y-37339949D01*
X289189949Y-36562132D01*
X289967766Y-37339949D01*
G37*
G36*
X269987868Y-35360051D02*
G01*
X269210051Y-36137868D01*
X268432234Y-35360051D01*
X269210051Y-34582234D01*
X269987868Y-35360051D01*
G37*
G36*
X271967766Y-37339949D02*
G01*
X271189949Y-38117766D01*
X270412132Y-37339949D01*
X271189949Y-36562132D01*
X271967766Y-37339949D01*
G37*
G36*
X257987868Y-35360051D02*
G01*
X257210051Y-36137868D01*
X256432234Y-35360051D01*
X257210051Y-34582234D01*
X257987868Y-35360051D01*
G37*
G36*
X259967766Y-37339949D02*
G01*
X259189949Y-38117766D01*
X258412132Y-37339949D01*
X259189949Y-36562132D01*
X259967766Y-37339949D01*
G37*
G36*
X245987868Y-35360051D02*
G01*
X245210051Y-36137868D01*
X244432234Y-35360051D01*
X245210051Y-34582234D01*
X245987868Y-35360051D01*
G37*
G36*
X247967766Y-37339949D02*
G01*
X247189949Y-38117766D01*
X246412132Y-37339949D01*
X247189949Y-36562132D01*
X247967766Y-37339949D01*
G37*
G36*
X233987868Y-35360051D02*
G01*
X233210051Y-36137868D01*
X232432234Y-35360051D01*
X233210051Y-34582234D01*
X233987868Y-35360051D01*
G37*
G36*
X235967766Y-37339949D02*
G01*
X235189949Y-38117766D01*
X234412132Y-37339949D01*
X235189949Y-36562132D01*
X235967766Y-37339949D01*
G37*
G36*
X221987868Y-35360051D02*
G01*
X221210051Y-36137868D01*
X220432234Y-35360051D01*
X221210051Y-34582234D01*
X221987868Y-35360051D01*
G37*
G36*
X223967766Y-37339949D02*
G01*
X223189949Y-38117766D01*
X222412132Y-37339949D01*
X223189949Y-36562132D01*
X223967766Y-37339949D01*
G37*
G36*
X299987868Y-47360051D02*
G01*
X299210051Y-48137868D01*
X298432234Y-47360051D01*
X299210051Y-46582234D01*
X299987868Y-47360051D01*
G37*
G36*
X301967766Y-49339949D02*
G01*
X301189949Y-50117766D01*
X300412132Y-49339949D01*
X301189949Y-48562132D01*
X301967766Y-49339949D01*
G37*
G36*
X287987868Y-47360051D02*
G01*
X287210051Y-48137868D01*
X286432234Y-47360051D01*
X287210051Y-46582234D01*
X287987868Y-47360051D01*
G37*
G36*
X289967766Y-49339949D02*
G01*
X289189949Y-50117766D01*
X288412132Y-49339949D01*
X289189949Y-48562132D01*
X289967766Y-49339949D01*
G37*
G36*
X269987868Y-47360051D02*
G01*
X269210051Y-48137868D01*
X268432234Y-47360051D01*
X269210051Y-46582234D01*
X269987868Y-47360051D01*
G37*
G36*
X271967766Y-49339949D02*
G01*
X271189949Y-50117766D01*
X270412132Y-49339949D01*
X271189949Y-48562132D01*
X271967766Y-49339949D01*
G37*
G36*
X257987868Y-47360051D02*
G01*
X257210051Y-48137868D01*
X256432234Y-47360051D01*
X257210051Y-46582234D01*
X257987868Y-47360051D01*
G37*
G36*
X259967766Y-49339949D02*
G01*
X259189949Y-50117766D01*
X258412132Y-49339949D01*
X259189949Y-48562132D01*
X259967766Y-49339949D01*
G37*
G36*
X245987868Y-47360051D02*
G01*
X245210051Y-48137868D01*
X244432234Y-47360051D01*
X245210051Y-46582234D01*
X245987868Y-47360051D01*
G37*
G36*
X247967766Y-49339949D02*
G01*
X247189949Y-50117766D01*
X246412132Y-49339949D01*
X247189949Y-48562132D01*
X247967766Y-49339949D01*
G37*
G36*
X233987868Y-47360051D02*
G01*
X233210051Y-48137868D01*
X232432234Y-47360051D01*
X233210051Y-46582234D01*
X233987868Y-47360051D01*
G37*
G36*
X235967766Y-49339949D02*
G01*
X235189949Y-50117766D01*
X234412132Y-49339949D01*
X235189949Y-48562132D01*
X235967766Y-49339949D01*
G37*
G36*
X221987868Y-47360051D02*
G01*
X221210051Y-48137868D01*
X220432234Y-47360051D01*
X221210051Y-46582234D01*
X221987868Y-47360051D01*
G37*
G36*
X223967766Y-49339949D02*
G01*
X223189949Y-50117766D01*
X222412132Y-49339949D01*
X223189949Y-48562132D01*
X223967766Y-49339949D01*
G37*
G36*
X299987868Y-59360051D02*
G01*
X299210051Y-60137868D01*
X298432234Y-59360051D01*
X299210051Y-58582234D01*
X299987868Y-59360051D01*
G37*
G36*
X301967766Y-61339949D02*
G01*
X301189949Y-62117766D01*
X300412132Y-61339949D01*
X301189949Y-60562132D01*
X301967766Y-61339949D01*
G37*
G36*
X287987868Y-59360051D02*
G01*
X287210051Y-60137868D01*
X286432234Y-59360051D01*
X287210051Y-58582234D01*
X287987868Y-59360051D01*
G37*
G36*
X289967766Y-61339949D02*
G01*
X289189949Y-62117766D01*
X288412132Y-61339949D01*
X289189949Y-60562132D01*
X289967766Y-61339949D01*
G37*
G36*
X269987868Y-59360051D02*
G01*
X269210051Y-60137868D01*
X268432234Y-59360051D01*
X269210051Y-58582234D01*
X269987868Y-59360051D01*
G37*
G36*
X271967766Y-61339949D02*
G01*
X271189949Y-62117766D01*
X270412132Y-61339949D01*
X271189949Y-60562132D01*
X271967766Y-61339949D01*
G37*
G36*
X257987868Y-59360051D02*
G01*
X257210051Y-60137868D01*
X256432234Y-59360051D01*
X257210051Y-58582234D01*
X257987868Y-59360051D01*
G37*
G36*
X259967766Y-61339949D02*
G01*
X259189949Y-62117766D01*
X258412132Y-61339949D01*
X259189949Y-60562132D01*
X259967766Y-61339949D01*
G37*
G36*
X245987868Y-59360051D02*
G01*
X245210051Y-60137868D01*
X244432234Y-59360051D01*
X245210051Y-58582234D01*
X245987868Y-59360051D01*
G37*
G36*
X247967766Y-61339949D02*
G01*
X247189949Y-62117766D01*
X246412132Y-61339949D01*
X247189949Y-60562132D01*
X247967766Y-61339949D01*
G37*
G36*
X233987868Y-59360051D02*
G01*
X233210051Y-60137868D01*
X232432234Y-59360051D01*
X233210051Y-58582234D01*
X233987868Y-59360051D01*
G37*
G36*
X235967766Y-61339949D02*
G01*
X235189949Y-62117766D01*
X234412132Y-61339949D01*
X235189949Y-60562132D01*
X235967766Y-61339949D01*
G37*
G36*
X221987868Y-59360051D02*
G01*
X221210051Y-60137868D01*
X220432234Y-59360051D01*
X221210051Y-58582234D01*
X221987868Y-59360051D01*
G37*
G36*
X223967766Y-61339949D02*
G01*
X223189949Y-62117766D01*
X222412132Y-61339949D01*
X223189949Y-60562132D01*
X223967766Y-61339949D01*
G37*
D18*
X269200000Y-82000000D03*
X269200000Y-79200000D03*
X251200000Y-82000000D03*
X251200000Y-79200000D03*
X233200000Y-82000000D03*
X233200000Y-79200000D03*
X197200000Y-82000000D03*
X197200000Y-79200000D03*
X179200000Y-82000000D03*
X179200000Y-79200000D03*
X143200000Y-82000000D03*
X143200000Y-79200000D03*
X125200000Y-82000000D03*
X125200000Y-79200000D03*
X107200000Y-82000000D03*
X107200000Y-79200000D03*
X71200000Y-82000000D03*
X71200000Y-79200000D03*
X53200000Y-82000000D03*
X53200000Y-79200000D03*
X296200000Y-97490000D03*
X296200000Y-94690000D03*
X278200000Y-97500000D03*
X278200000Y-94700000D03*
X260200000Y-97500000D03*
X260200000Y-94700000D03*
X242200000Y-97500000D03*
X242200000Y-94700000D03*
X224200000Y-97500000D03*
X224200000Y-94700000D03*
X206200000Y-97500000D03*
X206200000Y-94700000D03*
X188200000Y-97500000D03*
X188200000Y-94700000D03*
X170200000Y-97500000D03*
X170200000Y-94700000D03*
X152200000Y-97500000D03*
X152200000Y-94700000D03*
X134200000Y-97500000D03*
X134200000Y-94700000D03*
X116200000Y-97500000D03*
X116200000Y-94700000D03*
X98200000Y-97500000D03*
X98200000Y-94700000D03*
X80200000Y-97500000D03*
X80200000Y-94700000D03*
X62200000Y-97500000D03*
X62200000Y-94700000D03*
X44200000Y-97500000D03*
X44200000Y-94700000D03*
X26200000Y-97500000D03*
X26200000Y-94700000D03*
M02*
