G04 #@! TF.GenerationSoftware,KiCad,Pcbnew,5.1.9*
G04 #@! TF.CreationDate,2021-05-03T15:36:02+02:00*
G04 #@! TF.ProjectId,OTTO-Beta-Main,4f54544f-2d42-4657-9461-2d4d61696e2e,rev?*
G04 #@! TF.SameCoordinates,Original*
G04 #@! TF.FileFunction,Legend,Bot*
G04 #@! TF.FilePolarity,Positive*
%FSLAX46Y46*%
G04 Gerber Fmt 4.6, Leading zero omitted, Abs format (unit mm)*
G04 Created by KiCad (PCBNEW 5.1.9) date 2021-05-03 15:36:02*
%MOMM*%
%LPD*%
G01*
G04 APERTURE LIST*
%ADD10C,0.125000*%
%ADD11C,0.150000*%
%ADD12C,0.120000*%
G04 APERTURE END LIST*
D10*
X30962142Y-30466785D02*
X30990714Y-30495357D01*
X31076428Y-30523928D01*
X31133571Y-30523928D01*
X31219285Y-30495357D01*
X31276428Y-30438214D01*
X31305000Y-30381071D01*
X31333571Y-30266785D01*
X31333571Y-30181071D01*
X31305000Y-30066785D01*
X31276428Y-30009642D01*
X31219285Y-29952500D01*
X31133571Y-29923928D01*
X31076428Y-29923928D01*
X30990714Y-29952500D01*
X30962142Y-29981071D01*
X30447857Y-30123928D02*
X30447857Y-30523928D01*
X30705000Y-30123928D02*
X30705000Y-30438214D01*
X30676428Y-30495357D01*
X30619285Y-30523928D01*
X30533571Y-30523928D01*
X30476428Y-30495357D01*
X30447857Y-30466785D01*
X30247857Y-30123928D02*
X30019285Y-30123928D01*
X30162142Y-29923928D02*
X30162142Y-30438214D01*
X30133571Y-30495357D01*
X30076428Y-30523928D01*
X30019285Y-30523928D01*
X29419285Y-30123928D02*
X29305000Y-30523928D01*
X29190714Y-30238214D01*
X29076428Y-30523928D01*
X28962142Y-30123928D01*
X28733571Y-30523928D02*
X28733571Y-29923928D01*
X28476428Y-30523928D02*
X28476428Y-30209642D01*
X28505000Y-30152500D01*
X28562142Y-30123928D01*
X28647857Y-30123928D01*
X28705000Y-30152500D01*
X28733571Y-30181071D01*
X27962142Y-30495357D02*
X28019285Y-30523928D01*
X28133571Y-30523928D01*
X28190714Y-30495357D01*
X28219285Y-30438214D01*
X28219285Y-30209642D01*
X28190714Y-30152500D01*
X28133571Y-30123928D01*
X28019285Y-30123928D01*
X27962142Y-30152500D01*
X27933571Y-30209642D01*
X27933571Y-30266785D01*
X28219285Y-30323928D01*
X27676428Y-30123928D02*
X27676428Y-30523928D01*
X27676428Y-30181071D02*
X27647857Y-30152500D01*
X27590714Y-30123928D01*
X27505000Y-30123928D01*
X27447857Y-30152500D01*
X27419285Y-30209642D01*
X27419285Y-30523928D01*
X26676428Y-30523928D02*
X26676428Y-30123928D01*
X26676428Y-29923928D02*
X26705000Y-29952500D01*
X26676428Y-29981071D01*
X26647857Y-29952500D01*
X26676428Y-29923928D01*
X26676428Y-29981071D01*
X26390714Y-30123928D02*
X26390714Y-30523928D01*
X26390714Y-30181071D02*
X26362142Y-30152500D01*
X26305000Y-30123928D01*
X26219285Y-30123928D01*
X26162142Y-30152500D01*
X26133571Y-30209642D01*
X26133571Y-30523928D01*
X25876428Y-30495357D02*
X25819285Y-30523928D01*
X25705000Y-30523928D01*
X25647857Y-30495357D01*
X25619285Y-30438214D01*
X25619285Y-30409642D01*
X25647857Y-30352500D01*
X25705000Y-30323928D01*
X25790714Y-30323928D01*
X25847857Y-30295357D01*
X25876428Y-30238214D01*
X25876428Y-30209642D01*
X25847857Y-30152500D01*
X25790714Y-30123928D01*
X25705000Y-30123928D01*
X25647857Y-30152500D01*
X25447857Y-30123928D02*
X25219285Y-30123928D01*
X25362142Y-29923928D02*
X25362142Y-30438214D01*
X25333571Y-30495357D01*
X25276428Y-30523928D01*
X25219285Y-30523928D01*
X24762142Y-30523928D02*
X24762142Y-30209642D01*
X24790714Y-30152500D01*
X24847857Y-30123928D01*
X24962142Y-30123928D01*
X25019285Y-30152500D01*
X24762142Y-30495357D02*
X24819285Y-30523928D01*
X24962142Y-30523928D01*
X25019285Y-30495357D01*
X25047857Y-30438214D01*
X25047857Y-30381071D01*
X25019285Y-30323928D01*
X24962142Y-30295357D01*
X24819285Y-30295357D01*
X24762142Y-30266785D01*
X24390714Y-30523928D02*
X24447857Y-30495357D01*
X24476428Y-30438214D01*
X24476428Y-29923928D01*
X24076428Y-30523928D02*
X24133571Y-30495357D01*
X24162142Y-30438214D01*
X24162142Y-29923928D01*
X23847857Y-30523928D02*
X23847857Y-30123928D01*
X23847857Y-29923928D02*
X23876428Y-29952500D01*
X23847857Y-29981071D01*
X23819285Y-29952500D01*
X23847857Y-29923928D01*
X23847857Y-29981071D01*
X23562142Y-30123928D02*
X23562142Y-30523928D01*
X23562142Y-30181071D02*
X23533571Y-30152500D01*
X23476428Y-30123928D01*
X23390714Y-30123928D01*
X23333571Y-30152500D01*
X23305000Y-30209642D01*
X23305000Y-30523928D01*
X22762142Y-30123928D02*
X22762142Y-30609642D01*
X22790714Y-30666785D01*
X22819285Y-30695357D01*
X22876428Y-30723928D01*
X22962142Y-30723928D01*
X23019285Y-30695357D01*
X22762142Y-30495357D02*
X22819285Y-30523928D01*
X22933571Y-30523928D01*
X22990714Y-30495357D01*
X23019285Y-30466785D01*
X23047857Y-30409642D01*
X23047857Y-30238214D01*
X23019285Y-30181071D01*
X22990714Y-30152500D01*
X22933571Y-30123928D01*
X22819285Y-30123928D01*
X22762142Y-30152500D01*
X29719285Y-31548928D02*
X29719285Y-30948928D01*
X29719285Y-31177500D02*
X29662142Y-31148928D01*
X29547857Y-31148928D01*
X29490714Y-31177500D01*
X29462142Y-31206071D01*
X29433571Y-31263214D01*
X29433571Y-31434642D01*
X29462142Y-31491785D01*
X29490714Y-31520357D01*
X29547857Y-31548928D01*
X29662142Y-31548928D01*
X29719285Y-31520357D01*
X28919285Y-31548928D02*
X28919285Y-31234642D01*
X28947857Y-31177500D01*
X29005000Y-31148928D01*
X29119285Y-31148928D01*
X29176428Y-31177500D01*
X28919285Y-31520357D02*
X28976428Y-31548928D01*
X29119285Y-31548928D01*
X29176428Y-31520357D01*
X29205000Y-31463214D01*
X29205000Y-31406071D01*
X29176428Y-31348928D01*
X29119285Y-31320357D01*
X28976428Y-31320357D01*
X28919285Y-31291785D01*
X28719285Y-31148928D02*
X28490714Y-31148928D01*
X28633571Y-30948928D02*
X28633571Y-31463214D01*
X28605000Y-31520357D01*
X28547857Y-31548928D01*
X28490714Y-31548928D01*
X28376428Y-31148928D02*
X28147857Y-31148928D01*
X28290714Y-30948928D02*
X28290714Y-31463214D01*
X28262142Y-31520357D01*
X28205000Y-31548928D01*
X28147857Y-31548928D01*
X27719285Y-31520357D02*
X27776428Y-31548928D01*
X27890714Y-31548928D01*
X27947857Y-31520357D01*
X27976428Y-31463214D01*
X27976428Y-31234642D01*
X27947857Y-31177500D01*
X27890714Y-31148928D01*
X27776428Y-31148928D01*
X27719285Y-31177500D01*
X27690714Y-31234642D01*
X27690714Y-31291785D01*
X27976428Y-31348928D01*
X27433571Y-31548928D02*
X27433571Y-31148928D01*
X27433571Y-31263214D02*
X27405000Y-31206071D01*
X27376428Y-31177500D01*
X27319285Y-31148928D01*
X27262142Y-31148928D01*
X27119285Y-31148928D02*
X26976428Y-31548928D01*
X26833571Y-31148928D02*
X26976428Y-31548928D01*
X27033571Y-31691785D01*
X27062142Y-31720357D01*
X27119285Y-31748928D01*
X26147857Y-31548928D02*
X26147857Y-30948928D01*
X26147857Y-31177500D02*
X26090714Y-31148928D01*
X25976428Y-31148928D01*
X25919285Y-31177500D01*
X25890714Y-31206071D01*
X25862142Y-31263214D01*
X25862142Y-31434642D01*
X25890714Y-31491785D01*
X25919285Y-31520357D01*
X25976428Y-31548928D01*
X26090714Y-31548928D01*
X26147857Y-31520357D01*
X25519285Y-31548928D02*
X25576428Y-31520357D01*
X25605000Y-31491785D01*
X25633571Y-31434642D01*
X25633571Y-31263214D01*
X25605000Y-31206071D01*
X25576428Y-31177500D01*
X25519285Y-31148928D01*
X25433571Y-31148928D01*
X25376428Y-31177500D01*
X25347857Y-31206071D01*
X25319285Y-31263214D01*
X25319285Y-31434642D01*
X25347857Y-31491785D01*
X25376428Y-31520357D01*
X25433571Y-31548928D01*
X25519285Y-31548928D01*
X24805000Y-31548928D02*
X24805000Y-31234642D01*
X24833571Y-31177500D01*
X24890714Y-31148928D01*
X25005000Y-31148928D01*
X25062142Y-31177500D01*
X24805000Y-31520357D02*
X24862142Y-31548928D01*
X25005000Y-31548928D01*
X25062142Y-31520357D01*
X25090714Y-31463214D01*
X25090714Y-31406071D01*
X25062142Y-31348928D01*
X25005000Y-31320357D01*
X24862142Y-31320357D01*
X24805000Y-31291785D01*
X24519285Y-31548928D02*
X24519285Y-31148928D01*
X24519285Y-31263214D02*
X24490714Y-31206071D01*
X24462142Y-31177500D01*
X24405000Y-31148928D01*
X24347857Y-31148928D01*
X23890714Y-31548928D02*
X23890714Y-30948928D01*
X23890714Y-31520357D02*
X23947857Y-31548928D01*
X24062142Y-31548928D01*
X24119285Y-31520357D01*
X24147857Y-31491785D01*
X24176428Y-31434642D01*
X24176428Y-31263214D01*
X24147857Y-31206071D01*
X24119285Y-31177500D01*
X24062142Y-31148928D01*
X23947857Y-31148928D01*
X23890714Y-31177500D01*
D11*
X24109464Y-24881108D02*
G75*
G02*
X23577001Y-25063799I-278464J-55692D01*
G01*
X23501540Y-24376388D02*
G75*
G02*
X24059599Y-24631999I278660J-128612D01*
G01*
X25228000Y-25089200D02*
X23551600Y-24428800D01*
X25177200Y-24200200D02*
X23602400Y-25063800D01*
X26805000Y-24515000D02*
X26805000Y-29765000D01*
X32472000Y-37685000D02*
X31964000Y-37685000D01*
X273040047Y-102831380D02*
X273040047Y-103545666D01*
X273087666Y-103688523D01*
X273182904Y-103783761D01*
X273325761Y-103831380D01*
X273421000Y-103831380D01*
X272087666Y-103831380D02*
X272563857Y-103831380D01*
X272563857Y-102831380D01*
X271182904Y-103736142D02*
X271230523Y-103783761D01*
X271373380Y-103831380D01*
X271468619Y-103831380D01*
X271611476Y-103783761D01*
X271706714Y-103688523D01*
X271754333Y-103593285D01*
X271801952Y-103402809D01*
X271801952Y-103259952D01*
X271754333Y-103069476D01*
X271706714Y-102974238D01*
X271611476Y-102879000D01*
X271468619Y-102831380D01*
X271373380Y-102831380D01*
X271230523Y-102879000D01*
X271182904Y-102926619D01*
X270468619Y-102831380D02*
X270468619Y-103545666D01*
X270516238Y-103688523D01*
X270611476Y-103783761D01*
X270754333Y-103831380D01*
X270849571Y-103831380D01*
X269516238Y-103831380D02*
X269992428Y-103831380D01*
X269992428Y-102831380D01*
X268611476Y-103736142D02*
X268659095Y-103783761D01*
X268801952Y-103831380D01*
X268897190Y-103831380D01*
X269040047Y-103783761D01*
X269135285Y-103688523D01*
X269182904Y-103593285D01*
X269230523Y-103402809D01*
X269230523Y-103259952D01*
X269182904Y-103069476D01*
X269135285Y-102974238D01*
X269040047Y-102879000D01*
X268897190Y-102831380D01*
X268801952Y-102831380D01*
X268659095Y-102879000D01*
X268611476Y-102926619D01*
X267897190Y-102831380D02*
X267897190Y-103545666D01*
X267944809Y-103688523D01*
X268040047Y-103783761D01*
X268182904Y-103831380D01*
X268278142Y-103831380D01*
X266944809Y-103831380D02*
X267421000Y-103831380D01*
X267421000Y-102831380D01*
X266040047Y-103736142D02*
X266087666Y-103783761D01*
X266230523Y-103831380D01*
X266325761Y-103831380D01*
X266468619Y-103783761D01*
X266563857Y-103688523D01*
X266611476Y-103593285D01*
X266659095Y-103402809D01*
X266659095Y-103259952D01*
X266611476Y-103069476D01*
X266563857Y-102974238D01*
X266468619Y-102879000D01*
X266325761Y-102831380D01*
X266230523Y-102831380D01*
X266087666Y-102879000D01*
X266040047Y-102926619D01*
X265325761Y-102831380D02*
X265325761Y-103545666D01*
X265373380Y-103688523D01*
X265468619Y-103783761D01*
X265611476Y-103831380D01*
X265706714Y-103831380D01*
X264373380Y-103831380D02*
X264849571Y-103831380D01*
X264849571Y-102831380D01*
X263468619Y-103736142D02*
X263516238Y-103783761D01*
X263659095Y-103831380D01*
X263754333Y-103831380D01*
X263897190Y-103783761D01*
X263992428Y-103688523D01*
X264040047Y-103593285D01*
X264087666Y-103402809D01*
X264087666Y-103259952D01*
X264040047Y-103069476D01*
X263992428Y-102974238D01*
X263897190Y-102879000D01*
X263754333Y-102831380D01*
X263659095Y-102831380D01*
X263516238Y-102879000D01*
X263468619Y-102926619D01*
X92478571Y-42961904D02*
X92478571Y-42161904D01*
X92173809Y-42161904D01*
X92097619Y-42200000D01*
X92059523Y-42238095D01*
X92021428Y-42314285D01*
X92021428Y-42428571D01*
X92059523Y-42504761D01*
X92097619Y-42542857D01*
X92173809Y-42580952D01*
X92478571Y-42580952D01*
X91526190Y-42161904D02*
X91373809Y-42161904D01*
X91297619Y-42200000D01*
X91221428Y-42276190D01*
X91183333Y-42428571D01*
X91183333Y-42695238D01*
X91221428Y-42847619D01*
X91297619Y-42923809D01*
X91373809Y-42961904D01*
X91526190Y-42961904D01*
X91602380Y-42923809D01*
X91678571Y-42847619D01*
X91716666Y-42695238D01*
X91716666Y-42428571D01*
X91678571Y-42276190D01*
X91602380Y-42200000D01*
X91526190Y-42161904D01*
X90230952Y-42961904D02*
X90230952Y-42161904D01*
X89926190Y-42161904D01*
X89850000Y-42200000D01*
X89811904Y-42238095D01*
X89773809Y-42314285D01*
X89773809Y-42428571D01*
X89811904Y-42504761D01*
X89850000Y-42542857D01*
X89926190Y-42580952D01*
X90230952Y-42580952D01*
X89430952Y-42961904D02*
X89430952Y-42161904D01*
X88478571Y-42123809D02*
X89164285Y-43152380D01*
X87830952Y-42961904D02*
X88211904Y-42961904D01*
X88211904Y-42161904D01*
X87564285Y-42542857D02*
X87297619Y-42542857D01*
X87183333Y-42961904D02*
X87564285Y-42961904D01*
X87564285Y-42161904D01*
X87183333Y-42161904D01*
X86840476Y-42961904D02*
X86840476Y-42161904D01*
X86650000Y-42161904D01*
X86535714Y-42200000D01*
X86459523Y-42276190D01*
X86421428Y-42352380D01*
X86383333Y-42504761D01*
X86383333Y-42619047D01*
X86421428Y-42771428D01*
X86459523Y-42847619D01*
X86535714Y-42923809D01*
X86650000Y-42961904D01*
X86840476Y-42961904D01*
X92021428Y-36792857D02*
X91907142Y-36830952D01*
X91869047Y-36869047D01*
X91830952Y-36945238D01*
X91830952Y-37059523D01*
X91869047Y-37135714D01*
X91907142Y-37173809D01*
X91983333Y-37211904D01*
X92288095Y-37211904D01*
X92288095Y-36411904D01*
X92021428Y-36411904D01*
X91945238Y-36450000D01*
X91907142Y-36488095D01*
X91869047Y-36564285D01*
X91869047Y-36640476D01*
X91907142Y-36716666D01*
X91945238Y-36754761D01*
X92021428Y-36792857D01*
X92288095Y-36792857D01*
X91335714Y-36411904D02*
X91183333Y-36411904D01*
X91107142Y-36450000D01*
X91030952Y-36526190D01*
X90992857Y-36678571D01*
X90992857Y-36945238D01*
X91030952Y-37097619D01*
X91107142Y-37173809D01*
X91183333Y-37211904D01*
X91335714Y-37211904D01*
X91411904Y-37173809D01*
X91488095Y-37097619D01*
X91526190Y-36945238D01*
X91526190Y-36678571D01*
X91488095Y-36526190D01*
X91411904Y-36450000D01*
X91335714Y-36411904D01*
X90497619Y-36411904D02*
X90345238Y-36411904D01*
X90269047Y-36450000D01*
X90192857Y-36526190D01*
X90154761Y-36678571D01*
X90154761Y-36945238D01*
X90192857Y-37097619D01*
X90269047Y-37173809D01*
X90345238Y-37211904D01*
X90497619Y-37211904D01*
X90573809Y-37173809D01*
X90650000Y-37097619D01*
X90688095Y-36945238D01*
X90688095Y-36678571D01*
X90650000Y-36526190D01*
X90573809Y-36450000D01*
X90497619Y-36411904D01*
X89926190Y-36411904D02*
X89469047Y-36411904D01*
X89697619Y-37211904D02*
X89697619Y-36411904D01*
X88440476Y-36411904D02*
X88364285Y-36411904D01*
X88288095Y-36450000D01*
X88250000Y-36488095D01*
X88211904Y-36564285D01*
X88173809Y-36716666D01*
X88173809Y-36907142D01*
X88211904Y-37059523D01*
X88250000Y-37135714D01*
X88288095Y-37173809D01*
X88364285Y-37211904D01*
X88440476Y-37211904D01*
X88516666Y-37173809D01*
X88554761Y-37135714D01*
X88592857Y-37059523D01*
X88630952Y-36907142D01*
X88630952Y-36716666D01*
X88592857Y-36564285D01*
X88554761Y-36488095D01*
X88516666Y-36450000D01*
X88440476Y-36411904D01*
X87259523Y-36373809D02*
X87945238Y-37402380D01*
X86573809Y-37211904D02*
X87030952Y-37211904D01*
X86802380Y-37211904D02*
X86802380Y-36411904D01*
X86878571Y-36526190D01*
X86954761Y-36602380D01*
X87030952Y-36640476D01*
X50176190Y-59429761D02*
X50033333Y-59477380D01*
X49795238Y-59477380D01*
X49700000Y-59429761D01*
X49652380Y-59382142D01*
X49604761Y-59286904D01*
X49604761Y-59191666D01*
X49652380Y-59096428D01*
X49700000Y-59048809D01*
X49795238Y-59001190D01*
X49985714Y-58953571D01*
X50080952Y-58905952D01*
X50128571Y-58858333D01*
X50176190Y-58763095D01*
X50176190Y-58667857D01*
X50128571Y-58572619D01*
X50080952Y-58525000D01*
X49985714Y-58477380D01*
X49747619Y-58477380D01*
X49604761Y-58525000D01*
X49319047Y-58477380D02*
X48747619Y-58477380D01*
X49033333Y-59477380D02*
X49033333Y-58477380D01*
X48461904Y-59191666D02*
X47985714Y-59191666D01*
X48557142Y-59477380D02*
X48223809Y-58477380D01*
X47890476Y-59477380D01*
X47700000Y-58477380D02*
X47128571Y-58477380D01*
X47414285Y-59477380D02*
X47414285Y-58477380D01*
X46795238Y-58477380D02*
X46795238Y-59286904D01*
X46747619Y-59382142D01*
X46700000Y-59429761D01*
X46604761Y-59477380D01*
X46414285Y-59477380D01*
X46319047Y-59429761D01*
X46271428Y-59382142D01*
X46223809Y-59286904D01*
X46223809Y-58477380D01*
X45795238Y-59429761D02*
X45652380Y-59477380D01*
X45414285Y-59477380D01*
X45319047Y-59429761D01*
X45271428Y-59382142D01*
X45223809Y-59286904D01*
X45223809Y-59191666D01*
X45271428Y-59096428D01*
X45319047Y-59048809D01*
X45414285Y-59001190D01*
X45604761Y-58953571D01*
X45700000Y-58905952D01*
X45747619Y-58858333D01*
X45795238Y-58763095D01*
X45795238Y-58667857D01*
X45747619Y-58572619D01*
X45700000Y-58525000D01*
X45604761Y-58477380D01*
X45366666Y-58477380D01*
X45223809Y-58525000D01*
X79852619Y-69110238D02*
X80852619Y-69110238D01*
X80138333Y-68776904D01*
X80852619Y-68443571D01*
X79852619Y-68443571D01*
X79947857Y-67395952D02*
X79900238Y-67443571D01*
X79852619Y-67586428D01*
X79852619Y-67681666D01*
X79900238Y-67824523D01*
X79995476Y-67919761D01*
X80090714Y-67967380D01*
X80281190Y-68015000D01*
X80424047Y-68015000D01*
X80614523Y-67967380D01*
X80709761Y-67919761D01*
X80805000Y-67824523D01*
X80852619Y-67681666D01*
X80852619Y-67586428D01*
X80805000Y-67443571D01*
X80757380Y-67395952D01*
X80852619Y-66967380D02*
X80043095Y-66967380D01*
X79947857Y-66919761D01*
X79900238Y-66872142D01*
X79852619Y-66776904D01*
X79852619Y-66586428D01*
X79900238Y-66491190D01*
X79947857Y-66443571D01*
X80043095Y-66395952D01*
X80852619Y-66395952D01*
X79852619Y-64586428D02*
X80328809Y-64919761D01*
X79852619Y-65157857D02*
X80852619Y-65157857D01*
X80852619Y-64776904D01*
X80805000Y-64681666D01*
X80757380Y-64634047D01*
X80662142Y-64586428D01*
X80519285Y-64586428D01*
X80424047Y-64634047D01*
X80376428Y-64681666D01*
X80328809Y-64776904D01*
X80328809Y-65157857D01*
X79900238Y-64205476D02*
X79852619Y-64062619D01*
X79852619Y-63824523D01*
X79900238Y-63729285D01*
X79947857Y-63681666D01*
X80043095Y-63634047D01*
X80138333Y-63634047D01*
X80233571Y-63681666D01*
X80281190Y-63729285D01*
X80328809Y-63824523D01*
X80376428Y-64015000D01*
X80424047Y-64110238D01*
X80471666Y-64157857D01*
X80566904Y-64205476D01*
X80662142Y-64205476D01*
X80757380Y-64157857D01*
X80805000Y-64110238D01*
X80852619Y-64015000D01*
X80852619Y-63776904D01*
X80805000Y-63634047D01*
X80852619Y-63348333D02*
X80852619Y-62776904D01*
X79852619Y-63062619D02*
X80852619Y-63062619D01*
D12*
X58540000Y-60210000D02*
X57590000Y-60210000D01*
X57590000Y-60210000D02*
X57590000Y-59260000D01*
X66860000Y-60210000D02*
X67810000Y-60210000D01*
X67810000Y-60210000D02*
X67810000Y-59260000D01*
X58540000Y-49990000D02*
X57590000Y-49990000D01*
X57590000Y-49990000D02*
X57590000Y-50940000D01*
X66860000Y-49990000D02*
X67810000Y-49990000D01*
X67810000Y-49990000D02*
X67810000Y-50940000D01*
X67810000Y-50940000D02*
X69150000Y-50940000D01*
X25405000Y-29515000D02*
X28205000Y-29515000D01*
X28205000Y-29515000D02*
X28205000Y-27515000D01*
X28205000Y-27515000D02*
X25405000Y-27515000D01*
X25405000Y-27515000D02*
X25405000Y-29515000D01*
X28205000Y-25515000D02*
X25405000Y-25515000D01*
X25405000Y-25515000D02*
X25405000Y-27515000D01*
X25405000Y-27515000D02*
X28205000Y-27515000D01*
X28205000Y-27515000D02*
X28205000Y-25515000D01*
X21155252Y-55247800D02*
X20632748Y-55247800D01*
X21155252Y-56667800D02*
X20632748Y-56667800D01*
X85215000Y-65677064D02*
X85215000Y-65222936D01*
X86685000Y-65677064D02*
X86685000Y-65222936D01*
X23277600Y-70606000D02*
X23277600Y-67156000D01*
X23277600Y-70606000D02*
X23277600Y-72556000D01*
X28397600Y-70606000D02*
X28397600Y-68656000D01*
X28397600Y-70606000D02*
X28397600Y-72556000D01*
X179070000Y-31770000D02*
X179070000Y-24330000D01*
X173830000Y-31770000D02*
X173830000Y-24330000D01*
X179070000Y-31770000D02*
X173830000Y-31770000D01*
X179070000Y-24330000D02*
X173830000Y-24330000D01*
X184830000Y-24330000D02*
X184830000Y-31770000D01*
X190070000Y-24330000D02*
X190070000Y-31770000D01*
X184830000Y-24330000D02*
X190070000Y-24330000D01*
X184830000Y-31770000D02*
X190070000Y-31770000D01*
X195570000Y-31770000D02*
X195570000Y-24330000D01*
X190330000Y-31770000D02*
X190330000Y-24330000D01*
X195570000Y-31770000D02*
X190330000Y-31770000D01*
X195570000Y-24330000D02*
X190330000Y-24330000D01*
X179330000Y-24330000D02*
X179330000Y-31770000D01*
X184570000Y-24330000D02*
X184570000Y-31770000D01*
X179330000Y-24330000D02*
X184570000Y-24330000D01*
X179330000Y-31770000D02*
X184570000Y-31770000D01*
X201070000Y-31770000D02*
X201070000Y-24330000D01*
X195830000Y-31770000D02*
X195830000Y-24330000D01*
X201070000Y-31770000D02*
X195830000Y-31770000D01*
X201070000Y-24330000D02*
X195830000Y-24330000D01*
D11*
X58470000Y-8600000D02*
X58470000Y-17200000D01*
X58470000Y-24900000D02*
X46470000Y-24900000D01*
X46470000Y-17200000D02*
X46470000Y-8600000D01*
X46470000Y-8600000D02*
X58470000Y-8600000D01*
X46470000Y-24900000D02*
X46470000Y-20700000D01*
X58470000Y-24900000D02*
X58470000Y-20700000D01*
X42870000Y-8600000D02*
X42870000Y-17200000D01*
X34070000Y-22800000D02*
X36170000Y-22800000D01*
X34070000Y-22800000D02*
X34070000Y-8600000D01*
X42870000Y-22800000D02*
X40770000Y-22800000D01*
X42870000Y-22000000D02*
X42870000Y-22800000D01*
X34070000Y-8600000D02*
X42870000Y-8600000D01*
D12*
X23820000Y-9600000D02*
X23820000Y-10750000D01*
X32320000Y-9600000D02*
X32320000Y-10750000D01*
X23820000Y-9600000D02*
X32320000Y-9600000D01*
X26070000Y-6400000D02*
X30070000Y-6400000D01*
X30070000Y-9550000D02*
X30070000Y-6400000D01*
X26070000Y-9550000D02*
X26070000Y-6400000D01*
X32820000Y-10800000D02*
X32820000Y-12310000D01*
X23320000Y-10800000D02*
X23320000Y-12310000D01*
X32820000Y-10800000D02*
X23320000Y-10800000D01*
X32820000Y-16300000D02*
X32820000Y-14790000D01*
X23320000Y-16300000D02*
X23320000Y-14790000D01*
X23320000Y-16300000D02*
X32820000Y-16300000D01*
D11*
X90200000Y-9600000D02*
X90200000Y-22900000D01*
X90200000Y-22900000D02*
X96200000Y-22900000D01*
X96200000Y-22900000D02*
X96200000Y-9600000D01*
X96200000Y-9600000D02*
X95950000Y-9600000D01*
X95950000Y-9600000D02*
X95950000Y-8400000D01*
X95950000Y-8400000D02*
X90450000Y-8400000D01*
X90450000Y-8400000D02*
X90450000Y-9600000D01*
X90450000Y-9600000D02*
X90200000Y-9600000D01*
X170200000Y-9600000D02*
X170200000Y-22900000D01*
X170200000Y-22900000D02*
X176200000Y-22900000D01*
X176200000Y-22900000D02*
X176200000Y-9600000D01*
X176200000Y-9600000D02*
X175950000Y-9600000D01*
X175950000Y-9600000D02*
X175950000Y-8400000D01*
X175950000Y-8400000D02*
X170450000Y-8400000D01*
X170450000Y-8400000D02*
X170450000Y-9600000D01*
X170450000Y-9600000D02*
X170200000Y-9600000D01*
X185200000Y-9600000D02*
X185200000Y-22900000D01*
X185200000Y-22900000D02*
X191200000Y-22900000D01*
X191200000Y-22900000D02*
X191200000Y-9600000D01*
X191200000Y-9600000D02*
X190950000Y-9600000D01*
X190950000Y-9600000D02*
X190950000Y-8400000D01*
X190950000Y-8400000D02*
X185450000Y-8400000D01*
X185450000Y-8400000D02*
X185450000Y-9600000D01*
X185450000Y-9600000D02*
X185200000Y-9600000D01*
X200200000Y-9600000D02*
X200200000Y-22900000D01*
X200200000Y-22900000D02*
X206200000Y-22900000D01*
X206200000Y-22900000D02*
X206200000Y-9600000D01*
X206200000Y-9600000D02*
X205950000Y-9600000D01*
X205950000Y-9600000D02*
X205950000Y-8400000D01*
X205950000Y-8400000D02*
X200450000Y-8400000D01*
X200450000Y-8400000D02*
X200450000Y-9600000D01*
X200450000Y-9600000D02*
X200200000Y-9600000D01*
X66200000Y-9600000D02*
X66200000Y-22900000D01*
X66200000Y-22900000D02*
X72200000Y-22900000D01*
X72200000Y-22900000D02*
X72200000Y-9600000D01*
X72200000Y-9600000D02*
X71950000Y-9600000D01*
X71950000Y-9600000D02*
X71950000Y-8400000D01*
X71950000Y-8400000D02*
X66450000Y-8400000D01*
X66450000Y-8400000D02*
X66450000Y-9600000D01*
X66450000Y-9600000D02*
X66200000Y-9600000D01*
X78200000Y-9600000D02*
X78200000Y-22900000D01*
X78200000Y-22900000D02*
X84200000Y-22900000D01*
X84200000Y-22900000D02*
X84200000Y-9600000D01*
X84200000Y-9600000D02*
X83950000Y-9600000D01*
X83950000Y-9600000D02*
X83950000Y-8400000D01*
X83950000Y-8400000D02*
X78450000Y-8400000D01*
X78450000Y-8400000D02*
X78450000Y-9600000D01*
X78450000Y-9600000D02*
X78200000Y-9600000D01*
D12*
X18972348Y-62629200D02*
X19494852Y-62629200D01*
X18972348Y-61209200D02*
X19494852Y-61209200D01*
X18972348Y-60800400D02*
X19494852Y-60800400D01*
X18972348Y-59380400D02*
X19494852Y-59380400D01*
X28842052Y-80030600D02*
X28319548Y-80030600D01*
X28842052Y-81450600D02*
X28319548Y-81450600D01*
X32696800Y-69608148D02*
X32696800Y-70130652D01*
X34116800Y-69608148D02*
X34116800Y-70130652D01*
X28842052Y-77185800D02*
X28319548Y-77185800D01*
X28842052Y-78605800D02*
X28319548Y-78605800D01*
X30690200Y-69658948D02*
X30690200Y-70181452D01*
X32110200Y-69658948D02*
X32110200Y-70181452D01*
X22796852Y-75001400D02*
X22274348Y-75001400D01*
X22796852Y-76421400D02*
X22274348Y-76421400D01*
X18314000Y-63947800D02*
X19244000Y-63947800D01*
X21474000Y-63947800D02*
X20544000Y-63947800D01*
X21474000Y-63947800D02*
X21474000Y-66107800D01*
X18314000Y-63947800D02*
X18314000Y-65407800D01*
X26593600Y-66295600D02*
X32193600Y-66295600D01*
X26593600Y-60895600D02*
X32193600Y-60895600D01*
X26593600Y-66295600D02*
X26593600Y-65145600D01*
X26593600Y-60895600D02*
X26593600Y-62045600D01*
X32193600Y-66295600D02*
X32193600Y-65145600D01*
X32193600Y-60895600D02*
X32193600Y-62045600D01*
X17685200Y-68755400D02*
X20985200Y-68755400D01*
X20985200Y-68755400D02*
X20985200Y-74155400D01*
X17685200Y-68755400D02*
X17685200Y-74155400D01*
X24407664Y-57935800D02*
X23203536Y-57935800D01*
X24407664Y-59755800D02*
X23203536Y-59755800D01*
X24407664Y-60145600D02*
X23203536Y-60145600D01*
X24407664Y-61965600D02*
X23203536Y-61965600D01*
X24216400Y-78817736D02*
X24216400Y-80021864D01*
X26036400Y-78817736D02*
X26036400Y-80021864D01*
X26581452Y-75052200D02*
X26058948Y-75052200D01*
X26581452Y-76472200D02*
X26058948Y-76472200D01*
X23017000Y-72391252D02*
X23017000Y-71868748D01*
X21597000Y-72391252D02*
X21597000Y-71868748D01*
X28709000Y-68871548D02*
X28709000Y-69394052D01*
X30129000Y-68871548D02*
X30129000Y-69394052D01*
X43245800Y-34986000D02*
X43245800Y-40186000D01*
X33025800Y-34986000D02*
X43245800Y-34986000D01*
X30425800Y-40186000D02*
X43245800Y-40186000D01*
X33025800Y-34986000D02*
X33025800Y-37586000D01*
X33025800Y-37586000D02*
X30425800Y-37586000D01*
X30425800Y-37586000D02*
X30425800Y-40186000D01*
X31755800Y-34986000D02*
X30425800Y-34986000D01*
X30425800Y-34986000D02*
X30425800Y-36316000D01*
X30425800Y-80186000D02*
X30425800Y-74986000D01*
X40645800Y-80186000D02*
X30425800Y-80186000D01*
X43245800Y-74986000D02*
X30425800Y-74986000D01*
X40645800Y-80186000D02*
X40645800Y-77586000D01*
X40645800Y-77586000D02*
X43245800Y-77586000D01*
X43245800Y-77586000D02*
X43245800Y-74986000D01*
X41915800Y-80186000D02*
X43245800Y-80186000D01*
X43245800Y-80186000D02*
X43245800Y-78856000D01*
X26470000Y-39515000D02*
X26470000Y-32515000D01*
X26470000Y-32515000D02*
X20470000Y-32515000D01*
X20470000Y-32515000D02*
X20470000Y-39515000D01*
X20470000Y-39515000D02*
X26470000Y-39515000D01*
D11*
X24427400Y-49545200D02*
X24427400Y-50945200D01*
X19327400Y-49545200D02*
X19327400Y-45395200D01*
X24477400Y-49545200D02*
X24477400Y-45395200D01*
X19327400Y-49545200D02*
X19472400Y-49545200D01*
X19327400Y-45395200D02*
X19472400Y-45395200D01*
X24477400Y-45395200D02*
X24332400Y-45395200D01*
X24477400Y-49545200D02*
X24427400Y-49545200D01*
D12*
X175935000Y-45162500D02*
X175935000Y-49247500D01*
X175935000Y-49247500D02*
X174065000Y-49247500D01*
X174065000Y-49247500D02*
X174065000Y-45162500D01*
X167535000Y-51462500D02*
X167535000Y-55547500D01*
X167535000Y-55547500D02*
X165665000Y-55547500D01*
X165665000Y-55547500D02*
X165665000Y-51462500D01*
X166728000Y-24580000D02*
X169078000Y-24580000D01*
X173548000Y-24580000D02*
X171198000Y-24580000D01*
X173548000Y-30335563D02*
X173548000Y-24580000D01*
X166728000Y-30335563D02*
X166728000Y-24580000D01*
X167792437Y-31400000D02*
X169078000Y-31400000D01*
X172483563Y-31400000D02*
X171198000Y-31400000D01*
X172483563Y-31400000D02*
X173548000Y-30335563D01*
X167792437Y-31400000D02*
X166728000Y-30335563D01*
X171985500Y-32427500D02*
X171985500Y-31640000D01*
X172379250Y-32033750D02*
X171591750Y-32033750D01*
X159616000Y-24580000D02*
X161966000Y-24580000D01*
X166436000Y-24580000D02*
X164086000Y-24580000D01*
X166436000Y-30335563D02*
X166436000Y-24580000D01*
X159616000Y-30335563D02*
X159616000Y-24580000D01*
X160680437Y-31400000D02*
X161966000Y-31400000D01*
X165371563Y-31400000D02*
X164086000Y-31400000D01*
X165371563Y-31400000D02*
X166436000Y-30335563D01*
X160680437Y-31400000D02*
X159616000Y-30335563D01*
X164873500Y-32427500D02*
X164873500Y-31640000D01*
X165267250Y-32033750D02*
X164479750Y-32033750D01*
X85690000Y-74860000D02*
X85690000Y-72510000D01*
X85690000Y-68040000D02*
X85690000Y-70390000D01*
X91445563Y-68040000D02*
X85690000Y-68040000D01*
X91445563Y-74860000D02*
X85690000Y-74860000D01*
X92510000Y-73795563D02*
X92510000Y-72510000D01*
X92510000Y-69104437D02*
X92510000Y-70390000D01*
X92510000Y-69104437D02*
X91445563Y-68040000D01*
X92510000Y-73795563D02*
X91445563Y-74860000D01*
X93537500Y-69602500D02*
X92750000Y-69602500D01*
X93143750Y-69208750D02*
X93143750Y-69996250D01*
X85690000Y-82110000D02*
X85690000Y-79760000D01*
X85690000Y-75290000D02*
X85690000Y-77640000D01*
X91445563Y-75290000D02*
X85690000Y-75290000D01*
X91445563Y-82110000D02*
X85690000Y-82110000D01*
X92510000Y-81045563D02*
X92510000Y-79760000D01*
X92510000Y-76354437D02*
X92510000Y-77640000D01*
X92510000Y-76354437D02*
X91445563Y-75290000D01*
X92510000Y-81045563D02*
X91445563Y-82110000D01*
X93537500Y-76852500D02*
X92750000Y-76852500D01*
X93143750Y-76458750D02*
X93143750Y-77246250D01*
X85690000Y-89360000D02*
X85690000Y-87010000D01*
X85690000Y-82540000D02*
X85690000Y-84890000D01*
X91445563Y-82540000D02*
X85690000Y-82540000D01*
X91445563Y-89360000D02*
X85690000Y-89360000D01*
X92510000Y-88295563D02*
X92510000Y-87010000D01*
X92510000Y-83604437D02*
X92510000Y-84890000D01*
X92510000Y-83604437D02*
X91445563Y-82540000D01*
X92510000Y-88295563D02*
X91445563Y-89360000D01*
X93537500Y-84102500D02*
X92750000Y-84102500D01*
X93143750Y-83708750D02*
X93143750Y-84496250D01*
X69515000Y-23125000D02*
X81985000Y-23125000D01*
X69515000Y-33525000D02*
X69515000Y-23125000D01*
X81985000Y-33525000D02*
X69515000Y-33525000D01*
X81985000Y-23125000D02*
X81985000Y-33525000D01*
X73215000Y-23185000D02*
X74750000Y-23185000D01*
X73215000Y-33465000D02*
X73215000Y-23185000D01*
X78285000Y-33465000D02*
X73215000Y-33465000D01*
X78285000Y-23185000D02*
X78285000Y-33465000D01*
X76750000Y-23185000D02*
X78285000Y-23185000D01*
X74750000Y-23185000D02*
G75*
G03*
X76750000Y-23185000I1000000J0D01*
G01*
X27320000Y-40950000D02*
X27320000Y-46350000D01*
X30620000Y-40950000D02*
X30620000Y-46350000D01*
X27320000Y-40950000D02*
X30620000Y-40950000D01*
X20712400Y-52833948D02*
X20712400Y-53356452D01*
X19292400Y-52833948D02*
X19292400Y-53356452D01*
X23092400Y-53356452D02*
X23092400Y-52833948D01*
X24512400Y-53356452D02*
X24512400Y-52833948D01*
X21241148Y-42060200D02*
X21763652Y-42060200D01*
X21241148Y-43480200D02*
X21763652Y-43480200D01*
X22612400Y-52833948D02*
X22612400Y-53356452D01*
X21192400Y-52833948D02*
X21192400Y-53356452D01*
X26286800Y-47250348D02*
X26286800Y-47772852D01*
X24866800Y-47250348D02*
X24866800Y-47772852D01*
X98050000Y-69110000D02*
X98050000Y-68410000D01*
X103350000Y-69110000D02*
X98050000Y-69110000D01*
X103350000Y-68410000D02*
X103350000Y-69110000D01*
X98050000Y-18090000D02*
X98050000Y-18790000D01*
X103350000Y-18090000D02*
X98050000Y-18090000D01*
X103350000Y-18790000D02*
X103350000Y-18090000D01*
D11*
X97200000Y-72600000D02*
X97200000Y-69350000D01*
X97200000Y-17850000D02*
X97200000Y-14600000D01*
X146450000Y-76100000D02*
X149700000Y-76100000D01*
X100700000Y-76100000D02*
X103950000Y-76100000D01*
X153200000Y-72600000D02*
X153200000Y-69350000D01*
X153200000Y-17850000D02*
X153200000Y-14600000D01*
X146450000Y-11100000D02*
X149700000Y-11100000D01*
X100700000Y-11100000D02*
X103950000Y-11100000D01*
X153200000Y-72600000D02*
G75*
G02*
X149700000Y-76100000I-3500000J0D01*
G01*
X100700000Y-76100000D02*
G75*
G02*
X97200000Y-72600000I0J3500000D01*
G01*
X97200000Y-14600000D02*
G75*
G02*
X100700000Y-11100000I3500000J0D01*
G01*
X149700000Y-11100000D02*
G75*
G02*
X153200000Y-14600000I0J-3500000D01*
G01*
D12*
X179679000Y-11693000D02*
X179679000Y-15543000D01*
X181679000Y-11693000D02*
X181679000Y-15543000D01*
X179679000Y-11693000D02*
X181679000Y-11693000D01*
X53688748Y-45140000D02*
X54211252Y-45140000D01*
X53688748Y-46560000D02*
X54211252Y-46560000D01*
X26711252Y-18560000D02*
X26188748Y-18560000D01*
X26711252Y-17140000D02*
X26188748Y-17140000D01*
X71761252Y-35960000D02*
X71238748Y-35960000D01*
X71761252Y-34540000D02*
X71238748Y-34540000D01*
D11*
X184575000Y-46625000D02*
X184575000Y-46050000D01*
X190325000Y-46625000D02*
X190325000Y-45975000D01*
X190325000Y-35975000D02*
X190325000Y-36625000D01*
X184575000Y-35975000D02*
X184575000Y-36625000D01*
X184575000Y-46625000D02*
X190325000Y-46625000D01*
X184575000Y-35975000D02*
X190325000Y-35975000D01*
X184575000Y-46050000D02*
X182975000Y-46050000D01*
D12*
X91635000Y-27700000D02*
X91635000Y-31150000D01*
X91635000Y-27700000D02*
X91635000Y-25750000D01*
X82765000Y-27700000D02*
X82765000Y-29650000D01*
X82765000Y-27700000D02*
X82765000Y-25750000D01*
X50090000Y-31000000D02*
X50090000Y-29200000D01*
X53310000Y-29200000D02*
X53310000Y-31650000D01*
X35200000Y-31360000D02*
X31750000Y-31360000D01*
X35200000Y-31360000D02*
X37150000Y-31360000D01*
X35200000Y-26240000D02*
X33250000Y-26240000D01*
X35200000Y-26240000D02*
X37150000Y-26240000D01*
X89390000Y-66400000D02*
X89390000Y-64600000D01*
X92610000Y-64600000D02*
X92610000Y-67050000D01*
X174810000Y-55500000D02*
X174810000Y-49490000D01*
X167990000Y-53250000D02*
X167990000Y-49490000D01*
X174810000Y-49490000D02*
X173550000Y-49490000D01*
X167990000Y-49490000D02*
X169250000Y-49490000D01*
X88911252Y-62810000D02*
X88388748Y-62810000D01*
X88911252Y-61390000D02*
X88388748Y-61390000D01*
X74488748Y-64740000D02*
X75011252Y-64740000D01*
X74488748Y-66160000D02*
X75011252Y-66160000D01*
X177393000Y-11693000D02*
X177393000Y-15543000D01*
X179393000Y-11693000D02*
X179393000Y-15543000D01*
X177393000Y-11693000D02*
X179393000Y-11693000D01*
X192125000Y-11693000D02*
X192125000Y-15543000D01*
X194125000Y-11693000D02*
X194125000Y-15543000D01*
X192125000Y-11693000D02*
X194125000Y-11693000D01*
X194538000Y-11693000D02*
X194538000Y-15543000D01*
X196538000Y-11693000D02*
X196538000Y-15543000D01*
X194538000Y-11693000D02*
X196538000Y-11693000D01*
X204450000Y-29050000D02*
X204450000Y-25200000D01*
X202450000Y-29050000D02*
X202450000Y-25200000D01*
X204450000Y-29050000D02*
X202450000Y-29050000D01*
X207200000Y-29050000D02*
X207200000Y-25200000D01*
X205200000Y-29050000D02*
X205200000Y-25200000D01*
X207200000Y-29050000D02*
X205200000Y-29050000D01*
X197850000Y-43000000D02*
X197850000Y-47000000D01*
X194550000Y-43000000D02*
X197850000Y-43000000D01*
X77173000Y-56700000D02*
X77173000Y-52700000D01*
X80473000Y-56700000D02*
X77173000Y-56700000D01*
X107238748Y-17540000D02*
X107761252Y-17540000D01*
X107238748Y-18960000D02*
X107761252Y-18960000D01*
X179938748Y-43240000D02*
X180461252Y-43240000D01*
X179938748Y-44660000D02*
X180461252Y-44660000D01*
X107238748Y-24790000D02*
X107761252Y-24790000D01*
X107238748Y-26210000D02*
X107761252Y-26210000D01*
X107238748Y-52290000D02*
X107761252Y-52290000D01*
X107238748Y-53710000D02*
X107761252Y-53710000D01*
X183421000Y-14021748D02*
X183421000Y-14544252D01*
X182001000Y-14021748D02*
X182001000Y-14544252D01*
X179111252Y-19910000D02*
X178588748Y-19910000D01*
X179111252Y-18490000D02*
X178588748Y-18490000D01*
X163228000Y-19981748D02*
X163228000Y-20504252D01*
X161808000Y-19981748D02*
X161808000Y-20504252D01*
X179461252Y-35660000D02*
X178938748Y-35660000D01*
X179461252Y-34240000D02*
X178938748Y-34240000D01*
X179461252Y-33760000D02*
X178938748Y-33760000D01*
X179461252Y-32340000D02*
X178938748Y-32340000D01*
X182288748Y-22290000D02*
X182811252Y-22290000D01*
X182288748Y-23710000D02*
X182811252Y-23710000D01*
X193588748Y-20390000D02*
X194111252Y-20390000D01*
X193588748Y-21810000D02*
X194111252Y-21810000D01*
X182288748Y-20390000D02*
X182811252Y-20390000D01*
X182288748Y-21810000D02*
X182811252Y-21810000D01*
X197288748Y-18490000D02*
X197811252Y-18490000D01*
X197288748Y-19910000D02*
X197811252Y-19910000D01*
X179111252Y-23710000D02*
X178588748Y-23710000D01*
X179111252Y-22290000D02*
X178588748Y-22290000D01*
X182288748Y-18490000D02*
X182811252Y-18490000D01*
X182288748Y-19910000D02*
X182811252Y-19910000D01*
X197811252Y-21810000D02*
X197288748Y-21810000D01*
X197811252Y-20390000D02*
X197288748Y-20390000D01*
X197288748Y-16590000D02*
X197811252Y-16590000D01*
X197288748Y-18010000D02*
X197811252Y-18010000D01*
X75961252Y-22460000D02*
X75438748Y-22460000D01*
X75961252Y-21040000D02*
X75438748Y-21040000D01*
X67411252Y-27860000D02*
X66888748Y-27860000D01*
X67411252Y-26440000D02*
X66888748Y-26440000D01*
X87440000Y-16461252D02*
X87440000Y-15938748D01*
X88860000Y-16461252D02*
X88860000Y-15938748D01*
X85540000Y-16461252D02*
X85540000Y-15938748D01*
X86960000Y-16461252D02*
X86960000Y-15938748D01*
X86960000Y-20888748D02*
X86960000Y-21411252D01*
X85540000Y-20888748D02*
X85540000Y-21411252D01*
X87440000Y-21411252D02*
X87440000Y-20888748D01*
X88860000Y-21411252D02*
X88860000Y-20888748D01*
X107761252Y-65910000D02*
X107238748Y-65910000D01*
X107761252Y-64490000D02*
X107238748Y-64490000D01*
X83888748Y-36240000D02*
X84411252Y-36240000D01*
X83888748Y-37660000D02*
X84411252Y-37660000D01*
X82540000Y-34411252D02*
X82540000Y-33888748D01*
X83960000Y-34411252D02*
X83960000Y-33888748D01*
X107761252Y-63360000D02*
X107238748Y-63360000D01*
X107761252Y-61940000D02*
X107238748Y-61940000D01*
X51461252Y-58060000D02*
X50938748Y-58060000D01*
X51461252Y-56640000D02*
X50938748Y-56640000D01*
X107238748Y-54340000D02*
X107761252Y-54340000D01*
X107238748Y-55760000D02*
X107761252Y-55760000D01*
X34958748Y-24390000D02*
X35481252Y-24390000D01*
X34958748Y-25810000D02*
X35481252Y-25810000D01*
X53688748Y-49640000D02*
X54211252Y-49640000D01*
X53688748Y-51060000D02*
X54211252Y-51060000D01*
X75011252Y-58560000D02*
X74488748Y-58560000D01*
X75011252Y-57140000D02*
X74488748Y-57140000D01*
X107761252Y-60810000D02*
X107238748Y-60810000D01*
X107761252Y-59390000D02*
X107238748Y-59390000D01*
X94540000Y-27711252D02*
X94540000Y-27188748D01*
X95960000Y-27711252D02*
X95960000Y-27188748D01*
X107238748Y-30890000D02*
X107761252Y-30890000D01*
X107238748Y-32310000D02*
X107761252Y-32310000D01*
X194010000Y-45438748D02*
X194010000Y-45961252D01*
X192590000Y-45438748D02*
X192590000Y-45961252D01*
X192590000Y-42311252D02*
X192590000Y-41788748D01*
X194010000Y-42311252D02*
X194010000Y-41788748D01*
X189038748Y-32390000D02*
X189561252Y-32390000D01*
X189038748Y-33810000D02*
X189561252Y-33810000D01*
X213690000Y-45011252D02*
X213690000Y-44488748D01*
X215110000Y-45011252D02*
X215110000Y-44488748D01*
X215110000Y-30188748D02*
X215110000Y-30711252D01*
X213690000Y-30188748D02*
X213690000Y-30711252D01*
X178588748Y-20390000D02*
X179111252Y-20390000D01*
X178588748Y-21810000D02*
X179111252Y-21810000D01*
X193588748Y-22290000D02*
X194111252Y-22290000D01*
X193588748Y-23710000D02*
X194111252Y-23710000D01*
X197811252Y-23710000D02*
X197288748Y-23710000D01*
X197811252Y-22290000D02*
X197288748Y-22290000D01*
X179388748Y-37690000D02*
X179911252Y-37690000D01*
X179388748Y-39110000D02*
X179911252Y-39110000D01*
X189611252Y-50210000D02*
X189088748Y-50210000D01*
X189611252Y-48790000D02*
X189088748Y-48790000D01*
X185861252Y-33810000D02*
X185338748Y-33810000D01*
X185861252Y-32390000D02*
X185338748Y-32390000D01*
X185911252Y-50210000D02*
X185388748Y-50210000D01*
X185911252Y-48790000D02*
X185388748Y-48790000D01*
X74488748Y-62840000D02*
X75011252Y-62840000D01*
X74488748Y-64260000D02*
X75011252Y-64260000D01*
X75011252Y-46560000D02*
X74488748Y-46560000D01*
X75011252Y-45140000D02*
X74488748Y-45140000D01*
X68111252Y-43160000D02*
X67588748Y-43160000D01*
X68111252Y-41740000D02*
X67588748Y-41740000D01*
X74488748Y-55090000D02*
X75011252Y-55090000D01*
X74488748Y-56510000D02*
X75011252Y-56510000D01*
X74488748Y-53058000D02*
X75011252Y-53058000D01*
X74488748Y-54478000D02*
X75011252Y-54478000D01*
X75586252Y-13110000D02*
X75063748Y-13110000D01*
X75586252Y-11690000D02*
X75063748Y-11690000D01*
X74488748Y-49090000D02*
X75011252Y-49090000D01*
X74488748Y-50510000D02*
X75011252Y-50510000D01*
X74488748Y-47190000D02*
X75011252Y-47190000D01*
X74488748Y-48610000D02*
X75011252Y-48610000D01*
X88860000Y-65188748D02*
X88860000Y-65711252D01*
X87440000Y-65188748D02*
X87440000Y-65711252D01*
X189561252Y-35710000D02*
X189038748Y-35710000D01*
X189561252Y-34290000D02*
X189038748Y-34290000D01*
X179911252Y-41010000D02*
X179388748Y-41010000D01*
X179911252Y-39590000D02*
X179388748Y-39590000D01*
X185338748Y-34290000D02*
X185861252Y-34290000D01*
X185338748Y-35710000D02*
X185861252Y-35710000D01*
X189088748Y-46890000D02*
X189611252Y-46890000D01*
X189088748Y-48310000D02*
X189611252Y-48310000D01*
X185388748Y-46890000D02*
X185911252Y-46890000D01*
X185388748Y-48310000D02*
X185911252Y-48310000D01*
X92240000Y-27711252D02*
X92240000Y-27188748D01*
X93660000Y-27711252D02*
X93660000Y-27188748D01*
X67413748Y-23815000D02*
X67936252Y-23815000D01*
X67413748Y-25235000D02*
X67936252Y-25235000D01*
X122438748Y-25640000D02*
X122961252Y-25640000D01*
X122438748Y-27060000D02*
X122961252Y-27060000D01*
X119939000Y-31908252D02*
X119939000Y-31385748D01*
X121359000Y-31908252D02*
X121359000Y-31385748D01*
X92410000Y-55388748D02*
X92410000Y-55911252D01*
X90990000Y-55388748D02*
X90990000Y-55911252D01*
X87688748Y-55840000D02*
X88211252Y-55840000D01*
X87688748Y-57260000D02*
X88211252Y-57260000D01*
X65410000Y-35388748D02*
X65410000Y-35911252D01*
X63990000Y-35388748D02*
X63990000Y-35911252D01*
X58990000Y-35911252D02*
X58990000Y-35388748D01*
X60410000Y-35911252D02*
X60410000Y-35388748D01*
X36788748Y-55940000D02*
X37311252Y-55940000D01*
X36788748Y-57360000D02*
X37311252Y-57360000D01*
X33088748Y-55940000D02*
X33611252Y-55940000D01*
X33088748Y-57360000D02*
X33611252Y-57360000D01*
X74488748Y-60940000D02*
X75011252Y-60940000D01*
X74488748Y-62360000D02*
X75011252Y-62360000D01*
X68111252Y-45110000D02*
X67588748Y-45110000D01*
X68111252Y-43690000D02*
X67588748Y-43690000D01*
X54211252Y-48810000D02*
X53688748Y-48810000D01*
X54211252Y-47390000D02*
X53688748Y-47390000D01*
X57961252Y-65310000D02*
X57438748Y-65310000D01*
X57961252Y-63890000D02*
X57438748Y-63890000D01*
X66263748Y-63890000D02*
X66786252Y-63890000D01*
X66263748Y-65310000D02*
X66786252Y-65310000D01*
X74488748Y-59040000D02*
X75011252Y-59040000D01*
X74488748Y-60460000D02*
X75011252Y-60460000D01*
X74488748Y-51140000D02*
X75011252Y-51140000D01*
X74488748Y-52560000D02*
X75011252Y-52560000D01*
X75490000Y-71211252D02*
X75490000Y-70688748D01*
X76910000Y-71211252D02*
X76910000Y-70688748D01*
X48935000Y-58085000D02*
X46650000Y-58085000D01*
X48935000Y-56615000D02*
X48935000Y-58085000D01*
X46650000Y-56615000D02*
X48935000Y-56615000D01*
X181755000Y-46015000D02*
G75*
G03*
X181755000Y-46015000I-700000J0D01*
G01*
X86590000Y-41150000D02*
X86590000Y-42009000D01*
X92111000Y-41150000D02*
X92111000Y-42009000D01*
X86590000Y-37691000D02*
X86590000Y-38550000D01*
X92111000Y-37691000D02*
X86590000Y-37691000D01*
X92111000Y-37691000D02*
X92111000Y-38550000D01*
X93301000Y-38550000D02*
X92111000Y-38550000D01*
X92111000Y-42009000D02*
X86590000Y-42009000D01*
X86590000Y-35400000D02*
X86590000Y-36259000D01*
X92111000Y-35400000D02*
X92111000Y-36259000D01*
X86590000Y-31941000D02*
X86590000Y-32800000D01*
X92111000Y-31941000D02*
X86590000Y-31941000D01*
X92111000Y-31941000D02*
X92111000Y-32800000D01*
X93301000Y-32800000D02*
X92111000Y-32800000D01*
X92111000Y-36259000D02*
X86590000Y-36259000D01*
X224462742Y-25198528D02*
X221740381Y-22476167D01*
X223048528Y-26612742D02*
X220326167Y-23890381D01*
X224462742Y-25198528D02*
X223048528Y-26612742D01*
X236462742Y-25198528D02*
X233740381Y-22476167D01*
X235048528Y-26612742D02*
X232326167Y-23890381D01*
X236462742Y-25198528D02*
X235048528Y-26612742D01*
X248462742Y-25198528D02*
X245740381Y-22476167D01*
X247048528Y-26612742D02*
X244326167Y-23890381D01*
X248462742Y-25198528D02*
X247048528Y-26612742D01*
X260462742Y-25198528D02*
X257740381Y-22476167D01*
X259048528Y-26612742D02*
X256326167Y-23890381D01*
X260462742Y-25198528D02*
X259048528Y-26612742D01*
X272462742Y-25198528D02*
X269740381Y-22476167D01*
X271048528Y-26612742D02*
X268326167Y-23890381D01*
X272462742Y-25198528D02*
X271048528Y-26612742D01*
X290462742Y-25198528D02*
X287740381Y-22476167D01*
X289048528Y-26612742D02*
X286326167Y-23890381D01*
X290462742Y-25198528D02*
X289048528Y-26612742D01*
X302462742Y-25198528D02*
X299740381Y-22476167D01*
X301048528Y-26612742D02*
X298326167Y-23890381D01*
X302462742Y-25198528D02*
X301048528Y-26612742D01*
X77650000Y-71725000D02*
X77650000Y-74225000D01*
X79400000Y-70225000D02*
X81400000Y-70225000D01*
X83150000Y-71725000D02*
X83150000Y-74225000D01*
X79400000Y-75725000D02*
X81400000Y-75725000D01*
X78100000Y-71275000D02*
X77650000Y-71725000D01*
X78100000Y-74675000D02*
X77650000Y-74225000D01*
X82700000Y-74675000D02*
X83150000Y-74225000D01*
X82700000Y-71275000D02*
X83150000Y-71725000D01*
X79475000Y-48175000D02*
X79475000Y-49525000D01*
X77725000Y-48175000D02*
X77725000Y-49525000D01*
X163990000Y-22420000D02*
X165320000Y-22420000D01*
X163990000Y-21090000D02*
X163990000Y-22420000D01*
X166590000Y-22420000D02*
X169190000Y-22420000D01*
X166590000Y-19820000D02*
X166590000Y-22420000D01*
X163990000Y-19820000D02*
X166590000Y-19820000D01*
X169190000Y-22420000D02*
X169190000Y-12140000D01*
X163990000Y-19820000D02*
X163990000Y-12140000D01*
X163990000Y-12140000D02*
X169190000Y-12140000D01*
X164640000Y-34950000D02*
X163940000Y-34950000D01*
X163940000Y-34950000D02*
X163940000Y-40250000D01*
X163940000Y-40250000D02*
X164640000Y-40250000D01*
X171080000Y-34950000D02*
X171780000Y-34950000D01*
X171780000Y-34950000D02*
X171780000Y-40250000D01*
X171780000Y-40250000D02*
X171080000Y-40250000D01*
X214960000Y-40250000D02*
X214260000Y-40250000D01*
X214960000Y-34950000D02*
X214960000Y-40250000D01*
X214260000Y-34950000D02*
X214960000Y-34950000D01*
X199500000Y-40250000D02*
X200200000Y-40250000D01*
X199500000Y-34950000D02*
X199500000Y-40250000D01*
X200200000Y-34950000D02*
X199500000Y-34950000D01*
X77450000Y-18400000D02*
X73550000Y-18400000D01*
X77450000Y-20400000D02*
X73550000Y-20400000D01*
X77450000Y-18400000D02*
X77450000Y-20400000D01*
X118400000Y-30600000D02*
X114550000Y-30600000D01*
X118400000Y-32600000D02*
X114550000Y-32600000D01*
X118400000Y-30600000D02*
X118400000Y-32600000D01*
X63200000Y-33800000D02*
X63200000Y-29950000D01*
X61200000Y-33800000D02*
X61200000Y-29950000D01*
X63200000Y-33800000D02*
X61200000Y-33800000D01*
X90200000Y-53800000D02*
X90200000Y-49950000D01*
X88200000Y-53800000D02*
X88200000Y-49950000D01*
X90200000Y-53800000D02*
X88200000Y-53800000D01*
X36200000Y-53800000D02*
X36200000Y-49950000D01*
X34200000Y-53800000D02*
X34200000Y-49950000D01*
X36200000Y-53800000D02*
X34200000Y-53800000D01*
X32720000Y-33600000D02*
X36620000Y-33600000D01*
X32720000Y-31600000D02*
X36620000Y-31600000D01*
X32720000Y-33600000D02*
X32720000Y-31600000D01*
X41220000Y-30800000D02*
X41220000Y-26950000D01*
X39220000Y-30800000D02*
X39220000Y-26950000D01*
X41220000Y-30800000D02*
X39220000Y-30800000D01*
X302462742Y-37198528D02*
X299740381Y-34476167D01*
X301048528Y-38612742D02*
X298326167Y-35890381D01*
X302462742Y-37198528D02*
X301048528Y-38612742D01*
X290462742Y-37198528D02*
X287740381Y-34476167D01*
X289048528Y-38612742D02*
X286326167Y-35890381D01*
X290462742Y-37198528D02*
X289048528Y-38612742D01*
X272462742Y-37198528D02*
X269740381Y-34476167D01*
X271048528Y-38612742D02*
X268326167Y-35890381D01*
X272462742Y-37198528D02*
X271048528Y-38612742D01*
X260462742Y-37198528D02*
X257740381Y-34476167D01*
X259048528Y-38612742D02*
X256326167Y-35890381D01*
X260462742Y-37198528D02*
X259048528Y-38612742D01*
X248462742Y-37198528D02*
X245740381Y-34476167D01*
X247048528Y-38612742D02*
X244326167Y-35890381D01*
X248462742Y-37198528D02*
X247048528Y-38612742D01*
X236462742Y-37198528D02*
X233740381Y-34476167D01*
X235048528Y-38612742D02*
X232326167Y-35890381D01*
X236462742Y-37198528D02*
X235048528Y-38612742D01*
X224462742Y-37198528D02*
X221740381Y-34476167D01*
X223048528Y-38612742D02*
X220326167Y-35890381D01*
X224462742Y-37198528D02*
X223048528Y-38612742D01*
X302462742Y-49198528D02*
X299740381Y-46476167D01*
X301048528Y-50612742D02*
X298326167Y-47890381D01*
X302462742Y-49198528D02*
X301048528Y-50612742D01*
X290462742Y-49198528D02*
X287740381Y-46476167D01*
X289048528Y-50612742D02*
X286326167Y-47890381D01*
X290462742Y-49198528D02*
X289048528Y-50612742D01*
X272462742Y-49198528D02*
X269740381Y-46476167D01*
X271048528Y-50612742D02*
X268326167Y-47890381D01*
X272462742Y-49198528D02*
X271048528Y-50612742D01*
X260462742Y-49198528D02*
X257740381Y-46476167D01*
X259048528Y-50612742D02*
X256326167Y-47890381D01*
X260462742Y-49198528D02*
X259048528Y-50612742D01*
X248462742Y-49198528D02*
X245740381Y-46476167D01*
X247048528Y-50612742D02*
X244326167Y-47890381D01*
X248462742Y-49198528D02*
X247048528Y-50612742D01*
X236462742Y-49198528D02*
X233740381Y-46476167D01*
X235048528Y-50612742D02*
X232326167Y-47890381D01*
X236462742Y-49198528D02*
X235048528Y-50612742D01*
X224462742Y-49198528D02*
X221740381Y-46476167D01*
X223048528Y-50612742D02*
X220326167Y-47890381D01*
X224462742Y-49198528D02*
X223048528Y-50612742D01*
X302462742Y-61198528D02*
X299740381Y-58476167D01*
X301048528Y-62612742D02*
X298326167Y-59890381D01*
X302462742Y-61198528D02*
X301048528Y-62612742D01*
X290462742Y-61198528D02*
X287740381Y-58476167D01*
X289048528Y-62612742D02*
X286326167Y-59890381D01*
X290462742Y-61198528D02*
X289048528Y-62612742D01*
X272462742Y-61198528D02*
X269740381Y-58476167D01*
X271048528Y-62612742D02*
X268326167Y-59890381D01*
X272462742Y-61198528D02*
X271048528Y-62612742D01*
X260462742Y-61198528D02*
X257740381Y-58476167D01*
X259048528Y-62612742D02*
X256326167Y-59890381D01*
X260462742Y-61198528D02*
X259048528Y-62612742D01*
X248462742Y-61198528D02*
X245740381Y-58476167D01*
X247048528Y-62612742D02*
X244326167Y-59890381D01*
X248462742Y-61198528D02*
X247048528Y-62612742D01*
X236462742Y-61198528D02*
X233740381Y-58476167D01*
X235048528Y-62612742D02*
X232326167Y-59890381D01*
X236462742Y-61198528D02*
X235048528Y-62612742D01*
X224462742Y-61198528D02*
X221740381Y-58476167D01*
X223048528Y-62612742D02*
X220326167Y-59890381D01*
X224462742Y-61198528D02*
X223048528Y-62612742D01*
X268200000Y-78400000D02*
X268200000Y-82250000D01*
X270200000Y-78400000D02*
X270200000Y-82250000D01*
X268200000Y-78400000D02*
X270200000Y-78400000D01*
X250200000Y-78400000D02*
X250200000Y-82250000D01*
X252200000Y-78400000D02*
X252200000Y-82250000D01*
X250200000Y-78400000D02*
X252200000Y-78400000D01*
X232200000Y-78400000D02*
X232200000Y-82250000D01*
X234200000Y-78400000D02*
X234200000Y-82250000D01*
X232200000Y-78400000D02*
X234200000Y-78400000D01*
X196200000Y-78400000D02*
X196200000Y-82250000D01*
X198200000Y-78400000D02*
X198200000Y-82250000D01*
X196200000Y-78400000D02*
X198200000Y-78400000D01*
X178200000Y-78400000D02*
X178200000Y-82250000D01*
X180200000Y-78400000D02*
X180200000Y-82250000D01*
X178200000Y-78400000D02*
X180200000Y-78400000D01*
X142200000Y-78400000D02*
X142200000Y-82250000D01*
X144200000Y-78400000D02*
X144200000Y-82250000D01*
X142200000Y-78400000D02*
X144200000Y-78400000D01*
X124200000Y-78400000D02*
X124200000Y-82250000D01*
X126200000Y-78400000D02*
X126200000Y-82250000D01*
X124200000Y-78400000D02*
X126200000Y-78400000D01*
X106200000Y-78400000D02*
X106200000Y-82250000D01*
X108200000Y-78400000D02*
X108200000Y-82250000D01*
X106200000Y-78400000D02*
X108200000Y-78400000D01*
X70200000Y-78400000D02*
X70200000Y-82250000D01*
X72200000Y-78400000D02*
X72200000Y-82250000D01*
X70200000Y-78400000D02*
X72200000Y-78400000D01*
X52200000Y-78400000D02*
X52200000Y-82250000D01*
X54200000Y-78400000D02*
X54200000Y-82250000D01*
X52200000Y-78400000D02*
X54200000Y-78400000D01*
X295200000Y-93890000D02*
X295200000Y-97740000D01*
X297200000Y-93890000D02*
X297200000Y-97740000D01*
X295200000Y-93890000D02*
X297200000Y-93890000D01*
X277200000Y-93900000D02*
X277200000Y-97750000D01*
X279200000Y-93900000D02*
X279200000Y-97750000D01*
X277200000Y-93900000D02*
X279200000Y-93900000D01*
X259200000Y-93900000D02*
X259200000Y-97750000D01*
X261200000Y-93900000D02*
X261200000Y-97750000D01*
X259200000Y-93900000D02*
X261200000Y-93900000D01*
X241200000Y-93900000D02*
X241200000Y-97750000D01*
X243200000Y-93900000D02*
X243200000Y-97750000D01*
X241200000Y-93900000D02*
X243200000Y-93900000D01*
X223200000Y-93900000D02*
X223200000Y-97750000D01*
X225200000Y-93900000D02*
X225200000Y-97750000D01*
X223200000Y-93900000D02*
X225200000Y-93900000D01*
X205200000Y-93900000D02*
X205200000Y-97750000D01*
X207200000Y-93900000D02*
X207200000Y-97750000D01*
X205200000Y-93900000D02*
X207200000Y-93900000D01*
X187200000Y-93900000D02*
X187200000Y-97750000D01*
X189200000Y-93900000D02*
X189200000Y-97750000D01*
X187200000Y-93900000D02*
X189200000Y-93900000D01*
X169200000Y-93900000D02*
X169200000Y-97750000D01*
X171200000Y-93900000D02*
X171200000Y-97750000D01*
X169200000Y-93900000D02*
X171200000Y-93900000D01*
X151200000Y-93900000D02*
X151200000Y-97750000D01*
X153200000Y-93900000D02*
X153200000Y-97750000D01*
X151200000Y-93900000D02*
X153200000Y-93900000D01*
X133200000Y-93900000D02*
X133200000Y-97750000D01*
X135200000Y-93900000D02*
X135200000Y-97750000D01*
X133200000Y-93900000D02*
X135200000Y-93900000D01*
X115200000Y-93900000D02*
X115200000Y-97750000D01*
X117200000Y-93900000D02*
X117200000Y-97750000D01*
X115200000Y-93900000D02*
X117200000Y-93900000D01*
X97200000Y-93900000D02*
X97200000Y-97750000D01*
X99200000Y-93900000D02*
X99200000Y-97750000D01*
X97200000Y-93900000D02*
X99200000Y-93900000D01*
X79200000Y-93900000D02*
X79200000Y-97750000D01*
X81200000Y-93900000D02*
X81200000Y-97750000D01*
X79200000Y-93900000D02*
X81200000Y-93900000D01*
X61200000Y-93900000D02*
X61200000Y-97750000D01*
X63200000Y-93900000D02*
X63200000Y-97750000D01*
X61200000Y-93900000D02*
X63200000Y-93900000D01*
X43200000Y-93900000D02*
X43200000Y-97750000D01*
X45200000Y-93900000D02*
X45200000Y-97750000D01*
X43200000Y-93900000D02*
X45200000Y-93900000D01*
X25200000Y-93900000D02*
X25200000Y-97750000D01*
X27200000Y-93900000D02*
X27200000Y-97750000D01*
X25200000Y-93900000D02*
X27200000Y-93900000D01*
D11*
X54752380Y-53385714D02*
X55561904Y-53385714D01*
X55657142Y-53433333D01*
X55704761Y-53480952D01*
X55752380Y-53576190D01*
X55752380Y-53766666D01*
X55704761Y-53861904D01*
X55657142Y-53909523D01*
X55561904Y-53957142D01*
X54752380Y-53957142D01*
X54847619Y-54385714D02*
X54800000Y-54433333D01*
X54752380Y-54528571D01*
X54752380Y-54766666D01*
X54800000Y-54861904D01*
X54847619Y-54909523D01*
X54942857Y-54957142D01*
X55038095Y-54957142D01*
X55180952Y-54909523D01*
X55752380Y-54338095D01*
X55752380Y-54957142D01*
X54752380Y-55576190D02*
X54752380Y-55671428D01*
X54800000Y-55766666D01*
X54847619Y-55814285D01*
X54942857Y-55861904D01*
X55133333Y-55909523D01*
X55371428Y-55909523D01*
X55561904Y-55861904D01*
X55657142Y-55814285D01*
X55704761Y-55766666D01*
X55752380Y-55671428D01*
X55752380Y-55576190D01*
X55704761Y-55480952D01*
X55657142Y-55433333D01*
X55561904Y-55385714D01*
X55371428Y-55338095D01*
X55133333Y-55338095D01*
X54942857Y-55385714D01*
X54847619Y-55433333D01*
X54800000Y-55480952D01*
X54752380Y-55576190D01*
X54847619Y-56290476D02*
X54800000Y-56338095D01*
X54752380Y-56433333D01*
X54752380Y-56671428D01*
X54800000Y-56766666D01*
X54847619Y-56814285D01*
X54942857Y-56861904D01*
X55038095Y-56861904D01*
X55180952Y-56814285D01*
X55752380Y-56242857D01*
X55752380Y-56861904D01*
X177270238Y-27635714D02*
X177308333Y-27673809D01*
X177422619Y-27711904D01*
X177498809Y-27711904D01*
X177613095Y-27673809D01*
X177689285Y-27597619D01*
X177727380Y-27521428D01*
X177765476Y-27369047D01*
X177765476Y-27254761D01*
X177727380Y-27102380D01*
X177689285Y-27026190D01*
X177613095Y-26950000D01*
X177498809Y-26911904D01*
X177422619Y-26911904D01*
X177308333Y-26950000D01*
X177270238Y-26988095D01*
X176965476Y-26988095D02*
X176927380Y-26950000D01*
X176851190Y-26911904D01*
X176660714Y-26911904D01*
X176584523Y-26950000D01*
X176546428Y-26988095D01*
X176508333Y-27064285D01*
X176508333Y-27140476D01*
X176546428Y-27254761D01*
X177003571Y-27711904D01*
X176508333Y-27711904D01*
X175784523Y-26911904D02*
X176165476Y-26911904D01*
X176203571Y-27292857D01*
X176165476Y-27254761D01*
X176089285Y-27216666D01*
X175898809Y-27216666D01*
X175822619Y-27254761D01*
X175784523Y-27292857D01*
X175746428Y-27369047D01*
X175746428Y-27559523D01*
X175784523Y-27635714D01*
X175822619Y-27673809D01*
X175898809Y-27711904D01*
X176089285Y-27711904D01*
X176165476Y-27673809D01*
X176203571Y-27635714D01*
X175479761Y-26911904D02*
X174946428Y-26911904D01*
X175289285Y-27711904D01*
X188345238Y-27385714D02*
X188383333Y-27423809D01*
X188497619Y-27461904D01*
X188573809Y-27461904D01*
X188688095Y-27423809D01*
X188764285Y-27347619D01*
X188802380Y-27271428D01*
X188840476Y-27119047D01*
X188840476Y-27004761D01*
X188802380Y-26852380D01*
X188764285Y-26776190D01*
X188688095Y-26700000D01*
X188573809Y-26661904D01*
X188497619Y-26661904D01*
X188383333Y-26700000D01*
X188345238Y-26738095D01*
X188040476Y-26738095D02*
X188002380Y-26700000D01*
X187926190Y-26661904D01*
X187735714Y-26661904D01*
X187659523Y-26700000D01*
X187621428Y-26738095D01*
X187583333Y-26814285D01*
X187583333Y-26890476D01*
X187621428Y-27004761D01*
X188078571Y-27461904D01*
X187583333Y-27461904D01*
X186859523Y-26661904D02*
X187240476Y-26661904D01*
X187278571Y-27042857D01*
X187240476Y-27004761D01*
X187164285Y-26966666D01*
X186973809Y-26966666D01*
X186897619Y-27004761D01*
X186859523Y-27042857D01*
X186821428Y-27119047D01*
X186821428Y-27309523D01*
X186859523Y-27385714D01*
X186897619Y-27423809D01*
X186973809Y-27461904D01*
X187164285Y-27461904D01*
X187240476Y-27423809D01*
X187278571Y-27385714D01*
X186097619Y-26661904D02*
X186478571Y-26661904D01*
X186516666Y-27042857D01*
X186478571Y-27004761D01*
X186402380Y-26966666D01*
X186211904Y-26966666D01*
X186135714Y-27004761D01*
X186097619Y-27042857D01*
X186059523Y-27119047D01*
X186059523Y-27309523D01*
X186097619Y-27385714D01*
X186135714Y-27423809D01*
X186211904Y-27461904D01*
X186402380Y-27461904D01*
X186478571Y-27423809D01*
X186516666Y-27385714D01*
X193770238Y-27385714D02*
X193808333Y-27423809D01*
X193922619Y-27461904D01*
X193998809Y-27461904D01*
X194113095Y-27423809D01*
X194189285Y-27347619D01*
X194227380Y-27271428D01*
X194265476Y-27119047D01*
X194265476Y-27004761D01*
X194227380Y-26852380D01*
X194189285Y-26776190D01*
X194113095Y-26700000D01*
X193998809Y-26661904D01*
X193922619Y-26661904D01*
X193808333Y-26700000D01*
X193770238Y-26738095D01*
X193465476Y-26738095D02*
X193427380Y-26700000D01*
X193351190Y-26661904D01*
X193160714Y-26661904D01*
X193084523Y-26700000D01*
X193046428Y-26738095D01*
X193008333Y-26814285D01*
X193008333Y-26890476D01*
X193046428Y-27004761D01*
X193503571Y-27461904D01*
X193008333Y-27461904D01*
X192284523Y-26661904D02*
X192665476Y-26661904D01*
X192703571Y-27042857D01*
X192665476Y-27004761D01*
X192589285Y-26966666D01*
X192398809Y-26966666D01*
X192322619Y-27004761D01*
X192284523Y-27042857D01*
X192246428Y-27119047D01*
X192246428Y-27309523D01*
X192284523Y-27385714D01*
X192322619Y-27423809D01*
X192398809Y-27461904D01*
X192589285Y-27461904D01*
X192665476Y-27423809D01*
X192703571Y-27385714D01*
X191560714Y-26928571D02*
X191560714Y-27461904D01*
X191751190Y-26623809D02*
X191941666Y-27195238D01*
X191446428Y-27195238D01*
X182770238Y-27635714D02*
X182808333Y-27673809D01*
X182922619Y-27711904D01*
X182998809Y-27711904D01*
X183113095Y-27673809D01*
X183189285Y-27597619D01*
X183227380Y-27521428D01*
X183265476Y-27369047D01*
X183265476Y-27254761D01*
X183227380Y-27102380D01*
X183189285Y-27026190D01*
X183113095Y-26950000D01*
X182998809Y-26911904D01*
X182922619Y-26911904D01*
X182808333Y-26950000D01*
X182770238Y-26988095D01*
X182465476Y-26988095D02*
X182427380Y-26950000D01*
X182351190Y-26911904D01*
X182160714Y-26911904D01*
X182084523Y-26950000D01*
X182046428Y-26988095D01*
X182008333Y-27064285D01*
X182008333Y-27140476D01*
X182046428Y-27254761D01*
X182503571Y-27711904D01*
X182008333Y-27711904D01*
X181284523Y-26911904D02*
X181665476Y-26911904D01*
X181703571Y-27292857D01*
X181665476Y-27254761D01*
X181589285Y-27216666D01*
X181398809Y-27216666D01*
X181322619Y-27254761D01*
X181284523Y-27292857D01*
X181246428Y-27369047D01*
X181246428Y-27559523D01*
X181284523Y-27635714D01*
X181322619Y-27673809D01*
X181398809Y-27711904D01*
X181589285Y-27711904D01*
X181665476Y-27673809D01*
X181703571Y-27635714D01*
X180979761Y-26911904D02*
X180484523Y-26911904D01*
X180751190Y-27216666D01*
X180636904Y-27216666D01*
X180560714Y-27254761D01*
X180522619Y-27292857D01*
X180484523Y-27369047D01*
X180484523Y-27559523D01*
X180522619Y-27635714D01*
X180560714Y-27673809D01*
X180636904Y-27711904D01*
X180865476Y-27711904D01*
X180941666Y-27673809D01*
X180979761Y-27635714D01*
X199520238Y-27385714D02*
X199558333Y-27423809D01*
X199672619Y-27461904D01*
X199748809Y-27461904D01*
X199863095Y-27423809D01*
X199939285Y-27347619D01*
X199977380Y-27271428D01*
X200015476Y-27119047D01*
X200015476Y-27004761D01*
X199977380Y-26852380D01*
X199939285Y-26776190D01*
X199863095Y-26700000D01*
X199748809Y-26661904D01*
X199672619Y-26661904D01*
X199558333Y-26700000D01*
X199520238Y-26738095D01*
X199215476Y-26738095D02*
X199177380Y-26700000D01*
X199101190Y-26661904D01*
X198910714Y-26661904D01*
X198834523Y-26700000D01*
X198796428Y-26738095D01*
X198758333Y-26814285D01*
X198758333Y-26890476D01*
X198796428Y-27004761D01*
X199253571Y-27461904D01*
X198758333Y-27461904D01*
X198034523Y-26661904D02*
X198415476Y-26661904D01*
X198453571Y-27042857D01*
X198415476Y-27004761D01*
X198339285Y-26966666D01*
X198148809Y-26966666D01*
X198072619Y-27004761D01*
X198034523Y-27042857D01*
X197996428Y-27119047D01*
X197996428Y-27309523D01*
X198034523Y-27385714D01*
X198072619Y-27423809D01*
X198148809Y-27461904D01*
X198339285Y-27461904D01*
X198415476Y-27423809D01*
X198453571Y-27385714D01*
X197234523Y-27461904D02*
X197691666Y-27461904D01*
X197463095Y-27461904D02*
X197463095Y-26661904D01*
X197539285Y-26776190D01*
X197615476Y-26852380D01*
X197691666Y-26890476D01*
X43757380Y-37181666D02*
X44471666Y-37181666D01*
X44614523Y-37134047D01*
X44709761Y-37038809D01*
X44757380Y-36895952D01*
X44757380Y-36800714D01*
X43757380Y-37562619D02*
X43757380Y-38181666D01*
X44138333Y-37848333D01*
X44138333Y-37991190D01*
X44185952Y-38086428D01*
X44233571Y-38134047D01*
X44328809Y-38181666D01*
X44566904Y-38181666D01*
X44662142Y-38134047D01*
X44709761Y-38086428D01*
X44757380Y-37991190D01*
X44757380Y-37705476D01*
X44709761Y-37610238D01*
X44662142Y-37562619D01*
X43374780Y-77455866D02*
X44089066Y-77455866D01*
X44231923Y-77408247D01*
X44327161Y-77313009D01*
X44374780Y-77170152D01*
X44374780Y-77074914D01*
X43708114Y-78360628D02*
X44374780Y-78360628D01*
X43327161Y-78122533D02*
X44041447Y-77884438D01*
X44041447Y-78503485D01*
X27986380Y-35848333D02*
X27986380Y-35372142D01*
X26986380Y-35372142D01*
X27986380Y-36705476D02*
X27986380Y-36134047D01*
X27986380Y-36419761D02*
X26986380Y-36419761D01*
X27129238Y-36324523D01*
X27224476Y-36229285D01*
X27272095Y-36134047D01*
X24854780Y-46708295D02*
X25664304Y-46708295D01*
X25759542Y-46755914D01*
X25807161Y-46803533D01*
X25854780Y-46898771D01*
X25854780Y-47089247D01*
X25807161Y-47184485D01*
X25759542Y-47232104D01*
X25664304Y-47279723D01*
X24854780Y-47279723D01*
X25854780Y-48279723D02*
X25854780Y-47708295D01*
X25854780Y-47994009D02*
X24854780Y-47994009D01*
X24997638Y-47898771D01*
X25092876Y-47803533D01*
X25140495Y-47708295D01*
X89742857Y-69707142D02*
X89790476Y-69754761D01*
X89933333Y-69802380D01*
X90028571Y-69802380D01*
X90171428Y-69754761D01*
X90266666Y-69659523D01*
X90314285Y-69564285D01*
X90361904Y-69373809D01*
X90361904Y-69230952D01*
X90314285Y-69040476D01*
X90266666Y-68945238D01*
X90171428Y-68850000D01*
X90028571Y-68802380D01*
X89933333Y-68802380D01*
X89790476Y-68850000D01*
X89742857Y-68897619D01*
X89171428Y-69230952D02*
X89266666Y-69183333D01*
X89314285Y-69135714D01*
X89361904Y-69040476D01*
X89361904Y-68992857D01*
X89314285Y-68897619D01*
X89266666Y-68850000D01*
X89171428Y-68802380D01*
X88980952Y-68802380D01*
X88885714Y-68850000D01*
X88838095Y-68897619D01*
X88790476Y-68992857D01*
X88790476Y-69040476D01*
X88838095Y-69135714D01*
X88885714Y-69183333D01*
X88980952Y-69230952D01*
X89171428Y-69230952D01*
X89266666Y-69278571D01*
X89314285Y-69326190D01*
X89361904Y-69421428D01*
X89361904Y-69611904D01*
X89314285Y-69707142D01*
X89266666Y-69754761D01*
X89171428Y-69802380D01*
X88980952Y-69802380D01*
X88885714Y-69754761D01*
X88838095Y-69707142D01*
X88790476Y-69611904D01*
X88790476Y-69421428D01*
X88838095Y-69326190D01*
X88885714Y-69278571D01*
X88980952Y-69230952D01*
X87933333Y-69135714D02*
X87933333Y-69802380D01*
X88171428Y-68754761D02*
X88409523Y-69469047D01*
X87790476Y-69469047D01*
X89742857Y-76957142D02*
X89790476Y-77004761D01*
X89933333Y-77052380D01*
X90028571Y-77052380D01*
X90171428Y-77004761D01*
X90266666Y-76909523D01*
X90314285Y-76814285D01*
X90361904Y-76623809D01*
X90361904Y-76480952D01*
X90314285Y-76290476D01*
X90266666Y-76195238D01*
X90171428Y-76100000D01*
X90028571Y-76052380D01*
X89933333Y-76052380D01*
X89790476Y-76100000D01*
X89742857Y-76147619D01*
X89171428Y-76480952D02*
X89266666Y-76433333D01*
X89314285Y-76385714D01*
X89361904Y-76290476D01*
X89361904Y-76242857D01*
X89314285Y-76147619D01*
X89266666Y-76100000D01*
X89171428Y-76052380D01*
X88980952Y-76052380D01*
X88885714Y-76100000D01*
X88838095Y-76147619D01*
X88790476Y-76242857D01*
X88790476Y-76290476D01*
X88838095Y-76385714D01*
X88885714Y-76433333D01*
X88980952Y-76480952D01*
X89171428Y-76480952D01*
X89266666Y-76528571D01*
X89314285Y-76576190D01*
X89361904Y-76671428D01*
X89361904Y-76861904D01*
X89314285Y-76957142D01*
X89266666Y-77004761D01*
X89171428Y-77052380D01*
X88980952Y-77052380D01*
X88885714Y-77004761D01*
X88838095Y-76957142D01*
X88790476Y-76861904D01*
X88790476Y-76671428D01*
X88838095Y-76576190D01*
X88885714Y-76528571D01*
X88980952Y-76480952D01*
X87838095Y-77052380D02*
X88409523Y-77052380D01*
X88123809Y-77052380D02*
X88123809Y-76052380D01*
X88219047Y-76195238D01*
X88314285Y-76290476D01*
X88409523Y-76338095D01*
X89742857Y-84207142D02*
X89790476Y-84254761D01*
X89933333Y-84302380D01*
X90028571Y-84302380D01*
X90171428Y-84254761D01*
X90266666Y-84159523D01*
X90314285Y-84064285D01*
X90361904Y-83873809D01*
X90361904Y-83730952D01*
X90314285Y-83540476D01*
X90266666Y-83445238D01*
X90171428Y-83350000D01*
X90028571Y-83302380D01*
X89933333Y-83302380D01*
X89790476Y-83350000D01*
X89742857Y-83397619D01*
X89409523Y-83302380D02*
X88742857Y-83302380D01*
X89171428Y-84302380D01*
X88314285Y-84302380D02*
X88123809Y-84302380D01*
X88028571Y-84254761D01*
X87980952Y-84207142D01*
X87885714Y-84064285D01*
X87838095Y-83873809D01*
X87838095Y-83492857D01*
X87885714Y-83397619D01*
X87933333Y-83350000D01*
X88028571Y-83302380D01*
X88219047Y-83302380D01*
X88314285Y-83350000D01*
X88361904Y-83397619D01*
X88409523Y-83492857D01*
X88409523Y-83730952D01*
X88361904Y-83826190D01*
X88314285Y-83873809D01*
X88219047Y-83921428D01*
X88028571Y-83921428D01*
X87933333Y-83873809D01*
X87885714Y-83826190D01*
X87838095Y-83730952D01*
X77464285Y-21637380D02*
X77464285Y-22446904D01*
X77416666Y-22542142D01*
X77369047Y-22589761D01*
X77273809Y-22637380D01*
X77083333Y-22637380D01*
X76988095Y-22589761D01*
X76940476Y-22542142D01*
X76892857Y-22446904D01*
X76892857Y-21637380D01*
X76464285Y-21732619D02*
X76416666Y-21685000D01*
X76321428Y-21637380D01*
X76083333Y-21637380D01*
X75988095Y-21685000D01*
X75940476Y-21732619D01*
X75892857Y-21827857D01*
X75892857Y-21923095D01*
X75940476Y-22065952D01*
X76511904Y-22637380D01*
X75892857Y-22637380D01*
X75273809Y-21637380D02*
X75178571Y-21637380D01*
X75083333Y-21685000D01*
X75035714Y-21732619D01*
X74988095Y-21827857D01*
X74940476Y-22018333D01*
X74940476Y-22256428D01*
X74988095Y-22446904D01*
X75035714Y-22542142D01*
X75083333Y-22589761D01*
X75178571Y-22637380D01*
X75273809Y-22637380D01*
X75369047Y-22589761D01*
X75416666Y-22542142D01*
X75464285Y-22446904D01*
X75511904Y-22256428D01*
X75511904Y-22018333D01*
X75464285Y-21827857D01*
X75416666Y-21732619D01*
X75369047Y-21685000D01*
X75273809Y-21637380D01*
X73988095Y-22637380D02*
X74559523Y-22637380D01*
X74273809Y-22637380D02*
X74273809Y-21637380D01*
X74369047Y-21780238D01*
X74464285Y-21875476D01*
X74559523Y-21923095D01*
X186827380Y-39885714D02*
X187636904Y-39885714D01*
X187732142Y-39933333D01*
X187779761Y-39980952D01*
X187827380Y-40076190D01*
X187827380Y-40266666D01*
X187779761Y-40361904D01*
X187732142Y-40409523D01*
X187636904Y-40457142D01*
X186827380Y-40457142D01*
X186922619Y-40885714D02*
X186875000Y-40933333D01*
X186827380Y-41028571D01*
X186827380Y-41266666D01*
X186875000Y-41361904D01*
X186922619Y-41409523D01*
X187017857Y-41457142D01*
X187113095Y-41457142D01*
X187255952Y-41409523D01*
X187827380Y-40838095D01*
X187827380Y-41457142D01*
X186827380Y-42076190D02*
X186827380Y-42171428D01*
X186875000Y-42266666D01*
X186922619Y-42314285D01*
X187017857Y-42361904D01*
X187208333Y-42409523D01*
X187446428Y-42409523D01*
X187636904Y-42361904D01*
X187732142Y-42314285D01*
X187779761Y-42266666D01*
X187827380Y-42171428D01*
X187827380Y-42076190D01*
X187779761Y-41980952D01*
X187732142Y-41933333D01*
X187636904Y-41885714D01*
X187446428Y-41838095D01*
X187208333Y-41838095D01*
X187017857Y-41885714D01*
X186922619Y-41933333D01*
X186875000Y-41980952D01*
X186827380Y-42076190D01*
X186827380Y-42742857D02*
X186827380Y-43409523D01*
X187827380Y-42980952D01*
X91932380Y-25985714D02*
X92741904Y-25985714D01*
X92837142Y-26033333D01*
X92884761Y-26080952D01*
X92932380Y-26176190D01*
X92932380Y-26366666D01*
X92884761Y-26461904D01*
X92837142Y-26509523D01*
X92741904Y-26557142D01*
X91932380Y-26557142D01*
X92027619Y-26985714D02*
X91980000Y-27033333D01*
X91932380Y-27128571D01*
X91932380Y-27366666D01*
X91980000Y-27461904D01*
X92027619Y-27509523D01*
X92122857Y-27557142D01*
X92218095Y-27557142D01*
X92360952Y-27509523D01*
X92932380Y-26938095D01*
X92932380Y-27557142D01*
X91932380Y-28176190D02*
X91932380Y-28271428D01*
X91980000Y-28366666D01*
X92027619Y-28414285D01*
X92122857Y-28461904D01*
X92313333Y-28509523D01*
X92551428Y-28509523D01*
X92741904Y-28461904D01*
X92837142Y-28414285D01*
X92884761Y-28366666D01*
X92932380Y-28271428D01*
X92932380Y-28176190D01*
X92884761Y-28080952D01*
X92837142Y-28033333D01*
X92741904Y-27985714D01*
X92551428Y-27938095D01*
X92313333Y-27938095D01*
X92122857Y-27985714D01*
X92027619Y-28033333D01*
X91980000Y-28080952D01*
X91932380Y-28176190D01*
X91932380Y-29414285D02*
X91932380Y-28938095D01*
X92408571Y-28890476D01*
X92360952Y-28938095D01*
X92313333Y-29033333D01*
X92313333Y-29271428D01*
X92360952Y-29366666D01*
X92408571Y-29414285D01*
X92503809Y-29461904D01*
X92741904Y-29461904D01*
X92837142Y-29414285D01*
X92884761Y-29366666D01*
X92932380Y-29271428D01*
X92932380Y-29033333D01*
X92884761Y-28938095D01*
X92837142Y-28890476D01*
X82485714Y-73379761D02*
X82342857Y-73427380D01*
X82104761Y-73427380D01*
X82009523Y-73379761D01*
X81961904Y-73332142D01*
X81914285Y-73236904D01*
X81914285Y-73141666D01*
X81961904Y-73046428D01*
X82009523Y-72998809D01*
X82104761Y-72951190D01*
X82295238Y-72903571D01*
X82390476Y-72855952D01*
X82438095Y-72808333D01*
X82485714Y-72713095D01*
X82485714Y-72617857D01*
X82438095Y-72522619D01*
X82390476Y-72475000D01*
X82295238Y-72427380D01*
X82057142Y-72427380D01*
X81914285Y-72475000D01*
X81580952Y-72427380D02*
X81342857Y-73427380D01*
X81152380Y-72713095D01*
X80961904Y-73427380D01*
X80723809Y-72427380D01*
X80390476Y-72522619D02*
X80342857Y-72475000D01*
X80247619Y-72427380D01*
X80009523Y-72427380D01*
X79914285Y-72475000D01*
X79866666Y-72522619D01*
X79819047Y-72617857D01*
X79819047Y-72713095D01*
X79866666Y-72855952D01*
X80438095Y-73427380D01*
X79819047Y-73427380D01*
X79200000Y-72427380D02*
X79104761Y-72427380D01*
X79009523Y-72475000D01*
X78961904Y-72522619D01*
X78914285Y-72617857D01*
X78866666Y-72808333D01*
X78866666Y-73046428D01*
X78914285Y-73236904D01*
X78961904Y-73332142D01*
X79009523Y-73379761D01*
X79104761Y-73427380D01*
X79200000Y-73427380D01*
X79295238Y-73379761D01*
X79342857Y-73332142D01*
X79390476Y-73236904D01*
X79438095Y-73046428D01*
X79438095Y-72808333D01*
X79390476Y-72617857D01*
X79342857Y-72522619D01*
X79295238Y-72475000D01*
X79200000Y-72427380D01*
X77914285Y-73427380D02*
X78485714Y-73427380D01*
X78200000Y-73427380D02*
X78200000Y-72427380D01*
X78295238Y-72570238D01*
X78390476Y-72665476D01*
X78485714Y-72713095D01*
X172152380Y-36314285D02*
X172866666Y-36314285D01*
X173009523Y-36266666D01*
X173104761Y-36171428D01*
X173152380Y-36028571D01*
X173152380Y-35933333D01*
X172247619Y-36742857D02*
X172200000Y-36790476D01*
X172152380Y-36885714D01*
X172152380Y-37123809D01*
X172200000Y-37219047D01*
X172247619Y-37266666D01*
X172342857Y-37314285D01*
X172438095Y-37314285D01*
X172580952Y-37266666D01*
X173152380Y-36695238D01*
X173152380Y-37314285D01*
X172152380Y-37933333D02*
X172152380Y-38028571D01*
X172200000Y-38123809D01*
X172247619Y-38171428D01*
X172342857Y-38219047D01*
X172533333Y-38266666D01*
X172771428Y-38266666D01*
X172961904Y-38219047D01*
X173057142Y-38171428D01*
X173104761Y-38123809D01*
X173152380Y-38028571D01*
X173152380Y-37933333D01*
X173104761Y-37838095D01*
X173057142Y-37790476D01*
X172961904Y-37742857D01*
X172771428Y-37695238D01*
X172533333Y-37695238D01*
X172342857Y-37742857D01*
X172247619Y-37790476D01*
X172200000Y-37838095D01*
X172152380Y-37933333D01*
X172152380Y-38600000D02*
X172152380Y-39266666D01*
X173152380Y-38838095D01*
X197902380Y-36364285D02*
X198616666Y-36364285D01*
X198759523Y-36316666D01*
X198854761Y-36221428D01*
X198902380Y-36078571D01*
X198902380Y-35983333D01*
X197997619Y-36792857D02*
X197950000Y-36840476D01*
X197902380Y-36935714D01*
X197902380Y-37173809D01*
X197950000Y-37269047D01*
X197997619Y-37316666D01*
X198092857Y-37364285D01*
X198188095Y-37364285D01*
X198330952Y-37316666D01*
X198902380Y-36745238D01*
X198902380Y-37364285D01*
X197902380Y-37983333D02*
X197902380Y-38078571D01*
X197950000Y-38173809D01*
X197997619Y-38221428D01*
X198092857Y-38269047D01*
X198283333Y-38316666D01*
X198521428Y-38316666D01*
X198711904Y-38269047D01*
X198807142Y-38221428D01*
X198854761Y-38173809D01*
X198902380Y-38078571D01*
X198902380Y-37983333D01*
X198854761Y-37888095D01*
X198807142Y-37840476D01*
X198711904Y-37792857D01*
X198521428Y-37745238D01*
X198283333Y-37745238D01*
X198092857Y-37792857D01*
X197997619Y-37840476D01*
X197950000Y-37888095D01*
X197902380Y-37983333D01*
X197902380Y-39173809D02*
X197902380Y-38983333D01*
X197950000Y-38888095D01*
X197997619Y-38840476D01*
X198140476Y-38745238D01*
X198330952Y-38697619D01*
X198711904Y-38697619D01*
X198807142Y-38745238D01*
X198854761Y-38792857D01*
X198902380Y-38888095D01*
X198902380Y-39078571D01*
X198854761Y-39173809D01*
X198807142Y-39221428D01*
X198711904Y-39269047D01*
X198473809Y-39269047D01*
X198378571Y-39221428D01*
X198330952Y-39173809D01*
X198283333Y-39078571D01*
X198283333Y-38888095D01*
X198330952Y-38792857D01*
X198378571Y-38745238D01*
X198473809Y-38697619D01*
M02*
