G04 #@! TF.GenerationSoftware,KiCad,Pcbnew,5.1.9*
G04 #@! TF.CreationDate,2021-03-31T15:37:06+02:00*
G04 #@! TF.ProjectId,OTTO-Beta-Main,4f54544f-2d42-4657-9461-2d4d61696e2e,rev?*
G04 #@! TF.SameCoordinates,Original*
G04 #@! TF.FileFunction,Legend,Bot*
G04 #@! TF.FilePolarity,Positive*
%FSLAX46Y46*%
G04 Gerber Fmt 4.6, Leading zero omitted, Abs format (unit mm)*
G04 Created by KiCad (PCBNEW 5.1.9) date 2021-03-31 15:37:06*
%MOMM*%
%LPD*%
G01*
G04 APERTURE LIST*
%ADD10C,0.150000*%
%ADD11C,0.120000*%
G04 APERTURE END LIST*
D10*
X24109464Y-24881108D02*
G75*
G02*
X23577001Y-25063799I-278464J-55692D01*
G01*
X23501540Y-24376388D02*
G75*
G02*
X24059599Y-24631999I278660J-128612D01*
G01*
X25228000Y-25089200D02*
X23551600Y-24428800D01*
X25177200Y-24200200D02*
X23602400Y-25063800D01*
X25812200Y-25292400D02*
X28174400Y-29940600D01*
X32472000Y-37685000D02*
X31964000Y-37685000D01*
X273040047Y-102831380D02*
X273040047Y-103545666D01*
X273087666Y-103688523D01*
X273182904Y-103783761D01*
X273325761Y-103831380D01*
X273421000Y-103831380D01*
X272087666Y-103831380D02*
X272563857Y-103831380D01*
X272563857Y-102831380D01*
X271182904Y-103736142D02*
X271230523Y-103783761D01*
X271373380Y-103831380D01*
X271468619Y-103831380D01*
X271611476Y-103783761D01*
X271706714Y-103688523D01*
X271754333Y-103593285D01*
X271801952Y-103402809D01*
X271801952Y-103259952D01*
X271754333Y-103069476D01*
X271706714Y-102974238D01*
X271611476Y-102879000D01*
X271468619Y-102831380D01*
X271373380Y-102831380D01*
X271230523Y-102879000D01*
X271182904Y-102926619D01*
X270468619Y-102831380D02*
X270468619Y-103545666D01*
X270516238Y-103688523D01*
X270611476Y-103783761D01*
X270754333Y-103831380D01*
X270849571Y-103831380D01*
X269516238Y-103831380D02*
X269992428Y-103831380D01*
X269992428Y-102831380D01*
X268611476Y-103736142D02*
X268659095Y-103783761D01*
X268801952Y-103831380D01*
X268897190Y-103831380D01*
X269040047Y-103783761D01*
X269135285Y-103688523D01*
X269182904Y-103593285D01*
X269230523Y-103402809D01*
X269230523Y-103259952D01*
X269182904Y-103069476D01*
X269135285Y-102974238D01*
X269040047Y-102879000D01*
X268897190Y-102831380D01*
X268801952Y-102831380D01*
X268659095Y-102879000D01*
X268611476Y-102926619D01*
X267897190Y-102831380D02*
X267897190Y-103545666D01*
X267944809Y-103688523D01*
X268040047Y-103783761D01*
X268182904Y-103831380D01*
X268278142Y-103831380D01*
X266944809Y-103831380D02*
X267421000Y-103831380D01*
X267421000Y-102831380D01*
X266040047Y-103736142D02*
X266087666Y-103783761D01*
X266230523Y-103831380D01*
X266325761Y-103831380D01*
X266468619Y-103783761D01*
X266563857Y-103688523D01*
X266611476Y-103593285D01*
X266659095Y-103402809D01*
X266659095Y-103259952D01*
X266611476Y-103069476D01*
X266563857Y-102974238D01*
X266468619Y-102879000D01*
X266325761Y-102831380D01*
X266230523Y-102831380D01*
X266087666Y-102879000D01*
X266040047Y-102926619D01*
X265325761Y-102831380D02*
X265325761Y-103545666D01*
X265373380Y-103688523D01*
X265468619Y-103783761D01*
X265611476Y-103831380D01*
X265706714Y-103831380D01*
X264373380Y-103831380D02*
X264849571Y-103831380D01*
X264849571Y-102831380D01*
X263468619Y-103736142D02*
X263516238Y-103783761D01*
X263659095Y-103831380D01*
X263754333Y-103831380D01*
X263897190Y-103783761D01*
X263992428Y-103688523D01*
X264040047Y-103593285D01*
X264087666Y-103402809D01*
X264087666Y-103259952D01*
X264040047Y-103069476D01*
X263992428Y-102974238D01*
X263897190Y-102879000D01*
X263754333Y-102831380D01*
X263659095Y-102831380D01*
X263516238Y-102879000D01*
X263468619Y-102926619D01*
X92478571Y-42961904D02*
X92478571Y-42161904D01*
X92173809Y-42161904D01*
X92097619Y-42200000D01*
X92059523Y-42238095D01*
X92021428Y-42314285D01*
X92021428Y-42428571D01*
X92059523Y-42504761D01*
X92097619Y-42542857D01*
X92173809Y-42580952D01*
X92478571Y-42580952D01*
X91526190Y-42161904D02*
X91373809Y-42161904D01*
X91297619Y-42200000D01*
X91221428Y-42276190D01*
X91183333Y-42428571D01*
X91183333Y-42695238D01*
X91221428Y-42847619D01*
X91297619Y-42923809D01*
X91373809Y-42961904D01*
X91526190Y-42961904D01*
X91602380Y-42923809D01*
X91678571Y-42847619D01*
X91716666Y-42695238D01*
X91716666Y-42428571D01*
X91678571Y-42276190D01*
X91602380Y-42200000D01*
X91526190Y-42161904D01*
X90230952Y-42961904D02*
X90230952Y-42161904D01*
X89926190Y-42161904D01*
X89850000Y-42200000D01*
X89811904Y-42238095D01*
X89773809Y-42314285D01*
X89773809Y-42428571D01*
X89811904Y-42504761D01*
X89850000Y-42542857D01*
X89926190Y-42580952D01*
X90230952Y-42580952D01*
X89430952Y-42961904D02*
X89430952Y-42161904D01*
X88478571Y-42123809D02*
X89164285Y-43152380D01*
X87830952Y-42961904D02*
X88211904Y-42961904D01*
X88211904Y-42161904D01*
X87564285Y-42542857D02*
X87297619Y-42542857D01*
X87183333Y-42961904D02*
X87564285Y-42961904D01*
X87564285Y-42161904D01*
X87183333Y-42161904D01*
X86840476Y-42961904D02*
X86840476Y-42161904D01*
X86650000Y-42161904D01*
X86535714Y-42200000D01*
X86459523Y-42276190D01*
X86421428Y-42352380D01*
X86383333Y-42504761D01*
X86383333Y-42619047D01*
X86421428Y-42771428D01*
X86459523Y-42847619D01*
X86535714Y-42923809D01*
X86650000Y-42961904D01*
X86840476Y-42961904D01*
X92021428Y-36792857D02*
X91907142Y-36830952D01*
X91869047Y-36869047D01*
X91830952Y-36945238D01*
X91830952Y-37059523D01*
X91869047Y-37135714D01*
X91907142Y-37173809D01*
X91983333Y-37211904D01*
X92288095Y-37211904D01*
X92288095Y-36411904D01*
X92021428Y-36411904D01*
X91945238Y-36450000D01*
X91907142Y-36488095D01*
X91869047Y-36564285D01*
X91869047Y-36640476D01*
X91907142Y-36716666D01*
X91945238Y-36754761D01*
X92021428Y-36792857D01*
X92288095Y-36792857D01*
X91335714Y-36411904D02*
X91183333Y-36411904D01*
X91107142Y-36450000D01*
X91030952Y-36526190D01*
X90992857Y-36678571D01*
X90992857Y-36945238D01*
X91030952Y-37097619D01*
X91107142Y-37173809D01*
X91183333Y-37211904D01*
X91335714Y-37211904D01*
X91411904Y-37173809D01*
X91488095Y-37097619D01*
X91526190Y-36945238D01*
X91526190Y-36678571D01*
X91488095Y-36526190D01*
X91411904Y-36450000D01*
X91335714Y-36411904D01*
X90497619Y-36411904D02*
X90345238Y-36411904D01*
X90269047Y-36450000D01*
X90192857Y-36526190D01*
X90154761Y-36678571D01*
X90154761Y-36945238D01*
X90192857Y-37097619D01*
X90269047Y-37173809D01*
X90345238Y-37211904D01*
X90497619Y-37211904D01*
X90573809Y-37173809D01*
X90650000Y-37097619D01*
X90688095Y-36945238D01*
X90688095Y-36678571D01*
X90650000Y-36526190D01*
X90573809Y-36450000D01*
X90497619Y-36411904D01*
X89926190Y-36411904D02*
X89469047Y-36411904D01*
X89697619Y-37211904D02*
X89697619Y-36411904D01*
X88440476Y-36411904D02*
X88364285Y-36411904D01*
X88288095Y-36450000D01*
X88250000Y-36488095D01*
X88211904Y-36564285D01*
X88173809Y-36716666D01*
X88173809Y-36907142D01*
X88211904Y-37059523D01*
X88250000Y-37135714D01*
X88288095Y-37173809D01*
X88364285Y-37211904D01*
X88440476Y-37211904D01*
X88516666Y-37173809D01*
X88554761Y-37135714D01*
X88592857Y-37059523D01*
X88630952Y-36907142D01*
X88630952Y-36716666D01*
X88592857Y-36564285D01*
X88554761Y-36488095D01*
X88516666Y-36450000D01*
X88440476Y-36411904D01*
X87259523Y-36373809D02*
X87945238Y-37402380D01*
X86573809Y-37211904D02*
X87030952Y-37211904D01*
X86802380Y-37211904D02*
X86802380Y-36411904D01*
X86878571Y-36526190D01*
X86954761Y-36602380D01*
X87030952Y-36640476D01*
X53676190Y-62004761D02*
X53533333Y-62052380D01*
X53295238Y-62052380D01*
X53200000Y-62004761D01*
X53152380Y-61957142D01*
X53104761Y-61861904D01*
X53104761Y-61766666D01*
X53152380Y-61671428D01*
X53200000Y-61623809D01*
X53295238Y-61576190D01*
X53485714Y-61528571D01*
X53580952Y-61480952D01*
X53628571Y-61433333D01*
X53676190Y-61338095D01*
X53676190Y-61242857D01*
X53628571Y-61147619D01*
X53580952Y-61100000D01*
X53485714Y-61052380D01*
X53247619Y-61052380D01*
X53104761Y-61100000D01*
X52819047Y-61052380D02*
X52247619Y-61052380D01*
X52533333Y-62052380D02*
X52533333Y-61052380D01*
X51961904Y-61766666D02*
X51485714Y-61766666D01*
X52057142Y-62052380D02*
X51723809Y-61052380D01*
X51390476Y-62052380D01*
X51200000Y-61052380D02*
X50628571Y-61052380D01*
X50914285Y-62052380D02*
X50914285Y-61052380D01*
X50295238Y-61052380D02*
X50295238Y-61861904D01*
X50247619Y-61957142D01*
X50200000Y-62004761D01*
X50104761Y-62052380D01*
X49914285Y-62052380D01*
X49819047Y-62004761D01*
X49771428Y-61957142D01*
X49723809Y-61861904D01*
X49723809Y-61052380D01*
X49295238Y-62004761D02*
X49152380Y-62052380D01*
X48914285Y-62052380D01*
X48819047Y-62004761D01*
X48771428Y-61957142D01*
X48723809Y-61861904D01*
X48723809Y-61766666D01*
X48771428Y-61671428D01*
X48819047Y-61623809D01*
X48914285Y-61576190D01*
X49104761Y-61528571D01*
X49200000Y-61480952D01*
X49247619Y-61433333D01*
X49295238Y-61338095D01*
X49295238Y-61242857D01*
X49247619Y-61147619D01*
X49200000Y-61100000D01*
X49104761Y-61052380D01*
X48866666Y-61052380D01*
X48723809Y-61100000D01*
X83295238Y-79052380D02*
X83295238Y-78052380D01*
X82961904Y-78766666D01*
X82628571Y-78052380D01*
X82628571Y-79052380D01*
X81580952Y-78957142D02*
X81628571Y-79004761D01*
X81771428Y-79052380D01*
X81866666Y-79052380D01*
X82009523Y-79004761D01*
X82104761Y-78909523D01*
X82152380Y-78814285D01*
X82200000Y-78623809D01*
X82200000Y-78480952D01*
X82152380Y-78290476D01*
X82104761Y-78195238D01*
X82009523Y-78100000D01*
X81866666Y-78052380D01*
X81771428Y-78052380D01*
X81628571Y-78100000D01*
X81580952Y-78147619D01*
X81152380Y-78052380D02*
X81152380Y-78861904D01*
X81104761Y-78957142D01*
X81057142Y-79004761D01*
X80961904Y-79052380D01*
X80771428Y-79052380D01*
X80676190Y-79004761D01*
X80628571Y-78957142D01*
X80580952Y-78861904D01*
X80580952Y-78052380D01*
X78771428Y-79052380D02*
X79104761Y-78576190D01*
X79342857Y-79052380D02*
X79342857Y-78052380D01*
X78961904Y-78052380D01*
X78866666Y-78100000D01*
X78819047Y-78147619D01*
X78771428Y-78242857D01*
X78771428Y-78385714D01*
X78819047Y-78480952D01*
X78866666Y-78528571D01*
X78961904Y-78576190D01*
X79342857Y-78576190D01*
X78390476Y-79004761D02*
X78247619Y-79052380D01*
X78009523Y-79052380D01*
X77914285Y-79004761D01*
X77866666Y-78957142D01*
X77819047Y-78861904D01*
X77819047Y-78766666D01*
X77866666Y-78671428D01*
X77914285Y-78623809D01*
X78009523Y-78576190D01*
X78200000Y-78528571D01*
X78295238Y-78480952D01*
X78342857Y-78433333D01*
X78390476Y-78338095D01*
X78390476Y-78242857D01*
X78342857Y-78147619D01*
X78295238Y-78100000D01*
X78200000Y-78052380D01*
X77961904Y-78052380D01*
X77819047Y-78100000D01*
X77533333Y-78052380D02*
X76961904Y-78052380D01*
X77247619Y-79052380D02*
X77247619Y-78052380D01*
D11*
X23277600Y-70606000D02*
X23277600Y-67156000D01*
X23277600Y-70606000D02*
X23277600Y-72556000D01*
X28397600Y-70606000D02*
X28397600Y-68656000D01*
X28397600Y-70606000D02*
X28397600Y-72556000D01*
X18972348Y-61209200D02*
X19494852Y-61209200D01*
X18972348Y-62629200D02*
X19494852Y-62629200D01*
X18972348Y-59380400D02*
X19494852Y-59380400D01*
X18972348Y-60800400D02*
X19494852Y-60800400D01*
X28842052Y-81450600D02*
X28319548Y-81450600D01*
X28842052Y-80030600D02*
X28319548Y-80030600D01*
X34116800Y-69608148D02*
X34116800Y-70130652D01*
X32696800Y-69608148D02*
X32696800Y-70130652D01*
X28842052Y-78605800D02*
X28319548Y-78605800D01*
X28842052Y-77185800D02*
X28319548Y-77185800D01*
X32110200Y-69658948D02*
X32110200Y-70181452D01*
X30690200Y-69658948D02*
X30690200Y-70181452D01*
X22796852Y-76421400D02*
X22274348Y-76421400D01*
X22796852Y-75001400D02*
X22274348Y-75001400D01*
X21474000Y-66717800D02*
X21474000Y-65257800D01*
X18314000Y-66717800D02*
X18314000Y-64557800D01*
X18314000Y-66717800D02*
X19244000Y-66717800D01*
X21474000Y-66717800D02*
X20544000Y-66717800D01*
X32193600Y-60895600D02*
X32193600Y-62045600D01*
X32193600Y-66295600D02*
X32193600Y-65145600D01*
X26593600Y-60895600D02*
X26593600Y-62045600D01*
X26593600Y-66295600D02*
X26593600Y-65145600D01*
X26593600Y-60895600D02*
X32193600Y-60895600D01*
X26593600Y-66295600D02*
X32193600Y-66295600D01*
X17685200Y-68755400D02*
X17685200Y-74155400D01*
X20985200Y-68755400D02*
X20985200Y-74155400D01*
X17685200Y-68755400D02*
X20985200Y-68755400D01*
X24407664Y-59755800D02*
X23203536Y-59755800D01*
X24407664Y-57935800D02*
X23203536Y-57935800D01*
X24407664Y-61965600D02*
X23203536Y-61965600D01*
X24407664Y-60145600D02*
X23203536Y-60145600D01*
X26036400Y-78817736D02*
X26036400Y-80021864D01*
X24216400Y-78817736D02*
X24216400Y-80021864D01*
X26581452Y-76472200D02*
X26058948Y-76472200D01*
X26581452Y-75052200D02*
X26058948Y-75052200D01*
X21597000Y-72391252D02*
X21597000Y-71868748D01*
X23017000Y-72391252D02*
X23017000Y-71868748D01*
X30129000Y-68871548D02*
X30129000Y-69394052D01*
X28709000Y-68871548D02*
X28709000Y-69394052D01*
X19799652Y-56660200D02*
X19277148Y-56660200D01*
X19799652Y-55240200D02*
X19277148Y-55240200D01*
X30425800Y-34986000D02*
X30425800Y-36316000D01*
X31755800Y-34986000D02*
X30425800Y-34986000D01*
X30425800Y-37586000D02*
X30425800Y-40186000D01*
X33025800Y-37586000D02*
X30425800Y-37586000D01*
X33025800Y-34986000D02*
X33025800Y-37586000D01*
X30425800Y-40186000D02*
X43245800Y-40186000D01*
X33025800Y-34986000D02*
X43245800Y-34986000D01*
X43245800Y-34986000D02*
X43245800Y-40186000D01*
X49367200Y-37043400D02*
X48037200Y-37043400D01*
X49367200Y-38373400D02*
X49367200Y-37043400D01*
X46767200Y-37043400D02*
X44167200Y-37043400D01*
X46767200Y-39643400D02*
X46767200Y-37043400D01*
X49367200Y-39643400D02*
X46767200Y-39643400D01*
X44167200Y-37043400D02*
X44167200Y-49863400D01*
X49367200Y-39643400D02*
X49367200Y-49863400D01*
X49367200Y-49863400D02*
X44167200Y-49863400D01*
X47843200Y-52893000D02*
X46513200Y-52893000D01*
X47843200Y-54223000D02*
X47843200Y-52893000D01*
X45243200Y-52893000D02*
X42643200Y-52893000D01*
X45243200Y-55493000D02*
X45243200Y-52893000D01*
X47843200Y-55493000D02*
X45243200Y-55493000D01*
X42643200Y-52893000D02*
X42643200Y-65713000D01*
X47843200Y-55493000D02*
X47843200Y-65713000D01*
X47843200Y-65713000D02*
X42643200Y-65713000D01*
X43804600Y-78209800D02*
X43804600Y-76879800D01*
X42474600Y-78209800D02*
X43804600Y-78209800D01*
X43804600Y-75609800D02*
X43804600Y-73009800D01*
X41204600Y-75609800D02*
X43804600Y-75609800D01*
X41204600Y-78209800D02*
X41204600Y-75609800D01*
X43804600Y-73009800D02*
X30984600Y-73009800D01*
X41204600Y-78209800D02*
X30984600Y-78209800D01*
X30984600Y-78209800D02*
X30984600Y-73009800D01*
X20470000Y-36850000D02*
X26470000Y-36850000D01*
X20470000Y-29850000D02*
X20470000Y-36850000D01*
X26470000Y-29850000D02*
X20470000Y-29850000D01*
X26470000Y-36850000D02*
X26470000Y-29850000D01*
D10*
X24477400Y-49545200D02*
X24427400Y-49545200D01*
X24477400Y-45395200D02*
X24332400Y-45395200D01*
X19327400Y-45395200D02*
X19472400Y-45395200D01*
X19327400Y-49545200D02*
X19472400Y-49545200D01*
X24477400Y-49545200D02*
X24477400Y-45395200D01*
X19327400Y-49545200D02*
X19327400Y-45395200D01*
X24427400Y-49545200D02*
X24427400Y-50945200D01*
D11*
X174065000Y-49247500D02*
X174065000Y-45162500D01*
X175935000Y-49247500D02*
X174065000Y-49247500D01*
X175935000Y-45162500D02*
X175935000Y-49247500D01*
X165665000Y-55547500D02*
X165665000Y-51462500D01*
X167535000Y-55547500D02*
X165665000Y-55547500D01*
X167535000Y-51462500D02*
X167535000Y-55547500D01*
X172379250Y-32033750D02*
X171591750Y-32033750D01*
X171985500Y-32427500D02*
X171985500Y-31640000D01*
X167792437Y-31400000D02*
X166728000Y-30335563D01*
X172483563Y-31400000D02*
X173548000Y-30335563D01*
X172483563Y-31400000D02*
X171198000Y-31400000D01*
X167792437Y-31400000D02*
X169078000Y-31400000D01*
X166728000Y-30335563D02*
X166728000Y-24580000D01*
X173548000Y-30335563D02*
X173548000Y-24580000D01*
X173548000Y-24580000D02*
X171198000Y-24580000D01*
X166728000Y-24580000D02*
X169078000Y-24580000D01*
X165267250Y-32033750D02*
X164479750Y-32033750D01*
X164873500Y-32427500D02*
X164873500Y-31640000D01*
X160680437Y-31400000D02*
X159616000Y-30335563D01*
X165371563Y-31400000D02*
X166436000Y-30335563D01*
X165371563Y-31400000D02*
X164086000Y-31400000D01*
X160680437Y-31400000D02*
X161966000Y-31400000D01*
X159616000Y-30335563D02*
X159616000Y-24580000D01*
X166436000Y-30335563D02*
X166436000Y-24580000D01*
X166436000Y-24580000D02*
X164086000Y-24580000D01*
X159616000Y-24580000D02*
X161966000Y-24580000D01*
X93143750Y-69208750D02*
X93143750Y-69996250D01*
X93537500Y-69602500D02*
X92750000Y-69602500D01*
X92510000Y-73795563D02*
X91445563Y-74860000D01*
X92510000Y-69104437D02*
X91445563Y-68040000D01*
X92510000Y-69104437D02*
X92510000Y-70390000D01*
X92510000Y-73795563D02*
X92510000Y-72510000D01*
X91445563Y-74860000D02*
X85690000Y-74860000D01*
X91445563Y-68040000D02*
X85690000Y-68040000D01*
X85690000Y-68040000D02*
X85690000Y-70390000D01*
X85690000Y-74860000D02*
X85690000Y-72510000D01*
X93143750Y-76458750D02*
X93143750Y-77246250D01*
X93537500Y-76852500D02*
X92750000Y-76852500D01*
X92510000Y-81045563D02*
X91445563Y-82110000D01*
X92510000Y-76354437D02*
X91445563Y-75290000D01*
X92510000Y-76354437D02*
X92510000Y-77640000D01*
X92510000Y-81045563D02*
X92510000Y-79760000D01*
X91445563Y-82110000D02*
X85690000Y-82110000D01*
X91445563Y-75290000D02*
X85690000Y-75290000D01*
X85690000Y-75290000D02*
X85690000Y-77640000D01*
X85690000Y-82110000D02*
X85690000Y-79760000D01*
X93143750Y-83708750D02*
X93143750Y-84496250D01*
X93537500Y-84102500D02*
X92750000Y-84102500D01*
X92510000Y-88295563D02*
X91445563Y-89360000D01*
X92510000Y-83604437D02*
X91445563Y-82540000D01*
X92510000Y-83604437D02*
X92510000Y-84890000D01*
X92510000Y-88295563D02*
X92510000Y-87010000D01*
X91445563Y-89360000D02*
X85690000Y-89360000D01*
X91445563Y-82540000D02*
X85690000Y-82540000D01*
X85690000Y-82540000D02*
X85690000Y-84890000D01*
X85690000Y-89360000D02*
X85690000Y-87010000D01*
X76750000Y-23185000D02*
X78285000Y-23185000D01*
X78285000Y-23185000D02*
X78285000Y-33465000D01*
X78285000Y-33465000D02*
X73215000Y-33465000D01*
X73215000Y-33465000D02*
X73215000Y-23185000D01*
X73215000Y-23185000D02*
X74750000Y-23185000D01*
X81985000Y-23125000D02*
X81985000Y-33525000D01*
X81985000Y-33525000D02*
X69515000Y-33525000D01*
X69515000Y-33525000D02*
X69515000Y-23125000D01*
X69515000Y-23125000D02*
X81985000Y-23125000D01*
X74750000Y-23185000D02*
G75*
G03*
X76750000Y-23185000I1000000J0D01*
G01*
X27320000Y-40950000D02*
X30620000Y-40950000D01*
X30620000Y-40950000D02*
X30620000Y-46350000D01*
X27320000Y-40950000D02*
X27320000Y-46350000D01*
X19292400Y-52833948D02*
X19292400Y-53356452D01*
X20712400Y-52833948D02*
X20712400Y-53356452D01*
X24512400Y-53356452D02*
X24512400Y-52833948D01*
X23092400Y-53356452D02*
X23092400Y-52833948D01*
X21241148Y-43480200D02*
X21763652Y-43480200D01*
X21241148Y-42060200D02*
X21763652Y-42060200D01*
X21192400Y-52833948D02*
X21192400Y-53356452D01*
X22612400Y-52833948D02*
X22612400Y-53356452D01*
X24866800Y-47250348D02*
X24866800Y-47772852D01*
X26286800Y-47250348D02*
X26286800Y-47772852D01*
D10*
X100700000Y-11100000D02*
X103950000Y-11100000D01*
X146450000Y-11100000D02*
X149700000Y-11100000D01*
X153200000Y-17850000D02*
X153200000Y-14600000D01*
X153200000Y-72600000D02*
X153200000Y-69350000D01*
X100700000Y-76100000D02*
X103950000Y-76100000D01*
X146450000Y-76100000D02*
X149700000Y-76100000D01*
X97200000Y-17850000D02*
X97200000Y-14600000D01*
X97200000Y-72600000D02*
X97200000Y-69350000D01*
D11*
X103350000Y-18790000D02*
X103350000Y-18090000D01*
X103350000Y-18090000D02*
X98050000Y-18090000D01*
X98050000Y-18090000D02*
X98050000Y-18790000D01*
X103350000Y-68410000D02*
X103350000Y-69110000D01*
X103350000Y-69110000D02*
X98050000Y-69110000D01*
X98050000Y-69110000D02*
X98050000Y-68410000D01*
D10*
X153200000Y-72600000D02*
G75*
G02*
X149700000Y-76100000I-3500000J0D01*
G01*
X100700000Y-76100000D02*
G75*
G02*
X97200000Y-72600000I0J3500000D01*
G01*
X97200000Y-14600000D02*
G75*
G02*
X100700000Y-11100000I3500000J0D01*
G01*
X149700000Y-11100000D02*
G75*
G02*
X153200000Y-14600000I0J-3500000D01*
G01*
D11*
X179679000Y-11693000D02*
X181679000Y-11693000D01*
X181679000Y-11693000D02*
X181679000Y-15543000D01*
X179679000Y-11693000D02*
X179679000Y-15543000D01*
X41637600Y-45249548D02*
X41637600Y-45772052D01*
X43057600Y-45249548D02*
X43057600Y-45772052D01*
X42538748Y-25860000D02*
X43061252Y-25860000D01*
X42538748Y-24440000D02*
X43061252Y-24440000D01*
X23320000Y-16300000D02*
X32820000Y-16300000D01*
X23320000Y-16300000D02*
X23320000Y-14790000D01*
X32820000Y-16300000D02*
X32820000Y-14790000D01*
X32820000Y-10800000D02*
X23320000Y-10800000D01*
X23320000Y-10800000D02*
X23320000Y-12310000D01*
X32820000Y-10800000D02*
X32820000Y-12310000D01*
X26070000Y-9550000D02*
X26070000Y-6400000D01*
X30070000Y-9550000D02*
X30070000Y-6400000D01*
X26070000Y-6400000D02*
X30070000Y-6400000D01*
X23820000Y-9600000D02*
X32320000Y-9600000D01*
X32320000Y-9600000D02*
X32320000Y-10750000D01*
X23820000Y-9600000D02*
X23820000Y-10750000D01*
X71761252Y-34540000D02*
X71238748Y-34540000D01*
X71761252Y-35960000D02*
X71238748Y-35960000D01*
D10*
X184575000Y-46050000D02*
X182975000Y-46050000D01*
X184575000Y-35975000D02*
X190325000Y-35975000D01*
X184575000Y-46625000D02*
X190325000Y-46625000D01*
X184575000Y-35975000D02*
X184575000Y-36625000D01*
X190325000Y-35975000D02*
X190325000Y-36625000D01*
X190325000Y-46625000D02*
X190325000Y-45975000D01*
X184575000Y-46625000D02*
X184575000Y-46050000D01*
D11*
X82765000Y-27700000D02*
X82765000Y-25750000D01*
X82765000Y-27700000D02*
X82765000Y-29650000D01*
X91635000Y-27700000D02*
X91635000Y-25750000D01*
X91635000Y-27700000D02*
X91635000Y-31150000D01*
X53310000Y-29200000D02*
X53310000Y-31650000D01*
X50090000Y-31000000D02*
X50090000Y-29200000D01*
X35200000Y-26240000D02*
X37150000Y-26240000D01*
X35200000Y-26240000D02*
X33250000Y-26240000D01*
X35200000Y-31360000D02*
X37150000Y-31360000D01*
X35200000Y-31360000D02*
X31750000Y-31360000D01*
X69810000Y-48690000D02*
X71175000Y-48690000D01*
X69810000Y-47990000D02*
X69810000Y-48690000D01*
X69110000Y-47990000D02*
X69810000Y-47990000D01*
X55590000Y-47990000D02*
X55590000Y-48690000D01*
X56290000Y-47990000D02*
X55590000Y-47990000D01*
X69810000Y-62210000D02*
X69810000Y-61510000D01*
X69110000Y-62210000D02*
X69810000Y-62210000D01*
X55590000Y-62210000D02*
X55590000Y-61510000D01*
X56290000Y-62210000D02*
X55590000Y-62210000D01*
X92610000Y-64600000D02*
X92610000Y-67050000D01*
X89390000Y-66400000D02*
X89390000Y-64600000D01*
X167990000Y-49490000D02*
X169250000Y-49490000D01*
X174810000Y-49490000D02*
X173550000Y-49490000D01*
X167990000Y-53250000D02*
X167990000Y-49490000D01*
X174810000Y-55500000D02*
X174810000Y-49490000D01*
D10*
X90450000Y-9600000D02*
X90200000Y-9600000D01*
X90450000Y-8400000D02*
X90450000Y-9600000D01*
X95950000Y-8400000D02*
X90450000Y-8400000D01*
X95950000Y-9600000D02*
X95950000Y-8400000D01*
X96200000Y-9600000D02*
X95950000Y-9600000D01*
X96200000Y-22900000D02*
X96200000Y-9600000D01*
X90200000Y-22900000D02*
X96200000Y-22900000D01*
X90200000Y-9600000D02*
X90200000Y-22900000D01*
X170450000Y-9600000D02*
X170200000Y-9600000D01*
X170450000Y-8400000D02*
X170450000Y-9600000D01*
X175950000Y-8400000D02*
X170450000Y-8400000D01*
X175950000Y-9600000D02*
X175950000Y-8400000D01*
X176200000Y-9600000D02*
X175950000Y-9600000D01*
X176200000Y-22900000D02*
X176200000Y-9600000D01*
X170200000Y-22900000D02*
X176200000Y-22900000D01*
X170200000Y-9600000D02*
X170200000Y-22900000D01*
X185450000Y-9600000D02*
X185200000Y-9600000D01*
X185450000Y-8400000D02*
X185450000Y-9600000D01*
X190950000Y-8400000D02*
X185450000Y-8400000D01*
X190950000Y-9600000D02*
X190950000Y-8400000D01*
X191200000Y-9600000D02*
X190950000Y-9600000D01*
X191200000Y-22900000D02*
X191200000Y-9600000D01*
X185200000Y-22900000D02*
X191200000Y-22900000D01*
X185200000Y-9600000D02*
X185200000Y-22900000D01*
X200450000Y-9600000D02*
X200200000Y-9600000D01*
X200450000Y-8400000D02*
X200450000Y-9600000D01*
X205950000Y-8400000D02*
X200450000Y-8400000D01*
X205950000Y-9600000D02*
X205950000Y-8400000D01*
X206200000Y-9600000D02*
X205950000Y-9600000D01*
X206200000Y-22900000D02*
X206200000Y-9600000D01*
X200200000Y-22900000D02*
X206200000Y-22900000D01*
X200200000Y-9600000D02*
X200200000Y-22900000D01*
X66450000Y-9600000D02*
X66200000Y-9600000D01*
X66450000Y-8400000D02*
X66450000Y-9600000D01*
X71950000Y-8400000D02*
X66450000Y-8400000D01*
X71950000Y-9600000D02*
X71950000Y-8400000D01*
X72200000Y-9600000D02*
X71950000Y-9600000D01*
X72200000Y-22900000D02*
X72200000Y-9600000D01*
X66200000Y-22900000D02*
X72200000Y-22900000D01*
X66200000Y-9600000D02*
X66200000Y-22900000D01*
X78450000Y-9600000D02*
X78200000Y-9600000D01*
X78450000Y-8400000D02*
X78450000Y-9600000D01*
X83950000Y-8400000D02*
X78450000Y-8400000D01*
X83950000Y-9600000D02*
X83950000Y-8400000D01*
X84200000Y-9600000D02*
X83950000Y-9600000D01*
X84200000Y-22900000D02*
X84200000Y-9600000D01*
X78200000Y-22900000D02*
X84200000Y-22900000D01*
X78200000Y-9600000D02*
X78200000Y-22900000D01*
D11*
X88911252Y-61390000D02*
X88388748Y-61390000D01*
X88911252Y-62810000D02*
X88388748Y-62810000D01*
X74488748Y-66160000D02*
X75011252Y-66160000D01*
X74488748Y-64740000D02*
X75011252Y-64740000D01*
X177393000Y-11693000D02*
X179393000Y-11693000D01*
X179393000Y-11693000D02*
X179393000Y-15543000D01*
X177393000Y-11693000D02*
X177393000Y-15543000D01*
X192125000Y-11693000D02*
X194125000Y-11693000D01*
X194125000Y-11693000D02*
X194125000Y-15543000D01*
X192125000Y-11693000D02*
X192125000Y-15543000D01*
X194538000Y-11693000D02*
X196538000Y-11693000D01*
X196538000Y-11693000D02*
X196538000Y-15543000D01*
X194538000Y-11693000D02*
X194538000Y-15543000D01*
X204450000Y-29050000D02*
X202450000Y-29050000D01*
X202450000Y-29050000D02*
X202450000Y-25200000D01*
X204450000Y-29050000D02*
X204450000Y-25200000D01*
X207200000Y-29050000D02*
X205200000Y-29050000D01*
X205200000Y-29050000D02*
X205200000Y-25200000D01*
X207200000Y-29050000D02*
X207200000Y-25200000D01*
X194550000Y-43000000D02*
X197850000Y-43000000D01*
X197850000Y-43000000D02*
X197850000Y-47000000D01*
X81000000Y-58600000D02*
X77700000Y-58600000D01*
X77700000Y-58600000D02*
X77700000Y-54600000D01*
X107238748Y-17060000D02*
X107761252Y-17060000D01*
X107238748Y-15640000D02*
X107761252Y-15640000D01*
X75011252Y-43240000D02*
X74488748Y-43240000D01*
X75011252Y-44660000D02*
X74488748Y-44660000D01*
X107238748Y-24310000D02*
X107761252Y-24310000D01*
X107238748Y-22890000D02*
X107761252Y-22890000D01*
X107238748Y-51660000D02*
X107761252Y-51660000D01*
X107238748Y-50240000D02*
X107761252Y-50240000D01*
X107238748Y-18960000D02*
X107761252Y-18960000D01*
X107238748Y-17540000D02*
X107761252Y-17540000D01*
X179938748Y-44660000D02*
X180461252Y-44660000D01*
X179938748Y-43240000D02*
X180461252Y-43240000D01*
X107238748Y-26210000D02*
X107761252Y-26210000D01*
X107238748Y-24790000D02*
X107761252Y-24790000D01*
X107238748Y-53710000D02*
X107761252Y-53710000D01*
X107238748Y-52290000D02*
X107761252Y-52290000D01*
X182001000Y-14021748D02*
X182001000Y-14544252D01*
X183421000Y-14021748D02*
X183421000Y-14544252D01*
X179111252Y-18490000D02*
X178588748Y-18490000D01*
X179111252Y-19910000D02*
X178588748Y-19910000D01*
X161808000Y-19981748D02*
X161808000Y-20504252D01*
X163228000Y-19981748D02*
X163228000Y-20504252D01*
X179461252Y-34240000D02*
X178938748Y-34240000D01*
X179461252Y-35660000D02*
X178938748Y-35660000D01*
X179461252Y-32340000D02*
X178938748Y-32340000D01*
X179461252Y-33760000D02*
X178938748Y-33760000D01*
X182288748Y-23710000D02*
X182811252Y-23710000D01*
X182288748Y-22290000D02*
X182811252Y-22290000D01*
X193588748Y-21810000D02*
X194111252Y-21810000D01*
X193588748Y-20390000D02*
X194111252Y-20390000D01*
X182288748Y-21810000D02*
X182811252Y-21810000D01*
X182288748Y-20390000D02*
X182811252Y-20390000D01*
X197288748Y-19910000D02*
X197811252Y-19910000D01*
X197288748Y-18490000D02*
X197811252Y-18490000D01*
X179111252Y-22290000D02*
X178588748Y-22290000D01*
X179111252Y-23710000D02*
X178588748Y-23710000D01*
X182288748Y-19910000D02*
X182811252Y-19910000D01*
X182288748Y-18490000D02*
X182811252Y-18490000D01*
X197811252Y-20390000D02*
X197288748Y-20390000D01*
X197811252Y-21810000D02*
X197288748Y-21810000D01*
X197288748Y-18010000D02*
X197811252Y-18010000D01*
X197288748Y-16590000D02*
X197811252Y-16590000D01*
X75961252Y-21040000D02*
X75438748Y-21040000D01*
X75961252Y-22460000D02*
X75438748Y-22460000D01*
X67411252Y-26440000D02*
X66888748Y-26440000D01*
X67411252Y-27860000D02*
X66888748Y-27860000D01*
X88860000Y-16461252D02*
X88860000Y-15938748D01*
X87440000Y-16461252D02*
X87440000Y-15938748D01*
X86960000Y-16461252D02*
X86960000Y-15938748D01*
X85540000Y-16461252D02*
X85540000Y-15938748D01*
X85540000Y-20888748D02*
X85540000Y-21411252D01*
X86960000Y-20888748D02*
X86960000Y-21411252D01*
X88860000Y-21411252D02*
X88860000Y-20888748D01*
X87440000Y-21411252D02*
X87440000Y-20888748D01*
X50388748Y-55960000D02*
X50911252Y-55960000D01*
X50388748Y-54540000D02*
X50911252Y-54540000D01*
X50911252Y-52490000D02*
X50388748Y-52490000D01*
X50911252Y-53910000D02*
X50388748Y-53910000D01*
X107761252Y-64490000D02*
X107238748Y-64490000D01*
X107761252Y-65910000D02*
X107238748Y-65910000D01*
X83888748Y-37660000D02*
X84411252Y-37660000D01*
X83888748Y-36240000D02*
X84411252Y-36240000D01*
X83960000Y-34411252D02*
X83960000Y-33888748D01*
X82540000Y-34411252D02*
X82540000Y-33888748D01*
X107761252Y-61940000D02*
X107238748Y-61940000D01*
X107761252Y-63360000D02*
X107238748Y-63360000D01*
X79511252Y-62840000D02*
X78988748Y-62840000D01*
X79511252Y-64260000D02*
X78988748Y-64260000D01*
X79511252Y-64740000D02*
X78988748Y-64740000D01*
X79511252Y-66160000D02*
X78988748Y-66160000D01*
X50911252Y-56590000D02*
X50388748Y-56590000D01*
X50911252Y-58010000D02*
X50388748Y-58010000D01*
X107238748Y-55760000D02*
X107761252Y-55760000D01*
X107238748Y-54340000D02*
X107761252Y-54340000D01*
X84682000Y-65711252D02*
X84682000Y-65188748D01*
X83262000Y-65711252D02*
X83262000Y-65188748D01*
X34958748Y-25810000D02*
X35481252Y-25810000D01*
X34958748Y-24390000D02*
X35481252Y-24390000D01*
X53161252Y-43290000D02*
X52638748Y-43290000D01*
X53161252Y-44710000D02*
X52638748Y-44710000D01*
X75011252Y-57140000D02*
X74488748Y-57140000D01*
X75011252Y-58560000D02*
X74488748Y-58560000D01*
X107761252Y-59390000D02*
X107238748Y-59390000D01*
X107761252Y-60810000D02*
X107238748Y-60810000D01*
X95960000Y-27711252D02*
X95960000Y-27188748D01*
X94540000Y-27711252D02*
X94540000Y-27188748D01*
X107238748Y-32310000D02*
X107761252Y-32310000D01*
X107238748Y-30890000D02*
X107761252Y-30890000D01*
X192590000Y-45438748D02*
X192590000Y-45961252D01*
X194010000Y-45438748D02*
X194010000Y-45961252D01*
X194010000Y-42311252D02*
X194010000Y-41788748D01*
X192590000Y-42311252D02*
X192590000Y-41788748D01*
X189038748Y-33810000D02*
X189561252Y-33810000D01*
X189038748Y-32390000D02*
X189561252Y-32390000D01*
X215110000Y-45011252D02*
X215110000Y-44488748D01*
X213690000Y-45011252D02*
X213690000Y-44488748D01*
X213690000Y-30188748D02*
X213690000Y-30711252D01*
X215110000Y-30188748D02*
X215110000Y-30711252D01*
X178588748Y-21810000D02*
X179111252Y-21810000D01*
X178588748Y-20390000D02*
X179111252Y-20390000D01*
X193588748Y-23710000D02*
X194111252Y-23710000D01*
X193588748Y-22290000D02*
X194111252Y-22290000D01*
X197811252Y-22290000D02*
X197288748Y-22290000D01*
X197811252Y-23710000D02*
X197288748Y-23710000D01*
X179388748Y-39110000D02*
X179911252Y-39110000D01*
X179388748Y-37690000D02*
X179911252Y-37690000D01*
X189611252Y-48790000D02*
X189088748Y-48790000D01*
X189611252Y-50210000D02*
X189088748Y-50210000D01*
X185861252Y-32390000D02*
X185338748Y-32390000D01*
X185861252Y-33810000D02*
X185338748Y-33810000D01*
X185911252Y-48790000D02*
X185388748Y-48790000D01*
X185911252Y-50210000D02*
X185388748Y-50210000D01*
X52710000Y-48961252D02*
X52710000Y-48438748D01*
X51290000Y-48961252D02*
X51290000Y-48438748D01*
X55690000Y-66888748D02*
X55690000Y-67411252D01*
X57110000Y-66888748D02*
X57110000Y-67411252D01*
X74488748Y-64260000D02*
X75011252Y-64260000D01*
X74488748Y-62840000D02*
X75011252Y-62840000D01*
X75011252Y-45140000D02*
X74488748Y-45140000D01*
X75011252Y-46560000D02*
X74488748Y-46560000D01*
X68111252Y-41740000D02*
X67588748Y-41740000D01*
X68111252Y-43160000D02*
X67588748Y-43160000D01*
X74488748Y-56510000D02*
X75011252Y-56510000D01*
X74488748Y-55090000D02*
X75011252Y-55090000D01*
X74488748Y-54610000D02*
X75011252Y-54610000D01*
X74488748Y-53190000D02*
X75011252Y-53190000D01*
X75586252Y-11690000D02*
X75063748Y-11690000D01*
X75586252Y-13110000D02*
X75063748Y-13110000D01*
X74488748Y-50510000D02*
X75011252Y-50510000D01*
X74488748Y-49090000D02*
X75011252Y-49090000D01*
X74488748Y-48610000D02*
X75011252Y-48610000D01*
X74488748Y-47190000D02*
X75011252Y-47190000D01*
X87440000Y-65188748D02*
X87440000Y-65711252D01*
X88860000Y-65188748D02*
X88860000Y-65711252D01*
X189561252Y-34290000D02*
X189038748Y-34290000D01*
X189561252Y-35710000D02*
X189038748Y-35710000D01*
X179911252Y-39590000D02*
X179388748Y-39590000D01*
X179911252Y-41010000D02*
X179388748Y-41010000D01*
X185338748Y-35710000D02*
X185861252Y-35710000D01*
X185338748Y-34290000D02*
X185861252Y-34290000D01*
X189088748Y-48310000D02*
X189611252Y-48310000D01*
X189088748Y-46890000D02*
X189611252Y-46890000D01*
X185388748Y-48310000D02*
X185911252Y-48310000D01*
X185388748Y-46890000D02*
X185911252Y-46890000D01*
X93660000Y-27711252D02*
X93660000Y-27188748D01*
X92240000Y-27711252D02*
X92240000Y-27188748D01*
X67413748Y-25235000D02*
X67936252Y-25235000D01*
X67413748Y-23815000D02*
X67936252Y-23815000D01*
X122438748Y-27060000D02*
X122961252Y-27060000D01*
X122438748Y-25640000D02*
X122961252Y-25640000D01*
X121359000Y-31908252D02*
X121359000Y-31385748D01*
X119939000Y-31908252D02*
X119939000Y-31385748D01*
X90990000Y-55388748D02*
X90990000Y-55911252D01*
X92410000Y-55388748D02*
X92410000Y-55911252D01*
X87688748Y-57260000D02*
X88211252Y-57260000D01*
X87688748Y-55840000D02*
X88211252Y-55840000D01*
X63990000Y-35388748D02*
X63990000Y-35911252D01*
X65410000Y-35388748D02*
X65410000Y-35911252D01*
X60410000Y-35911252D02*
X60410000Y-35388748D01*
X58990000Y-35911252D02*
X58990000Y-35388748D01*
X36788748Y-57360000D02*
X37311252Y-57360000D01*
X36788748Y-55940000D02*
X37311252Y-55940000D01*
X33088748Y-57360000D02*
X33611252Y-57360000D01*
X33088748Y-55940000D02*
X33611252Y-55940000D01*
X78988748Y-68060000D02*
X79511252Y-68060000D01*
X78988748Y-66640000D02*
X79511252Y-66640000D01*
X74488748Y-62360000D02*
X75011252Y-62360000D01*
X74488748Y-60940000D02*
X75011252Y-60940000D01*
X68111252Y-43690000D02*
X67588748Y-43690000D01*
X68111252Y-45110000D02*
X67588748Y-45110000D01*
X53161252Y-45190000D02*
X52638748Y-45190000D01*
X53161252Y-46610000D02*
X52638748Y-46610000D01*
X53790000Y-66888748D02*
X53790000Y-67411252D01*
X55210000Y-66888748D02*
X55210000Y-67411252D01*
X67515000Y-66888748D02*
X67515000Y-67411252D01*
X68935000Y-66888748D02*
X68935000Y-67411252D01*
X74488748Y-60460000D02*
X75011252Y-60460000D01*
X74488748Y-59040000D02*
X75011252Y-59040000D01*
X74488748Y-52560000D02*
X75011252Y-52560000D01*
X74488748Y-51140000D02*
X75011252Y-51140000D01*
X76910000Y-71211252D02*
X76910000Y-70688748D01*
X75490000Y-71211252D02*
X75490000Y-70688748D01*
X51450000Y-59935000D02*
X49165000Y-59935000D01*
X49165000Y-59935000D02*
X49165000Y-58465000D01*
X49165000Y-58465000D02*
X51450000Y-58465000D01*
X53868000Y-40253000D02*
G75*
G03*
X53868000Y-40253000I-700000J0D01*
G01*
X52217000Y-38906800D02*
G75*
G03*
X52217000Y-38906800I-700000J0D01*
G01*
X178048600Y-56305800D02*
G75*
G03*
X178048600Y-56305800I-700000J0D01*
G01*
X52293200Y-42234200D02*
G75*
G03*
X52293200Y-42234200I-700000J0D01*
G01*
X92111000Y-42009000D02*
X86590000Y-42009000D01*
X93301000Y-38550000D02*
X92111000Y-38550000D01*
X92111000Y-37691000D02*
X92111000Y-38550000D01*
X92111000Y-37691000D02*
X86590000Y-37691000D01*
X86590000Y-37691000D02*
X86590000Y-38550000D01*
X92111000Y-41150000D02*
X92111000Y-42009000D01*
X86590000Y-41150000D02*
X86590000Y-42009000D01*
X92111000Y-36259000D02*
X86590000Y-36259000D01*
X93301000Y-32800000D02*
X92111000Y-32800000D01*
X92111000Y-31941000D02*
X92111000Y-32800000D01*
X92111000Y-31941000D02*
X86590000Y-31941000D01*
X86590000Y-31941000D02*
X86590000Y-32800000D01*
X92111000Y-35400000D02*
X92111000Y-36259000D01*
X86590000Y-35400000D02*
X86590000Y-36259000D01*
X224462742Y-25198528D02*
X223048528Y-26612742D01*
X223048528Y-26612742D02*
X220326167Y-23890381D01*
X224462742Y-25198528D02*
X221740381Y-22476167D01*
X236462742Y-25198528D02*
X235048528Y-26612742D01*
X235048528Y-26612742D02*
X232326167Y-23890381D01*
X236462742Y-25198528D02*
X233740381Y-22476167D01*
X248462742Y-25198528D02*
X247048528Y-26612742D01*
X247048528Y-26612742D02*
X244326167Y-23890381D01*
X248462742Y-25198528D02*
X245740381Y-22476167D01*
X260462742Y-25198528D02*
X259048528Y-26612742D01*
X259048528Y-26612742D02*
X256326167Y-23890381D01*
X260462742Y-25198528D02*
X257740381Y-22476167D01*
X272462742Y-25198528D02*
X271048528Y-26612742D01*
X271048528Y-26612742D02*
X268326167Y-23890381D01*
X272462742Y-25198528D02*
X269740381Y-22476167D01*
X290462742Y-25198528D02*
X289048528Y-26612742D01*
X289048528Y-26612742D02*
X286326167Y-23890381D01*
X290462742Y-25198528D02*
X287740381Y-22476167D01*
X302462742Y-25198528D02*
X301048528Y-26612742D01*
X301048528Y-26612742D02*
X298326167Y-23890381D01*
X302462742Y-25198528D02*
X299740381Y-22476167D01*
X82700000Y-71275000D02*
X83150000Y-71725000D01*
X82700000Y-74675000D02*
X83150000Y-74225000D01*
X78100000Y-74675000D02*
X77650000Y-74225000D01*
X78100000Y-71275000D02*
X77650000Y-71725000D01*
X79400000Y-75725000D02*
X81400000Y-75725000D01*
X83150000Y-71725000D02*
X83150000Y-74225000D01*
X79400000Y-70225000D02*
X81400000Y-70225000D01*
X77650000Y-71725000D02*
X77650000Y-74225000D01*
X77725000Y-48175000D02*
X77725000Y-49525000D01*
X79475000Y-48175000D02*
X79475000Y-49525000D01*
D10*
X58470000Y-8600000D02*
X58470000Y-17200000D01*
X58470000Y-24900000D02*
X46470000Y-24900000D01*
X46470000Y-17200000D02*
X46470000Y-8600000D01*
X46470000Y-8600000D02*
X58470000Y-8600000D01*
X46470000Y-24900000D02*
X46470000Y-20700000D01*
X58470000Y-24900000D02*
X58470000Y-20700000D01*
D11*
X163990000Y-12140000D02*
X169190000Y-12140000D01*
X163990000Y-19820000D02*
X163990000Y-12140000D01*
X169190000Y-22420000D02*
X169190000Y-12140000D01*
X163990000Y-19820000D02*
X166590000Y-19820000D01*
X166590000Y-19820000D02*
X166590000Y-22420000D01*
X166590000Y-22420000D02*
X169190000Y-22420000D01*
X163990000Y-21090000D02*
X163990000Y-22420000D01*
X163990000Y-22420000D02*
X165320000Y-22420000D01*
X171780000Y-40250000D02*
X171080000Y-40250000D01*
X171780000Y-34950000D02*
X171780000Y-40250000D01*
X171080000Y-34950000D02*
X171780000Y-34950000D01*
X163940000Y-40250000D02*
X164640000Y-40250000D01*
X163940000Y-34950000D02*
X163940000Y-40250000D01*
X164640000Y-34950000D02*
X163940000Y-34950000D01*
X200200000Y-34950000D02*
X199500000Y-34950000D01*
X199500000Y-34950000D02*
X199500000Y-40250000D01*
X199500000Y-40250000D02*
X200200000Y-40250000D01*
X214260000Y-34950000D02*
X214960000Y-34950000D01*
X214960000Y-34950000D02*
X214960000Y-40250000D01*
X214960000Y-40250000D02*
X214260000Y-40250000D01*
D10*
X34070000Y-8600000D02*
X42870000Y-8600000D01*
X42870000Y-22000000D02*
X42870000Y-22800000D01*
X42870000Y-22800000D02*
X40770000Y-22800000D01*
X34070000Y-22800000D02*
X34070000Y-8600000D01*
X34070000Y-22800000D02*
X36170000Y-22800000D01*
X42870000Y-8600000D02*
X42870000Y-17200000D01*
D11*
X77450000Y-18400000D02*
X77450000Y-20400000D01*
X77450000Y-20400000D02*
X73550000Y-20400000D01*
X77450000Y-18400000D02*
X73550000Y-18400000D01*
X118400000Y-30600000D02*
X118400000Y-32600000D01*
X118400000Y-32600000D02*
X114550000Y-32600000D01*
X118400000Y-30600000D02*
X114550000Y-30600000D01*
X63200000Y-33800000D02*
X61200000Y-33800000D01*
X61200000Y-33800000D02*
X61200000Y-29950000D01*
X63200000Y-33800000D02*
X63200000Y-29950000D01*
X90200000Y-53800000D02*
X88200000Y-53800000D01*
X88200000Y-53800000D02*
X88200000Y-49950000D01*
X90200000Y-53800000D02*
X90200000Y-49950000D01*
X36200000Y-53800000D02*
X34200000Y-53800000D01*
X34200000Y-53800000D02*
X34200000Y-49950000D01*
X36200000Y-53800000D02*
X36200000Y-49950000D01*
X32720000Y-33600000D02*
X32720000Y-31600000D01*
X32720000Y-31600000D02*
X36620000Y-31600000D01*
X32720000Y-33600000D02*
X36620000Y-33600000D01*
X41220000Y-30800000D02*
X39220000Y-30800000D01*
X39220000Y-30800000D02*
X39220000Y-26950000D01*
X41220000Y-30800000D02*
X41220000Y-26950000D01*
X302462742Y-37198528D02*
X301048528Y-38612742D01*
X301048528Y-38612742D02*
X298326167Y-35890381D01*
X302462742Y-37198528D02*
X299740381Y-34476167D01*
X290462742Y-37198528D02*
X289048528Y-38612742D01*
X289048528Y-38612742D02*
X286326167Y-35890381D01*
X290462742Y-37198528D02*
X287740381Y-34476167D01*
X272462742Y-37198528D02*
X271048528Y-38612742D01*
X271048528Y-38612742D02*
X268326167Y-35890381D01*
X272462742Y-37198528D02*
X269740381Y-34476167D01*
X260462742Y-37198528D02*
X259048528Y-38612742D01*
X259048528Y-38612742D02*
X256326167Y-35890381D01*
X260462742Y-37198528D02*
X257740381Y-34476167D01*
X248462742Y-37198528D02*
X247048528Y-38612742D01*
X247048528Y-38612742D02*
X244326167Y-35890381D01*
X248462742Y-37198528D02*
X245740381Y-34476167D01*
X236462742Y-37198528D02*
X235048528Y-38612742D01*
X235048528Y-38612742D02*
X232326167Y-35890381D01*
X236462742Y-37198528D02*
X233740381Y-34476167D01*
X224462742Y-37198528D02*
X223048528Y-38612742D01*
X223048528Y-38612742D02*
X220326167Y-35890381D01*
X224462742Y-37198528D02*
X221740381Y-34476167D01*
X302462742Y-49198528D02*
X301048528Y-50612742D01*
X301048528Y-50612742D02*
X298326167Y-47890381D01*
X302462742Y-49198528D02*
X299740381Y-46476167D01*
X290462742Y-49198528D02*
X289048528Y-50612742D01*
X289048528Y-50612742D02*
X286326167Y-47890381D01*
X290462742Y-49198528D02*
X287740381Y-46476167D01*
X272462742Y-49198528D02*
X271048528Y-50612742D01*
X271048528Y-50612742D02*
X268326167Y-47890381D01*
X272462742Y-49198528D02*
X269740381Y-46476167D01*
X260462742Y-49198528D02*
X259048528Y-50612742D01*
X259048528Y-50612742D02*
X256326167Y-47890381D01*
X260462742Y-49198528D02*
X257740381Y-46476167D01*
X248462742Y-49198528D02*
X247048528Y-50612742D01*
X247048528Y-50612742D02*
X244326167Y-47890381D01*
X248462742Y-49198528D02*
X245740381Y-46476167D01*
X236462742Y-49198528D02*
X235048528Y-50612742D01*
X235048528Y-50612742D02*
X232326167Y-47890381D01*
X236462742Y-49198528D02*
X233740381Y-46476167D01*
X224462742Y-49198528D02*
X223048528Y-50612742D01*
X223048528Y-50612742D02*
X220326167Y-47890381D01*
X224462742Y-49198528D02*
X221740381Y-46476167D01*
X302462742Y-61198528D02*
X301048528Y-62612742D01*
X301048528Y-62612742D02*
X298326167Y-59890381D01*
X302462742Y-61198528D02*
X299740381Y-58476167D01*
X290462742Y-61198528D02*
X289048528Y-62612742D01*
X289048528Y-62612742D02*
X286326167Y-59890381D01*
X290462742Y-61198528D02*
X287740381Y-58476167D01*
X272462742Y-61198528D02*
X271048528Y-62612742D01*
X271048528Y-62612742D02*
X268326167Y-59890381D01*
X272462742Y-61198528D02*
X269740381Y-58476167D01*
X260462742Y-61198528D02*
X259048528Y-62612742D01*
X259048528Y-62612742D02*
X256326167Y-59890381D01*
X260462742Y-61198528D02*
X257740381Y-58476167D01*
X248462742Y-61198528D02*
X247048528Y-62612742D01*
X247048528Y-62612742D02*
X244326167Y-59890381D01*
X248462742Y-61198528D02*
X245740381Y-58476167D01*
X236462742Y-61198528D02*
X235048528Y-62612742D01*
X235048528Y-62612742D02*
X232326167Y-59890381D01*
X236462742Y-61198528D02*
X233740381Y-58476167D01*
X224462742Y-61198528D02*
X223048528Y-62612742D01*
X223048528Y-62612742D02*
X220326167Y-59890381D01*
X224462742Y-61198528D02*
X221740381Y-58476167D01*
X268200000Y-78400000D02*
X270200000Y-78400000D01*
X270200000Y-78400000D02*
X270200000Y-82250000D01*
X268200000Y-78400000D02*
X268200000Y-82250000D01*
X250200000Y-78400000D02*
X252200000Y-78400000D01*
X252200000Y-78400000D02*
X252200000Y-82250000D01*
X250200000Y-78400000D02*
X250200000Y-82250000D01*
X232200000Y-78400000D02*
X234200000Y-78400000D01*
X234200000Y-78400000D02*
X234200000Y-82250000D01*
X232200000Y-78400000D02*
X232200000Y-82250000D01*
X196200000Y-78400000D02*
X198200000Y-78400000D01*
X198200000Y-78400000D02*
X198200000Y-82250000D01*
X196200000Y-78400000D02*
X196200000Y-82250000D01*
X178200000Y-78400000D02*
X180200000Y-78400000D01*
X180200000Y-78400000D02*
X180200000Y-82250000D01*
X178200000Y-78400000D02*
X178200000Y-82250000D01*
X142200000Y-78400000D02*
X144200000Y-78400000D01*
X144200000Y-78400000D02*
X144200000Y-82250000D01*
X142200000Y-78400000D02*
X142200000Y-82250000D01*
X124200000Y-78400000D02*
X126200000Y-78400000D01*
X126200000Y-78400000D02*
X126200000Y-82250000D01*
X124200000Y-78400000D02*
X124200000Y-82250000D01*
X106200000Y-78400000D02*
X108200000Y-78400000D01*
X108200000Y-78400000D02*
X108200000Y-82250000D01*
X106200000Y-78400000D02*
X106200000Y-82250000D01*
X70200000Y-78400000D02*
X72200000Y-78400000D01*
X72200000Y-78400000D02*
X72200000Y-82250000D01*
X70200000Y-78400000D02*
X70200000Y-82250000D01*
X52200000Y-78400000D02*
X54200000Y-78400000D01*
X54200000Y-78400000D02*
X54200000Y-82250000D01*
X52200000Y-78400000D02*
X52200000Y-82250000D01*
X295200000Y-93890000D02*
X297200000Y-93890000D01*
X297200000Y-93890000D02*
X297200000Y-97740000D01*
X295200000Y-93890000D02*
X295200000Y-97740000D01*
X277200000Y-93900000D02*
X279200000Y-93900000D01*
X279200000Y-93900000D02*
X279200000Y-97750000D01*
X277200000Y-93900000D02*
X277200000Y-97750000D01*
X259200000Y-93900000D02*
X261200000Y-93900000D01*
X261200000Y-93900000D02*
X261200000Y-97750000D01*
X259200000Y-93900000D02*
X259200000Y-97750000D01*
X241200000Y-93900000D02*
X243200000Y-93900000D01*
X243200000Y-93900000D02*
X243200000Y-97750000D01*
X241200000Y-93900000D02*
X241200000Y-97750000D01*
X223200000Y-93900000D02*
X225200000Y-93900000D01*
X225200000Y-93900000D02*
X225200000Y-97750000D01*
X223200000Y-93900000D02*
X223200000Y-97750000D01*
X205200000Y-93900000D02*
X207200000Y-93900000D01*
X207200000Y-93900000D02*
X207200000Y-97750000D01*
X205200000Y-93900000D02*
X205200000Y-97750000D01*
X187200000Y-93900000D02*
X189200000Y-93900000D01*
X189200000Y-93900000D02*
X189200000Y-97750000D01*
X187200000Y-93900000D02*
X187200000Y-97750000D01*
X169200000Y-93900000D02*
X171200000Y-93900000D01*
X171200000Y-93900000D02*
X171200000Y-97750000D01*
X169200000Y-93900000D02*
X169200000Y-97750000D01*
X151200000Y-93900000D02*
X153200000Y-93900000D01*
X153200000Y-93900000D02*
X153200000Y-97750000D01*
X151200000Y-93900000D02*
X151200000Y-97750000D01*
X133200000Y-93900000D02*
X135200000Y-93900000D01*
X135200000Y-93900000D02*
X135200000Y-97750000D01*
X133200000Y-93900000D02*
X133200000Y-97750000D01*
X115200000Y-93900000D02*
X117200000Y-93900000D01*
X117200000Y-93900000D02*
X117200000Y-97750000D01*
X115200000Y-93900000D02*
X115200000Y-97750000D01*
X97200000Y-93900000D02*
X99200000Y-93900000D01*
X99200000Y-93900000D02*
X99200000Y-97750000D01*
X97200000Y-93900000D02*
X97200000Y-97750000D01*
X79200000Y-93900000D02*
X81200000Y-93900000D01*
X81200000Y-93900000D02*
X81200000Y-97750000D01*
X79200000Y-93900000D02*
X79200000Y-97750000D01*
X61200000Y-93900000D02*
X63200000Y-93900000D01*
X63200000Y-93900000D02*
X63200000Y-97750000D01*
X61200000Y-93900000D02*
X61200000Y-97750000D01*
X43200000Y-93900000D02*
X45200000Y-93900000D01*
X45200000Y-93900000D02*
X45200000Y-97750000D01*
X43200000Y-93900000D02*
X43200000Y-97750000D01*
X25200000Y-93900000D02*
X27200000Y-93900000D01*
X27200000Y-93900000D02*
X27200000Y-97750000D01*
X25200000Y-93900000D02*
X25200000Y-97750000D01*
X179070000Y-24330000D02*
X173830000Y-24330000D01*
X179070000Y-31770000D02*
X173830000Y-31770000D01*
X173830000Y-31770000D02*
X173830000Y-24330000D01*
X179070000Y-31770000D02*
X179070000Y-24330000D01*
X184830000Y-31770000D02*
X190070000Y-31770000D01*
X184830000Y-24330000D02*
X190070000Y-24330000D01*
X190070000Y-24330000D02*
X190070000Y-31770000D01*
X184830000Y-24330000D02*
X184830000Y-31770000D01*
X195570000Y-24330000D02*
X190330000Y-24330000D01*
X195570000Y-31770000D02*
X190330000Y-31770000D01*
X190330000Y-31770000D02*
X190330000Y-24330000D01*
X195570000Y-31770000D02*
X195570000Y-24330000D01*
X179330000Y-31770000D02*
X184570000Y-31770000D01*
X179330000Y-24330000D02*
X184570000Y-24330000D01*
X184570000Y-24330000D02*
X184570000Y-31770000D01*
X179330000Y-24330000D02*
X179330000Y-31770000D01*
X201070000Y-24330000D02*
X195830000Y-24330000D01*
X201070000Y-31770000D02*
X195830000Y-31770000D01*
X195830000Y-31770000D02*
X195830000Y-24330000D01*
X201070000Y-31770000D02*
X201070000Y-24330000D01*
D10*
X21889980Y-69844095D02*
X22699504Y-69844095D01*
X22794742Y-69891714D01*
X22842361Y-69939333D01*
X22889980Y-70034571D01*
X22889980Y-70225047D01*
X22842361Y-70320285D01*
X22794742Y-70367904D01*
X22699504Y-70415523D01*
X21889980Y-70415523D01*
X21985219Y-70844095D02*
X21937600Y-70891714D01*
X21889980Y-70986952D01*
X21889980Y-71225047D01*
X21937600Y-71320285D01*
X21985219Y-71367904D01*
X22080457Y-71415523D01*
X22175695Y-71415523D01*
X22318552Y-71367904D01*
X22889980Y-70796476D01*
X22889980Y-71415523D01*
X19876457Y-64021580D02*
X20209790Y-63545390D01*
X20447885Y-64021580D02*
X20447885Y-63021580D01*
X20066933Y-63021580D01*
X19971695Y-63069200D01*
X19924076Y-63116819D01*
X19876457Y-63212057D01*
X19876457Y-63354914D01*
X19924076Y-63450152D01*
X19971695Y-63497771D01*
X20066933Y-63545390D01*
X20447885Y-63545390D01*
X19495504Y-63116819D02*
X19447885Y-63069200D01*
X19352647Y-63021580D01*
X19114552Y-63021580D01*
X19019314Y-63069200D01*
X18971695Y-63116819D01*
X18924076Y-63212057D01*
X18924076Y-63307295D01*
X18971695Y-63450152D01*
X19543123Y-64021580D01*
X18924076Y-64021580D01*
X18305028Y-63021580D02*
X18209790Y-63021580D01*
X18114552Y-63069200D01*
X18066933Y-63116819D01*
X18019314Y-63212057D01*
X17971695Y-63402533D01*
X17971695Y-63640628D01*
X18019314Y-63831104D01*
X18066933Y-63926342D01*
X18114552Y-63973961D01*
X18209790Y-64021580D01*
X18305028Y-64021580D01*
X18400266Y-63973961D01*
X18447885Y-63926342D01*
X18495504Y-63831104D01*
X18543123Y-63640628D01*
X18543123Y-63402533D01*
X18495504Y-63212057D01*
X18447885Y-63116819D01*
X18400266Y-63069200D01*
X18305028Y-63021580D01*
X19876457Y-62192780D02*
X20209790Y-61716590D01*
X20447885Y-62192780D02*
X20447885Y-61192780D01*
X20066933Y-61192780D01*
X19971695Y-61240400D01*
X19924076Y-61288019D01*
X19876457Y-61383257D01*
X19876457Y-61526114D01*
X19924076Y-61621352D01*
X19971695Y-61668971D01*
X20066933Y-61716590D01*
X20447885Y-61716590D01*
X18924076Y-62192780D02*
X19495504Y-62192780D01*
X19209790Y-62192780D02*
X19209790Y-61192780D01*
X19305028Y-61335638D01*
X19400266Y-61430876D01*
X19495504Y-61478495D01*
X18352647Y-61621352D02*
X18447885Y-61573733D01*
X18495504Y-61526114D01*
X18543123Y-61430876D01*
X18543123Y-61383257D01*
X18495504Y-61288019D01*
X18447885Y-61240400D01*
X18352647Y-61192780D01*
X18162171Y-61192780D01*
X18066933Y-61240400D01*
X18019314Y-61288019D01*
X17971695Y-61383257D01*
X17971695Y-61430876D01*
X18019314Y-61526114D01*
X18066933Y-61573733D01*
X18162171Y-61621352D01*
X18352647Y-61621352D01*
X18447885Y-61668971D01*
X18495504Y-61716590D01*
X18543123Y-61811828D01*
X18543123Y-62002304D01*
X18495504Y-62097542D01*
X18447885Y-62145161D01*
X18352647Y-62192780D01*
X18162171Y-62192780D01*
X18066933Y-62145161D01*
X18019314Y-62097542D01*
X17971695Y-62002304D01*
X17971695Y-61811828D01*
X18019314Y-61716590D01*
X18066933Y-61668971D01*
X18162171Y-61621352D01*
X29223657Y-79542980D02*
X29556990Y-79066790D01*
X29795085Y-79542980D02*
X29795085Y-78542980D01*
X29414133Y-78542980D01*
X29318895Y-78590600D01*
X29271276Y-78638219D01*
X29223657Y-78733457D01*
X29223657Y-78876314D01*
X29271276Y-78971552D01*
X29318895Y-79019171D01*
X29414133Y-79066790D01*
X29795085Y-79066790D01*
X28271276Y-79542980D02*
X28842704Y-79542980D01*
X28556990Y-79542980D02*
X28556990Y-78542980D01*
X28652228Y-78685838D01*
X28747466Y-78781076D01*
X28842704Y-78828695D01*
X27890323Y-78638219D02*
X27842704Y-78590600D01*
X27747466Y-78542980D01*
X27509371Y-78542980D01*
X27414133Y-78590600D01*
X27366514Y-78638219D01*
X27318895Y-78733457D01*
X27318895Y-78828695D01*
X27366514Y-78971552D01*
X27937942Y-79542980D01*
X27318895Y-79542980D01*
X32209180Y-69226542D02*
X31732990Y-68893209D01*
X32209180Y-68655114D02*
X31209180Y-68655114D01*
X31209180Y-69036066D01*
X31256800Y-69131304D01*
X31304419Y-69178923D01*
X31399657Y-69226542D01*
X31542514Y-69226542D01*
X31637752Y-69178923D01*
X31685371Y-69131304D01*
X31732990Y-69036066D01*
X31732990Y-68655114D01*
X32209180Y-70178923D02*
X32209180Y-69607495D01*
X32209180Y-69893209D02*
X31209180Y-69893209D01*
X31352038Y-69797971D01*
X31447276Y-69702733D01*
X31494895Y-69607495D01*
X31209180Y-70797971D02*
X31209180Y-70893209D01*
X31256800Y-70988447D01*
X31304419Y-71036066D01*
X31399657Y-71083685D01*
X31590133Y-71131304D01*
X31828228Y-71131304D01*
X32018704Y-71083685D01*
X32113942Y-71036066D01*
X32161561Y-70988447D01*
X32209180Y-70893209D01*
X32209180Y-70797971D01*
X32161561Y-70702733D01*
X32113942Y-70655114D01*
X32018704Y-70607495D01*
X31828228Y-70559876D01*
X31590133Y-70559876D01*
X31399657Y-70607495D01*
X31304419Y-70655114D01*
X31256800Y-70702733D01*
X31209180Y-70797971D01*
X28747466Y-76698180D02*
X29080800Y-76221990D01*
X29318895Y-76698180D02*
X29318895Y-75698180D01*
X28937942Y-75698180D01*
X28842704Y-75745800D01*
X28795085Y-75793419D01*
X28747466Y-75888657D01*
X28747466Y-76031514D01*
X28795085Y-76126752D01*
X28842704Y-76174371D01*
X28937942Y-76221990D01*
X29318895Y-76221990D01*
X28271276Y-76698180D02*
X28080800Y-76698180D01*
X27985561Y-76650561D01*
X27937942Y-76602942D01*
X27842704Y-76460085D01*
X27795085Y-76269609D01*
X27795085Y-75888657D01*
X27842704Y-75793419D01*
X27890323Y-75745800D01*
X27985561Y-75698180D01*
X28176038Y-75698180D01*
X28271276Y-75745800D01*
X28318895Y-75793419D01*
X28366514Y-75888657D01*
X28366514Y-76126752D01*
X28318895Y-76221990D01*
X28271276Y-76269609D01*
X28176038Y-76317228D01*
X27985561Y-76317228D01*
X27890323Y-76269609D01*
X27842704Y-76221990D01*
X27795085Y-76126752D01*
X30202580Y-69753533D02*
X29726390Y-69420200D01*
X30202580Y-69182104D02*
X29202580Y-69182104D01*
X29202580Y-69563057D01*
X29250200Y-69658295D01*
X29297819Y-69705914D01*
X29393057Y-69753533D01*
X29535914Y-69753533D01*
X29631152Y-69705914D01*
X29678771Y-69658295D01*
X29726390Y-69563057D01*
X29726390Y-69182104D01*
X29631152Y-70324961D02*
X29583533Y-70229723D01*
X29535914Y-70182104D01*
X29440676Y-70134485D01*
X29393057Y-70134485D01*
X29297819Y-70182104D01*
X29250200Y-70229723D01*
X29202580Y-70324961D01*
X29202580Y-70515438D01*
X29250200Y-70610676D01*
X29297819Y-70658295D01*
X29393057Y-70705914D01*
X29440676Y-70705914D01*
X29535914Y-70658295D01*
X29583533Y-70610676D01*
X29631152Y-70515438D01*
X29631152Y-70324961D01*
X29678771Y-70229723D01*
X29726390Y-70182104D01*
X29821628Y-70134485D01*
X30012104Y-70134485D01*
X30107342Y-70182104D01*
X30154961Y-70229723D01*
X30202580Y-70324961D01*
X30202580Y-70515438D01*
X30154961Y-70610676D01*
X30107342Y-70658295D01*
X30012104Y-70705914D01*
X29821628Y-70705914D01*
X29726390Y-70658295D01*
X29678771Y-70610676D01*
X29631152Y-70515438D01*
X22702266Y-74513780D02*
X23035600Y-74037590D01*
X23273695Y-74513780D02*
X23273695Y-73513780D01*
X22892742Y-73513780D01*
X22797504Y-73561400D01*
X22749885Y-73609019D01*
X22702266Y-73704257D01*
X22702266Y-73847114D01*
X22749885Y-73942352D01*
X22797504Y-73989971D01*
X22892742Y-74037590D01*
X23273695Y-74037590D01*
X21797504Y-73513780D02*
X22273695Y-73513780D01*
X22321314Y-73989971D01*
X22273695Y-73942352D01*
X22178457Y-73894733D01*
X21940361Y-73894733D01*
X21845123Y-73942352D01*
X21797504Y-73989971D01*
X21749885Y-74085209D01*
X21749885Y-74323304D01*
X21797504Y-74418542D01*
X21845123Y-74466161D01*
X21940361Y-74513780D01*
X22178457Y-74513780D01*
X22273695Y-74466161D01*
X22321314Y-74418542D01*
X17941619Y-65862561D02*
X17894000Y-65767323D01*
X17798761Y-65672085D01*
X17655904Y-65529228D01*
X17608285Y-65433990D01*
X17608285Y-65338752D01*
X17846380Y-65386371D02*
X17798761Y-65291133D01*
X17703523Y-65195895D01*
X17513047Y-65148276D01*
X17179714Y-65148276D01*
X16989238Y-65195895D01*
X16894000Y-65291133D01*
X16846380Y-65386371D01*
X16846380Y-65576847D01*
X16894000Y-65672085D01*
X16989238Y-65767323D01*
X17179714Y-65814942D01*
X17513047Y-65814942D01*
X17703523Y-65767323D01*
X17798761Y-65672085D01*
X17846380Y-65576847D01*
X17846380Y-65386371D01*
X16941619Y-66195895D02*
X16894000Y-66243514D01*
X16846380Y-66338752D01*
X16846380Y-66576847D01*
X16894000Y-66672085D01*
X16941619Y-66719704D01*
X17036857Y-66767323D01*
X17132095Y-66767323D01*
X17274952Y-66719704D01*
X17846380Y-66148276D01*
X17846380Y-66767323D01*
X29560266Y-67647980D02*
X30036457Y-67647980D01*
X30036457Y-66647980D01*
X29274552Y-66743219D02*
X29226933Y-66695600D01*
X29131695Y-66647980D01*
X28893600Y-66647980D01*
X28798361Y-66695600D01*
X28750742Y-66743219D01*
X28703123Y-66838457D01*
X28703123Y-66933695D01*
X28750742Y-67076552D01*
X29322171Y-67647980D01*
X28703123Y-67647980D01*
X17287580Y-70941114D02*
X16287580Y-70941114D01*
X16287580Y-71179209D01*
X16335200Y-71322066D01*
X16430438Y-71417304D01*
X16525676Y-71464923D01*
X16716152Y-71512542D01*
X16859009Y-71512542D01*
X17049485Y-71464923D01*
X17144723Y-71417304D01*
X17239961Y-71322066D01*
X17287580Y-71179209D01*
X17287580Y-70941114D01*
X16287580Y-72417304D02*
X16287580Y-71941114D01*
X16763771Y-71893495D01*
X16716152Y-71941114D01*
X16668533Y-72036352D01*
X16668533Y-72274447D01*
X16716152Y-72369685D01*
X16763771Y-72417304D01*
X16859009Y-72464923D01*
X17097104Y-72464923D01*
X17192342Y-72417304D01*
X17239961Y-72369685D01*
X17287580Y-72274447D01*
X17287580Y-72036352D01*
X17239961Y-71941114D01*
X17192342Y-71893495D01*
X16620914Y-73322066D02*
X17287580Y-73322066D01*
X16239961Y-73083971D02*
X16954247Y-72845876D01*
X16954247Y-73464923D01*
X24448457Y-57382942D02*
X24496076Y-57430561D01*
X24638933Y-57478180D01*
X24734171Y-57478180D01*
X24877028Y-57430561D01*
X24972266Y-57335323D01*
X25019885Y-57240085D01*
X25067504Y-57049609D01*
X25067504Y-56906752D01*
X25019885Y-56716276D01*
X24972266Y-56621038D01*
X24877028Y-56525800D01*
X24734171Y-56478180D01*
X24638933Y-56478180D01*
X24496076Y-56525800D01*
X24448457Y-56573419D01*
X23496076Y-57478180D02*
X24067504Y-57478180D01*
X23781790Y-57478180D02*
X23781790Y-56478180D01*
X23877028Y-56621038D01*
X23972266Y-56716276D01*
X24067504Y-56763895D01*
X22543695Y-57478180D02*
X23115123Y-57478180D01*
X22829409Y-57478180D02*
X22829409Y-56478180D01*
X22924647Y-56621038D01*
X23019885Y-56716276D01*
X23115123Y-56763895D01*
X24448457Y-59592742D02*
X24496076Y-59640361D01*
X24638933Y-59687980D01*
X24734171Y-59687980D01*
X24877028Y-59640361D01*
X24972266Y-59545123D01*
X25019885Y-59449885D01*
X25067504Y-59259409D01*
X25067504Y-59116552D01*
X25019885Y-58926076D01*
X24972266Y-58830838D01*
X24877028Y-58735600D01*
X24734171Y-58687980D01*
X24638933Y-58687980D01*
X24496076Y-58735600D01*
X24448457Y-58783219D01*
X23496076Y-59687980D02*
X24067504Y-59687980D01*
X23781790Y-59687980D02*
X23781790Y-58687980D01*
X23877028Y-58830838D01*
X23972266Y-58926076D01*
X24067504Y-58973695D01*
X22877028Y-58687980D02*
X22781790Y-58687980D01*
X22686552Y-58735600D01*
X22638933Y-58783219D01*
X22591314Y-58878457D01*
X22543695Y-59068933D01*
X22543695Y-59307028D01*
X22591314Y-59497504D01*
X22638933Y-59592742D01*
X22686552Y-59640361D01*
X22781790Y-59687980D01*
X22877028Y-59687980D01*
X22972266Y-59640361D01*
X23019885Y-59592742D01*
X23067504Y-59497504D01*
X23115123Y-59307028D01*
X23115123Y-59068933D01*
X23067504Y-58878457D01*
X23019885Y-58783219D01*
X22972266Y-58735600D01*
X22877028Y-58687980D01*
X23663542Y-79253133D02*
X23711161Y-79205514D01*
X23758780Y-79062657D01*
X23758780Y-78967419D01*
X23711161Y-78824561D01*
X23615923Y-78729323D01*
X23520685Y-78681704D01*
X23330209Y-78634085D01*
X23187352Y-78634085D01*
X22996876Y-78681704D01*
X22901638Y-78729323D01*
X22806400Y-78824561D01*
X22758780Y-78967419D01*
X22758780Y-79062657D01*
X22806400Y-79205514D01*
X22854019Y-79253133D01*
X23758780Y-79729323D02*
X23758780Y-79919800D01*
X23711161Y-80015038D01*
X23663542Y-80062657D01*
X23520685Y-80157895D01*
X23330209Y-80205514D01*
X22949257Y-80205514D01*
X22854019Y-80157895D01*
X22806400Y-80110276D01*
X22758780Y-80015038D01*
X22758780Y-79824561D01*
X22806400Y-79729323D01*
X22854019Y-79681704D01*
X22949257Y-79634085D01*
X23187352Y-79634085D01*
X23282590Y-79681704D01*
X23330209Y-79729323D01*
X23377828Y-79824561D01*
X23377828Y-80015038D01*
X23330209Y-80110276D01*
X23282590Y-80157895D01*
X23187352Y-80205514D01*
X26486866Y-74469342D02*
X26534485Y-74516961D01*
X26677342Y-74564580D01*
X26772580Y-74564580D01*
X26915438Y-74516961D01*
X27010676Y-74421723D01*
X27058295Y-74326485D01*
X27105914Y-74136009D01*
X27105914Y-73993152D01*
X27058295Y-73802676D01*
X27010676Y-73707438D01*
X26915438Y-73612200D01*
X26772580Y-73564580D01*
X26677342Y-73564580D01*
X26534485Y-73612200D01*
X26486866Y-73659819D01*
X25915438Y-73993152D02*
X26010676Y-73945533D01*
X26058295Y-73897914D01*
X26105914Y-73802676D01*
X26105914Y-73755057D01*
X26058295Y-73659819D01*
X26010676Y-73612200D01*
X25915438Y-73564580D01*
X25724961Y-73564580D01*
X25629723Y-73612200D01*
X25582104Y-73659819D01*
X25534485Y-73755057D01*
X25534485Y-73802676D01*
X25582104Y-73897914D01*
X25629723Y-73945533D01*
X25724961Y-73993152D01*
X25915438Y-73993152D01*
X26010676Y-74040771D01*
X26058295Y-74088390D01*
X26105914Y-74183628D01*
X26105914Y-74374104D01*
X26058295Y-74469342D01*
X26010676Y-74516961D01*
X25915438Y-74564580D01*
X25724961Y-74564580D01*
X25629723Y-74516961D01*
X25582104Y-74469342D01*
X25534485Y-74374104D01*
X25534485Y-74183628D01*
X25582104Y-74088390D01*
X25629723Y-74040771D01*
X25724961Y-73993152D01*
X24314142Y-71963333D02*
X24361761Y-71915714D01*
X24409380Y-71772857D01*
X24409380Y-71677619D01*
X24361761Y-71534761D01*
X24266523Y-71439523D01*
X24171285Y-71391904D01*
X23980809Y-71344285D01*
X23837952Y-71344285D01*
X23647476Y-71391904D01*
X23552238Y-71439523D01*
X23457000Y-71534761D01*
X23409380Y-71677619D01*
X23409380Y-71772857D01*
X23457000Y-71915714D01*
X23504619Y-71963333D01*
X23409380Y-72296666D02*
X23409380Y-72963333D01*
X24409380Y-72534761D01*
X28126142Y-68966133D02*
X28173761Y-68918514D01*
X28221380Y-68775657D01*
X28221380Y-68680419D01*
X28173761Y-68537561D01*
X28078523Y-68442323D01*
X27983285Y-68394704D01*
X27792809Y-68347085D01*
X27649952Y-68347085D01*
X27459476Y-68394704D01*
X27364238Y-68442323D01*
X27269000Y-68537561D01*
X27221380Y-68680419D01*
X27221380Y-68775657D01*
X27269000Y-68918514D01*
X27316619Y-68966133D01*
X27221380Y-69823276D02*
X27221380Y-69632800D01*
X27269000Y-69537561D01*
X27316619Y-69489942D01*
X27459476Y-69394704D01*
X27649952Y-69347085D01*
X28030904Y-69347085D01*
X28126142Y-69394704D01*
X28173761Y-69442323D01*
X28221380Y-69537561D01*
X28221380Y-69728038D01*
X28173761Y-69823276D01*
X28126142Y-69870895D01*
X28030904Y-69918514D01*
X27792809Y-69918514D01*
X27697571Y-69870895D01*
X27649952Y-69823276D01*
X27602333Y-69728038D01*
X27602333Y-69537561D01*
X27649952Y-69442323D01*
X27697571Y-69394704D01*
X27792809Y-69347085D01*
X32038333Y-40467380D02*
X32038333Y-41181666D01*
X32085952Y-41324523D01*
X32181190Y-41419761D01*
X32324047Y-41467380D01*
X32419285Y-41467380D01*
X31657380Y-40467380D02*
X31038333Y-40467380D01*
X31371666Y-40848333D01*
X31228809Y-40848333D01*
X31133571Y-40895952D01*
X31085952Y-40943571D01*
X31038333Y-41038809D01*
X31038333Y-41276904D01*
X31085952Y-41372142D01*
X31133571Y-41419761D01*
X31228809Y-41467380D01*
X31514523Y-41467380D01*
X31609761Y-41419761D01*
X31657380Y-41372142D01*
X47303733Y-35819180D02*
X47303733Y-36533466D01*
X47351352Y-36676323D01*
X47446590Y-36771561D01*
X47589447Y-36819180D01*
X47684685Y-36819180D01*
X46398971Y-36152514D02*
X46398971Y-36819180D01*
X46637066Y-35771561D02*
X46875161Y-36485847D01*
X46256114Y-36485847D01*
X45627333Y-65994380D02*
X45627333Y-66708666D01*
X45674952Y-66851523D01*
X45770190Y-66946761D01*
X45913047Y-66994380D01*
X46008285Y-66994380D01*
X44674952Y-65994380D02*
X45151142Y-65994380D01*
X45198761Y-66470571D01*
X45151142Y-66422952D01*
X45055904Y-66375333D01*
X44817809Y-66375333D01*
X44722571Y-66422952D01*
X44674952Y-66470571D01*
X44627333Y-66565809D01*
X44627333Y-66803904D01*
X44674952Y-66899142D01*
X44722571Y-66946761D01*
X44817809Y-66994380D01*
X45055904Y-66994380D01*
X45151142Y-66946761D01*
X45198761Y-66899142D01*
X43621980Y-75911466D02*
X44336266Y-75911466D01*
X44479123Y-75863847D01*
X44574361Y-75768609D01*
X44621980Y-75625752D01*
X44621980Y-75530514D01*
X43621980Y-76816228D02*
X43621980Y-76625752D01*
X43669600Y-76530514D01*
X43717219Y-76482895D01*
X43860076Y-76387657D01*
X44050552Y-76340038D01*
X44431504Y-76340038D01*
X44526742Y-76387657D01*
X44574361Y-76435276D01*
X44621980Y-76530514D01*
X44621980Y-76720990D01*
X44574361Y-76816228D01*
X44526742Y-76863847D01*
X44431504Y-76911466D01*
X44193409Y-76911466D01*
X44098171Y-76863847D01*
X44050552Y-76816228D01*
X44002933Y-76720990D01*
X44002933Y-76530514D01*
X44050552Y-76435276D01*
X44098171Y-76387657D01*
X44193409Y-76340038D01*
X27986380Y-33183333D02*
X27986380Y-32707142D01*
X26986380Y-32707142D01*
X27986380Y-34040476D02*
X27986380Y-33469047D01*
X27986380Y-33754761D02*
X26986380Y-33754761D01*
X27129238Y-33659523D01*
X27224476Y-33564285D01*
X27272095Y-33469047D01*
X24854780Y-46708295D02*
X25664304Y-46708295D01*
X25759542Y-46755914D01*
X25807161Y-46803533D01*
X25854780Y-46898771D01*
X25854780Y-47089247D01*
X25807161Y-47184485D01*
X25759542Y-47232104D01*
X25664304Y-47279723D01*
X24854780Y-47279723D01*
X25854780Y-48279723D02*
X25854780Y-47708295D01*
X25854780Y-47994009D02*
X24854780Y-47994009D01*
X24997638Y-47898771D01*
X25092876Y-47803533D01*
X25140495Y-47708295D01*
X174845142Y-26870952D02*
X174892761Y-26823333D01*
X174940380Y-26680476D01*
X174940380Y-26585238D01*
X174892761Y-26442380D01*
X174797523Y-26347142D01*
X174702285Y-26299523D01*
X174511809Y-26251904D01*
X174368952Y-26251904D01*
X174178476Y-26299523D01*
X174083238Y-26347142D01*
X173988000Y-26442380D01*
X173940380Y-26585238D01*
X173940380Y-26680476D01*
X173988000Y-26823333D01*
X174035619Y-26870952D01*
X174035619Y-27251904D02*
X173988000Y-27299523D01*
X173940380Y-27394761D01*
X173940380Y-27632857D01*
X173988000Y-27728095D01*
X174035619Y-27775714D01*
X174130857Y-27823333D01*
X174226095Y-27823333D01*
X174368952Y-27775714D01*
X174940380Y-27204285D01*
X174940380Y-27823333D01*
X173940380Y-28680476D02*
X173940380Y-28490000D01*
X173988000Y-28394761D01*
X174035619Y-28347142D01*
X174178476Y-28251904D01*
X174368952Y-28204285D01*
X174749904Y-28204285D01*
X174845142Y-28251904D01*
X174892761Y-28299523D01*
X174940380Y-28394761D01*
X174940380Y-28585238D01*
X174892761Y-28680476D01*
X174845142Y-28728095D01*
X174749904Y-28775714D01*
X174511809Y-28775714D01*
X174416571Y-28728095D01*
X174368952Y-28680476D01*
X174321333Y-28585238D01*
X174321333Y-28394761D01*
X174368952Y-28299523D01*
X174416571Y-28251904D01*
X174511809Y-28204285D01*
X174035619Y-29156666D02*
X173988000Y-29204285D01*
X173940380Y-29299523D01*
X173940380Y-29537619D01*
X173988000Y-29632857D01*
X174035619Y-29680476D01*
X174130857Y-29728095D01*
X174226095Y-29728095D01*
X174368952Y-29680476D01*
X174940380Y-29109047D01*
X174940380Y-29728095D01*
X167733142Y-26870952D02*
X167780761Y-26823333D01*
X167828380Y-26680476D01*
X167828380Y-26585238D01*
X167780761Y-26442380D01*
X167685523Y-26347142D01*
X167590285Y-26299523D01*
X167399809Y-26251904D01*
X167256952Y-26251904D01*
X167066476Y-26299523D01*
X166971238Y-26347142D01*
X166876000Y-26442380D01*
X166828380Y-26585238D01*
X166828380Y-26680476D01*
X166876000Y-26823333D01*
X166923619Y-26870952D01*
X166923619Y-27251904D02*
X166876000Y-27299523D01*
X166828380Y-27394761D01*
X166828380Y-27632857D01*
X166876000Y-27728095D01*
X166923619Y-27775714D01*
X167018857Y-27823333D01*
X167114095Y-27823333D01*
X167256952Y-27775714D01*
X167828380Y-27204285D01*
X167828380Y-27823333D01*
X166828380Y-28728095D02*
X166828380Y-28251904D01*
X167304571Y-28204285D01*
X167256952Y-28251904D01*
X167209333Y-28347142D01*
X167209333Y-28585238D01*
X167256952Y-28680476D01*
X167304571Y-28728095D01*
X167399809Y-28775714D01*
X167637904Y-28775714D01*
X167733142Y-28728095D01*
X167780761Y-28680476D01*
X167828380Y-28585238D01*
X167828380Y-28347142D01*
X167780761Y-28251904D01*
X167733142Y-28204285D01*
X167256952Y-29347142D02*
X167209333Y-29251904D01*
X167161714Y-29204285D01*
X167066476Y-29156666D01*
X167018857Y-29156666D01*
X166923619Y-29204285D01*
X166876000Y-29251904D01*
X166828380Y-29347142D01*
X166828380Y-29537619D01*
X166876000Y-29632857D01*
X166923619Y-29680476D01*
X167018857Y-29728095D01*
X167066476Y-29728095D01*
X167161714Y-29680476D01*
X167209333Y-29632857D01*
X167256952Y-29537619D01*
X167256952Y-29347142D01*
X167304571Y-29251904D01*
X167352190Y-29204285D01*
X167447428Y-29156666D01*
X167637904Y-29156666D01*
X167733142Y-29204285D01*
X167780761Y-29251904D01*
X167828380Y-29347142D01*
X167828380Y-29537619D01*
X167780761Y-29632857D01*
X167733142Y-29680476D01*
X167637904Y-29728095D01*
X167447428Y-29728095D01*
X167352190Y-29680476D01*
X167304571Y-29632857D01*
X167256952Y-29537619D01*
X89742857Y-67457142D02*
X89790476Y-67504761D01*
X89933333Y-67552380D01*
X90028571Y-67552380D01*
X90171428Y-67504761D01*
X90266666Y-67409523D01*
X90314285Y-67314285D01*
X90361904Y-67123809D01*
X90361904Y-66980952D01*
X90314285Y-66790476D01*
X90266666Y-66695238D01*
X90171428Y-66600000D01*
X90028571Y-66552380D01*
X89933333Y-66552380D01*
X89790476Y-66600000D01*
X89742857Y-66647619D01*
X89171428Y-66980952D02*
X89266666Y-66933333D01*
X89314285Y-66885714D01*
X89361904Y-66790476D01*
X89361904Y-66742857D01*
X89314285Y-66647619D01*
X89266666Y-66600000D01*
X89171428Y-66552380D01*
X88980952Y-66552380D01*
X88885714Y-66600000D01*
X88838095Y-66647619D01*
X88790476Y-66742857D01*
X88790476Y-66790476D01*
X88838095Y-66885714D01*
X88885714Y-66933333D01*
X88980952Y-66980952D01*
X89171428Y-66980952D01*
X89266666Y-67028571D01*
X89314285Y-67076190D01*
X89361904Y-67171428D01*
X89361904Y-67361904D01*
X89314285Y-67457142D01*
X89266666Y-67504761D01*
X89171428Y-67552380D01*
X88980952Y-67552380D01*
X88885714Y-67504761D01*
X88838095Y-67457142D01*
X88790476Y-67361904D01*
X88790476Y-67171428D01*
X88838095Y-67076190D01*
X88885714Y-67028571D01*
X88980952Y-66980952D01*
X87933333Y-66885714D02*
X87933333Y-67552380D01*
X88171428Y-66504761D02*
X88409523Y-67219047D01*
X87790476Y-67219047D01*
X89742857Y-74707142D02*
X89790476Y-74754761D01*
X89933333Y-74802380D01*
X90028571Y-74802380D01*
X90171428Y-74754761D01*
X90266666Y-74659523D01*
X90314285Y-74564285D01*
X90361904Y-74373809D01*
X90361904Y-74230952D01*
X90314285Y-74040476D01*
X90266666Y-73945238D01*
X90171428Y-73850000D01*
X90028571Y-73802380D01*
X89933333Y-73802380D01*
X89790476Y-73850000D01*
X89742857Y-73897619D01*
X89171428Y-74230952D02*
X89266666Y-74183333D01*
X89314285Y-74135714D01*
X89361904Y-74040476D01*
X89361904Y-73992857D01*
X89314285Y-73897619D01*
X89266666Y-73850000D01*
X89171428Y-73802380D01*
X88980952Y-73802380D01*
X88885714Y-73850000D01*
X88838095Y-73897619D01*
X88790476Y-73992857D01*
X88790476Y-74040476D01*
X88838095Y-74135714D01*
X88885714Y-74183333D01*
X88980952Y-74230952D01*
X89171428Y-74230952D01*
X89266666Y-74278571D01*
X89314285Y-74326190D01*
X89361904Y-74421428D01*
X89361904Y-74611904D01*
X89314285Y-74707142D01*
X89266666Y-74754761D01*
X89171428Y-74802380D01*
X88980952Y-74802380D01*
X88885714Y-74754761D01*
X88838095Y-74707142D01*
X88790476Y-74611904D01*
X88790476Y-74421428D01*
X88838095Y-74326190D01*
X88885714Y-74278571D01*
X88980952Y-74230952D01*
X87838095Y-74802380D02*
X88409523Y-74802380D01*
X88123809Y-74802380D02*
X88123809Y-73802380D01*
X88219047Y-73945238D01*
X88314285Y-74040476D01*
X88409523Y-74088095D01*
X89742857Y-81957142D02*
X89790476Y-82004761D01*
X89933333Y-82052380D01*
X90028571Y-82052380D01*
X90171428Y-82004761D01*
X90266666Y-81909523D01*
X90314285Y-81814285D01*
X90361904Y-81623809D01*
X90361904Y-81480952D01*
X90314285Y-81290476D01*
X90266666Y-81195238D01*
X90171428Y-81100000D01*
X90028571Y-81052380D01*
X89933333Y-81052380D01*
X89790476Y-81100000D01*
X89742857Y-81147619D01*
X89409523Y-81052380D02*
X88742857Y-81052380D01*
X89171428Y-82052380D01*
X88314285Y-82052380D02*
X88123809Y-82052380D01*
X88028571Y-82004761D01*
X87980952Y-81957142D01*
X87885714Y-81814285D01*
X87838095Y-81623809D01*
X87838095Y-81242857D01*
X87885714Y-81147619D01*
X87933333Y-81100000D01*
X88028571Y-81052380D01*
X88219047Y-81052380D01*
X88314285Y-81100000D01*
X88361904Y-81147619D01*
X88409523Y-81242857D01*
X88409523Y-81480952D01*
X88361904Y-81576190D01*
X88314285Y-81623809D01*
X88219047Y-81671428D01*
X88028571Y-81671428D01*
X87933333Y-81623809D01*
X87885714Y-81576190D01*
X87838095Y-81480952D01*
X77464285Y-21637380D02*
X77464285Y-22446904D01*
X77416666Y-22542142D01*
X77369047Y-22589761D01*
X77273809Y-22637380D01*
X77083333Y-22637380D01*
X76988095Y-22589761D01*
X76940476Y-22542142D01*
X76892857Y-22446904D01*
X76892857Y-21637380D01*
X76464285Y-21732619D02*
X76416666Y-21685000D01*
X76321428Y-21637380D01*
X76083333Y-21637380D01*
X75988095Y-21685000D01*
X75940476Y-21732619D01*
X75892857Y-21827857D01*
X75892857Y-21923095D01*
X75940476Y-22065952D01*
X76511904Y-22637380D01*
X75892857Y-22637380D01*
X75273809Y-21637380D02*
X75178571Y-21637380D01*
X75083333Y-21685000D01*
X75035714Y-21732619D01*
X74988095Y-21827857D01*
X74940476Y-22018333D01*
X74940476Y-22256428D01*
X74988095Y-22446904D01*
X75035714Y-22542142D01*
X75083333Y-22589761D01*
X75178571Y-22637380D01*
X75273809Y-22637380D01*
X75369047Y-22589761D01*
X75416666Y-22542142D01*
X75464285Y-22446904D01*
X75511904Y-22256428D01*
X75511904Y-22018333D01*
X75464285Y-21827857D01*
X75416666Y-21732619D01*
X75369047Y-21685000D01*
X75273809Y-21637380D01*
X73988095Y-22637380D02*
X74559523Y-22637380D01*
X74273809Y-22637380D02*
X74273809Y-21637380D01*
X74369047Y-21780238D01*
X74464285Y-21875476D01*
X74559523Y-21923095D01*
X189164285Y-47002380D02*
X189164285Y-47811904D01*
X189116666Y-47907142D01*
X189069047Y-47954761D01*
X188973809Y-48002380D01*
X188783333Y-48002380D01*
X188688095Y-47954761D01*
X188640476Y-47907142D01*
X188592857Y-47811904D01*
X188592857Y-47002380D01*
X188164285Y-47097619D02*
X188116666Y-47050000D01*
X188021428Y-47002380D01*
X187783333Y-47002380D01*
X187688095Y-47050000D01*
X187640476Y-47097619D01*
X187592857Y-47192857D01*
X187592857Y-47288095D01*
X187640476Y-47430952D01*
X188211904Y-48002380D01*
X187592857Y-48002380D01*
X186973809Y-47002380D02*
X186878571Y-47002380D01*
X186783333Y-47050000D01*
X186735714Y-47097619D01*
X186688095Y-47192857D01*
X186640476Y-47383333D01*
X186640476Y-47621428D01*
X186688095Y-47811904D01*
X186735714Y-47907142D01*
X186783333Y-47954761D01*
X186878571Y-48002380D01*
X186973809Y-48002380D01*
X187069047Y-47954761D01*
X187116666Y-47907142D01*
X187164285Y-47811904D01*
X187211904Y-47621428D01*
X187211904Y-47383333D01*
X187164285Y-47192857D01*
X187116666Y-47097619D01*
X187069047Y-47050000D01*
X186973809Y-47002380D01*
X186307142Y-47002380D02*
X185640476Y-47002380D01*
X186069047Y-48002380D01*
X91932380Y-25985714D02*
X92741904Y-25985714D01*
X92837142Y-26033333D01*
X92884761Y-26080952D01*
X92932380Y-26176190D01*
X92932380Y-26366666D01*
X92884761Y-26461904D01*
X92837142Y-26509523D01*
X92741904Y-26557142D01*
X91932380Y-26557142D01*
X92027619Y-26985714D02*
X91980000Y-27033333D01*
X91932380Y-27128571D01*
X91932380Y-27366666D01*
X91980000Y-27461904D01*
X92027619Y-27509523D01*
X92122857Y-27557142D01*
X92218095Y-27557142D01*
X92360952Y-27509523D01*
X92932380Y-26938095D01*
X92932380Y-27557142D01*
X91932380Y-28176190D02*
X91932380Y-28271428D01*
X91980000Y-28366666D01*
X92027619Y-28414285D01*
X92122857Y-28461904D01*
X92313333Y-28509523D01*
X92551428Y-28509523D01*
X92741904Y-28461904D01*
X92837142Y-28414285D01*
X92884761Y-28366666D01*
X92932380Y-28271428D01*
X92932380Y-28176190D01*
X92884761Y-28080952D01*
X92837142Y-28033333D01*
X92741904Y-27985714D01*
X92551428Y-27938095D01*
X92313333Y-27938095D01*
X92122857Y-27985714D01*
X92027619Y-28033333D01*
X91980000Y-28080952D01*
X91932380Y-28176190D01*
X91932380Y-29414285D02*
X91932380Y-28938095D01*
X92408571Y-28890476D01*
X92360952Y-28938095D01*
X92313333Y-29033333D01*
X92313333Y-29271428D01*
X92360952Y-29366666D01*
X92408571Y-29414285D01*
X92503809Y-29461904D01*
X92741904Y-29461904D01*
X92837142Y-29414285D01*
X92884761Y-29366666D01*
X92932380Y-29271428D01*
X92932380Y-29033333D01*
X92884761Y-28938095D01*
X92837142Y-28890476D01*
X52732380Y-53385714D02*
X53541904Y-53385714D01*
X53637142Y-53433333D01*
X53684761Y-53480952D01*
X53732380Y-53576190D01*
X53732380Y-53766666D01*
X53684761Y-53861904D01*
X53637142Y-53909523D01*
X53541904Y-53957142D01*
X52732380Y-53957142D01*
X52827619Y-54385714D02*
X52780000Y-54433333D01*
X52732380Y-54528571D01*
X52732380Y-54766666D01*
X52780000Y-54861904D01*
X52827619Y-54909523D01*
X52922857Y-54957142D01*
X53018095Y-54957142D01*
X53160952Y-54909523D01*
X53732380Y-54338095D01*
X53732380Y-54957142D01*
X52732380Y-55576190D02*
X52732380Y-55671428D01*
X52780000Y-55766666D01*
X52827619Y-55814285D01*
X52922857Y-55861904D01*
X53113333Y-55909523D01*
X53351428Y-55909523D01*
X53541904Y-55861904D01*
X53637142Y-55814285D01*
X53684761Y-55766666D01*
X53732380Y-55671428D01*
X53732380Y-55576190D01*
X53684761Y-55480952D01*
X53637142Y-55433333D01*
X53541904Y-55385714D01*
X53351428Y-55338095D01*
X53113333Y-55338095D01*
X52922857Y-55385714D01*
X52827619Y-55433333D01*
X52780000Y-55480952D01*
X52732380Y-55576190D01*
X52827619Y-56290476D02*
X52780000Y-56338095D01*
X52732380Y-56433333D01*
X52732380Y-56671428D01*
X52780000Y-56766666D01*
X52827619Y-56814285D01*
X52922857Y-56861904D01*
X53018095Y-56861904D01*
X53160952Y-56814285D01*
X53732380Y-56242857D01*
X53732380Y-56861904D01*
X87552380Y-64738095D02*
X88361904Y-64738095D01*
X88457142Y-64785714D01*
X88504761Y-64833333D01*
X88552380Y-64928571D01*
X88552380Y-65119047D01*
X88504761Y-65214285D01*
X88457142Y-65261904D01*
X88361904Y-65309523D01*
X87552380Y-65309523D01*
X87552380Y-66261904D02*
X87552380Y-65785714D01*
X88028571Y-65738095D01*
X87980952Y-65785714D01*
X87933333Y-65880952D01*
X87933333Y-66119047D01*
X87980952Y-66214285D01*
X88028571Y-66261904D01*
X88123809Y-66309523D01*
X88361904Y-66309523D01*
X88457142Y-66261904D01*
X88504761Y-66214285D01*
X88552380Y-66119047D01*
X88552380Y-65880952D01*
X88504761Y-65785714D01*
X88457142Y-65738095D01*
X89292857Y-60902380D02*
X89626190Y-60426190D01*
X89864285Y-60902380D02*
X89864285Y-59902380D01*
X89483333Y-59902380D01*
X89388095Y-59950000D01*
X89340476Y-59997619D01*
X89292857Y-60092857D01*
X89292857Y-60235714D01*
X89340476Y-60330952D01*
X89388095Y-60378571D01*
X89483333Y-60426190D01*
X89864285Y-60426190D01*
X88340476Y-60902380D02*
X88911904Y-60902380D01*
X88626190Y-60902380D02*
X88626190Y-59902380D01*
X88721428Y-60045238D01*
X88816666Y-60140476D01*
X88911904Y-60188095D01*
X88007142Y-59902380D02*
X87340476Y-59902380D01*
X87769047Y-60902380D01*
X57636095Y-39705380D02*
X57064666Y-39705380D01*
X57350380Y-40705380D02*
X57350380Y-39705380D01*
X56731333Y-40705380D02*
X56731333Y-39705380D01*
X56350380Y-39705380D01*
X56255142Y-39753000D01*
X56207523Y-39800619D01*
X56159904Y-39895857D01*
X56159904Y-40038714D01*
X56207523Y-40133952D01*
X56255142Y-40181571D01*
X56350380Y-40229190D01*
X56731333Y-40229190D01*
X55207523Y-40705380D02*
X55778952Y-40705380D01*
X55493238Y-40705380D02*
X55493238Y-39705380D01*
X55588476Y-39848238D01*
X55683714Y-39943476D01*
X55778952Y-39991095D01*
X54874190Y-39705380D02*
X54207523Y-39705380D01*
X54636095Y-40705380D01*
X55985095Y-38359180D02*
X55413666Y-38359180D01*
X55699380Y-39359180D02*
X55699380Y-38359180D01*
X55080333Y-39359180D02*
X55080333Y-38359180D01*
X54699380Y-38359180D01*
X54604142Y-38406800D01*
X54556523Y-38454419D01*
X54508904Y-38549657D01*
X54508904Y-38692514D01*
X54556523Y-38787752D01*
X54604142Y-38835371D01*
X54699380Y-38882990D01*
X55080333Y-38882990D01*
X53556523Y-39359180D02*
X54127952Y-39359180D01*
X53842238Y-39359180D02*
X53842238Y-38359180D01*
X53937476Y-38502038D01*
X54032714Y-38597276D01*
X54127952Y-38644895D01*
X52699380Y-38359180D02*
X52889857Y-38359180D01*
X52985095Y-38406800D01*
X53032714Y-38454419D01*
X53127952Y-38597276D01*
X53175571Y-38787752D01*
X53175571Y-39168704D01*
X53127952Y-39263942D01*
X53080333Y-39311561D01*
X52985095Y-39359180D01*
X52794619Y-39359180D01*
X52699380Y-39311561D01*
X52651761Y-39263942D01*
X52604142Y-39168704D01*
X52604142Y-38930609D01*
X52651761Y-38835371D01*
X52699380Y-38787752D01*
X52794619Y-38740133D01*
X52985095Y-38740133D01*
X53080333Y-38787752D01*
X53127952Y-38835371D01*
X53175571Y-38930609D01*
X54855104Y-41686580D02*
X54283676Y-41686580D01*
X54569390Y-42686580D02*
X54569390Y-41686580D01*
X53950342Y-42686580D02*
X53950342Y-41686580D01*
X53569390Y-41686580D01*
X53474152Y-41734200D01*
X53426533Y-41781819D01*
X53378914Y-41877057D01*
X53378914Y-42019914D01*
X53426533Y-42115152D01*
X53474152Y-42162771D01*
X53569390Y-42210390D01*
X53950342Y-42210390D01*
X52426533Y-42686580D02*
X52997961Y-42686580D01*
X52712247Y-42686580D02*
X52712247Y-41686580D01*
X52807485Y-41829438D01*
X52902723Y-41924676D01*
X52997961Y-41972295D01*
X82485714Y-73379761D02*
X82342857Y-73427380D01*
X82104761Y-73427380D01*
X82009523Y-73379761D01*
X81961904Y-73332142D01*
X81914285Y-73236904D01*
X81914285Y-73141666D01*
X81961904Y-73046428D01*
X82009523Y-72998809D01*
X82104761Y-72951190D01*
X82295238Y-72903571D01*
X82390476Y-72855952D01*
X82438095Y-72808333D01*
X82485714Y-72713095D01*
X82485714Y-72617857D01*
X82438095Y-72522619D01*
X82390476Y-72475000D01*
X82295238Y-72427380D01*
X82057142Y-72427380D01*
X81914285Y-72475000D01*
X81580952Y-72427380D02*
X81342857Y-73427380D01*
X81152380Y-72713095D01*
X80961904Y-73427380D01*
X80723809Y-72427380D01*
X80390476Y-72522619D02*
X80342857Y-72475000D01*
X80247619Y-72427380D01*
X80009523Y-72427380D01*
X79914285Y-72475000D01*
X79866666Y-72522619D01*
X79819047Y-72617857D01*
X79819047Y-72713095D01*
X79866666Y-72855952D01*
X80438095Y-73427380D01*
X79819047Y-73427380D01*
X79200000Y-72427380D02*
X79104761Y-72427380D01*
X79009523Y-72475000D01*
X78961904Y-72522619D01*
X78914285Y-72617857D01*
X78866666Y-72808333D01*
X78866666Y-73046428D01*
X78914285Y-73236904D01*
X78961904Y-73332142D01*
X79009523Y-73379761D01*
X79104761Y-73427380D01*
X79200000Y-73427380D01*
X79295238Y-73379761D01*
X79342857Y-73332142D01*
X79390476Y-73236904D01*
X79438095Y-73046428D01*
X79438095Y-72808333D01*
X79390476Y-72617857D01*
X79342857Y-72522619D01*
X79295238Y-72475000D01*
X79200000Y-72427380D01*
X77914285Y-73427380D02*
X78485714Y-73427380D01*
X78200000Y-73427380D02*
X78200000Y-72427380D01*
X78295238Y-72570238D01*
X78390476Y-72665476D01*
X78485714Y-72713095D01*
X172152380Y-36314285D02*
X172866666Y-36314285D01*
X173009523Y-36266666D01*
X173104761Y-36171428D01*
X173152380Y-36028571D01*
X173152380Y-35933333D01*
X172247619Y-36742857D02*
X172200000Y-36790476D01*
X172152380Y-36885714D01*
X172152380Y-37123809D01*
X172200000Y-37219047D01*
X172247619Y-37266666D01*
X172342857Y-37314285D01*
X172438095Y-37314285D01*
X172580952Y-37266666D01*
X173152380Y-36695238D01*
X173152380Y-37314285D01*
X172152380Y-37933333D02*
X172152380Y-38028571D01*
X172200000Y-38123809D01*
X172247619Y-38171428D01*
X172342857Y-38219047D01*
X172533333Y-38266666D01*
X172771428Y-38266666D01*
X172961904Y-38219047D01*
X173057142Y-38171428D01*
X173104761Y-38123809D01*
X173152380Y-38028571D01*
X173152380Y-37933333D01*
X173104761Y-37838095D01*
X173057142Y-37790476D01*
X172961904Y-37742857D01*
X172771428Y-37695238D01*
X172533333Y-37695238D01*
X172342857Y-37742857D01*
X172247619Y-37790476D01*
X172200000Y-37838095D01*
X172152380Y-37933333D01*
X172152380Y-38600000D02*
X172152380Y-39266666D01*
X173152380Y-38838095D01*
X197902380Y-36364285D02*
X198616666Y-36364285D01*
X198759523Y-36316666D01*
X198854761Y-36221428D01*
X198902380Y-36078571D01*
X198902380Y-35983333D01*
X197997619Y-36792857D02*
X197950000Y-36840476D01*
X197902380Y-36935714D01*
X197902380Y-37173809D01*
X197950000Y-37269047D01*
X197997619Y-37316666D01*
X198092857Y-37364285D01*
X198188095Y-37364285D01*
X198330952Y-37316666D01*
X198902380Y-36745238D01*
X198902380Y-37364285D01*
X197902380Y-37983333D02*
X197902380Y-38078571D01*
X197950000Y-38173809D01*
X197997619Y-38221428D01*
X198092857Y-38269047D01*
X198283333Y-38316666D01*
X198521428Y-38316666D01*
X198711904Y-38269047D01*
X198807142Y-38221428D01*
X198854761Y-38173809D01*
X198902380Y-38078571D01*
X198902380Y-37983333D01*
X198854761Y-37888095D01*
X198807142Y-37840476D01*
X198711904Y-37792857D01*
X198521428Y-37745238D01*
X198283333Y-37745238D01*
X198092857Y-37792857D01*
X197997619Y-37840476D01*
X197950000Y-37888095D01*
X197902380Y-37983333D01*
X197902380Y-39173809D02*
X197902380Y-38983333D01*
X197950000Y-38888095D01*
X197997619Y-38840476D01*
X198140476Y-38745238D01*
X198330952Y-38697619D01*
X198711904Y-38697619D01*
X198807142Y-38745238D01*
X198854761Y-38792857D01*
X198902380Y-38888095D01*
X198902380Y-39078571D01*
X198854761Y-39173809D01*
X198807142Y-39221428D01*
X198711904Y-39269047D01*
X198473809Y-39269047D01*
X198378571Y-39221428D01*
X198330952Y-39173809D01*
X198283333Y-39078571D01*
X198283333Y-38888095D01*
X198330952Y-38792857D01*
X198378571Y-38745238D01*
X198473809Y-38697619D01*
X176595238Y-32885714D02*
X176633333Y-32923809D01*
X176747619Y-32961904D01*
X176823809Y-32961904D01*
X176938095Y-32923809D01*
X177014285Y-32847619D01*
X177052380Y-32771428D01*
X177090476Y-32619047D01*
X177090476Y-32504761D01*
X177052380Y-32352380D01*
X177014285Y-32276190D01*
X176938095Y-32200000D01*
X176823809Y-32161904D01*
X176747619Y-32161904D01*
X176633333Y-32200000D01*
X176595238Y-32238095D01*
X176290476Y-32238095D02*
X176252380Y-32200000D01*
X176176190Y-32161904D01*
X175985714Y-32161904D01*
X175909523Y-32200000D01*
X175871428Y-32238095D01*
X175833333Y-32314285D01*
X175833333Y-32390476D01*
X175871428Y-32504761D01*
X176328571Y-32961904D01*
X175833333Y-32961904D01*
X175109523Y-32161904D02*
X175490476Y-32161904D01*
X175528571Y-32542857D01*
X175490476Y-32504761D01*
X175414285Y-32466666D01*
X175223809Y-32466666D01*
X175147619Y-32504761D01*
X175109523Y-32542857D01*
X175071428Y-32619047D01*
X175071428Y-32809523D01*
X175109523Y-32885714D01*
X175147619Y-32923809D01*
X175223809Y-32961904D01*
X175414285Y-32961904D01*
X175490476Y-32923809D01*
X175528571Y-32885714D01*
X174804761Y-32161904D02*
X174271428Y-32161904D01*
X174614285Y-32961904D01*
X188345238Y-23885714D02*
X188383333Y-23923809D01*
X188497619Y-23961904D01*
X188573809Y-23961904D01*
X188688095Y-23923809D01*
X188764285Y-23847619D01*
X188802380Y-23771428D01*
X188840476Y-23619047D01*
X188840476Y-23504761D01*
X188802380Y-23352380D01*
X188764285Y-23276190D01*
X188688095Y-23200000D01*
X188573809Y-23161904D01*
X188497619Y-23161904D01*
X188383333Y-23200000D01*
X188345238Y-23238095D01*
X188040476Y-23238095D02*
X188002380Y-23200000D01*
X187926190Y-23161904D01*
X187735714Y-23161904D01*
X187659523Y-23200000D01*
X187621428Y-23238095D01*
X187583333Y-23314285D01*
X187583333Y-23390476D01*
X187621428Y-23504761D01*
X188078571Y-23961904D01*
X187583333Y-23961904D01*
X186859523Y-23161904D02*
X187240476Y-23161904D01*
X187278571Y-23542857D01*
X187240476Y-23504761D01*
X187164285Y-23466666D01*
X186973809Y-23466666D01*
X186897619Y-23504761D01*
X186859523Y-23542857D01*
X186821428Y-23619047D01*
X186821428Y-23809523D01*
X186859523Y-23885714D01*
X186897619Y-23923809D01*
X186973809Y-23961904D01*
X187164285Y-23961904D01*
X187240476Y-23923809D01*
X187278571Y-23885714D01*
X186097619Y-23161904D02*
X186478571Y-23161904D01*
X186516666Y-23542857D01*
X186478571Y-23504761D01*
X186402380Y-23466666D01*
X186211904Y-23466666D01*
X186135714Y-23504761D01*
X186097619Y-23542857D01*
X186059523Y-23619047D01*
X186059523Y-23809523D01*
X186097619Y-23885714D01*
X186135714Y-23923809D01*
X186211904Y-23961904D01*
X186402380Y-23961904D01*
X186478571Y-23923809D01*
X186516666Y-23885714D01*
X194845238Y-32835714D02*
X194883333Y-32873809D01*
X194997619Y-32911904D01*
X195073809Y-32911904D01*
X195188095Y-32873809D01*
X195264285Y-32797619D01*
X195302380Y-32721428D01*
X195340476Y-32569047D01*
X195340476Y-32454761D01*
X195302380Y-32302380D01*
X195264285Y-32226190D01*
X195188095Y-32150000D01*
X195073809Y-32111904D01*
X194997619Y-32111904D01*
X194883333Y-32150000D01*
X194845238Y-32188095D01*
X194540476Y-32188095D02*
X194502380Y-32150000D01*
X194426190Y-32111904D01*
X194235714Y-32111904D01*
X194159523Y-32150000D01*
X194121428Y-32188095D01*
X194083333Y-32264285D01*
X194083333Y-32340476D01*
X194121428Y-32454761D01*
X194578571Y-32911904D01*
X194083333Y-32911904D01*
X193359523Y-32111904D02*
X193740476Y-32111904D01*
X193778571Y-32492857D01*
X193740476Y-32454761D01*
X193664285Y-32416666D01*
X193473809Y-32416666D01*
X193397619Y-32454761D01*
X193359523Y-32492857D01*
X193321428Y-32569047D01*
X193321428Y-32759523D01*
X193359523Y-32835714D01*
X193397619Y-32873809D01*
X193473809Y-32911904D01*
X193664285Y-32911904D01*
X193740476Y-32873809D01*
X193778571Y-32835714D01*
X192635714Y-32378571D02*
X192635714Y-32911904D01*
X192826190Y-32073809D02*
X193016666Y-32645238D01*
X192521428Y-32645238D01*
X183095238Y-32635714D02*
X183133333Y-32673809D01*
X183247619Y-32711904D01*
X183323809Y-32711904D01*
X183438095Y-32673809D01*
X183514285Y-32597619D01*
X183552380Y-32521428D01*
X183590476Y-32369047D01*
X183590476Y-32254761D01*
X183552380Y-32102380D01*
X183514285Y-32026190D01*
X183438095Y-31950000D01*
X183323809Y-31911904D01*
X183247619Y-31911904D01*
X183133333Y-31950000D01*
X183095238Y-31988095D01*
X182790476Y-31988095D02*
X182752380Y-31950000D01*
X182676190Y-31911904D01*
X182485714Y-31911904D01*
X182409523Y-31950000D01*
X182371428Y-31988095D01*
X182333333Y-32064285D01*
X182333333Y-32140476D01*
X182371428Y-32254761D01*
X182828571Y-32711904D01*
X182333333Y-32711904D01*
X181609523Y-31911904D02*
X181990476Y-31911904D01*
X182028571Y-32292857D01*
X181990476Y-32254761D01*
X181914285Y-32216666D01*
X181723809Y-32216666D01*
X181647619Y-32254761D01*
X181609523Y-32292857D01*
X181571428Y-32369047D01*
X181571428Y-32559523D01*
X181609523Y-32635714D01*
X181647619Y-32673809D01*
X181723809Y-32711904D01*
X181914285Y-32711904D01*
X181990476Y-32673809D01*
X182028571Y-32635714D01*
X181304761Y-31911904D02*
X180809523Y-31911904D01*
X181076190Y-32216666D01*
X180961904Y-32216666D01*
X180885714Y-32254761D01*
X180847619Y-32292857D01*
X180809523Y-32369047D01*
X180809523Y-32559523D01*
X180847619Y-32635714D01*
X180885714Y-32673809D01*
X180961904Y-32711904D01*
X181190476Y-32711904D01*
X181266666Y-32673809D01*
X181304761Y-32635714D01*
X200345238Y-32835714D02*
X200383333Y-32873809D01*
X200497619Y-32911904D01*
X200573809Y-32911904D01*
X200688095Y-32873809D01*
X200764285Y-32797619D01*
X200802380Y-32721428D01*
X200840476Y-32569047D01*
X200840476Y-32454761D01*
X200802380Y-32302380D01*
X200764285Y-32226190D01*
X200688095Y-32150000D01*
X200573809Y-32111904D01*
X200497619Y-32111904D01*
X200383333Y-32150000D01*
X200345238Y-32188095D01*
X200040476Y-32188095D02*
X200002380Y-32150000D01*
X199926190Y-32111904D01*
X199735714Y-32111904D01*
X199659523Y-32150000D01*
X199621428Y-32188095D01*
X199583333Y-32264285D01*
X199583333Y-32340476D01*
X199621428Y-32454761D01*
X200078571Y-32911904D01*
X199583333Y-32911904D01*
X198859523Y-32111904D02*
X199240476Y-32111904D01*
X199278571Y-32492857D01*
X199240476Y-32454761D01*
X199164285Y-32416666D01*
X198973809Y-32416666D01*
X198897619Y-32454761D01*
X198859523Y-32492857D01*
X198821428Y-32569047D01*
X198821428Y-32759523D01*
X198859523Y-32835714D01*
X198897619Y-32873809D01*
X198973809Y-32911904D01*
X199164285Y-32911904D01*
X199240476Y-32873809D01*
X199278571Y-32835714D01*
X198059523Y-32911904D02*
X198516666Y-32911904D01*
X198288095Y-32911904D02*
X198288095Y-32111904D01*
X198364285Y-32226190D01*
X198440476Y-32302380D01*
X198516666Y-32340476D01*
M02*
