%TF.GenerationSoftware,KiCad,Pcbnew,5.1.9*%
%TF.CreationDate,2021-03-31T15:24:56+02:00*%
%TF.ProjectId,OTTO-Beta-Front,4f54544f-2d42-4657-9461-2d46726f6e74,rev?*%
%TF.SameCoordinates,Original*%
%TF.FileFunction,Profile,NP*%
%FSLAX46Y46*%
G04 Gerber Fmt 4.6, Leading zero omitted, Abs format (unit mm)*
G04 Created by KiCad (PCBNEW 5.1.9) date 2021-03-31 15:24:56*
%MOMM*%
%LPD*%
G01*
G04 APERTURE LIST*
%TA.AperFunction,Profile*%
%ADD10C,0.150000*%
%TD*%
G04 APERTURE END LIST*
D10*
X307670000Y-8300000D02*
G75*
G02*
X308470000Y-9100000I0J-800000D01*
G01*
X308470000Y-109800000D02*
G75*
G02*
X307670000Y-110600000I-800000J0D01*
G01*
X14730000Y-110600000D02*
G75*
G02*
X13930000Y-109800000I0J800000D01*
G01*
X13930000Y-9100000D02*
G75*
G02*
X14730000Y-8300000I800000J0D01*
G01*
X307670000Y-8300000D02*
X14730000Y-8300000D01*
X13930000Y-9100000D02*
X13930000Y-109800000D01*
X308470000Y-109800000D02*
X308470000Y-9100000D01*
X14730000Y-110600000D02*
X307670000Y-110600000D01*
X1666666Y-145000000D02*
G75*
G03*
X1666666Y-145000000I-1666666J0D01*
G01*
X-2500000Y-145000000D02*
X2500000Y-145000000D01*
X0Y-142500000D02*
X0Y-147500000D01*
X200340000Y-60950000D02*
G75*
G02*
X199590000Y-61700000I-750000J0D01*
G01*
X142991041Y-61700000D02*
G75*
G02*
X142241041Y-60950000I0J750000D01*
G01*
X142240000Y-18750000D02*
G75*
G02*
X142990000Y-18000000I750000J0D01*
G01*
X199590000Y-18000000D02*
G75*
G02*
X200340000Y-18750000I0J-750000D01*
G01*
X142990000Y-18000000D02*
X199590000Y-18000000D01*
X142991041Y-61700000D02*
X199590000Y-61700000D01*
X142240000Y-18750000D02*
X142241041Y-60950000D01*
X200340000Y-18750000D02*
X200340000Y-60950000D01*
X1666666Y-114300000D02*
G75*
G03*
X1666666Y-114300000I-1666666J0D01*
G01*
X-2500000Y-114300000D02*
X2500000Y-114300000D01*
X0Y-111800000D02*
X0Y-116800000D01*
X331866666Y0D02*
G75*
G03*
X331866666Y0I-1666666J0D01*
G01*
X327700000Y0D02*
X332700000Y0D01*
X330200000Y2500000D02*
X330200000Y-2500000D01*
M02*
