%TF.GenerationSoftware,KiCad,Pcbnew,5.1.6*%
%TF.CreationDate,2020-11-05T19:36:39+01:00*%
%TF.ProjectId,OTTO_FrontPanel_SMD,4f54544f-5f46-4726-9f6e-7450616e656c,rev?*%
%TF.SameCoordinates,Original*%
%TF.FileFunction,Legend,Bot*%
%TF.FilePolarity,Positive*%
%FSLAX46Y46*%
G04 Gerber Fmt 4.6, Leading zero omitted, Abs format (unit mm)*
G04 Created by KiCad (PCBNEW 5.1.6) date 2020-11-05 19:36:39*
%MOMM*%
%LPD*%
G01*
G04 APERTURE LIST*
%ADD10C,0.250000*%
%ADD11C,0.150000*%
G04 APERTURE END LIST*
D10*
X81733600Y-106590228D02*
X81257409Y-107923561D01*
X80781219Y-106590228D01*
X79638361Y-105923561D02*
X79447885Y-105923561D01*
X79257409Y-106018800D01*
X79162171Y-106114038D01*
X79066933Y-106304514D01*
X78971695Y-106685466D01*
X78971695Y-107161657D01*
X79066933Y-107542609D01*
X79162171Y-107733085D01*
X79257409Y-107828323D01*
X79447885Y-107923561D01*
X79638361Y-107923561D01*
X79828838Y-107828323D01*
X79924076Y-107733085D01*
X80019314Y-107542609D01*
X80114552Y-107161657D01*
X80114552Y-106685466D01*
X80019314Y-106304514D01*
X79924076Y-106114038D01*
X79828838Y-106018800D01*
X79638361Y-105923561D01*
X78114552Y-107733085D02*
X78019314Y-107828323D01*
X78114552Y-107923561D01*
X78209790Y-107828323D01*
X78114552Y-107733085D01*
X78114552Y-107923561D01*
X77257409Y-106114038D02*
X77162171Y-106018800D01*
X76971695Y-105923561D01*
X76495504Y-105923561D01*
X76305028Y-106018800D01*
X76209790Y-106114038D01*
X76114552Y-106304514D01*
X76114552Y-106494990D01*
X76209790Y-106780704D01*
X77352647Y-107923561D01*
X76114552Y-107923561D01*
X75257409Y-107733085D02*
X75162171Y-107828323D01*
X75257409Y-107923561D01*
X75352647Y-107828323D01*
X75257409Y-107733085D01*
X75257409Y-107923561D01*
X73924076Y-105923561D02*
X73733600Y-105923561D01*
X73543123Y-106018800D01*
X73447885Y-106114038D01*
X73352647Y-106304514D01*
X73257409Y-106685466D01*
X73257409Y-107161657D01*
X73352647Y-107542609D01*
X73447885Y-107733085D01*
X73543123Y-107828323D01*
X73733600Y-107923561D01*
X73924076Y-107923561D01*
X74114552Y-107828323D01*
X74209790Y-107733085D01*
X74305028Y-107542609D01*
X74400266Y-107161657D01*
X74400266Y-106685466D01*
X74305028Y-106304514D01*
X74209790Y-106114038D01*
X74114552Y-106018800D01*
X73924076Y-105923561D01*
X70876457Y-107161657D02*
X69352647Y-107161657D01*
X65733600Y-107733085D02*
X65828838Y-107828323D01*
X66114552Y-107923561D01*
X66305028Y-107923561D01*
X66590742Y-107828323D01*
X66781219Y-107637847D01*
X66876457Y-107447371D01*
X66971695Y-107066419D01*
X66971695Y-106780704D01*
X66876457Y-106399752D01*
X66781219Y-106209276D01*
X66590742Y-106018800D01*
X66305028Y-105923561D01*
X66114552Y-105923561D01*
X65828838Y-106018800D01*
X65733600Y-106114038D01*
X64876457Y-105923561D02*
X64876457Y-107542609D01*
X64781219Y-107733085D01*
X64685980Y-107828323D01*
X64495504Y-107923561D01*
X64114552Y-107923561D01*
X63924076Y-107828323D01*
X63828838Y-107733085D01*
X63733600Y-107542609D01*
X63733600Y-105923561D01*
X62781219Y-107923561D02*
X62781219Y-105923561D01*
X62019314Y-105923561D01*
X61828838Y-106018800D01*
X61733600Y-106114038D01*
X61638361Y-106304514D01*
X61638361Y-106590228D01*
X61733600Y-106780704D01*
X61828838Y-106875942D01*
X62019314Y-106971180D01*
X62781219Y-106971180D01*
X60781219Y-107923561D02*
X60781219Y-105923561D01*
X60019314Y-105923561D01*
X59828838Y-106018800D01*
X59733600Y-106114038D01*
X59638361Y-106304514D01*
X59638361Y-106590228D01*
X59733600Y-106780704D01*
X59828838Y-106875942D01*
X60019314Y-106971180D01*
X60781219Y-106971180D01*
X58781219Y-106875942D02*
X58114552Y-106875942D01*
X57828838Y-107923561D02*
X58781219Y-107923561D01*
X58781219Y-105923561D01*
X57828838Y-105923561D01*
X55828838Y-107923561D02*
X56495504Y-106971180D01*
X56971695Y-107923561D02*
X56971695Y-105923561D01*
X56209790Y-105923561D01*
X56019314Y-106018800D01*
X55924076Y-106114038D01*
X55828838Y-106304514D01*
X55828838Y-106590228D01*
X55924076Y-106780704D01*
X56019314Y-106875942D01*
X56209790Y-106971180D01*
X56971695Y-106971180D01*
D11*
X185202647Y-108041180D02*
X185202647Y-108755466D01*
X185250266Y-108898323D01*
X185345504Y-108993561D01*
X185488361Y-109041180D01*
X185583600Y-109041180D01*
X184250266Y-109041180D02*
X184726457Y-109041180D01*
X184726457Y-108041180D01*
X183345504Y-108945942D02*
X183393123Y-108993561D01*
X183535980Y-109041180D01*
X183631219Y-109041180D01*
X183774076Y-108993561D01*
X183869314Y-108898323D01*
X183916933Y-108803085D01*
X183964552Y-108612609D01*
X183964552Y-108469752D01*
X183916933Y-108279276D01*
X183869314Y-108184038D01*
X183774076Y-108088800D01*
X183631219Y-108041180D01*
X183535980Y-108041180D01*
X183393123Y-108088800D01*
X183345504Y-108136419D01*
X182631219Y-108041180D02*
X182631219Y-108755466D01*
X182678838Y-108898323D01*
X182774076Y-108993561D01*
X182916933Y-109041180D01*
X183012171Y-109041180D01*
X181678838Y-109041180D02*
X182155028Y-109041180D01*
X182155028Y-108041180D01*
X180774076Y-108945942D02*
X180821695Y-108993561D01*
X180964552Y-109041180D01*
X181059790Y-109041180D01*
X181202647Y-108993561D01*
X181297885Y-108898323D01*
X181345504Y-108803085D01*
X181393123Y-108612609D01*
X181393123Y-108469752D01*
X181345504Y-108279276D01*
X181297885Y-108184038D01*
X181202647Y-108088800D01*
X181059790Y-108041180D01*
X180964552Y-108041180D01*
X180821695Y-108088800D01*
X180774076Y-108136419D01*
X180059790Y-108041180D02*
X180059790Y-108755466D01*
X180107409Y-108898323D01*
X180202647Y-108993561D01*
X180345504Y-109041180D01*
X180440742Y-109041180D01*
X179107409Y-109041180D02*
X179583600Y-109041180D01*
X179583600Y-108041180D01*
X178202647Y-108945942D02*
X178250266Y-108993561D01*
X178393123Y-109041180D01*
X178488361Y-109041180D01*
X178631219Y-108993561D01*
X178726457Y-108898323D01*
X178774076Y-108803085D01*
X178821695Y-108612609D01*
X178821695Y-108469752D01*
X178774076Y-108279276D01*
X178726457Y-108184038D01*
X178631219Y-108088800D01*
X178488361Y-108041180D01*
X178393123Y-108041180D01*
X178250266Y-108088800D01*
X178202647Y-108136419D01*
X177488361Y-108041180D02*
X177488361Y-108755466D01*
X177535980Y-108898323D01*
X177631219Y-108993561D01*
X177774076Y-109041180D01*
X177869314Y-109041180D01*
X176535980Y-109041180D02*
X177012171Y-109041180D01*
X177012171Y-108041180D01*
X175631219Y-108945942D02*
X175678838Y-108993561D01*
X175821695Y-109041180D01*
X175916933Y-109041180D01*
X176059790Y-108993561D01*
X176155028Y-108898323D01*
X176202647Y-108803085D01*
X176250266Y-108612609D01*
X176250266Y-108469752D01*
X176202647Y-108279276D01*
X176155028Y-108184038D01*
X176059790Y-108088800D01*
X175916933Y-108041180D01*
X175821695Y-108041180D01*
X175678838Y-108088800D01*
X175631219Y-108136419D01*
X291819047Y-105002380D02*
X291819047Y-105716666D01*
X291866666Y-105859523D01*
X291961904Y-105954761D01*
X292104761Y-106002380D01*
X292200000Y-106002380D01*
X290866666Y-106002380D02*
X291342857Y-106002380D01*
X291342857Y-105002380D01*
X289961904Y-105907142D02*
X290009523Y-105954761D01*
X290152380Y-106002380D01*
X290247619Y-106002380D01*
X290390476Y-105954761D01*
X290485714Y-105859523D01*
X290533333Y-105764285D01*
X290580952Y-105573809D01*
X290580952Y-105430952D01*
X290533333Y-105240476D01*
X290485714Y-105145238D01*
X290390476Y-105050000D01*
X290247619Y-105002380D01*
X290152380Y-105002380D01*
X290009523Y-105050000D01*
X289961904Y-105097619D01*
X289247619Y-105002380D02*
X289247619Y-105716666D01*
X289295238Y-105859523D01*
X289390476Y-105954761D01*
X289533333Y-106002380D01*
X289628571Y-106002380D01*
X288295238Y-106002380D02*
X288771428Y-106002380D01*
X288771428Y-105002380D01*
X287390476Y-105907142D02*
X287438095Y-105954761D01*
X287580952Y-106002380D01*
X287676190Y-106002380D01*
X287819047Y-105954761D01*
X287914285Y-105859523D01*
X287961904Y-105764285D01*
X288009523Y-105573809D01*
X288009523Y-105430952D01*
X287961904Y-105240476D01*
X287914285Y-105145238D01*
X287819047Y-105050000D01*
X287676190Y-105002380D01*
X287580952Y-105002380D01*
X287438095Y-105050000D01*
X287390476Y-105097619D01*
X286676190Y-105002380D02*
X286676190Y-105716666D01*
X286723809Y-105859523D01*
X286819047Y-105954761D01*
X286961904Y-106002380D01*
X287057142Y-106002380D01*
X285723809Y-106002380D02*
X286200000Y-106002380D01*
X286200000Y-105002380D01*
X284819047Y-105907142D02*
X284866666Y-105954761D01*
X285009523Y-106002380D01*
X285104761Y-106002380D01*
X285247619Y-105954761D01*
X285342857Y-105859523D01*
X285390476Y-105764285D01*
X285438095Y-105573809D01*
X285438095Y-105430952D01*
X285390476Y-105240476D01*
X285342857Y-105145238D01*
X285247619Y-105050000D01*
X285104761Y-105002380D01*
X285009523Y-105002380D01*
X284866666Y-105050000D01*
X284819047Y-105097619D01*
X284104761Y-105002380D02*
X284104761Y-105716666D01*
X284152380Y-105859523D01*
X284247619Y-105954761D01*
X284390476Y-106002380D01*
X284485714Y-106002380D01*
X283152380Y-106002380D02*
X283628571Y-106002380D01*
X283628571Y-105002380D01*
X282247619Y-105907142D02*
X282295238Y-105954761D01*
X282438095Y-106002380D01*
X282533333Y-106002380D01*
X282676190Y-105954761D01*
X282771428Y-105859523D01*
X282819047Y-105764285D01*
X282866666Y-105573809D01*
X282866666Y-105430952D01*
X282819047Y-105240476D01*
X282771428Y-105145238D01*
X282676190Y-105050000D01*
X282533333Y-105002380D01*
X282438095Y-105002380D01*
X282295238Y-105050000D01*
X282247619Y-105097619D01*
X36393333Y-108762380D02*
X36726666Y-108286190D01*
X36964761Y-108762380D02*
X36964761Y-107762380D01*
X36583809Y-107762380D01*
X36488571Y-107810000D01*
X36440952Y-107857619D01*
X36393333Y-107952857D01*
X36393333Y-108095714D01*
X36440952Y-108190952D01*
X36488571Y-108238571D01*
X36583809Y-108286190D01*
X36964761Y-108286190D01*
X35964761Y-108238571D02*
X35631428Y-108238571D01*
X35488571Y-108762380D02*
X35964761Y-108762380D01*
X35964761Y-107762380D01*
X35488571Y-107762380D01*
X34726666Y-108238571D02*
X35060000Y-108238571D01*
X35060000Y-108762380D02*
X35060000Y-107762380D01*
X34583809Y-107762380D01*
X34060000Y-107762380D02*
X34060000Y-108000476D01*
X34298095Y-107905238D02*
X34060000Y-108000476D01*
X33821904Y-107905238D01*
X34202857Y-108190952D02*
X34060000Y-108000476D01*
X33917142Y-108190952D01*
X33298095Y-107762380D02*
X33298095Y-108000476D01*
X33536190Y-107905238D02*
X33298095Y-108000476D01*
X33060000Y-107905238D01*
X33440952Y-108190952D02*
X33298095Y-108000476D01*
X33155238Y-108190952D01*
X108363333Y-108752380D02*
X108696666Y-108276190D01*
X108934761Y-108752380D02*
X108934761Y-107752380D01*
X108553809Y-107752380D01*
X108458571Y-107800000D01*
X108410952Y-107847619D01*
X108363333Y-107942857D01*
X108363333Y-108085714D01*
X108410952Y-108180952D01*
X108458571Y-108228571D01*
X108553809Y-108276190D01*
X108934761Y-108276190D01*
X107934761Y-108228571D02*
X107601428Y-108228571D01*
X107458571Y-108752380D02*
X107934761Y-108752380D01*
X107934761Y-107752380D01*
X107458571Y-107752380D01*
X106696666Y-108228571D02*
X107030000Y-108228571D01*
X107030000Y-108752380D02*
X107030000Y-107752380D01*
X106553809Y-107752380D01*
X106030000Y-107752380D02*
X106030000Y-107990476D01*
X106268095Y-107895238D02*
X106030000Y-107990476D01*
X105791904Y-107895238D01*
X106172857Y-108180952D02*
X106030000Y-107990476D01*
X105887142Y-108180952D01*
X105268095Y-107752380D02*
X105268095Y-107990476D01*
X105506190Y-107895238D02*
X105268095Y-107990476D01*
X105030000Y-107895238D01*
X105410952Y-108180952D02*
X105268095Y-107990476D01*
X105125238Y-108180952D01*
X210663333Y-11072380D02*
X210996666Y-10596190D01*
X211234761Y-11072380D02*
X211234761Y-10072380D01*
X210853809Y-10072380D01*
X210758571Y-10120000D01*
X210710952Y-10167619D01*
X210663333Y-10262857D01*
X210663333Y-10405714D01*
X210710952Y-10500952D01*
X210758571Y-10548571D01*
X210853809Y-10596190D01*
X211234761Y-10596190D01*
X210234761Y-10548571D02*
X209901428Y-10548571D01*
X209758571Y-11072380D02*
X210234761Y-11072380D01*
X210234761Y-10072380D01*
X209758571Y-10072380D01*
X208996666Y-10548571D02*
X209330000Y-10548571D01*
X209330000Y-11072380D02*
X209330000Y-10072380D01*
X208853809Y-10072380D01*
X208330000Y-10072380D02*
X208330000Y-10310476D01*
X208568095Y-10215238D02*
X208330000Y-10310476D01*
X208091904Y-10215238D01*
X208472857Y-10500952D02*
X208330000Y-10310476D01*
X208187142Y-10500952D01*
X207568095Y-10072380D02*
X207568095Y-10310476D01*
X207806190Y-10215238D02*
X207568095Y-10310476D01*
X207330000Y-10215238D01*
X207710952Y-10500952D02*
X207568095Y-10310476D01*
X207425238Y-10500952D01*
X290843333Y-12772380D02*
X291176666Y-12296190D01*
X291414761Y-12772380D02*
X291414761Y-11772380D01*
X291033809Y-11772380D01*
X290938571Y-11820000D01*
X290890952Y-11867619D01*
X290843333Y-11962857D01*
X290843333Y-12105714D01*
X290890952Y-12200952D01*
X290938571Y-12248571D01*
X291033809Y-12296190D01*
X291414761Y-12296190D01*
X290414761Y-12248571D02*
X290081428Y-12248571D01*
X289938571Y-12772380D02*
X290414761Y-12772380D01*
X290414761Y-11772380D01*
X289938571Y-11772380D01*
X289176666Y-12248571D02*
X289510000Y-12248571D01*
X289510000Y-12772380D02*
X289510000Y-11772380D01*
X289033809Y-11772380D01*
X288510000Y-11772380D02*
X288510000Y-12010476D01*
X288748095Y-11915238D02*
X288510000Y-12010476D01*
X288271904Y-11915238D01*
X288652857Y-12200952D02*
X288510000Y-12010476D01*
X288367142Y-12200952D01*
X287748095Y-11772380D02*
X287748095Y-12010476D01*
X287986190Y-11915238D02*
X287748095Y-12010476D01*
X287510000Y-11915238D01*
X287890952Y-12200952D02*
X287748095Y-12010476D01*
X287605238Y-12200952D01*
X51793333Y-11072380D02*
X52126666Y-10596190D01*
X52364761Y-11072380D02*
X52364761Y-10072380D01*
X51983809Y-10072380D01*
X51888571Y-10120000D01*
X51840952Y-10167619D01*
X51793333Y-10262857D01*
X51793333Y-10405714D01*
X51840952Y-10500952D01*
X51888571Y-10548571D01*
X51983809Y-10596190D01*
X52364761Y-10596190D01*
X51364761Y-10548571D02*
X51031428Y-10548571D01*
X50888571Y-11072380D02*
X51364761Y-11072380D01*
X51364761Y-10072380D01*
X50888571Y-10072380D01*
X50126666Y-10548571D02*
X50460000Y-10548571D01*
X50460000Y-11072380D02*
X50460000Y-10072380D01*
X49983809Y-10072380D01*
X49460000Y-10072380D02*
X49460000Y-10310476D01*
X49698095Y-10215238D02*
X49460000Y-10310476D01*
X49221904Y-10215238D01*
X49602857Y-10500952D02*
X49460000Y-10310476D01*
X49317142Y-10500952D01*
X48698095Y-10072380D02*
X48698095Y-10310476D01*
X48936190Y-10215238D02*
X48698095Y-10310476D01*
X48460000Y-10215238D01*
X48840952Y-10500952D02*
X48698095Y-10310476D01*
X48555238Y-10500952D01*
X216863333Y-108752380D02*
X217196666Y-108276190D01*
X217434761Y-108752380D02*
X217434761Y-107752380D01*
X217053809Y-107752380D01*
X216958571Y-107800000D01*
X216910952Y-107847619D01*
X216863333Y-107942857D01*
X216863333Y-108085714D01*
X216910952Y-108180952D01*
X216958571Y-108228571D01*
X217053809Y-108276190D01*
X217434761Y-108276190D01*
X216434761Y-108228571D02*
X216101428Y-108228571D01*
X215958571Y-108752380D02*
X216434761Y-108752380D01*
X216434761Y-107752380D01*
X215958571Y-107752380D01*
X215196666Y-108228571D02*
X215530000Y-108228571D01*
X215530000Y-108752380D02*
X215530000Y-107752380D01*
X215053809Y-107752380D01*
X214530000Y-107752380D02*
X214530000Y-107990476D01*
X214768095Y-107895238D02*
X214530000Y-107990476D01*
X214291904Y-107895238D01*
X214672857Y-108180952D02*
X214530000Y-107990476D01*
X214387142Y-108180952D01*
X213768095Y-107752380D02*
X213768095Y-107990476D01*
X214006190Y-107895238D02*
X213768095Y-107990476D01*
X213530000Y-107895238D01*
X213910952Y-108180952D02*
X213768095Y-107990476D01*
X213625238Y-108180952D01*
X288863333Y-108752380D02*
X289196666Y-108276190D01*
X289434761Y-108752380D02*
X289434761Y-107752380D01*
X289053809Y-107752380D01*
X288958571Y-107800000D01*
X288910952Y-107847619D01*
X288863333Y-107942857D01*
X288863333Y-108085714D01*
X288910952Y-108180952D01*
X288958571Y-108228571D01*
X289053809Y-108276190D01*
X289434761Y-108276190D01*
X288434761Y-108228571D02*
X288101428Y-108228571D01*
X287958571Y-108752380D02*
X288434761Y-108752380D01*
X288434761Y-107752380D01*
X287958571Y-107752380D01*
X287196666Y-108228571D02*
X287530000Y-108228571D01*
X287530000Y-108752380D02*
X287530000Y-107752380D01*
X287053809Y-107752380D01*
X286530000Y-107752380D02*
X286530000Y-107990476D01*
X286768095Y-107895238D02*
X286530000Y-107990476D01*
X286291904Y-107895238D01*
X286672857Y-108180952D02*
X286530000Y-107990476D01*
X286387142Y-108180952D01*
X285768095Y-107752380D02*
X285768095Y-107990476D01*
X286006190Y-107895238D02*
X285768095Y-107990476D01*
X285530000Y-107895238D01*
X285910952Y-108180952D02*
X285768095Y-107990476D01*
X285625238Y-108180952D01*
X115213333Y-11072380D02*
X115546666Y-10596190D01*
X115784761Y-11072380D02*
X115784761Y-10072380D01*
X115403809Y-10072380D01*
X115308571Y-10120000D01*
X115260952Y-10167619D01*
X115213333Y-10262857D01*
X115213333Y-10405714D01*
X115260952Y-10500952D01*
X115308571Y-10548571D01*
X115403809Y-10596190D01*
X115784761Y-10596190D01*
X114784761Y-10548571D02*
X114451428Y-10548571D01*
X114308571Y-11072380D02*
X114784761Y-11072380D01*
X114784761Y-10072380D01*
X114308571Y-10072380D01*
X113546666Y-10548571D02*
X113880000Y-10548571D01*
X113880000Y-11072380D02*
X113880000Y-10072380D01*
X113403809Y-10072380D01*
X112880000Y-10072380D02*
X112880000Y-10310476D01*
X113118095Y-10215238D02*
X112880000Y-10310476D01*
X112641904Y-10215238D01*
X113022857Y-10500952D02*
X112880000Y-10310476D01*
X112737142Y-10500952D01*
X112118095Y-10072380D02*
X112118095Y-10310476D01*
X112356190Y-10215238D02*
X112118095Y-10310476D01*
X111880000Y-10215238D01*
X112260952Y-10500952D02*
X112118095Y-10310476D01*
X111975238Y-10500952D01*
M02*
