%TF.GenerationSoftware,KiCad,Pcbnew,5.1.6*%
%TF.CreationDate,2020-11-05T19:36:39+01:00*%
%TF.ProjectId,OTTO_FrontPanel_SMD,4f54544f-5f46-4726-9f6e-7450616e656c,rev?*%
%TF.SameCoordinates,Original*%
%TF.FileFunction,Legend,Top*%
%TF.FilePolarity,Positive*%
%FSLAX46Y46*%
G04 Gerber Fmt 4.6, Leading zero omitted, Abs format (unit mm)*
G04 Created by KiCad (PCBNEW 5.1.6) date 2020-11-05 19:36:39*
%MOMM*%
%LPD*%
G01*
G04 APERTURE LIST*
%ADD10C,0.120000*%
%ADD11C,0.150000*%
G04 APERTURE END LIST*
D10*
X4000000Y0D02*
G75*
G03*
X4000000Y0I-4000000J0D01*
G01*
X5000000Y0D02*
G75*
G03*
X5000000Y0I-5000000J0D01*
G01*
D11*
X-1333333Y-952380D02*
X-1666666Y-476190D01*
X-1904761Y-952380D02*
X-1904761Y47619D01*
X-1523809Y47619D01*
X-1428571Y0D01*
X-1380952Y-47619D01*
X-1333333Y-142857D01*
X-1333333Y-285714D01*
X-1380952Y-380952D01*
X-1428571Y-428571D01*
X-1523809Y-476190D01*
X-1904761Y-476190D01*
X-904761Y-428571D02*
X-571428Y-428571D01*
X-428571Y-952380D02*
X-904761Y-952380D01*
X-904761Y47619D01*
X-428571Y47619D01*
X333333Y-428571D02*
X0Y-428571D01*
X0Y-952380D02*
X0Y47619D01*
X476190Y47619D01*
X999999Y47619D02*
X999999Y-190476D01*
X761904Y-95238D02*
X999999Y-190476D01*
X1238095Y-95238D01*
X857142Y-380952D02*
X999999Y-190476D01*
X1142857Y-380952D01*
X1761904Y47619D02*
X1761904Y-190476D01*
X1523809Y-95238D02*
X1761904Y-190476D01*
X1999999Y-95238D01*
X1619047Y-380952D02*
X1761904Y-190476D01*
X1904761Y-380952D01*
X-1333333Y-952380D02*
X-1666666Y-476190D01*
X-1904761Y-952380D02*
X-1904761Y47619D01*
X-1523809Y47619D01*
X-1428571Y0D01*
X-1380952Y-47619D01*
X-1333333Y-142857D01*
X-1333333Y-285714D01*
X-1380952Y-380952D01*
X-1428571Y-428571D01*
X-1523809Y-476190D01*
X-1904761Y-476190D01*
X-904761Y-428571D02*
X-571428Y-428571D01*
X-428571Y-952380D02*
X-904761Y-952380D01*
X-904761Y47619D01*
X-428571Y47619D01*
X333333Y-428571D02*
X0Y-428571D01*
X0Y-952380D02*
X0Y47619D01*
X476190Y47619D01*
X999999Y47619D02*
X999999Y-190476D01*
X761904Y-95238D02*
X999999Y-190476D01*
X1238095Y-95238D01*
X857142Y-380952D02*
X999999Y-190476D01*
X1142857Y-380952D01*
X1761904Y47619D02*
X1761904Y-190476D01*
X1523809Y-95238D02*
X1761904Y-190476D01*
X1999999Y-95238D01*
X1619047Y-380952D02*
X1761904Y-190476D01*
X1904761Y-380952D01*
X42866666Y-96504761D02*
X43009523Y-96552380D01*
X43247619Y-96552380D01*
X43342857Y-96504761D01*
X43390476Y-96457142D01*
X43438095Y-96361904D01*
X43438095Y-96266666D01*
X43390476Y-96171428D01*
X43342857Y-96123809D01*
X43247619Y-96076190D01*
X43057142Y-96028571D01*
X42961904Y-95980952D01*
X42914285Y-95933333D01*
X42866666Y-95838095D01*
X42866666Y-95742857D01*
X42914285Y-95647619D01*
X42961904Y-95600000D01*
X43057142Y-95552380D01*
X43295238Y-95552380D01*
X43438095Y-95600000D01*
X43771428Y-95552380D02*
X44009523Y-96552380D01*
X44200000Y-95838095D01*
X44390476Y-96552380D01*
X44628571Y-95552380D01*
X44961904Y-95647619D02*
X45009523Y-95600000D01*
X45104761Y-95552380D01*
X45342857Y-95552380D01*
X45438095Y-95600000D01*
X45485714Y-95647619D01*
X45533333Y-95742857D01*
X45533333Y-95838095D01*
X45485714Y-95980952D01*
X44914285Y-96552380D01*
X45533333Y-96552380D01*
X24866666Y-96504761D02*
X25009523Y-96552380D01*
X25247619Y-96552380D01*
X25342857Y-96504761D01*
X25390476Y-96457142D01*
X25438095Y-96361904D01*
X25438095Y-96266666D01*
X25390476Y-96171428D01*
X25342857Y-96123809D01*
X25247619Y-96076190D01*
X25057142Y-96028571D01*
X24961904Y-95980952D01*
X24914285Y-95933333D01*
X24866666Y-95838095D01*
X24866666Y-95742857D01*
X24914285Y-95647619D01*
X24961904Y-95600000D01*
X25057142Y-95552380D01*
X25295238Y-95552380D01*
X25438095Y-95600000D01*
X25771428Y-95552380D02*
X26009523Y-96552380D01*
X26200000Y-95838095D01*
X26390476Y-96552380D01*
X26628571Y-95552380D01*
X27533333Y-96552380D02*
X26961904Y-96552380D01*
X27247619Y-96552380D02*
X27247619Y-95552380D01*
X27152380Y-95695238D01*
X27057142Y-95790476D01*
X26961904Y-95838095D01*
X267390476Y-81004761D02*
X267533333Y-81052380D01*
X267771428Y-81052380D01*
X267866666Y-81004761D01*
X267914285Y-80957142D01*
X267961904Y-80861904D01*
X267961904Y-80766666D01*
X267914285Y-80671428D01*
X267866666Y-80623809D01*
X267771428Y-80576190D01*
X267580952Y-80528571D01*
X267485714Y-80480952D01*
X267438095Y-80433333D01*
X267390476Y-80338095D01*
X267390476Y-80242857D01*
X267438095Y-80147619D01*
X267485714Y-80100000D01*
X267580952Y-80052380D01*
X267819047Y-80052380D01*
X267961904Y-80100000D01*
X268295238Y-80052380D02*
X268533333Y-81052380D01*
X268723809Y-80338095D01*
X268914285Y-81052380D01*
X269152380Y-80052380D01*
X269485714Y-80147619D02*
X269533333Y-80100000D01*
X269628571Y-80052380D01*
X269866666Y-80052380D01*
X269961904Y-80100000D01*
X270009523Y-80147619D01*
X270057142Y-80242857D01*
X270057142Y-80338095D01*
X270009523Y-80480952D01*
X269438095Y-81052380D01*
X270057142Y-81052380D01*
X270914285Y-80052380D02*
X270723809Y-80052380D01*
X270628571Y-80100000D01*
X270580952Y-80147619D01*
X270485714Y-80290476D01*
X270438095Y-80480952D01*
X270438095Y-80861904D01*
X270485714Y-80957142D01*
X270533333Y-81004761D01*
X270628571Y-81052380D01*
X270819047Y-81052380D01*
X270914285Y-81004761D01*
X270961904Y-80957142D01*
X271009523Y-80861904D01*
X271009523Y-80623809D01*
X270961904Y-80528571D01*
X270914285Y-80480952D01*
X270819047Y-80433333D01*
X270628571Y-80433333D01*
X270533333Y-80480952D01*
X270485714Y-80528571D01*
X270438095Y-80623809D01*
X249390476Y-81004761D02*
X249533333Y-81052380D01*
X249771428Y-81052380D01*
X249866666Y-81004761D01*
X249914285Y-80957142D01*
X249961904Y-80861904D01*
X249961904Y-80766666D01*
X249914285Y-80671428D01*
X249866666Y-80623809D01*
X249771428Y-80576190D01*
X249580952Y-80528571D01*
X249485714Y-80480952D01*
X249438095Y-80433333D01*
X249390476Y-80338095D01*
X249390476Y-80242857D01*
X249438095Y-80147619D01*
X249485714Y-80100000D01*
X249580952Y-80052380D01*
X249819047Y-80052380D01*
X249961904Y-80100000D01*
X250295238Y-80052380D02*
X250533333Y-81052380D01*
X250723809Y-80338095D01*
X250914285Y-81052380D01*
X251152380Y-80052380D01*
X251485714Y-80147619D02*
X251533333Y-80100000D01*
X251628571Y-80052380D01*
X251866666Y-80052380D01*
X251961904Y-80100000D01*
X252009523Y-80147619D01*
X252057142Y-80242857D01*
X252057142Y-80338095D01*
X252009523Y-80480952D01*
X251438095Y-81052380D01*
X252057142Y-81052380D01*
X252961904Y-80052380D02*
X252485714Y-80052380D01*
X252438095Y-80528571D01*
X252485714Y-80480952D01*
X252580952Y-80433333D01*
X252819047Y-80433333D01*
X252914285Y-80480952D01*
X252961904Y-80528571D01*
X253009523Y-80623809D01*
X253009523Y-80861904D01*
X252961904Y-80957142D01*
X252914285Y-81004761D01*
X252819047Y-81052380D01*
X252580952Y-81052380D01*
X252485714Y-81004761D01*
X252438095Y-80957142D01*
X123390476Y-81004761D02*
X123533333Y-81052380D01*
X123771428Y-81052380D01*
X123866666Y-81004761D01*
X123914285Y-80957142D01*
X123961904Y-80861904D01*
X123961904Y-80766666D01*
X123914285Y-80671428D01*
X123866666Y-80623809D01*
X123771428Y-80576190D01*
X123580952Y-80528571D01*
X123485714Y-80480952D01*
X123438095Y-80433333D01*
X123390476Y-80338095D01*
X123390476Y-80242857D01*
X123438095Y-80147619D01*
X123485714Y-80100000D01*
X123580952Y-80052380D01*
X123819047Y-80052380D01*
X123961904Y-80100000D01*
X124295238Y-80052380D02*
X124533333Y-81052380D01*
X124723809Y-80338095D01*
X124914285Y-81052380D01*
X125152380Y-80052380D01*
X125485714Y-80147619D02*
X125533333Y-80100000D01*
X125628571Y-80052380D01*
X125866666Y-80052380D01*
X125961904Y-80100000D01*
X126009523Y-80147619D01*
X126057142Y-80242857D01*
X126057142Y-80338095D01*
X126009523Y-80480952D01*
X125438095Y-81052380D01*
X126057142Y-81052380D01*
X126676190Y-80052380D02*
X126771428Y-80052380D01*
X126866666Y-80100000D01*
X126914285Y-80147619D01*
X126961904Y-80242857D01*
X127009523Y-80433333D01*
X127009523Y-80671428D01*
X126961904Y-80861904D01*
X126914285Y-80957142D01*
X126866666Y-81004761D01*
X126771428Y-81052380D01*
X126676190Y-81052380D01*
X126580952Y-81004761D01*
X126533333Y-80957142D01*
X126485714Y-80861904D01*
X126438095Y-80671428D01*
X126438095Y-80433333D01*
X126485714Y-80242857D01*
X126533333Y-80147619D01*
X126580952Y-80100000D01*
X126676190Y-80052380D01*
X105390476Y-81004761D02*
X105533333Y-81052380D01*
X105771428Y-81052380D01*
X105866666Y-81004761D01*
X105914285Y-80957142D01*
X105961904Y-80861904D01*
X105961904Y-80766666D01*
X105914285Y-80671428D01*
X105866666Y-80623809D01*
X105771428Y-80576190D01*
X105580952Y-80528571D01*
X105485714Y-80480952D01*
X105438095Y-80433333D01*
X105390476Y-80338095D01*
X105390476Y-80242857D01*
X105438095Y-80147619D01*
X105485714Y-80100000D01*
X105580952Y-80052380D01*
X105819047Y-80052380D01*
X105961904Y-80100000D01*
X106295238Y-80052380D02*
X106533333Y-81052380D01*
X106723809Y-80338095D01*
X106914285Y-81052380D01*
X107152380Y-80052380D01*
X108057142Y-81052380D02*
X107485714Y-81052380D01*
X107771428Y-81052380D02*
X107771428Y-80052380D01*
X107676190Y-80195238D01*
X107580952Y-80290476D01*
X107485714Y-80338095D01*
X108533333Y-81052380D02*
X108723809Y-81052380D01*
X108819047Y-81004761D01*
X108866666Y-80957142D01*
X108961904Y-80814285D01*
X109009523Y-80623809D01*
X109009523Y-80242857D01*
X108961904Y-80147619D01*
X108914285Y-80100000D01*
X108819047Y-80052380D01*
X108628571Y-80052380D01*
X108533333Y-80100000D01*
X108485714Y-80147619D01*
X108438095Y-80242857D01*
X108438095Y-80480952D01*
X108485714Y-80576190D01*
X108533333Y-80623809D01*
X108628571Y-80671428D01*
X108819047Y-80671428D01*
X108914285Y-80623809D01*
X108961904Y-80576190D01*
X109009523Y-80480952D01*
X258390476Y-96504761D02*
X258533333Y-96552380D01*
X258771428Y-96552380D01*
X258866666Y-96504761D01*
X258914285Y-96457142D01*
X258961904Y-96361904D01*
X258961904Y-96266666D01*
X258914285Y-96171428D01*
X258866666Y-96123809D01*
X258771428Y-96076190D01*
X258580952Y-96028571D01*
X258485714Y-95980952D01*
X258438095Y-95933333D01*
X258390476Y-95838095D01*
X258390476Y-95742857D01*
X258438095Y-95647619D01*
X258485714Y-95600000D01*
X258580952Y-95552380D01*
X258819047Y-95552380D01*
X258961904Y-95600000D01*
X259295238Y-95552380D02*
X259533333Y-96552380D01*
X259723809Y-95838095D01*
X259914285Y-96552380D01*
X260152380Y-95552380D01*
X261057142Y-96552380D02*
X260485714Y-96552380D01*
X260771428Y-96552380D02*
X260771428Y-95552380D01*
X260676190Y-95695238D01*
X260580952Y-95790476D01*
X260485714Y-95838095D01*
X261914285Y-95885714D02*
X261914285Y-96552380D01*
X261676190Y-95504761D02*
X261438095Y-96219047D01*
X262057142Y-96219047D01*
X240390476Y-96504761D02*
X240533333Y-96552380D01*
X240771428Y-96552380D01*
X240866666Y-96504761D01*
X240914285Y-96457142D01*
X240961904Y-96361904D01*
X240961904Y-96266666D01*
X240914285Y-96171428D01*
X240866666Y-96123809D01*
X240771428Y-96076190D01*
X240580952Y-96028571D01*
X240485714Y-95980952D01*
X240438095Y-95933333D01*
X240390476Y-95838095D01*
X240390476Y-95742857D01*
X240438095Y-95647619D01*
X240485714Y-95600000D01*
X240580952Y-95552380D01*
X240819047Y-95552380D01*
X240961904Y-95600000D01*
X241295238Y-95552380D02*
X241533333Y-96552380D01*
X241723809Y-95838095D01*
X241914285Y-96552380D01*
X242152380Y-95552380D01*
X243057142Y-96552380D02*
X242485714Y-96552380D01*
X242771428Y-96552380D02*
X242771428Y-95552380D01*
X242676190Y-95695238D01*
X242580952Y-95790476D01*
X242485714Y-95838095D01*
X243390476Y-95552380D02*
X244009523Y-95552380D01*
X243676190Y-95933333D01*
X243819047Y-95933333D01*
X243914285Y-95980952D01*
X243961904Y-96028571D01*
X244009523Y-96123809D01*
X244009523Y-96361904D01*
X243961904Y-96457142D01*
X243914285Y-96504761D01*
X243819047Y-96552380D01*
X243533333Y-96552380D01*
X243438095Y-96504761D01*
X243390476Y-96457142D01*
X222390476Y-96504761D02*
X222533333Y-96552380D01*
X222771428Y-96552380D01*
X222866666Y-96504761D01*
X222914285Y-96457142D01*
X222961904Y-96361904D01*
X222961904Y-96266666D01*
X222914285Y-96171428D01*
X222866666Y-96123809D01*
X222771428Y-96076190D01*
X222580952Y-96028571D01*
X222485714Y-95980952D01*
X222438095Y-95933333D01*
X222390476Y-95838095D01*
X222390476Y-95742857D01*
X222438095Y-95647619D01*
X222485714Y-95600000D01*
X222580952Y-95552380D01*
X222819047Y-95552380D01*
X222961904Y-95600000D01*
X223295238Y-95552380D02*
X223533333Y-96552380D01*
X223723809Y-95838095D01*
X223914285Y-96552380D01*
X224152380Y-95552380D01*
X225057142Y-96552380D02*
X224485714Y-96552380D01*
X224771428Y-96552380D02*
X224771428Y-95552380D01*
X224676190Y-95695238D01*
X224580952Y-95790476D01*
X224485714Y-95838095D01*
X225438095Y-95647619D02*
X225485714Y-95600000D01*
X225580952Y-95552380D01*
X225819047Y-95552380D01*
X225914285Y-95600000D01*
X225961904Y-95647619D01*
X226009523Y-95742857D01*
X226009523Y-95838095D01*
X225961904Y-95980952D01*
X225390476Y-96552380D01*
X226009523Y-96552380D01*
X206604761Y-97909523D02*
X206652380Y-97766666D01*
X206652380Y-97528571D01*
X206604761Y-97433333D01*
X206557142Y-97385714D01*
X206461904Y-97338095D01*
X206366666Y-97338095D01*
X206271428Y-97385714D01*
X206223809Y-97433333D01*
X206176190Y-97528571D01*
X206128571Y-97719047D01*
X206080952Y-97814285D01*
X206033333Y-97861904D01*
X205938095Y-97909523D01*
X205842857Y-97909523D01*
X205747619Y-97861904D01*
X205700000Y-97814285D01*
X205652380Y-97719047D01*
X205652380Y-97480952D01*
X205700000Y-97338095D01*
X205652380Y-97004761D02*
X206652380Y-96766666D01*
X205938095Y-96576190D01*
X206652380Y-96385714D01*
X205652380Y-96147619D01*
X206652380Y-95242857D02*
X206652380Y-95814285D01*
X206652380Y-95528571D02*
X205652380Y-95528571D01*
X205795238Y-95623809D01*
X205890476Y-95719047D01*
X205938095Y-95814285D01*
X206652380Y-94290476D02*
X206652380Y-94861904D01*
X206652380Y-94576190D02*
X205652380Y-94576190D01*
X205795238Y-94671428D01*
X205890476Y-94766666D01*
X205938095Y-94861904D01*
X186390476Y-96504761D02*
X186533333Y-96552380D01*
X186771428Y-96552380D01*
X186866666Y-96504761D01*
X186914285Y-96457142D01*
X186961904Y-96361904D01*
X186961904Y-96266666D01*
X186914285Y-96171428D01*
X186866666Y-96123809D01*
X186771428Y-96076190D01*
X186580952Y-96028571D01*
X186485714Y-95980952D01*
X186438095Y-95933333D01*
X186390476Y-95838095D01*
X186390476Y-95742857D01*
X186438095Y-95647619D01*
X186485714Y-95600000D01*
X186580952Y-95552380D01*
X186819047Y-95552380D01*
X186961904Y-95600000D01*
X187295238Y-95552380D02*
X187533333Y-96552380D01*
X187723809Y-95838095D01*
X187914285Y-96552380D01*
X188152380Y-95552380D01*
X189057142Y-96552380D02*
X188485714Y-96552380D01*
X188771428Y-96552380D02*
X188771428Y-95552380D01*
X188676190Y-95695238D01*
X188580952Y-95790476D01*
X188485714Y-95838095D01*
X189676190Y-95552380D02*
X189771428Y-95552380D01*
X189866666Y-95600000D01*
X189914285Y-95647619D01*
X189961904Y-95742857D01*
X190009523Y-95933333D01*
X190009523Y-96171428D01*
X189961904Y-96361904D01*
X189914285Y-96457142D01*
X189866666Y-96504761D01*
X189771428Y-96552380D01*
X189676190Y-96552380D01*
X189580952Y-96504761D01*
X189533333Y-96457142D01*
X189485714Y-96361904D01*
X189438095Y-96171428D01*
X189438095Y-95933333D01*
X189485714Y-95742857D01*
X189533333Y-95647619D01*
X189580952Y-95600000D01*
X189676190Y-95552380D01*
X168866666Y-96504761D02*
X169009523Y-96552380D01*
X169247619Y-96552380D01*
X169342857Y-96504761D01*
X169390476Y-96457142D01*
X169438095Y-96361904D01*
X169438095Y-96266666D01*
X169390476Y-96171428D01*
X169342857Y-96123809D01*
X169247619Y-96076190D01*
X169057142Y-96028571D01*
X168961904Y-95980952D01*
X168914285Y-95933333D01*
X168866666Y-95838095D01*
X168866666Y-95742857D01*
X168914285Y-95647619D01*
X168961904Y-95600000D01*
X169057142Y-95552380D01*
X169295238Y-95552380D01*
X169438095Y-95600000D01*
X169771428Y-95552380D02*
X170009523Y-96552380D01*
X170200000Y-95838095D01*
X170390476Y-96552380D01*
X170628571Y-95552380D01*
X171057142Y-96552380D02*
X171247619Y-96552380D01*
X171342857Y-96504761D01*
X171390476Y-96457142D01*
X171485714Y-96314285D01*
X171533333Y-96123809D01*
X171533333Y-95742857D01*
X171485714Y-95647619D01*
X171438095Y-95600000D01*
X171342857Y-95552380D01*
X171152380Y-95552380D01*
X171057142Y-95600000D01*
X171009523Y-95647619D01*
X170961904Y-95742857D01*
X170961904Y-95980952D01*
X171009523Y-96076190D01*
X171057142Y-96123809D01*
X171152380Y-96171428D01*
X171342857Y-96171428D01*
X171438095Y-96123809D01*
X171485714Y-96076190D01*
X171533333Y-95980952D01*
X150866666Y-96504761D02*
X151009523Y-96552380D01*
X151247619Y-96552380D01*
X151342857Y-96504761D01*
X151390476Y-96457142D01*
X151438095Y-96361904D01*
X151438095Y-96266666D01*
X151390476Y-96171428D01*
X151342857Y-96123809D01*
X151247619Y-96076190D01*
X151057142Y-96028571D01*
X150961904Y-95980952D01*
X150914285Y-95933333D01*
X150866666Y-95838095D01*
X150866666Y-95742857D01*
X150914285Y-95647619D01*
X150961904Y-95600000D01*
X151057142Y-95552380D01*
X151295238Y-95552380D01*
X151438095Y-95600000D01*
X151771428Y-95552380D02*
X152009523Y-96552380D01*
X152200000Y-95838095D01*
X152390476Y-96552380D01*
X152628571Y-95552380D01*
X153152380Y-95980952D02*
X153057142Y-95933333D01*
X153009523Y-95885714D01*
X152961904Y-95790476D01*
X152961904Y-95742857D01*
X153009523Y-95647619D01*
X153057142Y-95600000D01*
X153152380Y-95552380D01*
X153342857Y-95552380D01*
X153438095Y-95600000D01*
X153485714Y-95647619D01*
X153533333Y-95742857D01*
X153533333Y-95790476D01*
X153485714Y-95885714D01*
X153438095Y-95933333D01*
X153342857Y-95980952D01*
X153152380Y-95980952D01*
X153057142Y-96028571D01*
X153009523Y-96076190D01*
X152961904Y-96171428D01*
X152961904Y-96361904D01*
X153009523Y-96457142D01*
X153057142Y-96504761D01*
X153152380Y-96552380D01*
X153342857Y-96552380D01*
X153438095Y-96504761D01*
X153485714Y-96457142D01*
X153533333Y-96361904D01*
X153533333Y-96171428D01*
X153485714Y-96076190D01*
X153438095Y-96028571D01*
X153342857Y-95980952D01*
X134604761Y-97433333D02*
X134652380Y-97290476D01*
X134652380Y-97052380D01*
X134604761Y-96957142D01*
X134557142Y-96909523D01*
X134461904Y-96861904D01*
X134366666Y-96861904D01*
X134271428Y-96909523D01*
X134223809Y-96957142D01*
X134176190Y-97052380D01*
X134128571Y-97242857D01*
X134080952Y-97338095D01*
X134033333Y-97385714D01*
X133938095Y-97433333D01*
X133842857Y-97433333D01*
X133747619Y-97385714D01*
X133700000Y-97338095D01*
X133652380Y-97242857D01*
X133652380Y-97004761D01*
X133700000Y-96861904D01*
X133652380Y-96528571D02*
X134652380Y-96290476D01*
X133938095Y-96100000D01*
X134652380Y-95909523D01*
X133652380Y-95671428D01*
X133652380Y-95385714D02*
X133652380Y-94719047D01*
X134652380Y-95147619D01*
X114866666Y-96504761D02*
X115009523Y-96552380D01*
X115247619Y-96552380D01*
X115342857Y-96504761D01*
X115390476Y-96457142D01*
X115438095Y-96361904D01*
X115438095Y-96266666D01*
X115390476Y-96171428D01*
X115342857Y-96123809D01*
X115247619Y-96076190D01*
X115057142Y-96028571D01*
X114961904Y-95980952D01*
X114914285Y-95933333D01*
X114866666Y-95838095D01*
X114866666Y-95742857D01*
X114914285Y-95647619D01*
X114961904Y-95600000D01*
X115057142Y-95552380D01*
X115295238Y-95552380D01*
X115438095Y-95600000D01*
X115771428Y-95552380D02*
X116009523Y-96552380D01*
X116200000Y-95838095D01*
X116390476Y-96552380D01*
X116628571Y-95552380D01*
X117438095Y-95552380D02*
X117247619Y-95552380D01*
X117152380Y-95600000D01*
X117104761Y-95647619D01*
X117009523Y-95790476D01*
X116961904Y-95980952D01*
X116961904Y-96361904D01*
X117009523Y-96457142D01*
X117057142Y-96504761D01*
X117152380Y-96552380D01*
X117342857Y-96552380D01*
X117438095Y-96504761D01*
X117485714Y-96457142D01*
X117533333Y-96361904D01*
X117533333Y-96123809D01*
X117485714Y-96028571D01*
X117438095Y-95980952D01*
X117342857Y-95933333D01*
X117152380Y-95933333D01*
X117057142Y-95980952D01*
X117009523Y-96028571D01*
X116961904Y-96123809D01*
X96866666Y-96504761D02*
X97009523Y-96552380D01*
X97247619Y-96552380D01*
X97342857Y-96504761D01*
X97390476Y-96457142D01*
X97438095Y-96361904D01*
X97438095Y-96266666D01*
X97390476Y-96171428D01*
X97342857Y-96123809D01*
X97247619Y-96076190D01*
X97057142Y-96028571D01*
X96961904Y-95980952D01*
X96914285Y-95933333D01*
X96866666Y-95838095D01*
X96866666Y-95742857D01*
X96914285Y-95647619D01*
X96961904Y-95600000D01*
X97057142Y-95552380D01*
X97295238Y-95552380D01*
X97438095Y-95600000D01*
X97771428Y-95552380D02*
X98009523Y-96552380D01*
X98200000Y-95838095D01*
X98390476Y-96552380D01*
X98628571Y-95552380D01*
X99485714Y-95552380D02*
X99009523Y-95552380D01*
X98961904Y-96028571D01*
X99009523Y-95980952D01*
X99104761Y-95933333D01*
X99342857Y-95933333D01*
X99438095Y-95980952D01*
X99485714Y-96028571D01*
X99533333Y-96123809D01*
X99533333Y-96361904D01*
X99485714Y-96457142D01*
X99438095Y-96504761D01*
X99342857Y-96552380D01*
X99104761Y-96552380D01*
X99009523Y-96504761D01*
X98961904Y-96457142D01*
X78866666Y-96504761D02*
X79009523Y-96552380D01*
X79247619Y-96552380D01*
X79342857Y-96504761D01*
X79390476Y-96457142D01*
X79438095Y-96361904D01*
X79438095Y-96266666D01*
X79390476Y-96171428D01*
X79342857Y-96123809D01*
X79247619Y-96076190D01*
X79057142Y-96028571D01*
X78961904Y-95980952D01*
X78914285Y-95933333D01*
X78866666Y-95838095D01*
X78866666Y-95742857D01*
X78914285Y-95647619D01*
X78961904Y-95600000D01*
X79057142Y-95552380D01*
X79295238Y-95552380D01*
X79438095Y-95600000D01*
X79771428Y-95552380D02*
X80009523Y-96552380D01*
X80200000Y-95838095D01*
X80390476Y-96552380D01*
X80628571Y-95552380D01*
X81438095Y-95885714D02*
X81438095Y-96552380D01*
X81200000Y-95504761D02*
X80961904Y-96219047D01*
X81580952Y-96219047D01*
X60866666Y-96504761D02*
X61009523Y-96552380D01*
X61247619Y-96552380D01*
X61342857Y-96504761D01*
X61390476Y-96457142D01*
X61438095Y-96361904D01*
X61438095Y-96266666D01*
X61390476Y-96171428D01*
X61342857Y-96123809D01*
X61247619Y-96076190D01*
X61057142Y-96028571D01*
X60961904Y-95980952D01*
X60914285Y-95933333D01*
X60866666Y-95838095D01*
X60866666Y-95742857D01*
X60914285Y-95647619D01*
X60961904Y-95600000D01*
X61057142Y-95552380D01*
X61295238Y-95552380D01*
X61438095Y-95600000D01*
X61771428Y-95552380D02*
X62009523Y-96552380D01*
X62200000Y-95838095D01*
X62390476Y-96552380D01*
X62628571Y-95552380D01*
X62914285Y-95552380D02*
X63533333Y-95552380D01*
X63200000Y-95933333D01*
X63342857Y-95933333D01*
X63438095Y-95980952D01*
X63485714Y-96028571D01*
X63533333Y-96123809D01*
X63533333Y-96361904D01*
X63485714Y-96457142D01*
X63438095Y-96504761D01*
X63342857Y-96552380D01*
X63057142Y-96552380D01*
X62961904Y-96504761D01*
X62914285Y-96457142D01*
X233604761Y-82409523D02*
X233652380Y-82266666D01*
X233652380Y-82028571D01*
X233604761Y-81933333D01*
X233557142Y-81885714D01*
X233461904Y-81838095D01*
X233366666Y-81838095D01*
X233271428Y-81885714D01*
X233223809Y-81933333D01*
X233176190Y-82028571D01*
X233128571Y-82219047D01*
X233080952Y-82314285D01*
X233033333Y-82361904D01*
X232938095Y-82409523D01*
X232842857Y-82409523D01*
X232747619Y-82361904D01*
X232700000Y-82314285D01*
X232652380Y-82219047D01*
X232652380Y-81980952D01*
X232700000Y-81838095D01*
X232652380Y-81504761D02*
X233652380Y-81266666D01*
X232938095Y-81076190D01*
X233652380Y-80885714D01*
X232652380Y-80647619D01*
X232747619Y-80314285D02*
X232700000Y-80266666D01*
X232652380Y-80171428D01*
X232652380Y-79933333D01*
X232700000Y-79838095D01*
X232747619Y-79790476D01*
X232842857Y-79742857D01*
X232938095Y-79742857D01*
X233080952Y-79790476D01*
X233652380Y-80361904D01*
X233652380Y-79742857D01*
X232985714Y-78885714D02*
X233652380Y-78885714D01*
X232604761Y-79123809D02*
X233319047Y-79361904D01*
X233319047Y-78742857D01*
X195390476Y-81004761D02*
X195533333Y-81052380D01*
X195771428Y-81052380D01*
X195866666Y-81004761D01*
X195914285Y-80957142D01*
X195961904Y-80861904D01*
X195961904Y-80766666D01*
X195914285Y-80671428D01*
X195866666Y-80623809D01*
X195771428Y-80576190D01*
X195580952Y-80528571D01*
X195485714Y-80480952D01*
X195438095Y-80433333D01*
X195390476Y-80338095D01*
X195390476Y-80242857D01*
X195438095Y-80147619D01*
X195485714Y-80100000D01*
X195580952Y-80052380D01*
X195819047Y-80052380D01*
X195961904Y-80100000D01*
X196295238Y-80052380D02*
X196533333Y-81052380D01*
X196723809Y-80338095D01*
X196914285Y-81052380D01*
X197152380Y-80052380D01*
X197485714Y-80147619D02*
X197533333Y-80100000D01*
X197628571Y-80052380D01*
X197866666Y-80052380D01*
X197961904Y-80100000D01*
X198009523Y-80147619D01*
X198057142Y-80242857D01*
X198057142Y-80338095D01*
X198009523Y-80480952D01*
X197438095Y-81052380D01*
X198057142Y-81052380D01*
X198390476Y-80052380D02*
X199009523Y-80052380D01*
X198676190Y-80433333D01*
X198819047Y-80433333D01*
X198914285Y-80480952D01*
X198961904Y-80528571D01*
X199009523Y-80623809D01*
X199009523Y-80861904D01*
X198961904Y-80957142D01*
X198914285Y-81004761D01*
X198819047Y-81052380D01*
X198533333Y-81052380D01*
X198438095Y-81004761D01*
X198390476Y-80957142D01*
X177390476Y-81004761D02*
X177533333Y-81052380D01*
X177771428Y-81052380D01*
X177866666Y-81004761D01*
X177914285Y-80957142D01*
X177961904Y-80861904D01*
X177961904Y-80766666D01*
X177914285Y-80671428D01*
X177866666Y-80623809D01*
X177771428Y-80576190D01*
X177580952Y-80528571D01*
X177485714Y-80480952D01*
X177438095Y-80433333D01*
X177390476Y-80338095D01*
X177390476Y-80242857D01*
X177438095Y-80147619D01*
X177485714Y-80100000D01*
X177580952Y-80052380D01*
X177819047Y-80052380D01*
X177961904Y-80100000D01*
X178295238Y-80052380D02*
X178533333Y-81052380D01*
X178723809Y-80338095D01*
X178914285Y-81052380D01*
X179152380Y-80052380D01*
X179485714Y-80147619D02*
X179533333Y-80100000D01*
X179628571Y-80052380D01*
X179866666Y-80052380D01*
X179961904Y-80100000D01*
X180009523Y-80147619D01*
X180057142Y-80242857D01*
X180057142Y-80338095D01*
X180009523Y-80480952D01*
X179438095Y-81052380D01*
X180057142Y-81052380D01*
X180438095Y-80147619D02*
X180485714Y-80100000D01*
X180580952Y-80052380D01*
X180819047Y-80052380D01*
X180914285Y-80100000D01*
X180961904Y-80147619D01*
X181009523Y-80242857D01*
X181009523Y-80338095D01*
X180961904Y-80480952D01*
X180390476Y-81052380D01*
X181009523Y-81052380D01*
X141390476Y-81004761D02*
X141533333Y-81052380D01*
X141771428Y-81052380D01*
X141866666Y-81004761D01*
X141914285Y-80957142D01*
X141961904Y-80861904D01*
X141961904Y-80766666D01*
X141914285Y-80671428D01*
X141866666Y-80623809D01*
X141771428Y-80576190D01*
X141580952Y-80528571D01*
X141485714Y-80480952D01*
X141438095Y-80433333D01*
X141390476Y-80338095D01*
X141390476Y-80242857D01*
X141438095Y-80147619D01*
X141485714Y-80100000D01*
X141580952Y-80052380D01*
X141819047Y-80052380D01*
X141961904Y-80100000D01*
X142295238Y-80052380D02*
X142533333Y-81052380D01*
X142723809Y-80338095D01*
X142914285Y-81052380D01*
X143152380Y-80052380D01*
X143485714Y-80147619D02*
X143533333Y-80100000D01*
X143628571Y-80052380D01*
X143866666Y-80052380D01*
X143961904Y-80100000D01*
X144009523Y-80147619D01*
X144057142Y-80242857D01*
X144057142Y-80338095D01*
X144009523Y-80480952D01*
X143438095Y-81052380D01*
X144057142Y-81052380D01*
X145009523Y-81052380D02*
X144438095Y-81052380D01*
X144723809Y-81052380D02*
X144723809Y-80052380D01*
X144628571Y-80195238D01*
X144533333Y-80290476D01*
X144438095Y-80338095D01*
X69390476Y-81004761D02*
X69533333Y-81052380D01*
X69771428Y-81052380D01*
X69866666Y-81004761D01*
X69914285Y-80957142D01*
X69961904Y-80861904D01*
X69961904Y-80766666D01*
X69914285Y-80671428D01*
X69866666Y-80623809D01*
X69771428Y-80576190D01*
X69580952Y-80528571D01*
X69485714Y-80480952D01*
X69438095Y-80433333D01*
X69390476Y-80338095D01*
X69390476Y-80242857D01*
X69438095Y-80147619D01*
X69485714Y-80100000D01*
X69580952Y-80052380D01*
X69819047Y-80052380D01*
X69961904Y-80100000D01*
X70295238Y-80052380D02*
X70533333Y-81052380D01*
X70723809Y-80338095D01*
X70914285Y-81052380D01*
X71152380Y-80052380D01*
X72057142Y-81052380D02*
X71485714Y-81052380D01*
X71771428Y-81052380D02*
X71771428Y-80052380D01*
X71676190Y-80195238D01*
X71580952Y-80290476D01*
X71485714Y-80338095D01*
X72628571Y-80480952D02*
X72533333Y-80433333D01*
X72485714Y-80385714D01*
X72438095Y-80290476D01*
X72438095Y-80242857D01*
X72485714Y-80147619D01*
X72533333Y-80100000D01*
X72628571Y-80052380D01*
X72819047Y-80052380D01*
X72914285Y-80100000D01*
X72961904Y-80147619D01*
X73009523Y-80242857D01*
X73009523Y-80290476D01*
X72961904Y-80385714D01*
X72914285Y-80433333D01*
X72819047Y-80480952D01*
X72628571Y-80480952D01*
X72533333Y-80528571D01*
X72485714Y-80576190D01*
X72438095Y-80671428D01*
X72438095Y-80861904D01*
X72485714Y-80957142D01*
X72533333Y-81004761D01*
X72628571Y-81052380D01*
X72819047Y-81052380D01*
X72914285Y-81004761D01*
X72961904Y-80957142D01*
X73009523Y-80861904D01*
X73009523Y-80671428D01*
X72961904Y-80576190D01*
X72914285Y-80528571D01*
X72819047Y-80480952D01*
X53604761Y-82409523D02*
X53652380Y-82266666D01*
X53652380Y-82028571D01*
X53604761Y-81933333D01*
X53557142Y-81885714D01*
X53461904Y-81838095D01*
X53366666Y-81838095D01*
X53271428Y-81885714D01*
X53223809Y-81933333D01*
X53176190Y-82028571D01*
X53128571Y-82219047D01*
X53080952Y-82314285D01*
X53033333Y-82361904D01*
X52938095Y-82409523D01*
X52842857Y-82409523D01*
X52747619Y-82361904D01*
X52700000Y-82314285D01*
X52652380Y-82219047D01*
X52652380Y-81980952D01*
X52700000Y-81838095D01*
X52652380Y-81504761D02*
X53652380Y-81266666D01*
X52938095Y-81076190D01*
X53652380Y-80885714D01*
X52652380Y-80647619D01*
X53652380Y-79742857D02*
X53652380Y-80314285D01*
X53652380Y-80028571D02*
X52652380Y-80028571D01*
X52795238Y-80123809D01*
X52890476Y-80219047D01*
X52938095Y-80314285D01*
X52652380Y-79409523D02*
X52652380Y-78742857D01*
X53652380Y-79171428D01*
X294390476Y-96504761D02*
X294533333Y-96552380D01*
X294771428Y-96552380D01*
X294866666Y-96504761D01*
X294914285Y-96457142D01*
X294961904Y-96361904D01*
X294961904Y-96266666D01*
X294914285Y-96171428D01*
X294866666Y-96123809D01*
X294771428Y-96076190D01*
X294580952Y-96028571D01*
X294485714Y-95980952D01*
X294438095Y-95933333D01*
X294390476Y-95838095D01*
X294390476Y-95742857D01*
X294438095Y-95647619D01*
X294485714Y-95600000D01*
X294580952Y-95552380D01*
X294819047Y-95552380D01*
X294961904Y-95600000D01*
X295295238Y-95552380D02*
X295533333Y-96552380D01*
X295723809Y-95838095D01*
X295914285Y-96552380D01*
X296152380Y-95552380D01*
X297057142Y-96552380D02*
X296485714Y-96552380D01*
X296771428Y-96552380D02*
X296771428Y-95552380D01*
X296676190Y-95695238D01*
X296580952Y-95790476D01*
X296485714Y-95838095D01*
X297914285Y-95552380D02*
X297723809Y-95552380D01*
X297628571Y-95600000D01*
X297580952Y-95647619D01*
X297485714Y-95790476D01*
X297438095Y-95980952D01*
X297438095Y-96361904D01*
X297485714Y-96457142D01*
X297533333Y-96504761D01*
X297628571Y-96552380D01*
X297819047Y-96552380D01*
X297914285Y-96504761D01*
X297961904Y-96457142D01*
X298009523Y-96361904D01*
X298009523Y-96123809D01*
X297961904Y-96028571D01*
X297914285Y-95980952D01*
X297819047Y-95933333D01*
X297628571Y-95933333D01*
X297533333Y-95980952D01*
X297485714Y-96028571D01*
X297438095Y-96123809D01*
X278604761Y-97909523D02*
X278652380Y-97766666D01*
X278652380Y-97528571D01*
X278604761Y-97433333D01*
X278557142Y-97385714D01*
X278461904Y-97338095D01*
X278366666Y-97338095D01*
X278271428Y-97385714D01*
X278223809Y-97433333D01*
X278176190Y-97528571D01*
X278128571Y-97719047D01*
X278080952Y-97814285D01*
X278033333Y-97861904D01*
X277938095Y-97909523D01*
X277842857Y-97909523D01*
X277747619Y-97861904D01*
X277700000Y-97814285D01*
X277652380Y-97719047D01*
X277652380Y-97480952D01*
X277700000Y-97338095D01*
X277652380Y-97004761D02*
X278652380Y-96766666D01*
X277938095Y-96576190D01*
X278652380Y-96385714D01*
X277652380Y-96147619D01*
X278652380Y-95242857D02*
X278652380Y-95814285D01*
X278652380Y-95528571D02*
X277652380Y-95528571D01*
X277795238Y-95623809D01*
X277890476Y-95719047D01*
X277938095Y-95814285D01*
X277652380Y-94338095D02*
X277652380Y-94814285D01*
X278128571Y-94861904D01*
X278080952Y-94814285D01*
X278033333Y-94719047D01*
X278033333Y-94480952D01*
X278080952Y-94385714D01*
X278128571Y-94338095D01*
X278223809Y-94290476D01*
X278461904Y-94290476D01*
X278557142Y-94338095D01*
X278604761Y-94385714D01*
X278652380Y-94480952D01*
X278652380Y-94719047D01*
X278604761Y-94814285D01*
X278557142Y-94861904D01*
M02*
