%TF.GenerationSoftware,KiCad,Pcbnew,5.1.6*%
%TF.CreationDate,2020-06-02T09:47:57+02:00*%
%TF.ProjectId,OTTO_FrontPanel_SMD,4f54544f-5f46-4726-9f6e-7450616e656c,rev?*%
%TF.SameCoordinates,PX269fb20PYbb65a20*%
%TF.FileFunction,Soldermask,Bot*%
%TF.FilePolarity,Negative*%
%FSLAX46Y46*%
G04 Gerber Fmt 4.6, Leading zero omitted, Abs format (unit mm)*
G04 Created by KiCad (PCBNEW 5.1.6) date 2020-06-02 09:47:57*
%MOMM*%
%LPD*%
G01*
G04 APERTURE LIST*
%ADD10C,0.150000*%
G04 APERTURE END LIST*
D10*
G36*
X265422383Y99012852D02*
G01*
X265795899Y98938555D01*
X266323665Y98719947D01*
X266798642Y98402577D01*
X267202577Y97998642D01*
X267519947Y97523665D01*
X267738555Y96995899D01*
X267850000Y96435625D01*
X267850000Y95864375D01*
X267738555Y95304101D01*
X267519947Y94776335D01*
X267202577Y94301358D01*
X266798642Y93897423D01*
X266323665Y93580053D01*
X265795899Y93361445D01*
X265422383Y93287148D01*
X265235626Y93250000D01*
X264664374Y93250000D01*
X264477617Y93287148D01*
X264104101Y93361445D01*
X263576335Y93580053D01*
X263101358Y93897423D01*
X262697423Y94301358D01*
X262380053Y94776335D01*
X262161445Y95304101D01*
X262050000Y95864375D01*
X262050000Y96435625D01*
X262161445Y96995899D01*
X262380053Y97523665D01*
X262697423Y97998642D01*
X263101358Y98402577D01*
X263576335Y98719947D01*
X264104101Y98938555D01*
X264477617Y99012852D01*
X264664374Y99050000D01*
X265235626Y99050000D01*
X265422383Y99012852D01*
G37*
G36*
X-23077617Y99012852D02*
G01*
X-22704101Y98938555D01*
X-22176335Y98719947D01*
X-21701358Y98402577D01*
X-21297423Y97998642D01*
X-20980053Y97523665D01*
X-20761445Y96995899D01*
X-20650000Y96435625D01*
X-20650000Y95864375D01*
X-20761445Y95304101D01*
X-20980053Y94776335D01*
X-21297423Y94301358D01*
X-21701358Y93897423D01*
X-22176335Y93580053D01*
X-22704101Y93361445D01*
X-23077617Y93287148D01*
X-23264374Y93250000D01*
X-23835626Y93250000D01*
X-24022383Y93287148D01*
X-24395899Y93361445D01*
X-24923665Y93580053D01*
X-25398642Y93897423D01*
X-25802577Y94301358D01*
X-26119947Y94776335D01*
X-26338555Y95304101D01*
X-26450000Y95864375D01*
X-26450000Y96435625D01*
X-26338555Y96995899D01*
X-26119947Y97523665D01*
X-25802577Y97998642D01*
X-25398642Y98402577D01*
X-24923665Y98719947D01*
X-24395899Y98938555D01*
X-24022383Y99012852D01*
X-23835626Y99050000D01*
X-23264374Y99050000D01*
X-23077617Y99012852D01*
G37*
G36*
X149421256Y106074228D02*
G01*
X150495173Y105629398D01*
X151461667Y104983607D01*
X152283607Y104161667D01*
X152929398Y103195173D01*
X153374228Y102121256D01*
X153601000Y100981199D01*
X153601000Y99818801D01*
X153374228Y98678744D01*
X152929398Y97604827D01*
X152283607Y96638333D01*
X151461667Y95816393D01*
X150495173Y95170602D01*
X149421256Y94725772D01*
X148281199Y94499000D01*
X147118801Y94499000D01*
X145978744Y94725772D01*
X144904827Y95170602D01*
X143938333Y95816393D01*
X143116393Y96638333D01*
X142470602Y97604827D01*
X142025772Y98678744D01*
X141799000Y99818801D01*
X141799000Y100981199D01*
X142025772Y102121256D01*
X142470602Y103195173D01*
X143116393Y104161667D01*
X143938333Y104983607D01*
X144904827Y105629398D01*
X145978744Y106074228D01*
X147118801Y106301000D01*
X148281199Y106301000D01*
X149421256Y106074228D01*
G37*
G36*
X221421256Y106074228D02*
G01*
X222495173Y105629398D01*
X223461667Y104983607D01*
X224283607Y104161667D01*
X224929398Y103195173D01*
X225374228Y102121256D01*
X225601000Y100981199D01*
X225601000Y99818801D01*
X225374228Y98678744D01*
X224929398Y97604827D01*
X224283607Y96638333D01*
X223461667Y95816393D01*
X222495173Y95170602D01*
X221421256Y94725772D01*
X220281199Y94499000D01*
X219118801Y94499000D01*
X217978744Y94725772D01*
X216904827Y95170602D01*
X215938333Y95816393D01*
X215116393Y96638333D01*
X214470602Y97604827D01*
X214025772Y98678744D01*
X213799000Y99818801D01*
X213799000Y100981199D01*
X214025772Y102121256D01*
X214470602Y103195173D01*
X215116393Y104161667D01*
X215938333Y104983607D01*
X216904827Y105629398D01*
X217978744Y106074228D01*
X219118801Y106301000D01*
X220281199Y106301000D01*
X221421256Y106074228D01*
G37*
G36*
X203421256Y106074228D02*
G01*
X204495173Y105629398D01*
X205461667Y104983607D01*
X206283607Y104161667D01*
X206929398Y103195173D01*
X207374228Y102121256D01*
X207601000Y100981199D01*
X207601000Y99818801D01*
X207374228Y98678744D01*
X206929398Y97604827D01*
X206283607Y96638333D01*
X205461667Y95816393D01*
X204495173Y95170602D01*
X203421256Y94725772D01*
X202281199Y94499000D01*
X201118801Y94499000D01*
X199978744Y94725772D01*
X198904827Y95170602D01*
X197938333Y95816393D01*
X197116393Y96638333D01*
X196470602Y97604827D01*
X196025772Y98678744D01*
X195799000Y99818801D01*
X195799000Y100981199D01*
X196025772Y102121256D01*
X196470602Y103195173D01*
X197116393Y104161667D01*
X197938333Y104983607D01*
X198904827Y105629398D01*
X199978744Y106074228D01*
X201118801Y106301000D01*
X202281199Y106301000D01*
X203421256Y106074228D01*
G37*
G36*
X185421256Y106074228D02*
G01*
X186495173Y105629398D01*
X187461667Y104983607D01*
X188283607Y104161667D01*
X188929398Y103195173D01*
X189374228Y102121256D01*
X189601000Y100981199D01*
X189601000Y99818801D01*
X189374228Y98678744D01*
X188929398Y97604827D01*
X188283607Y96638333D01*
X187461667Y95816393D01*
X186495173Y95170602D01*
X185421256Y94725772D01*
X184281199Y94499000D01*
X183118801Y94499000D01*
X181978744Y94725772D01*
X180904827Y95170602D01*
X179938333Y95816393D01*
X179116393Y96638333D01*
X178470602Y97604827D01*
X178025772Y98678744D01*
X177799000Y99818801D01*
X177799000Y100981199D01*
X178025772Y102121256D01*
X178470602Y103195173D01*
X179116393Y104161667D01*
X179938333Y104983607D01*
X180904827Y105629398D01*
X181978744Y106074228D01*
X183118801Y106301000D01*
X184281199Y106301000D01*
X185421256Y106074228D01*
G37*
G36*
X167421256Y106074228D02*
G01*
X168495173Y105629398D01*
X169461667Y104983607D01*
X170283607Y104161667D01*
X170929398Y103195173D01*
X171374228Y102121256D01*
X171601000Y100981199D01*
X171601000Y99818801D01*
X171374228Y98678744D01*
X170929398Y97604827D01*
X170283607Y96638333D01*
X169461667Y95816393D01*
X168495173Y95170602D01*
X167421256Y94725772D01*
X166281199Y94499000D01*
X165118801Y94499000D01*
X163978744Y94725772D01*
X162904827Y95170602D01*
X161938333Y95816393D01*
X161116393Y96638333D01*
X160470602Y97604827D01*
X160025772Y98678744D01*
X159799000Y99818801D01*
X159799000Y100981199D01*
X160025772Y102121256D01*
X160470602Y103195173D01*
X161116393Y104161667D01*
X161938333Y104983607D01*
X162904827Y105629398D01*
X163978744Y106074228D01*
X165118801Y106301000D01*
X166281199Y106301000D01*
X167421256Y106074228D01*
G37*
G36*
X131421256Y106074228D02*
G01*
X132495173Y105629398D01*
X133461667Y104983607D01*
X134283607Y104161667D01*
X134929398Y103195173D01*
X135374228Y102121256D01*
X135601000Y100981199D01*
X135601000Y99818801D01*
X135374228Y98678744D01*
X134929398Y97604827D01*
X134283607Y96638333D01*
X133461667Y95816393D01*
X132495173Y95170602D01*
X131421256Y94725772D01*
X130281199Y94499000D01*
X129118801Y94499000D01*
X127978744Y94725772D01*
X126904827Y95170602D01*
X125938333Y95816393D01*
X125116393Y96638333D01*
X124470602Y97604827D01*
X124025772Y98678744D01*
X123799000Y99818801D01*
X123799000Y100981199D01*
X124025772Y102121256D01*
X124470602Y103195173D01*
X125116393Y104161667D01*
X125938333Y104983607D01*
X126904827Y105629398D01*
X127978744Y106074228D01*
X129118801Y106301000D01*
X130281199Y106301000D01*
X131421256Y106074228D01*
G37*
G36*
X113421256Y106074228D02*
G01*
X114495173Y105629398D01*
X115461667Y104983607D01*
X116283607Y104161667D01*
X116929398Y103195173D01*
X117374228Y102121256D01*
X117601000Y100981199D01*
X117601000Y99818801D01*
X117374228Y98678744D01*
X116929398Y97604827D01*
X116283607Y96638333D01*
X115461667Y95816393D01*
X114495173Y95170602D01*
X113421256Y94725772D01*
X112281199Y94499000D01*
X111118801Y94499000D01*
X109978744Y94725772D01*
X108904827Y95170602D01*
X107938333Y95816393D01*
X107116393Y96638333D01*
X106470602Y97604827D01*
X106025772Y98678744D01*
X105799000Y99818801D01*
X105799000Y100981199D01*
X106025772Y102121256D01*
X106470602Y103195173D01*
X107116393Y104161667D01*
X107938333Y104983607D01*
X108904827Y105629398D01*
X109978744Y106074228D01*
X111118801Y106301000D01*
X112281199Y106301000D01*
X113421256Y106074228D01*
G37*
G36*
X95421256Y106074228D02*
G01*
X96495173Y105629398D01*
X97461667Y104983607D01*
X98283607Y104161667D01*
X98929398Y103195173D01*
X99374228Y102121256D01*
X99601000Y100981199D01*
X99601000Y99818801D01*
X99374228Y98678744D01*
X98929398Y97604827D01*
X98283607Y96638333D01*
X97461667Y95816393D01*
X96495173Y95170602D01*
X95421256Y94725772D01*
X94281199Y94499000D01*
X93118801Y94499000D01*
X91978744Y94725772D01*
X90904827Y95170602D01*
X89938333Y95816393D01*
X89116393Y96638333D01*
X88470602Y97604827D01*
X88025772Y98678744D01*
X87799000Y99818801D01*
X87799000Y100981199D01*
X88025772Y102121256D01*
X88470602Y103195173D01*
X89116393Y104161667D01*
X89938333Y104983607D01*
X90904827Y105629398D01*
X91978744Y106074228D01*
X93118801Y106301000D01*
X94281199Y106301000D01*
X95421256Y106074228D01*
G37*
G36*
X77421256Y106074228D02*
G01*
X78495173Y105629398D01*
X79461667Y104983607D01*
X80283607Y104161667D01*
X80929398Y103195173D01*
X81374228Y102121256D01*
X81601000Y100981199D01*
X81601000Y99818801D01*
X81374228Y98678744D01*
X80929398Y97604827D01*
X80283607Y96638333D01*
X79461667Y95816393D01*
X78495173Y95170602D01*
X77421256Y94725772D01*
X76281199Y94499000D01*
X75118801Y94499000D01*
X73978744Y94725772D01*
X72904827Y95170602D01*
X71938333Y95816393D01*
X71116393Y96638333D01*
X70470602Y97604827D01*
X70025772Y98678744D01*
X69799000Y99818801D01*
X69799000Y100981199D01*
X70025772Y102121256D01*
X70470602Y103195173D01*
X71116393Y104161667D01*
X71938333Y104983607D01*
X72904827Y105629398D01*
X73978744Y106074228D01*
X75118801Y106301000D01*
X76281199Y106301000D01*
X77421256Y106074228D01*
G37*
G36*
X59421256Y106074228D02*
G01*
X60495173Y105629398D01*
X61461667Y104983607D01*
X62283607Y104161667D01*
X62929398Y103195173D01*
X63374228Y102121256D01*
X63601000Y100981199D01*
X63601000Y99818801D01*
X63374228Y98678744D01*
X62929398Y97604827D01*
X62283607Y96638333D01*
X61461667Y95816393D01*
X60495173Y95170602D01*
X59421256Y94725772D01*
X58281199Y94499000D01*
X57118801Y94499000D01*
X55978744Y94725772D01*
X54904827Y95170602D01*
X53938333Y95816393D01*
X53116393Y96638333D01*
X52470602Y97604827D01*
X52025772Y98678744D01*
X51799000Y99818801D01*
X51799000Y100981199D01*
X52025772Y102121256D01*
X52470602Y103195173D01*
X53116393Y104161667D01*
X53938333Y104983607D01*
X54904827Y105629398D01*
X55978744Y106074228D01*
X57118801Y106301000D01*
X58281199Y106301000D01*
X59421256Y106074228D01*
G37*
G36*
X41421256Y106074228D02*
G01*
X42495173Y105629398D01*
X43461667Y104983607D01*
X44283607Y104161667D01*
X44929398Y103195173D01*
X45374228Y102121256D01*
X45601000Y100981199D01*
X45601000Y99818801D01*
X45374228Y98678744D01*
X44929398Y97604827D01*
X44283607Y96638333D01*
X43461667Y95816393D01*
X42495173Y95170602D01*
X41421256Y94725772D01*
X40281199Y94499000D01*
X39118801Y94499000D01*
X37978744Y94725772D01*
X36904827Y95170602D01*
X35938333Y95816393D01*
X35116393Y96638333D01*
X34470602Y97604827D01*
X34025772Y98678744D01*
X33799000Y99818801D01*
X33799000Y100981199D01*
X34025772Y102121256D01*
X34470602Y103195173D01*
X35116393Y104161667D01*
X35938333Y104983607D01*
X36904827Y105629398D01*
X37978744Y106074228D01*
X39118801Y106301000D01*
X40281199Y106301000D01*
X41421256Y106074228D01*
G37*
G36*
X23421256Y106074228D02*
G01*
X24495173Y105629398D01*
X25461667Y104983607D01*
X26283607Y104161667D01*
X26929398Y103195173D01*
X27374228Y102121256D01*
X27601000Y100981199D01*
X27601000Y99818801D01*
X27374228Y98678744D01*
X26929398Y97604827D01*
X26283607Y96638333D01*
X25461667Y95816393D01*
X24495173Y95170602D01*
X23421256Y94725772D01*
X22281199Y94499000D01*
X21118801Y94499000D01*
X19978744Y94725772D01*
X18904827Y95170602D01*
X17938333Y95816393D01*
X17116393Y96638333D01*
X16470602Y97604827D01*
X16025772Y98678744D01*
X15799000Y99818801D01*
X15799000Y100981199D01*
X16025772Y102121256D01*
X16470602Y103195173D01*
X17116393Y104161667D01*
X17938333Y104983607D01*
X18904827Y105629398D01*
X19978744Y106074228D01*
X21118801Y106301000D01*
X22281199Y106301000D01*
X23421256Y106074228D01*
G37*
G36*
X257421256Y106074228D02*
G01*
X258495173Y105629398D01*
X259461667Y104983607D01*
X260283607Y104161667D01*
X260929398Y103195173D01*
X261374228Y102121256D01*
X261601000Y100981199D01*
X261601000Y99818801D01*
X261374228Y98678744D01*
X260929398Y97604827D01*
X260283607Y96638333D01*
X259461667Y95816393D01*
X258495173Y95170602D01*
X257421256Y94725772D01*
X256281199Y94499000D01*
X255118801Y94499000D01*
X253978744Y94725772D01*
X252904827Y95170602D01*
X251938333Y95816393D01*
X251116393Y96638333D01*
X250470602Y97604827D01*
X250025772Y98678744D01*
X249799000Y99818801D01*
X249799000Y100981199D01*
X250025772Y102121256D01*
X250470602Y103195173D01*
X251116393Y104161667D01*
X251938333Y104983607D01*
X252904827Y105629398D01*
X253978744Y106074228D01*
X255118801Y106301000D01*
X256281199Y106301000D01*
X257421256Y106074228D01*
G37*
G36*
X5421256Y106074228D02*
G01*
X6495173Y105629398D01*
X7461667Y104983607D01*
X8283607Y104161667D01*
X8929398Y103195173D01*
X9374228Y102121256D01*
X9601000Y100981199D01*
X9601000Y99818801D01*
X9374228Y98678744D01*
X8929398Y97604827D01*
X8283607Y96638333D01*
X7461667Y95816393D01*
X6495173Y95170602D01*
X5421256Y94725772D01*
X4281199Y94499000D01*
X3118801Y94499000D01*
X1978744Y94725772D01*
X904827Y95170602D01*
X-61667Y95816393D01*
X-883607Y96638333D01*
X-1529398Y97604827D01*
X-1974228Y98678744D01*
X-2201000Y99818801D01*
X-2201000Y100981199D01*
X-1974228Y102121256D01*
X-1529398Y103195173D01*
X-883607Y104161667D01*
X-61667Y104983607D01*
X904827Y105629398D01*
X1978744Y106074228D01*
X3118801Y106301000D01*
X4281199Y106301000D01*
X5421256Y106074228D01*
G37*
G36*
X-12578744Y106074228D02*
G01*
X-11504827Y105629398D01*
X-10538333Y104983607D01*
X-9716393Y104161667D01*
X-9070602Y103195173D01*
X-8625772Y102121256D01*
X-8399000Y100981199D01*
X-8399000Y99818801D01*
X-8625772Y98678744D01*
X-9070602Y97604827D01*
X-9716393Y96638333D01*
X-10538333Y95816393D01*
X-11504827Y95170602D01*
X-12578744Y94725772D01*
X-13718801Y94499000D01*
X-14881199Y94499000D01*
X-16021256Y94725772D01*
X-17095173Y95170602D01*
X-18061667Y95816393D01*
X-18883607Y96638333D01*
X-19529398Y97604827D01*
X-19974228Y98678744D01*
X-20201000Y99818801D01*
X-20201000Y100981199D01*
X-19974228Y102121256D01*
X-19529398Y103195173D01*
X-18883607Y104161667D01*
X-18061667Y104983607D01*
X-17095173Y105629398D01*
X-16021256Y106074228D01*
X-14881199Y106301000D01*
X-13718801Y106301000D01*
X-12578744Y106074228D01*
G37*
G36*
X239421256Y106074228D02*
G01*
X240495173Y105629398D01*
X241461667Y104983607D01*
X242283607Y104161667D01*
X242929398Y103195173D01*
X243374228Y102121256D01*
X243601000Y100981199D01*
X243601000Y99818801D01*
X243374228Y98678744D01*
X242929398Y97604827D01*
X242283607Y96638333D01*
X241461667Y95816393D01*
X240495173Y95170602D01*
X239421256Y94725772D01*
X238281199Y94499000D01*
X237118801Y94499000D01*
X235978744Y94725772D01*
X234904827Y95170602D01*
X233938333Y95816393D01*
X233116393Y96638333D01*
X232470602Y97604827D01*
X232025772Y98678744D01*
X231799000Y99818801D01*
X231799000Y100981199D01*
X232025772Y102121256D01*
X232470602Y103195173D01*
X233116393Y104161667D01*
X233938333Y104983607D01*
X234904827Y105629398D01*
X235978744Y106074228D01*
X237118801Y106301000D01*
X238281199Y106301000D01*
X239421256Y106074228D01*
G37*
G36*
X256196817Y112860930D02*
G01*
X256589652Y112782791D01*
X257144717Y112552875D01*
X257644262Y112219090D01*
X258069090Y111794262D01*
X258402875Y111294717D01*
X258632791Y110739652D01*
X258710930Y110346817D01*
X258735008Y110225772D01*
X258750000Y110150399D01*
X258750000Y109549601D01*
X258632791Y108960348D01*
X258402875Y108405283D01*
X258069090Y107905738D01*
X257644262Y107480910D01*
X257144717Y107147125D01*
X256589652Y106917209D01*
X256196817Y106839070D01*
X256000400Y106800000D01*
X255399600Y106800000D01*
X255203183Y106839070D01*
X254810348Y106917209D01*
X254255283Y107147125D01*
X253755738Y107480910D01*
X253330910Y107905738D01*
X252997125Y108405283D01*
X252767209Y108960348D01*
X252650000Y109549601D01*
X252650000Y110150399D01*
X252664993Y110225772D01*
X252689070Y110346817D01*
X252767209Y110739652D01*
X252997125Y111294717D01*
X253330910Y111794262D01*
X253755738Y112219090D01*
X254255283Y112552875D01*
X254810348Y112782791D01*
X255203183Y112860930D01*
X255399600Y112900000D01*
X256000400Y112900000D01*
X256196817Y112860930D01*
G37*
G36*
X184196817Y112860930D02*
G01*
X184589652Y112782791D01*
X185144717Y112552875D01*
X185644262Y112219090D01*
X186069090Y111794262D01*
X186402875Y111294717D01*
X186632791Y110739652D01*
X186710930Y110346817D01*
X186735008Y110225772D01*
X186750000Y110150399D01*
X186750000Y109549601D01*
X186632791Y108960348D01*
X186402875Y108405283D01*
X186069090Y107905738D01*
X185644262Y107480910D01*
X185144717Y107147125D01*
X184589652Y106917209D01*
X184196817Y106839070D01*
X184000400Y106800000D01*
X183399600Y106800000D01*
X183203183Y106839070D01*
X182810348Y106917209D01*
X182255283Y107147125D01*
X181755738Y107480910D01*
X181330910Y107905738D01*
X180997125Y108405283D01*
X180767209Y108960348D01*
X180650000Y109549601D01*
X180650000Y110150399D01*
X180664993Y110225772D01*
X180689070Y110346817D01*
X180767209Y110739652D01*
X180997125Y111294717D01*
X181330910Y111794262D01*
X181755738Y112219090D01*
X182255283Y112552875D01*
X182810348Y112782791D01*
X183203183Y112860930D01*
X183399600Y112900000D01*
X184000400Y112900000D01*
X184196817Y112860930D01*
G37*
G36*
X148196817Y112860930D02*
G01*
X148589652Y112782791D01*
X149144717Y112552875D01*
X149644262Y112219090D01*
X150069090Y111794262D01*
X150402875Y111294717D01*
X150632791Y110739652D01*
X150710930Y110346817D01*
X150735008Y110225772D01*
X150750000Y110150399D01*
X150750000Y109549601D01*
X150632791Y108960348D01*
X150402875Y108405283D01*
X150069090Y107905738D01*
X149644262Y107480910D01*
X149144717Y107147125D01*
X148589652Y106917209D01*
X148196817Y106839070D01*
X148000400Y106800000D01*
X147399600Y106800000D01*
X147203183Y106839070D01*
X146810348Y106917209D01*
X146255283Y107147125D01*
X145755738Y107480910D01*
X145330910Y107905738D01*
X144997125Y108405283D01*
X144767209Y108960348D01*
X144650000Y109549601D01*
X144650000Y110150399D01*
X144664993Y110225772D01*
X144689070Y110346817D01*
X144767209Y110739652D01*
X144997125Y111294717D01*
X145330910Y111794262D01*
X145755738Y112219090D01*
X146255283Y112552875D01*
X146810348Y112782791D01*
X147203183Y112860930D01*
X147399600Y112900000D01*
X148000400Y112900000D01*
X148196817Y112860930D01*
G37*
G36*
X130196817Y112860930D02*
G01*
X130589652Y112782791D01*
X131144717Y112552875D01*
X131644262Y112219090D01*
X132069090Y111794262D01*
X132402875Y111294717D01*
X132632791Y110739652D01*
X132710930Y110346817D01*
X132735008Y110225772D01*
X132750000Y110150399D01*
X132750000Y109549601D01*
X132632791Y108960348D01*
X132402875Y108405283D01*
X132069090Y107905738D01*
X131644262Y107480910D01*
X131144717Y107147125D01*
X130589652Y106917209D01*
X130196817Y106839070D01*
X130000400Y106800000D01*
X129399600Y106800000D01*
X129203183Y106839070D01*
X128810348Y106917209D01*
X128255283Y107147125D01*
X127755738Y107480910D01*
X127330910Y107905738D01*
X126997125Y108405283D01*
X126767209Y108960348D01*
X126650000Y109549601D01*
X126650000Y110150399D01*
X126664993Y110225772D01*
X126689070Y110346817D01*
X126767209Y110739652D01*
X126997125Y111294717D01*
X127330910Y111794262D01*
X127755738Y112219090D01*
X128255283Y112552875D01*
X128810348Y112782791D01*
X129203183Y112860930D01*
X129399600Y112900000D01*
X130000400Y112900000D01*
X130196817Y112860930D01*
G37*
G36*
X112196817Y112860930D02*
G01*
X112589652Y112782791D01*
X113144717Y112552875D01*
X113644262Y112219090D01*
X114069090Y111794262D01*
X114402875Y111294717D01*
X114632791Y110739652D01*
X114710930Y110346817D01*
X114735008Y110225772D01*
X114750000Y110150399D01*
X114750000Y109549601D01*
X114632791Y108960348D01*
X114402875Y108405283D01*
X114069090Y107905738D01*
X113644262Y107480910D01*
X113144717Y107147125D01*
X112589652Y106917209D01*
X112196817Y106839070D01*
X112000400Y106800000D01*
X111399600Y106800000D01*
X111203183Y106839070D01*
X110810348Y106917209D01*
X110255283Y107147125D01*
X109755738Y107480910D01*
X109330910Y107905738D01*
X108997125Y108405283D01*
X108767209Y108960348D01*
X108650000Y109549601D01*
X108650000Y110150399D01*
X108664993Y110225772D01*
X108689070Y110346817D01*
X108767209Y110739652D01*
X108997125Y111294717D01*
X109330910Y111794262D01*
X109755738Y112219090D01*
X110255283Y112552875D01*
X110810348Y112782791D01*
X111203183Y112860930D01*
X111399600Y112900000D01*
X112000400Y112900000D01*
X112196817Y112860930D01*
G37*
G36*
X94196817Y112860930D02*
G01*
X94589652Y112782791D01*
X95144717Y112552875D01*
X95644262Y112219090D01*
X96069090Y111794262D01*
X96402875Y111294717D01*
X96632791Y110739652D01*
X96710930Y110346817D01*
X96735008Y110225772D01*
X96750000Y110150399D01*
X96750000Y109549601D01*
X96632791Y108960348D01*
X96402875Y108405283D01*
X96069090Y107905738D01*
X95644262Y107480910D01*
X95144717Y107147125D01*
X94589652Y106917209D01*
X94196817Y106839070D01*
X94000400Y106800000D01*
X93399600Y106800000D01*
X93203183Y106839070D01*
X92810348Y106917209D01*
X92255283Y107147125D01*
X91755738Y107480910D01*
X91330910Y107905738D01*
X90997125Y108405283D01*
X90767209Y108960348D01*
X90650000Y109549601D01*
X90650000Y110150399D01*
X90664993Y110225772D01*
X90689070Y110346817D01*
X90767209Y110739652D01*
X90997125Y111294717D01*
X91330910Y111794262D01*
X91755738Y112219090D01*
X92255283Y112552875D01*
X92810348Y112782791D01*
X93203183Y112860930D01*
X93399600Y112900000D01*
X94000400Y112900000D01*
X94196817Y112860930D01*
G37*
G36*
X76196817Y112860930D02*
G01*
X76589652Y112782791D01*
X77144717Y112552875D01*
X77644262Y112219090D01*
X78069090Y111794262D01*
X78402875Y111294717D01*
X78632791Y110739652D01*
X78710930Y110346817D01*
X78735008Y110225772D01*
X78750000Y110150399D01*
X78750000Y109549601D01*
X78632791Y108960348D01*
X78402875Y108405283D01*
X78069090Y107905738D01*
X77644262Y107480910D01*
X77144717Y107147125D01*
X76589652Y106917209D01*
X76196817Y106839070D01*
X76000400Y106800000D01*
X75399600Y106800000D01*
X75203183Y106839070D01*
X74810348Y106917209D01*
X74255283Y107147125D01*
X73755738Y107480910D01*
X73330910Y107905738D01*
X72997125Y108405283D01*
X72767209Y108960348D01*
X72650000Y109549601D01*
X72650000Y110150399D01*
X72664993Y110225772D01*
X72689070Y110346817D01*
X72767209Y110739652D01*
X72997125Y111294717D01*
X73330910Y111794262D01*
X73755738Y112219090D01*
X74255283Y112552875D01*
X74810348Y112782791D01*
X75203183Y112860930D01*
X75399600Y112900000D01*
X76000400Y112900000D01*
X76196817Y112860930D01*
G37*
G36*
X40196817Y112860930D02*
G01*
X40589652Y112782791D01*
X41144717Y112552875D01*
X41644262Y112219090D01*
X42069090Y111794262D01*
X42402875Y111294717D01*
X42632791Y110739652D01*
X42710930Y110346817D01*
X42735008Y110225772D01*
X42750000Y110150399D01*
X42750000Y109549601D01*
X42632791Y108960348D01*
X42402875Y108405283D01*
X42069090Y107905738D01*
X41644262Y107480910D01*
X41144717Y107147125D01*
X40589652Y106917209D01*
X40196817Y106839070D01*
X40000400Y106800000D01*
X39399600Y106800000D01*
X39203183Y106839070D01*
X38810348Y106917209D01*
X38255283Y107147125D01*
X37755738Y107480910D01*
X37330910Y107905738D01*
X36997125Y108405283D01*
X36767209Y108960348D01*
X36650000Y109549601D01*
X36650000Y110150399D01*
X36664993Y110225772D01*
X36689070Y110346817D01*
X36767209Y110739652D01*
X36997125Y111294717D01*
X37330910Y111794262D01*
X37755738Y112219090D01*
X38255283Y112552875D01*
X38810348Y112782791D01*
X39203183Y112860930D01*
X39399600Y112900000D01*
X40000400Y112900000D01*
X40196817Y112860930D01*
G37*
G36*
X22196817Y112860930D02*
G01*
X22589652Y112782791D01*
X23144717Y112552875D01*
X23644262Y112219090D01*
X24069090Y111794262D01*
X24402875Y111294717D01*
X24632791Y110739652D01*
X24710930Y110346817D01*
X24735008Y110225772D01*
X24750000Y110150399D01*
X24750000Y109549601D01*
X24632791Y108960348D01*
X24402875Y108405283D01*
X24069090Y107905738D01*
X23644262Y107480910D01*
X23144717Y107147125D01*
X22589652Y106917209D01*
X22196817Y106839070D01*
X22000400Y106800000D01*
X21399600Y106800000D01*
X21203183Y106839070D01*
X20810348Y106917209D01*
X20255283Y107147125D01*
X19755738Y107480910D01*
X19330910Y107905738D01*
X18997125Y108405283D01*
X18767209Y108960348D01*
X18650000Y109549601D01*
X18650000Y110150399D01*
X18664993Y110225772D01*
X18689070Y110346817D01*
X18767209Y110739652D01*
X18997125Y111294717D01*
X19330910Y111794262D01*
X19755738Y112219090D01*
X20255283Y112552875D01*
X20810348Y112782791D01*
X21203183Y112860930D01*
X21399600Y112900000D01*
X22000400Y112900000D01*
X22196817Y112860930D01*
G37*
G36*
X58196817Y112860930D02*
G01*
X58589652Y112782791D01*
X59144717Y112552875D01*
X59644262Y112219090D01*
X60069090Y111794262D01*
X60402875Y111294717D01*
X60632791Y110739652D01*
X60710930Y110346817D01*
X60735008Y110225772D01*
X60750000Y110150399D01*
X60750000Y109549601D01*
X60632791Y108960348D01*
X60402875Y108405283D01*
X60069090Y107905738D01*
X59644262Y107480910D01*
X59144717Y107147125D01*
X58589652Y106917209D01*
X58196817Y106839070D01*
X58000400Y106800000D01*
X57399600Y106800000D01*
X57203183Y106839070D01*
X56810348Y106917209D01*
X56255283Y107147125D01*
X55755738Y107480910D01*
X55330910Y107905738D01*
X54997125Y108405283D01*
X54767209Y108960348D01*
X54650000Y109549601D01*
X54650000Y110150399D01*
X54664993Y110225772D01*
X54689070Y110346817D01*
X54767209Y110739652D01*
X54997125Y111294717D01*
X55330910Y111794262D01*
X55755738Y112219090D01*
X56255283Y112552875D01*
X56810348Y112782791D01*
X57203183Y112860930D01*
X57399600Y112900000D01*
X58000400Y112900000D01*
X58196817Y112860930D01*
G37*
G36*
X238196817Y112860930D02*
G01*
X238589652Y112782791D01*
X239144717Y112552875D01*
X239644262Y112219090D01*
X240069090Y111794262D01*
X240402875Y111294717D01*
X240632791Y110739652D01*
X240710930Y110346817D01*
X240735008Y110225772D01*
X240750000Y110150399D01*
X240750000Y109549601D01*
X240632791Y108960348D01*
X240402875Y108405283D01*
X240069090Y107905738D01*
X239644262Y107480910D01*
X239144717Y107147125D01*
X238589652Y106917209D01*
X238196817Y106839070D01*
X238000400Y106800000D01*
X237399600Y106800000D01*
X237203183Y106839070D01*
X236810348Y106917209D01*
X236255283Y107147125D01*
X235755738Y107480910D01*
X235330910Y107905738D01*
X234997125Y108405283D01*
X234767209Y108960348D01*
X234650000Y109549601D01*
X234650000Y110150399D01*
X234664993Y110225772D01*
X234689070Y110346817D01*
X234767209Y110739652D01*
X234997125Y111294717D01*
X235330910Y111794262D01*
X235755738Y112219090D01*
X236255283Y112552875D01*
X236810348Y112782791D01*
X237203183Y112860930D01*
X237399600Y112900000D01*
X238000400Y112900000D01*
X238196817Y112860930D01*
G37*
G36*
X220196817Y112860930D02*
G01*
X220589652Y112782791D01*
X221144717Y112552875D01*
X221644262Y112219090D01*
X222069090Y111794262D01*
X222402875Y111294717D01*
X222632791Y110739652D01*
X222710930Y110346817D01*
X222735008Y110225772D01*
X222750000Y110150399D01*
X222750000Y109549601D01*
X222632791Y108960348D01*
X222402875Y108405283D01*
X222069090Y107905738D01*
X221644262Y107480910D01*
X221144717Y107147125D01*
X220589652Y106917209D01*
X220196817Y106839070D01*
X220000400Y106800000D01*
X219399600Y106800000D01*
X219203183Y106839070D01*
X218810348Y106917209D01*
X218255283Y107147125D01*
X217755738Y107480910D01*
X217330910Y107905738D01*
X216997125Y108405283D01*
X216767209Y108960348D01*
X216650000Y109549601D01*
X216650000Y110150399D01*
X216664993Y110225772D01*
X216689070Y110346817D01*
X216767209Y110739652D01*
X216997125Y111294717D01*
X217330910Y111794262D01*
X217755738Y112219090D01*
X218255283Y112552875D01*
X218810348Y112782791D01*
X219203183Y112860930D01*
X219399600Y112900000D01*
X220000400Y112900000D01*
X220196817Y112860930D01*
G37*
G36*
X4196817Y112860930D02*
G01*
X4589652Y112782791D01*
X5144717Y112552875D01*
X5644262Y112219090D01*
X6069090Y111794262D01*
X6402875Y111294717D01*
X6632791Y110739652D01*
X6710930Y110346817D01*
X6735008Y110225772D01*
X6750000Y110150399D01*
X6750000Y109549601D01*
X6632791Y108960348D01*
X6402875Y108405283D01*
X6069090Y107905738D01*
X5644262Y107480910D01*
X5144717Y107147125D01*
X4589652Y106917209D01*
X4196817Y106839070D01*
X4000400Y106800000D01*
X3399600Y106800000D01*
X3203183Y106839070D01*
X2810348Y106917209D01*
X2255283Y107147125D01*
X1755738Y107480910D01*
X1330910Y107905738D01*
X997125Y108405283D01*
X767209Y108960348D01*
X650000Y109549601D01*
X650000Y110150399D01*
X664993Y110225772D01*
X689070Y110346817D01*
X767209Y110739652D01*
X997125Y111294717D01*
X1330910Y111794262D01*
X1755738Y112219090D01*
X2255283Y112552875D01*
X2810348Y112782791D01*
X3203183Y112860930D01*
X3399600Y112900000D01*
X4000400Y112900000D01*
X4196817Y112860930D01*
G37*
G36*
X202196817Y112860930D02*
G01*
X202589652Y112782791D01*
X203144717Y112552875D01*
X203644262Y112219090D01*
X204069090Y111794262D01*
X204402875Y111294717D01*
X204632791Y110739652D01*
X204710930Y110346817D01*
X204735008Y110225772D01*
X204750000Y110150399D01*
X204750000Y109549601D01*
X204632791Y108960348D01*
X204402875Y108405283D01*
X204069090Y107905738D01*
X203644262Y107480910D01*
X203144717Y107147125D01*
X202589652Y106917209D01*
X202196817Y106839070D01*
X202000400Y106800000D01*
X201399600Y106800000D01*
X201203183Y106839070D01*
X200810348Y106917209D01*
X200255283Y107147125D01*
X199755738Y107480910D01*
X199330910Y107905738D01*
X198997125Y108405283D01*
X198767209Y108960348D01*
X198650000Y109549601D01*
X198650000Y110150399D01*
X198664993Y110225772D01*
X198689070Y110346817D01*
X198767209Y110739652D01*
X198997125Y111294717D01*
X199330910Y111794262D01*
X199755738Y112219090D01*
X200255283Y112552875D01*
X200810348Y112782791D01*
X201203183Y112860930D01*
X201399600Y112900000D01*
X202000400Y112900000D01*
X202196817Y112860930D01*
G37*
G36*
X-13803183Y112860930D02*
G01*
X-13410348Y112782791D01*
X-12855283Y112552875D01*
X-12355738Y112219090D01*
X-11930910Y111794262D01*
X-11597125Y111294717D01*
X-11367209Y110739652D01*
X-11289070Y110346817D01*
X-11264992Y110225772D01*
X-11250000Y110150399D01*
X-11250000Y109549601D01*
X-11367209Y108960348D01*
X-11597125Y108405283D01*
X-11930910Y107905738D01*
X-12355738Y107480910D01*
X-12855283Y107147125D01*
X-13410348Y106917209D01*
X-13803183Y106839070D01*
X-13999600Y106800000D01*
X-14600400Y106800000D01*
X-14796817Y106839070D01*
X-15189652Y106917209D01*
X-15744717Y107147125D01*
X-16244262Y107480910D01*
X-16669090Y107905738D01*
X-17002875Y108405283D01*
X-17232791Y108960348D01*
X-17350000Y109549601D01*
X-17350000Y110150399D01*
X-17335007Y110225772D01*
X-17310930Y110346817D01*
X-17232791Y110739652D01*
X-17002875Y111294717D01*
X-16669090Y111794262D01*
X-16244262Y112219090D01*
X-15744717Y112552875D01*
X-15189652Y112782791D01*
X-14796817Y112860930D01*
X-14600400Y112900000D01*
X-13999600Y112900000D01*
X-13803183Y112860930D01*
G37*
G36*
X166196817Y112860930D02*
G01*
X166589652Y112782791D01*
X167144717Y112552875D01*
X167644262Y112219090D01*
X168069090Y111794262D01*
X168402875Y111294717D01*
X168632791Y110739652D01*
X168710930Y110346817D01*
X168735008Y110225772D01*
X168750000Y110150399D01*
X168750000Y109549601D01*
X168632791Y108960348D01*
X168402875Y108405283D01*
X168069090Y107905738D01*
X167644262Y107480910D01*
X167144717Y107147125D01*
X166589652Y106917209D01*
X166196817Y106839070D01*
X166000400Y106800000D01*
X165399600Y106800000D01*
X165203183Y106839070D01*
X164810348Y106917209D01*
X164255283Y107147125D01*
X163755738Y107480910D01*
X163330910Y107905738D01*
X162997125Y108405283D01*
X162767209Y108960348D01*
X162650000Y109549601D01*
X162650000Y110150399D01*
X162664993Y110225772D01*
X162689070Y110346817D01*
X162767209Y110739652D01*
X162997125Y111294717D01*
X163330910Y111794262D01*
X163755738Y112219090D01*
X164255283Y112552875D01*
X164810348Y112782791D01*
X165203183Y112860930D01*
X165399600Y112900000D01*
X166000400Y112900000D01*
X166196817Y112860930D01*
G37*
G36*
X140421256Y121574228D02*
G01*
X141495173Y121129398D01*
X142461667Y120483607D01*
X143283607Y119661667D01*
X143929398Y118695173D01*
X144374228Y117621256D01*
X144601000Y116481199D01*
X144601000Y115318801D01*
X144374228Y114178744D01*
X143929398Y113104827D01*
X143283607Y112138333D01*
X142461667Y111316393D01*
X141495173Y110670602D01*
X140421256Y110225772D01*
X139281199Y109999000D01*
X138118801Y109999000D01*
X136978744Y110225772D01*
X135904827Y110670602D01*
X134938333Y111316393D01*
X134116393Y112138333D01*
X133470602Y113104827D01*
X133025772Y114178744D01*
X132799000Y115318801D01*
X132799000Y116481199D01*
X133025772Y117621256D01*
X133470602Y118695173D01*
X134116393Y119661667D01*
X134938333Y120483607D01*
X135904827Y121129398D01*
X136978744Y121574228D01*
X138118801Y121801000D01*
X139281199Y121801000D01*
X140421256Y121574228D01*
G37*
G36*
X86421256Y121574228D02*
G01*
X87495173Y121129398D01*
X88461667Y120483607D01*
X89283607Y119661667D01*
X89929398Y118695173D01*
X90374228Y117621256D01*
X90601000Y116481199D01*
X90601000Y115318801D01*
X90374228Y114178744D01*
X89929398Y113104827D01*
X89283607Y112138333D01*
X88461667Y111316393D01*
X87495173Y110670602D01*
X86421256Y110225772D01*
X85281199Y109999000D01*
X84118801Y109999000D01*
X82978744Y110225772D01*
X81904827Y110670602D01*
X80938333Y111316393D01*
X80116393Y112138333D01*
X79470602Y113104827D01*
X79025772Y114178744D01*
X78799000Y115318801D01*
X78799000Y116481199D01*
X79025772Y117621256D01*
X79470602Y118695173D01*
X80116393Y119661667D01*
X80938333Y120483607D01*
X81904827Y121129398D01*
X82978744Y121574228D01*
X84118801Y121801000D01*
X85281199Y121801000D01*
X86421256Y121574228D01*
G37*
G36*
X230421256Y121574228D02*
G01*
X231495173Y121129398D01*
X232461667Y120483607D01*
X233283607Y119661667D01*
X233929398Y118695173D01*
X234374228Y117621256D01*
X234601000Y116481199D01*
X234601000Y115318801D01*
X234374228Y114178744D01*
X233929398Y113104827D01*
X233283607Y112138333D01*
X232461667Y111316393D01*
X231495173Y110670602D01*
X230421256Y110225772D01*
X229281199Y109999000D01*
X228118801Y109999000D01*
X226978744Y110225772D01*
X225904827Y110670602D01*
X224938333Y111316393D01*
X224116393Y112138333D01*
X223470602Y113104827D01*
X223025772Y114178744D01*
X222799000Y115318801D01*
X222799000Y116481199D01*
X223025772Y117621256D01*
X223470602Y118695173D01*
X224116393Y119661667D01*
X224938333Y120483607D01*
X225904827Y121129398D01*
X226978744Y121574228D01*
X228118801Y121801000D01*
X229281199Y121801000D01*
X230421256Y121574228D01*
G37*
G36*
X212421256Y121574228D02*
G01*
X213495173Y121129398D01*
X214461667Y120483607D01*
X215283607Y119661667D01*
X215929398Y118695173D01*
X216374228Y117621256D01*
X216601000Y116481199D01*
X216601000Y115318801D01*
X216374228Y114178744D01*
X215929398Y113104827D01*
X215283607Y112138333D01*
X214461667Y111316393D01*
X213495173Y110670602D01*
X212421256Y110225772D01*
X211281199Y109999000D01*
X210118801Y109999000D01*
X208978744Y110225772D01*
X207904827Y110670602D01*
X206938333Y111316393D01*
X206116393Y112138333D01*
X205470602Y113104827D01*
X205025772Y114178744D01*
X204799000Y115318801D01*
X204799000Y116481199D01*
X205025772Y117621256D01*
X205470602Y118695173D01*
X206116393Y119661667D01*
X206938333Y120483607D01*
X207904827Y121129398D01*
X208978744Y121574228D01*
X210118801Y121801000D01*
X211281199Y121801000D01*
X212421256Y121574228D01*
G37*
G36*
X68421256Y121574228D02*
G01*
X69495173Y121129398D01*
X70461667Y120483607D01*
X71283607Y119661667D01*
X71929398Y118695173D01*
X72374228Y117621256D01*
X72601000Y116481199D01*
X72601000Y115318801D01*
X72374228Y114178744D01*
X71929398Y113104827D01*
X71283607Y112138333D01*
X70461667Y111316393D01*
X69495173Y110670602D01*
X68421256Y110225772D01*
X67281199Y109999000D01*
X66118801Y109999000D01*
X64978744Y110225772D01*
X63904827Y110670602D01*
X62938333Y111316393D01*
X62116393Y112138333D01*
X61470602Y113104827D01*
X61025772Y114178744D01*
X60799000Y115318801D01*
X60799000Y116481199D01*
X61025772Y117621256D01*
X61470602Y118695173D01*
X62116393Y119661667D01*
X62938333Y120483607D01*
X63904827Y121129398D01*
X64978744Y121574228D01*
X66118801Y121801000D01*
X67281199Y121801000D01*
X68421256Y121574228D01*
G37*
G36*
X194421256Y121574228D02*
G01*
X195495173Y121129398D01*
X196461667Y120483607D01*
X197283607Y119661667D01*
X197929398Y118695173D01*
X198374228Y117621256D01*
X198601000Y116481199D01*
X198601000Y115318801D01*
X198374228Y114178744D01*
X197929398Y113104827D01*
X197283607Y112138333D01*
X196461667Y111316393D01*
X195495173Y110670602D01*
X194421256Y110225772D01*
X193281199Y109999000D01*
X192118801Y109999000D01*
X190978744Y110225772D01*
X189904827Y110670602D01*
X188938333Y111316393D01*
X188116393Y112138333D01*
X187470602Y113104827D01*
X187025772Y114178744D01*
X186799000Y115318801D01*
X186799000Y116481199D01*
X187025772Y117621256D01*
X187470602Y118695173D01*
X188116393Y119661667D01*
X188938333Y120483607D01*
X189904827Y121129398D01*
X190978744Y121574228D01*
X192118801Y121801000D01*
X193281199Y121801000D01*
X194421256Y121574228D01*
G37*
G36*
X158421256Y121574228D02*
G01*
X159495173Y121129398D01*
X160461667Y120483607D01*
X161283607Y119661667D01*
X161929398Y118695173D01*
X162374228Y117621256D01*
X162601000Y116481199D01*
X162601000Y115318801D01*
X162374228Y114178744D01*
X161929398Y113104827D01*
X161283607Y112138333D01*
X160461667Y111316393D01*
X159495173Y110670602D01*
X158421256Y110225772D01*
X157281199Y109999000D01*
X156118801Y109999000D01*
X154978744Y110225772D01*
X153904827Y110670602D01*
X152938333Y111316393D01*
X152116393Y112138333D01*
X151470602Y113104827D01*
X151025772Y114178744D01*
X150799000Y115318801D01*
X150799000Y116481199D01*
X151025772Y117621256D01*
X151470602Y118695173D01*
X152116393Y119661667D01*
X152938333Y120483607D01*
X153904827Y121129398D01*
X154978744Y121574228D01*
X156118801Y121801000D01*
X157281199Y121801000D01*
X158421256Y121574228D01*
G37*
G36*
X104421256Y121574228D02*
G01*
X105495173Y121129398D01*
X106461667Y120483607D01*
X107283607Y119661667D01*
X107929398Y118695173D01*
X108374228Y117621256D01*
X108601000Y116481199D01*
X108601000Y115318801D01*
X108374228Y114178744D01*
X107929398Y113104827D01*
X107283607Y112138333D01*
X106461667Y111316393D01*
X105495173Y110670602D01*
X104421256Y110225772D01*
X103281199Y109999000D01*
X102118801Y109999000D01*
X100978744Y110225772D01*
X99904827Y110670602D01*
X98938333Y111316393D01*
X98116393Y112138333D01*
X97470602Y113104827D01*
X97025772Y114178744D01*
X96799000Y115318801D01*
X96799000Y116481199D01*
X97025772Y117621256D01*
X97470602Y118695173D01*
X98116393Y119661667D01*
X98938333Y120483607D01*
X99904827Y121129398D01*
X100978744Y121574228D01*
X102118801Y121801000D01*
X103281199Y121801000D01*
X104421256Y121574228D01*
G37*
G36*
X32421256Y121574228D02*
G01*
X33495173Y121129398D01*
X34461667Y120483607D01*
X35283607Y119661667D01*
X35929398Y118695173D01*
X36374228Y117621256D01*
X36601000Y116481199D01*
X36601000Y115318801D01*
X36374228Y114178744D01*
X35929398Y113104827D01*
X35283607Y112138333D01*
X34461667Y111316393D01*
X33495173Y110670602D01*
X32421256Y110225772D01*
X31281199Y109999000D01*
X30118801Y109999000D01*
X28978744Y110225772D01*
X27904827Y110670602D01*
X26938333Y111316393D01*
X26116393Y112138333D01*
X25470602Y113104827D01*
X25025772Y114178744D01*
X24799000Y115318801D01*
X24799000Y116481199D01*
X25025772Y117621256D01*
X25470602Y118695173D01*
X26116393Y119661667D01*
X26938333Y120483607D01*
X27904827Y121129398D01*
X28978744Y121574228D01*
X30118801Y121801000D01*
X31281199Y121801000D01*
X32421256Y121574228D01*
G37*
G36*
X14421256Y121574228D02*
G01*
X15495173Y121129398D01*
X16461667Y120483607D01*
X17283607Y119661667D01*
X17929398Y118695173D01*
X18374228Y117621256D01*
X18601000Y116481199D01*
X18601000Y115318801D01*
X18374228Y114178744D01*
X17929398Y113104827D01*
X17283607Y112138333D01*
X16461667Y111316393D01*
X15495173Y110670602D01*
X14421256Y110225772D01*
X13281199Y109999000D01*
X12118801Y109999000D01*
X10978744Y110225772D01*
X9904827Y110670602D01*
X8938333Y111316393D01*
X8116393Y112138333D01*
X7470602Y113104827D01*
X7025772Y114178744D01*
X6799000Y115318801D01*
X6799000Y116481199D01*
X7025772Y117621256D01*
X7470602Y118695173D01*
X8116393Y119661667D01*
X8938333Y120483607D01*
X9904827Y121129398D01*
X10978744Y121574228D01*
X12118801Y121801000D01*
X13281199Y121801000D01*
X14421256Y121574228D01*
G37*
G36*
X229196817Y128360930D02*
G01*
X229589652Y128282791D01*
X230144717Y128052875D01*
X230644262Y127719090D01*
X231069090Y127294262D01*
X231402875Y126794717D01*
X231632791Y126239652D01*
X231750000Y125650399D01*
X231750000Y125049601D01*
X231632791Y124460348D01*
X231402875Y123905283D01*
X231069090Y123405738D01*
X230644262Y122980910D01*
X230144717Y122647125D01*
X229589652Y122417209D01*
X229196817Y122339070D01*
X229000400Y122300000D01*
X228399600Y122300000D01*
X228203183Y122339070D01*
X227810348Y122417209D01*
X227255283Y122647125D01*
X226755738Y122980910D01*
X226330910Y123405738D01*
X225997125Y123905283D01*
X225767209Y124460348D01*
X225650000Y125049601D01*
X225650000Y125650399D01*
X225767209Y126239652D01*
X225997125Y126794717D01*
X226330910Y127294262D01*
X226755738Y127719090D01*
X227255283Y128052875D01*
X227810348Y128282791D01*
X228203183Y128360930D01*
X228399600Y128400000D01*
X229000400Y128400000D01*
X229196817Y128360930D01*
G37*
G36*
X67196817Y128360930D02*
G01*
X67589652Y128282791D01*
X68144717Y128052875D01*
X68644262Y127719090D01*
X69069090Y127294262D01*
X69402875Y126794717D01*
X69632791Y126239652D01*
X69750000Y125650399D01*
X69750000Y125049601D01*
X69632791Y124460348D01*
X69402875Y123905283D01*
X69069090Y123405738D01*
X68644262Y122980910D01*
X68144717Y122647125D01*
X67589652Y122417209D01*
X67196817Y122339070D01*
X67000400Y122300000D01*
X66399600Y122300000D01*
X66203183Y122339070D01*
X65810348Y122417209D01*
X65255283Y122647125D01*
X64755738Y122980910D01*
X64330910Y123405738D01*
X63997125Y123905283D01*
X63767209Y124460348D01*
X63650000Y125049601D01*
X63650000Y125650399D01*
X63767209Y126239652D01*
X63997125Y126794717D01*
X64330910Y127294262D01*
X64755738Y127719090D01*
X65255283Y128052875D01*
X65810348Y128282791D01*
X66203183Y128360930D01*
X66399600Y128400000D01*
X67000400Y128400000D01*
X67196817Y128360930D01*
G37*
G36*
X85196817Y128360930D02*
G01*
X85589652Y128282791D01*
X86144717Y128052875D01*
X86644262Y127719090D01*
X87069090Y127294262D01*
X87402875Y126794717D01*
X87632791Y126239652D01*
X87750000Y125650399D01*
X87750000Y125049601D01*
X87632791Y124460348D01*
X87402875Y123905283D01*
X87069090Y123405738D01*
X86644262Y122980910D01*
X86144717Y122647125D01*
X85589652Y122417209D01*
X85196817Y122339070D01*
X85000400Y122300000D01*
X84399600Y122300000D01*
X84203183Y122339070D01*
X83810348Y122417209D01*
X83255283Y122647125D01*
X82755738Y122980910D01*
X82330910Y123405738D01*
X81997125Y123905283D01*
X81767209Y124460348D01*
X81650000Y125049601D01*
X81650000Y125650399D01*
X81767209Y126239652D01*
X81997125Y126794717D01*
X82330910Y127294262D01*
X82755738Y127719090D01*
X83255283Y128052875D01*
X83810348Y128282791D01*
X84203183Y128360930D01*
X84399600Y128400000D01*
X85000400Y128400000D01*
X85196817Y128360930D01*
G37*
G36*
X13196817Y128360930D02*
G01*
X13589652Y128282791D01*
X14144717Y128052875D01*
X14644262Y127719090D01*
X15069090Y127294262D01*
X15402875Y126794717D01*
X15632791Y126239652D01*
X15750000Y125650399D01*
X15750000Y125049601D01*
X15632791Y124460348D01*
X15402875Y123905283D01*
X15069090Y123405738D01*
X14644262Y122980910D01*
X14144717Y122647125D01*
X13589652Y122417209D01*
X13196817Y122339070D01*
X13000400Y122300000D01*
X12399600Y122300000D01*
X12203183Y122339070D01*
X11810348Y122417209D01*
X11255283Y122647125D01*
X10755738Y122980910D01*
X10330910Y123405738D01*
X9997125Y123905283D01*
X9767209Y124460348D01*
X9650000Y125049601D01*
X9650000Y125650399D01*
X9767209Y126239652D01*
X9997125Y126794717D01*
X10330910Y127294262D01*
X10755738Y127719090D01*
X11255283Y128052875D01*
X11810348Y128282791D01*
X12203183Y128360930D01*
X12399600Y128400000D01*
X13000400Y128400000D01*
X13196817Y128360930D01*
G37*
G36*
X31196817Y128360930D02*
G01*
X31589652Y128282791D01*
X32144717Y128052875D01*
X32644262Y127719090D01*
X33069090Y127294262D01*
X33402875Y126794717D01*
X33632791Y126239652D01*
X33750000Y125650399D01*
X33750000Y125049601D01*
X33632791Y124460348D01*
X33402875Y123905283D01*
X33069090Y123405738D01*
X32644262Y122980910D01*
X32144717Y122647125D01*
X31589652Y122417209D01*
X31196817Y122339070D01*
X31000400Y122300000D01*
X30399600Y122300000D01*
X30203183Y122339070D01*
X29810348Y122417209D01*
X29255283Y122647125D01*
X28755738Y122980910D01*
X28330910Y123405738D01*
X27997125Y123905283D01*
X27767209Y124460348D01*
X27650000Y125049601D01*
X27650000Y125650399D01*
X27767209Y126239652D01*
X27997125Y126794717D01*
X28330910Y127294262D01*
X28755738Y127719090D01*
X29255283Y128052875D01*
X29810348Y128282791D01*
X30203183Y128360930D01*
X30399600Y128400000D01*
X31000400Y128400000D01*
X31196817Y128360930D01*
G37*
G36*
X211196817Y128360930D02*
G01*
X211589652Y128282791D01*
X212144717Y128052875D01*
X212644262Y127719090D01*
X213069090Y127294262D01*
X213402875Y126794717D01*
X213632791Y126239652D01*
X213750000Y125650399D01*
X213750000Y125049601D01*
X213632791Y124460348D01*
X213402875Y123905283D01*
X213069090Y123405738D01*
X212644262Y122980910D01*
X212144717Y122647125D01*
X211589652Y122417209D01*
X211196817Y122339070D01*
X211000400Y122300000D01*
X210399600Y122300000D01*
X210203183Y122339070D01*
X209810348Y122417209D01*
X209255283Y122647125D01*
X208755738Y122980910D01*
X208330910Y123405738D01*
X207997125Y123905283D01*
X207767209Y124460348D01*
X207650000Y125049601D01*
X207650000Y125650399D01*
X207767209Y126239652D01*
X207997125Y126794717D01*
X208330910Y127294262D01*
X208755738Y127719090D01*
X209255283Y128052875D01*
X209810348Y128282791D01*
X210203183Y128360930D01*
X210399600Y128400000D01*
X211000400Y128400000D01*
X211196817Y128360930D01*
G37*
G36*
X139196817Y128360930D02*
G01*
X139589652Y128282791D01*
X140144717Y128052875D01*
X140644262Y127719090D01*
X141069090Y127294262D01*
X141402875Y126794717D01*
X141632791Y126239652D01*
X141750000Y125650399D01*
X141750000Y125049601D01*
X141632791Y124460348D01*
X141402875Y123905283D01*
X141069090Y123405738D01*
X140644262Y122980910D01*
X140144717Y122647125D01*
X139589652Y122417209D01*
X139196817Y122339070D01*
X139000400Y122300000D01*
X138399600Y122300000D01*
X138203183Y122339070D01*
X137810348Y122417209D01*
X137255283Y122647125D01*
X136755738Y122980910D01*
X136330910Y123405738D01*
X135997125Y123905283D01*
X135767209Y124460348D01*
X135650000Y125049601D01*
X135650000Y125650399D01*
X135767209Y126239652D01*
X135997125Y126794717D01*
X136330910Y127294262D01*
X136755738Y127719090D01*
X137255283Y128052875D01*
X137810348Y128282791D01*
X138203183Y128360930D01*
X138399600Y128400000D01*
X139000400Y128400000D01*
X139196817Y128360930D01*
G37*
G36*
X157196817Y128360930D02*
G01*
X157589652Y128282791D01*
X158144717Y128052875D01*
X158644262Y127719090D01*
X159069090Y127294262D01*
X159402875Y126794717D01*
X159632791Y126239652D01*
X159750000Y125650399D01*
X159750000Y125049601D01*
X159632791Y124460348D01*
X159402875Y123905283D01*
X159069090Y123405738D01*
X158644262Y122980910D01*
X158144717Y122647125D01*
X157589652Y122417209D01*
X157196817Y122339070D01*
X157000400Y122300000D01*
X156399600Y122300000D01*
X156203183Y122339070D01*
X155810348Y122417209D01*
X155255283Y122647125D01*
X154755738Y122980910D01*
X154330910Y123405738D01*
X153997125Y123905283D01*
X153767209Y124460348D01*
X153650000Y125049601D01*
X153650000Y125650399D01*
X153767209Y126239652D01*
X153997125Y126794717D01*
X154330910Y127294262D01*
X154755738Y127719090D01*
X155255283Y128052875D01*
X155810348Y128282791D01*
X156203183Y128360930D01*
X156399600Y128400000D01*
X157000400Y128400000D01*
X157196817Y128360930D01*
G37*
G36*
X193196817Y128360930D02*
G01*
X193589652Y128282791D01*
X194144717Y128052875D01*
X194644262Y127719090D01*
X195069090Y127294262D01*
X195402875Y126794717D01*
X195632791Y126239652D01*
X195750000Y125650399D01*
X195750000Y125049601D01*
X195632791Y124460348D01*
X195402875Y123905283D01*
X195069090Y123405738D01*
X194644262Y122980910D01*
X194144717Y122647125D01*
X193589652Y122417209D01*
X193196817Y122339070D01*
X193000400Y122300000D01*
X192399600Y122300000D01*
X192203183Y122339070D01*
X191810348Y122417209D01*
X191255283Y122647125D01*
X190755738Y122980910D01*
X190330910Y123405738D01*
X189997125Y123905283D01*
X189767209Y124460348D01*
X189650000Y125049601D01*
X189650000Y125650399D01*
X189767209Y126239652D01*
X189997125Y126794717D01*
X190330910Y127294262D01*
X190755738Y127719090D01*
X191255283Y128052875D01*
X191810348Y128282791D01*
X192203183Y128360930D01*
X192399600Y128400000D01*
X193000400Y128400000D01*
X193196817Y128360930D01*
G37*
G36*
X103196817Y128360930D02*
G01*
X103589652Y128282791D01*
X104144717Y128052875D01*
X104644262Y127719090D01*
X105069090Y127294262D01*
X105402875Y126794717D01*
X105632791Y126239652D01*
X105750000Y125650399D01*
X105750000Y125049601D01*
X105632791Y124460348D01*
X105402875Y123905283D01*
X105069090Y123405738D01*
X104644262Y122980910D01*
X104144717Y122647125D01*
X103589652Y122417209D01*
X103196817Y122339070D01*
X103000400Y122300000D01*
X102399600Y122300000D01*
X102203183Y122339070D01*
X101810348Y122417209D01*
X101255283Y122647125D01*
X100755738Y122980910D01*
X100330910Y123405738D01*
X99997125Y123905283D01*
X99767209Y124460348D01*
X99650000Y125049601D01*
X99650000Y125650399D01*
X99767209Y126239652D01*
X99997125Y126794717D01*
X100330910Y127294262D01*
X100755738Y127719090D01*
X101255283Y128052875D01*
X101810348Y128282791D01*
X102203183Y128360930D01*
X102399600Y128400000D01*
X103000400Y128400000D01*
X103196817Y128360930D01*
G37*
G36*
X264298255Y138622181D02*
G01*
X264671513Y138467573D01*
X265007436Y138243116D01*
X265293116Y137957436D01*
X265517573Y137621513D01*
X265672181Y137248255D01*
X265751000Y136852006D01*
X265751000Y136447994D01*
X265672181Y136051745D01*
X265517573Y135678487D01*
X265293116Y135342564D01*
X265007436Y135056884D01*
X264671513Y134832427D01*
X264298255Y134677819D01*
X263902006Y134599000D01*
X263497994Y134599000D01*
X263101745Y134677819D01*
X262728487Y134832427D01*
X262392564Y135056884D01*
X262106884Y135342564D01*
X261882427Y135678487D01*
X261727819Y136051745D01*
X261649000Y136447994D01*
X261649000Y136852006D01*
X261727819Y137248255D01*
X261882427Y137621513D01*
X262106884Y137957436D01*
X262392564Y138243116D01*
X262728487Y138467573D01*
X263101745Y138622181D01*
X263497994Y138701000D01*
X263902006Y138701000D01*
X264298255Y138622181D01*
G37*
G36*
X198298255Y138622181D02*
G01*
X198671513Y138467573D01*
X199007436Y138243116D01*
X199293116Y137957436D01*
X199517573Y137621513D01*
X199672181Y137248255D01*
X199751000Y136852006D01*
X199751000Y136447994D01*
X199672181Y136051745D01*
X199517573Y135678487D01*
X199293116Y135342564D01*
X199007436Y135056884D01*
X198671513Y134832427D01*
X198298255Y134677819D01*
X197902006Y134599000D01*
X197497994Y134599000D01*
X197101745Y134677819D01*
X196728487Y134832427D01*
X196392564Y135056884D01*
X196106884Y135342564D01*
X195882427Y135678487D01*
X195727819Y136051745D01*
X195649000Y136447994D01*
X195649000Y136852006D01*
X195727819Y137248255D01*
X195882427Y137621513D01*
X196106884Y137957436D01*
X196392564Y138243116D01*
X196728487Y138467573D01*
X197101745Y138622181D01*
X197497994Y138701000D01*
X197902006Y138701000D01*
X198298255Y138622181D01*
G37*
G36*
X210298255Y138622181D02*
G01*
X210671513Y138467573D01*
X211007436Y138243116D01*
X211293116Y137957436D01*
X211517573Y137621513D01*
X211672181Y137248255D01*
X211751000Y136852006D01*
X211751000Y136447994D01*
X211672181Y136051745D01*
X211517573Y135678487D01*
X211293116Y135342564D01*
X211007436Y135056884D01*
X210671513Y134832427D01*
X210298255Y134677819D01*
X209902006Y134599000D01*
X209497994Y134599000D01*
X209101745Y134677819D01*
X208728487Y134832427D01*
X208392564Y135056884D01*
X208106884Y135342564D01*
X207882427Y135678487D01*
X207727819Y136051745D01*
X207649000Y136447994D01*
X207649000Y136852006D01*
X207727819Y137248255D01*
X207882427Y137621513D01*
X208106884Y137957436D01*
X208392564Y138243116D01*
X208728487Y138467573D01*
X209101745Y138622181D01*
X209497994Y138701000D01*
X209902006Y138701000D01*
X210298255Y138622181D01*
G37*
G36*
X252298255Y138622181D02*
G01*
X252671513Y138467573D01*
X253007436Y138243116D01*
X253293116Y137957436D01*
X253517573Y137621513D01*
X253672181Y137248255D01*
X253751000Y136852006D01*
X253751000Y136447994D01*
X253672181Y136051745D01*
X253517573Y135678487D01*
X253293116Y135342564D01*
X253007436Y135056884D01*
X252671513Y134832427D01*
X252298255Y134677819D01*
X251902006Y134599000D01*
X251497994Y134599000D01*
X251101745Y134677819D01*
X250728487Y134832427D01*
X250392564Y135056884D01*
X250106884Y135342564D01*
X249882427Y135678487D01*
X249727819Y136051745D01*
X249649000Y136447994D01*
X249649000Y136852006D01*
X249727819Y137248255D01*
X249882427Y137621513D01*
X250106884Y137957436D01*
X250392564Y138243116D01*
X250728487Y138467573D01*
X251101745Y138622181D01*
X251497994Y138701000D01*
X251902006Y138701000D01*
X252298255Y138622181D01*
G37*
G36*
X234298255Y138622181D02*
G01*
X234671513Y138467573D01*
X235007436Y138243116D01*
X235293116Y137957436D01*
X235517573Y137621513D01*
X235672181Y137248255D01*
X235751000Y136852006D01*
X235751000Y136447994D01*
X235672181Y136051745D01*
X235517573Y135678487D01*
X235293116Y135342564D01*
X235007436Y135056884D01*
X234671513Y134832427D01*
X234298255Y134677819D01*
X233902006Y134599000D01*
X233497994Y134599000D01*
X233101745Y134677819D01*
X232728487Y134832427D01*
X232392564Y135056884D01*
X232106884Y135342564D01*
X231882427Y135678487D01*
X231727819Y136051745D01*
X231649000Y136447994D01*
X231649000Y136852006D01*
X231727819Y137248255D01*
X231882427Y137621513D01*
X232106884Y137957436D01*
X232392564Y138243116D01*
X232728487Y138467573D01*
X233101745Y138622181D01*
X233497994Y138701000D01*
X233902006Y138701000D01*
X234298255Y138622181D01*
G37*
G36*
X186298255Y138622181D02*
G01*
X186671513Y138467573D01*
X187007436Y138243116D01*
X187293116Y137957436D01*
X187517573Y137621513D01*
X187672181Y137248255D01*
X187751000Y136852006D01*
X187751000Y136447994D01*
X187672181Y136051745D01*
X187517573Y135678487D01*
X187293116Y135342564D01*
X187007436Y135056884D01*
X186671513Y134832427D01*
X186298255Y134677819D01*
X185902006Y134599000D01*
X185497994Y134599000D01*
X185101745Y134677819D01*
X184728487Y134832427D01*
X184392564Y135056884D01*
X184106884Y135342564D01*
X183882427Y135678487D01*
X183727819Y136051745D01*
X183649000Y136447994D01*
X183649000Y136852006D01*
X183727819Y137248255D01*
X183882427Y137621513D01*
X184106884Y137957436D01*
X184392564Y138243116D01*
X184728487Y138467573D01*
X185101745Y138622181D01*
X185497994Y138701000D01*
X185902006Y138701000D01*
X186298255Y138622181D01*
G37*
G36*
X222298255Y138622181D02*
G01*
X222671513Y138467573D01*
X223007436Y138243116D01*
X223293116Y137957436D01*
X223517573Y137621513D01*
X223672181Y137248255D01*
X223751000Y136852006D01*
X223751000Y136447994D01*
X223672181Y136051745D01*
X223517573Y135678487D01*
X223293116Y135342564D01*
X223007436Y135056884D01*
X222671513Y134832427D01*
X222298255Y134677819D01*
X221902006Y134599000D01*
X221497994Y134599000D01*
X221101745Y134677819D01*
X220728487Y134832427D01*
X220392564Y135056884D01*
X220106884Y135342564D01*
X219882427Y135678487D01*
X219727819Y136051745D01*
X219649000Y136447994D01*
X219649000Y136852006D01*
X219727819Y137248255D01*
X219882427Y137621513D01*
X220106884Y137957436D01*
X220392564Y138243116D01*
X220728487Y138467573D01*
X221101745Y138622181D01*
X221497994Y138701000D01*
X221902006Y138701000D01*
X222298255Y138622181D01*
G37*
G36*
X49235933Y148515924D02*
G01*
X49764958Y148410694D01*
X50429397Y148135475D01*
X50429399Y148135474D01*
X50554705Y148051747D01*
X51027377Y147735917D01*
X51535917Y147227377D01*
X51735696Y146928387D01*
X51903121Y146677819D01*
X51935475Y146629397D01*
X52210694Y145964958D01*
X52351000Y145259592D01*
X52351000Y144540408D01*
X52210694Y143835042D01*
X51935475Y143170603D01*
X51535917Y142572623D01*
X51027377Y142064083D01*
X50728387Y141864304D01*
X50429399Y141664526D01*
X50429398Y141664525D01*
X50429397Y141664525D01*
X49764958Y141389306D01*
X49235933Y141284076D01*
X49059593Y141249000D01*
X48340407Y141249000D01*
X48164067Y141284076D01*
X47635042Y141389306D01*
X46970603Y141664525D01*
X46970602Y141664525D01*
X46970601Y141664526D01*
X46671613Y141864304D01*
X46372623Y142064083D01*
X45864083Y142572623D01*
X45464525Y143170603D01*
X45189306Y143835042D01*
X45049000Y144540408D01*
X45049000Y145259592D01*
X45189306Y145964958D01*
X45464525Y146629397D01*
X45496880Y146677819D01*
X45664304Y146928387D01*
X45864083Y147227377D01*
X46372623Y147735917D01*
X46845295Y148051747D01*
X46970601Y148135474D01*
X46970603Y148135475D01*
X47635042Y148410694D01*
X48164067Y148515924D01*
X48340407Y148551000D01*
X49059593Y148551000D01*
X49235933Y148515924D01*
G37*
G36*
X-4764067Y148515924D02*
G01*
X-4235042Y148410694D01*
X-3570603Y148135475D01*
X-3570601Y148135474D01*
X-3445295Y148051747D01*
X-2972623Y147735917D01*
X-2464083Y147227377D01*
X-2264304Y146928387D01*
X-2096879Y146677819D01*
X-2064525Y146629397D01*
X-1789306Y145964958D01*
X-1649000Y145259592D01*
X-1649000Y144540408D01*
X-1789306Y143835042D01*
X-2064525Y143170603D01*
X-2464083Y142572623D01*
X-2972623Y142064083D01*
X-3271613Y141864304D01*
X-3570601Y141664526D01*
X-3570602Y141664525D01*
X-3570603Y141664525D01*
X-4235042Y141389306D01*
X-4764067Y141284076D01*
X-4940407Y141249000D01*
X-5659593Y141249000D01*
X-5835933Y141284076D01*
X-6364958Y141389306D01*
X-7029397Y141664525D01*
X-7029398Y141664525D01*
X-7029399Y141664526D01*
X-7328387Y141864304D01*
X-7627377Y142064083D01*
X-8135917Y142572623D01*
X-8535475Y143170603D01*
X-8810694Y143835042D01*
X-8951000Y144540408D01*
X-8951000Y145259592D01*
X-8810694Y145964958D01*
X-8535475Y146629397D01*
X-8503120Y146677819D01*
X-8335696Y146928387D01*
X-8135917Y147227377D01*
X-7627377Y147735917D01*
X-7154705Y148051747D01*
X-7029399Y148135474D01*
X-7029397Y148135475D01*
X-6364958Y148410694D01*
X-5835933Y148515924D01*
X-5659593Y148551000D01*
X-4940407Y148551000D01*
X-4764067Y148515924D01*
G37*
G36*
X198298255Y150622181D02*
G01*
X198671513Y150467573D01*
X199007436Y150243116D01*
X199293116Y149957436D01*
X199517573Y149621513D01*
X199672181Y149248255D01*
X199751000Y148852006D01*
X199751000Y148447994D01*
X199672181Y148051745D01*
X199517573Y147678487D01*
X199293116Y147342564D01*
X199007436Y147056884D01*
X198671513Y146832427D01*
X198298255Y146677819D01*
X197902006Y146599000D01*
X197497994Y146599000D01*
X197101745Y146677819D01*
X196728487Y146832427D01*
X196392564Y147056884D01*
X196106884Y147342564D01*
X195882427Y147678487D01*
X195727819Y148051745D01*
X195649000Y148447994D01*
X195649000Y148852006D01*
X195727819Y149248255D01*
X195882427Y149621513D01*
X196106884Y149957436D01*
X196392564Y150243116D01*
X196728487Y150467573D01*
X197101745Y150622181D01*
X197497994Y150701000D01*
X197902006Y150701000D01*
X198298255Y150622181D01*
G37*
G36*
X186298255Y150622181D02*
G01*
X186671513Y150467573D01*
X187007436Y150243116D01*
X187293116Y149957436D01*
X187517573Y149621513D01*
X187672181Y149248255D01*
X187751000Y148852006D01*
X187751000Y148447994D01*
X187672181Y148051745D01*
X187517573Y147678487D01*
X187293116Y147342564D01*
X187007436Y147056884D01*
X186671513Y146832427D01*
X186298255Y146677819D01*
X185902006Y146599000D01*
X185497994Y146599000D01*
X185101745Y146677819D01*
X184728487Y146832427D01*
X184392564Y147056884D01*
X184106884Y147342564D01*
X183882427Y147678487D01*
X183727819Y148051745D01*
X183649000Y148447994D01*
X183649000Y148852006D01*
X183727819Y149248255D01*
X183882427Y149621513D01*
X184106884Y149957436D01*
X184392564Y150243116D01*
X184728487Y150467573D01*
X185101745Y150622181D01*
X185497994Y150701000D01*
X185902006Y150701000D01*
X186298255Y150622181D01*
G37*
G36*
X234298255Y150622181D02*
G01*
X234671513Y150467573D01*
X235007436Y150243116D01*
X235293116Y149957436D01*
X235517573Y149621513D01*
X235672181Y149248255D01*
X235751000Y148852006D01*
X235751000Y148447994D01*
X235672181Y148051745D01*
X235517573Y147678487D01*
X235293116Y147342564D01*
X235007436Y147056884D01*
X234671513Y146832427D01*
X234298255Y146677819D01*
X233902006Y146599000D01*
X233497994Y146599000D01*
X233101745Y146677819D01*
X232728487Y146832427D01*
X232392564Y147056884D01*
X232106884Y147342564D01*
X231882427Y147678487D01*
X231727819Y148051745D01*
X231649000Y148447994D01*
X231649000Y148852006D01*
X231727819Y149248255D01*
X231882427Y149621513D01*
X232106884Y149957436D01*
X232392564Y150243116D01*
X232728487Y150467573D01*
X233101745Y150622181D01*
X233497994Y150701000D01*
X233902006Y150701000D01*
X234298255Y150622181D01*
G37*
G36*
X264298255Y150622181D02*
G01*
X264671513Y150467573D01*
X265007436Y150243116D01*
X265293116Y149957436D01*
X265517573Y149621513D01*
X265672181Y149248255D01*
X265751000Y148852006D01*
X265751000Y148447994D01*
X265672181Y148051745D01*
X265517573Y147678487D01*
X265293116Y147342564D01*
X265007436Y147056884D01*
X264671513Y146832427D01*
X264298255Y146677819D01*
X263902006Y146599000D01*
X263497994Y146599000D01*
X263101745Y146677819D01*
X262728487Y146832427D01*
X262392564Y147056884D01*
X262106884Y147342564D01*
X261882427Y147678487D01*
X261727819Y148051745D01*
X261649000Y148447994D01*
X261649000Y148852006D01*
X261727819Y149248255D01*
X261882427Y149621513D01*
X262106884Y149957436D01*
X262392564Y150243116D01*
X262728487Y150467573D01*
X263101745Y150622181D01*
X263497994Y150701000D01*
X263902006Y150701000D01*
X264298255Y150622181D01*
G37*
G36*
X222298255Y150622181D02*
G01*
X222671513Y150467573D01*
X223007436Y150243116D01*
X223293116Y149957436D01*
X223517573Y149621513D01*
X223672181Y149248255D01*
X223751000Y148852006D01*
X223751000Y148447994D01*
X223672181Y148051745D01*
X223517573Y147678487D01*
X223293116Y147342564D01*
X223007436Y147056884D01*
X222671513Y146832427D01*
X222298255Y146677819D01*
X221902006Y146599000D01*
X221497994Y146599000D01*
X221101745Y146677819D01*
X220728487Y146832427D01*
X220392564Y147056884D01*
X220106884Y147342564D01*
X219882427Y147678487D01*
X219727819Y148051745D01*
X219649000Y148447994D01*
X219649000Y148852006D01*
X219727819Y149248255D01*
X219882427Y149621513D01*
X220106884Y149957436D01*
X220392564Y150243116D01*
X220728487Y150467573D01*
X221101745Y150622181D01*
X221497994Y150701000D01*
X221902006Y150701000D01*
X222298255Y150622181D01*
G37*
G36*
X210298255Y150622181D02*
G01*
X210671513Y150467573D01*
X211007436Y150243116D01*
X211293116Y149957436D01*
X211517573Y149621513D01*
X211672181Y149248255D01*
X211751000Y148852006D01*
X211751000Y148447994D01*
X211672181Y148051745D01*
X211517573Y147678487D01*
X211293116Y147342564D01*
X211007436Y147056884D01*
X210671513Y146832427D01*
X210298255Y146677819D01*
X209902006Y146599000D01*
X209497994Y146599000D01*
X209101745Y146677819D01*
X208728487Y146832427D01*
X208392564Y147056884D01*
X208106884Y147342564D01*
X207882427Y147678487D01*
X207727819Y148051745D01*
X207649000Y148447994D01*
X207649000Y148852006D01*
X207727819Y149248255D01*
X207882427Y149621513D01*
X208106884Y149957436D01*
X208392564Y150243116D01*
X208728487Y150467573D01*
X209101745Y150622181D01*
X209497994Y150701000D01*
X209902006Y150701000D01*
X210298255Y150622181D01*
G37*
G36*
X252298255Y150622181D02*
G01*
X252671513Y150467573D01*
X253007436Y150243116D01*
X253293116Y149957436D01*
X253517573Y149621513D01*
X253672181Y149248255D01*
X253751000Y148852006D01*
X253751000Y148447994D01*
X253672181Y148051745D01*
X253517573Y147678487D01*
X253293116Y147342564D01*
X253007436Y147056884D01*
X252671513Y146832427D01*
X252298255Y146677819D01*
X251902006Y146599000D01*
X251497994Y146599000D01*
X251101745Y146677819D01*
X250728487Y146832427D01*
X250392564Y147056884D01*
X250106884Y147342564D01*
X249882427Y147678487D01*
X249727819Y148051745D01*
X249649000Y148447994D01*
X249649000Y148852006D01*
X249727819Y149248255D01*
X249882427Y149621513D01*
X250106884Y149957436D01*
X250392564Y150243116D01*
X250728487Y150467573D01*
X251101745Y150622181D01*
X251497994Y150701000D01*
X251902006Y150701000D01*
X252298255Y150622181D01*
G37*
G36*
X198298255Y162622181D02*
G01*
X198671513Y162467573D01*
X199007436Y162243116D01*
X199293116Y161957436D01*
X199517573Y161621513D01*
X199672181Y161248255D01*
X199751000Y160852006D01*
X199751000Y160447994D01*
X199672181Y160051745D01*
X199517573Y159678487D01*
X199293116Y159342564D01*
X199007436Y159056884D01*
X198671513Y158832427D01*
X198298255Y158677819D01*
X197902006Y158599000D01*
X197497994Y158599000D01*
X197101745Y158677819D01*
X196728487Y158832427D01*
X196392564Y159056884D01*
X196106884Y159342564D01*
X195882427Y159678487D01*
X195727819Y160051745D01*
X195649000Y160447994D01*
X195649000Y160852006D01*
X195727819Y161248255D01*
X195882427Y161621513D01*
X196106884Y161957436D01*
X196392564Y162243116D01*
X196728487Y162467573D01*
X197101745Y162622181D01*
X197497994Y162701000D01*
X197902006Y162701000D01*
X198298255Y162622181D01*
G37*
G36*
X210298255Y162622181D02*
G01*
X210671513Y162467573D01*
X211007436Y162243116D01*
X211293116Y161957436D01*
X211517573Y161621513D01*
X211672181Y161248255D01*
X211751000Y160852006D01*
X211751000Y160447994D01*
X211672181Y160051745D01*
X211517573Y159678487D01*
X211293116Y159342564D01*
X211007436Y159056884D01*
X210671513Y158832427D01*
X210298255Y158677819D01*
X209902006Y158599000D01*
X209497994Y158599000D01*
X209101745Y158677819D01*
X208728487Y158832427D01*
X208392564Y159056884D01*
X208106884Y159342564D01*
X207882427Y159678487D01*
X207727819Y160051745D01*
X207649000Y160447994D01*
X207649000Y160852006D01*
X207727819Y161248255D01*
X207882427Y161621513D01*
X208106884Y161957436D01*
X208392564Y162243116D01*
X208728487Y162467573D01*
X209101745Y162622181D01*
X209497994Y162701000D01*
X209902006Y162701000D01*
X210298255Y162622181D01*
G37*
G36*
X222298255Y162622181D02*
G01*
X222671513Y162467573D01*
X223007436Y162243116D01*
X223293116Y161957436D01*
X223517573Y161621513D01*
X223672181Y161248255D01*
X223751000Y160852006D01*
X223751000Y160447994D01*
X223672181Y160051745D01*
X223517573Y159678487D01*
X223293116Y159342564D01*
X223007436Y159056884D01*
X222671513Y158832427D01*
X222298255Y158677819D01*
X221902006Y158599000D01*
X221497994Y158599000D01*
X221101745Y158677819D01*
X220728487Y158832427D01*
X220392564Y159056884D01*
X220106884Y159342564D01*
X219882427Y159678487D01*
X219727819Y160051745D01*
X219649000Y160447994D01*
X219649000Y160852006D01*
X219727819Y161248255D01*
X219882427Y161621513D01*
X220106884Y161957436D01*
X220392564Y162243116D01*
X220728487Y162467573D01*
X221101745Y162622181D01*
X221497994Y162701000D01*
X221902006Y162701000D01*
X222298255Y162622181D01*
G37*
G36*
X264298255Y162622181D02*
G01*
X264671513Y162467573D01*
X265007436Y162243116D01*
X265293116Y161957436D01*
X265517573Y161621513D01*
X265672181Y161248255D01*
X265751000Y160852006D01*
X265751000Y160447994D01*
X265672181Y160051745D01*
X265517573Y159678487D01*
X265293116Y159342564D01*
X265007436Y159056884D01*
X264671513Y158832427D01*
X264298255Y158677819D01*
X263902006Y158599000D01*
X263497994Y158599000D01*
X263101745Y158677819D01*
X262728487Y158832427D01*
X262392564Y159056884D01*
X262106884Y159342564D01*
X261882427Y159678487D01*
X261727819Y160051745D01*
X261649000Y160447994D01*
X261649000Y160852006D01*
X261727819Y161248255D01*
X261882427Y161621513D01*
X262106884Y161957436D01*
X262392564Y162243116D01*
X262728487Y162467573D01*
X263101745Y162622181D01*
X263497994Y162701000D01*
X263902006Y162701000D01*
X264298255Y162622181D01*
G37*
G36*
X252298255Y162622181D02*
G01*
X252671513Y162467573D01*
X253007436Y162243116D01*
X253293116Y161957436D01*
X253517573Y161621513D01*
X253672181Y161248255D01*
X253751000Y160852006D01*
X253751000Y160447994D01*
X253672181Y160051745D01*
X253517573Y159678487D01*
X253293116Y159342564D01*
X253007436Y159056884D01*
X252671513Y158832427D01*
X252298255Y158677819D01*
X251902006Y158599000D01*
X251497994Y158599000D01*
X251101745Y158677819D01*
X250728487Y158832427D01*
X250392564Y159056884D01*
X250106884Y159342564D01*
X249882427Y159678487D01*
X249727819Y160051745D01*
X249649000Y160447994D01*
X249649000Y160852006D01*
X249727819Y161248255D01*
X249882427Y161621513D01*
X250106884Y161957436D01*
X250392564Y162243116D01*
X250728487Y162467573D01*
X251101745Y162622181D01*
X251497994Y162701000D01*
X251902006Y162701000D01*
X252298255Y162622181D01*
G37*
G36*
X234298255Y162622181D02*
G01*
X234671513Y162467573D01*
X235007436Y162243116D01*
X235293116Y161957436D01*
X235517573Y161621513D01*
X235672181Y161248255D01*
X235751000Y160852006D01*
X235751000Y160447994D01*
X235672181Y160051745D01*
X235517573Y159678487D01*
X235293116Y159342564D01*
X235007436Y159056884D01*
X234671513Y158832427D01*
X234298255Y158677819D01*
X233902006Y158599000D01*
X233497994Y158599000D01*
X233101745Y158677819D01*
X232728487Y158832427D01*
X232392564Y159056884D01*
X232106884Y159342564D01*
X231882427Y159678487D01*
X231727819Y160051745D01*
X231649000Y160447994D01*
X231649000Y160852006D01*
X231727819Y161248255D01*
X231882427Y161621513D01*
X232106884Y161957436D01*
X232392564Y162243116D01*
X232728487Y162467573D01*
X233101745Y162622181D01*
X233497994Y162701000D01*
X233902006Y162701000D01*
X234298255Y162622181D01*
G37*
G36*
X186298255Y162622181D02*
G01*
X186671513Y162467573D01*
X187007436Y162243116D01*
X187293116Y161957436D01*
X187517573Y161621513D01*
X187672181Y161248255D01*
X187751000Y160852006D01*
X187751000Y160447994D01*
X187672181Y160051745D01*
X187517573Y159678487D01*
X187293116Y159342564D01*
X187007436Y159056884D01*
X186671513Y158832427D01*
X186298255Y158677819D01*
X185902006Y158599000D01*
X185497994Y158599000D01*
X185101745Y158677819D01*
X184728487Y158832427D01*
X184392564Y159056884D01*
X184106884Y159342564D01*
X183882427Y159678487D01*
X183727819Y160051745D01*
X183649000Y160447994D01*
X183649000Y160852006D01*
X183727819Y161248255D01*
X183882427Y161621513D01*
X184106884Y161957436D01*
X184392564Y162243116D01*
X184728487Y162467573D01*
X185101745Y162622181D01*
X185497994Y162701000D01*
X185902006Y162701000D01*
X186298255Y162622181D01*
G37*
G36*
X76235934Y168515923D02*
G01*
X76764958Y168410694D01*
X77429397Y168135475D01*
X77429399Y168135474D01*
X77728387Y167935696D01*
X78027377Y167735917D01*
X78535917Y167227377D01*
X78935475Y166629397D01*
X79210694Y165964958D01*
X79351000Y165259592D01*
X79351000Y164540408D01*
X79210694Y163835042D01*
X78935475Y163170603D01*
X78535917Y162572623D01*
X78027377Y162064083D01*
X77728387Y161864304D01*
X77429399Y161664526D01*
X77429398Y161664525D01*
X77429397Y161664525D01*
X76764958Y161389306D01*
X76235934Y161284077D01*
X76059593Y161249000D01*
X75340407Y161249000D01*
X75164067Y161284076D01*
X74635042Y161389306D01*
X73970603Y161664525D01*
X73970602Y161664525D01*
X73970601Y161664526D01*
X73671613Y161864304D01*
X73372623Y162064083D01*
X72864083Y162572623D01*
X72464525Y163170603D01*
X72189306Y163835042D01*
X72049000Y164540408D01*
X72049000Y165259592D01*
X72189306Y165964958D01*
X72464525Y166629397D01*
X72864083Y167227377D01*
X73372623Y167735917D01*
X73671613Y167935696D01*
X73970601Y168135474D01*
X73970603Y168135475D01*
X74635042Y168410694D01*
X75164066Y168515923D01*
X75340407Y168551000D01*
X76059593Y168551000D01*
X76235934Y168515923D01*
G37*
G36*
X22235934Y168515923D02*
G01*
X22764958Y168410694D01*
X23429397Y168135475D01*
X23429399Y168135474D01*
X23728387Y167935696D01*
X24027377Y167735917D01*
X24535917Y167227377D01*
X24935475Y166629397D01*
X25210694Y165964958D01*
X25351000Y165259592D01*
X25351000Y164540408D01*
X25210694Y163835042D01*
X24935475Y163170603D01*
X24535917Y162572623D01*
X24027377Y162064083D01*
X23728387Y161864304D01*
X23429399Y161664526D01*
X23429398Y161664525D01*
X23429397Y161664525D01*
X22764958Y161389306D01*
X22235933Y161284076D01*
X22059593Y161249000D01*
X21340407Y161249000D01*
X21164067Y161284076D01*
X20635042Y161389306D01*
X19970603Y161664525D01*
X19970602Y161664525D01*
X19970601Y161664526D01*
X19671613Y161864304D01*
X19372623Y162064083D01*
X18864083Y162572623D01*
X18464525Y163170603D01*
X18189306Y163835042D01*
X18049000Y164540408D01*
X18049000Y165259592D01*
X18189306Y165964958D01*
X18464525Y166629397D01*
X18864083Y167227377D01*
X19372623Y167735917D01*
X19671613Y167935696D01*
X19970601Y168135474D01*
X19970603Y168135475D01*
X20635042Y168410694D01*
X21164066Y168515923D01*
X21340407Y168551000D01*
X22059593Y168551000D01*
X22235934Y168515923D01*
G37*
G36*
X234298255Y174622181D02*
G01*
X234671513Y174467573D01*
X235007436Y174243116D01*
X235293116Y173957436D01*
X235517573Y173621513D01*
X235672181Y173248255D01*
X235751000Y172852006D01*
X235751000Y172447994D01*
X235672181Y172051745D01*
X235517573Y171678487D01*
X235293116Y171342564D01*
X235007436Y171056884D01*
X234671513Y170832427D01*
X234298255Y170677819D01*
X233902006Y170599000D01*
X233497994Y170599000D01*
X233101745Y170677819D01*
X232728487Y170832427D01*
X232392564Y171056884D01*
X232106884Y171342564D01*
X231882427Y171678487D01*
X231727819Y172051745D01*
X231649000Y172447994D01*
X231649000Y172852006D01*
X231727819Y173248255D01*
X231882427Y173621513D01*
X232106884Y173957436D01*
X232392564Y174243116D01*
X232728487Y174467573D01*
X233101745Y174622181D01*
X233497994Y174701000D01*
X233902006Y174701000D01*
X234298255Y174622181D01*
G37*
G36*
X210298255Y174622181D02*
G01*
X210671513Y174467573D01*
X211007436Y174243116D01*
X211293116Y173957436D01*
X211517573Y173621513D01*
X211672181Y173248255D01*
X211751000Y172852006D01*
X211751000Y172447994D01*
X211672181Y172051745D01*
X211517573Y171678487D01*
X211293116Y171342564D01*
X211007436Y171056884D01*
X210671513Y170832427D01*
X210298255Y170677819D01*
X209902006Y170599000D01*
X209497994Y170599000D01*
X209101745Y170677819D01*
X208728487Y170832427D01*
X208392564Y171056884D01*
X208106884Y171342564D01*
X207882427Y171678487D01*
X207727819Y172051745D01*
X207649000Y172447994D01*
X207649000Y172852006D01*
X207727819Y173248255D01*
X207882427Y173621513D01*
X208106884Y173957436D01*
X208392564Y174243116D01*
X208728487Y174467573D01*
X209101745Y174622181D01*
X209497994Y174701000D01*
X209902006Y174701000D01*
X210298255Y174622181D01*
G37*
G36*
X222298255Y174622181D02*
G01*
X222671513Y174467573D01*
X223007436Y174243116D01*
X223293116Y173957436D01*
X223517573Y173621513D01*
X223672181Y173248255D01*
X223751000Y172852006D01*
X223751000Y172447994D01*
X223672181Y172051745D01*
X223517573Y171678487D01*
X223293116Y171342564D01*
X223007436Y171056884D01*
X222671513Y170832427D01*
X222298255Y170677819D01*
X221902006Y170599000D01*
X221497994Y170599000D01*
X221101745Y170677819D01*
X220728487Y170832427D01*
X220392564Y171056884D01*
X220106884Y171342564D01*
X219882427Y171678487D01*
X219727819Y172051745D01*
X219649000Y172447994D01*
X219649000Y172852006D01*
X219727819Y173248255D01*
X219882427Y173621513D01*
X220106884Y173957436D01*
X220392564Y174243116D01*
X220728487Y174467573D01*
X221101745Y174622181D01*
X221497994Y174701000D01*
X221902006Y174701000D01*
X222298255Y174622181D01*
G37*
G36*
X186298255Y174622181D02*
G01*
X186671513Y174467573D01*
X187007436Y174243116D01*
X187293116Y173957436D01*
X187517573Y173621513D01*
X187672181Y173248255D01*
X187751000Y172852006D01*
X187751000Y172447994D01*
X187672181Y172051745D01*
X187517573Y171678487D01*
X187293116Y171342564D01*
X187007436Y171056884D01*
X186671513Y170832427D01*
X186298255Y170677819D01*
X185902006Y170599000D01*
X185497994Y170599000D01*
X185101745Y170677819D01*
X184728487Y170832427D01*
X184392564Y171056884D01*
X184106884Y171342564D01*
X183882427Y171678487D01*
X183727819Y172051745D01*
X183649000Y172447994D01*
X183649000Y172852006D01*
X183727819Y173248255D01*
X183882427Y173621513D01*
X184106884Y173957436D01*
X184392564Y174243116D01*
X184728487Y174467573D01*
X185101745Y174622181D01*
X185497994Y174701000D01*
X185902006Y174701000D01*
X186298255Y174622181D01*
G37*
G36*
X198298255Y174622181D02*
G01*
X198671513Y174467573D01*
X199007436Y174243116D01*
X199293116Y173957436D01*
X199517573Y173621513D01*
X199672181Y173248255D01*
X199751000Y172852006D01*
X199751000Y172447994D01*
X199672181Y172051745D01*
X199517573Y171678487D01*
X199293116Y171342564D01*
X199007436Y171056884D01*
X198671513Y170832427D01*
X198298255Y170677819D01*
X197902006Y170599000D01*
X197497994Y170599000D01*
X197101745Y170677819D01*
X196728487Y170832427D01*
X196392564Y171056884D01*
X196106884Y171342564D01*
X195882427Y171678487D01*
X195727819Y172051745D01*
X195649000Y172447994D01*
X195649000Y172852006D01*
X195727819Y173248255D01*
X195882427Y173621513D01*
X196106884Y173957436D01*
X196392564Y174243116D01*
X196728487Y174467573D01*
X197101745Y174622181D01*
X197497994Y174701000D01*
X197902006Y174701000D01*
X198298255Y174622181D01*
G37*
G36*
X252298255Y174622181D02*
G01*
X252671513Y174467573D01*
X253007436Y174243116D01*
X253293116Y173957436D01*
X253517573Y173621513D01*
X253672181Y173248255D01*
X253751000Y172852006D01*
X253751000Y172447994D01*
X253672181Y172051745D01*
X253517573Y171678487D01*
X253293116Y171342564D01*
X253007436Y171056884D01*
X252671513Y170832427D01*
X252298255Y170677819D01*
X251902006Y170599000D01*
X251497994Y170599000D01*
X251101745Y170677819D01*
X250728487Y170832427D01*
X250392564Y171056884D01*
X250106884Y171342564D01*
X249882427Y171678487D01*
X249727819Y172051745D01*
X249649000Y172447994D01*
X249649000Y172852006D01*
X249727819Y173248255D01*
X249882427Y173621513D01*
X250106884Y173957436D01*
X250392564Y174243116D01*
X250728487Y174467573D01*
X251101745Y174622181D01*
X251497994Y174701000D01*
X251902006Y174701000D01*
X252298255Y174622181D01*
G37*
G36*
X264298255Y174622181D02*
G01*
X264671513Y174467573D01*
X265007436Y174243116D01*
X265293116Y173957436D01*
X265517573Y173621513D01*
X265672181Y173248255D01*
X265751000Y172852006D01*
X265751000Y172447994D01*
X265672181Y172051745D01*
X265517573Y171678487D01*
X265293116Y171342564D01*
X265007436Y171056884D01*
X264671513Y170832427D01*
X264298255Y170677819D01*
X263902006Y170599000D01*
X263497994Y170599000D01*
X263101745Y170677819D01*
X262728487Y170832427D01*
X262392564Y171056884D01*
X262106884Y171342564D01*
X261882427Y171678487D01*
X261727819Y172051745D01*
X261649000Y172447994D01*
X261649000Y172852006D01*
X261727819Y173248255D01*
X261882427Y173621513D01*
X262106884Y173957436D01*
X262392564Y174243116D01*
X262728487Y174467573D01*
X263101745Y174622181D01*
X263497994Y174701000D01*
X263902006Y174701000D01*
X264298255Y174622181D01*
G37*
G36*
X265422383Y184512852D02*
G01*
X265795899Y184438555D01*
X266323665Y184219947D01*
X266798642Y183902577D01*
X267202577Y183498642D01*
X267519947Y183023665D01*
X267738555Y182495899D01*
X267850000Y181935625D01*
X267850000Y181364375D01*
X267738555Y180804101D01*
X267519947Y180276335D01*
X267202577Y179801358D01*
X266798642Y179397423D01*
X266323665Y179080053D01*
X265795899Y178861445D01*
X265422383Y178787148D01*
X265235626Y178750000D01*
X264664374Y178750000D01*
X264477617Y178787148D01*
X264104101Y178861445D01*
X263576335Y179080053D01*
X263101358Y179397423D01*
X262697423Y179801358D01*
X262380053Y180276335D01*
X262161445Y180804101D01*
X262050000Y181364375D01*
X262050000Y181935625D01*
X262161445Y182495899D01*
X262380053Y183023665D01*
X262697423Y183498642D01*
X263101358Y183902577D01*
X263576335Y184219947D01*
X264104101Y184438555D01*
X264477617Y184512852D01*
X264664374Y184550000D01*
X265235626Y184550000D01*
X265422383Y184512852D01*
G37*
G36*
X-23077617Y184512852D02*
G01*
X-22704101Y184438555D01*
X-22176335Y184219947D01*
X-21701358Y183902577D01*
X-21297423Y183498642D01*
X-20980053Y183023665D01*
X-20761445Y182495899D01*
X-20650000Y181935625D01*
X-20650000Y181364375D01*
X-20761445Y180804101D01*
X-20980053Y180276335D01*
X-21297423Y179801358D01*
X-21701358Y179397423D01*
X-22176335Y179080053D01*
X-22704101Y178861445D01*
X-23077617Y178787148D01*
X-23264374Y178750000D01*
X-23835626Y178750000D01*
X-24022383Y178787148D01*
X-24395899Y178861445D01*
X-24923665Y179080053D01*
X-25398642Y179397423D01*
X-25802577Y179801358D01*
X-26119947Y180276335D01*
X-26338555Y180804101D01*
X-26450000Y181364375D01*
X-26450000Y181935625D01*
X-26338555Y182495899D01*
X-26119947Y183023665D01*
X-25802577Y183498642D01*
X-25398642Y183902577D01*
X-24923665Y184219947D01*
X-24395899Y184438555D01*
X-24022383Y184512852D01*
X-23835626Y184550000D01*
X-23264374Y184550000D01*
X-23077617Y184512852D01*
G37*
M02*
