M48
; DRILL file {KiCad 5.1.6} date Thu Nov  5 20:15:53 2020
; FORMAT={-:-/ absolute / inch / decimal}
; #@! TF.CreationDate,2020-11-05T20:15:53+01:00
; #@! TF.GenerationSoftware,Kicad,Pcbnew,5.1.6
; #@! TF.FileFunction,NonPlated,1,2,NPTH
FMAT,2
INCH
T1C0.1102
T2C0.1575
T3C0.1969
T4C0.2835
T5C0.5236
%
G90
G05
T1
X0.824Y-0.7539
X6.3465Y-3.1732
X0.824Y-3.1496
X11.8689Y-3.1732
X11.8531Y-0.5512
T2
X10.1457Y-1.8839
X9.6732Y-0.939
X9.6732Y-2.3563
X11.3268Y-0.939
X9.2008Y-0.939
X10.6181Y-2.3563
X11.3268Y-1.4114
X11.3268Y-2.3563
X9.6732Y-1.8839
X10.1457Y-0.939
X10.6181Y-0.939
X10.1457Y-2.3563
X11.7992Y-1.8839
X9.2008Y-2.3563
X8.7283Y-1.4114
X9.6732Y-1.4114
X8.7283Y-1.8839
X10.1457Y-1.4114
X11.7992Y-1.4114
X10.6181Y-1.8839
X11.7992Y-0.939
X8.7283Y-2.3563
X11.7992Y-2.3563
X9.2008Y-1.8839
X9.2008Y-1.4114
X10.6181Y-1.4114
X11.3268Y-1.8839
X8.7283Y-0.939
T3
X10.8783Y-1.087
X6.3465Y-3.4488
X1.1996Y-0.8799
X11.3071Y-3.4252
X1.3857Y-3.4252
T4
X3.5118Y-2.0315
X2.4488Y-1.2441
X4.5748Y-1.2441
X1.3858Y-2.0315
T5
X9.8898Y-3.1732
X4.2205Y-3.1732
X10.9528Y-3.7835
X10.5984Y-3.1732
X9.5354Y-3.7835
X7.0551Y-3.1732
X10.2441Y-3.7835
X2.8031Y-3.1732
X6.7008Y-3.7835
X3.1575Y-3.7835
X5.6378Y-3.1732
X7.7638Y-3.1732
X7.4094Y-3.7835
X9.1811Y-3.1732
X1.0315Y-3.7835
X1.7402Y-3.7835
X8.1181Y-3.7835
X4.5748Y-3.7835
X11.6614Y-3.7835
X5.9921Y-3.7835
X2.0945Y-3.1732
X3.8661Y-3.7835
X8.8268Y-3.7835
X5.2835Y-3.7835
X4.9291Y-3.1732
X2.4488Y-3.7835
T0
M30
