M48
; DRILL file {KiCad 5.1.6} date Thu Jun 25 21:19:29 2020
; FORMAT={-:-/ absolute / inch / decimal}
; #@! TF.CreationDate,2020-06-25T21:19:29+02:00
; #@! TF.GenerationSoftware,Kicad,Pcbnew,5.1.6
FMAT,2
INCH
T1C0.0177
T2C0.0256
T3C0.0454
T4C0.1102
T5C0.1575
T6C0.1969
T7C0.2835
T8C0.5236
%
G90
G05
T1
X-0.4717Y5.0591
X-0.4645Y4.5045
X-0.3976Y4.2525
X-0.1665Y5.1969
X-0.0878Y5.1969
X-0.0728Y4.6462
X-0.0287Y5.1378
X0.124Y5.2368
X0.124Y4.6462
X0.1732Y4.2525
X0.6063Y5.095
X0.8819Y4.2525
X0.9114Y5.0399
X0.9114Y4.8431
X1.3071Y5.095
X1.5906Y4.2525
X1.9154Y5.1383
X1.9154Y4.725
X2.2795Y4.2525
X2.7323Y5.095
X2.9783Y4.7446
X2.9882Y4.2525
X3.4331Y5.095
X3.6772Y4.7348
X3.6969Y4.2525
X3.9036Y6.7274
X3.9036Y6.688
X3.9036Y6.6486
X3.9036Y6.6093
X3.9036Y6.5699
X3.9036Y6.5305
X3.9823Y6.7274
X3.9823Y6.4124
X3.9823Y6.0974
X3.9823Y5.8415
X3.9823Y5.7825
X3.9823Y5.5069
X4.061Y7.0675
X4.1418Y5.095
X4.2185Y6.1127
X4.2185Y6.2549
X4.2185Y5.8415
X4.2185Y5.5069
X4.4055Y4.2525
X4.5335Y6.8848
X4.5335Y6.7274
X4.5335Y6.5699
X4.6516Y4.7446
X5.0453Y4.7446
X5.1142Y4.2525
X5.439Y4.9218
X5.5591Y5.095
X5.8228Y4.7053
X5.8228Y4.2525
X6.2678Y5.095
X6.5315Y4.2525
X6.8426Y7.1462
X6.8426Y6.6738
X6.8426Y6.2013
X6.8426Y5.7289
X6.8661Y4.6856
X7.2402Y4.2525
X7.315Y7.1462
X7.315Y6.6738
X7.315Y6.2013
X7.315Y5.7289
X7.693Y5.095
X7.7874Y7.1462
X7.7874Y6.6738
X7.7874Y6.2013
X7.7874Y5.7289
X7.9291Y4.725
X7.9488Y4.2525
X8.2599Y7.1462
X8.2599Y6.6738
X8.2599Y6.2013
X8.2599Y5.7289
X8.3937Y5.095
X8.6476Y4.7151
X8.6575Y4.2525
X8.7323Y7.1462
X8.7323Y6.6738
X8.7323Y6.2013
X8.7323Y5.7289
X9.061Y6.6344
X9.1024Y5.095
X9.3661Y4.2525
X9.441Y7.1462
X9.441Y6.2013
X9.441Y5.7289
X9.9134Y7.1462
X9.9134Y6.6738
X9.9134Y6.2013
X9.9134Y5.7289
X10.0748Y4.2525
T2
X3.6205Y7.2494
X3.6205Y7.1994
X3.6705Y7.2494
X3.6705Y7.1994
X3.7205Y7.2494
X3.7205Y7.1994
X3.7705Y7.2494
X3.7705Y7.1994
X3.8205Y7.2494
X3.8205Y7.1994
X-0.8016Y4.9622
X-0.8016Y4.9122
X-0.8016Y4.8622
X-0.8016Y4.8122
X-0.8016Y4.7622
X-0.7516Y4.9622
X-0.7516Y4.9122
X-0.7516Y4.8622
X-0.7516Y4.8122
X-0.7516Y4.7622
T3
X-0.7705Y7.2303
X10.3319Y4.2972
X-0.2193Y3.7264
T4
X4.752Y4.563
X10.2587Y7.185
X-0.7705Y4.5866
X10.2744Y4.563
X-0.7705Y6.9823
T5
X8.5512Y5.3799
X7.1339Y6.7972
X7.6063Y5.8524
X8.5512Y6.3248
X10.2047Y5.3799
X9.7323Y6.7972
X8.0787Y5.3799
X8.0787Y6.7972
X7.1339Y6.3248
X10.2047Y6.3248
X10.2047Y5.8524
X7.1339Y5.3799
X7.1339Y5.8524
X7.6063Y5.3799
X10.2047Y6.7972
X9.0236Y5.3799
X8.0787Y5.8524
X9.0236Y5.8524
X8.5512Y6.7972
X9.7323Y5.8524
X9.7323Y6.3248
X9.0236Y6.7972
X9.0236Y6.3248
X7.6063Y6.7972
X9.7323Y5.3799
X8.5512Y5.8524
X7.6063Y6.3248
X8.0787Y6.3248
T6
X9.2839Y6.6493
X-0.3949Y6.8563
X4.752Y4.2874
X-0.2088Y4.311
X9.7126Y4.311
T7
X-0.2087Y5.7047
X1.9173Y5.7047
X0.8543Y6.4921
X2.9803Y6.4921
T8
X2.9803Y3.9528
X0.1457Y3.9528
X4.0433Y4.563
X5.4606Y4.563
X6.1693Y4.563
X0.5Y4.563
X2.626Y4.563
X10.0669Y3.9528
X5.1063Y3.9528
X8.6496Y3.9528
X8.2953Y4.563
X9.3583Y3.9528
X2.2717Y3.9528
X3.3346Y4.563
X4.3976Y3.9528
X5.815Y3.9528
X7.5866Y4.563
X7.2323Y3.9528
X-0.563Y3.9528
X6.5236Y3.9528
X0.8543Y3.9528
X1.2087Y4.563
X3.689Y3.9528
X1.563Y3.9528
X9.0039Y4.563
X7.9409Y3.9528
T0
M30
