M48
; DRILL file {KiCad 5.1.6} date Thu Nov  5 20:15:53 2020
; FORMAT={-:-/ absolute / inch / decimal}
; #@! TF.CreationDate,2020-11-05T20:15:53+01:00
; #@! TF.GenerationSoftware,Kicad,Pcbnew,5.1.6
; #@! TF.FileFunction,Plated,1,2,PTH
FMAT,2
INCH
T1C0.0177
T2C0.0256
T3C0.0454
%
G90
G05
T1
X1.1228Y-2.6772
X1.13Y-3.2317
X1.1969Y-3.4837
X1.428Y-2.5394
X1.5067Y-2.5394
X1.5217Y-3.09
X1.5657Y-2.5984
X1.7185Y-2.4995
X1.7185Y-3.09
X1.7677Y-3.4837
X2.2008Y-2.6412
X2.4764Y-3.4837
X2.5059Y-2.6963
X2.5059Y-2.8932
X2.9016Y-2.6412
X3.185Y-3.4837
X3.5098Y-2.5979
X3.5098Y-3.0113
X3.874Y-3.4837
X4.3268Y-2.6412
X4.5728Y-2.9916
X4.5827Y-3.4837
X5.0276Y-2.6412
X5.1413Y-1.5524
X5.2469Y-1.6024
X5.2717Y-3.0014
X5.2913Y-3.4837
X5.3531Y-1.652
X5.4931Y-1.1968
X5.4981Y-1.0397
X5.4981Y-1.0003
X5.4983Y-1.0791
X5.4986Y-1.1185
X5.4989Y-1.1578
X5.5271Y-1.7016
X5.5386Y-1.5594
X5.5768Y-1.0089
X5.5768Y-1.3238
X5.5768Y-1.8947
X5.5768Y-1.9537
X5.5768Y-2.2293
X5.6555Y-0.6687
X5.7363Y-2.6412
X5.813Y-1.6235
X5.813Y-1.4813
X5.813Y-1.8947
X5.813Y-2.2293
X6.0Y-3.4837
X6.128Y-0.8514
X6.128Y-1.0089
X6.128Y-1.1663
X6.2461Y-2.9916
X6.6398Y-2.9916
X6.7087Y-3.4837
X7.0335Y-2.8144
X7.1536Y-2.6412
X7.4173Y-3.031
X7.4173Y-3.4837
X7.8622Y-2.6412
X8.126Y-3.4837
X8.437Y-0.59
X8.437Y-1.0624
X8.437Y-1.5349
X8.437Y-2.0073
X8.4606Y-3.0506
X8.8346Y-3.4837
X8.9095Y-0.59
X8.9095Y-1.0624
X8.9095Y-1.5349
X8.9095Y-2.0073
X9.2874Y-2.6412
X9.3819Y-0.59
X9.3819Y-1.0624
X9.3819Y-1.5349
X9.3819Y-2.0073
X9.5236Y-3.0113
X9.5433Y-3.4837
X9.8544Y-0.59
X9.8544Y-1.0624
X9.8544Y-1.5349
X9.8544Y-2.0073
X9.9882Y-2.6412
X10.2421Y-3.0211
X10.252Y-3.4837
X10.3268Y-0.59
X10.3268Y-1.0624
X10.3268Y-1.5349
X10.3268Y-2.0073
X10.6555Y-1.1018
X10.6969Y-2.6412
X10.9606Y-3.4837
X11.0355Y-0.59
X11.0355Y-1.5349
X11.0355Y-2.0073
X11.3972Y-0.6717
X11.5079Y-1.0624
X11.5079Y-1.5349
X11.5079Y-2.0073
X11.6693Y-3.4837
T2
X4.9796Y-1.5526
X4.9796Y-1.6026
X4.9796Y-1.6526
X4.9796Y-1.7026
X4.9796Y-1.7526
X5.0296Y-1.5526
X5.0296Y-1.6026
X5.0296Y-1.6526
X5.0296Y-1.7026
X5.0296Y-1.7526
X0.7929Y-2.774
X0.7929Y-2.824
X0.7929Y-2.874
X0.7929Y-2.924
X0.7929Y-2.974
X0.8429Y-2.774
X0.8429Y-2.824
X0.8429Y-2.874
X0.8429Y-2.924
X0.8429Y-2.974
T3
X0.824Y-0.5059
X11.9264Y-3.439
X1.3752Y-4.0098
T0
M30
