%TF.GenerationSoftware,KiCad,Pcbnew,5.1.6*%
%TF.CreationDate,2020-06-25T21:19:21+02:00*%
%TF.ProjectId,OTTO_AUX_SMD,4f54544f-5f41-4555-985f-534d442e6b69,rev?*%
%TF.SameCoordinates,PX269fb20PYbb65a20*%
%TF.FileFunction,Soldermask,Bot*%
%TF.FilePolarity,Negative*%
%FSLAX46Y46*%
G04 Gerber Fmt 4.6, Leading zero omitted, Abs format (unit mm)*
G04 Created by KiCad (PCBNEW 5.1.6) date 2020-06-25 21:19:21*
%MOMM*%
%LPD*%
G01*
G04 APERTURE LIST*
%ADD10C,0.150000*%
G04 APERTURE END LIST*
D10*
G36*
X257654608Y106843485D02*
G01*
X258874115Y106338349D01*
X259971637Y105605008D01*
X260905008Y104671637D01*
X261638349Y103574115D01*
X262143485Y102354608D01*
X262401000Y101059992D01*
X262401000Y99740008D01*
X262143485Y98445392D01*
X261638349Y97225885D01*
X260905008Y96128363D01*
X259971637Y95194992D01*
X258874115Y94461651D01*
X257654608Y93956515D01*
X256359992Y93699000D01*
X255040008Y93699000D01*
X253745392Y93956515D01*
X252525885Y94461651D01*
X251428363Y95194992D01*
X250494992Y96128363D01*
X249761651Y97225885D01*
X249256515Y98445392D01*
X248999000Y99740008D01*
X248999000Y101059992D01*
X249256515Y102354608D01*
X249761651Y103574115D01*
X250494992Y104671637D01*
X251428363Y105605008D01*
X252525885Y106338349D01*
X253745392Y106843485D01*
X255040008Y107101000D01*
X256359992Y107101000D01*
X257654608Y106843485D01*
G37*
G36*
X95654608Y106843485D02*
G01*
X96874115Y106338349D01*
X97971637Y105605008D01*
X98905008Y104671637D01*
X99638349Y103574115D01*
X100143485Y102354608D01*
X100401000Y101059992D01*
X100401000Y99740008D01*
X100143485Y98445392D01*
X99638349Y97225885D01*
X98905008Y96128363D01*
X97971637Y95194992D01*
X96874115Y94461651D01*
X95654608Y93956515D01*
X94359992Y93699000D01*
X93040008Y93699000D01*
X91745392Y93956515D01*
X90525885Y94461651D01*
X89428363Y95194992D01*
X88494992Y96128363D01*
X87761651Y97225885D01*
X87256515Y98445392D01*
X86999000Y99740008D01*
X86999000Y101059992D01*
X87256515Y102354608D01*
X87761651Y103574115D01*
X88494992Y104671637D01*
X89428363Y105605008D01*
X90525885Y106338349D01*
X91745392Y106843485D01*
X93040008Y107101000D01*
X94359992Y107101000D01*
X95654608Y106843485D01*
G37*
G36*
X-12345392Y106843485D02*
G01*
X-11125885Y106338349D01*
X-10028363Y105605008D01*
X-9094992Y104671637D01*
X-8361651Y103574115D01*
X-7856515Y102354608D01*
X-7599000Y101059992D01*
X-7599000Y99740008D01*
X-7856515Y98445392D01*
X-8361651Y97225885D01*
X-9094992Y96128363D01*
X-10028363Y95194992D01*
X-11125885Y94461651D01*
X-12345392Y93956515D01*
X-13640008Y93699000D01*
X-14959992Y93699000D01*
X-16254608Y93956515D01*
X-17474115Y94461651D01*
X-18571637Y95194992D01*
X-19505008Y96128363D01*
X-20238349Y97225885D01*
X-20743485Y98445392D01*
X-21001000Y99740008D01*
X-21001000Y101059992D01*
X-20743485Y102354608D01*
X-20238349Y103574115D01*
X-19505008Y104671637D01*
X-18571637Y105605008D01*
X-17474115Y106338349D01*
X-16254608Y106843485D01*
X-14959992Y107101000D01*
X-13640008Y107101000D01*
X-12345392Y106843485D01*
G37*
G36*
X5654608Y106843485D02*
G01*
X6874115Y106338349D01*
X7971637Y105605008D01*
X8905008Y104671637D01*
X9638349Y103574115D01*
X10143485Y102354608D01*
X10401000Y101059992D01*
X10401000Y99740008D01*
X10143485Y98445392D01*
X9638349Y97225885D01*
X8905008Y96128363D01*
X7971637Y95194992D01*
X6874115Y94461651D01*
X5654608Y93956515D01*
X4359992Y93699000D01*
X3040008Y93699000D01*
X1745392Y93956515D01*
X525885Y94461651D01*
X-571637Y95194992D01*
X-1505008Y96128363D01*
X-2238349Y97225885D01*
X-2743485Y98445392D01*
X-3001000Y99740008D01*
X-3001000Y101059992D01*
X-2743485Y102354608D01*
X-2238349Y103574115D01*
X-1505008Y104671637D01*
X-571637Y105605008D01*
X525885Y106338349D01*
X1745392Y106843485D01*
X3040008Y107101000D01*
X4359992Y107101000D01*
X5654608Y106843485D01*
G37*
G36*
X23654608Y106843485D02*
G01*
X24874115Y106338349D01*
X25971637Y105605008D01*
X26905008Y104671637D01*
X27638349Y103574115D01*
X28143485Y102354608D01*
X28401000Y101059992D01*
X28401000Y99740008D01*
X28143485Y98445392D01*
X27638349Y97225885D01*
X26905008Y96128363D01*
X25971637Y95194992D01*
X24874115Y94461651D01*
X23654608Y93956515D01*
X22359992Y93699000D01*
X21040008Y93699000D01*
X19745392Y93956515D01*
X18525885Y94461651D01*
X17428363Y95194992D01*
X16494992Y96128363D01*
X15761651Y97225885D01*
X15256515Y98445392D01*
X14999000Y99740008D01*
X14999000Y101059992D01*
X15256515Y102354608D01*
X15761651Y103574115D01*
X16494992Y104671637D01*
X17428363Y105605008D01*
X18525885Y106338349D01*
X19745392Y106843485D01*
X21040008Y107101000D01*
X22359992Y107101000D01*
X23654608Y106843485D01*
G37*
G36*
X41654608Y106843485D02*
G01*
X42874115Y106338349D01*
X43971637Y105605008D01*
X44905008Y104671637D01*
X45638349Y103574115D01*
X46143485Y102354608D01*
X46401000Y101059992D01*
X46401000Y99740008D01*
X46143485Y98445392D01*
X45638349Y97225885D01*
X44905008Y96128363D01*
X43971637Y95194992D01*
X42874115Y94461651D01*
X41654608Y93956515D01*
X40359992Y93699000D01*
X39040008Y93699000D01*
X37745392Y93956515D01*
X36525885Y94461651D01*
X35428363Y95194992D01*
X34494992Y96128363D01*
X33761651Y97225885D01*
X33256515Y98445392D01*
X32999000Y99740008D01*
X32999000Y101059992D01*
X33256515Y102354608D01*
X33761651Y103574115D01*
X34494992Y104671637D01*
X35428363Y105605008D01*
X36525885Y106338349D01*
X37745392Y106843485D01*
X39040008Y107101000D01*
X40359992Y107101000D01*
X41654608Y106843485D01*
G37*
G36*
X59654608Y106843485D02*
G01*
X60874115Y106338349D01*
X61971637Y105605008D01*
X62905008Y104671637D01*
X63638349Y103574115D01*
X64143485Y102354608D01*
X64401000Y101059992D01*
X64401000Y99740008D01*
X64143485Y98445392D01*
X63638349Y97225885D01*
X62905008Y96128363D01*
X61971637Y95194992D01*
X60874115Y94461651D01*
X59654608Y93956515D01*
X58359992Y93699000D01*
X57040008Y93699000D01*
X55745392Y93956515D01*
X54525885Y94461651D01*
X53428363Y95194992D01*
X52494992Y96128363D01*
X51761651Y97225885D01*
X51256515Y98445392D01*
X50999000Y99740008D01*
X50999000Y101059992D01*
X51256515Y102354608D01*
X51761651Y103574115D01*
X52494992Y104671637D01*
X53428363Y105605008D01*
X54525885Y106338349D01*
X55745392Y106843485D01*
X57040008Y107101000D01*
X58359992Y107101000D01*
X59654608Y106843485D01*
G37*
G36*
X77654608Y106843485D02*
G01*
X78874115Y106338349D01*
X79971637Y105605008D01*
X80905008Y104671637D01*
X81638349Y103574115D01*
X82143485Y102354608D01*
X82401000Y101059992D01*
X82401000Y99740008D01*
X82143485Y98445392D01*
X81638349Y97225885D01*
X80905008Y96128363D01*
X79971637Y95194992D01*
X78874115Y94461651D01*
X77654608Y93956515D01*
X76359992Y93699000D01*
X75040008Y93699000D01*
X73745392Y93956515D01*
X72525885Y94461651D01*
X71428363Y95194992D01*
X70494992Y96128363D01*
X69761651Y97225885D01*
X69256515Y98445392D01*
X68999000Y99740008D01*
X68999000Y101059992D01*
X69256515Y102354608D01*
X69761651Y103574115D01*
X70494992Y104671637D01*
X71428363Y105605008D01*
X72525885Y106338349D01*
X73745392Y106843485D01*
X75040008Y107101000D01*
X76359992Y107101000D01*
X77654608Y106843485D01*
G37*
G36*
X239654608Y106843485D02*
G01*
X240874115Y106338349D01*
X241971637Y105605008D01*
X242905008Y104671637D01*
X243638349Y103574115D01*
X244143485Y102354608D01*
X244401000Y101059992D01*
X244401000Y99740008D01*
X244143485Y98445392D01*
X243638349Y97225885D01*
X242905008Y96128363D01*
X241971637Y95194992D01*
X240874115Y94461651D01*
X239654608Y93956515D01*
X238359992Y93699000D01*
X237040008Y93699000D01*
X235745392Y93956515D01*
X234525885Y94461651D01*
X233428363Y95194992D01*
X232494992Y96128363D01*
X231761651Y97225885D01*
X231256515Y98445392D01*
X230999000Y99740008D01*
X230999000Y101059992D01*
X231256515Y102354608D01*
X231761651Y103574115D01*
X232494992Y104671637D01*
X233428363Y105605008D01*
X234525885Y106338349D01*
X235745392Y106843485D01*
X237040008Y107101000D01*
X238359992Y107101000D01*
X239654608Y106843485D01*
G37*
G36*
X131654608Y106843485D02*
G01*
X132874115Y106338349D01*
X133971637Y105605008D01*
X134905008Y104671637D01*
X135638349Y103574115D01*
X136143485Y102354608D01*
X136401000Y101059992D01*
X136401000Y99740008D01*
X136143485Y98445392D01*
X135638349Y97225885D01*
X134905008Y96128363D01*
X133971637Y95194992D01*
X132874115Y94461651D01*
X131654608Y93956515D01*
X130359992Y93699000D01*
X129040008Y93699000D01*
X127745392Y93956515D01*
X126525885Y94461651D01*
X125428363Y95194992D01*
X124494992Y96128363D01*
X123761651Y97225885D01*
X123256515Y98445392D01*
X122999000Y99740008D01*
X122999000Y101059992D01*
X123256515Y102354608D01*
X123761651Y103574115D01*
X124494992Y104671637D01*
X125428363Y105605008D01*
X126525885Y106338349D01*
X127745392Y106843485D01*
X129040008Y107101000D01*
X130359992Y107101000D01*
X131654608Y106843485D01*
G37*
G36*
X149654608Y106843485D02*
G01*
X150874115Y106338349D01*
X151971637Y105605008D01*
X152905008Y104671637D01*
X153638349Y103574115D01*
X154143485Y102354608D01*
X154401000Y101059992D01*
X154401000Y99740008D01*
X154143485Y98445392D01*
X153638349Y97225885D01*
X152905008Y96128363D01*
X151971637Y95194992D01*
X150874115Y94461651D01*
X149654608Y93956515D01*
X148359992Y93699000D01*
X147040008Y93699000D01*
X145745392Y93956515D01*
X144525885Y94461651D01*
X143428363Y95194992D01*
X142494992Y96128363D01*
X141761651Y97225885D01*
X141256515Y98445392D01*
X140999000Y99740008D01*
X140999000Y101059992D01*
X141256515Y102354608D01*
X141761651Y103574115D01*
X142494992Y104671637D01*
X143428363Y105605008D01*
X144525885Y106338349D01*
X145745392Y106843485D01*
X147040008Y107101000D01*
X148359992Y107101000D01*
X149654608Y106843485D01*
G37*
G36*
X167654608Y106843485D02*
G01*
X168874115Y106338349D01*
X169971637Y105605008D01*
X170905008Y104671637D01*
X171638349Y103574115D01*
X172143485Y102354608D01*
X172401000Y101059992D01*
X172401000Y99740008D01*
X172143485Y98445392D01*
X171638349Y97225885D01*
X170905008Y96128363D01*
X169971637Y95194992D01*
X168874115Y94461651D01*
X167654608Y93956515D01*
X166359992Y93699000D01*
X165040008Y93699000D01*
X163745392Y93956515D01*
X162525885Y94461651D01*
X161428363Y95194992D01*
X160494992Y96128363D01*
X159761651Y97225885D01*
X159256515Y98445392D01*
X158999000Y99740008D01*
X158999000Y101059992D01*
X159256515Y102354608D01*
X159761651Y103574115D01*
X160494992Y104671637D01*
X161428363Y105605008D01*
X162525885Y106338349D01*
X163745392Y106843485D01*
X165040008Y107101000D01*
X166359992Y107101000D01*
X167654608Y106843485D01*
G37*
G36*
X185654608Y106843485D02*
G01*
X186874115Y106338349D01*
X187971637Y105605008D01*
X188905008Y104671637D01*
X189638349Y103574115D01*
X190143485Y102354608D01*
X190401000Y101059992D01*
X190401000Y99740008D01*
X190143485Y98445392D01*
X189638349Y97225885D01*
X188905008Y96128363D01*
X187971637Y95194992D01*
X186874115Y94461651D01*
X185654608Y93956515D01*
X184359992Y93699000D01*
X183040008Y93699000D01*
X181745392Y93956515D01*
X180525885Y94461651D01*
X179428363Y95194992D01*
X178494992Y96128363D01*
X177761651Y97225885D01*
X177256515Y98445392D01*
X176999000Y99740008D01*
X176999000Y101059992D01*
X177256515Y102354608D01*
X177761651Y103574115D01*
X178494992Y104671637D01*
X179428363Y105605008D01*
X180525885Y106338349D01*
X181745392Y106843485D01*
X183040008Y107101000D01*
X184359992Y107101000D01*
X185654608Y106843485D01*
G37*
G36*
X203654608Y106843485D02*
G01*
X204874115Y106338349D01*
X205971637Y105605008D01*
X206905008Y104671637D01*
X207638349Y103574115D01*
X208143485Y102354608D01*
X208401000Y101059992D01*
X208401000Y99740008D01*
X208143485Y98445392D01*
X207638349Y97225885D01*
X206905008Y96128363D01*
X205971637Y95194992D01*
X204874115Y94461651D01*
X203654608Y93956515D01*
X202359992Y93699000D01*
X201040008Y93699000D01*
X199745392Y93956515D01*
X198525885Y94461651D01*
X197428363Y95194992D01*
X196494992Y96128363D01*
X195761651Y97225885D01*
X195256515Y98445392D01*
X194999000Y99740008D01*
X194999000Y101059992D01*
X195256515Y102354608D01*
X195761651Y103574115D01*
X196494992Y104671637D01*
X197428363Y105605008D01*
X198525885Y106338349D01*
X199745392Y106843485D01*
X201040008Y107101000D01*
X202359992Y107101000D01*
X203654608Y106843485D01*
G37*
G36*
X221654608Y106843485D02*
G01*
X222874115Y106338349D01*
X223971637Y105605008D01*
X224905008Y104671637D01*
X225638349Y103574115D01*
X226143485Y102354608D01*
X226401000Y101059992D01*
X226401000Y99740008D01*
X226143485Y98445392D01*
X225638349Y97225885D01*
X224905008Y96128363D01*
X223971637Y95194992D01*
X222874115Y94461651D01*
X221654608Y93956515D01*
X220359992Y93699000D01*
X219040008Y93699000D01*
X217745392Y93956515D01*
X216525885Y94461651D01*
X215428363Y95194992D01*
X214494992Y96128363D01*
X213761651Y97225885D01*
X213256515Y98445392D01*
X212999000Y99740008D01*
X212999000Y101059992D01*
X213256515Y102354608D01*
X213761651Y103574115D01*
X214494992Y104671637D01*
X215428363Y105605008D01*
X216525885Y106338349D01*
X217745392Y106843485D01*
X219040008Y107101000D01*
X220359992Y107101000D01*
X221654608Y106843485D01*
G37*
G36*
X113654608Y106843485D02*
G01*
X114874115Y106338349D01*
X115971637Y105605008D01*
X116905008Y104671637D01*
X117638349Y103574115D01*
X118143485Y102354608D01*
X118401000Y101059992D01*
X118401000Y99740008D01*
X118143485Y98445392D01*
X117638349Y97225885D01*
X116905008Y96128363D01*
X115971637Y95194992D01*
X114874115Y94461651D01*
X113654608Y93956515D01*
X112359992Y93699000D01*
X111040008Y93699000D01*
X109745392Y93956515D01*
X108525885Y94461651D01*
X107428363Y95194992D01*
X106494992Y96128363D01*
X105761651Y97225885D01*
X105256515Y98445392D01*
X104999000Y99740008D01*
X104999000Y101059992D01*
X105256515Y102354608D01*
X105761651Y103574115D01*
X106494992Y104671637D01*
X107428363Y105605008D01*
X108525885Y106338349D01*
X109745392Y106843485D01*
X111040008Y107101000D01*
X112359992Y107101000D01*
X113654608Y106843485D01*
G37*
G36*
X-5455814Y95342020D02*
G01*
X-5365526Y95324061D01*
X-5237952Y95271218D01*
X-5123138Y95194502D01*
X-5025498Y95096862D01*
X-4948782Y94982048D01*
X-4895939Y94854474D01*
X-4869000Y94719042D01*
X-4869000Y94580958D01*
X-4895939Y94445526D01*
X-4948782Y94317952D01*
X-5025498Y94203138D01*
X-5123138Y94105498D01*
X-5237952Y94028782D01*
X-5365526Y93975939D01*
X-5455814Y93957980D01*
X-5500957Y93949000D01*
X-5639043Y93949000D01*
X-5684186Y93957980D01*
X-5774474Y93975939D01*
X-5902048Y94028782D01*
X-6016862Y94105498D01*
X-6114502Y94203138D01*
X-6191218Y94317952D01*
X-6244061Y94445526D01*
X-6271000Y94580958D01*
X-6271000Y94719042D01*
X-6244061Y94854474D01*
X-6191218Y94982048D01*
X-6114502Y95096862D01*
X-6016862Y95194502D01*
X-5902048Y95271218D01*
X-5774474Y95324061D01*
X-5684186Y95342020D01*
X-5639043Y95351000D01*
X-5500957Y95351000D01*
X-5455814Y95342020D01*
G37*
G36*
X102895090Y101380786D02*
G01*
X102991689Y101361571D01*
X103173678Y101286189D01*
X103337463Y101176751D01*
X103476751Y101037463D01*
X103586189Y100873678D01*
X103661571Y100691689D01*
X103700000Y100498491D01*
X103700000Y100301509D01*
X103661571Y100108311D01*
X103586189Y99926322D01*
X103476751Y99762537D01*
X103337463Y99623249D01*
X103173678Y99513811D01*
X102991689Y99438429D01*
X102895090Y99419215D01*
X102798493Y99400000D01*
X102601507Y99400000D01*
X102504910Y99419214D01*
X102408311Y99438429D01*
X102226322Y99513811D01*
X102062537Y99623249D01*
X101923249Y99762537D01*
X101813811Y99926322D01*
X101738429Y100108311D01*
X101700000Y100301509D01*
X101700000Y100498491D01*
X101738429Y100691689D01*
X101813811Y100873678D01*
X101923249Y101037463D01*
X102062537Y101176751D01*
X102226322Y101286189D01*
X102408311Y101361571D01*
X102504910Y101380786D01*
X102601507Y101400000D01*
X102798493Y101400000D01*
X102895090Y101380786D01*
G37*
G36*
X246945090Y103830786D02*
G01*
X247041689Y103811571D01*
X247223678Y103736189D01*
X247387463Y103626751D01*
X247526751Y103487463D01*
X247636189Y103323678D01*
X247711571Y103141689D01*
X247750000Y102948491D01*
X247750000Y102751509D01*
X247711571Y102558311D01*
X247636189Y102376322D01*
X247526751Y102212537D01*
X247387463Y102073249D01*
X247223678Y101963811D01*
X247041689Y101888429D01*
X246945090Y101869214D01*
X246848493Y101850000D01*
X246651507Y101850000D01*
X246554910Y101869214D01*
X246458311Y101888429D01*
X246276322Y101963811D01*
X246112537Y102073249D01*
X245973249Y102212537D01*
X245863811Y102376322D01*
X245788429Y102558311D01*
X245750000Y102751509D01*
X245750000Y102948491D01*
X245788429Y103141689D01*
X245863811Y103323678D01*
X245973249Y103487463D01*
X246112537Y103626751D01*
X246276322Y103736189D01*
X246458311Y103811571D01*
X246554910Y103830786D01*
X246651507Y103850000D01*
X246848493Y103850000D01*
X246945090Y103830786D01*
G37*
G36*
X121444097Y111352967D02*
G01*
X121908354Y111160667D01*
X122326166Y110881493D01*
X122681493Y110526166D01*
X122960667Y110108354D01*
X123152967Y109644097D01*
X123251000Y109151253D01*
X123251000Y108648747D01*
X123152967Y108155903D01*
X122960667Y107691646D01*
X122681493Y107273834D01*
X122326166Y106918507D01*
X121908354Y106639333D01*
X121444097Y106447033D01*
X120951253Y106349000D01*
X120448747Y106349000D01*
X119955903Y106447033D01*
X119491646Y106639333D01*
X119073834Y106918507D01*
X118718507Y107273834D01*
X118439333Y107691646D01*
X118247033Y108155903D01*
X118149000Y108648747D01*
X118149000Y109151253D01*
X118247033Y109644097D01*
X118439333Y110108354D01*
X118718507Y110526166D01*
X119073834Y110881493D01*
X119491646Y111160667D01*
X119955903Y111352967D01*
X120448747Y111451000D01*
X120951253Y111451000D01*
X121444097Y111352967D01*
G37*
G36*
X247444097Y111952967D02*
G01*
X247908354Y111760667D01*
X248326166Y111481493D01*
X248681493Y111126166D01*
X248960667Y110708354D01*
X249152967Y110244097D01*
X249251000Y109751253D01*
X249251000Y109248747D01*
X249152967Y108755903D01*
X248960667Y108291646D01*
X248681493Y107873834D01*
X248326166Y107518507D01*
X247908354Y107239333D01*
X247444097Y107047033D01*
X246951253Y106949000D01*
X246448747Y106949000D01*
X245955903Y107047033D01*
X245491646Y107239333D01*
X245073834Y107518507D01*
X244718507Y107873834D01*
X244439333Y108291646D01*
X244247033Y108755903D01*
X244149000Y109248747D01*
X244149000Y109751253D01*
X244247033Y110244097D01*
X244439333Y110708354D01*
X244718507Y111126166D01*
X245073834Y111481493D01*
X245491646Y111760667D01*
X245955903Y111952967D01*
X246448747Y112051000D01*
X246951253Y112051000D01*
X247444097Y111952967D01*
G37*
G36*
X-4558403Y111952967D02*
G01*
X-4094146Y111760667D01*
X-3676334Y111481493D01*
X-3321007Y111126166D01*
X-3041833Y110708354D01*
X-2849533Y110244097D01*
X-2751500Y109751253D01*
X-2751500Y109248747D01*
X-2849533Y108755903D01*
X-3041833Y108291646D01*
X-3321007Y107873834D01*
X-3676334Y107518507D01*
X-4094146Y107239333D01*
X-4558403Y107047033D01*
X-5051247Y106949000D01*
X-5553753Y106949000D01*
X-6046597Y107047033D01*
X-6510854Y107239333D01*
X-6928666Y107518507D01*
X-7283993Y107873834D01*
X-7563167Y108291646D01*
X-7755467Y108755903D01*
X-7853500Y109248747D01*
X-7853500Y109751253D01*
X-7755467Y110244097D01*
X-7563167Y110708354D01*
X-7283993Y111126166D01*
X-6928666Y111481493D01*
X-6510854Y111760667D01*
X-6046597Y111952967D01*
X-5553753Y112051000D01*
X-5051247Y112051000D01*
X-4558403Y111952967D01*
G37*
G36*
X-21104910Y109380785D02*
G01*
X-21008311Y109361571D01*
X-20826322Y109286189D01*
X-20662537Y109176751D01*
X-20523249Y109037463D01*
X-20413811Y108873678D01*
X-20338429Y108691689D01*
X-20321285Y108605498D01*
X-20300000Y108498493D01*
X-20300000Y108301507D01*
X-20319214Y108204910D01*
X-20338429Y108108311D01*
X-20413811Y107926322D01*
X-20523249Y107762537D01*
X-20662537Y107623249D01*
X-20826322Y107513811D01*
X-21008311Y107438429D01*
X-21104910Y107419214D01*
X-21201507Y107400000D01*
X-21398493Y107400000D01*
X-21495090Y107419214D01*
X-21591689Y107438429D01*
X-21773678Y107513811D01*
X-21937463Y107623249D01*
X-22076751Y107762537D01*
X-22186189Y107926322D01*
X-22261571Y108108311D01*
X-22280786Y108204910D01*
X-22300000Y108301507D01*
X-22300000Y108498493D01*
X-22278715Y108605498D01*
X-22261571Y108691689D01*
X-22186189Y108873678D01*
X-22076751Y109037463D01*
X-21937463Y109176751D01*
X-21773678Y109286189D01*
X-21591689Y109361571D01*
X-21495090Y109380785D01*
X-21398493Y109400000D01*
X-21201507Y109400000D01*
X-21104910Y109380785D01*
G37*
G36*
X262544186Y109842020D02*
G01*
X262634474Y109824061D01*
X262762048Y109771218D01*
X262876862Y109694502D01*
X262974502Y109596862D01*
X263051218Y109482048D01*
X263104061Y109354474D01*
X263131000Y109219042D01*
X263131000Y109080958D01*
X263104061Y108945526D01*
X263051218Y108817952D01*
X262974502Y108703138D01*
X262876862Y108605498D01*
X262762048Y108528782D01*
X262634474Y108475939D01*
X262544186Y108457980D01*
X262499043Y108449000D01*
X262360957Y108449000D01*
X262315814Y108457980D01*
X262225526Y108475939D01*
X262097952Y108528782D01*
X261983138Y108605498D01*
X261885498Y108703138D01*
X261808782Y108817952D01*
X261755939Y108945526D01*
X261729000Y109080958D01*
X261729000Y109219042D01*
X261755939Y109354474D01*
X261808782Y109482048D01*
X261885498Y109596862D01*
X261983138Y109694502D01*
X262097952Y109771218D01*
X262225526Y109824061D01*
X262315814Y109842020D01*
X262360957Y109851000D01*
X262499043Y109851000D01*
X262544186Y109842020D01*
G37*
G36*
X32654608Y122343485D02*
G01*
X33874115Y121838349D01*
X34971637Y121105008D01*
X35905008Y120171637D01*
X36638349Y119074115D01*
X37143485Y117854608D01*
X37401000Y116559992D01*
X37401000Y115240008D01*
X37143485Y113945392D01*
X36638349Y112725885D01*
X35905008Y111628363D01*
X34971637Y110694992D01*
X33874115Y109961651D01*
X32654608Y109456515D01*
X31359992Y109199000D01*
X30040008Y109199000D01*
X28745392Y109456515D01*
X27525885Y109961651D01*
X26428363Y110694992D01*
X25494992Y111628363D01*
X24761651Y112725885D01*
X24256515Y113945392D01*
X23999000Y115240008D01*
X23999000Y116559992D01*
X24256515Y117854608D01*
X24761651Y119074115D01*
X25494992Y120171637D01*
X26428363Y121105008D01*
X27525885Y121838349D01*
X28745392Y122343485D01*
X30040008Y122601000D01*
X31359992Y122601000D01*
X32654608Y122343485D01*
G37*
G36*
X68654608Y122343485D02*
G01*
X69874115Y121838349D01*
X70971637Y121105008D01*
X71905008Y120171637D01*
X72638349Y119074115D01*
X73143485Y117854608D01*
X73401000Y116559992D01*
X73401000Y115240008D01*
X73143485Y113945392D01*
X72638349Y112725885D01*
X71905008Y111628363D01*
X70971637Y110694992D01*
X69874115Y109961651D01*
X68654608Y109456515D01*
X67359992Y109199000D01*
X66040008Y109199000D01*
X64745392Y109456515D01*
X63525885Y109961651D01*
X62428363Y110694992D01*
X61494992Y111628363D01*
X60761651Y112725885D01*
X60256515Y113945392D01*
X59999000Y115240008D01*
X59999000Y116559992D01*
X60256515Y117854608D01*
X60761651Y119074115D01*
X61494992Y120171637D01*
X62428363Y121105008D01*
X63525885Y121838349D01*
X64745392Y122343485D01*
X66040008Y122601000D01*
X67359992Y122601000D01*
X68654608Y122343485D01*
G37*
G36*
X86654608Y122343485D02*
G01*
X87874115Y121838349D01*
X88971637Y121105008D01*
X89905008Y120171637D01*
X90638349Y119074115D01*
X91143485Y117854608D01*
X91401000Y116559992D01*
X91401000Y115240008D01*
X91143485Y113945392D01*
X90638349Y112725885D01*
X89905008Y111628363D01*
X88971637Y110694992D01*
X87874115Y109961651D01*
X86654608Y109456515D01*
X85359992Y109199000D01*
X84040008Y109199000D01*
X82745392Y109456515D01*
X81525885Y109961651D01*
X80428363Y110694992D01*
X79494992Y111628363D01*
X78761651Y112725885D01*
X78256515Y113945392D01*
X77999000Y115240008D01*
X77999000Y116559992D01*
X78256515Y117854608D01*
X78761651Y119074115D01*
X79494992Y120171637D01*
X80428363Y121105008D01*
X81525885Y121838349D01*
X82745392Y122343485D01*
X84040008Y122601000D01*
X85359992Y122601000D01*
X86654608Y122343485D01*
G37*
G36*
X212654608Y122343485D02*
G01*
X213874115Y121838349D01*
X214971637Y121105008D01*
X215905008Y120171637D01*
X216638349Y119074115D01*
X217143485Y117854608D01*
X217401000Y116559992D01*
X217401000Y115240008D01*
X217143485Y113945392D01*
X216638349Y112725885D01*
X215905008Y111628363D01*
X214971637Y110694992D01*
X213874115Y109961651D01*
X212654608Y109456515D01*
X211359992Y109199000D01*
X210040008Y109199000D01*
X208745392Y109456515D01*
X207525885Y109961651D01*
X206428363Y110694992D01*
X205494992Y111628363D01*
X204761651Y112725885D01*
X204256515Y113945392D01*
X203999000Y115240008D01*
X203999000Y116559992D01*
X204256515Y117854608D01*
X204761651Y119074115D01*
X205494992Y120171637D01*
X206428363Y121105008D01*
X207525885Y121838349D01*
X208745392Y122343485D01*
X210040008Y122601000D01*
X211359992Y122601000D01*
X212654608Y122343485D01*
G37*
G36*
X230654608Y122343485D02*
G01*
X231874115Y121838349D01*
X232971637Y121105008D01*
X233905008Y120171637D01*
X234638349Y119074115D01*
X235143485Y117854608D01*
X235401000Y116559992D01*
X235401000Y115240008D01*
X235143485Y113945392D01*
X234638349Y112725885D01*
X233905008Y111628363D01*
X232971637Y110694992D01*
X231874115Y109961651D01*
X230654608Y109456515D01*
X229359992Y109199000D01*
X228040008Y109199000D01*
X226745392Y109456515D01*
X225525885Y109961651D01*
X224428363Y110694992D01*
X223494992Y111628363D01*
X222761651Y112725885D01*
X222256515Y113945392D01*
X221999000Y115240008D01*
X221999000Y116559992D01*
X222256515Y117854608D01*
X222761651Y119074115D01*
X223494992Y120171637D01*
X224428363Y121105008D01*
X225525885Y121838349D01*
X226745392Y122343485D01*
X228040008Y122601000D01*
X229359992Y122601000D01*
X230654608Y122343485D01*
G37*
G36*
X158654608Y122343485D02*
G01*
X159874115Y121838349D01*
X160971637Y121105008D01*
X161905008Y120171637D01*
X162638349Y119074115D01*
X163143485Y117854608D01*
X163401000Y116559992D01*
X163401000Y115240008D01*
X163143485Y113945392D01*
X162638349Y112725885D01*
X161905008Y111628363D01*
X160971637Y110694992D01*
X159874115Y109961651D01*
X158654608Y109456515D01*
X157359992Y109199000D01*
X156040008Y109199000D01*
X154745392Y109456515D01*
X153525885Y109961651D01*
X152428363Y110694992D01*
X151494992Y111628363D01*
X150761651Y112725885D01*
X150256515Y113945392D01*
X149999000Y115240008D01*
X149999000Y116559992D01*
X150256515Y117854608D01*
X150761651Y119074115D01*
X151494992Y120171637D01*
X152428363Y121105008D01*
X153525885Y121838349D01*
X154745392Y122343485D01*
X156040008Y122601000D01*
X157359992Y122601000D01*
X158654608Y122343485D01*
G37*
G36*
X140654608Y122343485D02*
G01*
X141874115Y121838349D01*
X142971637Y121105008D01*
X143905008Y120171637D01*
X144638349Y119074115D01*
X145143485Y117854608D01*
X145401000Y116559992D01*
X145401000Y115240008D01*
X145143485Y113945392D01*
X144638349Y112725885D01*
X143905008Y111628363D01*
X142971637Y110694992D01*
X141874115Y109961651D01*
X140654608Y109456515D01*
X139359992Y109199000D01*
X138040008Y109199000D01*
X136745392Y109456515D01*
X135525885Y109961651D01*
X134428363Y110694992D01*
X133494992Y111628363D01*
X132761651Y112725885D01*
X132256515Y113945392D01*
X131999000Y115240008D01*
X131999000Y116559992D01*
X132256515Y117854608D01*
X132761651Y119074115D01*
X133494992Y120171637D01*
X134428363Y121105008D01*
X135525885Y121838349D01*
X136745392Y122343485D01*
X138040008Y122601000D01*
X139359992Y122601000D01*
X140654608Y122343485D01*
G37*
G36*
X104654608Y122343485D02*
G01*
X105874115Y121838349D01*
X106971637Y121105008D01*
X107905008Y120171637D01*
X108638349Y119074115D01*
X109143485Y117854608D01*
X109401000Y116559992D01*
X109401000Y115240008D01*
X109143485Y113945392D01*
X108638349Y112725885D01*
X107905008Y111628363D01*
X106971637Y110694992D01*
X105874115Y109961651D01*
X104654608Y109456515D01*
X103359992Y109199000D01*
X102040008Y109199000D01*
X100745392Y109456515D01*
X99525885Y109961651D01*
X98428363Y110694992D01*
X97494992Y111628363D01*
X96761651Y112725885D01*
X96256515Y113945392D01*
X95999000Y115240008D01*
X95999000Y116559992D01*
X96256515Y117854608D01*
X96761651Y119074115D01*
X97494992Y120171637D01*
X98428363Y121105008D01*
X99525885Y121838349D01*
X100745392Y122343485D01*
X102040008Y122601000D01*
X103359992Y122601000D01*
X104654608Y122343485D01*
G37*
G36*
X14654608Y122343485D02*
G01*
X15874115Y121838349D01*
X16971637Y121105008D01*
X17905008Y120171637D01*
X18638349Y119074115D01*
X19143485Y117854608D01*
X19401000Y116559992D01*
X19401000Y115240008D01*
X19143485Y113945392D01*
X18638349Y112725885D01*
X17905008Y111628363D01*
X16971637Y110694992D01*
X15874115Y109961651D01*
X14654608Y109456515D01*
X13359992Y109199000D01*
X12040008Y109199000D01*
X10745392Y109456515D01*
X9525885Y109961651D01*
X8428363Y110694992D01*
X7494992Y111628363D01*
X6761651Y112725885D01*
X6256515Y113945392D01*
X5999000Y115240008D01*
X5999000Y116559992D01*
X6256515Y117854608D01*
X6761651Y119074115D01*
X7494992Y120171637D01*
X8428363Y121105008D01*
X9525885Y121838349D01*
X10745392Y122343485D01*
X12040008Y122601000D01*
X13359992Y122601000D01*
X14654608Y122343485D01*
G37*
G36*
X194654608Y122343485D02*
G01*
X195874115Y121838349D01*
X196971637Y121105008D01*
X197905008Y120171637D01*
X198638349Y119074115D01*
X199143485Y117854608D01*
X199401000Y116559992D01*
X199401000Y115240008D01*
X199143485Y113945392D01*
X198638349Y112725885D01*
X197905008Y111628363D01*
X196971637Y110694992D01*
X195874115Y109961651D01*
X194654608Y109456515D01*
X193359992Y109199000D01*
X192040008Y109199000D01*
X190745392Y109456515D01*
X189525885Y109961651D01*
X188428363Y110694992D01*
X187494992Y111628363D01*
X186761651Y112725885D01*
X186256515Y113945392D01*
X185999000Y115240008D01*
X185999000Y116559992D01*
X186256515Y117854608D01*
X186761651Y119074115D01*
X187494992Y120171637D01*
X188428363Y121105008D01*
X189525885Y121838349D01*
X190745392Y122343485D01*
X192040008Y122601000D01*
X193359992Y122601000D01*
X194654608Y122343485D01*
G37*
G36*
X261442383Y118762852D02*
G01*
X261815899Y118688555D01*
X262343665Y118469947D01*
X262818642Y118152577D01*
X263222577Y117748642D01*
X263539947Y117273665D01*
X263758555Y116745899D01*
X263758555Y116745897D01*
X263864282Y116214374D01*
X263870000Y116185625D01*
X263870000Y115614375D01*
X263758555Y115054101D01*
X263539947Y114526335D01*
X263222577Y114051358D01*
X262818642Y113647423D01*
X262343665Y113330053D01*
X261815899Y113111445D01*
X261442383Y113037148D01*
X261255626Y113000000D01*
X260684374Y113000000D01*
X260497617Y113037148D01*
X260124101Y113111445D01*
X259596335Y113330053D01*
X259121358Y113647423D01*
X258717423Y114051358D01*
X258400053Y114526335D01*
X258181445Y115054101D01*
X258070000Y115614375D01*
X258070000Y116185625D01*
X258075719Y116214374D01*
X258181445Y116745897D01*
X258181445Y116745899D01*
X258400053Y117273665D01*
X258717423Y117748642D01*
X259121358Y118152577D01*
X259596335Y118469947D01*
X260124101Y118688555D01*
X260497617Y118762852D01*
X260684374Y118800000D01*
X261255626Y118800000D01*
X261442383Y118762852D01*
G37*
G36*
X121172383Y118762852D02*
G01*
X121545899Y118688555D01*
X122073665Y118469947D01*
X122548642Y118152577D01*
X122952577Y117748642D01*
X123269947Y117273665D01*
X123488555Y116745899D01*
X123488555Y116745897D01*
X123594282Y116214374D01*
X123600000Y116185625D01*
X123600000Y115614375D01*
X123488555Y115054101D01*
X123269947Y114526335D01*
X122952577Y114051358D01*
X122548642Y113647423D01*
X122073665Y113330053D01*
X121545899Y113111445D01*
X121172383Y113037148D01*
X120985626Y113000000D01*
X120414374Y113000000D01*
X120227617Y113037148D01*
X119854101Y113111445D01*
X119326335Y113330053D01*
X118851358Y113647423D01*
X118447423Y114051358D01*
X118130053Y114526335D01*
X117911445Y115054101D01*
X117800000Y115614375D01*
X117800000Y116185625D01*
X117805719Y116214374D01*
X117911445Y116745897D01*
X117911445Y116745899D01*
X118130053Y117273665D01*
X118447423Y117748642D01*
X118851358Y118152577D01*
X119326335Y118469947D01*
X119854101Y118688555D01*
X120227617Y118762852D01*
X120414374Y118800000D01*
X120985626Y118800000D01*
X121172383Y118762852D01*
G37*
G36*
X-19097617Y119362852D02*
G01*
X-18724101Y119288555D01*
X-18196335Y119069947D01*
X-17721358Y118752577D01*
X-17317423Y118348642D01*
X-17000053Y117873665D01*
X-16781445Y117345899D01*
X-16781445Y117345897D01*
X-16670000Y116785626D01*
X-16670000Y116214374D01*
X-16675719Y116185625D01*
X-16781445Y115654101D01*
X-17000053Y115126335D01*
X-17317423Y114651358D01*
X-17721358Y114247423D01*
X-18196335Y113930053D01*
X-18724101Y113711445D01*
X-19045963Y113647423D01*
X-19284374Y113600000D01*
X-19855626Y113600000D01*
X-20094037Y113647423D01*
X-20415899Y113711445D01*
X-20943665Y113930053D01*
X-21418642Y114247423D01*
X-21822577Y114651358D01*
X-22139947Y115126335D01*
X-22358555Y115654101D01*
X-22464281Y116185625D01*
X-22470000Y116214374D01*
X-22470000Y116785626D01*
X-22358555Y117345897D01*
X-22358555Y117345899D01*
X-22139947Y117873665D01*
X-21822577Y118348642D01*
X-21418642Y118752577D01*
X-20943665Y119069947D01*
X-20415899Y119288555D01*
X-20042383Y119362852D01*
X-19855626Y119400000D01*
X-19284374Y119400000D01*
X-19097617Y119362852D01*
G37*
G36*
X-18929279Y121489825D02*
G01*
X-18829004Y121448290D01*
X-18738758Y121387990D01*
X-18662010Y121311242D01*
X-18601710Y121220996D01*
X-18560175Y121120721D01*
X-18539000Y121014269D01*
X-18539000Y120905731D01*
X-18560175Y120799279D01*
X-18601710Y120699004D01*
X-18662010Y120608758D01*
X-18738758Y120532010D01*
X-18829004Y120471710D01*
X-18929279Y120430175D01*
X-19035731Y120409000D01*
X-19144269Y120409000D01*
X-19250721Y120430175D01*
X-19350996Y120471710D01*
X-19441242Y120532010D01*
X-19517990Y120608758D01*
X-19578290Y120699004D01*
X-19619825Y120799279D01*
X-19641000Y120905731D01*
X-19641000Y121014269D01*
X-19619825Y121120721D01*
X-19578290Y121220996D01*
X-19517990Y121311242D01*
X-19441242Y121387990D01*
X-19350996Y121448290D01*
X-19250721Y121489825D01*
X-19144269Y121511000D01*
X-19035731Y121511000D01*
X-18929279Y121489825D01*
G37*
G36*
X-20199279Y121489825D02*
G01*
X-20099004Y121448290D01*
X-20008758Y121387990D01*
X-19932010Y121311242D01*
X-19871710Y121220996D01*
X-19830175Y121120721D01*
X-19809000Y121014269D01*
X-19809000Y120905731D01*
X-19830175Y120799279D01*
X-19871710Y120699004D01*
X-19932010Y120608758D01*
X-20008758Y120532010D01*
X-20099004Y120471710D01*
X-20199279Y120430175D01*
X-20305731Y120409000D01*
X-20414269Y120409000D01*
X-20520721Y120430175D01*
X-20620996Y120471710D01*
X-20711242Y120532010D01*
X-20787990Y120608758D01*
X-20848290Y120699004D01*
X-20889825Y120799279D01*
X-20911000Y120905731D01*
X-20911000Y121014269D01*
X-20889825Y121120721D01*
X-20848290Y121220996D01*
X-20787990Y121311242D01*
X-20711242Y121387990D01*
X-20620996Y121448290D01*
X-20520721Y121489825D01*
X-20414269Y121511000D01*
X-20305731Y121511000D01*
X-20199279Y121489825D01*
G37*
G36*
X-18929279Y122759825D02*
G01*
X-18829004Y122718290D01*
X-18738758Y122657990D01*
X-18662010Y122581242D01*
X-18601710Y122490996D01*
X-18560175Y122390721D01*
X-18539000Y122284269D01*
X-18539000Y122175731D01*
X-18560175Y122069279D01*
X-18601710Y121969004D01*
X-18662010Y121878758D01*
X-18738758Y121802010D01*
X-18829004Y121741710D01*
X-18929279Y121700175D01*
X-19035731Y121679000D01*
X-19144269Y121679000D01*
X-19250721Y121700175D01*
X-19350996Y121741710D01*
X-19441242Y121802010D01*
X-19517990Y121878758D01*
X-19578290Y121969004D01*
X-19619825Y122069279D01*
X-19641000Y122175731D01*
X-19641000Y122284269D01*
X-19619825Y122390721D01*
X-19578290Y122490996D01*
X-19517990Y122581242D01*
X-19441242Y122657990D01*
X-19350996Y122718290D01*
X-19250721Y122759825D01*
X-19144269Y122781000D01*
X-19035731Y122781000D01*
X-18929279Y122759825D01*
G37*
G36*
X-20199279Y122759825D02*
G01*
X-20099004Y122718290D01*
X-20008758Y122657990D01*
X-19932010Y122581242D01*
X-19871710Y122490996D01*
X-19830175Y122390721D01*
X-19809000Y122284269D01*
X-19809000Y122175731D01*
X-19830175Y122069279D01*
X-19871710Y121969004D01*
X-19932010Y121878758D01*
X-20008758Y121802010D01*
X-20099004Y121741710D01*
X-20199279Y121700175D01*
X-20305731Y121679000D01*
X-20414269Y121679000D01*
X-20520721Y121700175D01*
X-20620996Y121741710D01*
X-20711242Y121802010D01*
X-20787990Y121878758D01*
X-20848290Y121969004D01*
X-20889825Y122069279D01*
X-20911000Y122175731D01*
X-20911000Y122284269D01*
X-20889825Y122390721D01*
X-20848290Y122490996D01*
X-20787990Y122581242D01*
X-20711242Y122657990D01*
X-20620996Y122718290D01*
X-20520721Y122759825D01*
X-20414269Y122781000D01*
X-20305731Y122781000D01*
X-20199279Y122759825D01*
G37*
G36*
X-20199279Y124029825D02*
G01*
X-20099004Y123988290D01*
X-20008758Y123927990D01*
X-19932010Y123851242D01*
X-19871710Y123760996D01*
X-19830175Y123660721D01*
X-19809000Y123554269D01*
X-19809000Y123445731D01*
X-19830175Y123339279D01*
X-19871710Y123239004D01*
X-19932010Y123148758D01*
X-20008758Y123072010D01*
X-20099004Y123011710D01*
X-20199279Y122970175D01*
X-20305731Y122949000D01*
X-20414269Y122949000D01*
X-20520721Y122970175D01*
X-20620996Y123011710D01*
X-20711242Y123072010D01*
X-20787990Y123148758D01*
X-20848290Y123239004D01*
X-20889825Y123339279D01*
X-20911000Y123445731D01*
X-20911000Y123554269D01*
X-20889825Y123660721D01*
X-20848290Y123760996D01*
X-20787990Y123851242D01*
X-20711242Y123927990D01*
X-20620996Y123988290D01*
X-20520721Y124029825D01*
X-20414269Y124051000D01*
X-20305731Y124051000D01*
X-20199279Y124029825D01*
G37*
G36*
X-18929279Y124029825D02*
G01*
X-18829004Y123988290D01*
X-18738758Y123927990D01*
X-18662010Y123851242D01*
X-18601710Y123760996D01*
X-18560175Y123660721D01*
X-18539000Y123554269D01*
X-18539000Y123445731D01*
X-18560175Y123339279D01*
X-18601710Y123239004D01*
X-18662010Y123148758D01*
X-18738758Y123072010D01*
X-18829004Y123011710D01*
X-18929279Y122970175D01*
X-19035731Y122949000D01*
X-19144269Y122949000D01*
X-19250721Y122970175D01*
X-19350996Y123011710D01*
X-19441242Y123072010D01*
X-19517990Y123148758D01*
X-19578290Y123239004D01*
X-19619825Y123339279D01*
X-19641000Y123445731D01*
X-19641000Y123554269D01*
X-19619825Y123660721D01*
X-19578290Y123760996D01*
X-19517990Y123851242D01*
X-19441242Y123927990D01*
X-19350996Y123988290D01*
X-19250721Y124029825D01*
X-19144269Y124051000D01*
X-19035731Y124051000D01*
X-18929279Y124029825D01*
G37*
G36*
X-18929279Y125299825D02*
G01*
X-18829004Y125258290D01*
X-18738758Y125197990D01*
X-18662010Y125121242D01*
X-18601710Y125030996D01*
X-18560175Y124930721D01*
X-18539000Y124824269D01*
X-18539000Y124715731D01*
X-18560175Y124609279D01*
X-18601710Y124509004D01*
X-18662010Y124418758D01*
X-18738758Y124342010D01*
X-18829004Y124281710D01*
X-18929279Y124240175D01*
X-19035731Y124219000D01*
X-19144269Y124219000D01*
X-19250721Y124240175D01*
X-19350996Y124281710D01*
X-19441242Y124342010D01*
X-19517990Y124418758D01*
X-19578290Y124509004D01*
X-19619825Y124609279D01*
X-19641000Y124715731D01*
X-19641000Y124824269D01*
X-19619825Y124930721D01*
X-19578290Y125030996D01*
X-19517990Y125121242D01*
X-19441242Y125197990D01*
X-19350996Y125258290D01*
X-19250721Y125299825D01*
X-19144269Y125321000D01*
X-19035731Y125321000D01*
X-18929279Y125299825D01*
G37*
G36*
X-20199279Y125299825D02*
G01*
X-20099004Y125258290D01*
X-20008758Y125197990D01*
X-19932010Y125121242D01*
X-19871710Y125030996D01*
X-19830175Y124930721D01*
X-19809000Y124824269D01*
X-19809000Y124715731D01*
X-19830175Y124609279D01*
X-19871710Y124509004D01*
X-19932010Y124418758D01*
X-20008758Y124342010D01*
X-20099004Y124281710D01*
X-20199279Y124240175D01*
X-20305731Y124219000D01*
X-20414269Y124219000D01*
X-20520721Y124240175D01*
X-20620996Y124281710D01*
X-20711242Y124342010D01*
X-20787990Y124418758D01*
X-20848290Y124509004D01*
X-20889825Y124609279D01*
X-20911000Y124715731D01*
X-20911000Y124824269D01*
X-20889825Y124930721D01*
X-20848290Y125030996D01*
X-20787990Y125121242D01*
X-20711242Y125197990D01*
X-20620996Y125258290D01*
X-20520721Y125299825D01*
X-20414269Y125321000D01*
X-20305731Y125321000D01*
X-20199279Y125299825D01*
G37*
G36*
X-18539000Y125489000D02*
G01*
X-19641000Y125489000D01*
X-19641000Y126591000D01*
X-18539000Y126591000D01*
X-18539000Y125489000D01*
G37*
G36*
X-20199279Y126569825D02*
G01*
X-20099004Y126528290D01*
X-20008758Y126467990D01*
X-19932010Y126391242D01*
X-19871710Y126300996D01*
X-19830175Y126200721D01*
X-19809000Y126094269D01*
X-19809000Y125985731D01*
X-19830175Y125879279D01*
X-19871710Y125779004D01*
X-19932010Y125688758D01*
X-20008758Y125612010D01*
X-20099004Y125551710D01*
X-20199279Y125510175D01*
X-20305731Y125489000D01*
X-20414269Y125489000D01*
X-20520721Y125510175D01*
X-20620996Y125551710D01*
X-20711242Y125612010D01*
X-20787990Y125688758D01*
X-20848290Y125779004D01*
X-20889825Y125879279D01*
X-20911000Y125985731D01*
X-20911000Y126094269D01*
X-20889825Y126200721D01*
X-20848290Y126300996D01*
X-20787990Y126391242D01*
X-20711242Y126467990D01*
X-20620996Y126528290D01*
X-20520721Y126569825D01*
X-20414269Y126591000D01*
X-20305731Y126591000D01*
X-20199279Y126569825D01*
G37*
G36*
X217798255Y138622181D02*
G01*
X218171513Y138467573D01*
X218507436Y138243116D01*
X218793116Y137957436D01*
X219017573Y137621513D01*
X219172181Y137248255D01*
X219251000Y136852006D01*
X219251000Y136447994D01*
X219172181Y136051745D01*
X219017573Y135678487D01*
X218793116Y135342564D01*
X218507436Y135056884D01*
X218171513Y134832427D01*
X217798255Y134677819D01*
X217402006Y134599000D01*
X216997994Y134599000D01*
X216601745Y134677819D01*
X216228487Y134832427D01*
X215892564Y135056884D01*
X215606884Y135342564D01*
X215382427Y135678487D01*
X215227819Y136051745D01*
X215149000Y136447994D01*
X215149000Y136852006D01*
X215227819Y137248255D01*
X215382427Y137621513D01*
X215606884Y137957436D01*
X215892564Y138243116D01*
X216228487Y138467573D01*
X216601745Y138622181D01*
X216997994Y138701000D01*
X217402006Y138701000D01*
X217798255Y138622181D01*
G37*
G36*
X193798255Y138622181D02*
G01*
X194171513Y138467573D01*
X194507436Y138243116D01*
X194793116Y137957436D01*
X195017573Y137621513D01*
X195172181Y137248255D01*
X195251000Y136852006D01*
X195251000Y136447994D01*
X195172181Y136051745D01*
X195017573Y135678487D01*
X194793116Y135342564D01*
X194507436Y135056884D01*
X194171513Y134832427D01*
X193798255Y134677819D01*
X193402006Y134599000D01*
X192997994Y134599000D01*
X192601745Y134677819D01*
X192228487Y134832427D01*
X191892564Y135056884D01*
X191606884Y135342564D01*
X191382427Y135678487D01*
X191227819Y136051745D01*
X191149000Y136447994D01*
X191149000Y136852006D01*
X191227819Y137248255D01*
X191382427Y137621513D01*
X191606884Y137957436D01*
X191892564Y138243116D01*
X192228487Y138467573D01*
X192601745Y138622181D01*
X192997994Y138701000D01*
X193402006Y138701000D01*
X193798255Y138622181D01*
G37*
G36*
X259798255Y138622181D02*
G01*
X260171513Y138467573D01*
X260507436Y138243116D01*
X260793116Y137957436D01*
X261017573Y137621513D01*
X261172181Y137248255D01*
X261251000Y136852006D01*
X261251000Y136447994D01*
X261172181Y136051745D01*
X261017573Y135678487D01*
X260793116Y135342564D01*
X260507436Y135056884D01*
X260171513Y134832427D01*
X259798255Y134677819D01*
X259402006Y134599000D01*
X258997994Y134599000D01*
X258601745Y134677819D01*
X258228487Y134832427D01*
X257892564Y135056884D01*
X257606884Y135342564D01*
X257382427Y135678487D01*
X257227819Y136051745D01*
X257149000Y136447994D01*
X257149000Y136852006D01*
X257227819Y137248255D01*
X257382427Y137621513D01*
X257606884Y137957436D01*
X257892564Y138243116D01*
X258228487Y138467573D01*
X258601745Y138622181D01*
X258997994Y138701000D01*
X259402006Y138701000D01*
X259798255Y138622181D01*
G37*
G36*
X247798255Y138622181D02*
G01*
X248171513Y138467573D01*
X248507436Y138243116D01*
X248793116Y137957436D01*
X249017573Y137621513D01*
X249172181Y137248255D01*
X249251000Y136852006D01*
X249251000Y136447994D01*
X249172181Y136051745D01*
X249017573Y135678487D01*
X248793116Y135342564D01*
X248507436Y135056884D01*
X248171513Y134832427D01*
X247798255Y134677819D01*
X247402006Y134599000D01*
X246997994Y134599000D01*
X246601745Y134677819D01*
X246228487Y134832427D01*
X245892564Y135056884D01*
X245606884Y135342564D01*
X245382427Y135678487D01*
X245227819Y136051745D01*
X245149000Y136447994D01*
X245149000Y136852006D01*
X245227819Y137248255D01*
X245382427Y137621513D01*
X245606884Y137957436D01*
X245892564Y138243116D01*
X246228487Y138467573D01*
X246601745Y138622181D01*
X246997994Y138701000D01*
X247402006Y138701000D01*
X247798255Y138622181D01*
G37*
G36*
X181798255Y138622181D02*
G01*
X182171513Y138467573D01*
X182507436Y138243116D01*
X182793116Y137957436D01*
X183017573Y137621513D01*
X183172181Y137248255D01*
X183251000Y136852006D01*
X183251000Y136447994D01*
X183172181Y136051745D01*
X183017573Y135678487D01*
X182793116Y135342564D01*
X182507436Y135056884D01*
X182171513Y134832427D01*
X181798255Y134677819D01*
X181402006Y134599000D01*
X180997994Y134599000D01*
X180601745Y134677819D01*
X180228487Y134832427D01*
X179892564Y135056884D01*
X179606884Y135342564D01*
X179382427Y135678487D01*
X179227819Y136051745D01*
X179149000Y136447994D01*
X179149000Y136852006D01*
X179227819Y137248255D01*
X179382427Y137621513D01*
X179606884Y137957436D01*
X179892564Y138243116D01*
X180228487Y138467573D01*
X180601745Y138622181D01*
X180997994Y138701000D01*
X181402006Y138701000D01*
X181798255Y138622181D01*
G37*
G36*
X229798255Y138622181D02*
G01*
X230171513Y138467573D01*
X230507436Y138243116D01*
X230793116Y137957436D01*
X231017573Y137621513D01*
X231172181Y137248255D01*
X231251000Y136852006D01*
X231251000Y136447994D01*
X231172181Y136051745D01*
X231017573Y135678487D01*
X230793116Y135342564D01*
X230507436Y135056884D01*
X230171513Y134832427D01*
X229798255Y134677819D01*
X229402006Y134599000D01*
X228997994Y134599000D01*
X228601745Y134677819D01*
X228228487Y134832427D01*
X227892564Y135056884D01*
X227606884Y135342564D01*
X227382427Y135678487D01*
X227227819Y136051745D01*
X227149000Y136447994D01*
X227149000Y136852006D01*
X227227819Y137248255D01*
X227382427Y137621513D01*
X227606884Y137957436D01*
X227892564Y138243116D01*
X228228487Y138467573D01*
X228601745Y138622181D01*
X228997994Y138701000D01*
X229402006Y138701000D01*
X229798255Y138622181D01*
G37*
G36*
X205798255Y138622181D02*
G01*
X206171513Y138467573D01*
X206507436Y138243116D01*
X206793116Y137957436D01*
X207017573Y137621513D01*
X207172181Y137248255D01*
X207251000Y136852006D01*
X207251000Y136447994D01*
X207172181Y136051745D01*
X207017573Y135678487D01*
X206793116Y135342564D01*
X206507436Y135056884D01*
X206171513Y134832427D01*
X205798255Y134677819D01*
X205402006Y134599000D01*
X204997994Y134599000D01*
X204601745Y134677819D01*
X204228487Y134832427D01*
X203892564Y135056884D01*
X203606884Y135342564D01*
X203382427Y135678487D01*
X203227819Y136051745D01*
X203149000Y136447994D01*
X203149000Y136852006D01*
X203227819Y137248255D01*
X203382427Y137621513D01*
X203606884Y137957436D01*
X203892564Y138243116D01*
X204228487Y138467573D01*
X204601745Y138622181D01*
X204997994Y138701000D01*
X205402006Y138701000D01*
X205798255Y138622181D01*
G37*
G36*
X108052041Y141174000D02*
G01*
X104950041Y141174000D01*
X104950041Y143776000D01*
X108052041Y143776000D01*
X108052041Y141174000D01*
G37*
G36*
X49235933Y148515924D02*
G01*
X49764958Y148410694D01*
X50429397Y148135475D01*
X50429399Y148135474D01*
X50518408Y148076000D01*
X51027377Y147735917D01*
X51535917Y147227377D01*
X51735696Y146928387D01*
X51903121Y146677819D01*
X51935475Y146629397D01*
X52210694Y145964958D01*
X52351000Y145259592D01*
X52351000Y144540408D01*
X52210694Y143835042D01*
X51935475Y143170603D01*
X51535917Y142572623D01*
X51027377Y142064083D01*
X50728387Y141864304D01*
X50429399Y141664526D01*
X50429398Y141664525D01*
X50429397Y141664525D01*
X49764958Y141389306D01*
X49235933Y141284076D01*
X49059593Y141249000D01*
X48340407Y141249000D01*
X48164067Y141284076D01*
X47635042Y141389306D01*
X46970603Y141664525D01*
X46970602Y141664525D01*
X46970601Y141664526D01*
X46671613Y141864304D01*
X46372623Y142064083D01*
X45864083Y142572623D01*
X45464525Y143170603D01*
X45189306Y143835042D01*
X45049000Y144540408D01*
X45049000Y145259592D01*
X45189306Y145964958D01*
X45464525Y146629397D01*
X45496880Y146677819D01*
X45664304Y146928387D01*
X45864083Y147227377D01*
X46372623Y147735917D01*
X46881592Y148076000D01*
X46970601Y148135474D01*
X46970603Y148135475D01*
X47635042Y148410694D01*
X48164067Y148515924D01*
X48340407Y148551000D01*
X49059593Y148551000D01*
X49235933Y148515924D01*
G37*
G36*
X-4764067Y148515924D02*
G01*
X-4235042Y148410694D01*
X-3570603Y148135475D01*
X-3570601Y148135474D01*
X-3481592Y148076000D01*
X-2972623Y147735917D01*
X-2464083Y147227377D01*
X-2264304Y146928387D01*
X-2096879Y146677819D01*
X-2064525Y146629397D01*
X-1789306Y145964958D01*
X-1649000Y145259592D01*
X-1649000Y144540408D01*
X-1789306Y143835042D01*
X-2064525Y143170603D01*
X-2464083Y142572623D01*
X-2972623Y142064083D01*
X-3271613Y141864304D01*
X-3570601Y141664526D01*
X-3570602Y141664525D01*
X-3570603Y141664525D01*
X-4235042Y141389306D01*
X-4764067Y141284076D01*
X-4940407Y141249000D01*
X-5659593Y141249000D01*
X-5835933Y141284076D01*
X-6364958Y141389306D01*
X-7029397Y141664525D01*
X-7029398Y141664525D01*
X-7029399Y141664526D01*
X-7328387Y141864304D01*
X-7627377Y142064083D01*
X-8135917Y142572623D01*
X-8535475Y143170603D01*
X-8810694Y143835042D01*
X-8951000Y144540408D01*
X-8951000Y145259592D01*
X-8810694Y145964958D01*
X-8535475Y146629397D01*
X-8503120Y146677819D01*
X-8335696Y146928387D01*
X-8135917Y147227377D01*
X-7627377Y147735917D01*
X-7118408Y148076000D01*
X-7029399Y148135474D01*
X-7029397Y148135475D01*
X-6364958Y148410694D01*
X-5835933Y148515924D01*
X-5659593Y148551000D01*
X-4940407Y148551000D01*
X-4764067Y148515924D01*
G37*
G36*
X104852041Y144174000D02*
G01*
X103450041Y144174000D01*
X103450041Y169076000D01*
X104852041Y169076000D01*
X104852041Y144174000D01*
G37*
G36*
X181798255Y150622181D02*
G01*
X182171513Y150467573D01*
X182507436Y150243116D01*
X182793116Y149957436D01*
X183017573Y149621513D01*
X183172181Y149248255D01*
X183251000Y148852006D01*
X183251000Y148447994D01*
X183172181Y148051745D01*
X183017573Y147678487D01*
X182793116Y147342564D01*
X182507436Y147056884D01*
X182171513Y146832427D01*
X181798255Y146677819D01*
X181402006Y146599000D01*
X180997994Y146599000D01*
X180601745Y146677819D01*
X180228487Y146832427D01*
X179892564Y147056884D01*
X179606884Y147342564D01*
X179382427Y147678487D01*
X179227819Y148051745D01*
X179149000Y148447994D01*
X179149000Y148852006D01*
X179227819Y149248255D01*
X179382427Y149621513D01*
X179606884Y149957436D01*
X179892564Y150243116D01*
X180228487Y150467573D01*
X180601745Y150622181D01*
X180997994Y150701000D01*
X181402006Y150701000D01*
X181798255Y150622181D01*
G37*
G36*
X193798255Y150622181D02*
G01*
X194171513Y150467573D01*
X194507436Y150243116D01*
X194793116Y149957436D01*
X195017573Y149621513D01*
X195172181Y149248255D01*
X195251000Y148852006D01*
X195251000Y148447994D01*
X195172181Y148051745D01*
X195017573Y147678487D01*
X194793116Y147342564D01*
X194507436Y147056884D01*
X194171513Y146832427D01*
X193798255Y146677819D01*
X193402006Y146599000D01*
X192997994Y146599000D01*
X192601745Y146677819D01*
X192228487Y146832427D01*
X191892564Y147056884D01*
X191606884Y147342564D01*
X191382427Y147678487D01*
X191227819Y148051745D01*
X191149000Y148447994D01*
X191149000Y148852006D01*
X191227819Y149248255D01*
X191382427Y149621513D01*
X191606884Y149957436D01*
X191892564Y150243116D01*
X192228487Y150467573D01*
X192601745Y150622181D01*
X192997994Y150701000D01*
X193402006Y150701000D01*
X193798255Y150622181D01*
G37*
G36*
X205798255Y150622181D02*
G01*
X206171513Y150467573D01*
X206507436Y150243116D01*
X206793116Y149957436D01*
X207017573Y149621513D01*
X207172181Y149248255D01*
X207251000Y148852006D01*
X207251000Y148447994D01*
X207172181Y148051745D01*
X207017573Y147678487D01*
X206793116Y147342564D01*
X206507436Y147056884D01*
X206171513Y146832427D01*
X205798255Y146677819D01*
X205402006Y146599000D01*
X204997994Y146599000D01*
X204601745Y146677819D01*
X204228487Y146832427D01*
X203892564Y147056884D01*
X203606884Y147342564D01*
X203382427Y147678487D01*
X203227819Y148051745D01*
X203149000Y148447994D01*
X203149000Y148852006D01*
X203227819Y149248255D01*
X203382427Y149621513D01*
X203606884Y149957436D01*
X203892564Y150243116D01*
X204228487Y150467573D01*
X204601745Y150622181D01*
X204997994Y150701000D01*
X205402006Y150701000D01*
X205798255Y150622181D01*
G37*
G36*
X217798255Y150622181D02*
G01*
X218171513Y150467573D01*
X218507436Y150243116D01*
X218793116Y149957436D01*
X219017573Y149621513D01*
X219172181Y149248255D01*
X219251000Y148852006D01*
X219251000Y148447994D01*
X219172181Y148051745D01*
X219017573Y147678487D01*
X218793116Y147342564D01*
X218507436Y147056884D01*
X218171513Y146832427D01*
X217798255Y146677819D01*
X217402006Y146599000D01*
X216997994Y146599000D01*
X216601745Y146677819D01*
X216228487Y146832427D01*
X215892564Y147056884D01*
X215606884Y147342564D01*
X215382427Y147678487D01*
X215227819Y148051745D01*
X215149000Y148447994D01*
X215149000Y148852006D01*
X215227819Y149248255D01*
X215382427Y149621513D01*
X215606884Y149957436D01*
X215892564Y150243116D01*
X216228487Y150467573D01*
X216601745Y150622181D01*
X216997994Y150701000D01*
X217402006Y150701000D01*
X217798255Y150622181D01*
G37*
G36*
X229798255Y150622181D02*
G01*
X230171513Y150467573D01*
X230507436Y150243116D01*
X230793116Y149957436D01*
X231017573Y149621513D01*
X231172181Y149248255D01*
X231251000Y148852006D01*
X231251000Y148447994D01*
X231172181Y148051745D01*
X231017573Y147678487D01*
X230793116Y147342564D01*
X230507436Y147056884D01*
X230171513Y146832427D01*
X229798255Y146677819D01*
X229402006Y146599000D01*
X228997994Y146599000D01*
X228601745Y146677819D01*
X228228487Y146832427D01*
X227892564Y147056884D01*
X227606884Y147342564D01*
X227382427Y147678487D01*
X227227819Y148051745D01*
X227149000Y148447994D01*
X227149000Y148852006D01*
X227227819Y149248255D01*
X227382427Y149621513D01*
X227606884Y149957436D01*
X227892564Y150243116D01*
X228228487Y150467573D01*
X228601745Y150622181D01*
X228997994Y150701000D01*
X229402006Y150701000D01*
X229798255Y150622181D01*
G37*
G36*
X247798255Y150622181D02*
G01*
X248171513Y150467573D01*
X248507436Y150243116D01*
X248793116Y149957436D01*
X249017573Y149621513D01*
X249172181Y149248255D01*
X249251000Y148852006D01*
X249251000Y148447994D01*
X249172181Y148051745D01*
X249017573Y147678487D01*
X248793116Y147342564D01*
X248507436Y147056884D01*
X248171513Y146832427D01*
X247798255Y146677819D01*
X247402006Y146599000D01*
X246997994Y146599000D01*
X246601745Y146677819D01*
X246228487Y146832427D01*
X245892564Y147056884D01*
X245606884Y147342564D01*
X245382427Y147678487D01*
X245227819Y148051745D01*
X245149000Y148447994D01*
X245149000Y148852006D01*
X245227819Y149248255D01*
X245382427Y149621513D01*
X245606884Y149957436D01*
X245892564Y150243116D01*
X246228487Y150467573D01*
X246601745Y150622181D01*
X246997994Y150701000D01*
X247402006Y150701000D01*
X247798255Y150622181D01*
G37*
G36*
X259798255Y150622181D02*
G01*
X260171513Y150467573D01*
X260507436Y150243116D01*
X260793116Y149957436D01*
X261017573Y149621513D01*
X261172181Y149248255D01*
X261251000Y148852006D01*
X261251000Y148447994D01*
X261172181Y148051745D01*
X261017573Y147678487D01*
X260793116Y147342564D01*
X260507436Y147056884D01*
X260171513Y146832427D01*
X259798255Y146677819D01*
X259402006Y146599000D01*
X258997994Y146599000D01*
X258601745Y146677819D01*
X258228487Y146832427D01*
X257892564Y147056884D01*
X257606884Y147342564D01*
X257382427Y147678487D01*
X257227819Y148051745D01*
X257149000Y148447994D01*
X257149000Y148852006D01*
X257227819Y149248255D01*
X257382427Y149621513D01*
X257606884Y149957436D01*
X257892564Y150243116D01*
X258228487Y150467573D01*
X258601745Y150622181D01*
X258997994Y150701000D01*
X259402006Y150701000D01*
X259798255Y150622181D01*
G37*
G36*
X247798255Y162622181D02*
G01*
X248171513Y162467573D01*
X248507436Y162243116D01*
X248793116Y161957436D01*
X249017573Y161621513D01*
X249172181Y161248255D01*
X249251000Y160852006D01*
X249251000Y160447994D01*
X249172181Y160051745D01*
X249017573Y159678487D01*
X248793116Y159342564D01*
X248507436Y159056884D01*
X248171513Y158832427D01*
X247798255Y158677819D01*
X247402006Y158599000D01*
X246997994Y158599000D01*
X246601745Y158677819D01*
X246228487Y158832427D01*
X245892564Y159056884D01*
X245606884Y159342564D01*
X245382427Y159678487D01*
X245227819Y160051745D01*
X245149000Y160447994D01*
X245149000Y160852006D01*
X245227819Y161248255D01*
X245382427Y161621513D01*
X245606884Y161957436D01*
X245892564Y162243116D01*
X246228487Y162467573D01*
X246601745Y162622181D01*
X246997994Y162701000D01*
X247402006Y162701000D01*
X247798255Y162622181D01*
G37*
G36*
X229798255Y162622181D02*
G01*
X230171513Y162467573D01*
X230507436Y162243116D01*
X230793116Y161957436D01*
X231017573Y161621513D01*
X231172181Y161248255D01*
X231251000Y160852006D01*
X231251000Y160447994D01*
X231172181Y160051745D01*
X231017573Y159678487D01*
X230793116Y159342564D01*
X230507436Y159056884D01*
X230171513Y158832427D01*
X229798255Y158677819D01*
X229402006Y158599000D01*
X228997994Y158599000D01*
X228601745Y158677819D01*
X228228487Y158832427D01*
X227892564Y159056884D01*
X227606884Y159342564D01*
X227382427Y159678487D01*
X227227819Y160051745D01*
X227149000Y160447994D01*
X227149000Y160852006D01*
X227227819Y161248255D01*
X227382427Y161621513D01*
X227606884Y161957436D01*
X227892564Y162243116D01*
X228228487Y162467573D01*
X228601745Y162622181D01*
X228997994Y162701000D01*
X229402006Y162701000D01*
X229798255Y162622181D01*
G37*
G36*
X259798255Y162622181D02*
G01*
X260171513Y162467573D01*
X260507436Y162243116D01*
X260793116Y161957436D01*
X261017573Y161621513D01*
X261172181Y161248255D01*
X261251000Y160852006D01*
X261251000Y160447994D01*
X261172181Y160051745D01*
X261017573Y159678487D01*
X260793116Y159342564D01*
X260507436Y159056884D01*
X260171513Y158832427D01*
X259798255Y158677819D01*
X259402006Y158599000D01*
X258997994Y158599000D01*
X258601745Y158677819D01*
X258228487Y158832427D01*
X257892564Y159056884D01*
X257606884Y159342564D01*
X257382427Y159678487D01*
X257227819Y160051745D01*
X257149000Y160447994D01*
X257149000Y160852006D01*
X257227819Y161248255D01*
X257382427Y161621513D01*
X257606884Y161957436D01*
X257892564Y162243116D01*
X258228487Y162467573D01*
X258601745Y162622181D01*
X258997994Y162701000D01*
X259402006Y162701000D01*
X259798255Y162622181D01*
G37*
G36*
X217798255Y162622181D02*
G01*
X218171513Y162467573D01*
X218507436Y162243116D01*
X218793116Y161957436D01*
X219017573Y161621513D01*
X219172181Y161248255D01*
X219251000Y160852006D01*
X219251000Y160447994D01*
X219172181Y160051745D01*
X219017573Y159678487D01*
X218793116Y159342564D01*
X218507436Y159056884D01*
X218171513Y158832427D01*
X217798255Y158677819D01*
X217402006Y158599000D01*
X216997994Y158599000D01*
X216601745Y158677819D01*
X216228487Y158832427D01*
X215892564Y159056884D01*
X215606884Y159342564D01*
X215382427Y159678487D01*
X215227819Y160051745D01*
X215149000Y160447994D01*
X215149000Y160852006D01*
X215227819Y161248255D01*
X215382427Y161621513D01*
X215606884Y161957436D01*
X215892564Y162243116D01*
X216228487Y162467573D01*
X216601745Y162622181D01*
X216997994Y162701000D01*
X217402006Y162701000D01*
X217798255Y162622181D01*
G37*
G36*
X205798255Y162622181D02*
G01*
X206171513Y162467573D01*
X206507436Y162243116D01*
X206793116Y161957436D01*
X207017573Y161621513D01*
X207172181Y161248255D01*
X207251000Y160852006D01*
X207251000Y160447994D01*
X207172181Y160051745D01*
X207017573Y159678487D01*
X206793116Y159342564D01*
X206507436Y159056884D01*
X206171513Y158832427D01*
X205798255Y158677819D01*
X205402006Y158599000D01*
X204997994Y158599000D01*
X204601745Y158677819D01*
X204228487Y158832427D01*
X203892564Y159056884D01*
X203606884Y159342564D01*
X203382427Y159678487D01*
X203227819Y160051745D01*
X203149000Y160447994D01*
X203149000Y160852006D01*
X203227819Y161248255D01*
X203382427Y161621513D01*
X203606884Y161957436D01*
X203892564Y162243116D01*
X204228487Y162467573D01*
X204601745Y162622181D01*
X204997994Y162701000D01*
X205402006Y162701000D01*
X205798255Y162622181D01*
G37*
G36*
X193798255Y162622181D02*
G01*
X194171513Y162467573D01*
X194507436Y162243116D01*
X194793116Y161957436D01*
X195017573Y161621513D01*
X195172181Y161248255D01*
X195251000Y160852006D01*
X195251000Y160447994D01*
X195172181Y160051745D01*
X195017573Y159678487D01*
X194793116Y159342564D01*
X194507436Y159056884D01*
X194171513Y158832427D01*
X193798255Y158677819D01*
X193402006Y158599000D01*
X192997994Y158599000D01*
X192601745Y158677819D01*
X192228487Y158832427D01*
X191892564Y159056884D01*
X191606884Y159342564D01*
X191382427Y159678487D01*
X191227819Y160051745D01*
X191149000Y160447994D01*
X191149000Y160852006D01*
X191227819Y161248255D01*
X191382427Y161621513D01*
X191606884Y161957436D01*
X191892564Y162243116D01*
X192228487Y162467573D01*
X192601745Y162622181D01*
X192997994Y162701000D01*
X193402006Y162701000D01*
X193798255Y162622181D01*
G37*
G36*
X181798255Y162622181D02*
G01*
X182171513Y162467573D01*
X182507436Y162243116D01*
X182793116Y161957436D01*
X183017573Y161621513D01*
X183172181Y161248255D01*
X183251000Y160852006D01*
X183251000Y160447994D01*
X183172181Y160051745D01*
X183017573Y159678487D01*
X182793116Y159342564D01*
X182507436Y159056884D01*
X182171513Y158832427D01*
X181798255Y158677819D01*
X181402006Y158599000D01*
X180997994Y158599000D01*
X180601745Y158677819D01*
X180228487Y158832427D01*
X179892564Y159056884D01*
X179606884Y159342564D01*
X179382427Y159678487D01*
X179227819Y160051745D01*
X179149000Y160447994D01*
X179149000Y160852006D01*
X179227819Y161248255D01*
X179382427Y161621513D01*
X179606884Y161957436D01*
X179892564Y162243116D01*
X180228487Y162467573D01*
X180601745Y162622181D01*
X180997994Y162701000D01*
X181402006Y162701000D01*
X181798255Y162622181D01*
G37*
G36*
X76235934Y168515923D02*
G01*
X76764958Y168410694D01*
X77401807Y168146903D01*
X77429399Y168135474D01*
X77518408Y168076000D01*
X78027377Y167735917D01*
X78535917Y167227377D01*
X78935475Y166629397D01*
X79210694Y165964958D01*
X79351000Y165259592D01*
X79351000Y164540408D01*
X79210694Y163835042D01*
X78935475Y163170603D01*
X78535917Y162572623D01*
X78027377Y162064083D01*
X77728387Y161864304D01*
X77429399Y161664526D01*
X77429398Y161664525D01*
X77429397Y161664525D01*
X76764958Y161389306D01*
X76235934Y161284077D01*
X76059593Y161249000D01*
X75340407Y161249000D01*
X75164067Y161284076D01*
X74635042Y161389306D01*
X73970603Y161664525D01*
X73970602Y161664525D01*
X73970601Y161664526D01*
X73671613Y161864304D01*
X73372623Y162064083D01*
X72864083Y162572623D01*
X72464525Y163170603D01*
X72189306Y163835042D01*
X72049000Y164540408D01*
X72049000Y165259592D01*
X72189306Y165964958D01*
X72464525Y166629397D01*
X72864083Y167227377D01*
X73372623Y167735917D01*
X73881592Y168076000D01*
X73970601Y168135474D01*
X73998193Y168146903D01*
X74635042Y168410694D01*
X75164066Y168515923D01*
X75340407Y168551000D01*
X76059593Y168551000D01*
X76235934Y168515923D01*
G37*
G36*
X22235934Y168515923D02*
G01*
X22764958Y168410694D01*
X23401807Y168146903D01*
X23429399Y168135474D01*
X23518408Y168076000D01*
X24027377Y167735917D01*
X24535917Y167227377D01*
X24935475Y166629397D01*
X25210694Y165964958D01*
X25351000Y165259592D01*
X25351000Y164540408D01*
X25210694Y163835042D01*
X24935475Y163170603D01*
X24535917Y162572623D01*
X24027377Y162064083D01*
X23728387Y161864304D01*
X23429399Y161664526D01*
X23429398Y161664525D01*
X23429397Y161664525D01*
X22764958Y161389306D01*
X22235933Y161284076D01*
X22059593Y161249000D01*
X21340407Y161249000D01*
X21164067Y161284076D01*
X20635042Y161389306D01*
X19970603Y161664525D01*
X19970602Y161664525D01*
X19970601Y161664526D01*
X19671613Y161864304D01*
X19372623Y162064083D01*
X18864083Y162572623D01*
X18464525Y163170603D01*
X18189306Y163835042D01*
X18049000Y164540408D01*
X18049000Y165259592D01*
X18189306Y165964958D01*
X18464525Y166629397D01*
X18864083Y167227377D01*
X19372623Y167735917D01*
X19881592Y168076000D01*
X19970601Y168135474D01*
X19998193Y168146903D01*
X20635042Y168410694D01*
X21164066Y168515923D01*
X21340407Y168551000D01*
X22059593Y168551000D01*
X22235934Y168515923D01*
G37*
G36*
X236554097Y171343967D02*
G01*
X237018354Y171151667D01*
X237436166Y170872493D01*
X237791493Y170517166D01*
X238070667Y170099354D01*
X238262967Y169635097D01*
X238361000Y169142253D01*
X238361000Y168639747D01*
X238262967Y168146903D01*
X238070667Y167682646D01*
X237791493Y167264834D01*
X237436166Y166909507D01*
X237018354Y166630333D01*
X236554097Y166438033D01*
X236061253Y166340000D01*
X235558747Y166340000D01*
X235065903Y166438033D01*
X234601646Y166630333D01*
X234183834Y166909507D01*
X233828507Y167264834D01*
X233549333Y167682646D01*
X233357033Y168146903D01*
X233259000Y168639747D01*
X233259000Y169142253D01*
X233357033Y169635097D01*
X233549333Y170099354D01*
X233828507Y170517166D01*
X234183834Y170872493D01*
X234601646Y171151667D01*
X235065903Y171343967D01*
X235558747Y171442000D01*
X236061253Y171442000D01*
X236554097Y171343967D01*
G37*
G36*
X108052041Y169474000D02*
G01*
X104950041Y169474000D01*
X104950041Y172076000D01*
X108052041Y172076000D01*
X108052041Y169474000D01*
G37*
G36*
X205798255Y174622181D02*
G01*
X206171513Y174467573D01*
X206507436Y174243116D01*
X206793116Y173957436D01*
X207017573Y173621513D01*
X207172181Y173248255D01*
X207251000Y172852006D01*
X207251000Y172447994D01*
X207172181Y172051745D01*
X207017573Y171678487D01*
X206793116Y171342564D01*
X206507436Y171056884D01*
X206171513Y170832427D01*
X205798255Y170677819D01*
X205402006Y170599000D01*
X204997994Y170599000D01*
X204601745Y170677819D01*
X204228487Y170832427D01*
X203892564Y171056884D01*
X203606884Y171342564D01*
X203382427Y171678487D01*
X203227819Y172051745D01*
X203149000Y172447994D01*
X203149000Y172852006D01*
X203227819Y173248255D01*
X203382427Y173621513D01*
X203606884Y173957436D01*
X203892564Y174243116D01*
X204228487Y174467573D01*
X204601745Y174622181D01*
X204997994Y174701000D01*
X205402006Y174701000D01*
X205798255Y174622181D01*
G37*
G36*
X181798255Y174622181D02*
G01*
X182171513Y174467573D01*
X182507436Y174243116D01*
X182793116Y173957436D01*
X183017573Y173621513D01*
X183172181Y173248255D01*
X183251000Y172852006D01*
X183251000Y172447994D01*
X183172181Y172051745D01*
X183017573Y171678487D01*
X182793116Y171342564D01*
X182507436Y171056884D01*
X182171513Y170832427D01*
X181798255Y170677819D01*
X181402006Y170599000D01*
X180997994Y170599000D01*
X180601745Y170677819D01*
X180228487Y170832427D01*
X179892564Y171056884D01*
X179606884Y171342564D01*
X179382427Y171678487D01*
X179227819Y172051745D01*
X179149000Y172447994D01*
X179149000Y172852006D01*
X179227819Y173248255D01*
X179382427Y173621513D01*
X179606884Y173957436D01*
X179892564Y174243116D01*
X180228487Y174467573D01*
X180601745Y174622181D01*
X180997994Y174701000D01*
X181402006Y174701000D01*
X181798255Y174622181D01*
G37*
G36*
X193798255Y174622181D02*
G01*
X194171513Y174467573D01*
X194507436Y174243116D01*
X194793116Y173957436D01*
X195017573Y173621513D01*
X195172181Y173248255D01*
X195251000Y172852006D01*
X195251000Y172447994D01*
X195172181Y172051745D01*
X195017573Y171678487D01*
X194793116Y171342564D01*
X194507436Y171056884D01*
X194171513Y170832427D01*
X193798255Y170677819D01*
X193402006Y170599000D01*
X192997994Y170599000D01*
X192601745Y170677819D01*
X192228487Y170832427D01*
X191892564Y171056884D01*
X191606884Y171342564D01*
X191382427Y171678487D01*
X191227819Y172051745D01*
X191149000Y172447994D01*
X191149000Y172852006D01*
X191227819Y173248255D01*
X191382427Y173621513D01*
X191606884Y173957436D01*
X191892564Y174243116D01*
X192228487Y174467573D01*
X192601745Y174622181D01*
X192997994Y174701000D01*
X193402006Y174701000D01*
X193798255Y174622181D01*
G37*
G36*
X229798255Y174622181D02*
G01*
X230171513Y174467573D01*
X230507436Y174243116D01*
X230793116Y173957436D01*
X231017573Y173621513D01*
X231172181Y173248255D01*
X231251000Y172852006D01*
X231251000Y172447994D01*
X231172181Y172051745D01*
X231017573Y171678487D01*
X230793116Y171342564D01*
X230507436Y171056884D01*
X230171513Y170832427D01*
X229798255Y170677819D01*
X229402006Y170599000D01*
X228997994Y170599000D01*
X228601745Y170677819D01*
X228228487Y170832427D01*
X227892564Y171056884D01*
X227606884Y171342564D01*
X227382427Y171678487D01*
X227227819Y172051745D01*
X227149000Y172447994D01*
X227149000Y172852006D01*
X227227819Y173248255D01*
X227382427Y173621513D01*
X227606884Y173957436D01*
X227892564Y174243116D01*
X228228487Y174467573D01*
X228601745Y174622181D01*
X228997994Y174701000D01*
X229402006Y174701000D01*
X229798255Y174622181D01*
G37*
G36*
X247798255Y174622181D02*
G01*
X248171513Y174467573D01*
X248507436Y174243116D01*
X248793116Y173957436D01*
X249017573Y173621513D01*
X249172181Y173248255D01*
X249251000Y172852006D01*
X249251000Y172447994D01*
X249172181Y172051745D01*
X249017573Y171678487D01*
X248793116Y171342564D01*
X248507436Y171056884D01*
X248171513Y170832427D01*
X247798255Y170677819D01*
X247402006Y170599000D01*
X246997994Y170599000D01*
X246601745Y170677819D01*
X246228487Y170832427D01*
X245892564Y171056884D01*
X245606884Y171342564D01*
X245382427Y171678487D01*
X245227819Y172051745D01*
X245149000Y172447994D01*
X245149000Y172852006D01*
X245227819Y173248255D01*
X245382427Y173621513D01*
X245606884Y173957436D01*
X245892564Y174243116D01*
X246228487Y174467573D01*
X246601745Y174622181D01*
X246997994Y174701000D01*
X247402006Y174701000D01*
X247798255Y174622181D01*
G37*
G36*
X259798255Y174622181D02*
G01*
X260171513Y174467573D01*
X260507436Y174243116D01*
X260793116Y173957436D01*
X261017573Y173621513D01*
X261172181Y173248255D01*
X261251000Y172852006D01*
X261251000Y172447994D01*
X261172181Y172051745D01*
X261017573Y171678487D01*
X260793116Y171342564D01*
X260507436Y171056884D01*
X260171513Y170832427D01*
X259798255Y170677819D01*
X259402006Y170599000D01*
X258997994Y170599000D01*
X258601745Y170677819D01*
X258228487Y170832427D01*
X257892564Y171056884D01*
X257606884Y171342564D01*
X257382427Y171678487D01*
X257227819Y172051745D01*
X257149000Y172447994D01*
X257149000Y172852006D01*
X257227819Y173248255D01*
X257382427Y173621513D01*
X257606884Y173957436D01*
X257892564Y174243116D01*
X258228487Y174467573D01*
X258601745Y174622181D01*
X258997994Y174701000D01*
X259402006Y174701000D01*
X259798255Y174622181D01*
G37*
G36*
X217798255Y174622181D02*
G01*
X218171513Y174467573D01*
X218507436Y174243116D01*
X218793116Y173957436D01*
X219017573Y173621513D01*
X219172181Y173248255D01*
X219251000Y172852006D01*
X219251000Y172447994D01*
X219172181Y172051745D01*
X219017573Y171678487D01*
X218793116Y171342564D01*
X218507436Y171056884D01*
X218171513Y170832427D01*
X217798255Y170677819D01*
X217402006Y170599000D01*
X216997994Y170599000D01*
X216601745Y170677819D01*
X216228487Y170832427D01*
X215892564Y171056884D01*
X215606884Y171342564D01*
X215382427Y171678487D01*
X215227819Y172051745D01*
X215149000Y172447994D01*
X215149000Y172852006D01*
X215227819Y173248255D01*
X215382427Y173621513D01*
X215606884Y173957436D01*
X215892564Y174243116D01*
X216228487Y174467573D01*
X216601745Y174622181D01*
X216997994Y174701000D01*
X217402006Y174701000D01*
X217798255Y174622181D01*
G37*
G36*
X-9285903Y176602967D02*
G01*
X-8821646Y176410667D01*
X-8403834Y176131493D01*
X-8048507Y175776166D01*
X-7769333Y175358354D01*
X-7577033Y174894097D01*
X-7479000Y174401253D01*
X-7479000Y173898747D01*
X-7577033Y173405903D01*
X-7769333Y172941646D01*
X-8048507Y172523834D01*
X-8403834Y172168507D01*
X-8821646Y171889333D01*
X-9285903Y171697033D01*
X-9778747Y171599000D01*
X-10281253Y171599000D01*
X-10774097Y171697033D01*
X-11238354Y171889333D01*
X-11656166Y172168507D01*
X-12011493Y172523834D01*
X-12290667Y172941646D01*
X-12482967Y173405903D01*
X-12581000Y173898747D01*
X-12581000Y174401253D01*
X-12482967Y174894097D01*
X-12290667Y175358354D01*
X-12011493Y175776166D01*
X-11656166Y176131493D01*
X-11238354Y176410667D01*
X-10774097Y176602967D01*
X-10281253Y176701000D01*
X-9778747Y176701000D01*
X-9285903Y176602967D01*
G37*
G36*
X-19271419Y180247423D02*
G01*
X-18724101Y180138555D01*
X-18196335Y179919947D01*
X-17721358Y179602577D01*
X-17317423Y179198642D01*
X-17000053Y178723665D01*
X-16781445Y178195899D01*
X-16670000Y177635625D01*
X-16670000Y177064375D01*
X-16781445Y176504101D01*
X-17000053Y175976335D01*
X-17317423Y175501358D01*
X-17721358Y175097423D01*
X-18196335Y174780053D01*
X-18724101Y174561445D01*
X-19097617Y174487148D01*
X-19284374Y174450000D01*
X-19855626Y174450000D01*
X-20042383Y174487148D01*
X-20415899Y174561445D01*
X-20943665Y174780053D01*
X-21418642Y175097423D01*
X-21822577Y175501358D01*
X-22139947Y175976335D01*
X-22358555Y176504101D01*
X-22470000Y177064375D01*
X-22470000Y177635625D01*
X-22358555Y178195899D01*
X-22139947Y178723665D01*
X-21822577Y179198642D01*
X-21418642Y179602577D01*
X-20943665Y179919947D01*
X-20415899Y180138555D01*
X-19868581Y180247423D01*
X-19855626Y180250000D01*
X-19284374Y180250000D01*
X-19271419Y180247423D01*
G37*
G36*
X261042383Y185362852D02*
G01*
X261415899Y185288555D01*
X261943665Y185069947D01*
X262418642Y184752577D01*
X262822577Y184348642D01*
X263139947Y183873665D01*
X263358555Y183345899D01*
X263470000Y182785625D01*
X263470000Y182214375D01*
X263358555Y181654101D01*
X263139947Y181126335D01*
X262822577Y180651358D01*
X262418642Y180247423D01*
X261943665Y179930053D01*
X261415899Y179711445D01*
X261042383Y179637148D01*
X260855626Y179600000D01*
X260284374Y179600000D01*
X260097617Y179637148D01*
X259724101Y179711445D01*
X259196335Y179930053D01*
X258721358Y180247423D01*
X258317423Y180651358D01*
X258000053Y181126335D01*
X257781445Y181654101D01*
X257670000Y182214375D01*
X257670000Y182785625D01*
X257781445Y183345899D01*
X258000053Y183873665D01*
X258317423Y184348642D01*
X258721358Y184752577D01*
X259196335Y185069947D01*
X259724101Y185288555D01*
X260097617Y185362852D01*
X260284374Y185400000D01*
X260855626Y185400000D01*
X261042383Y185362852D01*
G37*
G36*
X100895090Y183380785D02*
G01*
X100991689Y183361571D01*
X101173678Y183286189D01*
X101337463Y183176751D01*
X101476751Y183037463D01*
X101586189Y182873678D01*
X101661571Y182691689D01*
X101661571Y182691687D01*
X101696964Y182513758D01*
X101700000Y182498491D01*
X101700000Y182301509D01*
X101661571Y182108311D01*
X101586189Y181926322D01*
X101476751Y181762537D01*
X101337463Y181623249D01*
X101173678Y181513811D01*
X100991689Y181438429D01*
X100895090Y181419215D01*
X100798493Y181400000D01*
X100601507Y181400000D01*
X100504910Y181419214D01*
X100408311Y181438429D01*
X100226322Y181513811D01*
X100062537Y181623249D01*
X99923249Y181762537D01*
X99813811Y181926322D01*
X99738429Y182108311D01*
X99700000Y182301509D01*
X99700000Y182498491D01*
X99703037Y182513758D01*
X99738429Y182691687D01*
X99738429Y182691689D01*
X99813811Y182873678D01*
X99923249Y183037463D01*
X100062537Y183176751D01*
X100226322Y183286189D01*
X100408311Y183361571D01*
X100504910Y183380786D01*
X100601507Y183400000D01*
X100798493Y183400000D01*
X100895090Y183380785D01*
G37*
G36*
X97200721Y183394825D02*
G01*
X97300996Y183353290D01*
X97301000Y183353287D01*
X97353884Y183317952D01*
X97391242Y183292990D01*
X97467990Y183216242D01*
X97528290Y183125996D01*
X97569825Y183025721D01*
X97591000Y182919269D01*
X97591000Y182810731D01*
X97569825Y182704279D01*
X97528290Y182604004D01*
X97467990Y182513758D01*
X97391242Y182437010D01*
X97300996Y182376710D01*
X97200721Y182335175D01*
X97094269Y182314000D01*
X96985731Y182314000D01*
X96879279Y182335175D01*
X96779004Y182376710D01*
X96688758Y182437010D01*
X96612010Y182513758D01*
X96551710Y182604004D01*
X96510175Y182704279D01*
X96489000Y182810731D01*
X96489000Y182919269D01*
X96510175Y183025721D01*
X96551710Y183125996D01*
X96612010Y183216242D01*
X96688758Y183292990D01*
X96726117Y183317952D01*
X96779000Y183353287D01*
X96779004Y183353290D01*
X96879279Y183394825D01*
X96985731Y183416000D01*
X97094269Y183416000D01*
X97200721Y183394825D01*
G37*
G36*
X93390721Y183394825D02*
G01*
X93490996Y183353290D01*
X93491000Y183353287D01*
X93543884Y183317952D01*
X93581242Y183292990D01*
X93657990Y183216242D01*
X93718290Y183125996D01*
X93759825Y183025721D01*
X93781000Y182919269D01*
X93781000Y182810731D01*
X93759825Y182704279D01*
X93718290Y182604004D01*
X93657990Y182513758D01*
X93581242Y182437010D01*
X93490996Y182376710D01*
X93390721Y182335175D01*
X93284269Y182314000D01*
X93175731Y182314000D01*
X93069279Y182335175D01*
X92969004Y182376710D01*
X92878758Y182437010D01*
X92802010Y182513758D01*
X92741710Y182604004D01*
X92700175Y182704279D01*
X92679000Y182810731D01*
X92679000Y182919269D01*
X92700175Y183025721D01*
X92741710Y183125996D01*
X92802010Y183216242D01*
X92878758Y183292990D01*
X92916117Y183317952D01*
X92969000Y183353287D01*
X92969004Y183353290D01*
X93069279Y183394825D01*
X93175731Y183416000D01*
X93284269Y183416000D01*
X93390721Y183394825D01*
G37*
G36*
X92120721Y183394825D02*
G01*
X92220996Y183353290D01*
X92221000Y183353287D01*
X92273884Y183317952D01*
X92311242Y183292990D01*
X92387990Y183216242D01*
X92448290Y183125996D01*
X92489825Y183025721D01*
X92511000Y182919269D01*
X92511000Y182810731D01*
X92489825Y182704279D01*
X92448290Y182604004D01*
X92387990Y182513758D01*
X92311242Y182437010D01*
X92220996Y182376710D01*
X92120721Y182335175D01*
X92014269Y182314000D01*
X91905731Y182314000D01*
X91799279Y182335175D01*
X91699004Y182376710D01*
X91608758Y182437010D01*
X91532010Y182513758D01*
X91471710Y182604004D01*
X91430175Y182704279D01*
X91409000Y182810731D01*
X91409000Y182919269D01*
X91430175Y183025721D01*
X91471710Y183125996D01*
X91532010Y183216242D01*
X91608758Y183292990D01*
X91646117Y183317952D01*
X91699000Y183353287D01*
X91699004Y183353290D01*
X91799279Y183394825D01*
X91905731Y183416000D01*
X92014269Y183416000D01*
X92120721Y183394825D01*
G37*
G36*
X94660721Y183394825D02*
G01*
X94760996Y183353290D01*
X94761000Y183353287D01*
X94813884Y183317952D01*
X94851242Y183292990D01*
X94927990Y183216242D01*
X94988290Y183125996D01*
X95029825Y183025721D01*
X95051000Y182919269D01*
X95051000Y182810731D01*
X95029825Y182704279D01*
X94988290Y182604004D01*
X94927990Y182513758D01*
X94851242Y182437010D01*
X94760996Y182376710D01*
X94660721Y182335175D01*
X94554269Y182314000D01*
X94445731Y182314000D01*
X94339279Y182335175D01*
X94239004Y182376710D01*
X94148758Y182437010D01*
X94072010Y182513758D01*
X94011710Y182604004D01*
X93970175Y182704279D01*
X93949000Y182810731D01*
X93949000Y182919269D01*
X93970175Y183025721D01*
X94011710Y183125996D01*
X94072010Y183216242D01*
X94148758Y183292990D01*
X94186117Y183317952D01*
X94239000Y183353287D01*
X94239004Y183353290D01*
X94339279Y183394825D01*
X94445731Y183416000D01*
X94554269Y183416000D01*
X94660721Y183394825D01*
G37*
G36*
X95930721Y183394825D02*
G01*
X96030996Y183353290D01*
X96031000Y183353287D01*
X96083884Y183317952D01*
X96121242Y183292990D01*
X96197990Y183216242D01*
X96258290Y183125996D01*
X96299825Y183025721D01*
X96321000Y182919269D01*
X96321000Y182810731D01*
X96299825Y182704279D01*
X96258290Y182604004D01*
X96197990Y182513758D01*
X96121242Y182437010D01*
X96030996Y182376710D01*
X95930721Y182335175D01*
X95824269Y182314000D01*
X95715731Y182314000D01*
X95609279Y182335175D01*
X95509004Y182376710D01*
X95418758Y182437010D01*
X95342010Y182513758D01*
X95281710Y182604004D01*
X95240175Y182704279D01*
X95219000Y182810731D01*
X95219000Y182919269D01*
X95240175Y183025721D01*
X95281710Y183125996D01*
X95342010Y183216242D01*
X95418758Y183292990D01*
X95456117Y183317952D01*
X95509000Y183353287D01*
X95509004Y183353290D01*
X95609279Y183394825D01*
X95715731Y183416000D01*
X95824269Y183416000D01*
X95930721Y183394825D01*
G37*
G36*
X-19489103Y184348642D02*
G01*
X-19365526Y184324061D01*
X-19237952Y184271218D01*
X-19123138Y184194502D01*
X-19025498Y184096862D01*
X-18948782Y183982048D01*
X-18895939Y183854474D01*
X-18869000Y183719042D01*
X-18869000Y183580958D01*
X-18895939Y183445526D01*
X-18948782Y183317952D01*
X-19025498Y183203138D01*
X-19123138Y183105498D01*
X-19237952Y183028782D01*
X-19365526Y182975939D01*
X-19455814Y182957980D01*
X-19500957Y182949000D01*
X-19639043Y182949000D01*
X-19684186Y182957980D01*
X-19774474Y182975939D01*
X-19902048Y183028782D01*
X-20016862Y183105498D01*
X-20114502Y183203138D01*
X-20191218Y183317952D01*
X-20244061Y183445526D01*
X-20271000Y183580958D01*
X-20271000Y183719042D01*
X-20244061Y183854474D01*
X-20191218Y183982048D01*
X-20114502Y184096862D01*
X-20016862Y184194502D01*
X-19902048Y184271218D01*
X-19774474Y184324061D01*
X-19650897Y184348642D01*
X-19639043Y184351000D01*
X-19500957Y184351000D01*
X-19489103Y184348642D01*
G37*
G36*
X227996131Y184994567D02*
G01*
X228092730Y184975353D01*
X228274719Y184899971D01*
X228438504Y184790533D01*
X228577792Y184651245D01*
X228687230Y184487460D01*
X228762612Y184305471D01*
X228769425Y184271218D01*
X228801041Y184112275D01*
X228801041Y183915289D01*
X228781826Y183818692D01*
X228762612Y183722093D01*
X228687230Y183540104D01*
X228577792Y183376319D01*
X228438504Y183237031D01*
X228274719Y183127593D01*
X228092730Y183052211D01*
X227996131Y183032997D01*
X227899534Y183013782D01*
X227702548Y183013782D01*
X227605951Y183032996D01*
X227509352Y183052211D01*
X227327363Y183127593D01*
X227163578Y183237031D01*
X227024290Y183376319D01*
X226914852Y183540104D01*
X226839470Y183722093D01*
X226820255Y183818692D01*
X226801041Y183915289D01*
X226801041Y184112275D01*
X226832657Y184271218D01*
X226839470Y184305471D01*
X226914852Y184487460D01*
X227024290Y184651245D01*
X227163578Y184790533D01*
X227327363Y184899971D01*
X227509352Y184975353D01*
X227605951Y184994568D01*
X227702548Y185013782D01*
X227899534Y185013782D01*
X227996131Y184994567D01*
G37*
G36*
X92511000Y183584000D02*
G01*
X91409000Y183584000D01*
X91409000Y184686000D01*
X92511000Y184686000D01*
X92511000Y183584000D01*
G37*
G36*
X93390721Y184664825D02*
G01*
X93490996Y184623290D01*
X93581242Y184562990D01*
X93657990Y184486242D01*
X93718290Y184395996D01*
X93759825Y184295721D01*
X93781000Y184189269D01*
X93781000Y184080731D01*
X93759825Y183974279D01*
X93718290Y183874004D01*
X93657990Y183783758D01*
X93581242Y183707010D01*
X93490996Y183646710D01*
X93390721Y183605175D01*
X93284269Y183584000D01*
X93175731Y183584000D01*
X93069279Y183605175D01*
X92969004Y183646710D01*
X92878758Y183707010D01*
X92802010Y183783758D01*
X92741710Y183874004D01*
X92700175Y183974279D01*
X92679000Y184080731D01*
X92679000Y184189269D01*
X92700175Y184295721D01*
X92741710Y184395996D01*
X92802010Y184486242D01*
X92878758Y184562990D01*
X92969004Y184623290D01*
X93069279Y184664825D01*
X93175731Y184686000D01*
X93284269Y184686000D01*
X93390721Y184664825D01*
G37*
G36*
X94660721Y184664825D02*
G01*
X94760996Y184623290D01*
X94851242Y184562990D01*
X94927990Y184486242D01*
X94988290Y184395996D01*
X95029825Y184295721D01*
X95051000Y184189269D01*
X95051000Y184080731D01*
X95029825Y183974279D01*
X94988290Y183874004D01*
X94927990Y183783758D01*
X94851242Y183707010D01*
X94760996Y183646710D01*
X94660721Y183605175D01*
X94554269Y183584000D01*
X94445731Y183584000D01*
X94339279Y183605175D01*
X94239004Y183646710D01*
X94148758Y183707010D01*
X94072010Y183783758D01*
X94011710Y183874004D01*
X93970175Y183974279D01*
X93949000Y184080731D01*
X93949000Y184189269D01*
X93970175Y184295721D01*
X94011710Y184395996D01*
X94072010Y184486242D01*
X94148758Y184562990D01*
X94239004Y184623290D01*
X94339279Y184664825D01*
X94445731Y184686000D01*
X94554269Y184686000D01*
X94660721Y184664825D01*
G37*
G36*
X95930721Y184664825D02*
G01*
X96030996Y184623290D01*
X96121242Y184562990D01*
X96197990Y184486242D01*
X96258290Y184395996D01*
X96299825Y184295721D01*
X96321000Y184189269D01*
X96321000Y184080731D01*
X96299825Y183974279D01*
X96258290Y183874004D01*
X96197990Y183783758D01*
X96121242Y183707010D01*
X96030996Y183646710D01*
X95930721Y183605175D01*
X95824269Y183584000D01*
X95715731Y183584000D01*
X95609279Y183605175D01*
X95509004Y183646710D01*
X95418758Y183707010D01*
X95342010Y183783758D01*
X95281710Y183874004D01*
X95240175Y183974279D01*
X95219000Y184080731D01*
X95219000Y184189269D01*
X95240175Y184295721D01*
X95281710Y184395996D01*
X95342010Y184486242D01*
X95418758Y184562990D01*
X95509004Y184623290D01*
X95609279Y184664825D01*
X95715731Y184686000D01*
X95824269Y184686000D01*
X95930721Y184664825D01*
G37*
G36*
X97200721Y184664825D02*
G01*
X97300996Y184623290D01*
X97391242Y184562990D01*
X97467990Y184486242D01*
X97528290Y184395996D01*
X97569825Y184295721D01*
X97591000Y184189269D01*
X97591000Y184080731D01*
X97569825Y183974279D01*
X97528290Y183874004D01*
X97467990Y183783758D01*
X97391242Y183707010D01*
X97300996Y183646710D01*
X97200721Y183605175D01*
X97094269Y183584000D01*
X96985731Y183584000D01*
X96879279Y183605175D01*
X96779004Y183646710D01*
X96688758Y183707010D01*
X96612010Y183783758D01*
X96551710Y183874004D01*
X96510175Y183974279D01*
X96489000Y184080731D01*
X96489000Y184189269D01*
X96510175Y184295721D01*
X96551710Y184395996D01*
X96612010Y184486242D01*
X96688758Y184562990D01*
X96779004Y184623290D01*
X96879279Y184664825D01*
X96985731Y184686000D01*
X97094269Y184686000D01*
X97200721Y184664825D01*
G37*
M02*
