%TF.GenerationSoftware,KiCad,Pcbnew,5.1.6*%
%TF.CreationDate,2020-06-25T21:19:21+02:00*%
%TF.ProjectId,OTTO_AUX_SMD,4f54544f-5f41-4555-985f-534d442e6b69,rev?*%
%TF.SameCoordinates,PX269fb20PYbb65a20*%
%TF.FileFunction,Legend,Top*%
%TF.FilePolarity,Positive*%
%FSLAX46Y46*%
G04 Gerber Fmt 4.6, Leading zero omitted, Abs format (unit mm)*
G04 Created by KiCad (PCBNEW 5.1.6) date 2020-06-25 21:19:21*
%MOMM*%
%LPD*%
G01*
G04 APERTURE LIST*
%ADD10C,0.150000*%
%ADD11C,0.300000*%
%ADD12C,0.200000*%
%ADD13C,0.120000*%
%ADD14C,0.010000*%
G04 APERTURE END LIST*
D10*
X243840595Y129597620D02*
X244412023Y129597620D01*
X244126309Y128597620D02*
X244126309Y129597620D01*
X244888214Y128597620D02*
X244792976Y128645239D01*
X244745357Y128692858D01*
X244697738Y128788096D01*
X244697738Y129073810D01*
X244745357Y129169048D01*
X244792976Y129216667D01*
X244888214Y129264286D01*
X245031071Y129264286D01*
X245126309Y129216667D01*
X245173928Y129169048D01*
X245221547Y129073810D01*
X245221547Y128788096D01*
X245173928Y128692858D01*
X245126309Y128645239D01*
X245031071Y128597620D01*
X244888214Y128597620D01*
X246840595Y128597620D02*
X246840595Y129121429D01*
X246792976Y129216667D01*
X246697738Y129264286D01*
X246507261Y129264286D01*
X246412023Y129216667D01*
X246840595Y128645239D02*
X246745357Y128597620D01*
X246507261Y128597620D01*
X246412023Y128645239D01*
X246364404Y128740477D01*
X246364404Y128835715D01*
X246412023Y128930953D01*
X246507261Y128978572D01*
X246745357Y128978572D01*
X246840595Y129026191D01*
X247745357Y128645239D02*
X247650119Y128597620D01*
X247459642Y128597620D01*
X247364404Y128645239D01*
X247316785Y128692858D01*
X247269166Y128788096D01*
X247269166Y129073810D01*
X247316785Y129169048D01*
X247364404Y129216667D01*
X247459642Y129264286D01*
X247650119Y129264286D01*
X247745357Y129216667D01*
X248602500Y128645239D02*
X248507261Y128597620D01*
X248316785Y128597620D01*
X248221547Y128645239D01*
X248173928Y128692858D01*
X248126309Y128788096D01*
X248126309Y129073810D01*
X248173928Y129169048D01*
X248221547Y129216667D01*
X248316785Y129264286D01*
X248507261Y129264286D01*
X248602500Y129216667D01*
X249412023Y128645239D02*
X249316785Y128597620D01*
X249126309Y128597620D01*
X249031071Y128645239D01*
X248983452Y128740477D01*
X248983452Y129121429D01*
X249031071Y129216667D01*
X249126309Y129264286D01*
X249316785Y129264286D01*
X249412023Y129216667D01*
X249459642Y129121429D01*
X249459642Y129026191D01*
X248983452Y128930953D01*
X249840595Y128645239D02*
X249935833Y128597620D01*
X250126309Y128597620D01*
X250221547Y128645239D01*
X250269166Y128740477D01*
X250269166Y128788096D01*
X250221547Y128883334D01*
X250126309Y128930953D01*
X249983452Y128930953D01*
X249888214Y128978572D01*
X249840595Y129073810D01*
X249840595Y129121429D01*
X249888214Y129216667D01*
X249983452Y129264286D01*
X250126309Y129264286D01*
X250221547Y129216667D01*
X250650119Y128645239D02*
X250745357Y128597620D01*
X250935833Y128597620D01*
X251031071Y128645239D01*
X251078690Y128740477D01*
X251078690Y128788096D01*
X251031071Y128883334D01*
X250935833Y128930953D01*
X250792976Y128930953D01*
X250697738Y128978572D01*
X250650119Y129073810D01*
X250650119Y129121429D01*
X250697738Y129216667D01*
X250792976Y129264286D01*
X250935833Y129264286D01*
X251031071Y129216667D01*
X252126309Y129264286D02*
X252507261Y129264286D01*
X252269166Y129597620D02*
X252269166Y128740477D01*
X252316785Y128645239D01*
X252412023Y128597620D01*
X252507261Y128597620D01*
X252840595Y128597620D02*
X252840595Y129597620D01*
X253269166Y128597620D02*
X253269166Y129121429D01*
X253221547Y129216667D01*
X253126309Y129264286D01*
X252983452Y129264286D01*
X252888214Y129216667D01*
X252840595Y129169048D01*
X254126309Y128645239D02*
X254031071Y128597620D01*
X253840595Y128597620D01*
X253745357Y128645239D01*
X253697738Y128740477D01*
X253697738Y129121429D01*
X253745357Y129216667D01*
X253840595Y129264286D01*
X254031071Y129264286D01*
X254126309Y129216667D01*
X254173928Y129121429D01*
X254173928Y129026191D01*
X253697738Y128930953D01*
X255316785Y128645239D02*
X255459642Y128597620D01*
X255697738Y128597620D01*
X255792976Y128645239D01*
X255840595Y128692858D01*
X255888214Y128788096D01*
X255888214Y128883334D01*
X255840595Y128978572D01*
X255792976Y129026191D01*
X255697738Y129073810D01*
X255507261Y129121429D01*
X255412023Y129169048D01*
X255364404Y129216667D01*
X255316785Y129311905D01*
X255316785Y129407143D01*
X255364404Y129502381D01*
X255412023Y129550000D01*
X255507261Y129597620D01*
X255745357Y129597620D01*
X255888214Y129550000D01*
X256316785Y128597620D02*
X256316785Y129597620D01*
X256554880Y129597620D01*
X256697738Y129550000D01*
X256792976Y129454762D01*
X256840595Y129359524D01*
X256888214Y129169048D01*
X256888214Y129026191D01*
X256840595Y128835715D01*
X256792976Y128740477D01*
X256697738Y128645239D01*
X256554880Y128597620D01*
X256316785Y128597620D01*
X258507261Y128645239D02*
X258412023Y128597620D01*
X258221547Y128597620D01*
X258126309Y128645239D01*
X258078690Y128692858D01*
X258031071Y128788096D01*
X258031071Y129073810D01*
X258078690Y129169048D01*
X258126309Y129216667D01*
X258221547Y129264286D01*
X258412023Y129264286D01*
X258507261Y129216667D01*
X259364404Y128597620D02*
X259364404Y129121429D01*
X259316785Y129216667D01*
X259221547Y129264286D01*
X259031071Y129264286D01*
X258935833Y129216667D01*
X259364404Y128645239D02*
X259269166Y128597620D01*
X259031071Y128597620D01*
X258935833Y128645239D01*
X258888214Y128740477D01*
X258888214Y128835715D01*
X258935833Y128930953D01*
X259031071Y128978572D01*
X259269166Y128978572D01*
X259364404Y129026191D01*
X259840595Y128597620D02*
X259840595Y129264286D01*
X259840595Y129073810D02*
X259888214Y129169048D01*
X259935833Y129216667D01*
X260031071Y129264286D01*
X260126309Y129264286D01*
X260888214Y128597620D02*
X260888214Y129597620D01*
X260888214Y128645239D02*
X260792976Y128597620D01*
X260602500Y128597620D01*
X260507261Y128645239D01*
X260459642Y128692858D01*
X260412023Y128788096D01*
X260412023Y129073810D01*
X260459642Y129169048D01*
X260507261Y129216667D01*
X260602500Y129264286D01*
X260792976Y129264286D01*
X260888214Y129216667D01*
X261412023Y128645239D02*
X261412023Y128597620D01*
X261364404Y128502381D01*
X261316785Y128454762D01*
X250269166Y127614286D02*
X250269166Y126947620D01*
X249840595Y127614286D02*
X249840595Y127090477D01*
X249888214Y126995239D01*
X249983452Y126947620D01*
X250126309Y126947620D01*
X250221547Y126995239D01*
X250269166Y127042858D01*
X250745357Y127614286D02*
X250745357Y126947620D01*
X250745357Y127519048D02*
X250792976Y127566667D01*
X250888214Y127614286D01*
X251031071Y127614286D01*
X251126309Y127566667D01*
X251173928Y127471429D01*
X251173928Y126947620D01*
X251602500Y126995239D02*
X251697738Y126947620D01*
X251888214Y126947620D01*
X251983452Y126995239D01*
X252031071Y127090477D01*
X252031071Y127138096D01*
X251983452Y127233334D01*
X251888214Y127280953D01*
X251745357Y127280953D01*
X251650119Y127328572D01*
X251602500Y127423810D01*
X251602500Y127471429D01*
X251650119Y127566667D01*
X251745357Y127614286D01*
X251888214Y127614286D01*
X251983452Y127566667D01*
X252888214Y126995239D02*
X252792976Y126947620D01*
X252602500Y126947620D01*
X252507261Y126995239D01*
X252459642Y127042858D01*
X252412023Y127138096D01*
X252412023Y127423810D01*
X252459642Y127519048D01*
X252507261Y127566667D01*
X252602500Y127614286D01*
X252792976Y127614286D01*
X252888214Y127566667D01*
X253316785Y126947620D02*
X253316785Y127614286D01*
X253316785Y127423810D02*
X253364404Y127519048D01*
X253412023Y127566667D01*
X253507261Y127614286D01*
X253602500Y127614286D01*
X254316785Y126995239D02*
X254221547Y126947620D01*
X254031071Y126947620D01*
X253935833Y126995239D01*
X253888214Y127090477D01*
X253888214Y127471429D01*
X253935833Y127566667D01*
X254031071Y127614286D01*
X254221547Y127614286D01*
X254316785Y127566667D01*
X254364404Y127471429D01*
X254364404Y127376191D01*
X253888214Y127280953D01*
X254697738Y127614286D02*
X254888214Y126947620D01*
X255078690Y127423810D01*
X255269166Y126947620D01*
X255459642Y127614286D01*
X256602500Y126947620D02*
X256602500Y127947620D01*
X256602500Y127471429D02*
X257173928Y127471429D01*
X257173928Y126947620D02*
X257173928Y127947620D01*
X258173928Y126947620D02*
X257602500Y126947620D01*
X257888214Y126947620D02*
X257888214Y127947620D01*
X257792976Y127804762D01*
X257697738Y127709524D01*
X257602500Y127661905D01*
X258602500Y127328572D02*
X259364404Y127328572D01*
X259840595Y126947620D02*
X259840595Y127947620D01*
X259840595Y127471429D02*
X260412023Y127471429D01*
X260412023Y126947620D02*
X260412023Y127947620D01*
X261364404Y127947620D02*
X260888214Y127947620D01*
X260840595Y127471429D01*
X260888214Y127519048D01*
X260983452Y127566667D01*
X261221547Y127566667D01*
X261316785Y127519048D01*
X261364404Y127471429D01*
X261412023Y127376191D01*
X261412023Y127138096D01*
X261364404Y127042858D01*
X261316785Y126995239D01*
X261221547Y126947620D01*
X260983452Y126947620D01*
X260888214Y126995239D01*
X260840595Y127042858D01*
X242745357Y126297620D02*
X243316785Y126297620D01*
X243031071Y125297620D02*
X243031071Y126297620D01*
X243650119Y125297620D02*
X243650119Y126297620D01*
X244078690Y125297620D02*
X244078690Y125821429D01*
X244031071Y125916667D01*
X243935833Y125964286D01*
X243792976Y125964286D01*
X243697738Y125916667D01*
X243650119Y125869048D01*
X244935833Y125345239D02*
X244840595Y125297620D01*
X244650119Y125297620D01*
X244554880Y125345239D01*
X244507261Y125440477D01*
X244507261Y125821429D01*
X244554880Y125916667D01*
X244650119Y125964286D01*
X244840595Y125964286D01*
X244935833Y125916667D01*
X244983452Y125821429D01*
X244983452Y125726191D01*
X244507261Y125630953D01*
X246031071Y125964286D02*
X246412023Y125964286D01*
X246173928Y126297620D02*
X246173928Y125440477D01*
X246221547Y125345239D01*
X246316785Y125297620D01*
X246412023Y125297620D01*
X246650119Y125964286D02*
X246840595Y125297620D01*
X247031071Y125773810D01*
X247221547Y125297620D01*
X247412023Y125964286D01*
X247935833Y125297620D02*
X247840595Y125345239D01*
X247792976Y125392858D01*
X247745357Y125488096D01*
X247745357Y125773810D01*
X247792976Y125869048D01*
X247840595Y125916667D01*
X247935833Y125964286D01*
X248078690Y125964286D01*
X248173928Y125916667D01*
X248221547Y125869048D01*
X248269166Y125773810D01*
X248269166Y125488096D01*
X248221547Y125392858D01*
X248173928Y125345239D01*
X248078690Y125297620D01*
X247935833Y125297620D01*
X248697738Y125678572D02*
X249459642Y125678572D01*
X249935833Y125297620D02*
X249935833Y126297620D01*
X249935833Y125916667D02*
X250031071Y125964286D01*
X250221547Y125964286D01*
X250316785Y125916667D01*
X250364404Y125869048D01*
X250412023Y125773810D01*
X250412023Y125488096D01*
X250364404Y125392858D01*
X250316785Y125345239D01*
X250221547Y125297620D01*
X250031071Y125297620D01*
X249935833Y125345239D01*
X250983452Y125297620D02*
X250888214Y125345239D01*
X250840595Y125392858D01*
X250792976Y125488096D01*
X250792976Y125773810D01*
X250840595Y125869048D01*
X250888214Y125916667D01*
X250983452Y125964286D01*
X251126309Y125964286D01*
X251221547Y125916667D01*
X251269166Y125869048D01*
X251316785Y125773810D01*
X251316785Y125488096D01*
X251269166Y125392858D01*
X251221547Y125345239D01*
X251126309Y125297620D01*
X250983452Y125297620D01*
X252173928Y125297620D02*
X252173928Y125821429D01*
X252126309Y125916667D01*
X252031071Y125964286D01*
X251840595Y125964286D01*
X251745357Y125916667D01*
X252173928Y125345239D02*
X252078690Y125297620D01*
X251840595Y125297620D01*
X251745357Y125345239D01*
X251697738Y125440477D01*
X251697738Y125535715D01*
X251745357Y125630953D01*
X251840595Y125678572D01*
X252078690Y125678572D01*
X252173928Y125726191D01*
X252650119Y125297620D02*
X252650119Y125964286D01*
X252650119Y125773810D02*
X252697738Y125869048D01*
X252745357Y125916667D01*
X252840595Y125964286D01*
X252935833Y125964286D01*
X253697738Y125297620D02*
X253697738Y126297620D01*
X253697738Y125345239D02*
X253602500Y125297620D01*
X253412023Y125297620D01*
X253316785Y125345239D01*
X253269166Y125392858D01*
X253221547Y125488096D01*
X253221547Y125773810D01*
X253269166Y125869048D01*
X253316785Y125916667D01*
X253412023Y125964286D01*
X253602500Y125964286D01*
X253697738Y125916667D01*
X255364404Y125297620D02*
X255364404Y125821429D01*
X255316785Y125916667D01*
X255221547Y125964286D01*
X255031071Y125964286D01*
X254935833Y125916667D01*
X255364404Y125345239D02*
X255269166Y125297620D01*
X255031071Y125297620D01*
X254935833Y125345239D01*
X254888214Y125440477D01*
X254888214Y125535715D01*
X254935833Y125630953D01*
X255031071Y125678572D01*
X255269166Y125678572D01*
X255364404Y125726191D01*
X255792976Y125345239D02*
X255888214Y125297620D01*
X256078690Y125297620D01*
X256173928Y125345239D01*
X256221547Y125440477D01*
X256221547Y125488096D01*
X256173928Y125583334D01*
X256078690Y125630953D01*
X255935833Y125630953D01*
X255840595Y125678572D01*
X255792976Y125773810D01*
X255792976Y125821429D01*
X255840595Y125916667D01*
X255935833Y125964286D01*
X256078690Y125964286D01*
X256173928Y125916667D01*
X256602500Y125345239D02*
X256697738Y125297620D01*
X256888214Y125297620D01*
X256983452Y125345239D01*
X257031071Y125440477D01*
X257031071Y125488096D01*
X256983452Y125583334D01*
X256888214Y125630953D01*
X256745357Y125630953D01*
X256650119Y125678572D01*
X256602500Y125773810D01*
X256602500Y125821429D01*
X256650119Y125916667D01*
X256745357Y125964286D01*
X256888214Y125964286D01*
X256983452Y125916667D01*
X257840595Y125345239D02*
X257745357Y125297620D01*
X257554880Y125297620D01*
X257459642Y125345239D01*
X257412023Y125440477D01*
X257412023Y125821429D01*
X257459642Y125916667D01*
X257554880Y125964286D01*
X257745357Y125964286D01*
X257840595Y125916667D01*
X257888214Y125821429D01*
X257888214Y125726191D01*
X257412023Y125630953D01*
X258316785Y125297620D02*
X258316785Y125964286D01*
X258316785Y125869048D02*
X258364404Y125916667D01*
X258459642Y125964286D01*
X258602500Y125964286D01*
X258697738Y125916667D01*
X258745357Y125821429D01*
X258745357Y125297620D01*
X258745357Y125821429D02*
X258792976Y125916667D01*
X258888214Y125964286D01*
X259031071Y125964286D01*
X259126309Y125916667D01*
X259173928Y125821429D01*
X259173928Y125297620D01*
X259650119Y125297620D02*
X259650119Y126297620D01*
X259650119Y125916667D02*
X259745357Y125964286D01*
X259935833Y125964286D01*
X260031071Y125916667D01*
X260078690Y125869048D01*
X260126309Y125773810D01*
X260126309Y125488096D01*
X260078690Y125392858D01*
X260031071Y125345239D01*
X259935833Y125297620D01*
X259745357Y125297620D01*
X259650119Y125345239D01*
X260697738Y125297620D02*
X260602500Y125345239D01*
X260554880Y125440477D01*
X260554880Y126297620D01*
X260983452Y125964286D02*
X261221547Y125297620D01*
X261459642Y125964286D02*
X261221547Y125297620D01*
X261126309Y125059524D01*
X261078690Y125011905D01*
X260983452Y124964286D01*
X245269166Y123695239D02*
X245173928Y123647620D01*
X244983452Y123647620D01*
X244888214Y123695239D01*
X244840595Y123742858D01*
X244792976Y123838096D01*
X244792976Y124123810D01*
X244840595Y124219048D01*
X244888214Y124266667D01*
X244983452Y124314286D01*
X245173928Y124314286D01*
X245269166Y124266667D01*
X246126309Y123647620D02*
X246126309Y124171429D01*
X246078690Y124266667D01*
X245983452Y124314286D01*
X245792976Y124314286D01*
X245697738Y124266667D01*
X246126309Y123695239D02*
X246031071Y123647620D01*
X245792976Y123647620D01*
X245697738Y123695239D01*
X245650119Y123790477D01*
X245650119Y123885715D01*
X245697738Y123980953D01*
X245792976Y124028572D01*
X246031071Y124028572D01*
X246126309Y124076191D01*
X246602500Y124314286D02*
X246602500Y123647620D01*
X246602500Y124219048D02*
X246650119Y124266667D01*
X246745357Y124314286D01*
X246888214Y124314286D01*
X246983452Y124266667D01*
X247031071Y124171429D01*
X247031071Y123647620D01*
X248126309Y124314286D02*
X248507261Y124314286D01*
X248269166Y124647620D02*
X248269166Y123790477D01*
X248316785Y123695239D01*
X248412023Y123647620D01*
X248507261Y123647620D01*
X248840595Y123647620D02*
X248840595Y124647620D01*
X249269166Y123647620D02*
X249269166Y124171429D01*
X249221547Y124266667D01*
X249126309Y124314286D01*
X248983452Y124314286D01*
X248888214Y124266667D01*
X248840595Y124219048D01*
X250126309Y123695239D02*
X250031071Y123647620D01*
X249840595Y123647620D01*
X249745357Y123695239D01*
X249697738Y123790477D01*
X249697738Y124171429D01*
X249745357Y124266667D01*
X249840595Y124314286D01*
X250031071Y124314286D01*
X250126309Y124266667D01*
X250173928Y124171429D01*
X250173928Y124076191D01*
X249697738Y123980953D01*
X250602500Y124314286D02*
X250602500Y123647620D01*
X250602500Y124219048D02*
X250650119Y124266667D01*
X250745357Y124314286D01*
X250888214Y124314286D01*
X250983452Y124266667D01*
X251031071Y124171429D01*
X251031071Y123647620D01*
X252269166Y123647620D02*
X252269166Y124647620D01*
X252269166Y124266667D02*
X252364404Y124314286D01*
X252554880Y124314286D01*
X252650119Y124266667D01*
X252697738Y124219048D01*
X252745357Y124123810D01*
X252745357Y123838096D01*
X252697738Y123742858D01*
X252650119Y123695239D01*
X252554880Y123647620D01*
X252364404Y123647620D01*
X252269166Y123695239D01*
X253554880Y123695239D02*
X253459642Y123647620D01*
X253269166Y123647620D01*
X253173928Y123695239D01*
X253126309Y123790477D01*
X253126309Y124171429D01*
X253173928Y124266667D01*
X253269166Y124314286D01*
X253459642Y124314286D01*
X253554880Y124266667D01*
X253602500Y124171429D01*
X253602500Y124076191D01*
X253126309Y123980953D01*
X254935833Y123647620D02*
X254840595Y123695239D01*
X254792976Y123790477D01*
X254792976Y124647620D01*
X255316785Y123647620D02*
X255316785Y124314286D01*
X255316785Y124647620D02*
X255269166Y124600000D01*
X255316785Y124552381D01*
X255364404Y124600000D01*
X255316785Y124647620D01*
X255316785Y124552381D01*
X255650119Y124314286D02*
X256031071Y124314286D01*
X255792976Y123647620D02*
X255792976Y124504762D01*
X255840595Y124600000D01*
X255935833Y124647620D01*
X256031071Y124647620D01*
X256221547Y124314286D02*
X256602500Y124314286D01*
X256364404Y124647620D02*
X256364404Y123790477D01*
X256412023Y123695239D01*
X256507261Y123647620D01*
X256602500Y123647620D01*
X257316785Y123695239D02*
X257221547Y123647620D01*
X257031071Y123647620D01*
X256935833Y123695239D01*
X256888214Y123790477D01*
X256888214Y124171429D01*
X256935833Y124266667D01*
X257031071Y124314286D01*
X257221547Y124314286D01*
X257316785Y124266667D01*
X257364404Y124171429D01*
X257364404Y124076191D01*
X256888214Y123980953D01*
X258221547Y123647620D02*
X258221547Y124647620D01*
X258221547Y123695239D02*
X258126309Y123647620D01*
X257935833Y123647620D01*
X257840595Y123695239D01*
X257792976Y123742858D01*
X257745357Y123838096D01*
X257745357Y124123810D01*
X257792976Y124219048D01*
X257840595Y124266667D01*
X257935833Y124314286D01*
X258126309Y124314286D01*
X258221547Y124266667D01*
X259602500Y123647620D02*
X259507261Y123695239D01*
X259459642Y123742858D01*
X259412023Y123838096D01*
X259412023Y124123810D01*
X259459642Y124219048D01*
X259507261Y124266667D01*
X259602500Y124314286D01*
X259745357Y124314286D01*
X259840595Y124266667D01*
X259888214Y124219048D01*
X259935833Y124123810D01*
X259935833Y123838096D01*
X259888214Y123742858D01*
X259840595Y123695239D01*
X259745357Y123647620D01*
X259602500Y123647620D01*
X260792976Y124314286D02*
X260792976Y123647620D01*
X260364404Y124314286D02*
X260364404Y123790477D01*
X260412023Y123695239D01*
X260507261Y123647620D01*
X260650119Y123647620D01*
X260745357Y123695239D01*
X260792976Y123742858D01*
X261126309Y124314286D02*
X261507261Y124314286D01*
X261269166Y124647620D02*
X261269166Y123790477D01*
X261316785Y123695239D01*
X261412023Y123647620D01*
X261507261Y123647620D01*
X253221547Y121997620D02*
X253126309Y122045239D01*
X253078690Y122092858D01*
X253031071Y122188096D01*
X253031071Y122473810D01*
X253078690Y122569048D01*
X253126309Y122616667D01*
X253221547Y122664286D01*
X253364404Y122664286D01*
X253459642Y122616667D01*
X253507261Y122569048D01*
X253554880Y122473810D01*
X253554880Y122188096D01*
X253507261Y122092858D01*
X253459642Y122045239D01*
X253364404Y121997620D01*
X253221547Y121997620D01*
X253840595Y122664286D02*
X254221547Y122664286D01*
X253983452Y121997620D02*
X253983452Y122854762D01*
X254031071Y122950000D01*
X254126309Y122997620D01*
X254221547Y122997620D01*
X255173928Y122664286D02*
X255554880Y122664286D01*
X255316785Y122997620D02*
X255316785Y122140477D01*
X255364404Y122045239D01*
X255459642Y121997620D01*
X255554880Y121997620D01*
X255888214Y121997620D02*
X255888214Y122997620D01*
X256316785Y121997620D02*
X256316785Y122521429D01*
X256269166Y122616667D01*
X256173928Y122664286D01*
X256031071Y122664286D01*
X255935833Y122616667D01*
X255888214Y122569048D01*
X257173928Y122045239D02*
X257078690Y121997620D01*
X256888214Y121997620D01*
X256792976Y122045239D01*
X256745357Y122140477D01*
X256745357Y122521429D01*
X256792976Y122616667D01*
X256888214Y122664286D01*
X257078690Y122664286D01*
X257173928Y122616667D01*
X257221547Y122521429D01*
X257221547Y122426191D01*
X256745357Y122330953D01*
X258840595Y122045239D02*
X258745357Y121997620D01*
X258554880Y121997620D01*
X258459642Y122045239D01*
X258412023Y122092858D01*
X258364404Y122188096D01*
X258364404Y122473810D01*
X258412023Y122569048D01*
X258459642Y122616667D01*
X258554880Y122664286D01*
X258745357Y122664286D01*
X258840595Y122616667D01*
X259697738Y121997620D02*
X259697738Y122521429D01*
X259650119Y122616667D01*
X259554880Y122664286D01*
X259364404Y122664286D01*
X259269166Y122616667D01*
X259697738Y122045239D02*
X259602500Y121997620D01*
X259364404Y121997620D01*
X259269166Y122045239D01*
X259221547Y122140477D01*
X259221547Y122235715D01*
X259269166Y122330953D01*
X259364404Y122378572D01*
X259602500Y122378572D01*
X259697738Y122426191D01*
X260126309Y122045239D02*
X260221547Y121997620D01*
X260412023Y121997620D01*
X260507261Y122045239D01*
X260554880Y122140477D01*
X260554880Y122188096D01*
X260507261Y122283334D01*
X260412023Y122330953D01*
X260269166Y122330953D01*
X260173928Y122378572D01*
X260126309Y122473810D01*
X260126309Y122521429D01*
X260173928Y122616667D01*
X260269166Y122664286D01*
X260412023Y122664286D01*
X260507261Y122616667D01*
X261364404Y122045239D02*
X261269166Y121997620D01*
X261078690Y121997620D01*
X260983452Y122045239D01*
X260935833Y122140477D01*
X260935833Y122521429D01*
X260983452Y122616667D01*
X261078690Y122664286D01*
X261269166Y122664286D01*
X261364404Y122616667D01*
X261412023Y122521429D01*
X261412023Y122426191D01*
X260935833Y122330953D01*
D11*
X74735714Y157971429D02*
X74235714Y158685715D01*
X73878571Y157971429D02*
X73878571Y159471429D01*
X74450000Y159471429D01*
X74592857Y159400000D01*
X74664285Y159328572D01*
X74735714Y159185715D01*
X74735714Y158971429D01*
X74664285Y158828572D01*
X74592857Y158757143D01*
X74450000Y158685715D01*
X73878571Y158685715D01*
X75378571Y158757143D02*
X75878571Y158757143D01*
X76092857Y157971429D02*
X75378571Y157971429D01*
X75378571Y159471429D01*
X76092857Y159471429D01*
X76735714Y157971429D02*
X76735714Y159471429D01*
X77092857Y159471429D01*
X77307142Y159400000D01*
X77450000Y159257143D01*
X77521428Y159114286D01*
X77592857Y158828572D01*
X77592857Y158614286D01*
X77521428Y158328572D01*
X77450000Y158185715D01*
X77307142Y158042858D01*
X77092857Y157971429D01*
X76735714Y157971429D01*
X45164285Y138685715D02*
X45164285Y137971429D01*
X44664285Y139471429D02*
X45164285Y138685715D01*
X45664285Y139471429D01*
X46164285Y138757143D02*
X46664285Y138757143D01*
X46878571Y137971429D02*
X46164285Y137971429D01*
X46164285Y139471429D01*
X46878571Y139471429D01*
X48235714Y137971429D02*
X47521428Y137971429D01*
X47521428Y139471429D01*
X49450000Y137971429D02*
X48735714Y137971429D01*
X48735714Y139471429D01*
X50235714Y139471429D02*
X50521428Y139471429D01*
X50664285Y139400000D01*
X50807142Y139257143D01*
X50878571Y138971429D01*
X50878571Y138471429D01*
X50807142Y138185715D01*
X50664285Y138042858D01*
X50521428Y137971429D01*
X50235714Y137971429D01*
X50092857Y138042858D01*
X49950000Y138185715D01*
X49878571Y138471429D01*
X49878571Y138971429D01*
X49950000Y139257143D01*
X50092857Y139400000D01*
X50235714Y139471429D01*
X51378571Y139471429D02*
X51735714Y137971429D01*
X52021428Y139042858D01*
X52307142Y137971429D01*
X52664285Y139471429D01*
X19200000Y159400000D02*
X19057142Y159471429D01*
X18842857Y159471429D01*
X18628571Y159400000D01*
X18485714Y159257143D01*
X18414285Y159114286D01*
X18342857Y158828572D01*
X18342857Y158614286D01*
X18414285Y158328572D01*
X18485714Y158185715D01*
X18628571Y158042858D01*
X18842857Y157971429D01*
X18985714Y157971429D01*
X19200000Y158042858D01*
X19271428Y158114286D01*
X19271428Y158614286D01*
X18985714Y158614286D01*
X20771428Y157971429D02*
X20271428Y158685715D01*
X19914285Y157971429D02*
X19914285Y159471429D01*
X20485714Y159471429D01*
X20628571Y159400000D01*
X20700000Y159328572D01*
X20771428Y159185715D01*
X20771428Y158971429D01*
X20700000Y158828572D01*
X20628571Y158757143D01*
X20485714Y158685715D01*
X19914285Y158685715D01*
X21414285Y158757143D02*
X21914285Y158757143D01*
X22128571Y157971429D02*
X21414285Y157971429D01*
X21414285Y159471429D01*
X22128571Y159471429D01*
X22771428Y158757143D02*
X23271428Y158757143D01*
X23485714Y157971429D02*
X22771428Y157971429D01*
X22771428Y159471429D01*
X23485714Y159471429D01*
X24128571Y157971429D02*
X24128571Y159471429D01*
X24985714Y157971429D01*
X24985714Y159471429D01*
X-7264286Y138757143D02*
X-7050000Y138685715D01*
X-6978572Y138614286D01*
X-6907143Y138471429D01*
X-6907143Y138257143D01*
X-6978572Y138114286D01*
X-7050000Y138042858D01*
X-7192858Y137971429D01*
X-7764286Y137971429D01*
X-7764286Y139471429D01*
X-7264286Y139471429D01*
X-7121429Y139400000D01*
X-7050000Y139328572D01*
X-6978572Y139185715D01*
X-6978572Y139042858D01*
X-7050000Y138900000D01*
X-7121429Y138828572D01*
X-7264286Y138757143D01*
X-7764286Y138757143D01*
X-5550000Y137971429D02*
X-6264286Y137971429D01*
X-6264286Y139471429D01*
X-5050000Y139471429D02*
X-5050000Y138257143D01*
X-4978572Y138114286D01*
X-4907143Y138042858D01*
X-4764286Y137971429D01*
X-4478572Y137971429D01*
X-4335715Y138042858D01*
X-4264286Y138114286D01*
X-4192858Y138257143D01*
X-4192858Y139471429D01*
X-3478572Y138757143D02*
X-2978572Y138757143D01*
X-2764286Y137971429D02*
X-3478572Y137971429D01*
X-3478572Y139471429D01*
X-2764286Y139471429D01*
D12*
X16769047Y174406640D02*
X17054761Y174311402D01*
X17150000Y174216163D01*
X17245238Y174025687D01*
X17245238Y173739973D01*
X17150000Y173549497D01*
X17054761Y173454259D01*
X16864285Y173359021D01*
X16102380Y173359021D01*
X16102380Y175359021D01*
X16769047Y175359021D01*
X16959523Y175263782D01*
X17054761Y175168544D01*
X17150000Y174978068D01*
X17150000Y174787592D01*
X17054761Y174597116D01*
X16959523Y174501878D01*
X16769047Y174406640D01*
X16102380Y174406640D01*
X18102380Y174406640D02*
X18769047Y174406640D01*
X19054761Y173359021D02*
X18102380Y173359021D01*
X18102380Y175359021D01*
X19054761Y175359021D01*
X19626190Y175359021D02*
X20769047Y175359021D01*
X20197619Y173359021D02*
X20197619Y175359021D01*
X21340476Y173930449D02*
X22292857Y173930449D01*
X21150000Y173359021D02*
X21816666Y175359021D01*
X22483333Y173359021D01*
X2484285Y171870925D02*
X2698571Y171799497D01*
X2770000Y171728068D01*
X2841428Y171585211D01*
X2841428Y171370925D01*
X2770000Y171228068D01*
X2698571Y171156640D01*
X2555714Y171085211D01*
X1984285Y171085211D01*
X1984285Y172585211D01*
X2484285Y172585211D01*
X2627142Y172513782D01*
X2698571Y172442354D01*
X2770000Y172299497D01*
X2770000Y172156640D01*
X2698571Y172013782D01*
X2627142Y171942354D01*
X2484285Y171870925D01*
X1984285Y171870925D01*
X3770000Y171799497D02*
X3770000Y171085211D01*
X3270000Y172585211D02*
X3770000Y171799497D01*
X4270000Y172585211D01*
X6412857Y171870925D02*
X6627142Y171799497D01*
X6698571Y171728068D01*
X6770000Y171585211D01*
X6770000Y171370925D01*
X6698571Y171228068D01*
X6627142Y171156640D01*
X6484285Y171085211D01*
X5912857Y171085211D01*
X5912857Y172585211D01*
X6412857Y172585211D01*
X6555714Y172513782D01*
X6627142Y172442354D01*
X6698571Y172299497D01*
X6698571Y172156640D01*
X6627142Y172013782D01*
X6555714Y171942354D01*
X6412857Y171870925D01*
X5912857Y171870925D01*
X7412857Y171085211D02*
X7412857Y172585211D01*
X7912857Y172585211D02*
X8770000Y172585211D01*
X8341428Y171085211D02*
X8341428Y172585211D01*
X9770000Y171870925D02*
X9270000Y171870925D01*
X9270000Y171085211D02*
X9270000Y172585211D01*
X9984285Y172585211D01*
X10555714Y171085211D02*
X10555714Y172585211D01*
X11270000Y171870925D02*
X11770000Y171870925D01*
X11984285Y171085211D02*
X11270000Y171085211D01*
X11270000Y172585211D01*
X11984285Y172585211D01*
X13341428Y171085211D02*
X12627142Y171085211D01*
X12627142Y172585211D01*
X13841428Y171085211D02*
X13841428Y172585211D01*
X14198571Y172585211D01*
X14412857Y172513782D01*
X14555714Y172370925D01*
X14627142Y172228068D01*
X14698571Y171942354D01*
X14698571Y171728068D01*
X14627142Y171442354D01*
X14555714Y171299497D01*
X14412857Y171156640D01*
X14198571Y171085211D01*
X13841428Y171085211D01*
X16412857Y171513782D02*
X17127142Y171513782D01*
X16270000Y171085211D02*
X16770000Y172585211D01*
X17270000Y171085211D01*
X17770000Y172585211D02*
X17770000Y171370925D01*
X17841428Y171228068D01*
X17912857Y171156640D01*
X18055714Y171085211D01*
X18341428Y171085211D01*
X18484285Y171156640D01*
X18555714Y171228068D01*
X18627142Y171370925D01*
X18627142Y172585211D01*
X19341428Y171085211D02*
X19341428Y172585211D01*
X19698571Y172585211D01*
X19912857Y172513782D01*
X20055714Y172370925D01*
X20127142Y172228068D01*
X20198571Y171942354D01*
X20198571Y171728068D01*
X20127142Y171442354D01*
X20055714Y171299497D01*
X19912857Y171156640D01*
X19698571Y171085211D01*
X19341428Y171085211D01*
X20841428Y171085211D02*
X20841428Y172585211D01*
X21841428Y172585211D02*
X22127142Y172585211D01*
X22270000Y172513782D01*
X22412857Y172370925D01*
X22484285Y172085211D01*
X22484285Y171585211D01*
X22412857Y171299497D01*
X22270000Y171156640D01*
X22127142Y171085211D01*
X21841428Y171085211D01*
X21698571Y171156640D01*
X21555714Y171299497D01*
X21484285Y171585211D01*
X21484285Y172085211D01*
X21555714Y172370925D01*
X21698571Y172513782D01*
X21841428Y172585211D01*
D10*
X27390476Y181522620D02*
X27390476Y182522620D01*
X27723809Y181808334D01*
X28057142Y182522620D01*
X28057142Y181522620D01*
X28533333Y181522620D02*
X28533333Y182522620D01*
X29009523Y181522620D02*
X29009523Y182522620D01*
X29247619Y182522620D01*
X29390476Y182475000D01*
X29485714Y182379762D01*
X29533333Y182284524D01*
X29580952Y182094048D01*
X29580952Y181951191D01*
X29533333Y181760715D01*
X29485714Y181665477D01*
X29390476Y181570239D01*
X29247619Y181522620D01*
X29009523Y181522620D01*
X30009523Y181522620D02*
X30009523Y182522620D01*
X28176190Y179872620D02*
X28176190Y180872620D01*
X28652380Y179872620D02*
X28652380Y180872620D01*
X29223809Y179872620D01*
X29223809Y180872620D01*
X39390476Y181272620D02*
X39390476Y182272620D01*
X39723809Y181558334D01*
X40057142Y182272620D01*
X40057142Y181272620D01*
X40533333Y181272620D02*
X40533333Y182272620D01*
X41009523Y181272620D02*
X41009523Y182272620D01*
X41247619Y182272620D01*
X41390476Y182225000D01*
X41485714Y182129762D01*
X41533333Y182034524D01*
X41580952Y181844048D01*
X41580952Y181701191D01*
X41533333Y181510715D01*
X41485714Y181415477D01*
X41390476Y181320239D01*
X41247619Y181272620D01*
X41009523Y181272620D01*
X42009523Y181272620D02*
X42009523Y182272620D01*
X38866666Y180622620D02*
X39438095Y180622620D01*
X39152380Y179622620D02*
X39152380Y180622620D01*
X39771428Y179622620D02*
X39771428Y180622620D01*
X39771428Y180146429D02*
X40342857Y180146429D01*
X40342857Y179622620D02*
X40342857Y180622620D01*
X41390476Y179622620D02*
X41057142Y180098810D01*
X40819047Y179622620D02*
X40819047Y180622620D01*
X41200000Y180622620D01*
X41295238Y180575000D01*
X41342857Y180527381D01*
X41390476Y180432143D01*
X41390476Y180289286D01*
X41342857Y180194048D01*
X41295238Y180146429D01*
X41200000Y180098810D01*
X40819047Y180098810D01*
X41819047Y180622620D02*
X41819047Y179813096D01*
X41866666Y179717858D01*
X41914285Y179670239D01*
X42009523Y179622620D01*
X42200000Y179622620D01*
X42295238Y179670239D01*
X42342857Y179717858D01*
X42390476Y179813096D01*
X42390476Y180622620D01*
X51390476Y181522620D02*
X51390476Y182522620D01*
X51723809Y181808334D01*
X52057142Y182522620D01*
X52057142Y181522620D01*
X52533333Y181522620D02*
X52533333Y182522620D01*
X53009523Y181522620D02*
X53009523Y182522620D01*
X53247619Y182522620D01*
X53390476Y182475000D01*
X53485714Y182379762D01*
X53533333Y182284524D01*
X53580952Y182094048D01*
X53580952Y181951191D01*
X53533333Y181760715D01*
X53485714Y181665477D01*
X53390476Y181570239D01*
X53247619Y181522620D01*
X53009523Y181522620D01*
X54009523Y181522620D02*
X54009523Y182522620D01*
X51700000Y180872620D02*
X51890476Y180872620D01*
X51985714Y180825000D01*
X52080952Y180729762D01*
X52128571Y180539286D01*
X52128571Y180205953D01*
X52080952Y180015477D01*
X51985714Y179920239D01*
X51890476Y179872620D01*
X51700000Y179872620D01*
X51604761Y179920239D01*
X51509523Y180015477D01*
X51461904Y180205953D01*
X51461904Y180539286D01*
X51509523Y180729762D01*
X51604761Y180825000D01*
X51700000Y180872620D01*
X52557142Y180872620D02*
X52557142Y180063096D01*
X52604761Y179967858D01*
X52652380Y179920239D01*
X52747619Y179872620D01*
X52938095Y179872620D01*
X53033333Y179920239D01*
X53080952Y179967858D01*
X53128571Y180063096D01*
X53128571Y180872620D01*
X53461904Y180872620D02*
X54033333Y180872620D01*
X53747619Y179872620D02*
X53747619Y180872620D01*
X-7012024Y183983334D02*
X-6535834Y183983334D01*
X-7107262Y183697620D02*
X-6773929Y184697620D01*
X-6440596Y183697620D01*
X-6107262Y184697620D02*
X-6107262Y183888096D01*
X-6059643Y183792858D01*
X-6012024Y183745239D01*
X-5916786Y183697620D01*
X-5726310Y183697620D01*
X-5631072Y183745239D01*
X-5583453Y183792858D01*
X-5535834Y183888096D01*
X-5535834Y184697620D01*
X-5154881Y184697620D02*
X-4488215Y183697620D01*
X-4488215Y184697620D02*
X-5154881Y183697620D01*
X-3012024Y184221429D02*
X-2869167Y184173810D01*
X-2821548Y184126191D01*
X-2773929Y184030953D01*
X-2773929Y183888096D01*
X-2821548Y183792858D01*
X-2869167Y183745239D01*
X-2964405Y183697620D01*
X-3345358Y183697620D01*
X-3345358Y184697620D01*
X-3012024Y184697620D01*
X-2916786Y184650000D01*
X-2869167Y184602381D01*
X-2821548Y184507143D01*
X-2821548Y184411905D01*
X-2869167Y184316667D01*
X-2916786Y184269048D01*
X-3012024Y184221429D01*
X-3345358Y184221429D01*
X-2154881Y184697620D02*
X-1964405Y184697620D01*
X-1869167Y184650000D01*
X-1773929Y184554762D01*
X-1726310Y184364286D01*
X-1726310Y184030953D01*
X-1773929Y183840477D01*
X-1869167Y183745239D01*
X-1964405Y183697620D01*
X-2154881Y183697620D01*
X-2250120Y183745239D01*
X-2345358Y183840477D01*
X-2392977Y184030953D01*
X-2392977Y184364286D01*
X-2345358Y184554762D01*
X-2250120Y184650000D01*
X-2154881Y184697620D01*
X-1345358Y183983334D02*
X-869167Y183983334D01*
X-1440596Y183697620D02*
X-1107262Y184697620D01*
X-773929Y183697620D01*
X130833Y183697620D02*
X-202500Y184173810D01*
X-440596Y183697620D02*
X-440596Y184697620D01*
X-59643Y184697620D01*
X35595Y184650000D01*
X83214Y184602381D01*
X130833Y184507143D01*
X130833Y184364286D01*
X83214Y184269048D01*
X35595Y184221429D01*
X-59643Y184173810D01*
X-440596Y184173810D01*
X559404Y183697620D02*
X559404Y184697620D01*
X797500Y184697620D01*
X940357Y184650000D01*
X1035595Y184554762D01*
X1083214Y184459524D01*
X1130833Y184269048D01*
X1130833Y184126191D01*
X1083214Y183935715D01*
X1035595Y183840477D01*
X940357Y183745239D01*
X797500Y183697620D01*
X559404Y183697620D01*
X2178452Y184697620D02*
X2511785Y183697620D01*
X2845119Y184697620D01*
X3368928Y184697620D02*
X3464166Y184697620D01*
X3559404Y184650000D01*
X3607023Y184602381D01*
X3654642Y184507143D01*
X3702261Y184316667D01*
X3702261Y184078572D01*
X3654642Y183888096D01*
X3607023Y183792858D01*
X3559404Y183745239D01*
X3464166Y183697620D01*
X3368928Y183697620D01*
X3273690Y183745239D01*
X3226071Y183792858D01*
X3178452Y183888096D01*
X3130833Y184078572D01*
X3130833Y184316667D01*
X3178452Y184507143D01*
X3226071Y184602381D01*
X3273690Y184650000D01*
X3368928Y184697620D01*
X4130833Y183792858D02*
X4178452Y183745239D01*
X4130833Y183697620D01*
X4083214Y183745239D01*
X4130833Y183792858D01*
X4130833Y183697620D01*
X5130833Y183697620D02*
X4559404Y183697620D01*
X4845119Y183697620D02*
X4845119Y184697620D01*
X4749880Y184554762D01*
X4654642Y184459524D01*
X4559404Y184411905D01*
X5559404Y183792858D02*
X5607023Y183745239D01*
X5559404Y183697620D01*
X5511785Y183745239D01*
X5559404Y183792858D01*
X5559404Y183697620D01*
X6226071Y184697620D02*
X6321309Y184697620D01*
X6416547Y184650000D01*
X6464166Y184602381D01*
X6511785Y184507143D01*
X6559404Y184316667D01*
X6559404Y184078572D01*
X6511785Y183888096D01*
X6464166Y183792858D01*
X6416547Y183745239D01*
X6321309Y183697620D01*
X6226071Y183697620D01*
X6130833Y183745239D01*
X6083214Y183792858D01*
X6035595Y183888096D01*
X5987976Y184078572D01*
X5987976Y184316667D01*
X6035595Y184507143D01*
X6083214Y184602381D01*
X6130833Y184650000D01*
X6226071Y184697620D01*
X154302380Y185197620D02*
X153826190Y185197620D01*
X153826190Y186197620D01*
X154635714Y185197620D02*
X154635714Y186197620D01*
X155111904Y185197620D02*
X155111904Y186197620D01*
X155683333Y185197620D01*
X155683333Y186197620D01*
X156159523Y185721429D02*
X156492857Y185721429D01*
X156635714Y185197620D02*
X156159523Y185197620D01*
X156159523Y186197620D01*
X156635714Y186197620D01*
X157826190Y185197620D02*
X157826190Y186197620D01*
X158302380Y185197620D02*
X158302380Y186197620D01*
X158873809Y185197620D01*
X158873809Y186197620D01*
X138360714Y185172620D02*
X137884523Y185172620D01*
X137884523Y186172620D01*
X138694047Y185172620D02*
X138694047Y186172620D01*
X139170238Y185172620D02*
X139170238Y186172620D01*
X139741666Y185172620D01*
X139741666Y186172620D01*
X140217857Y185696429D02*
X140551190Y185696429D01*
X140694047Y185172620D02*
X140217857Y185172620D01*
X140217857Y186172620D01*
X140694047Y186172620D01*
X142075000Y186172620D02*
X142265476Y186172620D01*
X142360714Y186125000D01*
X142455952Y186029762D01*
X142503571Y185839286D01*
X142503571Y185505953D01*
X142455952Y185315477D01*
X142360714Y185220239D01*
X142265476Y185172620D01*
X142075000Y185172620D01*
X141979761Y185220239D01*
X141884523Y185315477D01*
X141836904Y185505953D01*
X141836904Y185839286D01*
X141884523Y186029762D01*
X141979761Y186125000D01*
X142075000Y186172620D01*
X142932142Y186172620D02*
X142932142Y185363096D01*
X142979761Y185267858D01*
X143027380Y185220239D01*
X143122619Y185172620D01*
X143313095Y185172620D01*
X143408333Y185220239D01*
X143455952Y185267858D01*
X143503571Y185363096D01*
X143503571Y186172620D01*
X143836904Y186172620D02*
X144408333Y186172620D01*
X144122619Y185172620D02*
X144122619Y186172620D01*
X119808333Y185097620D02*
X119808333Y186097620D01*
X119808333Y185621429D02*
X120379761Y185621429D01*
X120379761Y185097620D02*
X120379761Y186097620D01*
X120855952Y185621429D02*
X121189285Y185621429D01*
X121332142Y185097620D02*
X120855952Y185097620D01*
X120855952Y186097620D01*
X121332142Y186097620D01*
X121713095Y185383334D02*
X122189285Y185383334D01*
X121617857Y185097620D02*
X121951190Y186097620D01*
X122284523Y185097620D01*
X122617857Y185097620D02*
X122617857Y186097620D01*
X122855952Y186097620D01*
X122998809Y186050000D01*
X123094047Y185954762D01*
X123141666Y185859524D01*
X123189285Y185669048D01*
X123189285Y185526191D01*
X123141666Y185335715D01*
X123094047Y185240477D01*
X122998809Y185145239D01*
X122855952Y185097620D01*
X122617857Y185097620D01*
X123617857Y185097620D02*
X123617857Y186097620D01*
X123998809Y186097620D01*
X124094047Y186050000D01*
X124141666Y186002381D01*
X124189285Y185907143D01*
X124189285Y185764286D01*
X124141666Y185669048D01*
X124094047Y185621429D01*
X123998809Y185573810D01*
X123617857Y185573810D01*
X124617857Y185097620D02*
X124617857Y186097620D01*
X124617857Y185621429D02*
X125189285Y185621429D01*
X125189285Y185097620D02*
X125189285Y186097620D01*
X125855952Y186097620D02*
X126046428Y186097620D01*
X126141666Y186050000D01*
X126236904Y185954762D01*
X126284523Y185764286D01*
X126284523Y185430953D01*
X126236904Y185240477D01*
X126141666Y185145239D01*
X126046428Y185097620D01*
X125855952Y185097620D01*
X125760714Y185145239D01*
X125665476Y185240477D01*
X125617857Y185430953D01*
X125617857Y185764286D01*
X125665476Y185954762D01*
X125760714Y186050000D01*
X125855952Y186097620D01*
X126713095Y185097620D02*
X126713095Y186097620D01*
X127284523Y185097620D01*
X127284523Y186097620D01*
X127760714Y185621429D02*
X128094047Y185621429D01*
X128236904Y185097620D02*
X127760714Y185097620D01*
X127760714Y186097620D01*
X128236904Y186097620D01*
X128617857Y185145239D02*
X128760714Y185097620D01*
X128998809Y185097620D01*
X129094047Y185145239D01*
X129141666Y185192858D01*
X129189285Y185288096D01*
X129189285Y185383334D01*
X129141666Y185478572D01*
X129094047Y185526191D01*
X128998809Y185573810D01*
X128808333Y185621429D01*
X128713095Y185669048D01*
X128665476Y185716667D01*
X128617857Y185811905D01*
X128617857Y185907143D01*
X128665476Y186002381D01*
X128713095Y186050000D01*
X128808333Y186097620D01*
X129046428Y186097620D01*
X129189285Y186050000D01*
D13*
X-7030000Y174150000D02*
G75*
G03*
X-7030000Y174150000I-3000000J0D01*
G01*
X123700000Y108900000D02*
G75*
G03*
X123700000Y108900000I-3000000J0D01*
G01*
X249700000Y109500000D02*
G75*
G03*
X249700000Y109500000I-3000000J0D01*
G01*
X-2302500Y109500000D02*
G75*
G03*
X-2302500Y109500000I-3000000J0D01*
G01*
X238810000Y168891000D02*
G75*
G03*
X238810000Y168891000I-3000000J0D01*
G01*
D14*
G36*
X18044869Y183154854D02*
G01*
X18093975Y183149677D01*
X18154943Y183141459D01*
X18232174Y183130080D01*
X18247238Y183127823D01*
X18328462Y183111534D01*
X18413094Y183087577D01*
X18490110Y183059192D01*
X18508464Y183051051D01*
X18536438Y183038619D01*
X18555363Y183031245D01*
X18558960Y183030370D01*
X18570494Y183025379D01*
X18596034Y183012081D01*
X18630808Y182992991D01*
X18644194Y182985454D01*
X18764572Y182908127D01*
X18880288Y182816405D01*
X18984867Y182715742D01*
X19041860Y182650509D01*
X19080973Y182602022D01*
X19108347Y182567540D01*
X19126004Y182544328D01*
X19135968Y182529653D01*
X19140262Y182520779D01*
X19140977Y182516563D01*
X19147574Y182501002D01*
X19156163Y182489475D01*
X19168954Y182470713D01*
X19186475Y182439885D01*
X19200397Y182412777D01*
X19217976Y182377207D01*
X19233147Y182347048D01*
X19240605Y182332652D01*
X19253994Y182302581D01*
X19270028Y182259287D01*
X19286075Y182210567D01*
X19299506Y182164217D01*
X19304970Y182141903D01*
X19313545Y182104279D01*
X19324588Y182057453D01*
X19332985Y182022719D01*
X19338514Y181988073D01*
X19343126Y181935231D01*
X19346818Y181867542D01*
X19349590Y181788351D01*
X19351440Y181701007D01*
X19352365Y181608857D01*
X19352365Y181515248D01*
X19351438Y181423526D01*
X19349583Y181337041D01*
X19346796Y181259138D01*
X19343079Y181193165D01*
X19338427Y181142469D01*
X19333419Y181112582D01*
X19322140Y181066746D01*
X19311268Y181021042D01*
X19304954Y180993397D01*
X19264555Y180858007D01*
X19204591Y180724369D01*
X19127156Y180594995D01*
X19034343Y180472398D01*
X18928243Y180359092D01*
X18810950Y180257586D01*
X18684556Y180170396D01*
X18566869Y180107227D01*
X18514741Y180083321D01*
X18469809Y180064168D01*
X18427834Y180048571D01*
X18384575Y180035329D01*
X18335791Y180023245D01*
X18277241Y180011120D01*
X18204684Y179997756D01*
X18138888Y179986261D01*
X18090437Y179980638D01*
X18029275Y179977440D01*
X17963002Y179976683D01*
X17899219Y179978384D01*
X17845526Y179982558D01*
X17824674Y179985608D01*
X17790669Y179991728D01*
X17745937Y179999594D01*
X17707452Y180006249D01*
X17663135Y180015582D01*
X17610253Y180029292D01*
X17555388Y180045392D01*
X17505121Y180061896D01*
X17466033Y180076815D01*
X17452331Y180083276D01*
X17433983Y180092520D01*
X17402710Y180107747D01*
X17365193Y180125705D01*
X17364188Y180126181D01*
X17232266Y180199913D01*
X17106047Y180292115D01*
X16988579Y180399751D01*
X16882907Y180519785D01*
X16792077Y180649180D01*
X16733310Y180755028D01*
X16703899Y180820054D01*
X16676453Y180890284D01*
X16653408Y180958768D01*
X16637203Y181018556D01*
X16632565Y181042154D01*
X16626819Y181075363D01*
X16618625Y181119880D01*
X16610238Y181163591D01*
X16605083Y181197987D01*
X16601083Y181243918D01*
X16598155Y181303500D01*
X16596217Y181378848D01*
X16595188Y181472079D01*
X16594964Y181559067D01*
X16595113Y181653268D01*
X16595656Y181729327D01*
X16596796Y181790772D01*
X16598738Y181841130D01*
X16601683Y181883929D01*
X16605835Y181922696D01*
X16611398Y181960958D01*
X16618575Y182002243D01*
X16621363Y182017301D01*
X16637008Y182097429D01*
X16651642Y182162109D01*
X16667231Y182217357D01*
X16685740Y182269191D01*
X16709132Y182323628D01*
X16739374Y182386683D01*
X16746958Y182401942D01*
X16794545Y182488295D01*
X16849870Y182570136D01*
X16891786Y182624059D01*
X16933811Y182672638D01*
X16983373Y182724883D01*
X17036145Y182776681D01*
X17087799Y182823919D01*
X17134007Y182862485D01*
X17168690Y182887203D01*
X17193320Y182902588D01*
X17227133Y182924022D01*
X17250421Y182938916D01*
X17284235Y182959256D01*
X17325694Y182981414D01*
X17378331Y183007150D01*
X17445680Y183038221D01*
X17488790Y183057563D01*
X17559856Y183083731D01*
X17650714Y183107645D01*
X17762092Y183129482D01*
X17823105Y183139285D01*
X17878968Y183147530D01*
X17924672Y183153328D01*
X17964621Y183156560D01*
X18003219Y183157109D01*
X18044869Y183154854D01*
G37*
X18044869Y183154854D02*
X18093975Y183149677D01*
X18154943Y183141459D01*
X18232174Y183130080D01*
X18247238Y183127823D01*
X18328462Y183111534D01*
X18413094Y183087577D01*
X18490110Y183059192D01*
X18508464Y183051051D01*
X18536438Y183038619D01*
X18555363Y183031245D01*
X18558960Y183030370D01*
X18570494Y183025379D01*
X18596034Y183012081D01*
X18630808Y182992991D01*
X18644194Y182985454D01*
X18764572Y182908127D01*
X18880288Y182816405D01*
X18984867Y182715742D01*
X19041860Y182650509D01*
X19080973Y182602022D01*
X19108347Y182567540D01*
X19126004Y182544328D01*
X19135968Y182529653D01*
X19140262Y182520779D01*
X19140977Y182516563D01*
X19147574Y182501002D01*
X19156163Y182489475D01*
X19168954Y182470713D01*
X19186475Y182439885D01*
X19200397Y182412777D01*
X19217976Y182377207D01*
X19233147Y182347048D01*
X19240605Y182332652D01*
X19253994Y182302581D01*
X19270028Y182259287D01*
X19286075Y182210567D01*
X19299506Y182164217D01*
X19304970Y182141903D01*
X19313545Y182104279D01*
X19324588Y182057453D01*
X19332985Y182022719D01*
X19338514Y181988073D01*
X19343126Y181935231D01*
X19346818Y181867542D01*
X19349590Y181788351D01*
X19351440Y181701007D01*
X19352365Y181608857D01*
X19352365Y181515248D01*
X19351438Y181423526D01*
X19349583Y181337041D01*
X19346796Y181259138D01*
X19343079Y181193165D01*
X19338427Y181142469D01*
X19333419Y181112582D01*
X19322140Y181066746D01*
X19311268Y181021042D01*
X19304954Y180993397D01*
X19264555Y180858007D01*
X19204591Y180724369D01*
X19127156Y180594995D01*
X19034343Y180472398D01*
X18928243Y180359092D01*
X18810950Y180257586D01*
X18684556Y180170396D01*
X18566869Y180107227D01*
X18514741Y180083321D01*
X18469809Y180064168D01*
X18427834Y180048571D01*
X18384575Y180035329D01*
X18335791Y180023245D01*
X18277241Y180011120D01*
X18204684Y179997756D01*
X18138888Y179986261D01*
X18090437Y179980638D01*
X18029275Y179977440D01*
X17963002Y179976683D01*
X17899219Y179978384D01*
X17845526Y179982558D01*
X17824674Y179985608D01*
X17790669Y179991728D01*
X17745937Y179999594D01*
X17707452Y180006249D01*
X17663135Y180015582D01*
X17610253Y180029292D01*
X17555388Y180045392D01*
X17505121Y180061896D01*
X17466033Y180076815D01*
X17452331Y180083276D01*
X17433983Y180092520D01*
X17402710Y180107747D01*
X17365193Y180125705D01*
X17364188Y180126181D01*
X17232266Y180199913D01*
X17106047Y180292115D01*
X16988579Y180399751D01*
X16882907Y180519785D01*
X16792077Y180649180D01*
X16733310Y180755028D01*
X16703899Y180820054D01*
X16676453Y180890284D01*
X16653408Y180958768D01*
X16637203Y181018556D01*
X16632565Y181042154D01*
X16626819Y181075363D01*
X16618625Y181119880D01*
X16610238Y181163591D01*
X16605083Y181197987D01*
X16601083Y181243918D01*
X16598155Y181303500D01*
X16596217Y181378848D01*
X16595188Y181472079D01*
X16594964Y181559067D01*
X16595113Y181653268D01*
X16595656Y181729327D01*
X16596796Y181790772D01*
X16598738Y181841130D01*
X16601683Y181883929D01*
X16605835Y181922696D01*
X16611398Y181960958D01*
X16618575Y182002243D01*
X16621363Y182017301D01*
X16637008Y182097429D01*
X16651642Y182162109D01*
X16667231Y182217357D01*
X16685740Y182269191D01*
X16709132Y182323628D01*
X16739374Y182386683D01*
X16746958Y182401942D01*
X16794545Y182488295D01*
X16849870Y182570136D01*
X16891786Y182624059D01*
X16933811Y182672638D01*
X16983373Y182724883D01*
X17036145Y182776681D01*
X17087799Y182823919D01*
X17134007Y182862485D01*
X17168690Y182887203D01*
X17193320Y182902588D01*
X17227133Y182924022D01*
X17250421Y182938916D01*
X17284235Y182959256D01*
X17325694Y182981414D01*
X17378331Y183007150D01*
X17445680Y183038221D01*
X17488790Y183057563D01*
X17559856Y183083731D01*
X17650714Y183107645D01*
X17762092Y183129482D01*
X17823105Y183139285D01*
X17878968Y183147530D01*
X17924672Y183153328D01*
X17964621Y183156560D01*
X18003219Y183157109D01*
X18044869Y183154854D01*
G36*
X-5819919Y183156307D02*
G01*
X-5791288Y183153621D01*
X-5761358Y183149939D01*
X-5662509Y183136545D01*
X-5580730Y183123497D01*
X-5511477Y183109559D01*
X-5450208Y183093492D01*
X-5392380Y183074063D01*
X-5333449Y183050033D01*
X-5268875Y183020168D01*
X-5248981Y183010502D01*
X-5147661Y182953142D01*
X-5044357Y182880596D01*
X-4944061Y182797223D01*
X-4851766Y182707382D01*
X-4772464Y182615430D01*
X-4731865Y182559049D01*
X-4710056Y182526175D01*
X-4689826Y182495919D01*
X-4684469Y182487975D01*
X-4649670Y182428204D01*
X-4614321Y182352558D01*
X-4580537Y182266667D01*
X-4550432Y182176163D01*
X-4526123Y182086674D01*
X-4515803Y182038971D01*
X-4510278Y181999025D01*
X-4505296Y181941415D01*
X-4500930Y181869799D01*
X-4497249Y181787839D01*
X-4494324Y181699196D01*
X-4492227Y181607530D01*
X-4491027Y181516501D01*
X-4490796Y181429771D01*
X-4491605Y181350999D01*
X-4493524Y181283845D01*
X-4496623Y181231972D01*
X-4499696Y181205715D01*
X-4507863Y181156524D01*
X-4517068Y181101293D01*
X-4522427Y181069242D01*
X-4535041Y181008286D01*
X-4552783Y180940959D01*
X-4572965Y180876609D01*
X-4592516Y180825455D01*
X-4614441Y180777734D01*
X-4637378Y180731398D01*
X-4658552Y180691757D01*
X-4675188Y180664119D01*
X-4680759Y180656660D01*
X-4693162Y180637330D01*
X-4695800Y180627573D01*
X-4702432Y180613519D01*
X-4720385Y180586853D01*
X-4746741Y180551304D01*
X-4778585Y180510596D01*
X-4812999Y180468456D01*
X-4847066Y180428610D01*
X-4877869Y180394785D01*
X-4878700Y180393916D01*
X-4932752Y180342211D01*
X-4999108Y180285990D01*
X-5070836Y180230639D01*
X-5141005Y180181543D01*
X-5194208Y180148774D01*
X-5248677Y180118847D01*
X-5294345Y180096131D01*
X-5339616Y180076912D01*
X-5392895Y180057478D01*
X-5427160Y180045852D01*
X-5459259Y180035655D01*
X-5491659Y180026766D01*
X-5528463Y180018334D01*
X-5573773Y180009508D01*
X-5631689Y179999436D01*
X-5706315Y179987267D01*
X-5719704Y179985129D01*
X-5761814Y179980615D01*
X-5815633Y179977944D01*
X-5874839Y179977085D01*
X-5933109Y179978008D01*
X-5984122Y179980686D01*
X-6021556Y179985087D01*
X-6028500Y179986564D01*
X-6059858Y179993434D01*
X-6102221Y180001562D01*
X-6136850Y180007582D01*
X-6273807Y180039946D01*
X-6412387Y180091493D01*
X-6548724Y180160442D01*
X-6678955Y180245010D01*
X-6720744Y180276681D01*
X-6833207Y180375681D01*
X-6935294Y180486337D01*
X-7024881Y180605473D01*
X-7099843Y180729911D01*
X-7158057Y180856476D01*
X-7197397Y180981989D01*
X-7199999Y180993397D01*
X-7208621Y181030992D01*
X-7219791Y181077785D01*
X-7228345Y181112582D01*
X-7233231Y181135494D01*
X-7237157Y181162638D01*
X-7240218Y181196474D01*
X-7242510Y181239461D01*
X-7244130Y181294060D01*
X-7245174Y181362732D01*
X-7245738Y181447936D01*
X-7245918Y181552132D01*
X-7245918Y181562233D01*
X-7245836Y181664405D01*
X-7245507Y181747695D01*
X-7244790Y181814889D01*
X-7243546Y181868775D01*
X-7241635Y181912139D01*
X-7238918Y181947770D01*
X-7235256Y181978452D01*
X-7230509Y182006975D01*
X-7224536Y182036125D01*
X-7221498Y182049806D01*
X-7209514Y182100264D01*
X-7197348Y182146893D01*
X-7186817Y182182925D01*
X-7182260Y182196078D01*
X-7170145Y182229540D01*
X-7160821Y182259420D01*
X-7160379Y182261088D01*
X-7145447Y182303526D01*
X-7120632Y182358018D01*
X-7088894Y182419159D01*
X-7053188Y182481548D01*
X-7016471Y182539780D01*
X-6981702Y182588453D01*
X-6980070Y182590536D01*
X-6888724Y182695861D01*
X-6787083Y182794257D01*
X-6679592Y182882002D01*
X-6570699Y182955374D01*
X-6494404Y182996981D01*
X-6414544Y183032590D01*
X-6327483Y183065820D01*
X-6239935Y183094451D01*
X-6158614Y183116259D01*
X-6098927Y183127843D01*
X-6020822Y183139127D01*
X-5960382Y183147466D01*
X-5913840Y183153107D01*
X-5877427Y183156297D01*
X-5847376Y183157281D01*
X-5819919Y183156307D01*
G37*
X-5819919Y183156307D02*
X-5791288Y183153621D01*
X-5761358Y183149939D01*
X-5662509Y183136545D01*
X-5580730Y183123497D01*
X-5511477Y183109559D01*
X-5450208Y183093492D01*
X-5392380Y183074063D01*
X-5333449Y183050033D01*
X-5268875Y183020168D01*
X-5248981Y183010502D01*
X-5147661Y182953142D01*
X-5044357Y182880596D01*
X-4944061Y182797223D01*
X-4851766Y182707382D01*
X-4772464Y182615430D01*
X-4731865Y182559049D01*
X-4710056Y182526175D01*
X-4689826Y182495919D01*
X-4684469Y182487975D01*
X-4649670Y182428204D01*
X-4614321Y182352558D01*
X-4580537Y182266667D01*
X-4550432Y182176163D01*
X-4526123Y182086674D01*
X-4515803Y182038971D01*
X-4510278Y181999025D01*
X-4505296Y181941415D01*
X-4500930Y181869799D01*
X-4497249Y181787839D01*
X-4494324Y181699196D01*
X-4492227Y181607530D01*
X-4491027Y181516501D01*
X-4490796Y181429771D01*
X-4491605Y181350999D01*
X-4493524Y181283845D01*
X-4496623Y181231972D01*
X-4499696Y181205715D01*
X-4507863Y181156524D01*
X-4517068Y181101293D01*
X-4522427Y181069242D01*
X-4535041Y181008286D01*
X-4552783Y180940959D01*
X-4572965Y180876609D01*
X-4592516Y180825455D01*
X-4614441Y180777734D01*
X-4637378Y180731398D01*
X-4658552Y180691757D01*
X-4675188Y180664119D01*
X-4680759Y180656660D01*
X-4693162Y180637330D01*
X-4695800Y180627573D01*
X-4702432Y180613519D01*
X-4720385Y180586853D01*
X-4746741Y180551304D01*
X-4778585Y180510596D01*
X-4812999Y180468456D01*
X-4847066Y180428610D01*
X-4877869Y180394785D01*
X-4878700Y180393916D01*
X-4932752Y180342211D01*
X-4999108Y180285990D01*
X-5070836Y180230639D01*
X-5141005Y180181543D01*
X-5194208Y180148774D01*
X-5248677Y180118847D01*
X-5294345Y180096131D01*
X-5339616Y180076912D01*
X-5392895Y180057478D01*
X-5427160Y180045852D01*
X-5459259Y180035655D01*
X-5491659Y180026766D01*
X-5528463Y180018334D01*
X-5573773Y180009508D01*
X-5631689Y179999436D01*
X-5706315Y179987267D01*
X-5719704Y179985129D01*
X-5761814Y179980615D01*
X-5815633Y179977944D01*
X-5874839Y179977085D01*
X-5933109Y179978008D01*
X-5984122Y179980686D01*
X-6021556Y179985087D01*
X-6028500Y179986564D01*
X-6059858Y179993434D01*
X-6102221Y180001562D01*
X-6136850Y180007582D01*
X-6273807Y180039946D01*
X-6412387Y180091493D01*
X-6548724Y180160442D01*
X-6678955Y180245010D01*
X-6720744Y180276681D01*
X-6833207Y180375681D01*
X-6935294Y180486337D01*
X-7024881Y180605473D01*
X-7099843Y180729911D01*
X-7158057Y180856476D01*
X-7197397Y180981989D01*
X-7199999Y180993397D01*
X-7208621Y181030992D01*
X-7219791Y181077785D01*
X-7228345Y181112582D01*
X-7233231Y181135494D01*
X-7237157Y181162638D01*
X-7240218Y181196474D01*
X-7242510Y181239461D01*
X-7244130Y181294060D01*
X-7245174Y181362732D01*
X-7245738Y181447936D01*
X-7245918Y181552132D01*
X-7245918Y181562233D01*
X-7245836Y181664405D01*
X-7245507Y181747695D01*
X-7244790Y181814889D01*
X-7243546Y181868775D01*
X-7241635Y181912139D01*
X-7238918Y181947770D01*
X-7235256Y181978452D01*
X-7230509Y182006975D01*
X-7224536Y182036125D01*
X-7221498Y182049806D01*
X-7209514Y182100264D01*
X-7197348Y182146893D01*
X-7186817Y182182925D01*
X-7182260Y182196078D01*
X-7170145Y182229540D01*
X-7160821Y182259420D01*
X-7160379Y182261088D01*
X-7145447Y182303526D01*
X-7120632Y182358018D01*
X-7088894Y182419159D01*
X-7053188Y182481548D01*
X-7016471Y182539780D01*
X-6981702Y182588453D01*
X-6980070Y182590536D01*
X-6888724Y182695861D01*
X-6787083Y182794257D01*
X-6679592Y182882002D01*
X-6570699Y182955374D01*
X-6494404Y182996981D01*
X-6414544Y183032590D01*
X-6327483Y183065820D01*
X-6239935Y183094451D01*
X-6158614Y183116259D01*
X-6098927Y183127843D01*
X-6020822Y183139127D01*
X-5960382Y183147466D01*
X-5913840Y183153107D01*
X-5877427Y183156297D01*
X-5847376Y183157281D01*
X-5819919Y183156307D01*
G36*
X10572640Y183157370D02*
G01*
X10832234Y183156991D01*
X11071054Y183156631D01*
X11289998Y183156280D01*
X11489961Y183155930D01*
X11671840Y183155569D01*
X11836532Y183155188D01*
X11984932Y183154778D01*
X12117938Y183154329D01*
X12236446Y183153830D01*
X12341352Y183153273D01*
X12433553Y183152647D01*
X12513945Y183151943D01*
X12583424Y183151151D01*
X12642888Y183150261D01*
X12693233Y183149263D01*
X12735354Y183148148D01*
X12770150Y183146906D01*
X12798515Y183145527D01*
X12821347Y183144002D01*
X12839542Y183142320D01*
X12853996Y183140472D01*
X12865606Y183138448D01*
X12875269Y183136238D01*
X12883880Y183133833D01*
X12889348Y183132158D01*
X12977552Y183095561D01*
X13048432Y183045995D01*
X13102273Y182983121D01*
X13139360Y182906600D01*
X13159978Y182816093D01*
X13160815Y182809198D01*
X13164117Y182767526D01*
X13166743Y182708387D01*
X13168698Y182635608D01*
X13169987Y182553015D01*
X13170613Y182464435D01*
X13170581Y182373695D01*
X13169895Y182284623D01*
X13168561Y182201045D01*
X13166582Y182126788D01*
X13163963Y182065680D01*
X13160709Y182021547D01*
X13159892Y182014368D01*
X13139116Y181921586D01*
X13101777Y181842772D01*
X13047816Y181777858D01*
X12977177Y181726775D01*
X12889801Y181689456D01*
X12885310Y181688049D01*
X12870331Y181683584D01*
X12855307Y181679740D01*
X12838574Y181676471D01*
X12818467Y181673729D01*
X12793321Y181671468D01*
X12761469Y181669640D01*
X12721248Y181668199D01*
X12670992Y181667098D01*
X12609036Y181666290D01*
X12533715Y181665727D01*
X12443363Y181665364D01*
X12336315Y181665153D01*
X12210907Y181665046D01*
X12067458Y181664999D01*
X11942237Y181664849D01*
X11823249Y181664469D01*
X11712287Y181663881D01*
X11611146Y181663105D01*
X11521618Y181662162D01*
X11445497Y181661073D01*
X11384576Y181659857D01*
X11340650Y181658537D01*
X11315511Y181657133D01*
X11310175Y181656248D01*
X11307902Y181650584D01*
X11305853Y181635944D01*
X11304013Y181611299D01*
X11302368Y181575620D01*
X11300903Y181527880D01*
X11299602Y181467049D01*
X11298450Y181392099D01*
X11297432Y181302001D01*
X11296535Y181195728D01*
X11295741Y181072251D01*
X11295038Y180930540D01*
X11294409Y180769569D01*
X11293840Y180588308D01*
X11293656Y180521451D01*
X11290657Y179395240D01*
X11264170Y179330230D01*
X11227794Y179253270D01*
X11186813Y179193761D01*
X11136994Y179147488D01*
X11074103Y179110236D01*
X11020316Y179087376D01*
X11000660Y179080311D01*
X10981278Y179074696D01*
X10959392Y179070331D01*
X10932225Y179067016D01*
X10897002Y179064551D01*
X10850944Y179062737D01*
X10791275Y179061374D01*
X10715218Y179060262D01*
X10630258Y179059308D01*
X10542763Y179058712D01*
X10457281Y179058727D01*
X10377628Y179059309D01*
X10307622Y179060410D01*
X10251081Y179061988D01*
X10211821Y179063995D01*
X10207694Y179064327D01*
X10124524Y179075924D01*
X10056107Y179096250D01*
X9996497Y179127622D01*
X9946991Y179165863D01*
X9883246Y179234606D01*
X9838911Y179310840D01*
X9820624Y179365119D01*
X9818339Y179381335D01*
X9816258Y179411047D01*
X9814370Y179455029D01*
X9812665Y179514054D01*
X9811131Y179588897D01*
X9809759Y179680330D01*
X9808538Y179789129D01*
X9807456Y179916066D01*
X9806503Y180061916D01*
X9805669Y180227452D01*
X9804943Y180413448D01*
X9804577Y180527493D01*
X9804020Y180707606D01*
X9803472Y180867287D01*
X9802910Y181007776D01*
X9802309Y181130311D01*
X9801646Y181236131D01*
X9800898Y181326475D01*
X9800039Y181402582D01*
X9799047Y181465691D01*
X9797898Y181517039D01*
X9796568Y181557867D01*
X9795033Y181589412D01*
X9793270Y181612914D01*
X9791254Y181629611D01*
X9788962Y181640742D01*
X9786370Y181647546D01*
X9783455Y181651261D01*
X9782998Y181651621D01*
X9774654Y181654396D01*
X9756790Y181656794D01*
X9728144Y181658839D01*
X9687456Y181660552D01*
X9633465Y181661957D01*
X9564907Y181663075D01*
X9480523Y181663929D01*
X9379051Y181664542D01*
X9259229Y181664935D01*
X9119796Y181665132D01*
X9021019Y181665165D01*
X8875927Y181665179D01*
X8750840Y181665253D01*
X8644094Y181665434D01*
X8554026Y181665770D01*
X8478969Y181666308D01*
X8417261Y181667095D01*
X8367237Y181668178D01*
X8327232Y181669606D01*
X8295582Y181671425D01*
X8270623Y181673682D01*
X8250691Y181676426D01*
X8234120Y181679703D01*
X8219247Y181683560D01*
X8204407Y181688046D01*
X8203179Y181688431D01*
X8116470Y181724296D01*
X8045432Y181773585D01*
X7987002Y181838836D01*
X7951060Y181897045D01*
X7921516Y181952291D01*
X7921516Y182873263D01*
X7951051Y182928492D01*
X7990209Y182988860D01*
X8038390Y183043638D01*
X8089265Y183085857D01*
X8100293Y183092828D01*
X8128576Y183105806D01*
X8170374Y183120529D01*
X8217982Y183134364D01*
X8232287Y183137958D01*
X8326359Y183160629D01*
X10572640Y183157370D01*
G37*
X10572640Y183157370D02*
X10832234Y183156991D01*
X11071054Y183156631D01*
X11289998Y183156280D01*
X11489961Y183155930D01*
X11671840Y183155569D01*
X11836532Y183155188D01*
X11984932Y183154778D01*
X12117938Y183154329D01*
X12236446Y183153830D01*
X12341352Y183153273D01*
X12433553Y183152647D01*
X12513945Y183151943D01*
X12583424Y183151151D01*
X12642888Y183150261D01*
X12693233Y183149263D01*
X12735354Y183148148D01*
X12770150Y183146906D01*
X12798515Y183145527D01*
X12821347Y183144002D01*
X12839542Y183142320D01*
X12853996Y183140472D01*
X12865606Y183138448D01*
X12875269Y183136238D01*
X12883880Y183133833D01*
X12889348Y183132158D01*
X12977552Y183095561D01*
X13048432Y183045995D01*
X13102273Y182983121D01*
X13139360Y182906600D01*
X13159978Y182816093D01*
X13160815Y182809198D01*
X13164117Y182767526D01*
X13166743Y182708387D01*
X13168698Y182635608D01*
X13169987Y182553015D01*
X13170613Y182464435D01*
X13170581Y182373695D01*
X13169895Y182284623D01*
X13168561Y182201045D01*
X13166582Y182126788D01*
X13163963Y182065680D01*
X13160709Y182021547D01*
X13159892Y182014368D01*
X13139116Y181921586D01*
X13101777Y181842772D01*
X13047816Y181777858D01*
X12977177Y181726775D01*
X12889801Y181689456D01*
X12885310Y181688049D01*
X12870331Y181683584D01*
X12855307Y181679740D01*
X12838574Y181676471D01*
X12818467Y181673729D01*
X12793321Y181671468D01*
X12761469Y181669640D01*
X12721248Y181668199D01*
X12670992Y181667098D01*
X12609036Y181666290D01*
X12533715Y181665727D01*
X12443363Y181665364D01*
X12336315Y181665153D01*
X12210907Y181665046D01*
X12067458Y181664999D01*
X11942237Y181664849D01*
X11823249Y181664469D01*
X11712287Y181663881D01*
X11611146Y181663105D01*
X11521618Y181662162D01*
X11445497Y181661073D01*
X11384576Y181659857D01*
X11340650Y181658537D01*
X11315511Y181657133D01*
X11310175Y181656248D01*
X11307902Y181650584D01*
X11305853Y181635944D01*
X11304013Y181611299D01*
X11302368Y181575620D01*
X11300903Y181527880D01*
X11299602Y181467049D01*
X11298450Y181392099D01*
X11297432Y181302001D01*
X11296535Y181195728D01*
X11295741Y181072251D01*
X11295038Y180930540D01*
X11294409Y180769569D01*
X11293840Y180588308D01*
X11293656Y180521451D01*
X11290657Y179395240D01*
X11264170Y179330230D01*
X11227794Y179253270D01*
X11186813Y179193761D01*
X11136994Y179147488D01*
X11074103Y179110236D01*
X11020316Y179087376D01*
X11000660Y179080311D01*
X10981278Y179074696D01*
X10959392Y179070331D01*
X10932225Y179067016D01*
X10897002Y179064551D01*
X10850944Y179062737D01*
X10791275Y179061374D01*
X10715218Y179060262D01*
X10630258Y179059308D01*
X10542763Y179058712D01*
X10457281Y179058727D01*
X10377628Y179059309D01*
X10307622Y179060410D01*
X10251081Y179061988D01*
X10211821Y179063995D01*
X10207694Y179064327D01*
X10124524Y179075924D01*
X10056107Y179096250D01*
X9996497Y179127622D01*
X9946991Y179165863D01*
X9883246Y179234606D01*
X9838911Y179310840D01*
X9820624Y179365119D01*
X9818339Y179381335D01*
X9816258Y179411047D01*
X9814370Y179455029D01*
X9812665Y179514054D01*
X9811131Y179588897D01*
X9809759Y179680330D01*
X9808538Y179789129D01*
X9807456Y179916066D01*
X9806503Y180061916D01*
X9805669Y180227452D01*
X9804943Y180413448D01*
X9804577Y180527493D01*
X9804020Y180707606D01*
X9803472Y180867287D01*
X9802910Y181007776D01*
X9802309Y181130311D01*
X9801646Y181236131D01*
X9800898Y181326475D01*
X9800039Y181402582D01*
X9799047Y181465691D01*
X9797898Y181517039D01*
X9796568Y181557867D01*
X9795033Y181589412D01*
X9793270Y181612914D01*
X9791254Y181629611D01*
X9788962Y181640742D01*
X9786370Y181647546D01*
X9783455Y181651261D01*
X9782998Y181651621D01*
X9774654Y181654396D01*
X9756790Y181656794D01*
X9728144Y181658839D01*
X9687456Y181660552D01*
X9633465Y181661957D01*
X9564907Y181663075D01*
X9480523Y181663929D01*
X9379051Y181664542D01*
X9259229Y181664935D01*
X9119796Y181665132D01*
X9021019Y181665165D01*
X8875927Y181665179D01*
X8750840Y181665253D01*
X8644094Y181665434D01*
X8554026Y181665770D01*
X8478969Y181666308D01*
X8417261Y181667095D01*
X8367237Y181668178D01*
X8327232Y181669606D01*
X8295582Y181671425D01*
X8270623Y181673682D01*
X8250691Y181676426D01*
X8234120Y181679703D01*
X8219247Y181683560D01*
X8204407Y181688046D01*
X8203179Y181688431D01*
X8116470Y181724296D01*
X8045432Y181773585D01*
X7987002Y181838836D01*
X7951060Y181897045D01*
X7921516Y181952291D01*
X7921516Y182873263D01*
X7951051Y182928492D01*
X7990209Y182988860D01*
X8038390Y183043638D01*
X8089265Y183085857D01*
X8100293Y183092828D01*
X8128576Y183105806D01*
X8170374Y183120529D01*
X8217982Y183134364D01*
X8232287Y183137958D01*
X8326359Y183160629D01*
X10572640Y183157370D01*
G36*
X838282Y183158518D02*
G01*
X1047833Y183158370D01*
X1276520Y183158122D01*
X1525235Y183157786D01*
X1749113Y183157446D01*
X2005028Y183157038D01*
X2240184Y183156652D01*
X2455489Y183156276D01*
X2651853Y183155901D01*
X2830187Y183155517D01*
X2991399Y183155112D01*
X3136400Y183154677D01*
X3266098Y183154203D01*
X3381405Y183153677D01*
X3483230Y183153092D01*
X3572482Y183152435D01*
X3650072Y183151697D01*
X3716908Y183150869D01*
X3773901Y183149938D01*
X3821960Y183148897D01*
X3861996Y183147733D01*
X3894917Y183146438D01*
X3921634Y183145000D01*
X3943056Y183143411D01*
X3960094Y183141658D01*
X3973656Y183139733D01*
X3984653Y183137625D01*
X3993994Y183135324D01*
X4002589Y183132820D01*
X4004677Y183132177D01*
X4092152Y183096135D01*
X4162278Y183047261D01*
X4215584Y182984913D01*
X4252602Y182908448D01*
X4273859Y182817225D01*
X4275511Y182804094D01*
X4279019Y182760176D01*
X4281806Y182698617D01*
X4283872Y182623435D01*
X4285218Y182538646D01*
X4285845Y182448268D01*
X4285753Y182356318D01*
X4284943Y182266813D01*
X4283415Y182183770D01*
X4281170Y182111206D01*
X4278209Y182053140D01*
X4275405Y182020532D01*
X4256239Y181927636D01*
X4221294Y181849278D01*
X4169872Y181784606D01*
X4101273Y181732767D01*
X4014800Y181692908D01*
X4003914Y181689133D01*
X3989762Y181684476D01*
X3975884Y181680466D01*
X3960629Y181677053D01*
X3942347Y181674189D01*
X3919390Y181671827D01*
X3890108Y181669918D01*
X3852852Y181668413D01*
X3805971Y181667265D01*
X3747817Y181666426D01*
X3676740Y181665846D01*
X3591090Y181665479D01*
X3489218Y181665275D01*
X3369475Y181665186D01*
X3230211Y181665165D01*
X3183939Y181665165D01*
X3037050Y181665124D01*
X2910326Y181664980D01*
X2802265Y181664700D01*
X2711360Y181664249D01*
X2636110Y181663595D01*
X2575009Y181662703D01*
X2526553Y181661541D01*
X2489239Y181660075D01*
X2461561Y181658272D01*
X2442017Y181656097D01*
X2429102Y181653519D01*
X2421313Y181650503D01*
X2418129Y181648138D01*
X2415367Y181643754D01*
X2412918Y181635631D01*
X2410762Y181622547D01*
X2408881Y181603278D01*
X2407257Y181576602D01*
X2405871Y181541294D01*
X2404706Y181496131D01*
X2403742Y181439890D01*
X2402963Y181371347D01*
X2402348Y181289279D01*
X2401880Y181192463D01*
X2401541Y181079675D01*
X2401313Y180949692D01*
X2401176Y180801290D01*
X2401113Y180633247D01*
X2401103Y180511431D01*
X2401103Y179391750D01*
X2377058Y179328485D01*
X2339293Y179247522D01*
X2292988Y179184317D01*
X2234958Y179135630D01*
X2162017Y179098219D01*
X2143822Y179091243D01*
X2120862Y179083013D01*
X2100275Y179076478D01*
X2079253Y179071423D01*
X2054990Y179067636D01*
X2024681Y179064903D01*
X1985520Y179063012D01*
X1934700Y179061747D01*
X1869415Y179060898D01*
X1786859Y179060249D01*
X1731255Y179059890D01*
X1643613Y179059604D01*
X1558694Y179059830D01*
X1480110Y179060520D01*
X1411472Y179061626D01*
X1356392Y179063103D01*
X1318478Y179064901D01*
X1312189Y179065388D01*
X1262133Y179072023D01*
X1212514Y179082270D01*
X1173661Y179093974D01*
X1172071Y179094606D01*
X1118239Y179123850D01*
X1062801Y179166403D01*
X1013122Y179215847D01*
X977564Y179264049D01*
X968061Y179280620D01*
X959603Y179296918D01*
X952129Y179314240D01*
X945577Y179333882D01*
X939888Y179357142D01*
X935000Y179385318D01*
X930853Y179419706D01*
X927385Y179461603D01*
X924536Y179512308D01*
X922245Y179573117D01*
X920452Y179645327D01*
X919095Y179730236D01*
X918113Y179829141D01*
X917447Y179943338D01*
X917035Y180074126D01*
X916816Y180222802D01*
X916729Y180390662D01*
X916714Y180562326D01*
X916705Y180739169D01*
X916662Y180895607D01*
X916561Y181032906D01*
X916378Y181152332D01*
X916088Y181255149D01*
X915668Y181342623D01*
X915092Y181416020D01*
X914336Y181476604D01*
X913377Y181525642D01*
X912189Y181564399D01*
X910749Y181594139D01*
X909033Y181616129D01*
X907015Y181631634D01*
X904672Y181641919D01*
X901980Y181648250D01*
X898913Y181651892D01*
X895755Y181653949D01*
X879886Y181656494D01*
X842481Y181658716D01*
X783669Y181660613D01*
X703582Y181662184D01*
X602351Y181663425D01*
X480106Y181664335D01*
X336978Y181664913D01*
X173098Y181665156D01*
X133714Y181665165D01*
X-11109Y181665179D01*
X-135930Y181665254D01*
X-242417Y181665437D01*
X-332237Y181665775D01*
X-407058Y181666317D01*
X-468548Y181667109D01*
X-518375Y181668200D01*
X-558206Y181669636D01*
X-589710Y181671466D01*
X-614553Y181673736D01*
X-634404Y181676495D01*
X-650931Y181679789D01*
X-665801Y181683668D01*
X-680681Y181688177D01*
X-681400Y181688402D01*
X-764917Y181722122D01*
X-832987Y181767377D01*
X-889529Y181827462D01*
X-937334Y181903534D01*
X-963154Y181952291D01*
X-963154Y182407701D01*
X-963104Y182519587D01*
X-962895Y182611946D01*
X-962437Y182686924D01*
X-961639Y182746663D01*
X-960411Y182793309D01*
X-958664Y182829004D01*
X-956307Y182855893D01*
X-953250Y182876120D01*
X-949404Y182891828D01*
X-944678Y182905162D01*
X-941992Y182911527D01*
X-898721Y182986390D01*
X-840921Y183049696D01*
X-772302Y183098164D01*
X-696577Y183128515D01*
X-696404Y183128560D01*
X-680580Y183132292D01*
X-662606Y183135724D01*
X-641586Y183138868D01*
X-616627Y183141734D01*
X-586835Y183144332D01*
X-551316Y183146672D01*
X-509177Y183148767D01*
X-459523Y183150625D01*
X-401461Y183152259D01*
X-334096Y183153677D01*
X-256535Y183154891D01*
X-167884Y183155912D01*
X-67249Y183156749D01*
X46264Y183157414D01*
X173549Y183157916D01*
X315499Y183158268D01*
X473009Y183158478D01*
X646972Y183158558D01*
X838282Y183158518D01*
G37*
X838282Y183158518D02*
X1047833Y183158370D01*
X1276520Y183158122D01*
X1525235Y183157786D01*
X1749113Y183157446D01*
X2005028Y183157038D01*
X2240184Y183156652D01*
X2455489Y183156276D01*
X2651853Y183155901D01*
X2830187Y183155517D01*
X2991399Y183155112D01*
X3136400Y183154677D01*
X3266098Y183154203D01*
X3381405Y183153677D01*
X3483230Y183153092D01*
X3572482Y183152435D01*
X3650072Y183151697D01*
X3716908Y183150869D01*
X3773901Y183149938D01*
X3821960Y183148897D01*
X3861996Y183147733D01*
X3894917Y183146438D01*
X3921634Y183145000D01*
X3943056Y183143411D01*
X3960094Y183141658D01*
X3973656Y183139733D01*
X3984653Y183137625D01*
X3993994Y183135324D01*
X4002589Y183132820D01*
X4004677Y183132177D01*
X4092152Y183096135D01*
X4162278Y183047261D01*
X4215584Y182984913D01*
X4252602Y182908448D01*
X4273859Y182817225D01*
X4275511Y182804094D01*
X4279019Y182760176D01*
X4281806Y182698617D01*
X4283872Y182623435D01*
X4285218Y182538646D01*
X4285845Y182448268D01*
X4285753Y182356318D01*
X4284943Y182266813D01*
X4283415Y182183770D01*
X4281170Y182111206D01*
X4278209Y182053140D01*
X4275405Y182020532D01*
X4256239Y181927636D01*
X4221294Y181849278D01*
X4169872Y181784606D01*
X4101273Y181732767D01*
X4014800Y181692908D01*
X4003914Y181689133D01*
X3989762Y181684476D01*
X3975884Y181680466D01*
X3960629Y181677053D01*
X3942347Y181674189D01*
X3919390Y181671827D01*
X3890108Y181669918D01*
X3852852Y181668413D01*
X3805971Y181667265D01*
X3747817Y181666426D01*
X3676740Y181665846D01*
X3591090Y181665479D01*
X3489218Y181665275D01*
X3369475Y181665186D01*
X3230211Y181665165D01*
X3183939Y181665165D01*
X3037050Y181665124D01*
X2910326Y181664980D01*
X2802265Y181664700D01*
X2711360Y181664249D01*
X2636110Y181663595D01*
X2575009Y181662703D01*
X2526553Y181661541D01*
X2489239Y181660075D01*
X2461561Y181658272D01*
X2442017Y181656097D01*
X2429102Y181653519D01*
X2421313Y181650503D01*
X2418129Y181648138D01*
X2415367Y181643754D01*
X2412918Y181635631D01*
X2410762Y181622547D01*
X2408881Y181603278D01*
X2407257Y181576602D01*
X2405871Y181541294D01*
X2404706Y181496131D01*
X2403742Y181439890D01*
X2402963Y181371347D01*
X2402348Y181289279D01*
X2401880Y181192463D01*
X2401541Y181079675D01*
X2401313Y180949692D01*
X2401176Y180801290D01*
X2401113Y180633247D01*
X2401103Y180511431D01*
X2401103Y179391750D01*
X2377058Y179328485D01*
X2339293Y179247522D01*
X2292988Y179184317D01*
X2234958Y179135630D01*
X2162017Y179098219D01*
X2143822Y179091243D01*
X2120862Y179083013D01*
X2100275Y179076478D01*
X2079253Y179071423D01*
X2054990Y179067636D01*
X2024681Y179064903D01*
X1985520Y179063012D01*
X1934700Y179061747D01*
X1869415Y179060898D01*
X1786859Y179060249D01*
X1731255Y179059890D01*
X1643613Y179059604D01*
X1558694Y179059830D01*
X1480110Y179060520D01*
X1411472Y179061626D01*
X1356392Y179063103D01*
X1318478Y179064901D01*
X1312189Y179065388D01*
X1262133Y179072023D01*
X1212514Y179082270D01*
X1173661Y179093974D01*
X1172071Y179094606D01*
X1118239Y179123850D01*
X1062801Y179166403D01*
X1013122Y179215847D01*
X977564Y179264049D01*
X968061Y179280620D01*
X959603Y179296918D01*
X952129Y179314240D01*
X945577Y179333882D01*
X939888Y179357142D01*
X935000Y179385318D01*
X930853Y179419706D01*
X927385Y179461603D01*
X924536Y179512308D01*
X922245Y179573117D01*
X920452Y179645327D01*
X919095Y179730236D01*
X918113Y179829141D01*
X917447Y179943338D01*
X917035Y180074126D01*
X916816Y180222802D01*
X916729Y180390662D01*
X916714Y180562326D01*
X916705Y180739169D01*
X916662Y180895607D01*
X916561Y181032906D01*
X916378Y181152332D01*
X916088Y181255149D01*
X915668Y181342623D01*
X915092Y181416020D01*
X914336Y181476604D01*
X913377Y181525642D01*
X912189Y181564399D01*
X910749Y181594139D01*
X909033Y181616129D01*
X907015Y181631634D01*
X904672Y181641919D01*
X901980Y181648250D01*
X898913Y181651892D01*
X895755Y181653949D01*
X879886Y181656494D01*
X842481Y181658716D01*
X783669Y181660613D01*
X703582Y181662184D01*
X602351Y181663425D01*
X480106Y181664335D01*
X336978Y181664913D01*
X173098Y181665156D01*
X133714Y181665165D01*
X-11109Y181665179D01*
X-135930Y181665254D01*
X-242417Y181665437D01*
X-332237Y181665775D01*
X-407058Y181666317D01*
X-468548Y181667109D01*
X-518375Y181668200D01*
X-558206Y181669636D01*
X-589710Y181671466D01*
X-614553Y181673736D01*
X-634404Y181676495D01*
X-650931Y181679789D01*
X-665801Y181683668D01*
X-680681Y181688177D01*
X-681400Y181688402D01*
X-764917Y181722122D01*
X-832987Y181767377D01*
X-889529Y181827462D01*
X-937334Y181903534D01*
X-963154Y181952291D01*
X-963154Y182407701D01*
X-963104Y182519587D01*
X-962895Y182611946D01*
X-962437Y182686924D01*
X-961639Y182746663D01*
X-960411Y182793309D01*
X-958664Y182829004D01*
X-956307Y182855893D01*
X-953250Y182876120D01*
X-949404Y182891828D01*
X-944678Y182905162D01*
X-941992Y182911527D01*
X-898721Y182986390D01*
X-840921Y183049696D01*
X-772302Y183098164D01*
X-696577Y183128515D01*
X-696404Y183128560D01*
X-680580Y183132292D01*
X-662606Y183135724D01*
X-641586Y183138868D01*
X-616627Y183141734D01*
X-586835Y183144332D01*
X-551316Y183146672D01*
X-509177Y183148767D01*
X-459523Y183150625D01*
X-401461Y183152259D01*
X-334096Y183153677D01*
X-256535Y183154891D01*
X-167884Y183155912D01*
X-67249Y183156749D01*
X46264Y183157414D01*
X173549Y183157916D01*
X315499Y183158268D01*
X473009Y183158478D01*
X646972Y183158558D01*
X838282Y183158518D01*
G36*
X6198159Y179208949D02*
G01*
X6274512Y179196616D01*
X6345034Y179178042D01*
X6403366Y179153974D01*
X6404621Y179153304D01*
X6474224Y179112203D01*
X6535026Y179069128D01*
X6581319Y179028151D01*
X6584237Y179025073D01*
X6645170Y178953357D01*
X6693098Y178881208D01*
X6729759Y178804336D01*
X6756893Y178718453D01*
X6776235Y178619269D01*
X6787689Y178523025D01*
X6805475Y178390678D01*
X6833703Y178251930D01*
X6869965Y178117830D01*
X6888055Y178062539D01*
X6899264Y178028255D01*
X6910137Y177992113D01*
X6919960Y177961767D01*
X6934840Y177920374D01*
X6951962Y177875292D01*
X6968511Y177833882D01*
X6981673Y177803502D01*
X6984433Y177797849D01*
X6992563Y177781661D01*
X7007975Y177750694D01*
X7028358Y177709600D01*
X7048442Y177669015D01*
X7153138Y177481265D01*
X7275368Y177305300D01*
X7413859Y177142478D01*
X7567337Y176994157D01*
X7734529Y176861697D01*
X7912426Y176747450D01*
X8106996Y176645812D01*
X8302375Y176563515D01*
X8452430Y176513829D01*
X8502320Y176499177D01*
X8550565Y176484776D01*
X8589012Y176473069D01*
X8598702Y176470041D01*
X8641728Y176458406D01*
X8686956Y176448981D01*
X8696216Y176447500D01*
X8737782Y176439997D01*
X8783956Y176429666D01*
X8799148Y176425763D01*
X8835009Y176417857D01*
X8883846Y176409393D01*
X8937058Y176401809D01*
X8956255Y176399499D01*
X9007948Y176392946D01*
X9057566Y176385459D01*
X9096971Y176378306D01*
X9107945Y176375849D01*
X9123863Y176374016D01*
X9156614Y176372270D01*
X9206589Y176370607D01*
X9274180Y176369023D01*
X9359778Y176367512D01*
X9463775Y176366072D01*
X9586563Y176364698D01*
X9728533Y176363386D01*
X9890077Y176362131D01*
X10071586Y176360929D01*
X10273452Y176359777D01*
X10496068Y176358669D01*
X10739824Y176357601D01*
X10830704Y176357234D01*
X11019558Y176356443D01*
X11202552Y176355590D01*
X11378510Y176354684D01*
X11546255Y176353735D01*
X11704609Y176352752D01*
X11852395Y176351745D01*
X11988437Y176350723D01*
X12111557Y176349697D01*
X12220579Y176348674D01*
X12314324Y176347666D01*
X12391616Y176346681D01*
X12451278Y176345729D01*
X12492132Y176344819D01*
X12513003Y176343961D01*
X12515541Y176343610D01*
X12529353Y176340727D01*
X12561189Y176336957D01*
X12607438Y176332636D01*
X12664488Y176328103D01*
X12726823Y176323818D01*
X12796891Y176318794D01*
X12865356Y176312892D01*
X12926926Y176306638D01*
X12976307Y176300562D01*
X13003115Y176296254D01*
X13056729Y176286991D01*
X13116078Y176278481D01*
X13154804Y176273982D01*
X13197291Y176268741D01*
X13234492Y176262337D01*
X13257413Y176256446D01*
X13281505Y176249223D01*
X13318754Y176240002D01*
X13360345Y176230938D01*
X13416187Y176218469D01*
X13480317Y176202301D01*
X13549216Y176183523D01*
X13619362Y176163218D01*
X13687234Y176142474D01*
X13749311Y176122374D01*
X13802072Y176104006D01*
X13841996Y176088454D01*
X13865562Y176076805D01*
X13869067Y176074085D01*
X13888990Y176064211D01*
X13895412Y176063489D01*
X13912846Y176059115D01*
X13942970Y176047897D01*
X13979094Y176032691D01*
X14014531Y176016352D01*
X14042593Y176001737D01*
X14048689Y175998042D01*
X14071320Y175985940D01*
X14092029Y175976790D01*
X14119043Y175964600D01*
X14135369Y175955679D01*
X14154516Y175944773D01*
X14184132Y175929120D01*
X14198657Y175921723D01*
X14263084Y175885494D01*
X14337957Y175837094D01*
X14418694Y175779964D01*
X14500713Y175717545D01*
X14579430Y175653279D01*
X14650265Y175590606D01*
X14687952Y175554319D01*
X14756423Y175481407D01*
X14826498Y175399180D01*
X14894119Y175312912D01*
X14955225Y175227879D01*
X15005758Y175149355D01*
X15023732Y175117980D01*
X15050928Y175066750D01*
X15078301Y175012718D01*
X15103992Y174959844D01*
X15126144Y174912088D01*
X15142898Y174873408D01*
X15152397Y174847766D01*
X15153855Y174840687D01*
X15158436Y174824267D01*
X15169461Y174799603D01*
X15169573Y174799385D01*
X15185104Y174762334D01*
X15202961Y174708858D01*
X15221839Y174643899D01*
X15240435Y174572396D01*
X15257444Y174499289D01*
X15271562Y174429517D01*
X15279213Y174384069D01*
X15287436Y174329994D01*
X15296236Y174273332D01*
X15303838Y174225508D01*
X15304482Y174221545D01*
X15308486Y174185832D01*
X15311910Y174134184D01*
X15314484Y174072334D01*
X15315939Y174006016D01*
X15316162Y173973104D01*
X15315853Y173902378D01*
X15314450Y173848672D01*
X15311534Y173807351D01*
X15306684Y173773774D01*
X15299483Y173743306D01*
X15293639Y173723900D01*
X15249049Y173612293D01*
X15191205Y173516775D01*
X15118679Y173435275D01*
X15061758Y173387924D01*
X15012605Y173353767D01*
X14966139Y173327465D01*
X14914271Y173304983D01*
X14851679Y173283184D01*
X14793263Y173268829D01*
X14726738Y173259766D01*
X14658414Y173256177D01*
X14594600Y173258246D01*
X14541606Y173266158D01*
X14518339Y173273485D01*
X14488029Y173284190D01*
X14463579Y173289583D01*
X14460620Y173289738D01*
X14437968Y173295562D01*
X14403026Y173311094D01*
X14361125Y173333427D01*
X14317592Y173359651D01*
X14277757Y173386857D01*
X14265388Y173396300D01*
X14211988Y173444714D01*
X14159860Y173502527D01*
X14117036Y173560667D01*
X14110347Y173571447D01*
X14080098Y173626756D01*
X14058219Y173679686D01*
X14042932Y173736541D01*
X14032461Y173803623D01*
X14026316Y173869408D01*
X14019125Y173953684D01*
X14010643Y174035495D01*
X14001341Y174111480D01*
X13991694Y174178283D01*
X13982173Y174232543D01*
X13973252Y174270903D01*
X13967587Y174286555D01*
X13955241Y174317210D01*
X13946004Y174349752D01*
X13927676Y174402295D01*
X13894895Y174463117D01*
X13850666Y174527656D01*
X13797989Y174591348D01*
X13762972Y174627856D01*
X13705540Y174682519D01*
X13658273Y174723889D01*
X13622382Y174750985D01*
X13599079Y174762829D01*
X13595520Y174763293D01*
X13580508Y174769234D01*
X13559868Y174782605D01*
X13535481Y174797663D01*
X13500206Y174815871D01*
X13474436Y174827686D01*
X13432731Y174845705D01*
X13391282Y174863589D01*
X13371504Y174872110D01*
X13306884Y174896594D01*
X13227101Y174921638D01*
X13138541Y174945538D01*
X13047591Y174966587D01*
X12960638Y174983079D01*
X12948940Y174984960D01*
X12897202Y174993331D01*
X12846193Y175002027D01*
X12804999Y175009487D01*
X12796499Y175011134D01*
X12768541Y175015735D01*
X12732437Y175019958D01*
X12687295Y175023820D01*
X12632225Y175027337D01*
X12566336Y175030527D01*
X12488738Y175033407D01*
X12398540Y175035995D01*
X12294852Y175038307D01*
X12176784Y175040360D01*
X12043444Y175042171D01*
X11893943Y175043759D01*
X11727391Y175045139D01*
X11542895Y175046329D01*
X11339567Y175047346D01*
X11116516Y175048207D01*
X10872850Y175048930D01*
X10825287Y175049050D01*
X10591327Y175049690D01*
X10377969Y175050418D01*
X10184148Y175051256D01*
X10008796Y175052227D01*
X9850846Y175053354D01*
X9709230Y175054657D01*
X9582883Y175056161D01*
X9470738Y175057886D01*
X9371726Y175059856D01*
X9284782Y175062093D01*
X9208838Y175064618D01*
X9142828Y175067455D01*
X9085684Y175070625D01*
X9036340Y175074152D01*
X8993728Y175078056D01*
X8956782Y175082361D01*
X8924435Y175087089D01*
X8912916Y175089038D01*
X8876475Y175094864D01*
X8826261Y175102127D01*
X8770022Y175109730D01*
X8734139Y175114307D01*
X8682824Y175121333D01*
X8637145Y175128781D01*
X8602851Y175135645D01*
X8587867Y175139883D01*
X8562818Y175146806D01*
X8525138Y175153881D01*
X8490352Y175158670D01*
X8450832Y175164292D01*
X8418190Y175170951D01*
X8401372Y175176426D01*
X8381653Y175183567D01*
X8348055Y175192786D01*
X8309275Y175201772D01*
X8237719Y175218584D01*
X8157056Y175240195D01*
X8074917Y175264361D01*
X7998934Y175288840D01*
X7937769Y175310982D01*
X7901287Y175323727D01*
X7860628Y175335775D01*
X7854255Y175337434D01*
X7824757Y175346801D01*
X7805214Y175356520D01*
X7802150Y175359511D01*
X7786800Y175368878D01*
X7778026Y175370051D01*
X7758017Y175374423D01*
X7727909Y175385464D01*
X7713655Y175391721D01*
X7673749Y175410051D01*
X7629603Y175430098D01*
X7615429Y175436479D01*
X7572899Y175456229D01*
X7520137Y175481716D01*
X7462616Y175510189D01*
X7405807Y175538899D01*
X7355183Y175565096D01*
X7316216Y175586030D01*
X7303923Y175593011D01*
X7268965Y175613267D01*
X7235516Y175632308D01*
X7228079Y175636469D01*
X7180552Y175664806D01*
X7120613Y175703448D01*
X7052819Y175749230D01*
X6981730Y175798986D01*
X6911906Y175849547D01*
X6847905Y175897748D01*
X6816808Y175922130D01*
X6700565Y176020691D01*
X6581215Y176132463D01*
X6463292Y176252656D01*
X6351329Y176376478D01*
X6249860Y176499136D01*
X6171525Y176604192D01*
X6147399Y176636169D01*
X6126466Y176659628D01*
X6112794Y176670078D01*
X6111709Y176670247D01*
X6099381Y176667098D01*
X6083632Y176656249D01*
X6062430Y176635594D01*
X6033744Y176603030D01*
X5995545Y176556450D01*
X5965360Y176518557D01*
X5866498Y176401399D01*
X5752460Y176279723D01*
X5627850Y176157865D01*
X5497271Y176040159D01*
X5365329Y175930938D01*
X5245643Y175840929D01*
X5209539Y175815414D01*
X5178544Y175794128D01*
X5147600Y175773799D01*
X5111652Y175751159D01*
X5065643Y175722937D01*
X5025384Y175698497D01*
X4972661Y175666707D01*
X4930041Y175641565D01*
X4892117Y175620141D01*
X4853486Y175599504D01*
X4808740Y175576724D01*
X4752474Y175548871D01*
X4719785Y175532837D01*
X4663968Y175505449D01*
X4612844Y175480274D01*
X4570558Y175459358D01*
X4541256Y175444749D01*
X4532004Y175440057D01*
X4506857Y175428887D01*
X4489400Y175424226D01*
X4489376Y175424226D01*
X4472798Y175420040D01*
X4445281Y175409516D01*
X4433371Y175404323D01*
X4367432Y175376571D01*
X4287724Y175346842D01*
X4191679Y175314219D01*
X4091357Y175282312D01*
X4043350Y175267859D01*
X3993074Y175253753D01*
X3934944Y175238499D01*
X3863378Y175220604D01*
X3831318Y175212757D01*
X3783999Y175200958D01*
X3735567Y175188465D01*
X3706716Y175180756D01*
X3662012Y175170321D01*
X3612192Y175161241D01*
X3592949Y175158512D01*
X3546093Y175151257D01*
X3497125Y175141557D01*
X3479182Y175137313D01*
X3439827Y175129180D01*
X3390041Y175121435D01*
X3343745Y175116078D01*
X3290008Y175110086D01*
X3228721Y175101670D01*
X3175803Y175093106D01*
X3143021Y175087710D01*
X3106949Y175082794D01*
X3066487Y175078333D01*
X3020537Y175074303D01*
X2968001Y175070677D01*
X2907780Y175067431D01*
X2838774Y175064539D01*
X2759886Y175061977D01*
X2670016Y175059719D01*
X2568066Y175057741D01*
X2452937Y175056016D01*
X2323530Y175054521D01*
X2178747Y175053229D01*
X2017489Y175052116D01*
X1838658Y175051157D01*
X1641154Y175050326D01*
X1423879Y175049599D01*
X1252596Y175049119D01*
X1006169Y175048384D01*
X780524Y175047509D01*
X574778Y175046476D01*
X388043Y175045268D01*
X219434Y175043868D01*
X68065Y175042258D01*
X-66951Y175040421D01*
X-186499Y175038339D01*
X-291465Y175035996D01*
X-382735Y175033373D01*
X-461196Y175030454D01*
X-527732Y175027220D01*
X-583231Y175023655D01*
X-628578Y175019741D01*
X-664659Y175015461D01*
X-691528Y175010966D01*
X-729179Y175003833D01*
X-778585Y174995073D01*
X-830092Y174986389D01*
X-838552Y174985012D01*
X-899988Y174974191D01*
X-962585Y174961633D01*
X-1021579Y174948447D01*
X-1072206Y174935740D01*
X-1109701Y174924621D01*
X-1126079Y174918125D01*
X-1151596Y174908480D01*
X-1183902Y174900251D01*
X-1185011Y174900037D01*
X-1220023Y174890620D01*
X-1258746Y174876439D01*
X-1266273Y174873165D01*
X-1301865Y174857318D01*
X-1345061Y174838412D01*
X-1369465Y174827866D01*
X-1404772Y174811607D01*
X-1433619Y174796387D01*
X-1446163Y174788202D01*
X-1464038Y174776573D01*
X-1471799Y174774128D01*
X-1487690Y174767251D01*
X-1515757Y174748557D01*
X-1552275Y174720950D01*
X-1593517Y174687336D01*
X-1635758Y174650621D01*
X-1665831Y174622818D01*
X-1742959Y174534602D01*
X-1805944Y174431368D01*
X-1853672Y174315414D01*
X-1885029Y174189040D01*
X-1889354Y174161911D01*
X-1894739Y174119844D01*
X-1901096Y174062540D01*
X-1907767Y173996370D01*
X-1914091Y173927705D01*
X-1916499Y173899494D01*
X-1922066Y173834000D01*
X-1926992Y173785212D01*
X-1932426Y173748241D01*
X-1939516Y173718198D01*
X-1949411Y173690194D01*
X-1963260Y173659340D01*
X-1981792Y173621590D01*
X-2044680Y173517781D01*
X-2122150Y173429816D01*
X-2213462Y173358321D01*
X-2317876Y173303923D01*
X-2384216Y173280433D01*
X-2471620Y173262639D01*
X-2567335Y173257291D01*
X-2662685Y173264301D01*
X-2748997Y173283579D01*
X-2750923Y173284204D01*
X-2854564Y173324904D01*
X-2941470Y173374654D01*
X-3015645Y173436218D01*
X-3080718Y173511855D01*
X-3114875Y173561008D01*
X-3141178Y173607474D01*
X-3163659Y173659342D01*
X-3185458Y173721934D01*
X-3195494Y173755136D01*
X-3202571Y173785938D01*
X-3207184Y173819231D01*
X-3209827Y173859907D01*
X-3210995Y173912859D01*
X-3211191Y173976556D01*
X-3210379Y174042466D01*
X-3208288Y174106850D01*
X-3205198Y174163872D01*
X-3201387Y174207691D01*
X-3199511Y174221545D01*
X-3192133Y174267811D01*
X-3183374Y174324091D01*
X-3175010Y174378960D01*
X-3174242Y174384069D01*
X-3165134Y174435956D01*
X-3152451Y174496074D01*
X-3137274Y174560440D01*
X-3120684Y174625070D01*
X-3103761Y174685978D01*
X-3087586Y174739181D01*
X-3073238Y174780693D01*
X-3061798Y174806532D01*
X-3058350Y174811509D01*
X-3049565Y174831094D01*
X-3048885Y174837760D01*
X-3043733Y174857032D01*
X-3029517Y174891427D01*
X-3008095Y174937354D01*
X-2981325Y174991220D01*
X-2951067Y175049435D01*
X-2919178Y175108405D01*
X-2887518Y175164540D01*
X-2857945Y175214246D01*
X-2837516Y175246254D01*
X-2722178Y175400784D01*
X-2588351Y175547204D01*
X-2438330Y175683547D01*
X-2274408Y175807846D01*
X-2098877Y175918134D01*
X-1981641Y175980389D01*
X-1906690Y176016719D01*
X-1849568Y176042777D01*
X-1810613Y176058415D01*
X-1790442Y176063489D01*
X-1769006Y176070250D01*
X-1764097Y176074085D01*
X-1746768Y176084124D01*
X-1712132Y176098486D01*
X-1663824Y176115929D01*
X-1605477Y176135211D01*
X-1540729Y176155089D01*
X-1473213Y176174321D01*
X-1461562Y176177480D01*
X-1416468Y176189978D01*
X-1371061Y176203136D01*
X-1347795Y176210191D01*
X-1308944Y176220509D01*
X-1261539Y176230654D01*
X-1231910Y176235853D01*
X-1193051Y176242995D01*
X-1160821Y176250861D01*
X-1145230Y176256417D01*
X-1125199Y176262362D01*
X-1090661Y176268576D01*
X-1048725Y176273803D01*
X-1044416Y176274222D01*
X-992524Y176280360D01*
X-938184Y176288714D01*
X-898144Y176296433D01*
X-864829Y176302128D01*
X-815276Y176308367D01*
X-754885Y176314573D01*
X-689060Y176320168D01*
X-650188Y176322928D01*
X-588899Y176327337D01*
X-534877Y176331979D01*
X-491962Y176336467D01*
X-463991Y176340408D01*
X-455159Y176342752D01*
X-443139Y176343680D01*
X-410627Y176344660D01*
X-358802Y176345680D01*
X-288842Y176346732D01*
X-201925Y176347805D01*
X-99230Y176348889D01*
X18065Y176349974D01*
X148782Y176351050D01*
X291743Y176352108D01*
X445769Y176353136D01*
X609682Y176354126D01*
X782304Y176355067D01*
X962457Y176355949D01*
X1148961Y176356761D01*
X1230926Y176357088D01*
X1476899Y176358092D01*
X1701745Y176359125D01*
X1906008Y176360192D01*
X2090233Y176361300D01*
X2254963Y176362453D01*
X2400743Y176363659D01*
X2528115Y176364922D01*
X2637623Y176366250D01*
X2729812Y176367647D01*
X2805225Y176369120D01*
X2864406Y176370675D01*
X2907899Y176372318D01*
X2936247Y176374054D01*
X2949867Y176375854D01*
X2977929Y176381762D01*
X3021707Y176388915D01*
X3075350Y176396435D01*
X3133009Y176403446D01*
X3136591Y176403845D01*
X3190265Y176410190D01*
X3236358Y176416393D01*
X3270471Y176421809D01*
X3288205Y176425791D01*
X3289309Y176426299D01*
X3304627Y176431238D01*
X3335312Y176438212D01*
X3375326Y176445876D01*
X3384294Y176447438D01*
X3457567Y176461228D01*
X3528928Y176476919D01*
X3592621Y176493113D01*
X3642890Y176508410D01*
X3657959Y176513967D01*
X3695245Y176526982D01*
X3735517Y176538534D01*
X3739221Y176539440D01*
X3779819Y176550454D01*
X3824051Y176564486D01*
X3866113Y176579444D01*
X3900199Y176593239D01*
X3920508Y176603781D01*
X3922571Y176605476D01*
X3942493Y176615350D01*
X3948915Y176616072D01*
X3965593Y176619838D01*
X3995910Y176631544D01*
X4041232Y176651798D01*
X4102927Y176681211D01*
X4178037Y176718235D01*
X4269382Y176765516D01*
X4350221Y176811710D01*
X4426837Y176860870D01*
X4505517Y176917048D01*
X4592545Y176984299D01*
X4600600Y176990713D01*
X4742436Y177113946D01*
X4874773Y177248967D01*
X4994460Y177392061D01*
X5098344Y177539514D01*
X5169478Y177660981D01*
X5189539Y177698585D01*
X5206785Y177730538D01*
X5217696Y177750326D01*
X5218159Y177751133D01*
X5230738Y177776123D01*
X5239833Y177797083D01*
X5251947Y177824087D01*
X5260741Y177840423D01*
X5278415Y177874317D01*
X5300093Y177924158D01*
X5323991Y177985009D01*
X5348326Y178051934D01*
X5371313Y178119999D01*
X5391168Y178184267D01*
X5406108Y178239802D01*
X5407985Y178247821D01*
X5417839Y178287650D01*
X5427766Y178322368D01*
X5433859Y178339918D01*
X5440574Y178363347D01*
X5448086Y178400578D01*
X5454849Y178443870D01*
X5455287Y178447180D01*
X5468264Y178543693D01*
X5479806Y178621832D01*
X5490668Y178684782D01*
X5501605Y178735729D01*
X5513372Y178777858D01*
X5526724Y178814353D01*
X5542414Y178848401D01*
X5556679Y178875161D01*
X5571530Y178902414D01*
X5582156Y178922418D01*
X5600478Y178948816D01*
X5630667Y178983696D01*
X5667703Y179021961D01*
X5706565Y179058512D01*
X5742232Y179088254D01*
X5753669Y179096550D01*
X5786829Y179117222D01*
X5826535Y179139055D01*
X5867017Y179159224D01*
X5902502Y179174907D01*
X5927219Y179183278D01*
X5932311Y179183958D01*
X5949691Y179187144D01*
X5979262Y179195262D01*
X5997715Y179201042D01*
X6053401Y179211908D01*
X6122336Y179214295D01*
X6198159Y179208949D01*
G37*
X6198159Y179208949D02*
X6274512Y179196616D01*
X6345034Y179178042D01*
X6403366Y179153974D01*
X6404621Y179153304D01*
X6474224Y179112203D01*
X6535026Y179069128D01*
X6581319Y179028151D01*
X6584237Y179025073D01*
X6645170Y178953357D01*
X6693098Y178881208D01*
X6729759Y178804336D01*
X6756893Y178718453D01*
X6776235Y178619269D01*
X6787689Y178523025D01*
X6805475Y178390678D01*
X6833703Y178251930D01*
X6869965Y178117830D01*
X6888055Y178062539D01*
X6899264Y178028255D01*
X6910137Y177992113D01*
X6919960Y177961767D01*
X6934840Y177920374D01*
X6951962Y177875292D01*
X6968511Y177833882D01*
X6981673Y177803502D01*
X6984433Y177797849D01*
X6992563Y177781661D01*
X7007975Y177750694D01*
X7028358Y177709600D01*
X7048442Y177669015D01*
X7153138Y177481265D01*
X7275368Y177305300D01*
X7413859Y177142478D01*
X7567337Y176994157D01*
X7734529Y176861697D01*
X7912426Y176747450D01*
X8106996Y176645812D01*
X8302375Y176563515D01*
X8452430Y176513829D01*
X8502320Y176499177D01*
X8550565Y176484776D01*
X8589012Y176473069D01*
X8598702Y176470041D01*
X8641728Y176458406D01*
X8686956Y176448981D01*
X8696216Y176447500D01*
X8737782Y176439997D01*
X8783956Y176429666D01*
X8799148Y176425763D01*
X8835009Y176417857D01*
X8883846Y176409393D01*
X8937058Y176401809D01*
X8956255Y176399499D01*
X9007948Y176392946D01*
X9057566Y176385459D01*
X9096971Y176378306D01*
X9107945Y176375849D01*
X9123863Y176374016D01*
X9156614Y176372270D01*
X9206589Y176370607D01*
X9274180Y176369023D01*
X9359778Y176367512D01*
X9463775Y176366072D01*
X9586563Y176364698D01*
X9728533Y176363386D01*
X9890077Y176362131D01*
X10071586Y176360929D01*
X10273452Y176359777D01*
X10496068Y176358669D01*
X10739824Y176357601D01*
X10830704Y176357234D01*
X11019558Y176356443D01*
X11202552Y176355590D01*
X11378510Y176354684D01*
X11546255Y176353735D01*
X11704609Y176352752D01*
X11852395Y176351745D01*
X11988437Y176350723D01*
X12111557Y176349697D01*
X12220579Y176348674D01*
X12314324Y176347666D01*
X12391616Y176346681D01*
X12451278Y176345729D01*
X12492132Y176344819D01*
X12513003Y176343961D01*
X12515541Y176343610D01*
X12529353Y176340727D01*
X12561189Y176336957D01*
X12607438Y176332636D01*
X12664488Y176328103D01*
X12726823Y176323818D01*
X12796891Y176318794D01*
X12865356Y176312892D01*
X12926926Y176306638D01*
X12976307Y176300562D01*
X13003115Y176296254D01*
X13056729Y176286991D01*
X13116078Y176278481D01*
X13154804Y176273982D01*
X13197291Y176268741D01*
X13234492Y176262337D01*
X13257413Y176256446D01*
X13281505Y176249223D01*
X13318754Y176240002D01*
X13360345Y176230938D01*
X13416187Y176218469D01*
X13480317Y176202301D01*
X13549216Y176183523D01*
X13619362Y176163218D01*
X13687234Y176142474D01*
X13749311Y176122374D01*
X13802072Y176104006D01*
X13841996Y176088454D01*
X13865562Y176076805D01*
X13869067Y176074085D01*
X13888990Y176064211D01*
X13895412Y176063489D01*
X13912846Y176059115D01*
X13942970Y176047897D01*
X13979094Y176032691D01*
X14014531Y176016352D01*
X14042593Y176001737D01*
X14048689Y175998042D01*
X14071320Y175985940D01*
X14092029Y175976790D01*
X14119043Y175964600D01*
X14135369Y175955679D01*
X14154516Y175944773D01*
X14184132Y175929120D01*
X14198657Y175921723D01*
X14263084Y175885494D01*
X14337957Y175837094D01*
X14418694Y175779964D01*
X14500713Y175717545D01*
X14579430Y175653279D01*
X14650265Y175590606D01*
X14687952Y175554319D01*
X14756423Y175481407D01*
X14826498Y175399180D01*
X14894119Y175312912D01*
X14955225Y175227879D01*
X15005758Y175149355D01*
X15023732Y175117980D01*
X15050928Y175066750D01*
X15078301Y175012718D01*
X15103992Y174959844D01*
X15126144Y174912088D01*
X15142898Y174873408D01*
X15152397Y174847766D01*
X15153855Y174840687D01*
X15158436Y174824267D01*
X15169461Y174799603D01*
X15169573Y174799385D01*
X15185104Y174762334D01*
X15202961Y174708858D01*
X15221839Y174643899D01*
X15240435Y174572396D01*
X15257444Y174499289D01*
X15271562Y174429517D01*
X15279213Y174384069D01*
X15287436Y174329994D01*
X15296236Y174273332D01*
X15303838Y174225508D01*
X15304482Y174221545D01*
X15308486Y174185832D01*
X15311910Y174134184D01*
X15314484Y174072334D01*
X15315939Y174006016D01*
X15316162Y173973104D01*
X15315853Y173902378D01*
X15314450Y173848672D01*
X15311534Y173807351D01*
X15306684Y173773774D01*
X15299483Y173743306D01*
X15293639Y173723900D01*
X15249049Y173612293D01*
X15191205Y173516775D01*
X15118679Y173435275D01*
X15061758Y173387924D01*
X15012605Y173353767D01*
X14966139Y173327465D01*
X14914271Y173304983D01*
X14851679Y173283184D01*
X14793263Y173268829D01*
X14726738Y173259766D01*
X14658414Y173256177D01*
X14594600Y173258246D01*
X14541606Y173266158D01*
X14518339Y173273485D01*
X14488029Y173284190D01*
X14463579Y173289583D01*
X14460620Y173289738D01*
X14437968Y173295562D01*
X14403026Y173311094D01*
X14361125Y173333427D01*
X14317592Y173359651D01*
X14277757Y173386857D01*
X14265388Y173396300D01*
X14211988Y173444714D01*
X14159860Y173502527D01*
X14117036Y173560667D01*
X14110347Y173571447D01*
X14080098Y173626756D01*
X14058219Y173679686D01*
X14042932Y173736541D01*
X14032461Y173803623D01*
X14026316Y173869408D01*
X14019125Y173953684D01*
X14010643Y174035495D01*
X14001341Y174111480D01*
X13991694Y174178283D01*
X13982173Y174232543D01*
X13973252Y174270903D01*
X13967587Y174286555D01*
X13955241Y174317210D01*
X13946004Y174349752D01*
X13927676Y174402295D01*
X13894895Y174463117D01*
X13850666Y174527656D01*
X13797989Y174591348D01*
X13762972Y174627856D01*
X13705540Y174682519D01*
X13658273Y174723889D01*
X13622382Y174750985D01*
X13599079Y174762829D01*
X13595520Y174763293D01*
X13580508Y174769234D01*
X13559868Y174782605D01*
X13535481Y174797663D01*
X13500206Y174815871D01*
X13474436Y174827686D01*
X13432731Y174845705D01*
X13391282Y174863589D01*
X13371504Y174872110D01*
X13306884Y174896594D01*
X13227101Y174921638D01*
X13138541Y174945538D01*
X13047591Y174966587D01*
X12960638Y174983079D01*
X12948940Y174984960D01*
X12897202Y174993331D01*
X12846193Y175002027D01*
X12804999Y175009487D01*
X12796499Y175011134D01*
X12768541Y175015735D01*
X12732437Y175019958D01*
X12687295Y175023820D01*
X12632225Y175027337D01*
X12566336Y175030527D01*
X12488738Y175033407D01*
X12398540Y175035995D01*
X12294852Y175038307D01*
X12176784Y175040360D01*
X12043444Y175042171D01*
X11893943Y175043759D01*
X11727391Y175045139D01*
X11542895Y175046329D01*
X11339567Y175047346D01*
X11116516Y175048207D01*
X10872850Y175048930D01*
X10825287Y175049050D01*
X10591327Y175049690D01*
X10377969Y175050418D01*
X10184148Y175051256D01*
X10008796Y175052227D01*
X9850846Y175053354D01*
X9709230Y175054657D01*
X9582883Y175056161D01*
X9470738Y175057886D01*
X9371726Y175059856D01*
X9284782Y175062093D01*
X9208838Y175064618D01*
X9142828Y175067455D01*
X9085684Y175070625D01*
X9036340Y175074152D01*
X8993728Y175078056D01*
X8956782Y175082361D01*
X8924435Y175087089D01*
X8912916Y175089038D01*
X8876475Y175094864D01*
X8826261Y175102127D01*
X8770022Y175109730D01*
X8734139Y175114307D01*
X8682824Y175121333D01*
X8637145Y175128781D01*
X8602851Y175135645D01*
X8587867Y175139883D01*
X8562818Y175146806D01*
X8525138Y175153881D01*
X8490352Y175158670D01*
X8450832Y175164292D01*
X8418190Y175170951D01*
X8401372Y175176426D01*
X8381653Y175183567D01*
X8348055Y175192786D01*
X8309275Y175201772D01*
X8237719Y175218584D01*
X8157056Y175240195D01*
X8074917Y175264361D01*
X7998934Y175288840D01*
X7937769Y175310982D01*
X7901287Y175323727D01*
X7860628Y175335775D01*
X7854255Y175337434D01*
X7824757Y175346801D01*
X7805214Y175356520D01*
X7802150Y175359511D01*
X7786800Y175368878D01*
X7778026Y175370051D01*
X7758017Y175374423D01*
X7727909Y175385464D01*
X7713655Y175391721D01*
X7673749Y175410051D01*
X7629603Y175430098D01*
X7615429Y175436479D01*
X7572899Y175456229D01*
X7520137Y175481716D01*
X7462616Y175510189D01*
X7405807Y175538899D01*
X7355183Y175565096D01*
X7316216Y175586030D01*
X7303923Y175593011D01*
X7268965Y175613267D01*
X7235516Y175632308D01*
X7228079Y175636469D01*
X7180552Y175664806D01*
X7120613Y175703448D01*
X7052819Y175749230D01*
X6981730Y175798986D01*
X6911906Y175849547D01*
X6847905Y175897748D01*
X6816808Y175922130D01*
X6700565Y176020691D01*
X6581215Y176132463D01*
X6463292Y176252656D01*
X6351329Y176376478D01*
X6249860Y176499136D01*
X6171525Y176604192D01*
X6147399Y176636169D01*
X6126466Y176659628D01*
X6112794Y176670078D01*
X6111709Y176670247D01*
X6099381Y176667098D01*
X6083632Y176656249D01*
X6062430Y176635594D01*
X6033744Y176603030D01*
X5995545Y176556450D01*
X5965360Y176518557D01*
X5866498Y176401399D01*
X5752460Y176279723D01*
X5627850Y176157865D01*
X5497271Y176040159D01*
X5365329Y175930938D01*
X5245643Y175840929D01*
X5209539Y175815414D01*
X5178544Y175794128D01*
X5147600Y175773799D01*
X5111652Y175751159D01*
X5065643Y175722937D01*
X5025384Y175698497D01*
X4972661Y175666707D01*
X4930041Y175641565D01*
X4892117Y175620141D01*
X4853486Y175599504D01*
X4808740Y175576724D01*
X4752474Y175548871D01*
X4719785Y175532837D01*
X4663968Y175505449D01*
X4612844Y175480274D01*
X4570558Y175459358D01*
X4541256Y175444749D01*
X4532004Y175440057D01*
X4506857Y175428887D01*
X4489400Y175424226D01*
X4489376Y175424226D01*
X4472798Y175420040D01*
X4445281Y175409516D01*
X4433371Y175404323D01*
X4367432Y175376571D01*
X4287724Y175346842D01*
X4191679Y175314219D01*
X4091357Y175282312D01*
X4043350Y175267859D01*
X3993074Y175253753D01*
X3934944Y175238499D01*
X3863378Y175220604D01*
X3831318Y175212757D01*
X3783999Y175200958D01*
X3735567Y175188465D01*
X3706716Y175180756D01*
X3662012Y175170321D01*
X3612192Y175161241D01*
X3592949Y175158512D01*
X3546093Y175151257D01*
X3497125Y175141557D01*
X3479182Y175137313D01*
X3439827Y175129180D01*
X3390041Y175121435D01*
X3343745Y175116078D01*
X3290008Y175110086D01*
X3228721Y175101670D01*
X3175803Y175093106D01*
X3143021Y175087710D01*
X3106949Y175082794D01*
X3066487Y175078333D01*
X3020537Y175074303D01*
X2968001Y175070677D01*
X2907780Y175067431D01*
X2838774Y175064539D01*
X2759886Y175061977D01*
X2670016Y175059719D01*
X2568066Y175057741D01*
X2452937Y175056016D01*
X2323530Y175054521D01*
X2178747Y175053229D01*
X2017489Y175052116D01*
X1838658Y175051157D01*
X1641154Y175050326D01*
X1423879Y175049599D01*
X1252596Y175049119D01*
X1006169Y175048384D01*
X780524Y175047509D01*
X574778Y175046476D01*
X388043Y175045268D01*
X219434Y175043868D01*
X68065Y175042258D01*
X-66951Y175040421D01*
X-186499Y175038339D01*
X-291465Y175035996D01*
X-382735Y175033373D01*
X-461196Y175030454D01*
X-527732Y175027220D01*
X-583231Y175023655D01*
X-628578Y175019741D01*
X-664659Y175015461D01*
X-691528Y175010966D01*
X-729179Y175003833D01*
X-778585Y174995073D01*
X-830092Y174986389D01*
X-838552Y174985012D01*
X-899988Y174974191D01*
X-962585Y174961633D01*
X-1021579Y174948447D01*
X-1072206Y174935740D01*
X-1109701Y174924621D01*
X-1126079Y174918125D01*
X-1151596Y174908480D01*
X-1183902Y174900251D01*
X-1185011Y174900037D01*
X-1220023Y174890620D01*
X-1258746Y174876439D01*
X-1266273Y174873165D01*
X-1301865Y174857318D01*
X-1345061Y174838412D01*
X-1369465Y174827866D01*
X-1404772Y174811607D01*
X-1433619Y174796387D01*
X-1446163Y174788202D01*
X-1464038Y174776573D01*
X-1471799Y174774128D01*
X-1487690Y174767251D01*
X-1515757Y174748557D01*
X-1552275Y174720950D01*
X-1593517Y174687336D01*
X-1635758Y174650621D01*
X-1665831Y174622818D01*
X-1742959Y174534602D01*
X-1805944Y174431368D01*
X-1853672Y174315414D01*
X-1885029Y174189040D01*
X-1889354Y174161911D01*
X-1894739Y174119844D01*
X-1901096Y174062540D01*
X-1907767Y173996370D01*
X-1914091Y173927705D01*
X-1916499Y173899494D01*
X-1922066Y173834000D01*
X-1926992Y173785212D01*
X-1932426Y173748241D01*
X-1939516Y173718198D01*
X-1949411Y173690194D01*
X-1963260Y173659340D01*
X-1981792Y173621590D01*
X-2044680Y173517781D01*
X-2122150Y173429816D01*
X-2213462Y173358321D01*
X-2317876Y173303923D01*
X-2384216Y173280433D01*
X-2471620Y173262639D01*
X-2567335Y173257291D01*
X-2662685Y173264301D01*
X-2748997Y173283579D01*
X-2750923Y173284204D01*
X-2854564Y173324904D01*
X-2941470Y173374654D01*
X-3015645Y173436218D01*
X-3080718Y173511855D01*
X-3114875Y173561008D01*
X-3141178Y173607474D01*
X-3163659Y173659342D01*
X-3185458Y173721934D01*
X-3195494Y173755136D01*
X-3202571Y173785938D01*
X-3207184Y173819231D01*
X-3209827Y173859907D01*
X-3210995Y173912859D01*
X-3211191Y173976556D01*
X-3210379Y174042466D01*
X-3208288Y174106850D01*
X-3205198Y174163872D01*
X-3201387Y174207691D01*
X-3199511Y174221545D01*
X-3192133Y174267811D01*
X-3183374Y174324091D01*
X-3175010Y174378960D01*
X-3174242Y174384069D01*
X-3165134Y174435956D01*
X-3152451Y174496074D01*
X-3137274Y174560440D01*
X-3120684Y174625070D01*
X-3103761Y174685978D01*
X-3087586Y174739181D01*
X-3073238Y174780693D01*
X-3061798Y174806532D01*
X-3058350Y174811509D01*
X-3049565Y174831094D01*
X-3048885Y174837760D01*
X-3043733Y174857032D01*
X-3029517Y174891427D01*
X-3008095Y174937354D01*
X-2981325Y174991220D01*
X-2951067Y175049435D01*
X-2919178Y175108405D01*
X-2887518Y175164540D01*
X-2857945Y175214246D01*
X-2837516Y175246254D01*
X-2722178Y175400784D01*
X-2588351Y175547204D01*
X-2438330Y175683547D01*
X-2274408Y175807846D01*
X-2098877Y175918134D01*
X-1981641Y175980389D01*
X-1906690Y176016719D01*
X-1849568Y176042777D01*
X-1810613Y176058415D01*
X-1790442Y176063489D01*
X-1769006Y176070250D01*
X-1764097Y176074085D01*
X-1746768Y176084124D01*
X-1712132Y176098486D01*
X-1663824Y176115929D01*
X-1605477Y176135211D01*
X-1540729Y176155089D01*
X-1473213Y176174321D01*
X-1461562Y176177480D01*
X-1416468Y176189978D01*
X-1371061Y176203136D01*
X-1347795Y176210191D01*
X-1308944Y176220509D01*
X-1261539Y176230654D01*
X-1231910Y176235853D01*
X-1193051Y176242995D01*
X-1160821Y176250861D01*
X-1145230Y176256417D01*
X-1125199Y176262362D01*
X-1090661Y176268576D01*
X-1048725Y176273803D01*
X-1044416Y176274222D01*
X-992524Y176280360D01*
X-938184Y176288714D01*
X-898144Y176296433D01*
X-864829Y176302128D01*
X-815276Y176308367D01*
X-754885Y176314573D01*
X-689060Y176320168D01*
X-650188Y176322928D01*
X-588899Y176327337D01*
X-534877Y176331979D01*
X-491962Y176336467D01*
X-463991Y176340408D01*
X-455159Y176342752D01*
X-443139Y176343680D01*
X-410627Y176344660D01*
X-358802Y176345680D01*
X-288842Y176346732D01*
X-201925Y176347805D01*
X-99230Y176348889D01*
X18065Y176349974D01*
X148782Y176351050D01*
X291743Y176352108D01*
X445769Y176353136D01*
X609682Y176354126D01*
X782304Y176355067D01*
X962457Y176355949D01*
X1148961Y176356761D01*
X1230926Y176357088D01*
X1476899Y176358092D01*
X1701745Y176359125D01*
X1906008Y176360192D01*
X2090233Y176361300D01*
X2254963Y176362453D01*
X2400743Y176363659D01*
X2528115Y176364922D01*
X2637623Y176366250D01*
X2729812Y176367647D01*
X2805225Y176369120D01*
X2864406Y176370675D01*
X2907899Y176372318D01*
X2936247Y176374054D01*
X2949867Y176375854D01*
X2977929Y176381762D01*
X3021707Y176388915D01*
X3075350Y176396435D01*
X3133009Y176403446D01*
X3136591Y176403845D01*
X3190265Y176410190D01*
X3236358Y176416393D01*
X3270471Y176421809D01*
X3288205Y176425791D01*
X3289309Y176426299D01*
X3304627Y176431238D01*
X3335312Y176438212D01*
X3375326Y176445876D01*
X3384294Y176447438D01*
X3457567Y176461228D01*
X3528928Y176476919D01*
X3592621Y176493113D01*
X3642890Y176508410D01*
X3657959Y176513967D01*
X3695245Y176526982D01*
X3735517Y176538534D01*
X3739221Y176539440D01*
X3779819Y176550454D01*
X3824051Y176564486D01*
X3866113Y176579444D01*
X3900199Y176593239D01*
X3920508Y176603781D01*
X3922571Y176605476D01*
X3942493Y176615350D01*
X3948915Y176616072D01*
X3965593Y176619838D01*
X3995910Y176631544D01*
X4041232Y176651798D01*
X4102927Y176681211D01*
X4178037Y176718235D01*
X4269382Y176765516D01*
X4350221Y176811710D01*
X4426837Y176860870D01*
X4505517Y176917048D01*
X4592545Y176984299D01*
X4600600Y176990713D01*
X4742436Y177113946D01*
X4874773Y177248967D01*
X4994460Y177392061D01*
X5098344Y177539514D01*
X5169478Y177660981D01*
X5189539Y177698585D01*
X5206785Y177730538D01*
X5217696Y177750326D01*
X5218159Y177751133D01*
X5230738Y177776123D01*
X5239833Y177797083D01*
X5251947Y177824087D01*
X5260741Y177840423D01*
X5278415Y177874317D01*
X5300093Y177924158D01*
X5323991Y177985009D01*
X5348326Y178051934D01*
X5371313Y178119999D01*
X5391168Y178184267D01*
X5406108Y178239802D01*
X5407985Y178247821D01*
X5417839Y178287650D01*
X5427766Y178322368D01*
X5433859Y178339918D01*
X5440574Y178363347D01*
X5448086Y178400578D01*
X5454849Y178443870D01*
X5455287Y178447180D01*
X5468264Y178543693D01*
X5479806Y178621832D01*
X5490668Y178684782D01*
X5501605Y178735729D01*
X5513372Y178777858D01*
X5526724Y178814353D01*
X5542414Y178848401D01*
X5556679Y178875161D01*
X5571530Y178902414D01*
X5582156Y178922418D01*
X5600478Y178948816D01*
X5630667Y178983696D01*
X5667703Y179021961D01*
X5706565Y179058512D01*
X5742232Y179088254D01*
X5753669Y179096550D01*
X5786829Y179117222D01*
X5826535Y179139055D01*
X5867017Y179159224D01*
X5902502Y179174907D01*
X5927219Y179183278D01*
X5932311Y179183958D01*
X5949691Y179187144D01*
X5979262Y179195262D01*
X5997715Y179201042D01*
X6053401Y179211908D01*
X6122336Y179214295D01*
X6198159Y179208949D01*
D13*
X100541041Y135950000D02*
X100541041Y133950000D01*
X160901041Y133950000D02*
X160901041Y135950000D01*
D11*
X163001041Y131250000D02*
X93001041Y131250000D01*
X163001041Y182000000D02*
X93001041Y182000000D01*
X163001041Y131250000D02*
X163001041Y182000000D01*
X93001041Y182000000D02*
X93001041Y131250000D01*
D13*
X100541041Y179550000D02*
X100541041Y177550000D01*
X158901041Y133950000D02*
X160901041Y133950000D01*
X100541041Y133950000D02*
X102541041Y133950000D01*
X102541041Y179550000D02*
X100541041Y179550000D01*
X160901041Y177550000D02*
X160901041Y179550000D01*
X160901041Y179550000D02*
X158901041Y179550000D01*
X251749689Y150684431D02*
X250936517Y151497604D01*
X254825604Y147608517D02*
X259987483Y152770396D01*
X250936517Y151497604D02*
X256098396Y156659483D01*
X239749689Y150684431D02*
X238936517Y151497604D01*
X242825604Y147608517D02*
X247987483Y152770396D01*
X238936517Y151497604D02*
X244098396Y156659483D01*
X241350000Y106863782D02*
X234050000Y106863782D01*
X241350000Y112363782D02*
X234050000Y112363782D01*
X241350000Y108013782D02*
X241350000Y106863782D01*
X222886779Y167332687D02*
X222517313Y166963221D01*
X221882687Y168336779D02*
X221513221Y167967313D01*
X205174311Y177583569D02*
X205987483Y176770396D01*
X202098396Y180659483D02*
X196936517Y175497604D01*
X205987483Y176770396D02*
X200825604Y171608517D01*
X88839789Y178835000D02*
X89362293Y178835000D01*
X88839789Y177415000D02*
X89362293Y177415000D01*
X89361252Y174585000D02*
X88838748Y174585000D01*
X89361252Y173165000D02*
X88838748Y173165000D01*
X89361252Y172585000D02*
X88838748Y172585000D01*
X89361252Y171165000D02*
X88838748Y171165000D01*
X89361252Y170585000D02*
X88838748Y170585000D01*
X89361252Y169165000D02*
X88838748Y169165000D01*
X89387293Y168585000D02*
X88864789Y168585000D01*
X89387293Y167165000D02*
X88864789Y167165000D01*
X89361252Y166585000D02*
X88838748Y166585000D01*
X89361252Y165165000D02*
X88838748Y165165000D01*
X-6330000Y131110000D02*
X-8780000Y131110000D01*
X-8130000Y127890000D02*
X-6330000Y127890000D01*
X-3520000Y129761252D02*
X-3520000Y129238748D01*
X-4940000Y129761252D02*
X-4940000Y129238748D01*
X-10940000Y129238748D02*
X-10940000Y129761252D01*
X-9520000Y129238748D02*
X-9520000Y129761252D01*
X89361252Y175165000D02*
X88838748Y175165000D01*
X89361252Y176585000D02*
X88838748Y176585000D01*
X86011041Y174295000D02*
X86011041Y175225000D01*
X86011041Y177455000D02*
X86011041Y176525000D01*
X86011041Y177455000D02*
X83851041Y177455000D01*
X86011041Y174295000D02*
X84551041Y174295000D01*
X-6993748Y125790000D02*
X-7516252Y125790000D01*
X-6993748Y127210000D02*
X-7516252Y127210000D01*
X-7832064Y133410000D02*
X-6627936Y133410000D01*
X-7832064Y131590000D02*
X-6627936Y131590000D01*
X-14038748Y113690000D02*
X-14561252Y113690000D01*
X-14038748Y115110000D02*
X-14561252Y115110000D01*
X-1520000Y129761252D02*
X-1520000Y129238748D01*
X-2940000Y129761252D02*
X-2940000Y129238748D01*
X6446800Y124343148D02*
X6446800Y124865652D01*
X7866800Y124343148D02*
X7866800Y124865652D01*
X4910000Y124865652D02*
X4910000Y124343148D01*
X3490000Y124865652D02*
X3490000Y124343148D01*
X252886779Y179332687D02*
X252517313Y178963221D01*
X251882687Y180336779D02*
X251513221Y179967313D01*
X240886779Y179332687D02*
X240517313Y178963221D01*
X239882687Y180336779D02*
X239513221Y179967313D01*
X222886779Y179332687D02*
X222517313Y178963221D01*
X221882687Y180336779D02*
X221513221Y179967313D01*
X210886779Y179332687D02*
X210517313Y178963221D01*
X209882687Y180336779D02*
X209513221Y179967313D01*
X198886779Y179332687D02*
X198517313Y178963221D01*
X197882687Y180336779D02*
X197513221Y179967313D01*
X186886779Y179332687D02*
X186517313Y178963221D01*
X185882687Y180336779D02*
X185513221Y179967313D01*
X174886779Y179332687D02*
X174517313Y178963221D01*
X173882687Y180336779D02*
X173513221Y179967313D01*
X259987483Y176770396D02*
X254825604Y171608517D01*
X256098396Y180659483D02*
X250936517Y175497604D01*
X259174311Y177583569D02*
X259987483Y176770396D01*
X247174311Y177583569D02*
X247987483Y176770396D01*
X244098396Y180659483D02*
X238936517Y175497604D01*
X247987483Y176770396D02*
X242825604Y171608517D01*
X229174311Y177583569D02*
X229987483Y176770396D01*
X226098396Y180659483D02*
X220936517Y175497604D01*
X229987483Y176770396D02*
X224825604Y171608517D01*
X217174311Y177583569D02*
X217987483Y176770396D01*
X214098396Y180659483D02*
X208936517Y175497604D01*
X217987483Y176770396D02*
X212825604Y171608517D01*
X193174311Y177583569D02*
X193987483Y176770396D01*
X190098396Y180659483D02*
X184936517Y175497604D01*
X193987483Y176770396D02*
X188825604Y171608517D01*
X181174311Y177583569D02*
X181987483Y176770396D01*
X178098396Y180659483D02*
X172936517Y175497604D01*
X181987483Y176770396D02*
X176825604Y171608517D01*
X173749689Y150684431D02*
X172936517Y151497604D01*
X176825604Y147608517D02*
X181987483Y152770396D01*
X172936517Y151497604D02*
X178098396Y156659483D01*
X259350000Y106863782D02*
X252050000Y106863782D01*
X259350000Y112363782D02*
X252050000Y112363782D01*
X259350000Y108013782D02*
X259350000Y106863782D01*
X223350000Y106863782D02*
X216050000Y106863782D01*
X223350000Y112363782D02*
X216050000Y112363782D01*
X223350000Y108013782D02*
X223350000Y106863782D01*
X205350000Y106863782D02*
X198050000Y106863782D01*
X205350000Y112363782D02*
X198050000Y112363782D01*
X205350000Y108013782D02*
X205350000Y106863782D01*
X187350000Y106863782D02*
X180050000Y106863782D01*
X187350000Y112363782D02*
X180050000Y112363782D01*
X187350000Y108013782D02*
X187350000Y106863782D01*
X169350000Y106863782D02*
X162050000Y106863782D01*
X169350000Y112363782D02*
X162050000Y112363782D01*
X169350000Y108013782D02*
X169350000Y106863782D01*
X151350000Y106863782D02*
X144050000Y106863782D01*
X151350000Y112363782D02*
X144050000Y112363782D01*
X151350000Y108013782D02*
X151350000Y106863782D01*
X133350000Y106863782D02*
X126050000Y106863782D01*
X133350000Y112363782D02*
X126050000Y112363782D01*
X133350000Y108013782D02*
X133350000Y106863782D01*
X115350000Y106863782D02*
X108050000Y106863782D01*
X115350000Y112363782D02*
X108050000Y112363782D01*
X115350000Y108013782D02*
X115350000Y106863782D01*
X97350000Y106863782D02*
X90050000Y106863782D01*
X97350000Y112363782D02*
X90050000Y112363782D01*
X97350000Y108013782D02*
X97350000Y106863782D01*
X79350000Y106863782D02*
X72050000Y106863782D01*
X79350000Y112363782D02*
X72050000Y112363782D01*
X79350000Y108013782D02*
X79350000Y106863782D01*
X61350000Y106863782D02*
X54050000Y106863782D01*
X61350000Y112363782D02*
X54050000Y112363782D01*
X61350000Y108013782D02*
X61350000Y106863782D01*
X43350000Y106863782D02*
X36050000Y106863782D01*
X43350000Y112363782D02*
X36050000Y112363782D01*
X43350000Y108013782D02*
X43350000Y106863782D01*
X25350000Y106863782D02*
X18050000Y106863782D01*
X25350000Y112363782D02*
X18050000Y112363782D01*
X25350000Y108013782D02*
X25350000Y106863782D01*
X7350000Y106863782D02*
X50000Y106863782D01*
X7350000Y112363782D02*
X50000Y112363782D01*
X7350000Y108013782D02*
X7350000Y106863782D01*
X-10650000Y106863782D02*
X-17950000Y106863782D01*
X-10650000Y112363782D02*
X-17950000Y112363782D01*
X-10650000Y108013782D02*
X-10650000Y106863782D01*
X-2840000Y125650000D02*
X-2840000Y123200000D01*
X380000Y123850000D02*
X380000Y125650000D01*
X252886779Y167332687D02*
X252517313Y166963221D01*
X251882687Y168336779D02*
X251513221Y167967313D01*
X247617313Y168486779D02*
X247986779Y168117313D01*
X246613221Y167482687D02*
X246982687Y167113221D01*
X210886779Y167332687D02*
X210517313Y166963221D01*
X209882687Y168336779D02*
X209513221Y167967313D01*
X198886779Y167332687D02*
X198517313Y166963221D01*
X197882687Y168336779D02*
X197513221Y167967313D01*
X186886779Y167332687D02*
X186517313Y166963221D01*
X185882687Y168336779D02*
X185513221Y167967313D01*
X174886779Y167332687D02*
X174517313Y166963221D01*
X173882687Y168336779D02*
X173513221Y167967313D01*
X252886779Y155332687D02*
X252517313Y154963221D01*
X251882687Y156336779D02*
X251513221Y155967313D01*
X240886779Y155332687D02*
X240517313Y154963221D01*
X239882687Y156336779D02*
X239513221Y155967313D01*
X222886779Y155332687D02*
X222517313Y154963221D01*
X221882687Y156336779D02*
X221513221Y155967313D01*
X210886779Y155332687D02*
X210517313Y154963221D01*
X209882687Y156336779D02*
X209513221Y155967313D01*
X198886779Y155332687D02*
X198517313Y154963221D01*
X197882687Y156336779D02*
X197513221Y155967313D01*
X186886779Y155332687D02*
X186517313Y154963221D01*
X185882687Y156336779D02*
X185513221Y155967313D01*
X174886779Y155332687D02*
X174517313Y154963221D01*
X173882687Y156336779D02*
X173513221Y155967313D01*
X252886779Y143332687D02*
X252517313Y142963221D01*
X251882687Y144336779D02*
X251513221Y143967313D01*
X240886779Y143332687D02*
X240517313Y142963221D01*
X239882687Y144336779D02*
X239513221Y143967313D01*
X222886779Y143332687D02*
X222517313Y142963221D01*
X221882687Y144336779D02*
X221513221Y143967313D01*
X210886779Y143332687D02*
X210517313Y142963221D01*
X209882687Y144336779D02*
X209513221Y143967313D01*
X198886779Y143332687D02*
X198517313Y142963221D01*
X197882687Y144336779D02*
X197513221Y143967313D01*
X186886779Y143332687D02*
X186517313Y142963221D01*
X185882687Y144336779D02*
X185513221Y143967313D01*
X174886779Y143332687D02*
X174517313Y142963221D01*
X173882687Y144336779D02*
X173513221Y143967313D01*
X228961252Y128690000D02*
X228438748Y128690000D01*
X228961252Y130110000D02*
X228438748Y130110000D01*
X210961252Y128690000D02*
X210438748Y128690000D01*
X210961252Y130110000D02*
X210438748Y130110000D01*
X192961252Y128690000D02*
X192438748Y128690000D01*
X192961252Y130110000D02*
X192438748Y130110000D01*
X156961252Y128690000D02*
X156438748Y128690000D01*
X156961252Y130110000D02*
X156438748Y130110000D01*
X138961252Y128690000D02*
X138438748Y128690000D01*
X138961252Y130110000D02*
X138438748Y130110000D01*
X102961252Y128690000D02*
X102438748Y128690000D01*
X102961252Y130110000D02*
X102438748Y130110000D01*
X84961252Y128690000D02*
X84438748Y128690000D01*
X84961252Y130110000D02*
X84438748Y130110000D01*
X66961252Y128690000D02*
X66438748Y128690000D01*
X66961252Y130110000D02*
X66438748Y130110000D01*
X30961252Y128690000D02*
X30438748Y128690000D01*
X30961252Y130110000D02*
X30438748Y130110000D01*
X12961252Y128690000D02*
X12438748Y128690000D01*
X12961252Y130110000D02*
X12438748Y130110000D01*
X255961252Y113690000D02*
X255438748Y113690000D01*
X255961252Y115110000D02*
X255438748Y115110000D01*
X237961252Y113690000D02*
X237438748Y113690000D01*
X237961252Y115110000D02*
X237438748Y115110000D01*
X219961252Y113690000D02*
X219438748Y113690000D01*
X219961252Y115110000D02*
X219438748Y115110000D01*
X201961252Y113690000D02*
X201438748Y113690000D01*
X201961252Y115110000D02*
X201438748Y115110000D01*
X183961252Y113690000D02*
X183438748Y113690000D01*
X183961252Y115110000D02*
X183438748Y115110000D01*
X165961252Y113690000D02*
X165438748Y113690000D01*
X165961252Y115110000D02*
X165438748Y115110000D01*
X147961252Y113690000D02*
X147438748Y113690000D01*
X147961252Y115110000D02*
X147438748Y115110000D01*
X129961252Y113690000D02*
X129438748Y113690000D01*
X129961252Y115110000D02*
X129438748Y115110000D01*
X111961252Y113690000D02*
X111438748Y113690000D01*
X111961252Y115110000D02*
X111438748Y115110000D01*
X93961252Y113690000D02*
X93438748Y113690000D01*
X93961252Y115110000D02*
X93438748Y115110000D01*
X75961252Y113690000D02*
X75438748Y113690000D01*
X75961252Y115110000D02*
X75438748Y115110000D01*
X57961252Y113690000D02*
X57438748Y113690000D01*
X57961252Y115110000D02*
X57438748Y115110000D01*
X39961252Y113690000D02*
X39438748Y113690000D01*
X39961252Y115110000D02*
X39438748Y115110000D01*
X21961252Y113690000D02*
X21438748Y113690000D01*
X21961252Y115110000D02*
X21438748Y115110000D01*
X3961252Y113690000D02*
X3438748Y113690000D01*
X3961252Y115110000D02*
X3438748Y115110000D01*
X89861252Y147665000D02*
X89338748Y147665000D01*
X89861252Y149085000D02*
X89338748Y149085000D01*
X259174311Y165583569D02*
X259987483Y164770396D01*
X256098396Y168659483D02*
X250936517Y163497604D01*
X259987483Y164770396D02*
X254825604Y159608517D01*
X247174311Y165583569D02*
X247987483Y164770396D01*
X244098396Y168659483D02*
X238936517Y163497604D01*
X247987483Y164770396D02*
X242825604Y159608517D01*
X229174311Y165583569D02*
X229987483Y164770396D01*
X226098396Y168659483D02*
X220936517Y163497604D01*
X229987483Y164770396D02*
X224825604Y159608517D01*
X217174311Y165583569D02*
X217987483Y164770396D01*
X214098396Y168659483D02*
X208936517Y163497604D01*
X217987483Y164770396D02*
X212825604Y159608517D01*
X205174311Y165583569D02*
X205987483Y164770396D01*
X202098396Y168659483D02*
X196936517Y163497604D01*
X205987483Y164770396D02*
X200825604Y159608517D01*
X193174311Y165583569D02*
X193987483Y164770396D01*
X190098396Y168659483D02*
X184936517Y163497604D01*
X193987483Y164770396D02*
X188825604Y159608517D01*
X181174311Y165583569D02*
X181987483Y164770396D01*
X178098396Y168659483D02*
X172936517Y163497604D01*
X181987483Y164770396D02*
X176825604Y159608517D01*
X221749689Y150684431D02*
X220936517Y151497604D01*
X224825604Y147608517D02*
X229987483Y152770396D01*
X220936517Y151497604D02*
X226098396Y156659483D01*
X209749689Y150684431D02*
X208936517Y151497604D01*
X212825604Y147608517D02*
X217987483Y152770396D01*
X208936517Y151497604D02*
X214098396Y156659483D01*
X197749689Y150684431D02*
X196936517Y151497604D01*
X200825604Y147608517D02*
X205987483Y152770396D01*
X196936517Y151497604D02*
X202098396Y156659483D01*
X185749689Y150684431D02*
X184936517Y151497604D01*
X188825604Y147608517D02*
X193987483Y152770396D01*
X184936517Y151497604D02*
X190098396Y156659483D01*
X259174311Y141583569D02*
X259987483Y140770396D01*
X256098396Y144659483D02*
X250936517Y139497604D01*
X259987483Y140770396D02*
X254825604Y135608517D01*
X247174311Y141583569D02*
X247987483Y140770396D01*
X244098396Y144659483D02*
X238936517Y139497604D01*
X247987483Y140770396D02*
X242825604Y135608517D01*
X229174311Y141583569D02*
X229987483Y140770396D01*
X226098396Y144659483D02*
X220936517Y139497604D01*
X229987483Y140770396D02*
X224825604Y135608517D01*
X217174311Y141583569D02*
X217987483Y140770396D01*
X214098396Y144659483D02*
X208936517Y139497604D01*
X217987483Y140770396D02*
X212825604Y135608517D01*
X205174311Y141583569D02*
X205987483Y140770396D01*
X202098396Y144659483D02*
X196936517Y139497604D01*
X205987483Y140770396D02*
X200825604Y135608517D01*
X193174311Y141583569D02*
X193987483Y140770396D01*
X190098396Y144659483D02*
X184936517Y139497604D01*
X193987483Y140770396D02*
X188825604Y135608517D01*
X181174311Y141583569D02*
X181987483Y140770396D01*
X178098396Y144659483D02*
X172936517Y139497604D01*
X181987483Y140770396D02*
X176825604Y135608517D01*
X232350000Y122400000D02*
X225050000Y122400000D01*
X232350000Y127900000D02*
X225050000Y127900000D01*
X232350000Y123550000D02*
X232350000Y122400000D01*
X214350000Y122400000D02*
X207050000Y122400000D01*
X214350000Y127900000D02*
X207050000Y127900000D01*
X214350000Y123550000D02*
X214350000Y122400000D01*
X196350000Y122400000D02*
X189050000Y122400000D01*
X196350000Y127900000D02*
X189050000Y127900000D01*
X196350000Y123550000D02*
X196350000Y122400000D01*
X160350000Y122400000D02*
X153050000Y122400000D01*
X160350000Y127900000D02*
X153050000Y127900000D01*
X160350000Y123550000D02*
X160350000Y122400000D01*
X142350000Y122400000D02*
X135050000Y122400000D01*
X142350000Y127900000D02*
X135050000Y127900000D01*
X142350000Y123550000D02*
X142350000Y122400000D01*
X106350000Y122400000D02*
X99050000Y122400000D01*
X106350000Y127900000D02*
X99050000Y127900000D01*
X106350000Y123550000D02*
X106350000Y122400000D01*
X88350000Y122400000D02*
X81050000Y122400000D01*
X88350000Y127900000D02*
X81050000Y127900000D01*
X88350000Y123550000D02*
X88350000Y122400000D01*
X70350000Y122400000D02*
X63050000Y122400000D01*
X70350000Y127900000D02*
X63050000Y127900000D01*
X70350000Y123550000D02*
X70350000Y122400000D01*
X34350000Y122400000D02*
X27050000Y122400000D01*
X34350000Y127900000D02*
X27050000Y127900000D01*
X34350000Y123550000D02*
X34350000Y122400000D01*
X16350000Y122400000D02*
X9050000Y122400000D01*
X16350000Y127900000D02*
X9050000Y127900000D01*
X16350000Y123550000D02*
X16350000Y122400000D01*
D10*
X-10811905Y177947620D02*
X-10811905Y178947620D01*
X-10811905Y178471429D02*
X-10240477Y178471429D01*
X-10240477Y177947620D02*
X-10240477Y178947620D01*
X-9240477Y177947620D02*
X-9811905Y177947620D01*
X-9526191Y177947620D02*
X-9526191Y178947620D01*
X-9621429Y178804762D01*
X-9716667Y178709524D01*
X-9811905Y178661905D01*
X119938095Y104197620D02*
X119938095Y105197620D01*
X119938095Y104721429D02*
X120509523Y104721429D01*
X120509523Y104197620D02*
X120509523Y105197620D01*
X121461904Y105197620D02*
X120985714Y105197620D01*
X120938095Y104721429D01*
X120985714Y104769048D01*
X121080952Y104816667D01*
X121319047Y104816667D01*
X121414285Y104769048D01*
X121461904Y104721429D01*
X121509523Y104626191D01*
X121509523Y104388096D01*
X121461904Y104292858D01*
X121414285Y104245239D01*
X121319047Y104197620D01*
X121080952Y104197620D01*
X120985714Y104245239D01*
X120938095Y104292858D01*
X245938095Y113297620D02*
X245938095Y114297620D01*
X245938095Y113821429D02*
X246509523Y113821429D01*
X246509523Y113297620D02*
X246509523Y114297620D01*
X247414285Y113964286D02*
X247414285Y113297620D01*
X247176190Y114345239D02*
X246938095Y113630953D01*
X247557142Y113630953D01*
X-6061905Y113197620D02*
X-6061905Y114197620D01*
X-6061905Y113721429D02*
X-5490477Y113721429D01*
X-5490477Y113197620D02*
X-5490477Y114197620D01*
X-5109524Y114197620D02*
X-4490477Y114197620D01*
X-4823810Y113816667D01*
X-4680953Y113816667D01*
X-4585715Y113769048D01*
X-4538096Y113721429D01*
X-4490477Y113626191D01*
X-4490477Y113388096D01*
X-4538096Y113292858D01*
X-4585715Y113245239D01*
X-4680953Y113197620D01*
X-4966667Y113197620D01*
X-5061905Y113245239D01*
X-5109524Y113292858D01*
X235048095Y172447620D02*
X235048095Y173447620D01*
X235048095Y172971429D02*
X235619523Y172971429D01*
X235619523Y172447620D02*
X235619523Y173447620D01*
X236048095Y173352381D02*
X236095714Y173400000D01*
X236190952Y173447620D01*
X236429047Y173447620D01*
X236524285Y173400000D01*
X236571904Y173352381D01*
X236619523Y173257143D01*
X236619523Y173161905D01*
X236571904Y173019048D01*
X236000476Y172447620D01*
X236619523Y172447620D01*
X94417707Y143607143D02*
X94417707Y144083334D01*
X94703421Y143511905D02*
X93703421Y143845239D01*
X94703421Y144178572D01*
X94703421Y144988096D02*
X94703421Y144511905D01*
X93703421Y144511905D01*
X94703421Y145321429D02*
X93703421Y145321429D01*
X93751041Y146321429D02*
X93703421Y146226191D01*
X93703421Y146083334D01*
X93751041Y145940477D01*
X93846279Y145845239D01*
X93941517Y145797620D01*
X94131993Y145750000D01*
X94274850Y145750000D01*
X94465326Y145797620D01*
X94560564Y145845239D01*
X94655802Y145940477D01*
X94703421Y146083334D01*
X94703421Y146178572D01*
X94655802Y146321429D01*
X94608183Y146369048D01*
X94274850Y146369048D01*
X94274850Y146178572D01*
X94703421Y146797620D02*
X93703421Y146797620D01*
X94703421Y147369048D01*
X93703421Y147369048D01*
X94655802Y148559524D02*
X94703421Y148702381D01*
X94703421Y148940477D01*
X94655802Y149035715D01*
X94608183Y149083334D01*
X94512945Y149130953D01*
X94417707Y149130953D01*
X94322469Y149083334D01*
X94274850Y149035715D01*
X94227231Y148940477D01*
X94179612Y148750000D01*
X94131993Y148654762D01*
X94084374Y148607143D01*
X93989136Y148559524D01*
X93893898Y148559524D01*
X93798660Y148607143D01*
X93751041Y148654762D01*
X93703421Y148750000D01*
X93703421Y148988096D01*
X93751041Y149130953D01*
X94608183Y150130953D02*
X94655802Y150083334D01*
X94703421Y149940477D01*
X94703421Y149845239D01*
X94655802Y149702381D01*
X94560564Y149607143D01*
X94465326Y149559524D01*
X94274850Y149511905D01*
X94131993Y149511905D01*
X93941517Y149559524D01*
X93846279Y149607143D01*
X93751041Y149702381D01*
X93703421Y149845239D01*
X93703421Y149940477D01*
X93751041Y150083334D01*
X93798660Y150130953D01*
X94703421Y151130953D02*
X94227231Y150797620D01*
X94703421Y150559524D02*
X93703421Y150559524D01*
X93703421Y150940477D01*
X93751041Y151035715D01*
X93798660Y151083334D01*
X93893898Y151130953D01*
X94036755Y151130953D01*
X94131993Y151083334D01*
X94179612Y151035715D01*
X94227231Y150940477D01*
X94227231Y150559524D01*
X94179612Y151559524D02*
X94179612Y151892858D01*
X94703421Y152035715D02*
X94703421Y151559524D01*
X93703421Y151559524D01*
X93703421Y152035715D01*
X94179612Y152464286D02*
X94179612Y152797620D01*
X94703421Y152940477D02*
X94703421Y152464286D01*
X93703421Y152464286D01*
X93703421Y152940477D01*
X94703421Y153369048D02*
X93703421Y153369048D01*
X94703421Y153940477D01*
X93703421Y153940477D01*
X94703421Y155178572D02*
X93703421Y155178572D01*
X94703421Y155654762D02*
X93703421Y155654762D01*
X94703421Y156226191D01*
X93703421Y156226191D01*
X94655802Y156654762D02*
X94703421Y156797620D01*
X94703421Y157035715D01*
X94655802Y157130953D01*
X94608183Y157178572D01*
X94512945Y157226191D01*
X94417707Y157226191D01*
X94322469Y157178572D01*
X94274850Y157130953D01*
X94227231Y157035715D01*
X94179612Y156845239D01*
X94131993Y156750000D01*
X94084374Y156702381D01*
X93989136Y156654762D01*
X93893898Y156654762D01*
X93798660Y156702381D01*
X93751041Y156750000D01*
X93703421Y156845239D01*
X93703421Y157083334D01*
X93751041Y157226191D01*
X94703421Y157654762D02*
X93703421Y157654762D01*
X94703421Y158130953D02*
X93703421Y158130953D01*
X93703421Y158369048D01*
X93751041Y158511905D01*
X93846279Y158607143D01*
X93941517Y158654762D01*
X94131993Y158702381D01*
X94274850Y158702381D01*
X94465326Y158654762D01*
X94560564Y158607143D01*
X94655802Y158511905D01*
X94703421Y158369048D01*
X94703421Y158130953D01*
X94179612Y159130953D02*
X94179612Y159464286D01*
X94703421Y159607143D02*
X94703421Y159130953D01*
X93703421Y159130953D01*
X93703421Y159607143D01*
X93703421Y160654762D02*
X93703421Y161226191D01*
X94703421Y160940477D02*
X93703421Y160940477D01*
X94703421Y161559524D02*
X93703421Y161559524D01*
X94179612Y161559524D02*
X94179612Y162130953D01*
X94703421Y162130953D02*
X93703421Y162130953D01*
X94179612Y162607143D02*
X94179612Y162940477D01*
X94703421Y163083334D02*
X94703421Y162607143D01*
X93703421Y162607143D01*
X93703421Y163083334D01*
X94655802Y163464286D02*
X94703421Y163607143D01*
X94703421Y163845239D01*
X94655802Y163940477D01*
X94608183Y163988096D01*
X94512945Y164035715D01*
X94417707Y164035715D01*
X94322469Y163988096D01*
X94274850Y163940477D01*
X94227231Y163845239D01*
X94179612Y163654762D01*
X94131993Y163559524D01*
X94084374Y163511905D01*
X93989136Y163464286D01*
X93893898Y163464286D01*
X93798660Y163511905D01*
X93751041Y163559524D01*
X93703421Y163654762D01*
X93703421Y163892858D01*
X93751041Y164035715D01*
X94179612Y164464286D02*
X94179612Y164797620D01*
X94703421Y164940477D02*
X94703421Y164464286D01*
X93703421Y164464286D01*
X93703421Y164940477D01*
X94703421Y166607143D02*
X94703421Y166130953D01*
X93703421Y166130953D01*
X94703421Y166940477D02*
X93703421Y166940477D01*
X94703421Y167416667D02*
X93703421Y167416667D01*
X94703421Y167988096D01*
X93703421Y167988096D01*
X94179612Y168464286D02*
X94179612Y168797620D01*
X94703421Y168940477D02*
X94703421Y168464286D01*
X93703421Y168464286D01*
X93703421Y168940477D01*
X94655802Y169321429D02*
X94703421Y169464286D01*
X94703421Y169702381D01*
X94655802Y169797620D01*
X94608183Y169845239D01*
X94512945Y169892858D01*
X94417707Y169892858D01*
X94322469Y169845239D01*
X94274850Y169797620D01*
X94227231Y169702381D01*
X94179612Y169511905D01*
X94131993Y169416667D01*
X94084374Y169369048D01*
X93989136Y169321429D01*
X93893898Y169321429D01*
X93798660Y169369048D01*
X93751041Y169416667D01*
X93703421Y169511905D01*
X93703421Y169750000D01*
X93751041Y169892858D01*
X161667707Y143857143D02*
X161667707Y144333334D01*
X161953421Y143761905D02*
X160953421Y144095239D01*
X161953421Y144428572D01*
X161953421Y145238096D02*
X161953421Y144761905D01*
X160953421Y144761905D01*
X161953421Y145571429D02*
X160953421Y145571429D01*
X161001041Y146571429D02*
X160953421Y146476191D01*
X160953421Y146333334D01*
X161001041Y146190477D01*
X161096279Y146095239D01*
X161191517Y146047620D01*
X161381993Y146000000D01*
X161524850Y146000000D01*
X161715326Y146047620D01*
X161810564Y146095239D01*
X161905802Y146190477D01*
X161953421Y146333334D01*
X161953421Y146428572D01*
X161905802Y146571429D01*
X161858183Y146619048D01*
X161524850Y146619048D01*
X161524850Y146428572D01*
X161953421Y147047620D02*
X160953421Y147047620D01*
X161953421Y147619048D01*
X160953421Y147619048D01*
X161905802Y148809524D02*
X161953421Y148952381D01*
X161953421Y149190477D01*
X161905802Y149285715D01*
X161858183Y149333334D01*
X161762945Y149380953D01*
X161667707Y149380953D01*
X161572469Y149333334D01*
X161524850Y149285715D01*
X161477231Y149190477D01*
X161429612Y149000000D01*
X161381993Y148904762D01*
X161334374Y148857143D01*
X161239136Y148809524D01*
X161143898Y148809524D01*
X161048660Y148857143D01*
X161001041Y148904762D01*
X160953421Y149000000D01*
X160953421Y149238096D01*
X161001041Y149380953D01*
X161858183Y150380953D02*
X161905802Y150333334D01*
X161953421Y150190477D01*
X161953421Y150095239D01*
X161905802Y149952381D01*
X161810564Y149857143D01*
X161715326Y149809524D01*
X161524850Y149761905D01*
X161381993Y149761905D01*
X161191517Y149809524D01*
X161096279Y149857143D01*
X161001041Y149952381D01*
X160953421Y150095239D01*
X160953421Y150190477D01*
X161001041Y150333334D01*
X161048660Y150380953D01*
X161953421Y151380953D02*
X161477231Y151047620D01*
X161953421Y150809524D02*
X160953421Y150809524D01*
X160953421Y151190477D01*
X161001041Y151285715D01*
X161048660Y151333334D01*
X161143898Y151380953D01*
X161286755Y151380953D01*
X161381993Y151333334D01*
X161429612Y151285715D01*
X161477231Y151190477D01*
X161477231Y150809524D01*
X161429612Y151809524D02*
X161429612Y152142858D01*
X161953421Y152285715D02*
X161953421Y151809524D01*
X160953421Y151809524D01*
X160953421Y152285715D01*
X161429612Y152714286D02*
X161429612Y153047620D01*
X161953421Y153190477D02*
X161953421Y152714286D01*
X160953421Y152714286D01*
X160953421Y153190477D01*
X161953421Y153619048D02*
X160953421Y153619048D01*
X161953421Y154190477D01*
X160953421Y154190477D01*
X161953421Y155428572D02*
X160953421Y155428572D01*
X161953421Y155904762D02*
X160953421Y155904762D01*
X161953421Y156476191D01*
X160953421Y156476191D01*
X161905802Y156904762D02*
X161953421Y157047620D01*
X161953421Y157285715D01*
X161905802Y157380953D01*
X161858183Y157428572D01*
X161762945Y157476191D01*
X161667707Y157476191D01*
X161572469Y157428572D01*
X161524850Y157380953D01*
X161477231Y157285715D01*
X161429612Y157095239D01*
X161381993Y157000000D01*
X161334374Y156952381D01*
X161239136Y156904762D01*
X161143898Y156904762D01*
X161048660Y156952381D01*
X161001041Y157000000D01*
X160953421Y157095239D01*
X160953421Y157333334D01*
X161001041Y157476191D01*
X161953421Y157904762D02*
X160953421Y157904762D01*
X161953421Y158380953D02*
X160953421Y158380953D01*
X160953421Y158619048D01*
X161001041Y158761905D01*
X161096279Y158857143D01*
X161191517Y158904762D01*
X161381993Y158952381D01*
X161524850Y158952381D01*
X161715326Y158904762D01*
X161810564Y158857143D01*
X161905802Y158761905D01*
X161953421Y158619048D01*
X161953421Y158380953D01*
X161429612Y159380953D02*
X161429612Y159714286D01*
X161953421Y159857143D02*
X161953421Y159380953D01*
X160953421Y159380953D01*
X160953421Y159857143D01*
X160953421Y160904762D02*
X160953421Y161476191D01*
X161953421Y161190477D02*
X160953421Y161190477D01*
X161953421Y161809524D02*
X160953421Y161809524D01*
X161429612Y161809524D02*
X161429612Y162380953D01*
X161953421Y162380953D02*
X160953421Y162380953D01*
X161429612Y162857143D02*
X161429612Y163190477D01*
X161953421Y163333334D02*
X161953421Y162857143D01*
X160953421Y162857143D01*
X160953421Y163333334D01*
X161905802Y163714286D02*
X161953421Y163857143D01*
X161953421Y164095239D01*
X161905802Y164190477D01*
X161858183Y164238096D01*
X161762945Y164285715D01*
X161667707Y164285715D01*
X161572469Y164238096D01*
X161524850Y164190477D01*
X161477231Y164095239D01*
X161429612Y163904762D01*
X161381993Y163809524D01*
X161334374Y163761905D01*
X161239136Y163714286D01*
X161143898Y163714286D01*
X161048660Y163761905D01*
X161001041Y163809524D01*
X160953421Y163904762D01*
X160953421Y164142858D01*
X161001041Y164285715D01*
X161429612Y164714286D02*
X161429612Y165047620D01*
X161953421Y165190477D02*
X161953421Y164714286D01*
X160953421Y164714286D01*
X160953421Y165190477D01*
X161953421Y166857143D02*
X161953421Y166380953D01*
X160953421Y166380953D01*
X161953421Y167190477D02*
X160953421Y167190477D01*
X161953421Y167666667D02*
X160953421Y167666667D01*
X161953421Y168238096D01*
X160953421Y168238096D01*
X161429612Y168714286D02*
X161429612Y169047620D01*
X161953421Y169190477D02*
X161953421Y168714286D01*
X160953421Y168714286D01*
X160953421Y169190477D01*
X161905802Y169571429D02*
X161953421Y169714286D01*
X161953421Y169952381D01*
X161905802Y170047620D01*
X161858183Y170095239D01*
X161762945Y170142858D01*
X161667707Y170142858D01*
X161572469Y170095239D01*
X161524850Y170047620D01*
X161477231Y169952381D01*
X161429612Y169761905D01*
X161381993Y169666667D01*
X161334374Y169619048D01*
X161239136Y169571429D01*
X161143898Y169571429D01*
X161048660Y169619048D01*
X161001041Y169666667D01*
X160953421Y169761905D01*
X160953421Y170000000D01*
X161001041Y170142858D01*
X88933333Y171772620D02*
X88600000Y172248810D01*
X88361904Y171772620D02*
X88361904Y172772620D01*
X88742857Y172772620D01*
X88838095Y172725000D01*
X88885714Y172677381D01*
X88933333Y172582143D01*
X88933333Y172439286D01*
X88885714Y172344048D01*
X88838095Y172296429D01*
X88742857Y172248810D01*
X88361904Y172248810D01*
X89409523Y171772620D02*
X89600000Y171772620D01*
X89695238Y171820239D01*
X89742857Y171867858D01*
X89838095Y172010715D01*
X89885714Y172201191D01*
X89885714Y172582143D01*
X89838095Y172677381D01*
X89790476Y172725000D01*
X89695238Y172772620D01*
X89504761Y172772620D01*
X89409523Y172725000D01*
X89361904Y172677381D01*
X89314285Y172582143D01*
X89314285Y172344048D01*
X89361904Y172248810D01*
X89409523Y172201191D01*
X89504761Y172153572D01*
X89695238Y172153572D01*
X89790476Y172201191D01*
X89838095Y172248810D01*
X89885714Y172344048D01*
X88933333Y169772620D02*
X88600000Y170248810D01*
X88361904Y169772620D02*
X88361904Y170772620D01*
X88742857Y170772620D01*
X88838095Y170725000D01*
X88885714Y170677381D01*
X88933333Y170582143D01*
X88933333Y170439286D01*
X88885714Y170344048D01*
X88838095Y170296429D01*
X88742857Y170248810D01*
X88361904Y170248810D01*
X89504761Y170344048D02*
X89409523Y170391667D01*
X89361904Y170439286D01*
X89314285Y170534524D01*
X89314285Y170582143D01*
X89361904Y170677381D01*
X89409523Y170725000D01*
X89504761Y170772620D01*
X89695238Y170772620D01*
X89790476Y170725000D01*
X89838095Y170677381D01*
X89885714Y170582143D01*
X89885714Y170534524D01*
X89838095Y170439286D01*
X89790476Y170391667D01*
X89695238Y170344048D01*
X89504761Y170344048D01*
X89409523Y170296429D01*
X89361904Y170248810D01*
X89314285Y170153572D01*
X89314285Y169963096D01*
X89361904Y169867858D01*
X89409523Y169820239D01*
X89504761Y169772620D01*
X89695238Y169772620D01*
X89790476Y169820239D01*
X89838095Y169867858D01*
X89885714Y169963096D01*
X89885714Y170153572D01*
X89838095Y170248810D01*
X89790476Y170296429D01*
X89695238Y170344048D01*
X88933333Y167772620D02*
X88600000Y168248810D01*
X88361904Y167772620D02*
X88361904Y168772620D01*
X88742857Y168772620D01*
X88838095Y168725000D01*
X88885714Y168677381D01*
X88933333Y168582143D01*
X88933333Y168439286D01*
X88885714Y168344048D01*
X88838095Y168296429D01*
X88742857Y168248810D01*
X88361904Y168248810D01*
X89266666Y168772620D02*
X89933333Y168772620D01*
X89504761Y167772620D01*
X88959374Y165772620D02*
X88626041Y166248810D01*
X88387945Y165772620D02*
X88387945Y166772620D01*
X88768898Y166772620D01*
X88864136Y166725000D01*
X88911755Y166677381D01*
X88959374Y166582143D01*
X88959374Y166439286D01*
X88911755Y166344048D01*
X88864136Y166296429D01*
X88768898Y166248810D01*
X88387945Y166248810D01*
X89816517Y166772620D02*
X89626041Y166772620D01*
X89530802Y166725000D01*
X89483183Y166677381D01*
X89387945Y166534524D01*
X89340326Y166344048D01*
X89340326Y165963096D01*
X89387945Y165867858D01*
X89435564Y165820239D01*
X89530802Y165772620D01*
X89721279Y165772620D01*
X89816517Y165820239D01*
X89864136Y165867858D01*
X89911755Y165963096D01*
X89911755Y166201191D01*
X89864136Y166296429D01*
X89816517Y166344048D01*
X89721279Y166391667D01*
X89530802Y166391667D01*
X89435564Y166344048D01*
X89387945Y166296429D01*
X89340326Y166201191D01*
X88933333Y163772620D02*
X88600000Y164248810D01*
X88361904Y163772620D02*
X88361904Y164772620D01*
X88742857Y164772620D01*
X88838095Y164725000D01*
X88885714Y164677381D01*
X88933333Y164582143D01*
X88933333Y164439286D01*
X88885714Y164344048D01*
X88838095Y164296429D01*
X88742857Y164248810D01*
X88361904Y164248810D01*
X89838095Y164772620D02*
X89361904Y164772620D01*
X89314285Y164296429D01*
X89361904Y164344048D01*
X89457142Y164391667D01*
X89695238Y164391667D01*
X89790476Y164344048D01*
X89838095Y164296429D01*
X89885714Y164201191D01*
X89885714Y163963096D01*
X89838095Y163867858D01*
X89790476Y163820239D01*
X89695238Y163772620D01*
X89457142Y163772620D01*
X89361904Y163820239D01*
X89314285Y163867858D01*
X88933333Y173772620D02*
X88600000Y174248810D01*
X88361904Y173772620D02*
X88361904Y174772620D01*
X88742857Y174772620D01*
X88838095Y174725000D01*
X88885714Y174677381D01*
X88933333Y174582143D01*
X88933333Y174439286D01*
X88885714Y174344048D01*
X88838095Y174296429D01*
X88742857Y174248810D01*
X88361904Y174248810D01*
X89314285Y174677381D02*
X89361904Y174725000D01*
X89457142Y174772620D01*
X89695238Y174772620D01*
X89790476Y174725000D01*
X89838095Y174677381D01*
X89885714Y174582143D01*
X89885714Y174486905D01*
X89838095Y174344048D01*
X89266666Y173772620D01*
X89885714Y173772620D01*
X235890476Y99995239D02*
X236033333Y99947620D01*
X236271428Y99947620D01*
X236366666Y99995239D01*
X236414285Y100042858D01*
X236461904Y100138096D01*
X236461904Y100233334D01*
X236414285Y100328572D01*
X236366666Y100376191D01*
X236271428Y100423810D01*
X236080952Y100471429D01*
X235985714Y100519048D01*
X235938095Y100566667D01*
X235890476Y100661905D01*
X235890476Y100757143D01*
X235938095Y100852381D01*
X235985714Y100900000D01*
X236080952Y100947620D01*
X236319047Y100947620D01*
X236461904Y100900000D01*
X236795238Y100947620D02*
X237033333Y99947620D01*
X237223809Y100661905D01*
X237414285Y99947620D01*
X237652380Y100947620D01*
X238557142Y99947620D02*
X237985714Y99947620D01*
X238271428Y99947620D02*
X238271428Y100947620D01*
X238176190Y100804762D01*
X238080952Y100709524D01*
X237985714Y100661905D01*
X239461904Y100947620D02*
X238985714Y100947620D01*
X238938095Y100471429D01*
X238985714Y100519048D01*
X239080952Y100566667D01*
X239319047Y100566667D01*
X239414285Y100519048D01*
X239461904Y100471429D01*
X239509523Y100376191D01*
X239509523Y100138096D01*
X239461904Y100042858D01*
X239414285Y99995239D01*
X239319047Y99947620D01*
X239080952Y99947620D01*
X238985714Y99995239D01*
X238938095Y100042858D01*
X256104761Y98590477D02*
X256152380Y98733334D01*
X256152380Y98971429D01*
X256104761Y99066667D01*
X256057142Y99114286D01*
X255961904Y99161905D01*
X255866666Y99161905D01*
X255771428Y99114286D01*
X255723809Y99066667D01*
X255676190Y98971429D01*
X255628571Y98780953D01*
X255580952Y98685715D01*
X255533333Y98638096D01*
X255438095Y98590477D01*
X255342857Y98590477D01*
X255247619Y98638096D01*
X255200000Y98685715D01*
X255152380Y98780953D01*
X255152380Y99019048D01*
X255200000Y99161905D01*
X255152380Y99495239D02*
X256152380Y99733334D01*
X255438095Y99923810D01*
X256152380Y100114286D01*
X255152380Y100352381D01*
X256152380Y101257143D02*
X256152380Y100685715D01*
X256152380Y100971429D02*
X255152380Y100971429D01*
X255295238Y100876191D01*
X255390476Y100780953D01*
X255438095Y100685715D01*
X255152380Y102114286D02*
X255152380Y101923810D01*
X255200000Y101828572D01*
X255247619Y101780953D01*
X255390476Y101685715D01*
X255580952Y101638096D01*
X255961904Y101638096D01*
X256057142Y101685715D01*
X256104761Y101733334D01*
X256152380Y101828572D01*
X256152380Y102019048D01*
X256104761Y102114286D01*
X256057142Y102161905D01*
X255961904Y102209524D01*
X255723809Y102209524D01*
X255628571Y102161905D01*
X255580952Y102114286D01*
X255533333Y102019048D01*
X255533333Y101828572D01*
X255580952Y101733334D01*
X255628571Y101685715D01*
X255723809Y101638096D01*
X13104761Y114090477D02*
X13152380Y114233334D01*
X13152380Y114471429D01*
X13104761Y114566667D01*
X13057142Y114614286D01*
X12961904Y114661905D01*
X12866666Y114661905D01*
X12771428Y114614286D01*
X12723809Y114566667D01*
X12676190Y114471429D01*
X12628571Y114280953D01*
X12580952Y114185715D01*
X12533333Y114138096D01*
X12438095Y114090477D01*
X12342857Y114090477D01*
X12247619Y114138096D01*
X12200000Y114185715D01*
X12152380Y114280953D01*
X12152380Y114519048D01*
X12200000Y114661905D01*
X12152380Y114995239D02*
X13152380Y115233334D01*
X12438095Y115423810D01*
X13152380Y115614286D01*
X12152380Y115852381D01*
X13152380Y116757143D02*
X13152380Y116185715D01*
X13152380Y116471429D02*
X12152380Y116471429D01*
X12295238Y116376191D01*
X12390476Y116280953D01*
X12438095Y116185715D01*
X12152380Y117090477D02*
X12152380Y117757143D01*
X13152380Y117328572D01*
X31104761Y114090477D02*
X31152380Y114233334D01*
X31152380Y114471429D01*
X31104761Y114566667D01*
X31057142Y114614286D01*
X30961904Y114661905D01*
X30866666Y114661905D01*
X30771428Y114614286D01*
X30723809Y114566667D01*
X30676190Y114471429D01*
X30628571Y114280953D01*
X30580952Y114185715D01*
X30533333Y114138096D01*
X30438095Y114090477D01*
X30342857Y114090477D01*
X30247619Y114138096D01*
X30200000Y114185715D01*
X30152380Y114280953D01*
X30152380Y114519048D01*
X30200000Y114661905D01*
X30152380Y114995239D02*
X31152380Y115233334D01*
X30438095Y115423810D01*
X31152380Y115614286D01*
X30152380Y115852381D01*
X31152380Y116757143D02*
X31152380Y116185715D01*
X31152380Y116471429D02*
X30152380Y116471429D01*
X30295238Y116376191D01*
X30390476Y116280953D01*
X30438095Y116185715D01*
X30580952Y117328572D02*
X30533333Y117233334D01*
X30485714Y117185715D01*
X30390476Y117138096D01*
X30342857Y117138096D01*
X30247619Y117185715D01*
X30200000Y117233334D01*
X30152380Y117328572D01*
X30152380Y117519048D01*
X30200000Y117614286D01*
X30247619Y117661905D01*
X30342857Y117709524D01*
X30390476Y117709524D01*
X30485714Y117661905D01*
X30533333Y117614286D01*
X30580952Y117519048D01*
X30580952Y117328572D01*
X30628571Y117233334D01*
X30676190Y117185715D01*
X30771428Y117138096D01*
X30961904Y117138096D01*
X31057142Y117185715D01*
X31104761Y117233334D01*
X31152380Y117328572D01*
X31152380Y117519048D01*
X31104761Y117614286D01*
X31057142Y117661905D01*
X30961904Y117709524D01*
X30771428Y117709524D01*
X30676190Y117661905D01*
X30628571Y117614286D01*
X30580952Y117519048D01*
X103104761Y114090477D02*
X103152380Y114233334D01*
X103152380Y114471429D01*
X103104761Y114566667D01*
X103057142Y114614286D01*
X102961904Y114661905D01*
X102866666Y114661905D01*
X102771428Y114614286D01*
X102723809Y114566667D01*
X102676190Y114471429D01*
X102628571Y114280953D01*
X102580952Y114185715D01*
X102533333Y114138096D01*
X102438095Y114090477D01*
X102342857Y114090477D01*
X102247619Y114138096D01*
X102200000Y114185715D01*
X102152380Y114280953D01*
X102152380Y114519048D01*
X102200000Y114661905D01*
X102152380Y114995239D02*
X103152380Y115233334D01*
X102438095Y115423810D01*
X103152380Y115614286D01*
X102152380Y115852381D01*
X102247619Y116185715D02*
X102200000Y116233334D01*
X102152380Y116328572D01*
X102152380Y116566667D01*
X102200000Y116661905D01*
X102247619Y116709524D01*
X102342857Y116757143D01*
X102438095Y116757143D01*
X102580952Y116709524D01*
X103152380Y116138096D01*
X103152380Y116757143D01*
X103152380Y117709524D02*
X103152380Y117138096D01*
X103152380Y117423810D02*
X102152380Y117423810D01*
X102295238Y117328572D01*
X102390476Y117233334D01*
X102438095Y117138096D01*
X139104761Y114090477D02*
X139152380Y114233334D01*
X139152380Y114471429D01*
X139104761Y114566667D01*
X139057142Y114614286D01*
X138961904Y114661905D01*
X138866666Y114661905D01*
X138771428Y114614286D01*
X138723809Y114566667D01*
X138676190Y114471429D01*
X138628571Y114280953D01*
X138580952Y114185715D01*
X138533333Y114138096D01*
X138438095Y114090477D01*
X138342857Y114090477D01*
X138247619Y114138096D01*
X138200000Y114185715D01*
X138152380Y114280953D01*
X138152380Y114519048D01*
X138200000Y114661905D01*
X138152380Y114995239D02*
X139152380Y115233334D01*
X138438095Y115423810D01*
X139152380Y115614286D01*
X138152380Y115852381D01*
X138247619Y116185715D02*
X138200000Y116233334D01*
X138152380Y116328572D01*
X138152380Y116566667D01*
X138200000Y116661905D01*
X138247619Y116709524D01*
X138342857Y116757143D01*
X138438095Y116757143D01*
X138580952Y116709524D01*
X139152380Y116138096D01*
X139152380Y116757143D01*
X138247619Y117138096D02*
X138200000Y117185715D01*
X138152380Y117280953D01*
X138152380Y117519048D01*
X138200000Y117614286D01*
X138247619Y117661905D01*
X138342857Y117709524D01*
X138438095Y117709524D01*
X138580952Y117661905D01*
X139152380Y117090477D01*
X139152380Y117709524D01*
X157104761Y114090477D02*
X157152380Y114233334D01*
X157152380Y114471429D01*
X157104761Y114566667D01*
X157057142Y114614286D01*
X156961904Y114661905D01*
X156866666Y114661905D01*
X156771428Y114614286D01*
X156723809Y114566667D01*
X156676190Y114471429D01*
X156628571Y114280953D01*
X156580952Y114185715D01*
X156533333Y114138096D01*
X156438095Y114090477D01*
X156342857Y114090477D01*
X156247619Y114138096D01*
X156200000Y114185715D01*
X156152380Y114280953D01*
X156152380Y114519048D01*
X156200000Y114661905D01*
X156152380Y114995239D02*
X157152380Y115233334D01*
X156438095Y115423810D01*
X157152380Y115614286D01*
X156152380Y115852381D01*
X156247619Y116185715D02*
X156200000Y116233334D01*
X156152380Y116328572D01*
X156152380Y116566667D01*
X156200000Y116661905D01*
X156247619Y116709524D01*
X156342857Y116757143D01*
X156438095Y116757143D01*
X156580952Y116709524D01*
X157152380Y116138096D01*
X157152380Y116757143D01*
X156152380Y117090477D02*
X156152380Y117709524D01*
X156533333Y117376191D01*
X156533333Y117519048D01*
X156580952Y117614286D01*
X156628571Y117661905D01*
X156723809Y117709524D01*
X156961904Y117709524D01*
X157057142Y117661905D01*
X157104761Y117614286D01*
X157152380Y117519048D01*
X157152380Y117233334D01*
X157104761Y117138096D01*
X157057142Y117090477D01*
X193104761Y114090477D02*
X193152380Y114233334D01*
X193152380Y114471429D01*
X193104761Y114566667D01*
X193057142Y114614286D01*
X192961904Y114661905D01*
X192866666Y114661905D01*
X192771428Y114614286D01*
X192723809Y114566667D01*
X192676190Y114471429D01*
X192628571Y114280953D01*
X192580952Y114185715D01*
X192533333Y114138096D01*
X192438095Y114090477D01*
X192342857Y114090477D01*
X192247619Y114138096D01*
X192200000Y114185715D01*
X192152380Y114280953D01*
X192152380Y114519048D01*
X192200000Y114661905D01*
X192152380Y114995239D02*
X193152380Y115233334D01*
X192438095Y115423810D01*
X193152380Y115614286D01*
X192152380Y115852381D01*
X192247619Y116185715D02*
X192200000Y116233334D01*
X192152380Y116328572D01*
X192152380Y116566667D01*
X192200000Y116661905D01*
X192247619Y116709524D01*
X192342857Y116757143D01*
X192438095Y116757143D01*
X192580952Y116709524D01*
X193152380Y116138096D01*
X193152380Y116757143D01*
X192485714Y117614286D02*
X193152380Y117614286D01*
X192104761Y117376191D02*
X192819047Y117138096D01*
X192819047Y117757143D01*
X-13895239Y99066667D02*
X-13847620Y99209524D01*
X-13847620Y99447620D01*
X-13895239Y99542858D01*
X-13942858Y99590477D01*
X-14038096Y99638096D01*
X-14133334Y99638096D01*
X-14228572Y99590477D01*
X-14276191Y99542858D01*
X-14323810Y99447620D01*
X-14371429Y99257143D01*
X-14419048Y99161905D01*
X-14466667Y99114286D01*
X-14561905Y99066667D01*
X-14657143Y99066667D01*
X-14752381Y99114286D01*
X-14800000Y99161905D01*
X-14847620Y99257143D01*
X-14847620Y99495239D01*
X-14800000Y99638096D01*
X-14847620Y99971429D02*
X-13847620Y100209524D01*
X-14561905Y100400000D01*
X-13847620Y100590477D01*
X-14847620Y100828572D01*
X-13847620Y101733334D02*
X-13847620Y101161905D01*
X-13847620Y101447620D02*
X-14847620Y101447620D01*
X-14704762Y101352381D01*
X-14609524Y101257143D01*
X-14561905Y101161905D01*
X2366666Y99995239D02*
X2509523Y99947620D01*
X2747619Y99947620D01*
X2842857Y99995239D01*
X2890476Y100042858D01*
X2938095Y100138096D01*
X2938095Y100233334D01*
X2890476Y100328572D01*
X2842857Y100376191D01*
X2747619Y100423810D01*
X2557142Y100471429D01*
X2461904Y100519048D01*
X2414285Y100566667D01*
X2366666Y100661905D01*
X2366666Y100757143D01*
X2414285Y100852381D01*
X2461904Y100900000D01*
X2557142Y100947620D01*
X2795238Y100947620D01*
X2938095Y100900000D01*
X3271428Y100947620D02*
X3509523Y99947620D01*
X3700000Y100661905D01*
X3890476Y99947620D01*
X4128571Y100947620D01*
X4461904Y100852381D02*
X4509523Y100900000D01*
X4604761Y100947620D01*
X4842857Y100947620D01*
X4938095Y100900000D01*
X4985714Y100852381D01*
X5033333Y100757143D01*
X5033333Y100661905D01*
X4985714Y100519048D01*
X4414285Y99947620D01*
X5033333Y99947620D01*
X20366666Y99995239D02*
X20509523Y99947620D01*
X20747619Y99947620D01*
X20842857Y99995239D01*
X20890476Y100042858D01*
X20938095Y100138096D01*
X20938095Y100233334D01*
X20890476Y100328572D01*
X20842857Y100376191D01*
X20747619Y100423810D01*
X20557142Y100471429D01*
X20461904Y100519048D01*
X20414285Y100566667D01*
X20366666Y100661905D01*
X20366666Y100757143D01*
X20414285Y100852381D01*
X20461904Y100900000D01*
X20557142Y100947620D01*
X20795238Y100947620D01*
X20938095Y100900000D01*
X21271428Y100947620D02*
X21509523Y99947620D01*
X21700000Y100661905D01*
X21890476Y99947620D01*
X22128571Y100947620D01*
X22414285Y100947620D02*
X23033333Y100947620D01*
X22700000Y100566667D01*
X22842857Y100566667D01*
X22938095Y100519048D01*
X22985714Y100471429D01*
X23033333Y100376191D01*
X23033333Y100138096D01*
X22985714Y100042858D01*
X22938095Y99995239D01*
X22842857Y99947620D01*
X22557142Y99947620D01*
X22461904Y99995239D01*
X22414285Y100042858D01*
X38366666Y99995239D02*
X38509523Y99947620D01*
X38747619Y99947620D01*
X38842857Y99995239D01*
X38890476Y100042858D01*
X38938095Y100138096D01*
X38938095Y100233334D01*
X38890476Y100328572D01*
X38842857Y100376191D01*
X38747619Y100423810D01*
X38557142Y100471429D01*
X38461904Y100519048D01*
X38414285Y100566667D01*
X38366666Y100661905D01*
X38366666Y100757143D01*
X38414285Y100852381D01*
X38461904Y100900000D01*
X38557142Y100947620D01*
X38795238Y100947620D01*
X38938095Y100900000D01*
X39271428Y100947620D02*
X39509523Y99947620D01*
X39700000Y100661905D01*
X39890476Y99947620D01*
X40128571Y100947620D01*
X40938095Y100614286D02*
X40938095Y99947620D01*
X40700000Y100995239D02*
X40461904Y100280953D01*
X41080952Y100280953D01*
X56366666Y99995239D02*
X56509523Y99947620D01*
X56747619Y99947620D01*
X56842857Y99995239D01*
X56890476Y100042858D01*
X56938095Y100138096D01*
X56938095Y100233334D01*
X56890476Y100328572D01*
X56842857Y100376191D01*
X56747619Y100423810D01*
X56557142Y100471429D01*
X56461904Y100519048D01*
X56414285Y100566667D01*
X56366666Y100661905D01*
X56366666Y100757143D01*
X56414285Y100852381D01*
X56461904Y100900000D01*
X56557142Y100947620D01*
X56795238Y100947620D01*
X56938095Y100900000D01*
X57271428Y100947620D02*
X57509523Y99947620D01*
X57700000Y100661905D01*
X57890476Y99947620D01*
X58128571Y100947620D01*
X58985714Y100947620D02*
X58509523Y100947620D01*
X58461904Y100471429D01*
X58509523Y100519048D01*
X58604761Y100566667D01*
X58842857Y100566667D01*
X58938095Y100519048D01*
X58985714Y100471429D01*
X59033333Y100376191D01*
X59033333Y100138096D01*
X58985714Y100042858D01*
X58938095Y99995239D01*
X58842857Y99947620D01*
X58604761Y99947620D01*
X58509523Y99995239D01*
X58461904Y100042858D01*
X74366666Y99995239D02*
X74509523Y99947620D01*
X74747619Y99947620D01*
X74842857Y99995239D01*
X74890476Y100042858D01*
X74938095Y100138096D01*
X74938095Y100233334D01*
X74890476Y100328572D01*
X74842857Y100376191D01*
X74747619Y100423810D01*
X74557142Y100471429D01*
X74461904Y100519048D01*
X74414285Y100566667D01*
X74366666Y100661905D01*
X74366666Y100757143D01*
X74414285Y100852381D01*
X74461904Y100900000D01*
X74557142Y100947620D01*
X74795238Y100947620D01*
X74938095Y100900000D01*
X75271428Y100947620D02*
X75509523Y99947620D01*
X75700000Y100661905D01*
X75890476Y99947620D01*
X76128571Y100947620D01*
X76938095Y100947620D02*
X76747619Y100947620D01*
X76652380Y100900000D01*
X76604761Y100852381D01*
X76509523Y100709524D01*
X76461904Y100519048D01*
X76461904Y100138096D01*
X76509523Y100042858D01*
X76557142Y99995239D01*
X76652380Y99947620D01*
X76842857Y99947620D01*
X76938095Y99995239D01*
X76985714Y100042858D01*
X77033333Y100138096D01*
X77033333Y100376191D01*
X76985714Y100471429D01*
X76938095Y100519048D01*
X76842857Y100566667D01*
X76652380Y100566667D01*
X76557142Y100519048D01*
X76509523Y100471429D01*
X76461904Y100376191D01*
X92366666Y99995239D02*
X92509523Y99947620D01*
X92747619Y99947620D01*
X92842857Y99995239D01*
X92890476Y100042858D01*
X92938095Y100138096D01*
X92938095Y100233334D01*
X92890476Y100328572D01*
X92842857Y100376191D01*
X92747619Y100423810D01*
X92557142Y100471429D01*
X92461904Y100519048D01*
X92414285Y100566667D01*
X92366666Y100661905D01*
X92366666Y100757143D01*
X92414285Y100852381D01*
X92461904Y100900000D01*
X92557142Y100947620D01*
X92795238Y100947620D01*
X92938095Y100900000D01*
X93271428Y100947620D02*
X93509523Y99947620D01*
X93700000Y100661905D01*
X93890476Y99947620D01*
X94128571Y100947620D01*
X94414285Y100947620D02*
X95080952Y100947620D01*
X94652380Y99947620D01*
X110366666Y99995239D02*
X110509523Y99947620D01*
X110747619Y99947620D01*
X110842857Y99995239D01*
X110890476Y100042858D01*
X110938095Y100138096D01*
X110938095Y100233334D01*
X110890476Y100328572D01*
X110842857Y100376191D01*
X110747619Y100423810D01*
X110557142Y100471429D01*
X110461904Y100519048D01*
X110414285Y100566667D01*
X110366666Y100661905D01*
X110366666Y100757143D01*
X110414285Y100852381D01*
X110461904Y100900000D01*
X110557142Y100947620D01*
X110795238Y100947620D01*
X110938095Y100900000D01*
X111271428Y100947620D02*
X111509523Y99947620D01*
X111700000Y100661905D01*
X111890476Y99947620D01*
X112128571Y100947620D01*
X112652380Y100519048D02*
X112557142Y100566667D01*
X112509523Y100614286D01*
X112461904Y100709524D01*
X112461904Y100757143D01*
X112509523Y100852381D01*
X112557142Y100900000D01*
X112652380Y100947620D01*
X112842857Y100947620D01*
X112938095Y100900000D01*
X112985714Y100852381D01*
X113033333Y100757143D01*
X113033333Y100709524D01*
X112985714Y100614286D01*
X112938095Y100566667D01*
X112842857Y100519048D01*
X112652380Y100519048D01*
X112557142Y100471429D01*
X112509523Y100423810D01*
X112461904Y100328572D01*
X112461904Y100138096D01*
X112509523Y100042858D01*
X112557142Y99995239D01*
X112652380Y99947620D01*
X112842857Y99947620D01*
X112938095Y99995239D01*
X112985714Y100042858D01*
X113033333Y100138096D01*
X113033333Y100328572D01*
X112985714Y100423810D01*
X112938095Y100471429D01*
X112842857Y100519048D01*
X128366666Y99995239D02*
X128509523Y99947620D01*
X128747619Y99947620D01*
X128842857Y99995239D01*
X128890476Y100042858D01*
X128938095Y100138096D01*
X128938095Y100233334D01*
X128890476Y100328572D01*
X128842857Y100376191D01*
X128747619Y100423810D01*
X128557142Y100471429D01*
X128461904Y100519048D01*
X128414285Y100566667D01*
X128366666Y100661905D01*
X128366666Y100757143D01*
X128414285Y100852381D01*
X128461904Y100900000D01*
X128557142Y100947620D01*
X128795238Y100947620D01*
X128938095Y100900000D01*
X129271428Y100947620D02*
X129509523Y99947620D01*
X129700000Y100661905D01*
X129890476Y99947620D01*
X130128571Y100947620D01*
X130557142Y99947620D02*
X130747619Y99947620D01*
X130842857Y99995239D01*
X130890476Y100042858D01*
X130985714Y100185715D01*
X131033333Y100376191D01*
X131033333Y100757143D01*
X130985714Y100852381D01*
X130938095Y100900000D01*
X130842857Y100947620D01*
X130652380Y100947620D01*
X130557142Y100900000D01*
X130509523Y100852381D01*
X130461904Y100757143D01*
X130461904Y100519048D01*
X130509523Y100423810D01*
X130557142Y100376191D01*
X130652380Y100328572D01*
X130842857Y100328572D01*
X130938095Y100376191D01*
X130985714Y100423810D01*
X131033333Y100519048D01*
X145890476Y99995239D02*
X146033333Y99947620D01*
X146271428Y99947620D01*
X146366666Y99995239D01*
X146414285Y100042858D01*
X146461904Y100138096D01*
X146461904Y100233334D01*
X146414285Y100328572D01*
X146366666Y100376191D01*
X146271428Y100423810D01*
X146080952Y100471429D01*
X145985714Y100519048D01*
X145938095Y100566667D01*
X145890476Y100661905D01*
X145890476Y100757143D01*
X145938095Y100852381D01*
X145985714Y100900000D01*
X146080952Y100947620D01*
X146319047Y100947620D01*
X146461904Y100900000D01*
X146795238Y100947620D02*
X147033333Y99947620D01*
X147223809Y100661905D01*
X147414285Y99947620D01*
X147652380Y100947620D01*
X148557142Y99947620D02*
X147985714Y99947620D01*
X148271428Y99947620D02*
X148271428Y100947620D01*
X148176190Y100804762D01*
X148080952Y100709524D01*
X147985714Y100661905D01*
X149176190Y100947620D02*
X149271428Y100947620D01*
X149366666Y100900000D01*
X149414285Y100852381D01*
X149461904Y100757143D01*
X149509523Y100566667D01*
X149509523Y100328572D01*
X149461904Y100138096D01*
X149414285Y100042858D01*
X149366666Y99995239D01*
X149271428Y99947620D01*
X149176190Y99947620D01*
X149080952Y99995239D01*
X149033333Y100042858D01*
X148985714Y100138096D01*
X148938095Y100328572D01*
X148938095Y100566667D01*
X148985714Y100757143D01*
X149033333Y100852381D01*
X149080952Y100900000D01*
X149176190Y100947620D01*
X163890476Y99995239D02*
X164033333Y99947620D01*
X164271428Y99947620D01*
X164366666Y99995239D01*
X164414285Y100042858D01*
X164461904Y100138096D01*
X164461904Y100233334D01*
X164414285Y100328572D01*
X164366666Y100376191D01*
X164271428Y100423810D01*
X164080952Y100471429D01*
X163985714Y100519048D01*
X163938095Y100566667D01*
X163890476Y100661905D01*
X163890476Y100757143D01*
X163938095Y100852381D01*
X163985714Y100900000D01*
X164080952Y100947620D01*
X164319047Y100947620D01*
X164461904Y100900000D01*
X164795238Y100947620D02*
X165033333Y99947620D01*
X165223809Y100661905D01*
X165414285Y99947620D01*
X165652380Y100947620D01*
X166557142Y99947620D02*
X165985714Y99947620D01*
X166271428Y99947620D02*
X166271428Y100947620D01*
X166176190Y100804762D01*
X166080952Y100709524D01*
X165985714Y100661905D01*
X167509523Y99947620D02*
X166938095Y99947620D01*
X167223809Y99947620D02*
X167223809Y100947620D01*
X167128571Y100804762D01*
X167033333Y100709524D01*
X166938095Y100661905D01*
X181890476Y99995239D02*
X182033333Y99947620D01*
X182271428Y99947620D01*
X182366666Y99995239D01*
X182414285Y100042858D01*
X182461904Y100138096D01*
X182461904Y100233334D01*
X182414285Y100328572D01*
X182366666Y100376191D01*
X182271428Y100423810D01*
X182080952Y100471429D01*
X181985714Y100519048D01*
X181938095Y100566667D01*
X181890476Y100661905D01*
X181890476Y100757143D01*
X181938095Y100852381D01*
X181985714Y100900000D01*
X182080952Y100947620D01*
X182319047Y100947620D01*
X182461904Y100900000D01*
X182795238Y100947620D02*
X183033333Y99947620D01*
X183223809Y100661905D01*
X183414285Y99947620D01*
X183652380Y100947620D01*
X184557142Y99947620D02*
X183985714Y99947620D01*
X184271428Y99947620D02*
X184271428Y100947620D01*
X184176190Y100804762D01*
X184080952Y100709524D01*
X183985714Y100661905D01*
X184938095Y100852381D02*
X184985714Y100900000D01*
X185080952Y100947620D01*
X185319047Y100947620D01*
X185414285Y100900000D01*
X185461904Y100852381D01*
X185509523Y100757143D01*
X185509523Y100661905D01*
X185461904Y100519048D01*
X184890476Y99947620D01*
X185509523Y99947620D01*
X199890476Y99995239D02*
X200033333Y99947620D01*
X200271428Y99947620D01*
X200366666Y99995239D01*
X200414285Y100042858D01*
X200461904Y100138096D01*
X200461904Y100233334D01*
X200414285Y100328572D01*
X200366666Y100376191D01*
X200271428Y100423810D01*
X200080952Y100471429D01*
X199985714Y100519048D01*
X199938095Y100566667D01*
X199890476Y100661905D01*
X199890476Y100757143D01*
X199938095Y100852381D01*
X199985714Y100900000D01*
X200080952Y100947620D01*
X200319047Y100947620D01*
X200461904Y100900000D01*
X200795238Y100947620D02*
X201033333Y99947620D01*
X201223809Y100661905D01*
X201414285Y99947620D01*
X201652380Y100947620D01*
X202557142Y99947620D02*
X201985714Y99947620D01*
X202271428Y99947620D02*
X202271428Y100947620D01*
X202176190Y100804762D01*
X202080952Y100709524D01*
X201985714Y100661905D01*
X202890476Y100947620D02*
X203509523Y100947620D01*
X203176190Y100566667D01*
X203319047Y100566667D01*
X203414285Y100519048D01*
X203461904Y100471429D01*
X203509523Y100376191D01*
X203509523Y100138096D01*
X203461904Y100042858D01*
X203414285Y99995239D01*
X203319047Y99947620D01*
X203033333Y99947620D01*
X202938095Y99995239D01*
X202890476Y100042858D01*
X217890476Y99995239D02*
X218033333Y99947620D01*
X218271428Y99947620D01*
X218366666Y99995239D01*
X218414285Y100042858D01*
X218461904Y100138096D01*
X218461904Y100233334D01*
X218414285Y100328572D01*
X218366666Y100376191D01*
X218271428Y100423810D01*
X218080952Y100471429D01*
X217985714Y100519048D01*
X217938095Y100566667D01*
X217890476Y100661905D01*
X217890476Y100757143D01*
X217938095Y100852381D01*
X217985714Y100900000D01*
X218080952Y100947620D01*
X218319047Y100947620D01*
X218461904Y100900000D01*
X218795238Y100947620D02*
X219033333Y99947620D01*
X219223809Y100661905D01*
X219414285Y99947620D01*
X219652380Y100947620D01*
X220557142Y99947620D02*
X219985714Y99947620D01*
X220271428Y99947620D02*
X220271428Y100947620D01*
X220176190Y100804762D01*
X220080952Y100709524D01*
X219985714Y100661905D01*
X221414285Y100614286D02*
X221414285Y99947620D01*
X221176190Y100995239D02*
X220938095Y100280953D01*
X221557142Y100280953D01*
X67104761Y114090477D02*
X67152380Y114233334D01*
X67152380Y114471429D01*
X67104761Y114566667D01*
X67057142Y114614286D01*
X66961904Y114661905D01*
X66866666Y114661905D01*
X66771428Y114614286D01*
X66723809Y114566667D01*
X66676190Y114471429D01*
X66628571Y114280953D01*
X66580952Y114185715D01*
X66533333Y114138096D01*
X66438095Y114090477D01*
X66342857Y114090477D01*
X66247619Y114138096D01*
X66200000Y114185715D01*
X66152380Y114280953D01*
X66152380Y114519048D01*
X66200000Y114661905D01*
X66152380Y114995239D02*
X67152380Y115233334D01*
X66438095Y115423810D01*
X67152380Y115614286D01*
X66152380Y115852381D01*
X67152380Y116757143D02*
X67152380Y116185715D01*
X67152380Y116471429D02*
X66152380Y116471429D01*
X66295238Y116376191D01*
X66390476Y116280953D01*
X66438095Y116185715D01*
X67152380Y117233334D02*
X67152380Y117423810D01*
X67104761Y117519048D01*
X67057142Y117566667D01*
X66914285Y117661905D01*
X66723809Y117709524D01*
X66342857Y117709524D01*
X66247619Y117661905D01*
X66200000Y117614286D01*
X66152380Y117519048D01*
X66152380Y117328572D01*
X66200000Y117233334D01*
X66247619Y117185715D01*
X66342857Y117138096D01*
X66580952Y117138096D01*
X66676190Y117185715D01*
X66723809Y117233334D01*
X66771428Y117328572D01*
X66771428Y117519048D01*
X66723809Y117614286D01*
X66676190Y117661905D01*
X66580952Y117709524D01*
X85104761Y114090477D02*
X85152380Y114233334D01*
X85152380Y114471429D01*
X85104761Y114566667D01*
X85057142Y114614286D01*
X84961904Y114661905D01*
X84866666Y114661905D01*
X84771428Y114614286D01*
X84723809Y114566667D01*
X84676190Y114471429D01*
X84628571Y114280953D01*
X84580952Y114185715D01*
X84533333Y114138096D01*
X84438095Y114090477D01*
X84342857Y114090477D01*
X84247619Y114138096D01*
X84200000Y114185715D01*
X84152380Y114280953D01*
X84152380Y114519048D01*
X84200000Y114661905D01*
X84152380Y114995239D02*
X85152380Y115233334D01*
X84438095Y115423810D01*
X85152380Y115614286D01*
X84152380Y115852381D01*
X84247619Y116185715D02*
X84200000Y116233334D01*
X84152380Y116328572D01*
X84152380Y116566667D01*
X84200000Y116661905D01*
X84247619Y116709524D01*
X84342857Y116757143D01*
X84438095Y116757143D01*
X84580952Y116709524D01*
X85152380Y116138096D01*
X85152380Y116757143D01*
X84152380Y117376191D02*
X84152380Y117471429D01*
X84200000Y117566667D01*
X84247619Y117614286D01*
X84342857Y117661905D01*
X84533333Y117709524D01*
X84771428Y117709524D01*
X84961904Y117661905D01*
X85057142Y117614286D01*
X85104761Y117566667D01*
X85152380Y117471429D01*
X85152380Y117376191D01*
X85104761Y117280953D01*
X85057142Y117233334D01*
X84961904Y117185715D01*
X84771428Y117138096D01*
X84533333Y117138096D01*
X84342857Y117185715D01*
X84247619Y117233334D01*
X84200000Y117280953D01*
X84152380Y117376191D01*
X211104761Y114090477D02*
X211152380Y114233334D01*
X211152380Y114471429D01*
X211104761Y114566667D01*
X211057142Y114614286D01*
X210961904Y114661905D01*
X210866666Y114661905D01*
X210771428Y114614286D01*
X210723809Y114566667D01*
X210676190Y114471429D01*
X210628571Y114280953D01*
X210580952Y114185715D01*
X210533333Y114138096D01*
X210438095Y114090477D01*
X210342857Y114090477D01*
X210247619Y114138096D01*
X210200000Y114185715D01*
X210152380Y114280953D01*
X210152380Y114519048D01*
X210200000Y114661905D01*
X210152380Y114995239D02*
X211152380Y115233334D01*
X210438095Y115423810D01*
X211152380Y115614286D01*
X210152380Y115852381D01*
X210247619Y116185715D02*
X210200000Y116233334D01*
X210152380Y116328572D01*
X210152380Y116566667D01*
X210200000Y116661905D01*
X210247619Y116709524D01*
X210342857Y116757143D01*
X210438095Y116757143D01*
X210580952Y116709524D01*
X211152380Y116138096D01*
X211152380Y116757143D01*
X210152380Y117661905D02*
X210152380Y117185715D01*
X210628571Y117138096D01*
X210580952Y117185715D01*
X210533333Y117280953D01*
X210533333Y117519048D01*
X210580952Y117614286D01*
X210628571Y117661905D01*
X210723809Y117709524D01*
X210961904Y117709524D01*
X211057142Y117661905D01*
X211104761Y117614286D01*
X211152380Y117519048D01*
X211152380Y117280953D01*
X211104761Y117185715D01*
X211057142Y117138096D01*
X229104761Y114090477D02*
X229152380Y114233334D01*
X229152380Y114471429D01*
X229104761Y114566667D01*
X229057142Y114614286D01*
X228961904Y114661905D01*
X228866666Y114661905D01*
X228771428Y114614286D01*
X228723809Y114566667D01*
X228676190Y114471429D01*
X228628571Y114280953D01*
X228580952Y114185715D01*
X228533333Y114138096D01*
X228438095Y114090477D01*
X228342857Y114090477D01*
X228247619Y114138096D01*
X228200000Y114185715D01*
X228152380Y114280953D01*
X228152380Y114519048D01*
X228200000Y114661905D01*
X228152380Y114995239D02*
X229152380Y115233334D01*
X228438095Y115423810D01*
X229152380Y115614286D01*
X228152380Y115852381D01*
X228247619Y116185715D02*
X228200000Y116233334D01*
X228152380Y116328572D01*
X228152380Y116566667D01*
X228200000Y116661905D01*
X228247619Y116709524D01*
X228342857Y116757143D01*
X228438095Y116757143D01*
X228580952Y116709524D01*
X229152380Y116138096D01*
X229152380Y116757143D01*
X228152380Y117614286D02*
X228152380Y117423810D01*
X228200000Y117328572D01*
X228247619Y117280953D01*
X228390476Y117185715D01*
X228580952Y117138096D01*
X228961904Y117138096D01*
X229057142Y117185715D01*
X229104761Y117233334D01*
X229152380Y117328572D01*
X229152380Y117519048D01*
X229104761Y117614286D01*
X229057142Y117661905D01*
X228961904Y117709524D01*
X228723809Y117709524D01*
X228628571Y117661905D01*
X228580952Y117614286D01*
X228533333Y117519048D01*
X228533333Y117328572D01*
X228580952Y117233334D01*
X228628571Y117185715D01*
X228723809Y117138096D01*
X-2091905Y128372620D02*
X-2091905Y127563096D01*
X-2044286Y127467858D01*
X-1996667Y127420239D01*
X-1901429Y127372620D01*
X-1710953Y127372620D01*
X-1615715Y127420239D01*
X-1568096Y127467858D01*
X-1520477Y127563096D01*
X-1520477Y128372620D01*
X-520477Y127372620D02*
X-1091905Y127372620D01*
X-806191Y127372620D02*
X-806191Y128372620D01*
X-901429Y128229762D01*
X-996667Y128134524D01*
X-1091905Y128086905D01*
M02*
