%TF.GenerationSoftware,KiCad,Pcbnew,5.1.6*%
%TF.CreationDate,2020-11-05T20:15:49+01:00*%
%TF.ProjectId,OTTO_AUX_SMD,4f54544f-5f41-4555-985f-534d442e6b69,rev?*%
%TF.SameCoordinates,Original*%
%TF.FileFunction,Profile,NP*%
%FSLAX46Y46*%
G04 Gerber Fmt 4.6, Leading zero omitted, Abs format (unit mm)*
G04 Created by KiCad (PCBNEW 5.1.6) date 2020-11-05 20:15:49*
%MOMM*%
%LPD*%
G01*
G04 APERTURE LIST*
%TA.AperFunction,Profile*%
%ADD10C,0.150000*%
%TD*%
G04 APERTURE END LIST*
D10*
X305470000Y-100340000D02*
G75*
G02*
X301220000Y-104590000I-4250000J0D01*
G01*
X21180000Y-104590000D02*
G75*
G02*
X16930000Y-100340000I0J4250000D01*
G01*
X16930000Y-13840000D02*
G75*
G02*
X21180000Y-9590000I4250000J0D01*
G01*
X301220000Y-9590000D02*
G75*
G02*
X305470000Y-13840000I0J-4250000D01*
G01*
X16930000Y-13840000D02*
X16930000Y-100340000D01*
X25550000Y-9590000D02*
X21180000Y-9590000D01*
X21180000Y-104590000D02*
X31950000Y-104590000D01*
X110970000Y-15600000D02*
X116970000Y-15600000D01*
X290450000Y-103590000D02*
X284450000Y-103590000D01*
X206420000Y-15590000D02*
X206420000Y-11270000D01*
X286600000Y-15590000D02*
X286600000Y-11270000D01*
X290450000Y-103590000D02*
X290450000Y-104590000D01*
X109950000Y-103610000D02*
X109950000Y-104590000D01*
X286600000Y-11270000D02*
X280600000Y-11270000D01*
X25550000Y-11270000D02*
X47550000Y-11270000D01*
X53550000Y-11270000D02*
X110970000Y-11270000D01*
X201420000Y-9590000D02*
X201420000Y-11270000D01*
X280600000Y-11270000D02*
X280600000Y-9590000D01*
X218450000Y-103610000D02*
X218450000Y-104590000D01*
X292600000Y-15590000D02*
X292600000Y-11270000D01*
X109950000Y-103610000D02*
X103950000Y-103610000D01*
X297230000Y-11270000D02*
X297230000Y-9590000D01*
X53550000Y-15590000D02*
X53550000Y-11270000D01*
X212450000Y-103610000D02*
X212450000Y-104590000D01*
X109950000Y-104590000D02*
X212450000Y-104590000D01*
X286600000Y-15590000D02*
X292600000Y-15590000D01*
X128970000Y-11270000D02*
X128970000Y-9590000D01*
X284450000Y-103590000D02*
X284450000Y-104590000D01*
X128970000Y-9590000D02*
X201420000Y-9590000D01*
X47550000Y-15590000D02*
X53550000Y-15590000D01*
X218450000Y-103610000D02*
X212450000Y-103610000D01*
X212420000Y-15590000D02*
X212420000Y-11270000D01*
X31950000Y-103610000D02*
X31950000Y-104590000D01*
X212420000Y-11270000D02*
X266190000Y-11270000D01*
X47550000Y-15590000D02*
X47550000Y-11270000D01*
X110970000Y-15600000D02*
X110970000Y-11270000D01*
X103950000Y-103610000D02*
X103950000Y-104590000D01*
X37950000Y-104590000D02*
X103950000Y-104590000D01*
X37950000Y-103610000D02*
X37950000Y-104590000D01*
X266190000Y-11270000D02*
X266190000Y-9590000D01*
X206420000Y-15590000D02*
X212420000Y-15590000D01*
X25550000Y-9590000D02*
X25550000Y-11270000D01*
X116970000Y-11270000D02*
X128970000Y-11270000D01*
X116970000Y-15600000D02*
X116970000Y-11270000D01*
X201420000Y-11270000D02*
X206420000Y-11270000D01*
X266190000Y-9590000D02*
X280600000Y-9590000D01*
X301220000Y-9590000D02*
X297230000Y-9590000D01*
X290450000Y-104590000D02*
X301220000Y-104590000D01*
X37950000Y-103610000D02*
X31950000Y-103610000D01*
X297230000Y-11270000D02*
X292600000Y-11270000D01*
X218450000Y-104590000D02*
X284450000Y-104590000D01*
X216600000Y-73200000D02*
G75*
G02*
X215800000Y-74000000I-800000J0D01*
G01*
X207200000Y-74000000D02*
G75*
G02*
X206400000Y-73200000I0J800000D01*
G01*
X215800000Y-66000000D02*
G75*
G02*
X216600000Y-66800000I0J-800000D01*
G01*
X206400000Y-66800000D02*
G75*
G02*
X207200000Y-66000000I800000J0D01*
G01*
X206400000Y-73200000D02*
X206400000Y-66800000D01*
X215800000Y-74000000D02*
X207200000Y-74000000D01*
X216600000Y-66800000D02*
X216600000Y-73200000D01*
X207200000Y-66000000D02*
X215800000Y-66000000D01*
X71750000Y-41000000D02*
G75*
G02*
X71250000Y-40500000I0J500000D01*
G01*
X71250000Y-33500000D02*
G75*
G02*
X71750000Y-33000000I500000J0D01*
G01*
X81750000Y-33000000D02*
G75*
G02*
X82250000Y-33500000I0J-500000D01*
G01*
X82250000Y-40500000D02*
G75*
G02*
X81750000Y-41000000I-500000J0D01*
G01*
X71250000Y-40500000D02*
X71250000Y-33500000D01*
X81750000Y-41000000D02*
X71750000Y-41000000D01*
X82250000Y-33500000D02*
X82250000Y-40500000D01*
X71750000Y-33000000D02*
X81750000Y-33000000D01*
X279320000Y-13800000D02*
G75*
G03*
X279320000Y-13800000I-3250000J0D01*
G01*
X162050000Y-53386218D02*
G75*
G02*
X161300000Y-52636218I0J750000D01*
G01*
X168500000Y-52636218D02*
G75*
G02*
X167750000Y-53386218I-750000J0D01*
G01*
X161298959Y-27136218D02*
G75*
G02*
X162048959Y-26386218I750000J0D01*
G01*
X167750000Y-26386218D02*
G75*
G02*
X168500000Y-27136218I0J-750000D01*
G01*
X162048959Y-26386218D02*
X167750000Y-26386218D01*
X162050000Y-53386218D02*
X167750000Y-53386218D01*
X161298959Y-27136218D02*
X161300000Y-52636218D01*
X168500000Y-27136218D02*
X168500000Y-52636218D01*
X1666666Y0D02*
G75*
G03*
X1666666Y0I-1666666J0D01*
G01*
X-2500000Y0D02*
X2500000Y0D01*
X0Y2500000D02*
X0Y-2500000D01*
X1666666Y-114300000D02*
G75*
G03*
X1666666Y-114300000I-1666666J0D01*
G01*
X-2500000Y-114300000D02*
X2500000Y-114300000D01*
X0Y-111800000D02*
X0Y-116800000D01*
X331866666Y-114300000D02*
G75*
G03*
X331866666Y-114300000I-1666666J0D01*
G01*
X327700000Y-114300000D02*
X332700000Y-114300000D01*
X330200000Y-111800000D02*
X330200000Y-116800000D01*
X331866666Y0D02*
G75*
G03*
X331866666Y0I-1666666J0D01*
G01*
X327700000Y0D02*
X332700000Y0D01*
X330200000Y2500000D02*
X330200000Y-2500000D01*
X305470000Y-100340000D02*
X305470000Y-13840000D01*
M02*
