%TF.GenerationSoftware,KiCad,Pcbnew,5.1.6*%
%TF.CreationDate,2020-06-25T21:19:21+02:00*%
%TF.ProjectId,OTTO_AUX_SMD,4f54544f-5f41-4555-985f-534d442e6b69,rev?*%
%TF.SameCoordinates,PX269fb20PYbb65a20*%
%TF.FileFunction,Paste,Bot*%
%TF.FilePolarity,Positive*%
%FSLAX46Y46*%
G04 Gerber Fmt 4.6, Leading zero omitted, Abs format (unit mm)*
G04 Created by KiCad (PCBNEW 5.1.6) date 2020-06-25 21:19:21*
%MOMM*%
%LPD*%
G01*
G04 APERTURE LIST*
%ADD10R,3.000000X2.500000*%
%ADD11R,1.300000X0.300000*%
G04 APERTURE END LIST*
D10*
X106501041Y170775000D03*
X106501041Y142475000D03*
D11*
X104151041Y144375000D03*
X104151041Y144875000D03*
X104151041Y145375000D03*
X104151041Y145875000D03*
X104151041Y146375000D03*
X104151041Y146875000D03*
X104151041Y147375000D03*
X104151041Y147875000D03*
X104151041Y148375000D03*
X104151041Y148875000D03*
X104151041Y149375000D03*
X104151041Y149875000D03*
X104151041Y150375000D03*
X104151041Y150875000D03*
X104151041Y151375000D03*
X104151041Y151875000D03*
X104151041Y152375000D03*
X104151041Y152875000D03*
X104151041Y153375000D03*
X104151041Y153875000D03*
X104151041Y154375000D03*
X104151041Y154875000D03*
X104151041Y155375000D03*
X104151041Y155875000D03*
X104151041Y156375000D03*
X104151041Y156875000D03*
X104151041Y157375000D03*
X104151041Y157875000D03*
X104151041Y158375000D03*
X104151041Y158875000D03*
X104151041Y159375000D03*
X104151041Y159875000D03*
X104151041Y160375000D03*
X104151041Y160875000D03*
X104151041Y161375000D03*
X104151041Y161875000D03*
X104151041Y162375000D03*
X104151041Y162875000D03*
X104151041Y163375000D03*
X104151041Y163875000D03*
X104151041Y164375000D03*
X104151041Y164875000D03*
X104151041Y165375000D03*
X104151041Y165875000D03*
X104151041Y166375000D03*
X104151041Y166875000D03*
X104151041Y167375000D03*
X104151041Y167875000D03*
X104151041Y168375000D03*
X104151041Y168875000D03*
M02*
