%TF.GenerationSoftware,KiCad,Pcbnew,5.1.6*%
%TF.CreationDate,2020-11-05T20:15:49+01:00*%
%TF.ProjectId,OTTO_AUX_SMD,4f54544f-5f41-4555-985f-534d442e6b69,rev?*%
%TF.SameCoordinates,Original*%
%TF.FileFunction,Legend,Bot*%
%TF.FilePolarity,Positive*%
%FSLAX46Y46*%
G04 Gerber Fmt 4.6, Leading zero omitted, Abs format (unit mm)*
G04 Created by KiCad (PCBNEW 5.1.6) date 2020-11-05 20:15:49*
%MOMM*%
%LPD*%
G01*
G04 APERTURE LIST*
%ADD10C,0.150000*%
%ADD11C,0.120000*%
G04 APERTURE END LIST*
D10*
X274039047Y-102802380D02*
X274039047Y-103516666D01*
X274086666Y-103659523D01*
X274181904Y-103754761D01*
X274324761Y-103802380D01*
X274420000Y-103802380D01*
X273086666Y-103802380D02*
X273562857Y-103802380D01*
X273562857Y-102802380D01*
X272181904Y-103707142D02*
X272229523Y-103754761D01*
X272372380Y-103802380D01*
X272467619Y-103802380D01*
X272610476Y-103754761D01*
X272705714Y-103659523D01*
X272753333Y-103564285D01*
X272800952Y-103373809D01*
X272800952Y-103230952D01*
X272753333Y-103040476D01*
X272705714Y-102945238D01*
X272610476Y-102850000D01*
X272467619Y-102802380D01*
X272372380Y-102802380D01*
X272229523Y-102850000D01*
X272181904Y-102897619D01*
X271467619Y-102802380D02*
X271467619Y-103516666D01*
X271515238Y-103659523D01*
X271610476Y-103754761D01*
X271753333Y-103802380D01*
X271848571Y-103802380D01*
X270515238Y-103802380D02*
X270991428Y-103802380D01*
X270991428Y-102802380D01*
X269610476Y-103707142D02*
X269658095Y-103754761D01*
X269800952Y-103802380D01*
X269896190Y-103802380D01*
X270039047Y-103754761D01*
X270134285Y-103659523D01*
X270181904Y-103564285D01*
X270229523Y-103373809D01*
X270229523Y-103230952D01*
X270181904Y-103040476D01*
X270134285Y-102945238D01*
X270039047Y-102850000D01*
X269896190Y-102802380D01*
X269800952Y-102802380D01*
X269658095Y-102850000D01*
X269610476Y-102897619D01*
X268896190Y-102802380D02*
X268896190Y-103516666D01*
X268943809Y-103659523D01*
X269039047Y-103754761D01*
X269181904Y-103802380D01*
X269277142Y-103802380D01*
X267943809Y-103802380D02*
X268420000Y-103802380D01*
X268420000Y-102802380D01*
X267039047Y-103707142D02*
X267086666Y-103754761D01*
X267229523Y-103802380D01*
X267324761Y-103802380D01*
X267467619Y-103754761D01*
X267562857Y-103659523D01*
X267610476Y-103564285D01*
X267658095Y-103373809D01*
X267658095Y-103230952D01*
X267610476Y-103040476D01*
X267562857Y-102945238D01*
X267467619Y-102850000D01*
X267324761Y-102802380D01*
X267229523Y-102802380D01*
X267086666Y-102850000D01*
X267039047Y-102897619D01*
X266324761Y-102802380D02*
X266324761Y-103516666D01*
X266372380Y-103659523D01*
X266467619Y-103754761D01*
X266610476Y-103802380D01*
X266705714Y-103802380D01*
X265372380Y-103802380D02*
X265848571Y-103802380D01*
X265848571Y-102802380D01*
X264467619Y-103707142D02*
X264515238Y-103754761D01*
X264658095Y-103802380D01*
X264753333Y-103802380D01*
X264896190Y-103754761D01*
X264991428Y-103659523D01*
X265039047Y-103564285D01*
X265086666Y-103373809D01*
X265086666Y-103230952D01*
X265039047Y-103040476D01*
X264991428Y-102945238D01*
X264896190Y-102850000D01*
X264753333Y-102802380D01*
X264658095Y-102802380D01*
X264515238Y-102850000D01*
X264467619Y-102897619D01*
D11*
X145201041Y-52535000D02*
X144001041Y-52535000D01*
X150001041Y-25725000D02*
X149261041Y-25725000D01*
X150001041Y-54025000D02*
X150001041Y-25725000D01*
X149261041Y-54025000D02*
X150001041Y-54025000D01*
X145201041Y-27215000D02*
X145201041Y-25725000D01*
X145201041Y-52535000D02*
X145201041Y-54025000D01*
X125352400Y-38740200D02*
X126174870Y-38740200D01*
X128059930Y-38740200D02*
X128882400Y-38740200D01*
X126789930Y-38740200D02*
X127444870Y-38740200D01*
X125352400Y-43755200D02*
X125352400Y-38740200D01*
X128882400Y-45210200D02*
X128882400Y-38740200D01*
X125352400Y-43755200D02*
X125918929Y-43755200D01*
X127045871Y-43755200D02*
X127188929Y-43755200D01*
X127242400Y-43808671D02*
X127242400Y-43951729D01*
X127242400Y-45078671D02*
X127242400Y-45210200D01*
X127242400Y-45210200D02*
X127444870Y-45210200D01*
X128059930Y-45210200D02*
X128882400Y-45210200D01*
X125352400Y-44515200D02*
X125352400Y-45275200D01*
X125352400Y-45275200D02*
X126482400Y-45275200D01*
X22540000Y-76235000D02*
X21717530Y-76235000D01*
X19832470Y-76235000D02*
X19010000Y-76235000D01*
X21102470Y-76235000D02*
X20447530Y-76235000D01*
X22540000Y-71220000D02*
X22540000Y-76235000D01*
X19010000Y-69765000D02*
X19010000Y-76235000D01*
X22540000Y-71220000D02*
X21973471Y-71220000D01*
X20846529Y-71220000D02*
X20703471Y-71220000D01*
X20650000Y-71166529D02*
X20650000Y-71023471D01*
X20650000Y-69896529D02*
X20650000Y-69765000D01*
X20650000Y-69765000D02*
X20447530Y-69765000D01*
X19832470Y-69765000D02*
X19010000Y-69765000D01*
X22540000Y-70460000D02*
X22540000Y-69700000D01*
X22540000Y-69700000D02*
X21410000Y-69700000D01*
D10*
X156679612Y-27613095D02*
X156679612Y-27279761D01*
X157203421Y-27279761D02*
X156203421Y-27279761D01*
X156203421Y-27755952D01*
X156203421Y-28327380D02*
X156203421Y-28517857D01*
X156251041Y-28613095D01*
X156346279Y-28708333D01*
X156536755Y-28755952D01*
X156870088Y-28755952D01*
X157060564Y-28708333D01*
X157155802Y-28613095D01*
X157203421Y-28517857D01*
X157203421Y-28327380D01*
X157155802Y-28232142D01*
X157060564Y-28136904D01*
X156870088Y-28089285D01*
X156536755Y-28089285D01*
X156346279Y-28136904D01*
X156251041Y-28232142D01*
X156203421Y-28327380D01*
X157203421Y-29660714D02*
X157203421Y-29184523D01*
X156203421Y-29184523D01*
X157203421Y-29994047D02*
X156203421Y-29994047D01*
X156203421Y-30232142D01*
X156251041Y-30375000D01*
X156346279Y-30470238D01*
X156441517Y-30517857D01*
X156631993Y-30565476D01*
X156774850Y-30565476D01*
X156965326Y-30517857D01*
X157060564Y-30470238D01*
X157155802Y-30375000D01*
X157203421Y-30232142D01*
X157203421Y-29994047D01*
X157108183Y-32327380D02*
X157155802Y-32279761D01*
X157203421Y-32136904D01*
X157203421Y-32041666D01*
X157155802Y-31898809D01*
X157060564Y-31803571D01*
X156965326Y-31755952D01*
X156774850Y-31708333D01*
X156631993Y-31708333D01*
X156441517Y-31755952D01*
X156346279Y-31803571D01*
X156251041Y-31898809D01*
X156203421Y-32041666D01*
X156203421Y-32136904D01*
X156251041Y-32279761D01*
X156298660Y-32327380D01*
X156203421Y-32946428D02*
X156203421Y-33136904D01*
X156251041Y-33232142D01*
X156346279Y-33327380D01*
X156536755Y-33375000D01*
X156870088Y-33375000D01*
X157060564Y-33327380D01*
X157155802Y-33232142D01*
X157203421Y-33136904D01*
X157203421Y-32946428D01*
X157155802Y-32851190D01*
X157060564Y-32755952D01*
X156870088Y-32708333D01*
X156536755Y-32708333D01*
X156346279Y-32755952D01*
X156251041Y-32851190D01*
X156203421Y-32946428D01*
X157203421Y-33803571D02*
X156203421Y-33803571D01*
X157203421Y-34375000D01*
X156203421Y-34375000D01*
X157203421Y-34851190D02*
X156203421Y-34851190D01*
X157203421Y-35422619D01*
X156203421Y-35422619D01*
X156679612Y-35898809D02*
X156679612Y-36232142D01*
X157203421Y-36375000D02*
X157203421Y-35898809D01*
X156203421Y-35898809D01*
X156203421Y-36375000D01*
X157108183Y-37375000D02*
X157155802Y-37327380D01*
X157203421Y-37184523D01*
X157203421Y-37089285D01*
X157155802Y-36946428D01*
X157060564Y-36851190D01*
X156965326Y-36803571D01*
X156774850Y-36755952D01*
X156631993Y-36755952D01*
X156441517Y-36803571D01*
X156346279Y-36851190D01*
X156251041Y-36946428D01*
X156203421Y-37089285D01*
X156203421Y-37184523D01*
X156251041Y-37327380D01*
X156298660Y-37375000D01*
X156203421Y-37660714D02*
X156203421Y-38232142D01*
X157203421Y-37946428D02*
X156203421Y-37946428D01*
X156203421Y-38755952D02*
X156203421Y-38946428D01*
X156251041Y-39041666D01*
X156346279Y-39136904D01*
X156536755Y-39184523D01*
X156870088Y-39184523D01*
X157060564Y-39136904D01*
X157155802Y-39041666D01*
X157203421Y-38946428D01*
X157203421Y-38755952D01*
X157155802Y-38660714D01*
X157060564Y-38565476D01*
X156870088Y-38517857D01*
X156536755Y-38517857D01*
X156346279Y-38565476D01*
X156251041Y-38660714D01*
X156203421Y-38755952D01*
X157203421Y-40184523D02*
X156727231Y-39851190D01*
X157203421Y-39613095D02*
X156203421Y-39613095D01*
X156203421Y-39994047D01*
X156251041Y-40089285D01*
X156298660Y-40136904D01*
X156393898Y-40184523D01*
X156536755Y-40184523D01*
X156631993Y-40136904D01*
X156679612Y-40089285D01*
X156727231Y-39994047D01*
X156727231Y-39613095D01*
X156203421Y-41232142D02*
X156203421Y-41803571D01*
X157203421Y-41517857D02*
X156203421Y-41517857D01*
X157203421Y-42136904D02*
X156203421Y-42136904D01*
X156679612Y-42136904D02*
X156679612Y-42708333D01*
X157203421Y-42708333D02*
X156203421Y-42708333D01*
X157203421Y-43755952D02*
X156727231Y-43422619D01*
X157203421Y-43184523D02*
X156203421Y-43184523D01*
X156203421Y-43565476D01*
X156251041Y-43660714D01*
X156298660Y-43708333D01*
X156393898Y-43755952D01*
X156536755Y-43755952D01*
X156631993Y-43708333D01*
X156679612Y-43660714D01*
X156727231Y-43565476D01*
X156727231Y-43184523D01*
X156203421Y-44375000D02*
X156203421Y-44565476D01*
X156251041Y-44660714D01*
X156346279Y-44755952D01*
X156536755Y-44803571D01*
X156870088Y-44803571D01*
X157060564Y-44755952D01*
X157155802Y-44660714D01*
X157203421Y-44565476D01*
X157203421Y-44375000D01*
X157155802Y-44279761D01*
X157060564Y-44184523D01*
X156870088Y-44136904D01*
X156536755Y-44136904D01*
X156346279Y-44184523D01*
X156251041Y-44279761D01*
X156203421Y-44375000D01*
X156203421Y-45232142D02*
X157012945Y-45232142D01*
X157108183Y-45279761D01*
X157155802Y-45327380D01*
X157203421Y-45422619D01*
X157203421Y-45613095D01*
X157155802Y-45708333D01*
X157108183Y-45755952D01*
X157012945Y-45803571D01*
X156203421Y-45803571D01*
X156251041Y-46803571D02*
X156203421Y-46708333D01*
X156203421Y-46565476D01*
X156251041Y-46422619D01*
X156346279Y-46327380D01*
X156441517Y-46279761D01*
X156631993Y-46232142D01*
X156774850Y-46232142D01*
X156965326Y-46279761D01*
X157060564Y-46327380D01*
X157155802Y-46422619D01*
X157203421Y-46565476D01*
X157203421Y-46660714D01*
X157155802Y-46803571D01*
X157108183Y-46851190D01*
X156774850Y-46851190D01*
X156774850Y-46660714D01*
X157203421Y-47279761D02*
X156203421Y-47279761D01*
X156679612Y-47279761D02*
X156679612Y-47851190D01*
X157203421Y-47851190D02*
X156203421Y-47851190D01*
X157203421Y-49089285D02*
X156203421Y-49089285D01*
X156679612Y-49089285D02*
X156679612Y-49660714D01*
X157203421Y-49660714D02*
X156203421Y-49660714D01*
X156679612Y-50136904D02*
X156679612Y-50470238D01*
X157203421Y-50613095D02*
X157203421Y-50136904D01*
X156203421Y-50136904D01*
X156203421Y-50613095D01*
X157203421Y-51613095D02*
X156727231Y-51279761D01*
X157203421Y-51041666D02*
X156203421Y-51041666D01*
X156203421Y-51422619D01*
X156251041Y-51517857D01*
X156298660Y-51565476D01*
X156393898Y-51613095D01*
X156536755Y-51613095D01*
X156631993Y-51565476D01*
X156679612Y-51517857D01*
X156727231Y-51422619D01*
X156727231Y-51041666D01*
X156679612Y-52041666D02*
X156679612Y-52375000D01*
X157203421Y-52517857D02*
X157203421Y-52041666D01*
X156203421Y-52041666D01*
X156203421Y-52517857D01*
X124123333Y-41752380D02*
X124123333Y-42466666D01*
X124170952Y-42609523D01*
X124266190Y-42704761D01*
X124409047Y-42752380D01*
X124504285Y-42752380D01*
X123694761Y-41847619D02*
X123647142Y-41800000D01*
X123551904Y-41752380D01*
X123313809Y-41752380D01*
X123218571Y-41800000D01*
X123170952Y-41847619D01*
X123123333Y-41942857D01*
X123123333Y-42038095D01*
X123170952Y-42180952D01*
X123742380Y-42752380D01*
X123123333Y-42752380D01*
X21108333Y-68217380D02*
X21108333Y-68931666D01*
X21155952Y-69074523D01*
X21251190Y-69169761D01*
X21394047Y-69217380D01*
X21489285Y-69217380D01*
X20108333Y-69217380D02*
X20679761Y-69217380D01*
X20394047Y-69217380D02*
X20394047Y-68217380D01*
X20489285Y-68360238D01*
X20584523Y-68455476D01*
X20679761Y-68503095D01*
M02*
