M48
; DRILL file {KiCad 5.1.5} date 2020-03-25T20:50:48 CET
; FORMAT={-:-/ absolute / inch / decimal}
; #@! TF.CreationDate,2020-03-25T20:50:48+01:00
; #@! TF.GenerationSoftware,Kicad,Pcbnew,5.1.5
FMAT,2
INCH
T1C0.0157
T2C0.0177
T3C0.0197
T4C0.0236
T5C0.0256
T6C0.0276
T7C0.0315
T8C0.0374
T9C0.0394
T10C0.0402
T11C0.0433
T12C0.0454
T13C0.0591
T14C0.0906
T15C0.1063
T16C0.0472
T17C0.0709
T18C0.1024
T19C0.1102
%
G90
G05
T2
X0.0748Y2.5866
X0.0748Y2.5039
X0.0748Y2.437
X0.0748Y2.0276
X0.0748Y1.9528
X0.0748Y1.8425
X0.124Y1.6083
X0.124Y1.5748
X0.124Y1.5236
X0.124Y1.4902
X0.1535Y3.1772
X0.1535Y3.0512
X0.1575Y1.6083
X0.1575Y1.5748
X0.1575Y1.5236
X0.1575Y1.4902
X0.1614Y2.3819
X0.1614Y2.1496
X0.1614Y1.8425
X0.1654Y1.2362
X0.1654Y0.4921
X0.2362Y2.0709
X0.2362Y1.8425
X0.2953Y1.6831
X0.2953Y1.6496
X0.3228Y2.2402
X0.3287Y1.6831
X0.3287Y1.6496
X0.3307Y2.5413
X0.3307Y2.5079
X0.3307Y2.4744
X0.3307Y2.4409
X0.3425Y2.4016
X0.374Y1.2362
X0.3819Y2.2402
X0.4331Y2.6772
X0.4331Y2.437
X0.435Y2.4882
X0.4409Y2.6102
X0.4409Y2.5768
X0.4409Y2.5433
X0.4409Y2.2402
X0.4488Y2.4016
X0.4636Y0.311
X0.4685Y2.4882
X0.4744Y2.6102
X0.4823Y1.4173
X0.4921Y1.2362
X0.4921Y1.063
X0.502Y2.4882
X0.5059Y1.7028
X0.5079Y2.6102
X0.5354Y2.4882
X0.5354Y1.6378
X0.562Y1.2343
X0.5866Y2.2992
X0.5886Y2.5768
X0.6457Y2.2402
X0.6457Y2.1772
X0.6476Y0.7972
X0.6693Y1.7244
X0.6693Y1.6811
X0.6713Y2.2992
X0.6988Y2.3661
X0.7185Y1.6535
X0.7343Y0.7028
X0.7343Y0.5217
X0.752Y2.0433
X0.752Y1.9921
X0.7579Y1.3287
X0.7579Y1.2894
X0.7579Y1.25
X0.7972Y1.5689
X0.7972Y1.5354
X0.7972Y1.3681
X0.7972Y1.3287
X0.8031Y2.3465
X0.8031Y0.4567
X0.8031Y0.3504
X0.8031Y0.2047
X0.8307Y1.5689
X0.8307Y1.5354
X0.8425Y0.7441
X0.8445Y2.8898
X0.8445Y2.8563
X0.8622Y2.3465
X0.8701Y2.6614
X0.878Y2.8898
X0.878Y2.8563
X0.878Y0.8307
X0.8819Y2.2559
X0.8858Y1.8169
X0.9035Y2.4843
X0.9035Y2.4429
X0.9055Y1.2008
X0.9134Y0.9252
X0.9173Y0.4567
X0.9173Y0.3504
X0.9173Y0.2047
X0.9193Y1.6043
X0.937Y2.5433
X0.9587Y1.6043
X0.9744Y1.2008
X0.9843Y2.374
X0.9872Y0.2077
X1.0413Y2.374
X1.0433Y2.8898
X1.0433Y2.8563
X1.0463Y1.1467
X1.0472Y1.6535
X1.0709Y1.4134
X1.0709Y1.378
X1.0709Y1.3425
X1.0768Y2.8898
X1.0768Y2.8563
X1.0906Y0.628
X1.1024Y2.1575
X1.1555Y1.7657
X1.2402Y0.2835
X1.2795Y1.8189
X1.3287Y1.8189
X1.374Y3.0118
X1.374Y2.9724
X1.374Y2.9331
X1.3858Y0.8307
X1.4272Y1.4459
X1.4272Y1.4774
X1.4469Y1.9547
X1.5079Y2.94
X1.5079Y2.9075
X1.5079Y0.5591
X1.5079Y0.4567
X1.5079Y0.3504
X1.5079Y0.2126
X1.5354Y2.7185
X1.5374Y2.3957
X1.5492Y0.8386
X1.563Y2.939
X1.563Y2.9075
X1.5748Y2.9921
X1.5787Y2.561
X1.5787Y2.2323
X1.5807Y1.9074
X1.5807Y1.8759
X1.5827Y1.6811
X1.6024Y2.122
X1.6102Y1.8504
X1.6181Y2.3957
X1.6378Y0.5591
X1.6378Y0.4567
X1.6378Y0.3504
X1.6378Y0.2126
X1.6457Y2.1024
X1.6457Y1.2697
X1.6467Y1.5433
X1.6594Y2.5353
X1.6732Y3.0118
X1.6732Y2.9724
X1.6732Y2.9331
X1.6732Y2.8937
X1.6732Y2.8543
X1.6988Y2.3957
X1.6988Y2.1476
X1.7028Y1.5285
X1.7106Y0.1526
X1.7461Y1.4449
X1.752Y1.9488
X1.752Y1.8898
X1.7726Y1.4272
X1.7815Y0.56
X1.7894Y2.6516
X1.7913Y1.2165
X1.7913Y1.1614
X1.8051Y1.4272
X1.81Y0.5906
X1.811Y1.3622
X1.8228Y2.3602
X1.8228Y2.3209
X1.8228Y2.2657
X1.8307Y2.1969
X1.8406Y3.4941
X1.8415Y1.3829
X1.8425Y1.6457
X1.8425Y2.0413
X1.8504Y2.6909
X1.8632Y1.2707
X1.878Y2.3504
X1.9016Y2.0433
X1.9016Y1.9331
X1.9016Y1.8819
X1.9065Y2.8917
X1.9154Y0.815
X1.9163Y1.3228
X1.9173Y1.2165
X1.9409Y1.122
X1.9488Y2.7598
X1.9488Y2.6516
X1.9528Y1.6417
X1.9567Y2.0433
X1.9685Y0.9528
X1.9744Y1.6673
X1.9833Y1.3563
X1.9882Y0.311
X1.9921Y2.2933
X1.9921Y2.2402
X1.9921Y2.2028
X1.998Y1.6949
X1.998Y1.122
X2.0039Y1.9193
X2.0049Y2.9596
X2.0118Y2.0433
X2.0128Y2.9213
X2.0157Y2.3346
X2.0285Y1.2982
X2.0315Y1.7323
X2.0354Y1.8524
X2.0354Y1.8169
X2.0463Y2.6811
X2.0551Y1.122
X2.0551Y0.9528
X2.0591Y1.2717
X2.0797Y1.0837
X2.0846Y1.9193
X2.0846Y1.8819
X2.1053Y2.6437
X2.1063Y2.5827
X2.1063Y1.0413
X2.1181Y2.3366
X2.1181Y2.2933
X2.1181Y2.2402
X2.13Y2.2106
X2.1317Y2.6015
X2.1457Y0.9833
X2.1535Y0.626
X2.186Y1.4439
X2.188Y1.7323
X2.189Y1.7913
X2.189Y1.8406
X2.2008Y2.1969
X2.2106Y2.0079
X2.2117Y1.758
X2.2323Y2.1535
X2.2421Y1.5285
X2.2441Y0.4567
X2.2441Y0.3504
X2.2441Y0.2165
X2.2667Y1.4439
X2.3031Y0.8396
X2.3031Y0.626
X2.3314Y1.9011
X2.3425Y1.8031
X2.3425Y1.7028
X2.3425Y1.6614
X2.3435Y1.7343
X2.3445Y1.2963
X2.3504Y0.4567
X2.3504Y0.3504
X2.3504Y0.2165
X2.3524Y2.1555
X2.3524Y2.1555
X2.3535Y1.8701
X2.4026Y1.2697
X2.4094Y3.0354
X2.4331Y2.8937
X2.44Y3.0935
X2.4528Y0.626
X2.4606Y2.3898
X2.4783Y2.9843
X2.4848Y2.3617
X2.5Y1.1201
X2.5217Y1.8465
X2.5232Y1.7991
X2.5236Y1.685
X2.5276Y1.6477
X2.5315Y2.1949
X2.5315Y2.1142
X2.5315Y2.0394
X2.5315Y1.9764
X2.5315Y1.4232
X2.5315Y1.3484
X2.5945Y2.1949
X2.6457Y2.4134
X2.6575Y0.4173
X2.6604Y1.5492
X2.6604Y1.2963
X2.7008Y2.128
X2.7067Y2.5472
X2.7244Y2.6161
X2.7274Y2.6545
X2.7283Y1.8406
X2.7323Y1.8071
X2.7382Y1.122
X2.747Y1.2972
X2.749Y2.7431
X2.7522Y2.3051
X2.7677Y2.1713
X2.7795Y1.0669
X2.7815Y2.878
X2.7913Y1.7343
X2.7913Y0.4616
X2.8071Y2.3366
X2.8091Y1.5709
X2.8209Y1.187
X2.8209Y0.9016
X2.8209Y0.6161
X2.8602Y2.3366
X2.8957Y3.2558
X2.8957Y1.6004
X2.8957Y1.5079
X2.9331Y2.9331
X2.9459Y2.7096
X2.9488Y0.5236
X2.9488Y0.4213
X2.9488Y0.3465
X2.9488Y0.2165
X2.9626Y2.1614
X2.9705Y3.2558
X2.9843Y2.252
X3.0079Y2.7441
X3.0118Y1.8661
X3.0167Y2.3632
X3.0512Y2.3878
X3.061Y2.1614
X3.0669Y0.5236
X3.0669Y0.4213
X3.0669Y0.3465
X3.0669Y0.2165
X3.0827Y1.3366
X3.0866Y0.9567
X3.0866Y0.685
X3.1004Y2.6811
X3.1004Y2.4607
X3.1102Y1.8957
X3.1181Y1.2402
X3.1181Y1.1339
X3.1299Y3.0079
X3.1378Y0.9567
X3.1378Y0.685
X3.1535Y1.2402
X3.1535Y1.1339
X3.1594Y2.8307
X3.2047Y2.752
X3.2205Y2.2795
X3.2205Y2.2323
X3.2205Y2.1496
X3.2205Y1.2972
X3.248Y2.815
X3.248Y2.7087
X3.248Y1.5492
X3.2559Y2.3366
X3.2559Y1.3976
X3.2559Y1.3661
X3.2598Y1.8307
X3.2874Y1.3976
X3.2874Y1.3661
X3.3661Y0.4173
X3.5709Y1.0118
X3.6004Y1.9843
X3.622Y3.4724
X3.622Y3.3543
X3.6496Y2.0827
X3.6516Y1.748
X3.6614Y0.626
X3.6614Y0.5236
X3.6614Y0.3504
X3.6614Y0.2165
X3.6811Y2.5354
X3.6811Y2.4882
X3.6909Y2.0453
X3.6929Y3.4724
X3.6929Y1.7815
X3.7008Y2.1693
X3.7205Y0.815
X3.7303Y2.2825
X3.7323Y1.748
X3.7343Y2.5807
X3.7697Y2.4646
X3.7717Y3.185
X3.7717Y2.1496
X3.7717Y2.0453
X3.7717Y1.7815
X3.7717Y1.5827
X3.7717Y1.4823
X3.7726Y3.123
X3.7736Y2.937
X3.7736Y2.3839
X3.7874Y0.626
X3.7874Y0.5236
X3.7874Y0.3504
X3.7874Y0.2165
X3.7992Y2.3346
X3.8189Y3.5276
X3.8199Y3.3563
X3.8228Y1.8602
X3.8346Y2.5315
X3.8406Y1.9341
X3.8504Y3.122
X3.8504Y3.0354
X3.878Y3.5276
X3.878Y3.4724
X3.8917Y2.876
X3.9193Y2.7067
X3.9478Y0.8179
X3.9488Y2.937
X3.9744Y2.7559
X3.9882Y2.6575
X4.0315Y1.2362
X4.0315Y1.0709
X4.0689Y2.8642
X4.0748Y0.4617
X4.189Y2.8642
X4.2047Y1.2362
X4.2047Y1.0709
X4.2441Y2.9626
X4.2527Y2.5578
X4.3701Y0.626
X4.3701Y0.5276
X4.3701Y0.374
X4.3701Y0.2165
X4.3711Y2.498
X4.4409Y2.8543
X4.4665Y0.8445
X4.4921Y0.626
X4.4921Y0.5276
X4.4921Y0.374
X4.4921Y0.2165
X4.5827Y2.7205
X4.6299Y2.438
X4.6629Y2.4325
X4.6634Y0.5315
X4.689Y2.4016
X4.7362Y1.8386
X4.7402Y2.1526
X4.7677Y1.2362
X4.7677Y1.0709
X4.7835Y0.2835
X4.811Y2.9724
X4.811Y2.7913
X4.8898Y1.2362
X4.8898Y1.0709
X4.93Y2.0952
X5.0512Y3.2244
X5.0512Y2.9724
X5.0512Y2.7913
X5.0512Y1.5118
X5.0709Y0.6299
X5.0709Y0.4094
X5.0709Y0.2165
X5.1969Y0.8819
X5.2008Y0.6299
X5.2008Y0.4094
X5.2008Y0.2165
X5.2638Y1.5118
X5.3307Y3.2244
X5.3307Y3.0669
X5.3307Y2.9724
X5.3307Y2.7913
X5.3455Y1.8297
X5.4449Y0.9764
X5.4449Y0.8268
X5.4724Y1.5118
X5.5157Y3.2244
X5.5157Y2.9724
X5.5157Y2.7913
X5.5315Y0.9803
X5.5315Y0.8268
X5.5315Y0.311
X5.5455Y1.7562
X5.5551Y1.2283
X5.5551Y1.122
X5.6102Y0.8268
X5.6496Y3.1693
X5.689Y0.8268
X5.7598Y0.626
X5.7598Y0.4094
X5.7598Y0.2165
X5.7953Y3.1496
X5.7992Y3.2835
X5.8543Y1.7795
X5.8543Y1.6575
X5.8701Y2.9646
X5.9075Y2.25
X5.9075Y2.2106
X5.9075Y2.1713
X5.9075Y2.1319
X5.9075Y2.0925
X5.9094Y3.5236
X5.9213Y0.626
X5.9213Y0.4094
X5.9213Y0.2165
X5.9252Y3.248
X5.9252Y3.1496
X6.0Y0.8268
X6.0276Y1.752
X6.0768Y2.25
X6.0768Y2.2106
X6.0768Y2.1713
X6.0768Y2.1319
X6.0768Y2.0925
X6.0827Y0.9331
X6.0827Y0.8268
X6.1358Y1.7854
X6.1358Y1.752
X6.1575Y2.252
X6.1614Y0.9331
X6.1693Y1.7854
X6.1693Y1.752
X6.1929Y2.2047
X6.1929Y2.1693
X6.2008Y0.2824
X6.2008Y0.4864
X6.2165Y1.6181
X6.2441Y2.2047
X6.2441Y2.1693
X6.252Y1.1142
X6.252Y0.9291
X6.2953Y2.2047
X6.2953Y2.1693
X6.3268Y2.378
X6.3268Y2.5906
X6.3465Y3.0167
X6.3465Y1.6181
X6.3465Y1.1142
X6.4488Y2.4114
X6.4567Y3.2087
X6.4646Y3.3346
X6.4803Y1.6181
X6.5059Y2.4862
X6.5059Y2.4114
X6.5118Y0.6299
X6.5118Y0.4094
X6.5118Y0.2165
X6.5551Y0.8169
X6.5591Y1.3661
X6.5827Y3.0335
X6.6063Y0.6299
X6.6063Y0.4094
X6.6063Y0.2165
X6.6142Y3.3465
X6.6142Y3.0335
X6.6339Y2.3543
X6.6339Y2.3228
X6.6417Y2.6988
X6.6417Y2.624
X6.6929Y1.6181
X6.7028Y2.2854
X6.7028Y2.3858
X6.7185Y2.6969
X6.7185Y2.622
X6.7205Y2.126
X6.7421Y3.3465
X6.7677Y1.1181
X6.8189Y2.2598
X6.8484Y2.5709
X6.8484Y2.1752
X6.8504Y1.9961
X6.8504Y1.7598
X6.9094Y0.437
X6.9114Y2.5709
X6.9134Y2.1752
X6.9173Y1.9961
X6.9252Y2.7559
X6.9429Y2.4646
X6.9567Y2.7559
X6.9921Y1.1142
X7.0Y1.9016
X7.0433Y2.126
X7.0453Y2.4902
X7.0453Y2.3543
X7.0453Y2.3189
X7.1043Y2.4488
X7.1043Y2.1102
X7.1693Y3.0354
X7.189Y3.4724
X7.189Y3.378
X7.2047Y3.0354
X7.2047Y0.626
X7.2047Y0.4094
X7.2047Y0.2165
X7.2402Y3.0354
X7.2638Y1.6142
X7.2638Y1.3701
X7.2795Y3.4724
X7.2795Y3.378
X7.3012Y0.8445
X7.3189Y0.626
X7.3189Y0.4094
X7.3189Y0.2165
X7.3465Y2.5197
X7.3543Y3.4724
X7.3543Y3.378
X7.3661Y3.1575
X7.4567Y3.3543
X7.5315Y1.8189
X7.5315Y1.6181
X7.5315Y1.3661
X7.5315Y1.1181
X7.5571Y2.5217
X7.6181Y0.4803
X7.7323Y3.5394
X7.7677Y2.0906
X7.7677Y1.8189
X7.7677Y1.2756
X7.7677Y1.1181
X7.7677Y0.9449
X7.7677Y0.7402
X7.7677Y0.626
X7.8937Y0.5591
X7.9134Y0.7402
X7.9134Y0.3701
X7.9134Y0.2165
X7.9409Y2.8898
X7.9409Y2.1496
X7.9724Y0.4803
X8.0354Y0.3701
X8.0354Y0.2165
X8.1024Y0.4803
X8.1299Y0.622
X8.1535Y1.2756
X8.1535Y1.1181
X8.1535Y0.9449
X8.2835Y2.9409
X8.3268Y0.4724
X8.3386Y1.7087
X8.3386Y1.4055
X8.3386Y1.2283
X8.3386Y1.1181
X8.5Y2.0217
X8.5098Y1.5492
X8.5551Y2.9409
X8.6181Y0.5079
X8.6181Y0.3504
X8.6181Y0.2165
X8.6732Y0.626
X8.6811Y1.4055
X8.6811Y0.9744
X8.7402Y0.5079
X8.7402Y0.3504
X8.7402Y0.2165
X8.7559Y2.9409
X8.878Y1.4055
X8.878Y1.2283
X8.878Y1.1142
X8.9724Y2.4941
X8.9724Y2.0217
X8.9724Y1.5492
X8.9961Y0.311
X9.0276Y2.9409
X9.0512Y1.4055
X9.0512Y1.2283
X9.0512Y1.1142
X9.0945Y1.6024
X9.0945Y1.5236
X9.1024Y2.0866
X9.2323Y2.9409
X9.3268Y0.5157
X9.3268Y0.3346
X9.3268Y0.2165
X9.374Y2.0217
X9.3858Y0.6299
X9.3898Y0.8169
X9.4449Y2.0217
X9.4449Y1.5492
X9.4567Y0.5157
X9.4567Y0.3346
X9.4567Y0.2165
X9.4705Y1.7972
X9.5197Y2.9409
X9.5354Y1.6024
X9.5354Y1.4055
X9.5709Y2.5551
X9.5787Y2.0945
X9.6693Y1.5197
X9.6693Y1.4055
X9.7205Y2.9409
X9.7677Y1.1142
X9.7835Y0.311
X9.8425Y2.0217
X9.9173Y2.4941
X9.9173Y2.0217
X9.937Y1.1142
X9.9744Y2.437
X9.9744Y1.9646
X9.9764Y2.9409
X9.9843Y1.5197
X9.9843Y1.4055
X10.0236Y0.3465
X10.0236Y0.2402
X10.0433Y1.6181
X10.0591Y0.8445
X10.0984Y0.7047
X10.1575Y0.626
X10.1575Y0.5157
X10.1614Y0.3465
X10.1614Y0.2362
X10.1772Y2.9409
X10.2441Y0.626
X10.2441Y0.5157
X10.2677Y1.4055
X10.2756Y1.1142
X10.3169Y2.4941
X10.3307Y0.4685
X10.3898Y2.0217
X10.4488Y2.4941
X10.4488Y1.4055
X10.4528Y1.1142
X10.4528Y0.8346
X10.4528Y0.437
X10.4882Y3.185
X10.4882Y3.0276
X10.4882Y2.7165
X10.4882Y2.2362
X10.5551Y1.4055
X10.5551Y1.1142
X10.5551Y0.8307
X10.5591Y2.9409
X10.5591Y2.8504
X10.5591Y2.5551
X10.5591Y2.4685
X10.5591Y2.3858
X10.5591Y2.1024
X10.5591Y2.0276
X10.5591Y1.9094
X10.5591Y1.7913
X10.5591Y1.6535
X10.6496Y0.9744
X10.6535Y2.7165
X10.6535Y2.2362
X10.6575Y3.185
X10.6575Y3.0315
X10.7559Y0.8307
X10.7559Y0.2362
X10.7598Y1.4055
X10.7598Y1.1142
X10.8465Y2.9409
X10.874Y1.4055
X10.874Y0.8268
X10.9331Y0.4843
X10.9754Y0.5906
X11.0118Y0.9154
X11.0256Y2.4941
X11.0256Y1.622
X11.063Y1.3858
X11.063Y1.1142
X11.0984Y2.0217
X11.1496Y1.3858
X11.1496Y1.1142
X11.1732Y2.9409
X11.2008Y2.0866
X11.2008Y2.0236
X11.2008Y1.5197
X11.2362Y1.2766
X11.374Y2.9409
X11.3888Y0.1407
X11.4331Y2.0551
X11.4961Y1.624
X11.5236Y1.3858
X11.5236Y1.1142
X11.5236Y0.8268
X11.5236Y0.4843
X11.5768Y2.1004
X11.5965Y1.5492
X11.5984Y2.0433
X11.5984Y1.8228
X11.6024Y2.5197
X11.6024Y2.2992
X11.6295Y2.4346
X11.6295Y1.9626
X11.6299Y1.4902
X11.6575Y2.5197
X11.6575Y2.2992
X11.6575Y2.0433
X11.6575Y1.8228
T3
X6.6929Y1.9341
X3.6811Y2.6335
X0.0876Y2.7756
X0.1109Y2.832
X0.1109Y2.7192
X0.1673Y2.8553
X0.1673Y2.6959
X0.2237Y2.832
X0.2237Y2.7192
X0.247Y2.7756
X1.1998Y2.7756
X1.2232Y2.832
X1.2232Y2.7192
X1.2795Y2.8553
X1.2795Y2.6959
X1.3359Y2.832
X1.3359Y2.7192
X1.3593Y2.7756
X5.7667Y1.1909
X5.7901Y1.2473
X5.7901Y1.1346
X5.8465Y1.2707
X5.8465Y1.1112
X5.9028Y1.2473
X5.9028Y1.1346
X5.9262Y1.1909
X0.0876Y0.8071
X0.1109Y0.8635
X0.1109Y0.7507
X0.1673Y0.8868
X0.1673Y0.7274
X0.2237Y0.8635
X0.2237Y0.7507
X0.247Y0.8071
X3.248Y2.5335
X3.6909Y2.8839
X2.4016Y2.3386
X0.4528Y1.6663
X3.248Y2.6339
X3.7303Y2.3335
X1.3295Y2.3913
X0.5512Y2.3327
X1.2295Y2.3913
T4
X0.4567Y3.5059
X0.4567Y3.4272
X0.5157Y3.5059
X0.5157Y3.4272
X0.5748Y3.5059
X0.5748Y3.4272
T5
X2.3687Y2.5449
X2.3687Y2.4949
X2.4187Y2.5449
X2.4187Y2.4949
X2.4687Y2.5449
X2.4687Y2.4949
X2.5187Y2.5449
X2.5187Y2.4949
X2.5687Y2.5449
X2.5687Y2.4949
T6
X7.5431Y0.6594
X7.5931Y0.6594
X7.6431Y0.6594
X7.6931Y0.6594
X9.3148Y1.1909
X9.3648Y1.1909
X9.4148Y1.1909
X9.4648Y1.1909
X11.2462Y1.7678
X11.2815Y1.8032
X11.3169Y1.8385
X11.3522Y1.8739
X9.1202Y3.1852
X9.1556Y3.2205
X9.1909Y3.2559
X9.2263Y3.2912
X4.7085Y0.6594
X4.7585Y0.6594
X4.8085Y0.6594
X4.8585Y0.6594
X9.1202Y2.2403
X9.1556Y2.2756
X9.1909Y2.311
X9.2263Y2.3463
X2.5825Y0.6594
X2.6325Y0.6594
X2.6825Y0.6594
X2.7325Y0.6594
X11.2462Y3.1852
X11.2815Y3.2205
X11.3169Y3.2559
X11.3522Y3.2912
X2.2281Y1.1909
X2.2781Y1.1909
X2.3281Y1.1909
X2.3781Y1.1909
X0.4565Y0.6594
X0.5065Y0.6594
X0.5565Y0.6594
X0.6065Y0.6594
X9.6691Y0.6594
X9.7191Y0.6594
X9.7691Y0.6594
X9.8191Y0.6594
X8.6478Y1.7678
X8.6831Y1.8032
X8.7185Y1.8385
X8.7538Y1.8739
X10.7737Y3.1852
X10.8091Y3.2205
X10.8444Y3.2559
X10.8798Y3.2912
X8.6478Y2.7127
X8.6831Y2.7481
X8.7185Y2.7834
X8.7538Y2.8188
X6.8344Y0.6594
X6.8844Y0.6594
X6.9344Y0.6594
X6.9844Y0.6594
X8.6478Y3.1852
X8.6831Y3.2205
X8.7185Y3.2559
X8.7538Y3.2912
X5.0628Y1.1909
X5.1128Y1.1909
X5.1628Y1.1909
X5.2128Y1.1909
X10.7737Y2.7127
X10.8091Y2.7481
X10.8444Y2.7834
X10.8798Y2.8188
X8.1753Y3.1852
X8.2107Y3.2205
X8.246Y3.2559
X8.2814Y3.2912
X10.7737Y2.2403
X10.8091Y2.2756
X10.8444Y2.311
X10.8798Y2.3463
X8.6061Y1.1909
X8.6561Y1.1909
X8.7061Y1.1909
X8.7561Y1.1909
X10.0651Y3.1852
X10.1004Y3.2205
X10.1358Y3.2559
X10.1711Y3.2912
X10.7737Y1.7678
X10.8091Y1.8032
X10.8444Y1.8385
X10.8798Y1.8739
X11.2462Y2.7127
X11.2815Y2.7481
X11.3169Y2.7834
X11.3522Y2.8188
X6.1258Y0.6594
X6.1758Y0.6594
X6.2258Y0.6594
X6.2758Y0.6594
X8.6478Y2.2403
X8.6831Y2.2756
X8.7185Y2.311
X8.7538Y2.3463
X1.8738Y0.6594
X1.9238Y0.6594
X1.9738Y0.6594
X2.0238Y0.6594
X1.5195Y1.1909
X1.5695Y1.1909
X1.6195Y1.1909
X1.6695Y1.1909
X10.0651Y2.7127
X10.1004Y2.7481
X10.1358Y2.7834
X10.1711Y2.8188
X8.9604Y0.6594
X9.0104Y0.6594
X9.0604Y0.6594
X9.1104Y0.6594
X8.1753Y1.7678
X8.2107Y1.8032
X8.246Y1.8385
X8.2814Y1.8739
X10.0651Y2.2403
X10.1004Y2.2756
X10.1358Y2.311
X10.1711Y2.3463
X3.9998Y0.6594
X4.0498Y0.6594
X4.0998Y0.6594
X4.1498Y0.6594
X4.3541Y1.1909
X4.4041Y1.1909
X4.4541Y1.1909
X4.5041Y1.1909
X10.0651Y1.7678
X10.1004Y1.8032
X10.1358Y1.8385
X10.1711Y1.8739
X8.1753Y2.7127
X8.2107Y2.7481
X8.246Y2.7834
X8.2814Y2.8188
X7.1888Y1.1909
X7.2388Y1.1909
X7.2888Y1.1909
X7.3388Y1.1909
X5.8091Y0.8268
X5.8839Y0.8268
X11.0864Y0.6594
X11.1364Y0.6594
X11.1864Y0.6594
X11.2364Y0.6594
X9.5926Y2.7127
X9.628Y2.7481
X9.6633Y2.7834
X9.6987Y2.8188
X10.0234Y1.1909
X10.0734Y1.1909
X10.1234Y1.1909
X10.1734Y1.1909
X5.4171Y0.6594
X5.4671Y0.6594
X5.5171Y0.6594
X5.5671Y0.6594
X9.5926Y3.1852
X9.628Y3.2205
X9.6633Y3.2559
X9.6987Y3.2912
X8.1753Y2.2403
X8.2107Y2.2756
X8.246Y2.311
X8.2814Y2.3463
X1.1652Y0.6594
X1.2152Y0.6594
X1.2652Y0.6594
X1.3152Y0.6594
X9.5926Y1.7678
X9.628Y1.8032
X9.6633Y1.8385
X9.6987Y1.8739
X8.2518Y0.6594
X8.3018Y0.6594
X8.3518Y0.6594
X8.4018Y0.6594
X11.2462Y2.2403
X11.2815Y2.2756
X11.3169Y2.311
X11.3522Y2.3463
X9.5926Y2.2403
X9.628Y2.2756
X9.6633Y2.311
X9.6987Y2.3463
X3.2911Y0.6594
X3.3411Y0.6594
X3.3911Y0.6594
X3.4411Y0.6594
X3.6455Y1.1909
X3.6955Y1.1909
X3.7455Y1.1909
X3.7955Y1.1909
X10.3778Y0.6594
X10.4278Y0.6594
X10.4778Y0.6594
X10.5278Y0.6594
X6.4801Y1.1909
X6.5301Y1.1909
X6.5801Y1.1909
X6.6301Y1.1909
X9.1202Y1.7678
X9.1556Y1.8032
X9.1909Y1.8385
X9.2263Y1.8739
X9.1202Y2.7127
X9.1556Y2.7481
X9.1909Y2.7834
X9.2263Y2.8188
T7
X7.0965Y2.9941
X7.0965Y2.7972
X7.313Y2.9941
X7.313Y2.7972
X6.6634Y2.9941
X6.6634Y2.7972
X5.8661Y2.8346
X5.9646Y2.8346
X6.4469Y2.9941
X6.4469Y2.7972
X6.1457Y2.8346
X6.2441Y2.8346
X6.8799Y2.9941
X6.8799Y2.7972
T8
X1.4665Y3.1472
X1.4665Y3.0685
X1.565Y3.1472
X1.565Y3.0685
T9
X9.1973Y3.0332
X9.3226Y2.9079
X9.3782Y3.2141
X9.5035Y3.0889
X0.7874Y2.2441
X0.7874Y1.6732
X0.8858Y1.6732
X0.9843Y2.2441
X0.9843Y1.6732
X10.8508Y1.6159
X10.9761Y1.4906
X11.0318Y1.7968
X11.1571Y1.6715
X8.2524Y1.6159
X8.3777Y1.4906
X8.4334Y1.7968
X8.5586Y1.6715
X1.0295Y2.5913
X1.0295Y2.4913
X1.1295Y2.5913
X1.1295Y2.4913
X1.2295Y2.5913
X1.2295Y2.4913
X1.3295Y2.5913
X1.3295Y2.4913
X10.8508Y3.0332
X10.9761Y2.9079
X11.0318Y3.2141
X11.1571Y3.0889
X11.3233Y2.0883
X11.4485Y1.963
X11.5042Y2.2693
X11.6295Y2.144
X1.2295Y1.6913
X1.2295Y1.5913
X1.2295Y1.4913
X1.2295Y1.3913
X1.2295Y1.2913
X1.3295Y1.6913
X1.3295Y1.5913
X1.3295Y1.4913
X1.3295Y1.3913
X1.3295Y1.2913
X10.1422Y2.5607
X10.2674Y2.4355
X10.3231Y2.7417
X10.4484Y2.6164
X8.7248Y2.0883
X8.8501Y1.963
X8.9058Y2.2693
X9.0311Y2.144
X9.6697Y1.6159
X9.795Y1.4906
X9.8507Y1.7968
X9.9759Y1.6715
X8.7248Y3.0332
X8.8501Y2.9079
X8.9058Y3.2141
X9.0311Y3.0889
X11.3233Y3.0332
X11.4485Y2.9079
X11.5042Y3.2141
X11.6295Y3.0889
X6.0087Y3.4697
X6.0087Y3.3697
X6.0087Y3.2697
X6.0087Y3.1697
X6.1087Y3.4697
X6.1087Y3.3697
X6.1087Y3.2697
X6.1087Y3.1697
X10.1422Y2.0883
X10.2674Y1.963
X10.3231Y2.2693
X10.4484Y2.144
X4.8199Y2.2283
X4.8199Y2.1283
X4.8199Y2.0283
X4.8199Y1.9283
X4.8199Y1.8283
X4.8199Y1.7283
X3.7992Y2.8543
X3.7992Y2.6575
X4.3701Y2.8543
X4.3701Y2.7559
X4.3701Y2.6575
X2.9134Y2.2441
X2.9134Y1.6732
X3.0118Y1.6732
X3.1102Y2.2441
X3.1102Y1.6732
X11.3233Y1.6159
X11.4485Y1.4906
X11.5042Y1.7968
X11.6295Y1.6715
X8.7248Y1.6159
X8.8501Y1.4906
X8.9058Y1.7968
X9.0311Y1.6715
X1.0295Y1.0913
X1.0295Y0.9913
X1.1295Y1.0913
X1.1295Y0.9913
X1.2295Y1.0913
X1.2295Y0.9913
X1.3295Y1.0913
X1.3295Y0.9913
X10.1422Y3.0332
X10.2674Y2.9079
X10.3231Y3.2141
X10.4484Y3.0889
X10.8508Y2.5607
X10.9761Y2.4355
X11.0318Y2.7417
X11.1571Y2.6164
X8.2524Y2.5607
X8.3777Y2.4355
X8.4334Y2.7417
X8.5586Y2.6164
X9.1973Y2.0883
X9.3226Y1.963
X9.3782Y2.2693
X9.5035Y2.144
X10.1422Y1.6159
X10.2674Y1.4906
X10.3231Y1.7968
X10.4484Y1.6715
X1.2295Y2.2913
X1.2295Y2.1913
X1.2295Y2.0913
X1.2295Y1.9913
X1.2295Y1.8913
X1.3295Y2.2913
X1.3295Y2.1913
X1.3295Y2.0913
X1.3295Y1.9913
X1.3295Y1.8913
X9.6697Y3.0332
X9.795Y2.9079
X9.8507Y3.2141
X9.9759Y3.0889
X8.2524Y3.0332
X8.3777Y2.9079
X8.4334Y3.2141
X8.5586Y3.0889
X10.8508Y2.0883
X10.9761Y1.963
X11.0318Y2.2693
X11.1571Y2.144
X9.1973Y1.6159
X9.3226Y1.4906
X9.3782Y1.7968
X9.5035Y1.6715
X1.8504Y3.0315
X1.8504Y2.4606
X1.9488Y2.4606
X2.0472Y3.0315
X2.0472Y2.4606
X11.3233Y2.5607
X11.4485Y2.4355
X11.5042Y2.7417
X11.6295Y2.6164
X9.6697Y2.5607
X9.795Y2.4355
X9.8507Y2.7417
X9.9759Y2.6164
X8.7248Y2.5607
X8.8501Y2.4355
X8.9058Y2.7417
X9.0311Y2.6164
X8.2524Y2.0883
X8.3777Y1.963
X8.4334Y2.2693
X8.5586Y2.144
X9.6697Y2.0883
X9.795Y1.963
X9.8507Y2.2693
X9.9759Y2.144
X9.1973Y2.5607
X9.3226Y2.4355
X9.3782Y2.7417
X9.5035Y2.6164
T10
X3.4146Y3.2335
X3.4146Y3.1335
X3.4146Y3.0335
X3.4146Y2.9335
X3.4146Y2.8335
X3.4146Y2.7335
X3.4146Y2.6335
X3.4146Y2.5335
X3.4146Y2.4335
X3.4146Y2.3335
X3.4146Y2.2335
X3.4146Y2.1335
X3.4146Y2.0335
X3.4146Y1.9335
X3.4146Y1.8335
X3.4146Y1.7335
X3.4146Y1.6335
X3.4146Y1.5335
X3.4146Y1.4335
X3.4146Y1.3335
X3.5146Y3.2335
X3.5146Y3.1335
X3.5146Y3.0335
X3.5146Y2.9335
X3.5146Y2.8335
X3.5146Y2.7335
X3.5146Y2.6335
X3.5146Y2.5335
X3.5146Y2.4335
X3.5146Y2.3335
X3.5146Y2.2335
X3.5146Y2.1335
X3.5146Y2.0335
X3.5146Y1.9335
X3.5146Y1.8335
X3.5146Y1.7335
X3.5146Y1.6335
X3.5146Y1.5335
X3.5146Y1.4335
X3.5146Y1.3335
X7.4087Y2.5697
X7.4087Y2.4697
X7.5087Y2.5697
X7.5087Y2.4697
X7.6087Y2.5697
X7.6087Y2.4697
X7.7087Y2.5697
X7.7087Y2.4697
X7.8087Y2.5697
X7.8087Y2.4697
X7.9087Y2.5697
X7.9087Y2.4697
X6.0087Y2.5697
X6.0087Y2.4697
X6.1087Y2.5697
X6.1087Y2.4697
X6.2087Y2.5697
X6.2087Y2.4697
T11
X0.3366Y3.4661
X0.6949Y3.4665
T12
X0.8583Y0.0974
X11.5955Y0.3327
X0.0827Y3.2559
T14
X1.2787Y3.2539
X1.7528Y3.2539
T15
X0.1673Y2.7756
X1.2795Y2.7756
X5.8465Y1.1909
X0.1673Y0.8071
T16
X2.6969Y3.5315
X2.6969Y3.2559
X2.2244Y3.5315
X2.2244Y3.2559
X3.1693Y3.5315
X3.1693Y3.2559
X7.5Y3.5315
X7.5Y3.2559
X6.3189Y3.5315
X6.3189Y3.2559
X6.9094Y3.5315
X6.9094Y3.2559
T17
X3.4646Y3.1835
X3.4646Y1.3835
X7.4587Y2.5197
X7.8587Y2.5197
X6.0587Y2.5197
X6.1587Y2.5197
T18
X3.4646Y3.4252
X3.4646Y1.1417
X5.3937Y3.4252
X5.3937Y1.1417
X4.7815Y3.2224
X4.7815Y1.502
X7.7343Y3.2224
X7.7343Y1.502
T19
X11.5256Y3.4154
X5.8169Y3.4252
X5.8169Y2.5197
X0.1673Y0.1673
X0.1673Y3.4154
X11.5256Y0.1673
T1
G00X2.6024Y3.5276
M15
G01X2.6024Y3.5669
M16
G05
G00X2.6024Y3.4567
M15
G01X2.6024Y3.4961
M16
G05
G00X2.6024Y3.3445
M15
G01X2.6024Y3.3839
M16
G05
G00X2.6024Y3.2559
M15
G01X2.6024Y3.2953
M16
G05
G00X2.7913Y3.4921
M15
G01X2.7913Y3.5315
M16
G05
G00X2.7913Y3.374
M15
G01X2.7913Y3.4134
M16
G05
G00X2.7913Y3.2618
M15
G01X2.7913Y3.3012
M16
G05
G00X2.7913Y3.1732
M15
G01X2.7913Y3.2126
M16
G05
G00X2.1299Y3.5276
M15
G01X2.1299Y3.5669
M16
G05
G00X2.1299Y3.4567
M15
G01X2.1299Y3.4961
M16
G05
G00X2.1299Y3.3445
M15
G01X2.1299Y3.3839
M16
G05
G00X2.1299Y3.2559
M15
G01X2.1299Y3.2953
M16
G05
G00X2.3189Y3.4921
M15
G01X2.3189Y3.5315
M16
G05
G00X2.3189Y3.374
M15
G01X2.3189Y3.4134
M16
G05
G00X2.3189Y3.2618
M15
G01X2.3189Y3.3012
M16
G05
G00X2.3189Y3.1732
M15
G01X2.3189Y3.2126
M16
G05
G00X3.0748Y3.5276
M15
G01X3.0748Y3.5669
M16
G05
G00X3.0748Y3.4567
M15
G01X3.0748Y3.4961
M16
G05
G00X3.0748Y3.3445
M15
G01X3.0748Y3.3839
M16
G05
G00X3.0748Y3.2559
M15
G01X3.0748Y3.2953
M16
G05
G00X3.2638Y3.4921
M15
G01X3.2638Y3.5315
M16
G05
G00X3.2638Y3.374
M15
G01X3.2638Y3.4134
M16
G05
G00X3.2638Y3.2618
M15
G01X3.2638Y3.3012
M16
G05
G00X3.2638Y3.1732
M15
G01X3.2638Y3.2126
M16
G05
G00X7.4055Y3.5276
M15
G01X7.4055Y3.5669
M16
G05
G00X7.4055Y3.4567
M15
G01X7.4055Y3.4961
M16
G05
G00X7.4055Y3.3445
M15
G01X7.4055Y3.3839
M16
G05
G00X7.4055Y3.2559
M15
G01X7.4055Y3.2953
M16
G05
G00X7.5945Y3.4921
M15
G01X7.5945Y3.5315
M16
G05
G00X7.5945Y3.374
M15
G01X7.5945Y3.4134
M16
G05
G00X7.5945Y3.2618
M15
G01X7.5945Y3.3012
M16
G05
G00X7.5945Y3.1732
M15
G01X7.5945Y3.2126
M16
G05
G00X6.2244Y3.5276
M15
G01X6.2244Y3.5669
M16
G05
G00X6.2244Y3.4567
M15
G01X6.2244Y3.4961
M16
G05
G00X6.2244Y3.3445
M15
G01X6.2244Y3.3839
M16
G05
G00X6.2244Y3.2559
M15
G01X6.2244Y3.2953
M16
G05
G00X6.4134Y3.4921
M15
G01X6.4134Y3.5315
M16
G05
G00X6.4134Y3.374
M15
G01X6.4134Y3.4134
M16
G05
G00X6.4134Y3.2618
M15
G01X6.4134Y3.3012
M16
G05
G00X6.4134Y3.1732
M15
G01X6.4134Y3.2126
M16
G05
G00X6.815Y3.5276
M15
G01X6.815Y3.5669
M16
G05
G00X6.815Y3.4567
M15
G01X6.815Y3.4961
M16
G05
G00X6.815Y3.3445
M15
G01X6.815Y3.3839
M16
G05
G00X6.815Y3.2559
M15
G01X6.815Y3.2953
M16
G05
G00X7.0039Y3.4921
M15
G01X7.0039Y3.5315
M16
G05
G00X7.0039Y3.374
M15
G01X7.0039Y3.4134
M16
G05
G00X7.0039Y3.2618
M15
G01X7.0039Y3.3012
M16
G05
G00X7.0039Y3.1732
M15
G01X7.0039Y3.2126
M16
G05
T7
G00X0.9685Y3.3661
M15
G01X0.8819Y3.3661
M16
G05
G00X0.9685Y3.1299
M15
G01X0.8819Y3.1299
M16
G05
G00X1.1142Y3.185
M15
G01X1.1142Y3.2717
M16
G05
T9
G00X0.4035Y0.3839
M15
G01X0.3602Y0.3839
M16
G05
G00X0.4035Y0.2067
M15
G01X0.3602Y0.2067
M16
G05
G00X0.7028Y0.3839
M15
G01X0.6594Y0.3839
M16
G05
G00X0.7028Y0.2067
M15
G01X0.6594Y0.2067
M16
G05
G00X9.6161Y0.3839
M15
G01X9.5728Y0.3839
M16
G05
G00X9.6161Y0.2067
M15
G01X9.5728Y0.2067
M16
G05
G00X9.9154Y0.3839
M15
G01X9.872Y0.3839
M16
G05
G00X9.9154Y0.2067
M15
G01X9.872Y0.2067
M16
G05
G00X4.3012Y0.9154
M15
G01X4.2579Y0.9154
M16
G05
G00X4.3012Y0.7382
M15
G01X4.2579Y0.7382
M16
G05
G00X4.6004Y0.9154
M15
G01X4.5571Y0.9154
M16
G05
G00X4.6004Y0.7382
M15
G01X4.5571Y0.7382
M16
G05
G00X1.8209Y0.3839
M15
G01X1.7776Y0.3839
M16
G05
G00X1.8209Y0.2067
M15
G01X1.7776Y0.2067
M16
G05
G00X2.1201Y0.3839
M15
G01X2.0768Y0.3839
M16
G05
G00X2.1201Y0.2067
M15
G01X2.0768Y0.2067
M16
G05
G00X2.5295Y0.3839
M15
G01X2.4862Y0.3839
M16
G05
G00X2.5295Y0.2067
M15
G01X2.4862Y0.2067
M16
G05
G00X2.8287Y0.3839
M15
G01X2.7854Y0.3839
M16
G05
G00X2.8287Y0.2067
M15
G01X2.7854Y0.2067
M16
G05
G00X1.1122Y0.3839
M15
G01X1.0689Y0.3839
M16
G05
G00X1.1122Y0.2067
M15
G01X1.0689Y0.2067
M16
G05
G00X1.4114Y0.3839
M15
G01X1.3681Y0.3839
M16
G05
G00X1.4114Y0.2067
M15
G01X1.3681Y0.2067
M16
G05
G00X3.2382Y0.3839
M15
G01X3.1949Y0.3839
M16
G05
G00X3.2382Y0.2067
M15
G01X3.1949Y0.2067
M16
G05
G00X3.5374Y0.3839
M15
G01X3.4941Y0.3839
M16
G05
G00X3.5374Y0.2067
M15
G01X3.4941Y0.2067
M16
G05
G00X8.9075Y0.3839
M15
G01X8.8642Y0.3839
M16
G05
G00X8.9075Y0.2067
M15
G01X8.8642Y0.2067
M16
G05
G00X9.2067Y0.3839
M15
G01X9.1634Y0.3839
M16
G05
G00X9.2067Y0.2067
M15
G01X9.1634Y0.2067
M16
G05
G00X9.2618Y0.9154
M15
G01X9.2185Y0.9154
M16
G05
G00X9.2618Y0.7382
M15
G01X9.2185Y0.7382
M16
G05
G00X9.561Y0.9154
M15
G01X9.5177Y0.9154
M16
G05
G00X9.561Y0.7382
M15
G01X9.5177Y0.7382
M16
G05
G00X3.9469Y0.3839
M15
G01X3.9035Y0.3839
M16
G05
G00X3.9469Y0.2067
M15
G01X3.9035Y0.2067
M16
G05
G00X4.2461Y0.3839
M15
G01X4.2028Y0.3839
M16
G05
G00X4.2461Y0.2067
M15
G01X4.2028Y0.2067
M16
G05
G00X4.6555Y0.3839
M15
G01X4.6122Y0.3839
M16
G05
G00X4.6555Y0.2067
M15
G01X4.6122Y0.2067
M16
G05
G00X4.9547Y0.3839
M15
G01X4.9114Y0.3839
M16
G05
G00X4.9547Y0.2067
M15
G01X4.9114Y0.2067
M16
G05
G00X5.3642Y0.3839
M15
G01X5.3209Y0.3839
M16
G05
G00X5.3642Y0.2067
M15
G01X5.3209Y0.2067
M16
G05
G00X5.6634Y0.3839
M15
G01X5.6201Y0.3839
M16
G05
G00X5.6634Y0.2067
M15
G01X5.6201Y0.2067
M16
G05
G00X3.5925Y0.9154
M15
G01X3.5492Y0.9154
M16
G05
G00X3.5925Y0.7382
M15
G01X3.5492Y0.7382
M16
G05
G00X3.8917Y0.9154
M15
G01X3.8484Y0.9154
M16
G05
G00X3.8917Y0.7382
M15
G01X3.8484Y0.7382
M16
G05
G00X8.5531Y0.9154
M15
G01X8.5098Y0.9154
M16
G05
G00X8.5531Y0.7382
M15
G01X8.5098Y0.7382
M16
G05
G00X8.8524Y0.9154
M15
G01X8.8091Y0.9154
M16
G05
G00X8.8524Y0.7382
M15
G01X8.8091Y0.7382
M16
G05
G00X8.1988Y0.3839
M15
G01X8.1555Y0.3839
M16
G05
G00X8.1988Y0.2067
M15
G01X8.1555Y0.2067
M16
G05
G00X8.498Y0.3839
M15
G01X8.4547Y0.3839
M16
G05
G00X8.498Y0.2067
M15
G01X8.4547Y0.2067
M16
G05
G00X2.1752Y0.9154
M15
G01X2.1319Y0.9154
M16
G05
G00X2.1752Y0.7382
M15
G01X2.1319Y0.7382
M16
G05
G00X2.4744Y0.9154
M15
G01X2.4311Y0.9154
M16
G05
G00X2.4744Y0.7382
M15
G01X2.4311Y0.7382
M16
G05
G00X7.1358Y0.9154
M15
G01X7.0925Y0.9154
M16
G05
G00X7.1358Y0.7382
M15
G01X7.0925Y0.7382
M16
G05
G00X7.435Y0.9154
M15
G01X7.3917Y0.9154
M16
G05
G00X7.435Y0.7382
M15
G01X7.3917Y0.7382
M16
G05
G00X7.4902Y0.3839
M15
G01X7.4469Y0.3839
M16
G05
G00X7.4902Y0.2067
M15
G01X7.4469Y0.2067
M16
G05
G00X7.7894Y0.3839
M15
G01X7.7461Y0.3839
M16
G05
G00X7.7894Y0.2067
M15
G01X7.7461Y0.2067
M16
G05
G00X1.4665Y0.9154
M15
G01X1.4232Y0.9154
M16
G05
G00X1.4665Y0.7382
M15
G01X1.4232Y0.7382
M16
G05
G00X1.7657Y0.9154
M15
G01X1.7224Y0.9154
M16
G05
G00X1.7657Y0.7382
M15
G01X1.7224Y0.7382
M16
G05
G00X6.7815Y0.3839
M15
G01X6.7382Y0.3839
M16
G05
G00X6.7815Y0.2067
M15
G01X6.7382Y0.2067
M16
G05
G00X7.0807Y0.3839
M15
G01X7.0374Y0.3839
M16
G05
G00X7.0807Y0.2067
M15
G01X7.0374Y0.2067
M16
G05
G00X11.0335Y0.3839
M15
G01X10.9902Y0.3839
M16
G05
G00X11.0335Y0.2067
M15
G01X10.9902Y0.2067
M16
G05
G00X11.3327Y0.3839
M15
G01X11.2894Y0.3839
M16
G05
G00X11.3327Y0.2067
M15
G01X11.2894Y0.2067
M16
G05
G00X6.4272Y0.9154
M15
G01X6.3839Y0.9154
M16
G05
G00X6.4272Y0.7382
M15
G01X6.3839Y0.7382
M16
G05
G00X6.7264Y0.9154
M15
G01X6.6831Y0.9154
M16
G05
G00X6.7264Y0.7382
M15
G01X6.6831Y0.7382
M16
G05
G00X6.0728Y0.3839
M15
G01X6.0295Y0.3839
M16
G05
G00X6.0728Y0.2067
M15
G01X6.0295Y0.2067
M16
G05
G00X6.372Y0.3839
M15
G01X6.3287Y0.3839
M16
G05
G00X6.372Y0.2067
M15
G01X6.3287Y0.2067
M16
G05
G00X10.3248Y0.3839
M15
G01X10.2815Y0.3839
M16
G05
G00X10.3248Y0.2067
M15
G01X10.2815Y0.2067
M16
G05
G00X10.624Y0.3839
M15
G01X10.5807Y0.3839
M16
G05
G00X10.624Y0.2067
M15
G01X10.5807Y0.2067
M16
G05
G00X5.0098Y0.9154
M15
G01X4.9665Y0.9154
M16
G05
G00X5.0098Y0.7382
M15
G01X4.9665Y0.7382
M16
G05
G00X5.3091Y0.9154
M15
G01X5.2657Y0.9154
M16
G05
G00X5.3091Y0.7382
M15
G01X5.2657Y0.7382
M16
G05
G00X9.9705Y0.9154
M15
G01X9.9272Y0.9154
M16
G05
G00X9.9705Y0.7382
M15
G01X9.9272Y0.7382
M16
G05
G00X10.2697Y0.9154
M15
G01X10.2264Y0.9154
M16
G05
G00X10.2697Y0.7382
M15
G01X10.2264Y0.7382
M16
G05
T13
G00X0.6693Y1.9469
M15
G01X0.6693Y1.9902
M16
G05
G00X1.1024Y1.9469
M15
G01X1.1024Y1.9902
M16
G05
G00X4.0965Y2.9724
M15
G01X4.0531Y2.9724
M16
G05
G00X4.0965Y2.5394
M15
G01X4.0531Y2.5394
M16
G05
G00X2.7953Y1.9469
M15
G01X2.7953Y1.9902
M16
G05
G00X3.2283Y1.9469
M15
G01X3.2283Y1.9902
M16
G05
G00X1.7323Y2.7343
M15
G01X1.7323Y2.7776
M16
G05
G00X2.1654Y2.7343
M15
G01X2.1654Y2.7776
M16
G05
T0
M30
