%TF.GenerationSoftware,KiCad,Pcbnew,5.1.5*%
%TF.CreationDate,2020-03-25T20:50:36+01:00*%
%TF.ProjectId,OTTOdiy_SMD,4f54544f-6469-4795-9f53-4d442e6b6963,rev?*%
%TF.SameCoordinates,PX269fb20PYbb65a20*%
%TF.FileFunction,Profile,NP*%
%FSLAX46Y46*%
G04 Gerber Fmt 4.6, Leading zero omitted, Abs format (unit mm)*
G04 Created by KiCad (PCBNEW 5.1.5) date 2020-03-25 20:50:36*
%MOMM*%
%LPD*%
G04 APERTURE LIST*
%ADD10C,0.150000*%
G04 APERTURE END LIST*
D10*
X115250000Y60250000D02*
G75*
G02X116250000Y59250000I0J-1000000D01*
G01*
X116250000Y36450000D02*
G75*
G02X115250000Y35450000I-1000000J0D01*
G01*
X99250000Y35450000D02*
G75*
G02X98250000Y36450000I0J1000000D01*
G01*
X98250000Y59250000D02*
G75*
G02X99250000Y60250000I1000000J0D01*
G01*
X116250000Y36450000D02*
X116250000Y59250000D01*
X99250000Y35450000D02*
X115250000Y35450000D01*
X98250000Y59250000D02*
X98250000Y36450000D01*
X115250000Y60250000D02*
X99250000Y60250000D01*
X117500000Y91250000D02*
G75*
G02X118250000Y92000000I750000J0D01*
G01*
X99750000Y92000000D02*
G75*
G02X100500000Y91250000I0J-750000D01*
G01*
X99750000Y92000000D02*
X4250000Y92000000D01*
X292750000Y92000000D02*
X118250000Y92000000D01*
X117500000Y78500000D02*
G75*
G02X116750000Y77750000I-750000J0D01*
G01*
X101250000Y77750000D02*
G75*
G02X100500000Y78500000I0J750000D01*
G01*
X100500000Y91250000D02*
X100500000Y78500000D01*
X117500000Y91250000D02*
X117500000Y78500000D01*
X116750000Y77750000D02*
X101250000Y77750000D01*
X128500000Y48750000D02*
G75*
G02X127750000Y49500000I0J750000D01*
G01*
X142750000Y49500000D02*
G75*
G02X142000000Y48750000I-750000J0D01*
G01*
X127750000Y65500000D02*
G75*
G02X128500000Y66250000I750000J0D01*
G01*
X142000000Y66250000D02*
G75*
G02X142750000Y65500000I0J-750000D01*
G01*
X128500000Y66250000D02*
X142000000Y66250000D01*
X128500000Y48750000D02*
X142000000Y48750000D01*
X127750000Y65500000D02*
X127750000Y49500000D01*
X142750000Y65500000D02*
X142750000Y49500000D01*
X-11033334Y101600000D02*
G75*
G03X-11033334Y101600000I-1666666J0D01*
G01*
X-15200000Y101600000D02*
X-10200000Y101600000D01*
X-12700000Y104100000D02*
X-12700000Y99100000D01*
X-11033334Y-12700000D02*
G75*
G03X-11033334Y-12700000I-1666666J0D01*
G01*
X-15200000Y-12700000D02*
X-10200000Y-12700000D01*
X-12700000Y-10200000D02*
X-12700000Y-15200000D01*
X319166666Y-12700000D02*
G75*
G03X319166666Y-12700000I-1666666J0D01*
G01*
X315000000Y-12700000D02*
X320000000Y-12700000D01*
X317500000Y-10200000D02*
X317500000Y-15200000D01*
X319166666Y101600000D02*
G75*
G03X319166666Y101600000I-1666666J0D01*
G01*
X315000000Y101600000D02*
X320000000Y101600000D01*
X317500000Y104100000D02*
X317500000Y99100000D01*
X292750000Y92000000D02*
G75*
G02X297000000Y87750000I0J-4250000D01*
G01*
X297000000Y4250000D02*
G75*
G02X292750000Y0I-4250000J0D01*
G01*
X4250000Y0D02*
G75*
G02X0Y4250000I0J4250000D01*
G01*
X0Y87750000D02*
G75*
G02X4250000Y92000000I4250000J0D01*
G01*
X0Y87750000D02*
X0Y4250000D01*
X297000000Y4250000D02*
X297000000Y87750000D01*
X4250000Y0D02*
X292750000Y0D01*
M02*
