M48
; DRILL file {KiCad (5.1.5-0-10_14)} date Tuesday, March 03, 2020 at 06:24:16 AM
; FORMAT={-:-/ absolute / metric / decimal}
; #@! TF.CreationDate,2020-03-03T06:24:16-08:00
; #@! TF.GenerationSoftware,Kicad,Pcbnew,(5.1.5-0-10_14)
; #@! TF.FileFunction,NonPlated,1,4,NPTH
FMAT,2
METRIC
T1C1.016
T2C1.200
T3C1.800
T4C2.600
T5C2.800
%
G90
G05
T1
X101.095Y-131.25
X104.905Y-131.25
T2
X97.0Y-107.8
X97.0Y-115.8
X216.0Y-107.8
X216.0Y-115.8
X121.0Y-107.8
X121.0Y-115.8
X49.9Y-169.5
X57.4Y-169.5
X201.0Y-107.8
X201.0Y-115.8
X109.0Y-107.8
X109.0Y-115.8
X231.0Y-107.8
X231.0Y-115.8
T3
X194.39Y-132.5
X196.93Y-132.5
X128.5Y-115.64
X128.5Y-161.36
X229.95Y-132.5
X240.11Y-132.5
T4
X162.75Y-114.65
X162.75Y-158.35
X237.75Y-114.65
X237.75Y-158.35
X128.5Y-109.5
X128.5Y-167.5
X177.5Y-109.5
X177.5Y-167.5
T5
X177.5Y-109.5
X188.25Y-109.5
X333.25Y-192.25
X128.5Y-109.5
X333.25Y-109.75
X44.75Y-109.75
X128.5Y-167.5
X188.25Y-132.5
X177.5Y-167.5
X44.75Y-192.25
T0
M30
