M48
; DRILL file {KiCad (5.1.5-0-10_14)} date Tuesday, March 03, 2020 at 06:24:16 AM
; FORMAT={-:-/ absolute / metric / decimal}
; #@! TF.CreationDate,2020-03-03T06:24:16-08:00
; #@! TF.GenerationSoftware,Kicad,Pcbnew,(5.1.5-0-10_14)
; #@! TF.FileFunction,Plated,1,4,PTH
FMAT,2
METRIC
T1C0.300
T2C0.400
T3C0.500
T4C0.600
T5C0.700
T6C0.750
T7C0.800
T8C0.950
T9C1.000
T10C1.020
T11C1.300
T12C1.500
T13C2.300
T14C2.700
%
G90
G05
T1
X42.35Y-152.75
X42.4Y-130.8
X42.4Y-132.9
X42.4Y-134.6
X42.4Y-145.0
X42.4Y-146.9
X42.4Y-149.7
X43.65Y-155.65
X43.65Y-156.5
X43.65Y-157.8
X43.65Y-158.65
X44.4Y-115.8
X44.4Y-119.0
X44.5Y-155.65
X44.5Y-156.5
X44.5Y-157.8
X44.5Y-158.65
X44.6Y-136.0
X44.6Y-141.9
X44.6Y-149.7
X44.7Y-165.1
X44.7Y-184.0
X46.5Y-143.9
X46.5Y-149.7
X48.0Y-153.75
X48.0Y-154.6
X48.85Y-153.75
X48.85Y-154.6
X48.9Y-131.95
X48.9Y-132.8
X48.9Y-133.65
X48.9Y-134.5
X49.2Y-135.5
X50.0Y-165.1
X51.5Y-128.5
X51.5Y-134.6
X51.55Y-133.3
X51.7Y-130.2
X51.7Y-131.05
X51.7Y-131.9
X51.9Y-135.4
X52.275Y-188.6
X52.4Y-133.3
X52.55Y-130.2
X52.6Y-160.25
X53.0Y-165.1
X53.0Y-169.5
X53.25Y-133.3
X53.35Y-153.25
X53.4Y-130.2
X54.1Y-133.3
X54.1Y-154.9
X54.9Y-165.15
X55.4Y-137.1
X55.4Y-138.1
X55.45Y-131.05
X55.45Y-135.85
X56.9Y-139.6
X56.9Y-141.2
X56.95Y-176.25
X57.5Y-152.7
X57.5Y-153.8
X58.25Y-136.4
X58.75Y-154.5
X59.15Y-178.65
X59.15Y-183.25
X59.6Y-144.6
X59.6Y-145.9
X60.75Y-156.65
X60.75Y-157.5
X60.9Y-136.9
X60.9Y-184.9
X60.9Y-187.6
X60.9Y-191.3
X60.95Y-160.3
X60.95Y-161.15
X61.5Y-167.8
X61.6Y-156.65
X61.6Y-157.5
X61.8Y-160.3
X61.8Y-161.15
X61.9Y-177.6
X61.95Y-123.1
X61.95Y-123.95
X62.4Y-136.9
X62.6Y-128.9
X62.8Y-123.1
X62.8Y-123.95
X62.8Y-175.4
X62.9Y-139.2
X63.0Y-150.35
X63.45Y-133.4
X63.45Y-134.45
X63.7Y-173.0
X63.8Y-160.05
X63.8Y-160.95
X63.8Y-184.9
X63.8Y-187.6
X63.8Y-191.3
X63.807Y-162.043
X63.85Y-155.75
X63.85Y-158.0
X64.3Y-131.9
X64.75Y-164.35
X64.85Y-155.75
X65.5Y-136.2
X65.575Y-191.225
X66.8Y-163.85
X66.85Y-155.75
X66.95Y-136.2
X66.95Y-137.15
X67.0Y-123.1
X67.0Y-123.95
X67.1Y-154.5
X67.85Y-123.1
X67.85Y-123.95
X67.9Y-165.875
X68.2Y-180.55
X68.5Y-141.7
X69.85Y-151.65
X72.0Y-189.3
X73.0Y-150.3
X74.25Y-150.3
X75.4Y-120.0
X75.4Y-121.0
X75.4Y-122.0
X75.7Y-175.4
X76.325Y-109.75
X76.75Y-159.775
X76.75Y-158.975
X77.25Y-146.85
X77.6Y-120.9
X77.6Y-129.1
X78.45Y-155.45
X78.8Y-182.3
X78.8Y-184.9
X78.8Y-187.6
X78.8Y-191.1
X79.25Y-124.55
X79.25Y-125.4
X79.55Y-135.65
X79.85Y-175.2
X80.1Y-124.55
X80.1Y-125.4
X80.5Y-120.5
X80.6Y-131.45
X80.6Y-139.8
X80.65Y-148.053
X80.65Y-148.853
X80.7Y-153.8
X81.2Y-142.6
X81.4Y-149.5
X81.6Y-135.65
X82.1Y-182.3
X82.1Y-184.9
X82.1Y-187.6
X82.1Y-191.1
X82.3Y-143.1
X82.3Y-164.25
X82.325Y-157.3
X82.65Y-132.1
X83.0Y-120.0
X83.0Y-121.0
X83.0Y-122.0
X83.0Y-123.0
X83.0Y-124.0
X83.65Y-135.65
X83.65Y-141.95
X83.75Y-157.675
X83.95Y-192.623
X84.85Y-159.8
X85.0Y-138.95
X85.0Y-147.0
X85.0Y-148.5
X85.525Y-160.25
X85.75Y-182.275
X85.95Y-129.15
X86.0Y-165.6
X86.0Y-167.0
X86.35Y-160.25
X86.475Y-181.5
X86.5Y-161.9
X86.8Y-136.55
X86.8Y-137.55
X86.8Y-138.95
X87.0Y-140.7
X87.25Y-107.75
X87.275Y-161.375
X87.3Y-154.7
X87.3Y-144.65
X87.5Y-128.15
X87.825Y-164.225
X88.2Y-136.8
X88.8Y-144.6
X88.8Y-147.4
X88.8Y-148.7
X88.85Y-122.0
X89.15Y-175.8
X89.175Y-162.9
X89.2Y-165.6
X89.8Y-168.0
X90.0Y-126.4
X90.0Y-129.15
X90.1Y-154.8
X90.2Y-144.6
X90.5Y-146.5
X90.5Y-172.3
X90.65Y-154.15
X90.875Y-162.05
X91.0Y-188.6
X91.1Y-138.25
X91.1Y-139.6
X91.1Y-140.55
X91.25Y-121.05
X91.25Y-153.45
X91.25Y-168.0
X91.4Y-147.75
X91.6Y-144.6
X91.7Y-137.2
X92.025Y-163.525
X92.1Y-152.5
X92.2Y-149.45
X92.2Y-150.35
X92.25Y-112.6
X92.25Y-114.5
X92.5Y-128.15
X92.7Y-168.0
X92.7Y-172.3
X92.8Y-164.2
X93.325Y-168.975
X93.45Y-147.75
X93.45Y-148.7
X93.55Y-127.3
X94.0Y-130.8
X94.0Y-170.05
X94.3Y-137.15
X94.3Y-138.25
X94.3Y-139.6
X94.602Y-140.35
X94.65Y-130.1
X95.0Y-171.525
X95.2Y-180.6
X96.025Y-159.825
X96.075Y-152.5
X96.1Y-151.0
X96.1Y-149.75
X96.4Y-140.7
X96.65Y-145.5
X96.675Y-155.475
X96.677Y-151.846
X97.0Y-114.025
X97.2Y-141.8
X97.45Y-157.675
X97.5Y-128.05
X97.5Y-184.9
X97.5Y-187.6
X97.5Y-191.0
X98.075Y-159.825
X99.0Y-175.175
X99.0Y-180.6
X99.725Y-148.225
X100.0Y-124.725
X100.0Y-150.7
X100.0Y-153.25
X100.0Y-154.3
X100.025Y-152.45
X100.05Y-163.575
X100.2Y-184.9
X100.2Y-187.6
X100.2Y-191.0
X100.4Y-148.898
X100.45Y-135.225
X100.45Y-127.2
X100.6Y-123.4
X101.525Y-164.25
X101.725Y-135.225
X102.3Y-119.7
X102.3Y-123.0
X102.475Y-117.925
X102.5Y-110.1
X102.8Y-180.6
X103.5Y-109.475
X103.575Y-136.45
X104.0Y-168.05
X104.3Y-119.65
X104.3Y-124.725
X104.8Y-140.75
X104.8Y-142.8
X104.8Y-144.7
X104.8Y-146.298
X104.8Y-149.1
X104.8Y-150.45
X104.8Y-153.1
X104.8Y-154.65
X104.8Y-160.35
X104.8Y-162.25
X105.5Y-127.2
X105.55Y-135.225
X106.4Y-140.75
X108.0Y-185.9
X108.075Y-157.15
X108.075Y-163.575
X108.55Y-121.2
X108.55Y-125.7
X108.55Y-126.65
X109.1Y-142.45
X109.25Y-131.8
X109.65Y-150.7
X109.65Y-151.8
X109.7Y-128.05
X109.7Y-130.05
X110.05Y-168.0
X110.275Y-163.55
X110.405Y-137.95
X110.8Y-141.35
X111.1Y-169.4
X111.2Y-123.0
X111.2Y-126.7
X111.4Y-152.45
X111.4Y-184.775
X111.8Y-137.15
X111.85Y-156.6
X112.15Y-166.35
X112.15Y-173.6
X112.15Y-180.85
X113.15Y-137.15
X114.05Y-113.6
X114.05Y-155.85
X114.05Y-158.2
X114.875Y-111.1
X115.0Y-122.0
X115.325Y-127.675
X115.4Y-183.2
X115.4Y-185.8
X115.4Y-187.7
X115.4Y-191.0
X115.75Y-141.6
X115.95Y-113.6
X116.25Y-123.0
X116.3Y-139.3
X116.9Y-126.8
X117.0Y-149.1
X117.125Y-136.475
X118.0Y-135.85
X118.25Y-141.6
X118.4Y-183.2
X118.4Y-185.8
X118.4Y-187.7
X118.4Y-191.0
X118.8Y-162.55
X118.9Y-172.2
X118.9Y-179.1
X119.25Y-128.4
X119.25Y-134.152
X119.5Y-148.35
X119.7Y-165.0
X119.7Y-167.7
X120.0Y-120.1
X120.2Y-172.2
X120.2Y-179.1
X120.6Y-165.0
X120.6Y-167.7
X120.75Y-124.6
X121.9Y-126.6
X122.3Y-138.6
X122.3Y-139.8
X122.3Y-141.9
X122.3Y-163.55
X123.0Y-125.0
X123.0Y-127.7
X123.0Y-157.15
X123.2Y-137.15
X123.2Y-161.0
X123.2Y-161.8
X123.3Y-150.0
X124.0Y-161.0
X124.0Y-161.8
X126.0Y-185.9
X131.2Y-170.8
X131.95Y-146.1
X132.5Y-108.3
X132.5Y-111.3
X133.2Y-143.6
X133.25Y-152.1
X133.5Y-180.6
X133.5Y-183.2
X133.5Y-187.6
X133.5Y-191.0
X134.0Y-132.1
X134.0Y-133.3
X134.25Y-144.55
X134.3Y-108.3
X134.3Y-151.25
X134.5Y-141.4
X135.0Y-175.8
X135.25Y-138.525
X135.3Y-152.1
X135.35Y-130.95
X136.25Y-133.9
X136.3Y-115.6
X136.3Y-141.9
X136.3Y-144.55
X136.3Y-151.25
X136.3Y-156.3
X136.3Y-158.85
X136.325Y-117.175
X136.35Y-121.9
X136.35Y-135.95
X136.7Y-180.6
X136.7Y-183.2
X136.7Y-187.6
X136.7Y-191.0
X137.0Y-137.2
X137.5Y-106.9
X137.525Y-111.25
X137.6Y-149.25
X137.9Y-132.2
X138.05Y-147.375
X138.3Y-117.2
X138.3Y-119.4
X139.0Y-106.9
X139.0Y-108.3
X139.35Y-123.45
X140.05Y-127.75
X140.775Y-175.727
X140.8Y-121.9
X141.45Y-126.5
X141.8Y-129.0
X142.9Y-165.1
X142.9Y-169.3
X143.85Y-123.75
X144.0Y-184.773
X146.9Y-123.75
X147.3Y-165.1
X147.3Y-169.3
X148.3Y-121.25
X148.518Y-131.532
X151.5Y-180.6
X151.5Y-183.1
X151.5Y-187.0
X151.5Y-191.0
X151.525Y-133.05
X153.3Y-124.0
X153.95Y-175.05
X154.6Y-180.6
X154.6Y-183.1
X154.6Y-187.0
X154.6Y-191.0
X156.9Y-127.4
X158.2Y-133.9
X158.9Y-134.7
X158.95Y-183.0
X160.1Y-135.5
X160.9Y-141.825
X161.6Y-165.1
X161.6Y-169.3
X162.0Y-189.3
X162.1Y-135.9
X162.7Y-121.0
X162.7Y-125.6
X164.7Y-165.1
X164.7Y-169.3
X166.3Y-131.3
X166.3Y-135.65
X168.8Y-114.6
X168.8Y-121.0
X168.8Y-125.6
X168.8Y-151.3
X168.8Y-158.1
X169.3Y-180.5
X169.3Y-186.1
X169.3Y-191.0
X172.5Y-174.1
X172.6Y-180.5
X172.6Y-186.1
X172.6Y-191.0
X174.2Y-151.3
X174.2Y-158.1
X175.9Y-114.6
X175.9Y-118.6
X175.9Y-121.0
X175.9Y-125.6
X178.8Y-171.7
X178.8Y-175.5
X179.5Y-151.3
X179.5Y-158.1
X180.6Y-114.6
X180.6Y-121.0
X180.6Y-125.6
X181.0Y-171.6
X181.0Y-175.5
X181.0Y-188.6
X181.6Y-165.3
X181.6Y-168.0
X183.0Y-175.5
X184.0Y-116.0
X185.0Y-175.5
X186.8Y-180.6
X186.8Y-186.1
X186.8Y-191.0
X187.7Y-116.5
X187.8Y-113.1
X189.2Y-151.3
X189.2Y-154.4
X189.6Y-121.2
X190.55Y-139.35
X190.55Y-140.35
X190.55Y-141.35
X190.55Y-142.35
X190.55Y-143.35
X190.6Y-107.0
X190.9Y-180.6
X190.9Y-186.1
X190.9Y-191.0
X191.0Y-114.0
X191.0Y-116.5
X192.9Y-175.5
X194.4Y-109.6
X194.85Y-139.35
X194.85Y-140.35
X194.85Y-141.35
X194.85Y-142.35
X194.85Y-143.35
X195.0Y-120.15
X195.0Y-172.8
X195.0Y-175.5
X196.45Y-151.85
X197.0Y-172.8
X197.2Y-139.9
X197.7Y-142.7
X197.7Y-143.55
X198.0Y-189.327
X198.0Y-184.146
X198.35Y-151.85
X198.4Y-155.4
X198.55Y-142.7
X198.55Y-143.55
X199.3Y-168.2
X199.3Y-172.9
X200.0Y-106.9
X201.2Y-136.1
X201.65Y-111.85
X201.7Y-119.875
X201.7Y-151.85
X201.7Y-155.4
X201.7Y-168.2
X202.3Y-108.3
X202.5Y-139.9
X203.15Y-148.2
X203.15Y-149.05
X204.0Y-148.2
X204.0Y-149.05
X204.3Y-135.25
X204.5Y-115.0
X205.1Y-155.4
X205.75Y-133.35
X205.75Y-135.25
X205.9Y-180.5
X205.9Y-186.1
X205.9Y-191.0
X206.75Y-110.45
X207.0Y-175.75
X207.1Y-161.8
X207.7Y-119.45
X208.3Y-180.5
X208.3Y-186.1
X208.3Y-191.0
X208.5Y-119.45
X209.0Y-136.7
X209.0Y-137.5
X209.2Y-127.95
X209.2Y-129.85
X209.8Y-111.0
X210.5Y-155.4
X210.75Y-138.45
X210.75Y-135.9
X211.15Y-128.0
X211.15Y-129.9
X211.2Y-142.5
X212.3Y-108.2
X212.4Y-168.1
X213.7Y-139.1
X214.45Y-131.2
X214.45Y-141.25
X214.5Y-145.8
X214.5Y-151.8
X216.0Y-185.4
X216.05Y-131.2
X216.1Y-141.25
X216.2Y-145.8
X216.4Y-126.5
X216.85Y-133.9
X217.2Y-126.5
X218.1Y-168.2
X218.3Y-148.2
X219.4Y-142.5
X219.45Y-133.25
X219.45Y-136.7
X219.45Y-137.6
X220.95Y-134.3
X220.95Y-142.9
X221.1Y-108.3
X221.75Y-112.35
X222.6Y-119.4
X223.1Y-108.3
X223.1Y-110.7
X223.5Y-119.4
X223.5Y-180.6
X223.5Y-186.1
X223.5Y-191.0
X224.4Y-119.4
X225.0Y-155.5
X225.0Y-161.7
X225.4Y-108.3
X225.4Y-110.7
X225.95Y-175.05
X226.4Y-180.6
X226.4Y-186.1
X226.4Y-191.0
X227.1Y-132.5
X227.3Y-108.3
X227.3Y-110.7
X229.8Y-120.2
X229.9Y-111.3
X231.8Y-150.3
X231.8Y-155.4
X231.8Y-161.8
X231.8Y-168.1
X232.4Y-120.2
X232.45Y-132.45
X234.0Y-184.3
X236.9Y-106.6
X237.8Y-143.4
X237.8Y-150.3
X237.8Y-164.1
X237.8Y-168.1
X237.8Y-172.5
X237.8Y-177.7
X237.8Y-180.6
X241.0Y-182.3
X241.5Y-177.7
X241.5Y-187.1
X241.5Y-191.0
X242.2Y-123.1
X242.2Y-141.9
X243.0Y-184.3
X244.6Y-187.1
X244.6Y-191.0
X246.3Y-184.3
X247.0Y-180.7
X247.6Y-164.1
X247.6Y-168.1
X247.6Y-172.5
X250.9Y-121.8
X252.0Y-184.5
X252.3Y-153.1
X252.3Y-160.8
X252.3Y-165.3
X252.3Y-168.1
X256.4Y-145.15
X256.65Y-157.15
X257.8Y-121.8
X259.4Y-183.6
X259.4Y-187.6
X259.4Y-191.0
X260.8Y-180.6
X261.0Y-160.8
X261.0Y-171.75
X262.5Y-183.6
X262.5Y-187.6
X262.5Y-191.0
X262.9Y-121.8
X266.0Y-160.8
X266.0Y-165.3
X266.0Y-168.2
X268.4Y-133.15
X268.4Y-145.15
X268.4Y-157.15
X269.0Y-188.6
X269.8Y-121.8
X270.4Y-160.8
X270.4Y-165.3
X270.4Y-168.2
X271.5Y-155.8
X271.5Y-157.8
X271.7Y-143.5
X275.0Y-121.8
X277.4Y-183.4
X277.4Y-188.0
X277.4Y-191.0
X278.6Y-145.15
X278.9Y-180.5
X279.0Y-175.75
X280.4Y-145.15
X280.4Y-157.15
X280.7Y-183.4
X280.7Y-188.0
X280.7Y-191.0
X281.05Y-150.85
X282.3Y-121.8
X282.7Y-155.8
X282.7Y-160.8
X283.6Y-131.6
X283.8Y-143.3
X286.1Y-157.9
X286.1Y-160.8
X287.4Y-121.8
X288.6Y-168.2
X289.0Y-188.6
X290.5Y-145.15
X292.4Y-133.15
X292.4Y-145.15
X292.9Y-168.2
X293.85Y-134.6
X293.85Y-146.6
X293.9Y-121.8
X294.1Y-157.9
X294.1Y-160.8
X295.1Y-187.7
X295.1Y-190.4
X295.6Y-155.4
X296.0Y-175.05
X297.0Y-178.6
X298.5Y-180.6
X298.5Y-183.4
X298.6Y-187.7
X298.6Y-190.5
X299.0Y-121.8
X300.7Y-180.6
X300.7Y-183.4
X301.3Y-160.8
X301.5Y-168.2
X302.55Y-133.15
X302.9Y-184.6
X304.4Y-145.15
X305.9Y-133.15
X305.9Y-160.8
X306.0Y-168.2
X306.0Y-175.3
X306.0Y-185.4
X306.9Y-115.6
X306.9Y-119.6
X306.9Y-127.5
X306.9Y-139.7
X308.6Y-160.8
X308.6Y-168.2
X308.6Y-175.4
X308.7Y-121.8
X308.7Y-124.1
X308.7Y-131.6
X308.7Y-133.8
X308.7Y-135.9
X308.7Y-143.1
X308.7Y-145.0
X308.7Y-148.0
X308.7Y-151.0
X308.7Y-154.5
X311.0Y-171.75
X311.1Y-127.5
X311.1Y-139.7
X311.2Y-115.6
X311.2Y-119.5
X313.7Y-175.4
X313.7Y-190.5
X313.8Y-160.8
X313.8Y-168.2
X316.0Y-121.8
X316.7Y-160.8
X316.7Y-168.2
X316.7Y-175.5
X318.2Y-184.2
X319.275Y-181.5
X320.2Y-173.25
X320.55Y-133.15
X320.55Y-155.3
X321.5Y-161.3
X321.5Y-168.2
X322.4Y-145.15
X323.7Y-161.3
X323.7Y-168.2
X324.3Y-121.8
X325.0Y-143.5
X325.0Y-145.1
X325.0Y-157.9
X325.9Y-164.075
X329.4Y-121.8
X329.775Y-192.925
X330.9Y-144.3
X332.5Y-155.25
X333.2Y-161.3
X333.2Y-168.2
X333.2Y-175.5
X333.2Y-184.2
X334.55Y-143.15
X335.05Y-157.15
X335.1Y-144.6
X335.1Y-150.2
X335.2Y-132.5
X335.2Y-138.1
X335.889Y-134.661
X335.889Y-146.65
X335.9Y-158.65
X336.6Y-132.5
X336.6Y-138.1
X336.6Y-144.6
X336.6Y-150.2
T3
X42.725Y-176.0
X43.318Y-174.568
X43.318Y-177.432
X44.75Y-173.975
X44.75Y-178.025
X46.182Y-174.568
X46.182Y-177.432
X46.775Y-176.0
X135.25Y-137.23
X52.0Y-154.175
X101.5Y-137.1
X71.73Y-135.76
X123.0Y-132.15
X134.0Y-129.61
X42.725Y-126.0
X43.318Y-124.568
X43.318Y-127.432
X44.75Y-123.975
X44.75Y-128.025
X46.182Y-124.568
X46.182Y-127.432
X46.775Y-126.0
X70.975Y-126.0
X71.568Y-124.568
X71.568Y-127.432
X73.0Y-123.975
X73.0Y-128.025
X74.432Y-124.568
X74.432Y-127.432
X75.025Y-126.0
X134.25Y-123.25
X123.0Y-129.6
X186.975Y-166.25
X187.568Y-164.818
X187.568Y-167.682
X189.0Y-164.225
X189.0Y-168.275
X190.432Y-164.818
X190.432Y-167.682
X191.025Y-166.25
X210.5Y-147.375
X74.27Y-135.76
T4
X48.7Y-139.6
X50.2Y-139.6
X51.7Y-139.6
T5
X326.153Y-151.597
X327.051Y-150.699
X327.949Y-149.801
X328.847Y-148.903
X326.153Y-139.597
X327.051Y-138.699
X327.949Y-137.801
X328.847Y-136.903
X260.153Y-127.597
X261.051Y-126.699
X261.949Y-125.801
X262.847Y-124.903
X205.095Y-166.25
X206.365Y-166.25
X207.635Y-166.25
X208.905Y-166.25
X188.05Y-175.5
X189.95Y-175.5
X124.095Y-179.75
X125.365Y-179.75
X126.635Y-179.75
X127.905Y-179.75
X296.153Y-139.597
X297.051Y-138.699
X297.949Y-137.801
X298.847Y-136.903
X286.095Y-179.75
X287.365Y-179.75
X288.635Y-179.75
X289.905Y-179.75
X272.153Y-115.597
X273.051Y-114.699
X273.949Y-113.801
X274.847Y-112.903
X196.095Y-179.75
X197.365Y-179.75
X198.635Y-179.75
X199.905Y-179.75
X272.153Y-127.597
X273.051Y-126.699
X273.949Y-125.801
X274.847Y-124.903
X169.095Y-166.25
X170.365Y-166.25
X171.635Y-166.25
X172.905Y-166.25
X79.095Y-166.25
X80.365Y-166.25
X81.635Y-166.25
X82.905Y-166.25
X248.153Y-139.597
X249.051Y-138.699
X249.949Y-137.801
X250.847Y-136.903
X322.095Y-179.75
X323.365Y-179.75
X324.635Y-179.75
X325.905Y-179.75
X314.153Y-139.597
X315.051Y-138.699
X315.949Y-137.801
X316.847Y-136.903
X70.095Y-179.75
X71.365Y-179.75
X72.635Y-179.75
X73.905Y-179.75
X296.153Y-115.597
X297.051Y-114.699
X297.949Y-113.801
X298.847Y-112.903
X272.153Y-139.597
X273.051Y-138.699
X273.949Y-137.801
X274.847Y-136.903
X314.153Y-127.597
X315.051Y-126.699
X315.949Y-125.801
X316.847Y-124.903
X248.153Y-115.597
X249.051Y-114.699
X249.949Y-113.801
X250.847Y-112.903
X326.153Y-127.597
X327.051Y-126.699
X327.949Y-125.801
X328.847Y-124.903
X106.095Y-179.75
X107.365Y-179.75
X108.635Y-179.75
X109.905Y-179.75
X296.153Y-151.597
X297.051Y-150.699
X297.949Y-149.801
X298.847Y-148.903
X326.153Y-115.597
X327.051Y-114.699
X327.949Y-113.801
X328.847Y-112.903
X260.153Y-115.597
X261.051Y-114.699
X261.949Y-113.801
X262.847Y-112.903
X223.095Y-166.25
X224.365Y-166.25
X225.635Y-166.25
X226.905Y-166.25
X178.095Y-179.75
X179.365Y-179.75
X180.635Y-179.75
X181.905Y-179.75
X296.153Y-127.597
X297.051Y-126.699
X297.949Y-125.801
X298.847Y-124.903
X284.153Y-139.597
X285.051Y-138.699
X285.949Y-137.801
X286.847Y-136.903
X284.153Y-115.597
X285.051Y-114.699
X285.949Y-113.801
X286.847Y-112.903
X151.095Y-166.25
X152.365Y-166.25
X153.635Y-166.25
X154.905Y-166.25
X260.153Y-151.597
X261.051Y-150.699
X261.949Y-149.801
X262.847Y-148.903
X295.095Y-166.25
X296.365Y-166.25
X297.635Y-166.25
X298.905Y-166.25
X272.153Y-151.597
X273.051Y-150.699
X273.949Y-149.801
X274.847Y-148.903
X277.095Y-166.25
X278.365Y-166.25
X279.635Y-166.25
X280.905Y-166.25
X52.095Y-179.75
X53.365Y-179.75
X54.635Y-179.75
X55.905Y-179.75
X232.095Y-179.75
X233.365Y-179.75
X234.635Y-179.75
X235.905Y-179.75
X314.153Y-115.597
X315.051Y-114.699
X315.949Y-113.801
X316.847Y-112.903
X314.153Y-151.597
X315.051Y-150.699
X315.949Y-149.801
X316.847Y-148.903
X259.095Y-166.25
X260.365Y-166.25
X261.635Y-166.25
X262.905Y-166.25
X160.095Y-179.75
X161.365Y-179.75
X162.635Y-179.75
X163.905Y-179.75
X214.095Y-179.75
X215.365Y-179.75
X216.635Y-179.75
X217.905Y-179.75
X260.153Y-139.597
X261.051Y-138.699
X261.949Y-137.801
X262.847Y-136.903
X248.153Y-127.597
X249.051Y-126.699
X249.949Y-125.801
X250.847Y-124.903
X97.095Y-166.25
X98.365Y-166.25
X99.635Y-166.25
X100.905Y-166.25
X133.095Y-166.25
X134.365Y-166.25
X135.635Y-166.25
X136.905Y-166.25
X248.153Y-151.597
X249.051Y-150.699
X249.949Y-149.801
X250.847Y-148.903
X142.095Y-179.75
X143.365Y-179.75
X144.635Y-179.75
X145.905Y-179.75
X284.153Y-127.597
X285.051Y-126.699
X285.949Y-125.801
X286.847Y-124.903
X268.095Y-179.75
X269.365Y-179.75
X270.635Y-179.75
X271.905Y-179.75
X88.095Y-179.75
X89.365Y-179.75
X90.635Y-179.75
X91.905Y-179.75
X304.095Y-179.75
X305.365Y-179.75
X306.635Y-179.75
X307.905Y-179.75
X284.153Y-151.597
X285.051Y-150.699
X285.949Y-149.801
X286.847Y-148.903
X250.095Y-179.75
X251.365Y-179.75
X252.635Y-179.75
X253.905Y-179.75
T6
X88.73Y-109.75
X91.27Y-109.75
T7
X215.25Y-120.45
X215.25Y-125.45
X189.5Y-124.5
X192.0Y-124.5
X226.25Y-120.45
X226.25Y-125.45
X204.25Y-120.45
X204.25Y-125.45
X196.6Y-124.5
X199.1Y-124.5
X209.75Y-120.45
X209.75Y-125.45
X220.75Y-120.45
X220.75Y-125.45
T8
X77.75Y-116.56
X77.75Y-118.56
X80.25Y-116.56
X80.25Y-118.56
T9
X137.0Y-124.0
X137.0Y-129.0
X151.5Y-124.0
X151.5Y-126.5
X151.5Y-129.0
X274.111Y-143.457
X277.293Y-146.639
X278.707Y-138.861
X281.889Y-142.043
X71.73Y-138.3
X71.73Y-140.84
X71.73Y-143.38
X71.73Y-145.92
X71.73Y-148.46
X74.27Y-138.3
X74.27Y-140.84
X74.27Y-143.38
X74.27Y-145.92
X74.27Y-148.46
X316.111Y-131.457
X319.293Y-134.639
X320.707Y-126.861
X323.889Y-130.043
X66.65Y-168.78
X66.65Y-171.32
X69.19Y-168.78
X69.19Y-171.32
X71.73Y-168.78
X71.73Y-171.32
X74.27Y-168.78
X74.27Y-171.32
X298.111Y-131.457
X301.293Y-134.639
X302.707Y-126.861
X305.889Y-130.043
X250.111Y-143.457
X253.293Y-146.639
X254.707Y-138.861
X257.889Y-142.043
X286.111Y-131.457
X289.293Y-134.639
X290.707Y-126.861
X293.889Y-130.043
X250.111Y-155.457
X253.293Y-158.639
X254.707Y-150.861
X257.889Y-154.043
X274.111Y-131.457
X277.293Y-134.639
X278.707Y-126.861
X281.889Y-130.043
X262.111Y-131.457
X265.293Y-134.639
X266.707Y-126.861
X269.889Y-130.043
X328.111Y-119.457
X331.293Y-122.639
X332.707Y-114.861
X335.889Y-118.043
X250.111Y-131.457
X253.293Y-134.639
X254.707Y-126.861
X257.889Y-130.043
X250.111Y-119.457
X253.293Y-122.639
X254.707Y-114.861
X257.889Y-118.043
X328.111Y-143.457
X331.293Y-146.639
X332.707Y-138.861
X335.889Y-142.043
X328.111Y-131.457
X331.293Y-134.639
X332.707Y-126.861
X335.889Y-130.043
X298.111Y-155.457
X301.293Y-158.639
X302.707Y-150.861
X305.889Y-154.043
X316.111Y-143.457
X319.293Y-146.639
X320.707Y-138.861
X323.889Y-142.043
X298.111Y-143.457
X301.293Y-146.639
X302.707Y-138.861
X305.889Y-142.043
X286.111Y-143.457
X289.293Y-146.639
X290.707Y-138.861
X293.889Y-142.043
X262.111Y-155.457
X265.293Y-158.639
X266.707Y-150.861
X269.889Y-154.043
X316.111Y-155.457
X319.293Y-158.639
X320.707Y-150.861
X323.889Y-154.043
X60.5Y-139.5
X60.5Y-154.0
X63.0Y-154.0
X65.5Y-139.5
X65.5Y-154.0
X114.5Y-139.5
X114.5Y-154.0
X117.0Y-154.0
X119.5Y-139.5
X119.5Y-154.0
X87.5Y-119.5
X87.5Y-134.0
X90.0Y-134.0
X92.5Y-119.5
X92.5Y-134.0
X286.111Y-155.457
X289.293Y-158.639
X290.707Y-150.861
X293.889Y-154.043
X274.111Y-119.457
X277.293Y-122.639
X278.707Y-114.861
X281.889Y-118.043
X274.111Y-155.457
X277.293Y-158.639
X278.707Y-150.861
X281.889Y-154.043
X262.111Y-119.457
X265.293Y-122.639
X266.707Y-114.861
X269.889Y-118.043
X193.12Y-108.37
X193.12Y-110.91
X193.12Y-113.45
X193.12Y-115.99
X195.66Y-108.37
X195.66Y-110.91
X195.66Y-113.45
X195.66Y-115.99
X328.111Y-155.457
X331.293Y-158.639
X332.707Y-150.861
X335.889Y-154.043
X262.111Y-143.457
X265.293Y-146.639
X266.707Y-138.861
X269.889Y-142.043
X51.75Y-108.75
X56.25Y-108.75
X298.111Y-119.457
X301.293Y-122.639
X302.707Y-114.861
X305.889Y-118.043
X71.73Y-153.54
X71.73Y-156.08
X71.73Y-158.62
X71.73Y-161.16
X71.73Y-163.7
X74.27Y-153.54
X74.27Y-156.08
X74.27Y-158.62
X74.27Y-161.16
X74.27Y-163.7
X316.111Y-119.457
X319.293Y-122.639
X320.707Y-114.861
X323.889Y-118.043
X286.111Y-119.457
X289.293Y-122.639
X290.707Y-114.861
X293.889Y-118.043
X66.65Y-130.68
X66.65Y-133.22
X69.19Y-130.68
X69.19Y-133.22
X71.73Y-130.68
X71.73Y-133.22
X74.27Y-130.68
X74.27Y-133.22
T10
X193.12Y-131.23
X193.12Y-133.77
X195.66Y-131.23
X195.66Y-133.77
X198.2Y-131.23
X198.2Y-133.77
X127.23Y-114.37
X127.23Y-116.91
X127.23Y-119.45
X127.23Y-121.99
X127.23Y-124.53
X127.23Y-127.07
X127.23Y-129.61
X127.23Y-132.15
X127.23Y-134.69
X127.23Y-137.23
X127.23Y-139.77
X127.23Y-142.31
X127.23Y-144.85
X127.23Y-147.39
X127.23Y-149.93
X127.23Y-152.47
X127.23Y-155.01
X127.23Y-157.55
X127.23Y-160.09
X127.23Y-162.63
X129.77Y-114.37
X129.77Y-116.91
X129.77Y-119.45
X129.77Y-121.99
X129.77Y-124.53
X129.77Y-127.07
X129.77Y-129.61
X129.77Y-132.15
X129.77Y-134.69
X129.77Y-137.23
X129.77Y-139.77
X129.77Y-142.31
X129.77Y-144.85
X129.77Y-147.39
X129.77Y-149.93
X129.77Y-152.47
X129.77Y-155.01
X129.77Y-157.55
X129.77Y-160.09
X129.77Y-162.63
X228.68Y-131.23
X228.68Y-133.77
X231.22Y-131.23
X231.22Y-133.77
X233.76Y-131.23
X233.76Y-133.77
X236.3Y-131.23
X236.3Y-133.77
X238.84Y-131.23
X238.84Y-133.77
X241.38Y-131.23
X241.38Y-133.77
T11
X50.5Y-111.25
X57.5Y-111.25
T13
X72.98Y-113.85
X85.02Y-113.85
T14
X73.0Y-126.0
X44.75Y-176.0
X44.75Y-126.0
X189.0Y-166.25
T2
G00X118.6Y-107.8
M15
G01X118.6Y-108.8
M16
G05
G00X118.6Y-110.8
M15
G01X118.6Y-111.8
M16
G05
G00X118.6Y-113.65
M15
G01X118.6Y-114.65
M16
G05
G00X118.6Y-115.9
M15
G01X118.6Y-116.9
M16
G05
G00X123.4Y-106.9
M15
G01X123.4Y-107.9
M16
G05
G00X123.4Y-108.7
M15
G01X123.4Y-109.7
M16
G05
G00X123.4Y-111.55
M15
G01X123.4Y-112.55
M16
G05
G00X123.4Y-113.8
M15
G01X123.4Y-114.8
M16
G05
G00X198.6Y-107.8
M15
G01X198.6Y-108.8
M16
G05
G00X198.6Y-110.8
M15
G01X198.6Y-111.8
M16
G05
G00X198.6Y-113.65
M15
G01X198.6Y-114.65
M16
G05
G00X198.6Y-115.9
M15
G01X198.6Y-116.9
M16
G05
G00X203.4Y-106.9
M15
G01X203.4Y-107.9
M16
G05
G00X203.4Y-108.7
M15
G01X203.4Y-109.7
M16
G05
G00X203.4Y-111.55
M15
G01X203.4Y-112.55
M16
G05
G00X203.4Y-113.8
M15
G01X203.4Y-114.8
M16
G05
G00X106.6Y-107.8
M15
G01X106.6Y-108.8
M16
G05
G00X106.6Y-110.8
M15
G01X106.6Y-111.8
M16
G05
G00X106.6Y-113.65
M15
G01X106.6Y-114.65
M16
G05
G00X106.6Y-115.9
M15
G01X106.6Y-116.9
M16
G05
G00X111.4Y-106.9
M15
G01X111.4Y-107.9
M16
G05
G00X111.4Y-108.7
M15
G01X111.4Y-109.7
M16
G05
G00X111.4Y-111.55
M15
G01X111.4Y-112.55
M16
G05
G00X111.4Y-113.8
M15
G01X111.4Y-114.8
M16
G05
G00X228.6Y-107.8
M15
G01X228.6Y-108.8
M16
G05
G00X228.6Y-110.8
M15
G01X228.6Y-111.8
M16
G05
G00X228.6Y-113.65
M15
G01X228.6Y-114.65
M16
G05
G00X228.6Y-115.9
M15
G01X228.6Y-116.9
M16
G05
G00X233.4Y-106.9
M15
G01X233.4Y-107.9
M16
G05
G00X233.4Y-108.7
M15
G01X233.4Y-109.7
M16
G05
G00X233.4Y-111.55
M15
G01X233.4Y-112.55
M16
G05
G00X233.4Y-113.8
M15
G01X233.4Y-114.8
M16
G05
G00X94.6Y-107.8
M15
G01X94.6Y-108.8
M16
G05
G00X94.6Y-110.8
M15
G01X94.6Y-111.8
M16
G05
G00X94.6Y-113.65
M15
G01X94.6Y-114.65
M16
G05
G00X94.6Y-115.9
M15
G01X94.6Y-116.9
M16
G05
G00X99.4Y-106.9
M15
G01X99.4Y-107.9
M16
G05
G00X99.4Y-108.7
M15
G01X99.4Y-109.7
M16
G05
G00X99.4Y-111.55
M15
G01X99.4Y-112.55
M16
G05
G00X99.4Y-113.8
M15
G01X99.4Y-114.8
M16
G05
G00X213.6Y-107.8
M15
G01X213.6Y-108.8
M16
G05
G00X213.6Y-110.8
M15
G01X213.6Y-111.8
M16
G05
G00X213.6Y-113.65
M15
G01X213.6Y-114.65
M16
G05
G00X213.6Y-115.9
M15
G01X213.6Y-116.9
M16
G05
G00X218.4Y-106.9
M15
G01X218.4Y-107.9
M16
G05
G00X218.4Y-108.7
M15
G01X218.4Y-109.7
M16
G05
G00X218.4Y-111.55
M15
G01X218.4Y-112.55
M16
G05
G00X218.4Y-113.8
M15
G01X218.4Y-114.8
M16
G05
T7
G00X65.1Y-111.0
M15
G01X62.9Y-111.0
M16
G05
G00X65.1Y-117.0
M15
G01X62.9Y-117.0
M16
G05
G00X68.8Y-115.6
M15
G01X68.8Y-113.4
M16
G05
T9
G00X158.75Y-186.75
M15
G01X157.65Y-186.75
M16
G05
G00X158.75Y-191.25
M15
G01X157.65Y-191.25
M16
G05
G00X166.35Y-186.75
M15
G01X165.25Y-186.75
M16
G05
G00X166.35Y-191.25
M15
G01X165.25Y-191.25
M16
G05
G00X140.75Y-186.75
M15
G01X139.65Y-186.75
M16
G05
G00X140.75Y-191.25
M15
G01X139.65Y-191.25
M16
G05
G00X148.35Y-186.75
M15
G01X147.25Y-186.75
M16
G05
G00X148.35Y-191.25
M15
G01X147.25Y-191.25
M16
G05
G00X320.75Y-186.75
M15
G01X319.65Y-186.75
M16
G05
G00X320.75Y-191.25
M15
G01X319.65Y-191.25
M16
G05
G00X328.35Y-186.75
M15
G01X327.25Y-186.75
M16
G05
G00X328.35Y-191.25
M15
G01X327.25Y-191.25
M16
G05
G00X230.75Y-186.75
M15
G01X229.65Y-186.75
M16
G05
G00X230.75Y-191.25
M15
G01X229.65Y-191.25
M16
G05
G00X238.35Y-186.75
M15
G01X237.25Y-186.75
M16
G05
G00X238.35Y-191.25
M15
G01X237.25Y-191.25
M16
G05
G00X284.75Y-186.75
M15
G01X283.65Y-186.75
M16
G05
G00X284.75Y-191.25
M15
G01X283.65Y-191.25
M16
G05
G00X292.35Y-186.75
M15
G01X291.25Y-186.75
M16
G05
G00X292.35Y-191.25
M15
G01X291.25Y-191.25
M16
G05
G00X104.75Y-186.75
M15
G01X103.65Y-186.75
M16
G05
G00X104.75Y-191.25
M15
G01X103.65Y-191.25
M16
G05
G00X112.35Y-186.75
M15
G01X111.25Y-186.75
M16
G05
G00X112.35Y-191.25
M15
G01X111.25Y-191.25
M16
G05
G00X275.75Y-173.25
M15
G01X274.65Y-173.25
M16
G05
G00X275.75Y-177.75
M15
G01X274.65Y-177.75
M16
G05
G00X283.35Y-173.25
M15
G01X282.25Y-173.25
M16
G05
G00X283.35Y-177.75
M15
G01X282.25Y-177.75
M16
G05
G00X302.75Y-186.75
M15
G01X301.65Y-186.75
M16
G05
G00X302.75Y-191.25
M15
G01X301.65Y-191.25
M16
G05
G00X310.35Y-186.75
M15
G01X309.25Y-186.75
M16
G05
G00X310.35Y-191.25
M15
G01X309.25Y-191.25
M16
G05
G00X68.75Y-186.75
M15
G01X67.65Y-186.75
M16
G05
G00X68.75Y-191.25
M15
G01X67.65Y-191.25
M16
G05
G00X76.35Y-186.75
M15
G01X75.25Y-186.75
M16
G05
G00X76.35Y-191.25
M15
G01X75.25Y-191.25
M16
G05
G00X176.75Y-186.75
M15
G01X175.65Y-186.75
M16
G05
G00X176.75Y-191.25
M15
G01X175.65Y-191.25
M16
G05
G00X184.35Y-186.75
M15
G01X183.25Y-186.75
M16
G05
G00X184.35Y-191.25
M15
G01X183.25Y-191.25
M16
G05
G00X131.75Y-173.25
M15
G01X130.65Y-173.25
M16
G05
G00X131.75Y-177.75
M15
G01X130.65Y-177.75
M16
G05
G00X139.35Y-173.25
M15
G01X138.25Y-173.25
M16
G05
G00X139.35Y-177.75
M15
G01X138.25Y-177.75
M16
G05
G00X257.75Y-173.25
M15
G01X256.65Y-173.25
M16
G05
G00X257.75Y-177.75
M15
G01X256.65Y-177.75
M16
G05
G00X265.35Y-173.25
M15
G01X264.25Y-173.25
M16
G05
G00X265.35Y-177.75
M15
G01X264.25Y-177.75
M16
G05
G00X122.75Y-186.75
M15
G01X121.65Y-186.75
M16
G05
G00X122.75Y-191.25
M15
G01X121.65Y-191.25
M16
G05
G00X130.35Y-186.75
M15
G01X129.25Y-186.75
M16
G05
G00X130.35Y-191.25
M15
G01X129.25Y-191.25
M16
G05
G00X50.75Y-186.75
M15
G01X49.65Y-186.75
M16
G05
G00X50.75Y-191.25
M15
G01X49.65Y-191.25
M16
G05
G00X58.35Y-186.75
M15
G01X57.25Y-186.75
M16
G05
G00X58.35Y-191.25
M15
G01X57.25Y-191.25
M16
G05
G00X293.75Y-173.25
M15
G01X292.65Y-173.25
M16
G05
G00X293.75Y-177.75
M15
G01X292.65Y-177.75
M16
G05
G00X301.35Y-173.25
M15
G01X300.25Y-173.25
M16
G05
G00X301.35Y-177.75
M15
G01X300.25Y-177.75
M16
G05
G00X194.75Y-186.75
M15
G01X193.65Y-186.75
M16
G05
G00X194.75Y-191.25
M15
G01X193.65Y-191.25
M16
G05
G00X202.35Y-186.75
M15
G01X201.25Y-186.75
M16
G05
G00X202.35Y-191.25
M15
G01X201.25Y-191.25
M16
G05
G00X212.75Y-186.75
M15
G01X211.65Y-186.75
M16
G05
G00X212.75Y-191.25
M15
G01X211.65Y-191.25
M16
G05
G00X220.35Y-186.75
M15
G01X219.25Y-186.75
M16
G05
G00X220.35Y-191.25
M15
G01X219.25Y-191.25
M16
G05
G00X149.75Y-173.25
M15
G01X148.65Y-173.25
M16
G05
G00X149.75Y-177.75
M15
G01X148.65Y-177.75
M16
G05
G00X157.35Y-173.25
M15
G01X156.25Y-173.25
M16
G05
G00X157.35Y-177.75
M15
G01X156.25Y-177.75
M16
G05
G00X167.75Y-173.25
M15
G01X166.65Y-173.25
M16
G05
G00X167.75Y-177.75
M15
G01X166.65Y-177.75
M16
G05
G00X175.35Y-173.25
M15
G01X174.25Y-173.25
M16
G05
G00X175.35Y-177.75
M15
G01X174.25Y-177.75
M16
G05
G00X248.75Y-186.75
M15
G01X247.65Y-186.75
M16
G05
G00X248.75Y-191.25
M15
G01X247.65Y-191.25
M16
G05
G00X256.35Y-186.75
M15
G01X255.25Y-186.75
M16
G05
G00X256.35Y-191.25
M15
G01X255.25Y-191.25
M16
G05
G00X77.75Y-173.25
M15
G01X76.65Y-173.25
M16
G05
G00X77.75Y-177.75
M15
G01X76.65Y-177.75
M16
G05
G00X85.35Y-173.25
M15
G01X84.25Y-173.25
M16
G05
G00X85.35Y-177.75
M15
G01X84.25Y-177.75
M16
G05
G00X266.75Y-186.75
M15
G01X265.65Y-186.75
M16
G05
G00X266.75Y-191.25
M15
G01X265.65Y-191.25
M16
G05
G00X274.35Y-186.75
M15
G01X273.25Y-186.75
M16
G05
G00X274.35Y-191.25
M15
G01X273.25Y-191.25
M16
G05
G00X86.75Y-186.75
M15
G01X85.65Y-186.75
M16
G05
G00X86.75Y-191.25
M15
G01X85.65Y-191.25
M16
G05
G00X94.35Y-186.75
M15
G01X93.25Y-186.75
M16
G05
G00X94.35Y-191.25
M15
G01X93.25Y-191.25
M16
G05
G00X203.75Y-173.25
M15
G01X202.65Y-173.25
M16
G05
G00X203.75Y-177.75
M15
G01X202.65Y-177.75
M16
G05
G00X211.35Y-173.25
M15
G01X210.25Y-173.25
M16
G05
G00X211.35Y-177.75
M15
G01X210.25Y-177.75
M16
G05
G00X95.75Y-173.25
M15
G01X94.65Y-173.25
M16
G05
G00X95.75Y-177.75
M15
G01X94.65Y-177.75
M16
G05
G00X103.35Y-173.25
M15
G01X102.25Y-173.25
M16
G05
G00X103.35Y-177.75
M15
G01X102.25Y-177.75
M16
G05
G00X221.75Y-173.25
M15
G01X220.65Y-173.25
M16
G05
G00X221.75Y-177.75
M15
G01X220.65Y-177.75
M16
G05
G00X229.35Y-173.25
M15
G01X228.25Y-173.25
M16
G05
G00X229.35Y-177.75
M15
G01X228.25Y-177.75
M16
G05
T12
G00X57.5Y-147.05
M15
G01X57.5Y-145.95
M16
G05
G00X68.5Y-147.05
M15
G01X68.5Y-145.95
M16
G05
G00X111.5Y-147.05
M15
G01X111.5Y-145.95
M16
G05
G00X122.5Y-147.05
M15
G01X122.5Y-145.95
M16
G05
G00X84.5Y-127.05
M15
G01X84.5Y-125.95
M16
G05
G00X95.5Y-127.05
M15
G01X95.5Y-125.95
M16
G05
G00X144.55Y-121.0
M15
G01X143.45Y-121.0
M16
G05
G00X144.55Y-132.0
M15
G01X143.45Y-132.0
M16
G05
T0
M30
