M48
; DRILL file {KiCad 5.1.9} date Tue May  4 07:57:21 2021
; FORMAT={-:-/ absolute / inch / decimal}
; #@! TF.CreationDate,2021-05-04T07:57:21+02:00
; #@! TF.GenerationSoftware,Kicad,Pcbnew,5.1.9
; #@! TF.FileFunction,NonPlated,1,2,NPTH
FMAT,2
INCH
T1C0.0454
T2C0.1102
T3C0.1575
T4C0.2756
T5C0.2835
T6C0.5354
%
G90
G05
T1
X0.7953Y-0.9843
X0.7953Y-3.3898
X11.9264Y-3.439
T2
X0.824Y-0.7539
X0.824Y-3.1496
X6.3465Y-3.1732
X11.8531Y-0.5512
X11.8689Y-3.1732
T3
X8.7283Y-0.939
X8.7283Y-1.4114
X8.7283Y-1.8839
X8.7283Y-2.3563
X9.2008Y-0.939
X9.2008Y-1.4114
X9.2008Y-1.8839
X9.2008Y-2.3563
X9.6732Y-0.939
X9.6732Y-1.4114
X9.6732Y-1.8839
X9.6732Y-2.3563
X10.1457Y-0.939
X10.1457Y-1.4114
X10.1457Y-1.8839
X10.1457Y-2.3563
X10.6181Y-0.939
X10.6181Y-1.4114
X10.6181Y-1.8839
X10.6181Y-2.3563
X11.3268Y-0.939
X11.3268Y-1.4114
X11.3268Y-1.8839
X11.3268Y-2.3563
X11.7992Y-0.939
X11.7992Y-1.4114
X11.7992Y-1.8839
X11.7992Y-2.3563
T4
X1.1996Y-0.8799
X10.8783Y-1.087
T5
X1.3858Y-2.0315
X2.4488Y-1.2441
X3.5118Y-2.0315
X4.5748Y-1.2441
T6
X2.0945Y-3.1732
X2.8031Y-3.1732
X4.2205Y-3.1732
X4.9291Y-3.1732
X5.6378Y-3.1732
X7.0551Y-3.1732
X7.7638Y-3.1732
X9.1811Y-3.1732
X9.8898Y-3.1732
X10.5984Y-3.1732
T0
M30
