%TF.GenerationSoftware,KiCad,Pcbnew,5.1.9*%
%TF.CreationDate,2021-03-30T15:22:33+02:00*%
%TF.ProjectId,OTTO-Beta-Aux,4f54544f-2d42-4657-9461-2d4175782e6b,rev?*%
%TF.SameCoordinates,Original*%
%TF.FileFunction,Profile,NP*%
%FSLAX46Y46*%
G04 Gerber Fmt 4.6, Leading zero omitted, Abs format (unit mm)*
G04 Created by KiCad (PCBNEW 5.1.9) date 2021-03-30 15:22:33*
%MOMM*%
%LPD*%
G01*
G04 APERTURE LIST*
%TA.AperFunction,Profile*%
%ADD10C,0.150000*%
%TD*%
G04 APERTURE END LIST*
D10*
X292213782Y-89650000D02*
X293222500Y-89650000D01*
X283700000Y-88136218D02*
X283700000Y-87000000D01*
X290700000Y-88136218D02*
X290700000Y-87000000D01*
X281182500Y-89650000D02*
X282186218Y-89650000D01*
X283700000Y-88136218D02*
G75*
G02*
X282186218Y-89650000I-1513782J0D01*
G01*
X283700000Y-87000000D02*
G75*
G02*
X290700000Y-87000000I3500000J0D01*
G01*
X292213782Y-89650000D02*
G75*
G02*
X290700000Y-88136218I0J1513782D01*
G01*
X166211282Y-89650000D02*
X167220000Y-89650000D01*
X157697500Y-88136218D02*
X157697500Y-87600000D01*
X164697500Y-88136218D02*
X164697500Y-87600000D01*
X155180000Y-89650000D02*
X156183718Y-89650000D01*
X157697500Y-88136218D02*
G75*
G02*
X156183718Y-89650000I-1513782J0D01*
G01*
X157697500Y-87600000D02*
G75*
G02*
X164697500Y-87600000I3500000J0D01*
G01*
X166211282Y-89650000D02*
G75*
G02*
X164697500Y-88136218I0J1513782D01*
G01*
X38697500Y-88136218D02*
X38697500Y-87000000D01*
X40211282Y-89650000D02*
X41220000Y-89650000D01*
X40211282Y-89650000D02*
G75*
G02*
X38697500Y-88136218I0J1513782D01*
G01*
X31697500Y-88136218D02*
X31697500Y-87000000D01*
X31697500Y-88136218D02*
G75*
G02*
X30183718Y-89650000I-1513782J0D01*
G01*
X31697500Y-87000000D02*
G75*
G02*
X38697500Y-87000000I3500000J0D01*
G01*
X293220000Y-89650000D02*
G75*
G02*
X299180000Y-89650000I2980000J-11450000D01*
G01*
X299180000Y-89650000D02*
X301220000Y-89650000D01*
X275220000Y-89650000D02*
G75*
G02*
X281180000Y-89650000I2980000J-11450000D01*
G01*
X257220000Y-89650000D02*
G75*
G02*
X263180000Y-89650000I2980000J-11450000D01*
G01*
X263180000Y-89650000D02*
X275220000Y-89650000D01*
X239220000Y-89650000D02*
G75*
G02*
X245180000Y-89650000I2980000J-11450000D01*
G01*
X245180000Y-89650000D02*
X257220000Y-89650000D01*
X221220000Y-89650000D02*
G75*
G02*
X227180000Y-89650000I2980000J-11450000D01*
G01*
X227180000Y-89650000D02*
X239220000Y-89650000D01*
X203220000Y-89650000D02*
G75*
G02*
X209180000Y-89650000I2980000J-11450000D01*
G01*
X209180000Y-89650000D02*
X221220000Y-89650000D01*
X185220000Y-89650000D02*
G75*
G02*
X191180000Y-89650000I2980000J-11450000D01*
G01*
X191180000Y-89650000D02*
X203220000Y-89650000D01*
X167220000Y-89650000D02*
G75*
G02*
X173180000Y-89650000I2980000J-11450000D01*
G01*
X173180000Y-89650000D02*
X185220000Y-89650000D01*
X149220000Y-89650000D02*
G75*
G02*
X155180000Y-89650000I2980000J-11450000D01*
G01*
X131220000Y-89650000D02*
G75*
G02*
X137180000Y-89650000I2980000J-11450000D01*
G01*
X137180000Y-89650000D02*
X149220000Y-89650000D01*
X113220000Y-89650000D02*
G75*
G02*
X119180000Y-89650000I2980000J-11450000D01*
G01*
X119180000Y-89650000D02*
X131220000Y-89650000D01*
X95220000Y-89650000D02*
G75*
G02*
X101180000Y-89650000I2980000J-11450000D01*
G01*
X101180000Y-89650000D02*
X113220000Y-89650000D01*
X77220000Y-89650000D02*
G75*
G02*
X83180000Y-89650000I2980000J-11450000D01*
G01*
X83180000Y-89650000D02*
X95220000Y-89650000D01*
X59220000Y-89650000D02*
G75*
G02*
X65180000Y-89650000I2980000J-11450000D01*
G01*
X65180000Y-89650000D02*
X77220000Y-89650000D01*
X41220000Y-89650000D02*
G75*
G02*
X47180000Y-89650000I2980000J-11450000D01*
G01*
X47180000Y-89650000D02*
X59220000Y-89650000D01*
X23220000Y-89650000D02*
G75*
G02*
X29180000Y-89650000I2980000J-11450000D01*
G01*
X29180000Y-89650000D02*
X30183718Y-89650000D01*
X21180000Y-89650000D02*
X23220000Y-89650000D01*
X305470000Y-85400000D02*
G75*
G02*
X301220000Y-89650000I-4250000J0D01*
G01*
X21180000Y-89650000D02*
G75*
G02*
X16930000Y-85400000I0J4250000D01*
G01*
X16950000Y-17520000D02*
G75*
G02*
X21200000Y-13270000I4250000J0D01*
G01*
X301220000Y-9590000D02*
G75*
G02*
X305470000Y-13840000I0J-4250000D01*
G01*
X16950000Y-17520000D02*
X16930000Y-85400000D01*
X110970000Y-17600000D02*
X116970000Y-17600000D01*
X206420000Y-17590000D02*
X206420000Y-13270000D01*
X286600000Y-15990000D02*
X286600000Y-11670000D01*
X286600000Y-11670000D02*
X280600000Y-11670000D01*
X21200000Y-13270000D02*
X47550000Y-13270000D01*
X53550000Y-13270000D02*
X110970000Y-13270000D01*
X280600000Y-11670000D02*
X280600000Y-9590000D01*
X292600000Y-15990000D02*
X292600000Y-11670000D01*
X297230000Y-11670000D02*
X297230000Y-9590000D01*
X53550000Y-17590000D02*
X53550000Y-13270000D01*
X286600000Y-15990000D02*
X292600000Y-15990000D01*
X47550000Y-17590000D02*
X53550000Y-17590000D01*
X212420000Y-17590000D02*
X212420000Y-13270000D01*
X212420000Y-13270000D02*
X266190000Y-13270000D01*
X47550000Y-17590000D02*
X47550000Y-13270000D01*
X110970000Y-17600000D02*
X110970000Y-13270000D01*
X266190000Y-13270000D02*
X266190000Y-9590000D01*
X206420000Y-17590000D02*
X212420000Y-17590000D01*
X116970000Y-13270000D02*
X201420000Y-13270000D01*
X116970000Y-17600000D02*
X116970000Y-13270000D01*
X201420000Y-13270000D02*
X206420000Y-13270000D01*
X266190000Y-9590000D02*
X280600000Y-9590000D01*
X301220000Y-9590000D02*
X297230000Y-9590000D01*
X297230000Y-11670000D02*
X292600000Y-11670000D01*
X216600000Y-73200000D02*
G75*
G02*
X215800000Y-74000000I-800000J0D01*
G01*
X207200000Y-74000000D02*
G75*
G02*
X206400000Y-73200000I0J800000D01*
G01*
X215800000Y-66000000D02*
G75*
G02*
X216600000Y-66800000I0J-800000D01*
G01*
X206400000Y-66800000D02*
G75*
G02*
X207200000Y-66000000I800000J0D01*
G01*
X206400000Y-73200000D02*
X206400000Y-66800000D01*
X215800000Y-74000000D02*
X207200000Y-74000000D01*
X216600000Y-66800000D02*
X216600000Y-73200000D01*
X207200000Y-66000000D02*
X215800000Y-66000000D01*
X71750000Y-41000000D02*
G75*
G02*
X71250000Y-40500000I0J500000D01*
G01*
X71250000Y-33500000D02*
G75*
G02*
X71750000Y-33000000I500000J0D01*
G01*
X81750000Y-33000000D02*
G75*
G02*
X82250000Y-33500000I0J-500000D01*
G01*
X82250000Y-40500000D02*
G75*
G02*
X81750000Y-41000000I-500000J0D01*
G01*
X71250000Y-40500000D02*
X71250000Y-33500000D01*
X81750000Y-41000000D02*
X71750000Y-41000000D01*
X82250000Y-33500000D02*
X82250000Y-40500000D01*
X71750000Y-33000000D02*
X81750000Y-33000000D01*
X279320000Y-13800000D02*
G75*
G03*
X279320000Y-13800000I-3250000J0D01*
G01*
X162050000Y-53386218D02*
G75*
G02*
X161300000Y-52636218I0J750000D01*
G01*
X168500000Y-52636218D02*
G75*
G02*
X167750000Y-53386218I-750000J0D01*
G01*
X161298959Y-27136218D02*
G75*
G02*
X162048959Y-26386218I750000J0D01*
G01*
X167750000Y-26386218D02*
G75*
G02*
X168500000Y-27136218I0J-750000D01*
G01*
X162048959Y-26386218D02*
X167750000Y-26386218D01*
X162050000Y-53386218D02*
X167750000Y-53386218D01*
X161298959Y-27136218D02*
X161300000Y-52636218D01*
X168500000Y-27136218D02*
X168500000Y-52636218D01*
X1666666Y0D02*
G75*
G03*
X1666666Y0I-1666666J0D01*
G01*
X-2500000Y0D02*
X2500000Y0D01*
X0Y2500000D02*
X0Y-2500000D01*
X1666666Y-114300000D02*
G75*
G03*
X1666666Y-114300000I-1666666J0D01*
G01*
X-2500000Y-114300000D02*
X2500000Y-114300000D01*
X0Y-111800000D02*
X0Y-116800000D01*
X331866666Y-114300000D02*
G75*
G03*
X331866666Y-114300000I-1666666J0D01*
G01*
X327700000Y-114300000D02*
X332700000Y-114300000D01*
X330200000Y-111800000D02*
X330200000Y-116800000D01*
X331866666Y0D02*
G75*
G03*
X331866666Y0I-1666666J0D01*
G01*
X327700000Y0D02*
X332700000Y0D01*
X330200000Y2500000D02*
X330200000Y-2500000D01*
X305470000Y-85400000D02*
X305470000Y-13840000D01*
M02*
