%TF.GenerationSoftware,KiCad,Pcbnew,5.1.9*%
%TF.CreationDate,2021-05-04T07:57:13+02:00*%
%TF.ProjectId,OTTO-Beta-Aux,4f54544f-2d42-4657-9461-2d4175782e6b,rev?*%
%TF.SameCoordinates,Original*%
%TF.FileFunction,Soldermask,Bot*%
%TF.FilePolarity,Negative*%
%FSLAX46Y46*%
G04 Gerber Fmt 4.6, Leading zero omitted, Abs format (unit mm)*
G04 Created by KiCad (PCBNEW 5.1.9) date 2021-05-04 07:57:13*
%MOMM*%
%LPD*%
G01*
G04 APERTURE LIST*
%ADD10C,1.600000*%
%ADD11C,4.102000*%
%ADD12C,13.702000*%
%ADD13C,7.302000*%
%ADD14C,7.102000*%
%ADD15C,5.800000*%
%ADD16C,2.000000*%
%ADD17C,0.150000*%
G04 APERTURE END LIST*
D10*
X302930000Y-87350000D03*
X20200000Y-86100000D03*
X20200000Y-25000000D03*
D11*
X299700000Y-23850000D03*
X287700000Y-23850000D03*
X269700000Y-23850000D03*
X257700000Y-23850000D03*
X245700000Y-23850000D03*
X233700000Y-23850000D03*
X221700000Y-23850000D03*
X299700000Y-35850000D03*
X287700000Y-35850000D03*
X269700000Y-35850000D03*
X257700000Y-35850000D03*
X245700000Y-35850000D03*
X233700000Y-35850000D03*
X221700000Y-35850000D03*
X299700000Y-47850000D03*
X287700000Y-47850000D03*
X269700000Y-47850000D03*
X257700000Y-47850000D03*
X245700000Y-47850000D03*
X233700000Y-47850000D03*
X221700000Y-47850000D03*
X299700000Y-59850000D03*
X287700000Y-59850000D03*
X269700000Y-59850000D03*
X257700000Y-59850000D03*
X245700000Y-59850000D03*
X233700000Y-59850000D03*
X221700000Y-59850000D03*
D12*
X269200000Y-80600000D03*
X251200000Y-80600000D03*
X233200000Y-80600000D03*
X197200000Y-80600000D03*
X179200000Y-80600000D03*
X143200000Y-80600000D03*
X125200000Y-80600000D03*
X107200000Y-80600000D03*
X71200000Y-80600000D03*
X53200000Y-80600000D03*
D13*
X116200000Y-31600000D03*
X89200000Y-51600000D03*
X62200000Y-31600000D03*
X35200000Y-51600000D03*
D14*
X30470000Y-22350000D03*
X276310000Y-27609000D03*
G36*
G01*
X196480800Y-59996200D02*
X196480800Y-58296200D01*
G75*
G02*
X196531800Y-58245200I51000J0D01*
G01*
X197131800Y-58245200D01*
G75*
G02*
X197182800Y-58296200I0J-51000D01*
G01*
X197182800Y-59996200D01*
G75*
G02*
X197131800Y-60047200I-51000J0D01*
G01*
X196531800Y-60047200D01*
G75*
G02*
X196480800Y-59996200I0J51000D01*
G01*
G37*
G36*
G01*
X195480800Y-59996200D02*
X195480800Y-58296200D01*
G75*
G02*
X195531800Y-58245200I51000J0D01*
G01*
X196131800Y-58245200D01*
G75*
G02*
X196182800Y-58296200I0J-51000D01*
G01*
X196182800Y-59996200D01*
G75*
G02*
X196131800Y-60047200I-51000J0D01*
G01*
X195531800Y-60047200D01*
G75*
G02*
X195480800Y-59996200I0J51000D01*
G01*
G37*
G36*
G01*
X194480800Y-59996200D02*
X194480800Y-58296200D01*
G75*
G02*
X194531800Y-58245200I51000J0D01*
G01*
X195131800Y-58245200D01*
G75*
G02*
X195182800Y-58296200I0J-51000D01*
G01*
X195182800Y-59996200D01*
G75*
G02*
X195131800Y-60047200I-51000J0D01*
G01*
X194531800Y-60047200D01*
G75*
G02*
X194480800Y-59996200I0J51000D01*
G01*
G37*
G36*
G01*
X193480800Y-59996200D02*
X193480800Y-58296200D01*
G75*
G02*
X193531800Y-58245200I51000J0D01*
G01*
X194131800Y-58245200D01*
G75*
G02*
X194182800Y-58296200I0J-51000D01*
G01*
X194182800Y-59996200D01*
G75*
G02*
X194131800Y-60047200I-51000J0D01*
G01*
X193531800Y-60047200D01*
G75*
G02*
X193480800Y-59996200I0J51000D01*
G01*
G37*
G36*
G01*
X192480800Y-59996200D02*
X192480800Y-58296200D01*
G75*
G02*
X192531800Y-58245200I51000J0D01*
G01*
X193131800Y-58245200D01*
G75*
G02*
X193182800Y-58296200I0J-51000D01*
G01*
X193182800Y-59996200D01*
G75*
G02*
X193131800Y-60047200I-51000J0D01*
G01*
X192531800Y-60047200D01*
G75*
G02*
X192480800Y-59996200I0J51000D01*
G01*
G37*
G36*
G01*
X191480800Y-59996200D02*
X191480800Y-58296200D01*
G75*
G02*
X191531800Y-58245200I51000J0D01*
G01*
X192131800Y-58245200D01*
G75*
G02*
X192182800Y-58296200I0J-51000D01*
G01*
X192182800Y-59996200D01*
G75*
G02*
X192131800Y-60047200I-51000J0D01*
G01*
X191531800Y-60047200D01*
G75*
G02*
X191480800Y-59996200I0J51000D01*
G01*
G37*
G36*
G01*
X190480800Y-59996200D02*
X190480800Y-58296200D01*
G75*
G02*
X190531800Y-58245200I51000J0D01*
G01*
X191131800Y-58245200D01*
G75*
G02*
X191182800Y-58296200I0J-51000D01*
G01*
X191182800Y-59996200D01*
G75*
G02*
X191131800Y-60047200I-51000J0D01*
G01*
X190531800Y-60047200D01*
G75*
G02*
X190480800Y-59996200I0J51000D01*
G01*
G37*
G36*
G01*
X189480800Y-59996200D02*
X189480800Y-58296200D01*
G75*
G02*
X189531800Y-58245200I51000J0D01*
G01*
X190131800Y-58245200D01*
G75*
G02*
X190182800Y-58296200I0J-51000D01*
G01*
X190182800Y-59996200D01*
G75*
G02*
X190131800Y-60047200I-51000J0D01*
G01*
X189531800Y-60047200D01*
G75*
G02*
X189480800Y-59996200I0J51000D01*
G01*
G37*
G36*
G01*
X188480800Y-59996200D02*
X188480800Y-58296200D01*
G75*
G02*
X188531800Y-58245200I51000J0D01*
G01*
X189131800Y-58245200D01*
G75*
G02*
X189182800Y-58296200I0J-51000D01*
G01*
X189182800Y-59996200D01*
G75*
G02*
X189131800Y-60047200I-51000J0D01*
G01*
X188531800Y-60047200D01*
G75*
G02*
X188480800Y-59996200I0J51000D01*
G01*
G37*
G36*
G01*
X187480800Y-59996200D02*
X187480800Y-58296200D01*
G75*
G02*
X187531800Y-58245200I51000J0D01*
G01*
X188131800Y-58245200D01*
G75*
G02*
X188182800Y-58296200I0J-51000D01*
G01*
X188182800Y-59996200D01*
G75*
G02*
X188131800Y-60047200I-51000J0D01*
G01*
X187531800Y-60047200D01*
G75*
G02*
X187480800Y-59996200I0J51000D01*
G01*
G37*
G36*
G01*
X186480800Y-59996200D02*
X186480800Y-58296200D01*
G75*
G02*
X186531800Y-58245200I51000J0D01*
G01*
X187131800Y-58245200D01*
G75*
G02*
X187182800Y-58296200I0J-51000D01*
G01*
X187182800Y-59996200D01*
G75*
G02*
X187131800Y-60047200I-51000J0D01*
G01*
X186531800Y-60047200D01*
G75*
G02*
X186480800Y-59996200I0J51000D01*
G01*
G37*
G36*
G01*
X181730800Y-58076200D02*
X181730800Y-55276200D01*
G75*
G02*
X181781800Y-55225200I51000J0D01*
G01*
X184281800Y-55225200D01*
G75*
G02*
X184332800Y-55276200I0J-51000D01*
G01*
X184332800Y-58076200D01*
G75*
G02*
X184281800Y-58127200I-51000J0D01*
G01*
X181781800Y-58127200D01*
G75*
G02*
X181730800Y-58076200I0J51000D01*
G01*
G37*
G36*
G01*
X206330800Y-58076200D02*
X206330800Y-55276200D01*
G75*
G02*
X206381800Y-55225200I51000J0D01*
G01*
X208881800Y-55225200D01*
G75*
G02*
X208932800Y-55276200I0J-51000D01*
G01*
X208932800Y-58076200D01*
G75*
G02*
X208881800Y-58127200I-51000J0D01*
G01*
X206381800Y-58127200D01*
G75*
G02*
X206330800Y-58076200I0J51000D01*
G01*
G37*
G36*
G01*
X185480800Y-59996200D02*
X185480800Y-58296200D01*
G75*
G02*
X185531800Y-58245200I51000J0D01*
G01*
X186131800Y-58245200D01*
G75*
G02*
X186182800Y-58296200I0J-51000D01*
G01*
X186182800Y-59996200D01*
G75*
G02*
X186131800Y-60047200I-51000J0D01*
G01*
X185531800Y-60047200D01*
G75*
G02*
X185480800Y-59996200I0J51000D01*
G01*
G37*
G36*
G01*
X197480800Y-59996200D02*
X197480800Y-58296200D01*
G75*
G02*
X197531800Y-58245200I51000J0D01*
G01*
X198131800Y-58245200D01*
G75*
G02*
X198182800Y-58296200I0J-51000D01*
G01*
X198182800Y-59996200D01*
G75*
G02*
X198131800Y-60047200I-51000J0D01*
G01*
X197531800Y-60047200D01*
G75*
G02*
X197480800Y-59996200I0J51000D01*
G01*
G37*
G36*
G01*
X198480800Y-59996200D02*
X198480800Y-58296200D01*
G75*
G02*
X198531800Y-58245200I51000J0D01*
G01*
X199131800Y-58245200D01*
G75*
G02*
X199182800Y-58296200I0J-51000D01*
G01*
X199182800Y-59996200D01*
G75*
G02*
X199131800Y-60047200I-51000J0D01*
G01*
X198531800Y-60047200D01*
G75*
G02*
X198480800Y-59996200I0J51000D01*
G01*
G37*
G36*
G01*
X199480800Y-59996200D02*
X199480800Y-58296200D01*
G75*
G02*
X199531800Y-58245200I51000J0D01*
G01*
X200131800Y-58245200D01*
G75*
G02*
X200182800Y-58296200I0J-51000D01*
G01*
X200182800Y-59996200D01*
G75*
G02*
X200131800Y-60047200I-51000J0D01*
G01*
X199531800Y-60047200D01*
G75*
G02*
X199480800Y-59996200I0J51000D01*
G01*
G37*
G36*
G01*
X200480800Y-59996200D02*
X200480800Y-58296200D01*
G75*
G02*
X200531800Y-58245200I51000J0D01*
G01*
X201131800Y-58245200D01*
G75*
G02*
X201182800Y-58296200I0J-51000D01*
G01*
X201182800Y-59996200D01*
G75*
G02*
X201131800Y-60047200I-51000J0D01*
G01*
X200531800Y-60047200D01*
G75*
G02*
X200480800Y-59996200I0J51000D01*
G01*
G37*
G36*
G01*
X201480800Y-59996200D02*
X201480800Y-58296200D01*
G75*
G02*
X201531800Y-58245200I51000J0D01*
G01*
X202131800Y-58245200D01*
G75*
G02*
X202182800Y-58296200I0J-51000D01*
G01*
X202182800Y-59996200D01*
G75*
G02*
X202131800Y-60047200I-51000J0D01*
G01*
X201531800Y-60047200D01*
G75*
G02*
X201480800Y-59996200I0J51000D01*
G01*
G37*
G36*
G01*
X202480800Y-59996200D02*
X202480800Y-58296200D01*
G75*
G02*
X202531800Y-58245200I51000J0D01*
G01*
X203131800Y-58245200D01*
G75*
G02*
X203182800Y-58296200I0J-51000D01*
G01*
X203182800Y-59996200D01*
G75*
G02*
X203131800Y-60047200I-51000J0D01*
G01*
X202531800Y-60047200D01*
G75*
G02*
X202480800Y-59996200I0J51000D01*
G01*
G37*
G36*
G01*
X203480800Y-59996200D02*
X203480800Y-58296200D01*
G75*
G02*
X203531800Y-58245200I51000J0D01*
G01*
X204131800Y-58245200D01*
G75*
G02*
X204182800Y-58296200I0J-51000D01*
G01*
X204182800Y-59996200D01*
G75*
G02*
X204131800Y-60047200I-51000J0D01*
G01*
X203531800Y-60047200D01*
G75*
G02*
X203480800Y-59996200I0J51000D01*
G01*
G37*
G36*
G01*
X204480800Y-59996200D02*
X204480800Y-58296200D01*
G75*
G02*
X204531800Y-58245200I51000J0D01*
G01*
X205131800Y-58245200D01*
G75*
G02*
X205182800Y-58296200I0J-51000D01*
G01*
X205182800Y-59996200D01*
G75*
G02*
X205131800Y-60047200I-51000J0D01*
G01*
X204531800Y-60047200D01*
G75*
G02*
X204480800Y-59996200I0J51000D01*
G01*
G37*
G36*
G01*
X143501041Y-51924000D02*
X145301041Y-51924000D01*
G75*
G02*
X145352041Y-51975000I0J-51000D01*
G01*
X145352041Y-52275000D01*
G75*
G02*
X145301041Y-52326000I-51000J0D01*
G01*
X143501041Y-52326000D01*
G75*
G02*
X143450041Y-52275000I0J51000D01*
G01*
X143450041Y-51975000D01*
G75*
G02*
X143501041Y-51924000I51000J0D01*
G01*
G37*
G36*
G01*
X145501041Y-52724000D02*
X148501041Y-52724000D01*
G75*
G02*
X148552041Y-52775000I0J-51000D01*
G01*
X148552041Y-55275000D01*
G75*
G02*
X148501041Y-55326000I-51000J0D01*
G01*
X145501041Y-55326000D01*
G75*
G02*
X145450041Y-55275000I0J51000D01*
G01*
X145450041Y-52775000D01*
G75*
G02*
X145501041Y-52724000I51000J0D01*
G01*
G37*
G36*
G01*
X145501041Y-24424000D02*
X148501041Y-24424000D01*
G75*
G02*
X148552041Y-24475000I0J-51000D01*
G01*
X148552041Y-26975000D01*
G75*
G02*
X148501041Y-27026000I-51000J0D01*
G01*
X145501041Y-27026000D01*
G75*
G02*
X145450041Y-26975000I0J51000D01*
G01*
X145450041Y-24475000D01*
G75*
G02*
X145501041Y-24424000I51000J0D01*
G01*
G37*
G36*
G01*
X143501041Y-51424000D02*
X145301041Y-51424000D01*
G75*
G02*
X145352041Y-51475000I0J-51000D01*
G01*
X145352041Y-51775000D01*
G75*
G02*
X145301041Y-51826000I-51000J0D01*
G01*
X143501041Y-51826000D01*
G75*
G02*
X143450041Y-51775000I0J51000D01*
G01*
X143450041Y-51475000D01*
G75*
G02*
X143501041Y-51424000I51000J0D01*
G01*
G37*
G36*
G01*
X143501041Y-50924000D02*
X145301041Y-50924000D01*
G75*
G02*
X145352041Y-50975000I0J-51000D01*
G01*
X145352041Y-51275000D01*
G75*
G02*
X145301041Y-51326000I-51000J0D01*
G01*
X143501041Y-51326000D01*
G75*
G02*
X143450041Y-51275000I0J51000D01*
G01*
X143450041Y-50975000D01*
G75*
G02*
X143501041Y-50924000I51000J0D01*
G01*
G37*
G36*
G01*
X143501041Y-50424000D02*
X145301041Y-50424000D01*
G75*
G02*
X145352041Y-50475000I0J-51000D01*
G01*
X145352041Y-50775000D01*
G75*
G02*
X145301041Y-50826000I-51000J0D01*
G01*
X143501041Y-50826000D01*
G75*
G02*
X143450041Y-50775000I0J51000D01*
G01*
X143450041Y-50475000D01*
G75*
G02*
X143501041Y-50424000I51000J0D01*
G01*
G37*
G36*
G01*
X143501041Y-49924000D02*
X145301041Y-49924000D01*
G75*
G02*
X145352041Y-49975000I0J-51000D01*
G01*
X145352041Y-50275000D01*
G75*
G02*
X145301041Y-50326000I-51000J0D01*
G01*
X143501041Y-50326000D01*
G75*
G02*
X143450041Y-50275000I0J51000D01*
G01*
X143450041Y-49975000D01*
G75*
G02*
X143501041Y-49924000I51000J0D01*
G01*
G37*
G36*
G01*
X143501041Y-49424000D02*
X145301041Y-49424000D01*
G75*
G02*
X145352041Y-49475000I0J-51000D01*
G01*
X145352041Y-49775000D01*
G75*
G02*
X145301041Y-49826000I-51000J0D01*
G01*
X143501041Y-49826000D01*
G75*
G02*
X143450041Y-49775000I0J51000D01*
G01*
X143450041Y-49475000D01*
G75*
G02*
X143501041Y-49424000I51000J0D01*
G01*
G37*
G36*
G01*
X143501041Y-48924000D02*
X145301041Y-48924000D01*
G75*
G02*
X145352041Y-48975000I0J-51000D01*
G01*
X145352041Y-49275000D01*
G75*
G02*
X145301041Y-49326000I-51000J0D01*
G01*
X143501041Y-49326000D01*
G75*
G02*
X143450041Y-49275000I0J51000D01*
G01*
X143450041Y-48975000D01*
G75*
G02*
X143501041Y-48924000I51000J0D01*
G01*
G37*
G36*
G01*
X143501041Y-48424000D02*
X145301041Y-48424000D01*
G75*
G02*
X145352041Y-48475000I0J-51000D01*
G01*
X145352041Y-48775000D01*
G75*
G02*
X145301041Y-48826000I-51000J0D01*
G01*
X143501041Y-48826000D01*
G75*
G02*
X143450041Y-48775000I0J51000D01*
G01*
X143450041Y-48475000D01*
G75*
G02*
X143501041Y-48424000I51000J0D01*
G01*
G37*
G36*
G01*
X143501041Y-47924000D02*
X145301041Y-47924000D01*
G75*
G02*
X145352041Y-47975000I0J-51000D01*
G01*
X145352041Y-48275000D01*
G75*
G02*
X145301041Y-48326000I-51000J0D01*
G01*
X143501041Y-48326000D01*
G75*
G02*
X143450041Y-48275000I0J51000D01*
G01*
X143450041Y-47975000D01*
G75*
G02*
X143501041Y-47924000I51000J0D01*
G01*
G37*
G36*
G01*
X143501041Y-47424000D02*
X145301041Y-47424000D01*
G75*
G02*
X145352041Y-47475000I0J-51000D01*
G01*
X145352041Y-47775000D01*
G75*
G02*
X145301041Y-47826000I-51000J0D01*
G01*
X143501041Y-47826000D01*
G75*
G02*
X143450041Y-47775000I0J51000D01*
G01*
X143450041Y-47475000D01*
G75*
G02*
X143501041Y-47424000I51000J0D01*
G01*
G37*
G36*
G01*
X143501041Y-46924000D02*
X145301041Y-46924000D01*
G75*
G02*
X145352041Y-46975000I0J-51000D01*
G01*
X145352041Y-47275000D01*
G75*
G02*
X145301041Y-47326000I-51000J0D01*
G01*
X143501041Y-47326000D01*
G75*
G02*
X143450041Y-47275000I0J51000D01*
G01*
X143450041Y-46975000D01*
G75*
G02*
X143501041Y-46924000I51000J0D01*
G01*
G37*
G36*
G01*
X143501041Y-46424000D02*
X145301041Y-46424000D01*
G75*
G02*
X145352041Y-46475000I0J-51000D01*
G01*
X145352041Y-46775000D01*
G75*
G02*
X145301041Y-46826000I-51000J0D01*
G01*
X143501041Y-46826000D01*
G75*
G02*
X143450041Y-46775000I0J51000D01*
G01*
X143450041Y-46475000D01*
G75*
G02*
X143501041Y-46424000I51000J0D01*
G01*
G37*
G36*
G01*
X143501041Y-45924000D02*
X145301041Y-45924000D01*
G75*
G02*
X145352041Y-45975000I0J-51000D01*
G01*
X145352041Y-46275000D01*
G75*
G02*
X145301041Y-46326000I-51000J0D01*
G01*
X143501041Y-46326000D01*
G75*
G02*
X143450041Y-46275000I0J51000D01*
G01*
X143450041Y-45975000D01*
G75*
G02*
X143501041Y-45924000I51000J0D01*
G01*
G37*
G36*
G01*
X143501041Y-45424000D02*
X145301041Y-45424000D01*
G75*
G02*
X145352041Y-45475000I0J-51000D01*
G01*
X145352041Y-45775000D01*
G75*
G02*
X145301041Y-45826000I-51000J0D01*
G01*
X143501041Y-45826000D01*
G75*
G02*
X143450041Y-45775000I0J51000D01*
G01*
X143450041Y-45475000D01*
G75*
G02*
X143501041Y-45424000I51000J0D01*
G01*
G37*
G36*
G01*
X143501041Y-44924000D02*
X145301041Y-44924000D01*
G75*
G02*
X145352041Y-44975000I0J-51000D01*
G01*
X145352041Y-45275000D01*
G75*
G02*
X145301041Y-45326000I-51000J0D01*
G01*
X143501041Y-45326000D01*
G75*
G02*
X143450041Y-45275000I0J51000D01*
G01*
X143450041Y-44975000D01*
G75*
G02*
X143501041Y-44924000I51000J0D01*
G01*
G37*
G36*
G01*
X143501041Y-44424000D02*
X145301041Y-44424000D01*
G75*
G02*
X145352041Y-44475000I0J-51000D01*
G01*
X145352041Y-44775000D01*
G75*
G02*
X145301041Y-44826000I-51000J0D01*
G01*
X143501041Y-44826000D01*
G75*
G02*
X143450041Y-44775000I0J51000D01*
G01*
X143450041Y-44475000D01*
G75*
G02*
X143501041Y-44424000I51000J0D01*
G01*
G37*
G36*
G01*
X143501041Y-43924000D02*
X145301041Y-43924000D01*
G75*
G02*
X145352041Y-43975000I0J-51000D01*
G01*
X145352041Y-44275000D01*
G75*
G02*
X145301041Y-44326000I-51000J0D01*
G01*
X143501041Y-44326000D01*
G75*
G02*
X143450041Y-44275000I0J51000D01*
G01*
X143450041Y-43975000D01*
G75*
G02*
X143501041Y-43924000I51000J0D01*
G01*
G37*
G36*
G01*
X143501041Y-43424000D02*
X145301041Y-43424000D01*
G75*
G02*
X145352041Y-43475000I0J-51000D01*
G01*
X145352041Y-43775000D01*
G75*
G02*
X145301041Y-43826000I-51000J0D01*
G01*
X143501041Y-43826000D01*
G75*
G02*
X143450041Y-43775000I0J51000D01*
G01*
X143450041Y-43475000D01*
G75*
G02*
X143501041Y-43424000I51000J0D01*
G01*
G37*
G36*
G01*
X143501041Y-42924000D02*
X145301041Y-42924000D01*
G75*
G02*
X145352041Y-42975000I0J-51000D01*
G01*
X145352041Y-43275000D01*
G75*
G02*
X145301041Y-43326000I-51000J0D01*
G01*
X143501041Y-43326000D01*
G75*
G02*
X143450041Y-43275000I0J51000D01*
G01*
X143450041Y-42975000D01*
G75*
G02*
X143501041Y-42924000I51000J0D01*
G01*
G37*
G36*
G01*
X143501041Y-42424000D02*
X145301041Y-42424000D01*
G75*
G02*
X145352041Y-42475000I0J-51000D01*
G01*
X145352041Y-42775000D01*
G75*
G02*
X145301041Y-42826000I-51000J0D01*
G01*
X143501041Y-42826000D01*
G75*
G02*
X143450041Y-42775000I0J51000D01*
G01*
X143450041Y-42475000D01*
G75*
G02*
X143501041Y-42424000I51000J0D01*
G01*
G37*
G36*
G01*
X143501041Y-41924000D02*
X145301041Y-41924000D01*
G75*
G02*
X145352041Y-41975000I0J-51000D01*
G01*
X145352041Y-42275000D01*
G75*
G02*
X145301041Y-42326000I-51000J0D01*
G01*
X143501041Y-42326000D01*
G75*
G02*
X143450041Y-42275000I0J51000D01*
G01*
X143450041Y-41975000D01*
G75*
G02*
X143501041Y-41924000I51000J0D01*
G01*
G37*
G36*
G01*
X143501041Y-41424000D02*
X145301041Y-41424000D01*
G75*
G02*
X145352041Y-41475000I0J-51000D01*
G01*
X145352041Y-41775000D01*
G75*
G02*
X145301041Y-41826000I-51000J0D01*
G01*
X143501041Y-41826000D01*
G75*
G02*
X143450041Y-41775000I0J51000D01*
G01*
X143450041Y-41475000D01*
G75*
G02*
X143501041Y-41424000I51000J0D01*
G01*
G37*
G36*
G01*
X143501041Y-40924000D02*
X145301041Y-40924000D01*
G75*
G02*
X145352041Y-40975000I0J-51000D01*
G01*
X145352041Y-41275000D01*
G75*
G02*
X145301041Y-41326000I-51000J0D01*
G01*
X143501041Y-41326000D01*
G75*
G02*
X143450041Y-41275000I0J51000D01*
G01*
X143450041Y-40975000D01*
G75*
G02*
X143501041Y-40924000I51000J0D01*
G01*
G37*
G36*
G01*
X143501041Y-40424000D02*
X145301041Y-40424000D01*
G75*
G02*
X145352041Y-40475000I0J-51000D01*
G01*
X145352041Y-40775000D01*
G75*
G02*
X145301041Y-40826000I-51000J0D01*
G01*
X143501041Y-40826000D01*
G75*
G02*
X143450041Y-40775000I0J51000D01*
G01*
X143450041Y-40475000D01*
G75*
G02*
X143501041Y-40424000I51000J0D01*
G01*
G37*
G36*
G01*
X143501041Y-39924000D02*
X145301041Y-39924000D01*
G75*
G02*
X145352041Y-39975000I0J-51000D01*
G01*
X145352041Y-40275000D01*
G75*
G02*
X145301041Y-40326000I-51000J0D01*
G01*
X143501041Y-40326000D01*
G75*
G02*
X143450041Y-40275000I0J51000D01*
G01*
X143450041Y-39975000D01*
G75*
G02*
X143501041Y-39924000I51000J0D01*
G01*
G37*
G36*
G01*
X143501041Y-39424000D02*
X145301041Y-39424000D01*
G75*
G02*
X145352041Y-39475000I0J-51000D01*
G01*
X145352041Y-39775000D01*
G75*
G02*
X145301041Y-39826000I-51000J0D01*
G01*
X143501041Y-39826000D01*
G75*
G02*
X143450041Y-39775000I0J51000D01*
G01*
X143450041Y-39475000D01*
G75*
G02*
X143501041Y-39424000I51000J0D01*
G01*
G37*
G36*
G01*
X143501041Y-38924000D02*
X145301041Y-38924000D01*
G75*
G02*
X145352041Y-38975000I0J-51000D01*
G01*
X145352041Y-39275000D01*
G75*
G02*
X145301041Y-39326000I-51000J0D01*
G01*
X143501041Y-39326000D01*
G75*
G02*
X143450041Y-39275000I0J51000D01*
G01*
X143450041Y-38975000D01*
G75*
G02*
X143501041Y-38924000I51000J0D01*
G01*
G37*
G36*
G01*
X143501041Y-38424000D02*
X145301041Y-38424000D01*
G75*
G02*
X145352041Y-38475000I0J-51000D01*
G01*
X145352041Y-38775000D01*
G75*
G02*
X145301041Y-38826000I-51000J0D01*
G01*
X143501041Y-38826000D01*
G75*
G02*
X143450041Y-38775000I0J51000D01*
G01*
X143450041Y-38475000D01*
G75*
G02*
X143501041Y-38424000I51000J0D01*
G01*
G37*
G36*
G01*
X143501041Y-37924000D02*
X145301041Y-37924000D01*
G75*
G02*
X145352041Y-37975000I0J-51000D01*
G01*
X145352041Y-38275000D01*
G75*
G02*
X145301041Y-38326000I-51000J0D01*
G01*
X143501041Y-38326000D01*
G75*
G02*
X143450041Y-38275000I0J51000D01*
G01*
X143450041Y-37975000D01*
G75*
G02*
X143501041Y-37924000I51000J0D01*
G01*
G37*
G36*
G01*
X143501041Y-37424000D02*
X145301041Y-37424000D01*
G75*
G02*
X145352041Y-37475000I0J-51000D01*
G01*
X145352041Y-37775000D01*
G75*
G02*
X145301041Y-37826000I-51000J0D01*
G01*
X143501041Y-37826000D01*
G75*
G02*
X143450041Y-37775000I0J51000D01*
G01*
X143450041Y-37475000D01*
G75*
G02*
X143501041Y-37424000I51000J0D01*
G01*
G37*
G36*
G01*
X143501041Y-36924000D02*
X145301041Y-36924000D01*
G75*
G02*
X145352041Y-36975000I0J-51000D01*
G01*
X145352041Y-37275000D01*
G75*
G02*
X145301041Y-37326000I-51000J0D01*
G01*
X143501041Y-37326000D01*
G75*
G02*
X143450041Y-37275000I0J51000D01*
G01*
X143450041Y-36975000D01*
G75*
G02*
X143501041Y-36924000I51000J0D01*
G01*
G37*
G36*
G01*
X143501041Y-36424000D02*
X145301041Y-36424000D01*
G75*
G02*
X145352041Y-36475000I0J-51000D01*
G01*
X145352041Y-36775000D01*
G75*
G02*
X145301041Y-36826000I-51000J0D01*
G01*
X143501041Y-36826000D01*
G75*
G02*
X143450041Y-36775000I0J51000D01*
G01*
X143450041Y-36475000D01*
G75*
G02*
X143501041Y-36424000I51000J0D01*
G01*
G37*
G36*
G01*
X143501041Y-35924000D02*
X145301041Y-35924000D01*
G75*
G02*
X145352041Y-35975000I0J-51000D01*
G01*
X145352041Y-36275000D01*
G75*
G02*
X145301041Y-36326000I-51000J0D01*
G01*
X143501041Y-36326000D01*
G75*
G02*
X143450041Y-36275000I0J51000D01*
G01*
X143450041Y-35975000D01*
G75*
G02*
X143501041Y-35924000I51000J0D01*
G01*
G37*
G36*
G01*
X143501041Y-35424000D02*
X145301041Y-35424000D01*
G75*
G02*
X145352041Y-35475000I0J-51000D01*
G01*
X145352041Y-35775000D01*
G75*
G02*
X145301041Y-35826000I-51000J0D01*
G01*
X143501041Y-35826000D01*
G75*
G02*
X143450041Y-35775000I0J51000D01*
G01*
X143450041Y-35475000D01*
G75*
G02*
X143501041Y-35424000I51000J0D01*
G01*
G37*
G36*
G01*
X143501041Y-34924000D02*
X145301041Y-34924000D01*
G75*
G02*
X145352041Y-34975000I0J-51000D01*
G01*
X145352041Y-35275000D01*
G75*
G02*
X145301041Y-35326000I-51000J0D01*
G01*
X143501041Y-35326000D01*
G75*
G02*
X143450041Y-35275000I0J51000D01*
G01*
X143450041Y-34975000D01*
G75*
G02*
X143501041Y-34924000I51000J0D01*
G01*
G37*
G36*
G01*
X143501041Y-34424000D02*
X145301041Y-34424000D01*
G75*
G02*
X145352041Y-34475000I0J-51000D01*
G01*
X145352041Y-34775000D01*
G75*
G02*
X145301041Y-34826000I-51000J0D01*
G01*
X143501041Y-34826000D01*
G75*
G02*
X143450041Y-34775000I0J51000D01*
G01*
X143450041Y-34475000D01*
G75*
G02*
X143501041Y-34424000I51000J0D01*
G01*
G37*
G36*
G01*
X143501041Y-33924000D02*
X145301041Y-33924000D01*
G75*
G02*
X145352041Y-33975000I0J-51000D01*
G01*
X145352041Y-34275000D01*
G75*
G02*
X145301041Y-34326000I-51000J0D01*
G01*
X143501041Y-34326000D01*
G75*
G02*
X143450041Y-34275000I0J51000D01*
G01*
X143450041Y-33975000D01*
G75*
G02*
X143501041Y-33924000I51000J0D01*
G01*
G37*
G36*
G01*
X143501041Y-33424000D02*
X145301041Y-33424000D01*
G75*
G02*
X145352041Y-33475000I0J-51000D01*
G01*
X145352041Y-33775000D01*
G75*
G02*
X145301041Y-33826000I-51000J0D01*
G01*
X143501041Y-33826000D01*
G75*
G02*
X143450041Y-33775000I0J51000D01*
G01*
X143450041Y-33475000D01*
G75*
G02*
X143501041Y-33424000I51000J0D01*
G01*
G37*
G36*
G01*
X143501041Y-32924000D02*
X145301041Y-32924000D01*
G75*
G02*
X145352041Y-32975000I0J-51000D01*
G01*
X145352041Y-33275000D01*
G75*
G02*
X145301041Y-33326000I-51000J0D01*
G01*
X143501041Y-33326000D01*
G75*
G02*
X143450041Y-33275000I0J51000D01*
G01*
X143450041Y-32975000D01*
G75*
G02*
X143501041Y-32924000I51000J0D01*
G01*
G37*
G36*
G01*
X143501041Y-32424000D02*
X145301041Y-32424000D01*
G75*
G02*
X145352041Y-32475000I0J-51000D01*
G01*
X145352041Y-32775000D01*
G75*
G02*
X145301041Y-32826000I-51000J0D01*
G01*
X143501041Y-32826000D01*
G75*
G02*
X143450041Y-32775000I0J51000D01*
G01*
X143450041Y-32475000D01*
G75*
G02*
X143501041Y-32424000I51000J0D01*
G01*
G37*
G36*
G01*
X143501041Y-31924000D02*
X145301041Y-31924000D01*
G75*
G02*
X145352041Y-31975000I0J-51000D01*
G01*
X145352041Y-32275000D01*
G75*
G02*
X145301041Y-32326000I-51000J0D01*
G01*
X143501041Y-32326000D01*
G75*
G02*
X143450041Y-32275000I0J51000D01*
G01*
X143450041Y-31975000D01*
G75*
G02*
X143501041Y-31924000I51000J0D01*
G01*
G37*
G36*
G01*
X143501041Y-31424000D02*
X145301041Y-31424000D01*
G75*
G02*
X145352041Y-31475000I0J-51000D01*
G01*
X145352041Y-31775000D01*
G75*
G02*
X145301041Y-31826000I-51000J0D01*
G01*
X143501041Y-31826000D01*
G75*
G02*
X143450041Y-31775000I0J51000D01*
G01*
X143450041Y-31475000D01*
G75*
G02*
X143501041Y-31424000I51000J0D01*
G01*
G37*
G36*
G01*
X143501041Y-30924000D02*
X145301041Y-30924000D01*
G75*
G02*
X145352041Y-30975000I0J-51000D01*
G01*
X145352041Y-31275000D01*
G75*
G02*
X145301041Y-31326000I-51000J0D01*
G01*
X143501041Y-31326000D01*
G75*
G02*
X143450041Y-31275000I0J51000D01*
G01*
X143450041Y-30975000D01*
G75*
G02*
X143501041Y-30924000I51000J0D01*
G01*
G37*
G36*
G01*
X143501041Y-30424000D02*
X145301041Y-30424000D01*
G75*
G02*
X145352041Y-30475000I0J-51000D01*
G01*
X145352041Y-30775000D01*
G75*
G02*
X145301041Y-30826000I-51000J0D01*
G01*
X143501041Y-30826000D01*
G75*
G02*
X143450041Y-30775000I0J51000D01*
G01*
X143450041Y-30475000D01*
G75*
G02*
X143501041Y-30424000I51000J0D01*
G01*
G37*
G36*
G01*
X143501041Y-29924000D02*
X145301041Y-29924000D01*
G75*
G02*
X145352041Y-29975000I0J-51000D01*
G01*
X145352041Y-30275000D01*
G75*
G02*
X145301041Y-30326000I-51000J0D01*
G01*
X143501041Y-30326000D01*
G75*
G02*
X143450041Y-30275000I0J51000D01*
G01*
X143450041Y-29975000D01*
G75*
G02*
X143501041Y-29924000I51000J0D01*
G01*
G37*
G36*
G01*
X143501041Y-29424000D02*
X145301041Y-29424000D01*
G75*
G02*
X145352041Y-29475000I0J-51000D01*
G01*
X145352041Y-29775000D01*
G75*
G02*
X145301041Y-29826000I-51000J0D01*
G01*
X143501041Y-29826000D01*
G75*
G02*
X143450041Y-29775000I0J51000D01*
G01*
X143450041Y-29475000D01*
G75*
G02*
X143501041Y-29424000I51000J0D01*
G01*
G37*
G36*
G01*
X143501041Y-28924000D02*
X145301041Y-28924000D01*
G75*
G02*
X145352041Y-28975000I0J-51000D01*
G01*
X145352041Y-29275000D01*
G75*
G02*
X145301041Y-29326000I-51000J0D01*
G01*
X143501041Y-29326000D01*
G75*
G02*
X143450041Y-29275000I0J51000D01*
G01*
X143450041Y-28975000D01*
G75*
G02*
X143501041Y-28924000I51000J0D01*
G01*
G37*
G36*
G01*
X143501041Y-28424000D02*
X145301041Y-28424000D01*
G75*
G02*
X145352041Y-28475000I0J-51000D01*
G01*
X145352041Y-28775000D01*
G75*
G02*
X145301041Y-28826000I-51000J0D01*
G01*
X143501041Y-28826000D01*
G75*
G02*
X143450041Y-28775000I0J51000D01*
G01*
X143450041Y-28475000D01*
G75*
G02*
X143501041Y-28424000I51000J0D01*
G01*
G37*
G36*
G01*
X143501041Y-27924000D02*
X145301041Y-27924000D01*
G75*
G02*
X145352041Y-27975000I0J-51000D01*
G01*
X145352041Y-28275000D01*
G75*
G02*
X145301041Y-28326000I-51000J0D01*
G01*
X143501041Y-28326000D01*
G75*
G02*
X143450041Y-28275000I0J51000D01*
G01*
X143450041Y-27975000D01*
G75*
G02*
X143501041Y-27924000I51000J0D01*
G01*
G37*
G36*
G01*
X143501041Y-27424000D02*
X145301041Y-27424000D01*
G75*
G02*
X145352041Y-27475000I0J-51000D01*
G01*
X145352041Y-27775000D01*
G75*
G02*
X145301041Y-27826000I-51000J0D01*
G01*
X143501041Y-27826000D01*
G75*
G02*
X143450041Y-27775000I0J51000D01*
G01*
X143450041Y-27475000D01*
G75*
G02*
X143501041Y-27424000I51000J0D01*
G01*
G37*
D15*
X20930000Y-19150000D03*
D16*
X282250000Y-80650000D03*
X268301041Y-12486218D03*
X153600000Y-77650000D03*
X104950000Y-15600000D03*
X24400000Y-74150000D03*
D15*
X301070000Y-14000000D03*
X161200000Y-80600000D03*
X301470000Y-80600000D03*
X20930000Y-80000000D03*
D17*
G36*
X145353773Y-51825000D02*
G01*
X145354041Y-51826000D01*
X145354041Y-51924000D01*
X145353041Y-51925732D01*
X145352041Y-51926000D01*
X143450041Y-51926000D01*
X143448309Y-51925000D01*
X143448041Y-51924000D01*
X143448041Y-51826000D01*
X143449041Y-51824268D01*
X143450041Y-51824000D01*
X145352041Y-51824000D01*
X145353773Y-51825000D01*
G37*
G36*
X145353773Y-51325000D02*
G01*
X145354041Y-51326000D01*
X145354041Y-51424000D01*
X145353041Y-51425732D01*
X145352041Y-51426000D01*
X143450041Y-51426000D01*
X143448309Y-51425000D01*
X143448041Y-51424000D01*
X143448041Y-51326000D01*
X143449041Y-51324268D01*
X143450041Y-51324000D01*
X145352041Y-51324000D01*
X145353773Y-51325000D01*
G37*
G36*
X145353773Y-50825000D02*
G01*
X145354041Y-50826000D01*
X145354041Y-50924000D01*
X145353041Y-50925732D01*
X145352041Y-50926000D01*
X143450041Y-50926000D01*
X143448309Y-50925000D01*
X143448041Y-50924000D01*
X143448041Y-50826000D01*
X143449041Y-50824268D01*
X143450041Y-50824000D01*
X145352041Y-50824000D01*
X145353773Y-50825000D01*
G37*
G36*
X145353773Y-50325000D02*
G01*
X145354041Y-50326000D01*
X145354041Y-50424000D01*
X145353041Y-50425732D01*
X145352041Y-50426000D01*
X143450041Y-50426000D01*
X143448309Y-50425000D01*
X143448041Y-50424000D01*
X143448041Y-50326000D01*
X143449041Y-50324268D01*
X143450041Y-50324000D01*
X145352041Y-50324000D01*
X145353773Y-50325000D01*
G37*
G36*
X145353773Y-49825000D02*
G01*
X145354041Y-49826000D01*
X145354041Y-49924000D01*
X145353041Y-49925732D01*
X145352041Y-49926000D01*
X143450041Y-49926000D01*
X143448309Y-49925000D01*
X143448041Y-49924000D01*
X143448041Y-49826000D01*
X143449041Y-49824268D01*
X143450041Y-49824000D01*
X145352041Y-49824000D01*
X145353773Y-49825000D01*
G37*
G36*
X145353773Y-49325000D02*
G01*
X145354041Y-49326000D01*
X145354041Y-49424000D01*
X145353041Y-49425732D01*
X145352041Y-49426000D01*
X143450041Y-49426000D01*
X143448309Y-49425000D01*
X143448041Y-49424000D01*
X143448041Y-49326000D01*
X143449041Y-49324268D01*
X143450041Y-49324000D01*
X145352041Y-49324000D01*
X145353773Y-49325000D01*
G37*
G36*
X145353773Y-48825000D02*
G01*
X145354041Y-48826000D01*
X145354041Y-48924000D01*
X145353041Y-48925732D01*
X145352041Y-48926000D01*
X143450041Y-48926000D01*
X143448309Y-48925000D01*
X143448041Y-48924000D01*
X143448041Y-48826000D01*
X143449041Y-48824268D01*
X143450041Y-48824000D01*
X145352041Y-48824000D01*
X145353773Y-48825000D01*
G37*
G36*
X145353773Y-48325000D02*
G01*
X145354041Y-48326000D01*
X145354041Y-48424000D01*
X145353041Y-48425732D01*
X145352041Y-48426000D01*
X143450041Y-48426000D01*
X143448309Y-48425000D01*
X143448041Y-48424000D01*
X143448041Y-48326000D01*
X143449041Y-48324268D01*
X143450041Y-48324000D01*
X145352041Y-48324000D01*
X145353773Y-48325000D01*
G37*
G36*
X145353773Y-47825000D02*
G01*
X145354041Y-47826000D01*
X145354041Y-47924000D01*
X145353041Y-47925732D01*
X145352041Y-47926000D01*
X143450041Y-47926000D01*
X143448309Y-47925000D01*
X143448041Y-47924000D01*
X143448041Y-47826000D01*
X143449041Y-47824268D01*
X143450041Y-47824000D01*
X145352041Y-47824000D01*
X145353773Y-47825000D01*
G37*
G36*
X145353773Y-47325000D02*
G01*
X145354041Y-47326000D01*
X145354041Y-47424000D01*
X145353041Y-47425732D01*
X145352041Y-47426000D01*
X143450041Y-47426000D01*
X143448309Y-47425000D01*
X143448041Y-47424000D01*
X143448041Y-47326000D01*
X143449041Y-47324268D01*
X143450041Y-47324000D01*
X145352041Y-47324000D01*
X145353773Y-47325000D01*
G37*
G36*
X145353773Y-46825000D02*
G01*
X145354041Y-46826000D01*
X145354041Y-46924000D01*
X145353041Y-46925732D01*
X145352041Y-46926000D01*
X143450041Y-46926000D01*
X143448309Y-46925000D01*
X143448041Y-46924000D01*
X143448041Y-46826000D01*
X143449041Y-46824268D01*
X143450041Y-46824000D01*
X145352041Y-46824000D01*
X145353773Y-46825000D01*
G37*
G36*
X145353773Y-46325000D02*
G01*
X145354041Y-46326000D01*
X145354041Y-46424000D01*
X145353041Y-46425732D01*
X145352041Y-46426000D01*
X143450041Y-46426000D01*
X143448309Y-46425000D01*
X143448041Y-46424000D01*
X143448041Y-46326000D01*
X143449041Y-46324268D01*
X143450041Y-46324000D01*
X145352041Y-46324000D01*
X145353773Y-46325000D01*
G37*
G36*
X145353773Y-45825000D02*
G01*
X145354041Y-45826000D01*
X145354041Y-45924000D01*
X145353041Y-45925732D01*
X145352041Y-45926000D01*
X143450041Y-45926000D01*
X143448309Y-45925000D01*
X143448041Y-45924000D01*
X143448041Y-45826000D01*
X143449041Y-45824268D01*
X143450041Y-45824000D01*
X145352041Y-45824000D01*
X145353773Y-45825000D01*
G37*
G36*
X145353773Y-45325000D02*
G01*
X145354041Y-45326000D01*
X145354041Y-45424000D01*
X145353041Y-45425732D01*
X145352041Y-45426000D01*
X143450041Y-45426000D01*
X143448309Y-45425000D01*
X143448041Y-45424000D01*
X143448041Y-45326000D01*
X143449041Y-45324268D01*
X143450041Y-45324000D01*
X145352041Y-45324000D01*
X145353773Y-45325000D01*
G37*
G36*
X145353773Y-44825000D02*
G01*
X145354041Y-44826000D01*
X145354041Y-44924000D01*
X145353041Y-44925732D01*
X145352041Y-44926000D01*
X143450041Y-44926000D01*
X143448309Y-44925000D01*
X143448041Y-44924000D01*
X143448041Y-44826000D01*
X143449041Y-44824268D01*
X143450041Y-44824000D01*
X145352041Y-44824000D01*
X145353773Y-44825000D01*
G37*
G36*
X145353773Y-44325000D02*
G01*
X145354041Y-44326000D01*
X145354041Y-44424000D01*
X145353041Y-44425732D01*
X145352041Y-44426000D01*
X143450041Y-44426000D01*
X143448309Y-44425000D01*
X143448041Y-44424000D01*
X143448041Y-44326000D01*
X143449041Y-44324268D01*
X143450041Y-44324000D01*
X145352041Y-44324000D01*
X145353773Y-44325000D01*
G37*
G36*
X145353773Y-43825000D02*
G01*
X145354041Y-43826000D01*
X145354041Y-43924000D01*
X145353041Y-43925732D01*
X145352041Y-43926000D01*
X143450041Y-43926000D01*
X143448309Y-43925000D01*
X143448041Y-43924000D01*
X143448041Y-43826000D01*
X143449041Y-43824268D01*
X143450041Y-43824000D01*
X145352041Y-43824000D01*
X145353773Y-43825000D01*
G37*
G36*
X145353773Y-43325000D02*
G01*
X145354041Y-43326000D01*
X145354041Y-43424000D01*
X145353041Y-43425732D01*
X145352041Y-43426000D01*
X143450041Y-43426000D01*
X143448309Y-43425000D01*
X143448041Y-43424000D01*
X143448041Y-43326000D01*
X143449041Y-43324268D01*
X143450041Y-43324000D01*
X145352041Y-43324000D01*
X145353773Y-43325000D01*
G37*
G36*
X145353773Y-42825000D02*
G01*
X145354041Y-42826000D01*
X145354041Y-42924000D01*
X145353041Y-42925732D01*
X145352041Y-42926000D01*
X143450041Y-42926000D01*
X143448309Y-42925000D01*
X143448041Y-42924000D01*
X143448041Y-42826000D01*
X143449041Y-42824268D01*
X143450041Y-42824000D01*
X145352041Y-42824000D01*
X145353773Y-42825000D01*
G37*
G36*
X145353773Y-42325000D02*
G01*
X145354041Y-42326000D01*
X145354041Y-42424000D01*
X145353041Y-42425732D01*
X145352041Y-42426000D01*
X143450041Y-42426000D01*
X143448309Y-42425000D01*
X143448041Y-42424000D01*
X143448041Y-42326000D01*
X143449041Y-42324268D01*
X143450041Y-42324000D01*
X145352041Y-42324000D01*
X145353773Y-42325000D01*
G37*
G36*
X145353773Y-41825000D02*
G01*
X145354041Y-41826000D01*
X145354041Y-41924000D01*
X145353041Y-41925732D01*
X145352041Y-41926000D01*
X143450041Y-41926000D01*
X143448309Y-41925000D01*
X143448041Y-41924000D01*
X143448041Y-41826000D01*
X143449041Y-41824268D01*
X143450041Y-41824000D01*
X145352041Y-41824000D01*
X145353773Y-41825000D01*
G37*
G36*
X145353773Y-41325000D02*
G01*
X145354041Y-41326000D01*
X145354041Y-41424000D01*
X145353041Y-41425732D01*
X145352041Y-41426000D01*
X143450041Y-41426000D01*
X143448309Y-41425000D01*
X143448041Y-41424000D01*
X143448041Y-41326000D01*
X143449041Y-41324268D01*
X143450041Y-41324000D01*
X145352041Y-41324000D01*
X145353773Y-41325000D01*
G37*
G36*
X145353773Y-40825000D02*
G01*
X145354041Y-40826000D01*
X145354041Y-40924000D01*
X145353041Y-40925732D01*
X145352041Y-40926000D01*
X143450041Y-40926000D01*
X143448309Y-40925000D01*
X143448041Y-40924000D01*
X143448041Y-40826000D01*
X143449041Y-40824268D01*
X143450041Y-40824000D01*
X145352041Y-40824000D01*
X145353773Y-40825000D01*
G37*
G36*
X145353773Y-40325000D02*
G01*
X145354041Y-40326000D01*
X145354041Y-40424000D01*
X145353041Y-40425732D01*
X145352041Y-40426000D01*
X143450041Y-40426000D01*
X143448309Y-40425000D01*
X143448041Y-40424000D01*
X143448041Y-40326000D01*
X143449041Y-40324268D01*
X143450041Y-40324000D01*
X145352041Y-40324000D01*
X145353773Y-40325000D01*
G37*
G36*
X145353773Y-39825000D02*
G01*
X145354041Y-39826000D01*
X145354041Y-39924000D01*
X145353041Y-39925732D01*
X145352041Y-39926000D01*
X143450041Y-39926000D01*
X143448309Y-39925000D01*
X143448041Y-39924000D01*
X143448041Y-39826000D01*
X143449041Y-39824268D01*
X143450041Y-39824000D01*
X145352041Y-39824000D01*
X145353773Y-39825000D01*
G37*
G36*
X145353773Y-39325000D02*
G01*
X145354041Y-39326000D01*
X145354041Y-39424000D01*
X145353041Y-39425732D01*
X145352041Y-39426000D01*
X143450041Y-39426000D01*
X143448309Y-39425000D01*
X143448041Y-39424000D01*
X143448041Y-39326000D01*
X143449041Y-39324268D01*
X143450041Y-39324000D01*
X145352041Y-39324000D01*
X145353773Y-39325000D01*
G37*
G36*
X145353773Y-38825000D02*
G01*
X145354041Y-38826000D01*
X145354041Y-38924000D01*
X145353041Y-38925732D01*
X145352041Y-38926000D01*
X143450041Y-38926000D01*
X143448309Y-38925000D01*
X143448041Y-38924000D01*
X143448041Y-38826000D01*
X143449041Y-38824268D01*
X143450041Y-38824000D01*
X145352041Y-38824000D01*
X145353773Y-38825000D01*
G37*
G36*
X145353773Y-38325000D02*
G01*
X145354041Y-38326000D01*
X145354041Y-38424000D01*
X145353041Y-38425732D01*
X145352041Y-38426000D01*
X143450041Y-38426000D01*
X143448309Y-38425000D01*
X143448041Y-38424000D01*
X143448041Y-38326000D01*
X143449041Y-38324268D01*
X143450041Y-38324000D01*
X145352041Y-38324000D01*
X145353773Y-38325000D01*
G37*
G36*
X145353773Y-37825000D02*
G01*
X145354041Y-37826000D01*
X145354041Y-37924000D01*
X145353041Y-37925732D01*
X145352041Y-37926000D01*
X143450041Y-37926000D01*
X143448309Y-37925000D01*
X143448041Y-37924000D01*
X143448041Y-37826000D01*
X143449041Y-37824268D01*
X143450041Y-37824000D01*
X145352041Y-37824000D01*
X145353773Y-37825000D01*
G37*
G36*
X145353773Y-37325000D02*
G01*
X145354041Y-37326000D01*
X145354041Y-37424000D01*
X145353041Y-37425732D01*
X145352041Y-37426000D01*
X143450041Y-37426000D01*
X143448309Y-37425000D01*
X143448041Y-37424000D01*
X143448041Y-37326000D01*
X143449041Y-37324268D01*
X143450041Y-37324000D01*
X145352041Y-37324000D01*
X145353773Y-37325000D01*
G37*
G36*
X145353773Y-36825000D02*
G01*
X145354041Y-36826000D01*
X145354041Y-36924000D01*
X145353041Y-36925732D01*
X145352041Y-36926000D01*
X143450041Y-36926000D01*
X143448309Y-36925000D01*
X143448041Y-36924000D01*
X143448041Y-36826000D01*
X143449041Y-36824268D01*
X143450041Y-36824000D01*
X145352041Y-36824000D01*
X145353773Y-36825000D01*
G37*
G36*
X145353773Y-36325000D02*
G01*
X145354041Y-36326000D01*
X145354041Y-36424000D01*
X145353041Y-36425732D01*
X145352041Y-36426000D01*
X143450041Y-36426000D01*
X143448309Y-36425000D01*
X143448041Y-36424000D01*
X143448041Y-36326000D01*
X143449041Y-36324268D01*
X143450041Y-36324000D01*
X145352041Y-36324000D01*
X145353773Y-36325000D01*
G37*
G36*
X145353773Y-35825000D02*
G01*
X145354041Y-35826000D01*
X145354041Y-35924000D01*
X145353041Y-35925732D01*
X145352041Y-35926000D01*
X143450041Y-35926000D01*
X143448309Y-35925000D01*
X143448041Y-35924000D01*
X143448041Y-35826000D01*
X143449041Y-35824268D01*
X143450041Y-35824000D01*
X145352041Y-35824000D01*
X145353773Y-35825000D01*
G37*
G36*
X145353773Y-35325000D02*
G01*
X145354041Y-35326000D01*
X145354041Y-35424000D01*
X145353041Y-35425732D01*
X145352041Y-35426000D01*
X143450041Y-35426000D01*
X143448309Y-35425000D01*
X143448041Y-35424000D01*
X143448041Y-35326000D01*
X143449041Y-35324268D01*
X143450041Y-35324000D01*
X145352041Y-35324000D01*
X145353773Y-35325000D01*
G37*
G36*
X145353773Y-34825000D02*
G01*
X145354041Y-34826000D01*
X145354041Y-34924000D01*
X145353041Y-34925732D01*
X145352041Y-34926000D01*
X143450041Y-34926000D01*
X143448309Y-34925000D01*
X143448041Y-34924000D01*
X143448041Y-34826000D01*
X143449041Y-34824268D01*
X143450041Y-34824000D01*
X145352041Y-34824000D01*
X145353773Y-34825000D01*
G37*
G36*
X145353773Y-34325000D02*
G01*
X145354041Y-34326000D01*
X145354041Y-34424000D01*
X145353041Y-34425732D01*
X145352041Y-34426000D01*
X143450041Y-34426000D01*
X143448309Y-34425000D01*
X143448041Y-34424000D01*
X143448041Y-34326000D01*
X143449041Y-34324268D01*
X143450041Y-34324000D01*
X145352041Y-34324000D01*
X145353773Y-34325000D01*
G37*
G36*
X145353773Y-33825000D02*
G01*
X145354041Y-33826000D01*
X145354041Y-33924000D01*
X145353041Y-33925732D01*
X145352041Y-33926000D01*
X143450041Y-33926000D01*
X143448309Y-33925000D01*
X143448041Y-33924000D01*
X143448041Y-33826000D01*
X143449041Y-33824268D01*
X143450041Y-33824000D01*
X145352041Y-33824000D01*
X145353773Y-33825000D01*
G37*
G36*
X145353773Y-33325000D02*
G01*
X145354041Y-33326000D01*
X145354041Y-33424000D01*
X145353041Y-33425732D01*
X145352041Y-33426000D01*
X143450041Y-33426000D01*
X143448309Y-33425000D01*
X143448041Y-33424000D01*
X143448041Y-33326000D01*
X143449041Y-33324268D01*
X143450041Y-33324000D01*
X145352041Y-33324000D01*
X145353773Y-33325000D01*
G37*
G36*
X145353773Y-32825000D02*
G01*
X145354041Y-32826000D01*
X145354041Y-32924000D01*
X145353041Y-32925732D01*
X145352041Y-32926000D01*
X143450041Y-32926000D01*
X143448309Y-32925000D01*
X143448041Y-32924000D01*
X143448041Y-32826000D01*
X143449041Y-32824268D01*
X143450041Y-32824000D01*
X145352041Y-32824000D01*
X145353773Y-32825000D01*
G37*
G36*
X145353773Y-32325000D02*
G01*
X145354041Y-32326000D01*
X145354041Y-32424000D01*
X145353041Y-32425732D01*
X145352041Y-32426000D01*
X143450041Y-32426000D01*
X143448309Y-32425000D01*
X143448041Y-32424000D01*
X143448041Y-32326000D01*
X143449041Y-32324268D01*
X143450041Y-32324000D01*
X145352041Y-32324000D01*
X145353773Y-32325000D01*
G37*
G36*
X145353773Y-31825000D02*
G01*
X145354041Y-31826000D01*
X145354041Y-31924000D01*
X145353041Y-31925732D01*
X145352041Y-31926000D01*
X143450041Y-31926000D01*
X143448309Y-31925000D01*
X143448041Y-31924000D01*
X143448041Y-31826000D01*
X143449041Y-31824268D01*
X143450041Y-31824000D01*
X145352041Y-31824000D01*
X145353773Y-31825000D01*
G37*
G36*
X145353773Y-31325000D02*
G01*
X145354041Y-31326000D01*
X145354041Y-31424000D01*
X145353041Y-31425732D01*
X145352041Y-31426000D01*
X143450041Y-31426000D01*
X143448309Y-31425000D01*
X143448041Y-31424000D01*
X143448041Y-31326000D01*
X143449041Y-31324268D01*
X143450041Y-31324000D01*
X145352041Y-31324000D01*
X145353773Y-31325000D01*
G37*
G36*
X145353773Y-30825000D02*
G01*
X145354041Y-30826000D01*
X145354041Y-30924000D01*
X145353041Y-30925732D01*
X145352041Y-30926000D01*
X143450041Y-30926000D01*
X143448309Y-30925000D01*
X143448041Y-30924000D01*
X143448041Y-30826000D01*
X143449041Y-30824268D01*
X143450041Y-30824000D01*
X145352041Y-30824000D01*
X145353773Y-30825000D01*
G37*
G36*
X145353773Y-30325000D02*
G01*
X145354041Y-30326000D01*
X145354041Y-30424000D01*
X145353041Y-30425732D01*
X145352041Y-30426000D01*
X143450041Y-30426000D01*
X143448309Y-30425000D01*
X143448041Y-30424000D01*
X143448041Y-30326000D01*
X143449041Y-30324268D01*
X143450041Y-30324000D01*
X145352041Y-30324000D01*
X145353773Y-30325000D01*
G37*
G36*
X145353773Y-29825000D02*
G01*
X145354041Y-29826000D01*
X145354041Y-29924000D01*
X145353041Y-29925732D01*
X145352041Y-29926000D01*
X143450041Y-29926000D01*
X143448309Y-29925000D01*
X143448041Y-29924000D01*
X143448041Y-29826000D01*
X143449041Y-29824268D01*
X143450041Y-29824000D01*
X145352041Y-29824000D01*
X145353773Y-29825000D01*
G37*
G36*
X145353773Y-29325000D02*
G01*
X145354041Y-29326000D01*
X145354041Y-29424000D01*
X145353041Y-29425732D01*
X145352041Y-29426000D01*
X143450041Y-29426000D01*
X143448309Y-29425000D01*
X143448041Y-29424000D01*
X143448041Y-29326000D01*
X143449041Y-29324268D01*
X143450041Y-29324000D01*
X145352041Y-29324000D01*
X145353773Y-29325000D01*
G37*
G36*
X145353773Y-28825000D02*
G01*
X145354041Y-28826000D01*
X145354041Y-28924000D01*
X145353041Y-28925732D01*
X145352041Y-28926000D01*
X143450041Y-28926000D01*
X143448309Y-28925000D01*
X143448041Y-28924000D01*
X143448041Y-28826000D01*
X143449041Y-28824268D01*
X143450041Y-28824000D01*
X145352041Y-28824000D01*
X145353773Y-28825000D01*
G37*
G36*
X145353773Y-28325000D02*
G01*
X145354041Y-28326000D01*
X145354041Y-28424000D01*
X145353041Y-28425732D01*
X145352041Y-28426000D01*
X143450041Y-28426000D01*
X143448309Y-28425000D01*
X143448041Y-28424000D01*
X143448041Y-28326000D01*
X143449041Y-28324268D01*
X143450041Y-28324000D01*
X145352041Y-28324000D01*
X145353773Y-28325000D01*
G37*
G36*
X145353773Y-27825000D02*
G01*
X145354041Y-27826000D01*
X145354041Y-27924000D01*
X145353041Y-27925732D01*
X145352041Y-27926000D01*
X143450041Y-27926000D01*
X143448309Y-27925000D01*
X143448041Y-27924000D01*
X143448041Y-27826000D01*
X143449041Y-27824268D01*
X143450041Y-27824000D01*
X145352041Y-27824000D01*
X145353773Y-27825000D01*
G37*
M02*
