M48
; DRILL file {KiCad 5.1.9} date Tue May  4 07:57:21 2021
; FORMAT={-:-/ absolute / inch / decimal}
; #@! TF.CreationDate,2021-05-04T07:57:21+02:00
; #@! TF.GenerationSoftware,Kicad,Pcbnew,5.1.9
; #@! TF.FileFunction,Plated,1,2,PTH
FMAT,2
INCH
T1C0.0177
%
G90
G05
T1
X1.13Y-3.2317
X1.4981Y-2.9861
X1.5217Y-3.09
X1.6162Y-2.7105
X1.7185Y-3.09
X1.7677Y-3.4837
X1.7874Y-2.3553
X1.9843Y-2.3553
X1.9843Y-2.5522
X2.1811Y-2.3553
X2.1811Y-2.5522
X2.2008Y-2.6412
X2.378Y-2.3553
X2.378Y-2.5522
X2.4764Y-3.4837
X2.5059Y-2.6963
X2.5059Y-2.8932
X2.5748Y-2.3553
X2.5748Y-2.5522
X2.7717Y-2.3553
X2.7717Y-2.5522
X2.9016Y-2.6412
X2.9685Y-2.3553
X2.9685Y-2.5522
X3.1654Y-2.3553
X3.1654Y-2.5522
X3.1824Y-2.9191
X3.185Y-3.4837
X3.3622Y-2.3553
X3.3622Y-2.5522
X3.3792Y-3.116
X3.5098Y-2.5979
X3.5098Y-3.0113
X3.5591Y-2.3553
X3.5591Y-2.5522
X3.7559Y-2.3553
X3.7559Y-2.5522
X3.7729Y-2.9191
X3.874Y-3.4837
X3.9528Y-2.3553
X3.9528Y-2.5522
X4.1496Y-2.3553
X4.1496Y-2.5522
X4.3268Y-2.6412
X4.3465Y-2.3553
X4.3465Y-2.5522
X4.5433Y-2.3553
X4.5433Y-2.5522
X4.5728Y-2.9916
X4.5827Y-3.4837
X4.7402Y-2.3553
X4.7402Y-2.5522
X4.937Y-2.3553
X4.937Y-2.5522
X5.0276Y-2.6412
X5.2139Y-2.4518
X5.2717Y-3.0014
X5.2913Y-3.4837
X5.3307Y-2.3553
X5.3307Y-2.5522
X5.4882Y-0.9498
X5.4882Y-1.0089
X5.4882Y-1.1073
X5.4882Y-1.1565
X5.4882Y-1.2057
X5.4882Y-1.0581
X5.5276Y-2.3553
X5.5276Y-2.5522
X5.5371Y-1.9182
X5.5386Y-1.5594
X5.5741Y-1.9992
X5.5768Y-1.3238
X5.5768Y-2.2293
X5.5811Y-1.8882
X5.6555Y-0.6687
X5.7245Y-2.3553
X5.7245Y-2.5522
X5.7363Y-2.6412
X5.813Y-1.6235
X5.813Y-1.4813
X5.813Y-1.8947
X5.813Y-2.2293
X5.9213Y-2.3553
X5.9213Y-2.5522
X5.9383Y-2.9191
X6.0Y-3.4837
X6.1182Y-2.3553
X6.1182Y-2.5522
X6.128Y-0.8514
X6.128Y-1.0089
X6.128Y-1.1663
X6.2461Y-2.9916
X6.315Y-2.3553
X6.315Y-2.5522
X6.5119Y-2.3553
X6.5119Y-2.5522
X6.5288Y-0.5569
X6.6398Y-2.9916
X6.7087Y-3.4837
X6.7087Y-2.3553
X6.7087Y-2.5522
X6.7257Y-1.5412
X6.7257Y-1.9349
X6.9056Y-2.3553
X6.9056Y-2.5522
X6.9225Y-0.5569
X6.9225Y-0.9506
X6.9225Y-1.5412
X6.9225Y-1.9349
X7.0335Y-2.8144
X7.1024Y-2.3553
X7.1024Y-2.5522
X7.1194Y-1.738
X7.1536Y-2.6412
X7.2993Y-2.5522
X7.3162Y-0.5569
X7.3162Y-0.9506
X7.3162Y-1.3443
X7.3162Y-1.9349
X7.3162Y-2.2695
X7.4173Y-3.031
X7.4173Y-3.4837
X7.4737Y-2.2105
X7.4961Y-2.5522
X7.5271Y-2.7252
X7.693Y-2.5522
X7.7011Y-1.5722
X7.7099Y-0.5569
X7.7099Y-0.9506
X7.7099Y-1.3443
X7.7099Y-1.9349
X7.8622Y-2.6412
X7.8898Y-2.5522
X8.1036Y-0.7538
X8.1036Y-1.1475
X8.1036Y-1.5412
X8.126Y-3.4837
X8.1461Y-1.8272
X8.1981Y-2.4272
X8.3005Y-0.9506
X8.3005Y-1.3443
X8.3005Y-1.9349
X8.3989Y-2.427
X8.437Y-0.59
X8.437Y-1.0624
X8.437Y-1.5349
X8.437Y-2.0073
X8.4606Y-3.0506
X8.4973Y-1.9349
X8.4973Y-3.3128
X8.5957Y-2.2302
X8.6942Y-2.7223
X8.7926Y-0.6554
X8.7926Y-1.1475
X8.7926Y-1.738
X8.8346Y-3.4837
X8.891Y-0.9506
X8.891Y-1.4428
X8.891Y-1.9349
X8.891Y-2.8207
X8.9095Y-0.59
X8.9095Y-1.0624
X8.9095Y-1.5349
X8.9095Y-2.0073
X8.9894Y-1.2459
X9.1863Y-0.6554
X9.2847Y-1.1475
X9.2874Y-2.6412
X9.3819Y-0.59
X9.3819Y-1.0624
X9.3819Y-1.5349
X9.3819Y-2.0073
X9.3831Y-0.9506
X9.3831Y-1.4428
X9.3831Y-1.9349
X9.3831Y-2.3286
X9.5236Y-3.0113
X9.5433Y-3.4837
X9.58Y-2.7223
X9.6784Y-0.6554
X9.7768Y-1.2459
X9.7768Y-1.8365
X9.8544Y-0.59
X9.8544Y-1.0624
X9.8544Y-1.5349
X9.8544Y-2.0073
X9.8753Y-0.9506
X9.8753Y-1.4428
X9.8753Y-1.9349
X9.9882Y-2.6412
X10.1705Y-0.6554
X10.2421Y-3.0211
X10.252Y-3.4837
X10.269Y-1.8365
X10.3268Y-0.59
X10.3268Y-1.0624
X10.3268Y-1.5349
X10.3268Y-2.0073
X10.3674Y-0.9506
X10.3674Y-1.9349
X10.4658Y-1.5412
X10.4658Y-2.2302
X10.6555Y-1.1018
X10.6627Y-0.6554
X10.6969Y-2.6412
X10.7611Y-1.9349
X10.7611Y-2.2302
X10.8595Y-0.7538
X10.8595Y-1.5412
X10.8595Y-1.738
X10.8595Y-1.738
X10.8595Y-2.1317
X10.8595Y-2.427
X10.8595Y-2.9191
X10.9606Y-3.4837
X11.0355Y-0.59
X11.0355Y-1.5349
X11.0355Y-2.0073
X11.0564Y-3.0176
X11.2532Y-2.5254
X11.2532Y-2.9191
X11.3516Y-1.5412
X11.3516Y-2.0333
X11.3972Y-0.6717
X11.5079Y-1.0648
X11.5079Y-1.5349
X11.5079Y-2.0073
X11.6469Y-2.5254
X11.6469Y-2.9191
X11.6662Y-3.3986
X11.6693Y-3.4837
X11.8438Y-1.0491
X11.8438Y-1.5412
X11.8438Y-2.0333
T0
M30
