M48
; DRILL file {KiCad 5.1.6} date Thu Jun 25 20:30:22 2020
; FORMAT={-:-/ absolute / inch / decimal}
; #@! TF.CreationDate,2020-06-25T20:30:22+02:00
; #@! TF.GenerationSoftware,Kicad,Pcbnew,5.1.6
FMAT,2
INCH
T1C0.0118
T2C0.0157
T3C0.0177
T4C0.0197
T5C0.0236
T6C0.0256
T7C0.0276
T8C0.0315
T9C0.0374
T10C0.0394
T11C0.0402
T12C0.0433
T13C0.0472
T14C0.0591
T15C0.0906
T16C0.1260
T17C0.0454
T18C0.0472
T19C0.0669
T20C0.0709
T21C0.0984
T22C0.1102
%
G90
G05
T1
X-0.8031Y5.8909
X-0.8031Y5.8437
X-0.7597Y5.8909
X-0.7597Y5.8437
X-0.7086Y5.8909
X-0.7086Y5.8437
X-0.6613Y5.8909
X-0.6613Y5.8437
T3
X-0.7076Y6.1016
X-0.6705Y6.5217
X-0.6705Y6.4823
X-0.6705Y6.4429
X-0.6584Y6.1016
X-0.6584Y6.0524
X-0.6016Y5.6063
X-0.5061Y4.0093
X-0.4736Y5.6181
X-0.4173Y5.1929
X-0.416Y5.5781
X-0.3425Y5.7795
X-0.3425Y5.7283
X-0.3189Y5.6496
X-0.2972Y5.3051
X-0.2972Y5.2717
X-0.2776Y5.0276
X-0.2776Y4.9882
X-0.2638Y5.3051
X-0.2638Y5.2717
X-0.2441Y5.0276
X-0.2441Y4.9882
X-0.2244Y6.3976
X-0.2087Y5.5787
X-0.1945Y6.0773
X-0.189Y4.937
X-0.1752Y5.3406
X-0.1358Y5.3406
X-0.1201Y4.937
X-0.0236Y5.1496
X-0.0236Y5.1142
X-0.0236Y5.0787
X0.0079Y5.8937
X0.0945Y5.7283
X0.2116Y4.0098
X0.2795Y6.748
X0.2795Y6.7087
X0.2795Y6.6693
X0.3524Y5.6909
X0.3583Y5.3071
X0.3622Y5.3425
X0.372Y6.3819
X0.4409Y6.6417
X0.4409Y6.4547
X0.4547Y4.6398
X0.4783Y5.002
X0.4882Y5.563
X0.4882Y5.4173
X0.4883Y5.6417
X0.5059Y4.9843
X0.5079Y5.8543
X0.5433Y4.2165
X0.5512Y5.8386
X0.5657Y4.5157
X0.5787Y6.748
X0.5787Y6.7087
X0.5787Y6.6693
X0.5787Y6.6299
X0.5787Y6.5906
X0.5807Y6.1201
X0.6065Y6.0964
X0.6083Y5.2648
X0.626Y5.685
X0.6513Y5.1813
X0.676Y5.1617
X0.6929Y5.0117
X0.7008Y5.1811
X0.7009Y6.3878
X0.7126Y5.811
X0.7362Y5.9763
X0.7391Y5.1506
X0.7443Y5.8109
X0.752Y5.0354
X0.7638Y5.3346
X0.7733Y4.3262
X0.7758Y5.811
X0.7835Y6.0433
X0.8071Y5.6693
X0.8073Y5.811
X0.8073Y4.3272
X0.812Y6.628
X0.8183Y4.6398
X0.8308Y5.122
X0.8533Y3.9662
X0.8543Y6.4961
X0.8543Y6.3878
X0.874Y4.689
X0.8833Y4.2637
X0.8861Y5.0863
X0.8917Y5.0315
X0.8957Y5.4094
X0.8976Y5.9291
X0.9104Y6.6959
X0.9134Y6.0433
X0.9173Y5.7795
X0.9183Y6.6575
X0.9232Y4.8642
X0.9252Y5.437
X0.9329Y5.9291
X0.9409Y6.439
X0.9409Y5.5886
X0.9409Y5.5531
X0.9488Y5.4626
X0.9493Y5.0591
X0.9685Y5.0315
X0.9724Y5.1181
X0.9764Y5.4888
X0.9803Y4.878
X0.988Y5.6928
X0.988Y5.6555
X0.988Y5.6181
X0.9909Y7.3346
X0.9921Y5.3661
X0.9928Y6.4062
X1.0118Y4.9882
X1.0157Y5.8071
X1.0197Y5.9311
X1.0295Y6.1791
X1.0512Y4.9882
X1.0591Y4.3622
X1.075Y5.386
X1.0946Y5.2126
X1.0967Y5.7646
X1.1102Y5.9311
X1.1183Y5.7417
X1.1201Y6.2539
X1.1201Y5.4882
X1.1447Y5.1329
X1.1447Y5.0522
X1.1447Y4.6191
X1.2303Y5.4685
X1.2323Y5.5079
X1.2362Y5.2835
X1.2369Y5.6373
X1.2462Y5.432
X1.2474Y5.5422
X1.2539Y5.8583
X1.2591Y5.6103
X1.2617Y6.0965
X1.2795Y4.8386
X1.2933Y6.126
X1.315Y6.7717
X1.3386Y6.6299
X1.3455Y6.8297
X1.3583Y4.3622
X1.3839Y6.7205
X1.4055Y4.8563
X1.4272Y5.5827
X1.4287Y5.5353
X1.4291Y5.4213
X1.4331Y6.0059
X1.437Y5.8504
X1.437Y5.7677
X1.437Y5.7127
X1.437Y5.1594
X1.437Y5.0846
X1.439Y5.3839
X1.4449Y5.2835
X1.5659Y5.2854
X1.5768Y6.1234
X1.6063Y5.8642
X1.623Y3.9507
X1.6319Y6.2067
X1.6329Y6.3907
X1.6339Y5.5768
X1.6339Y6.3504
X1.6378Y5.5433
X1.6437Y4.8583
X1.6545Y6.4793
X1.687Y6.6142
X1.6969Y5.4705
X1.7126Y6.0728
X1.7143Y5.3071
X1.7776Y5.3071
X1.7815Y6.0433
X1.8012Y6.9921
X1.8012Y5.2441
X1.8386Y6.6693
X1.8514Y6.4459
X1.8543Y4.1811
X1.8681Y5.8976
X1.876Y6.9921
X1.8898Y5.9882
X1.9134Y6.4803
X1.9173Y5.6024
X1.9252Y6.0747
X1.9567Y6.0984
X1.9665Y5.8976
X1.9724Y4.1811
X1.9882Y5.0728
X2.0059Y6.4173
X2.0157Y5.6319
X2.0192Y6.1708
X2.0236Y4.9764
X2.0236Y4.8701
X2.0236Y4.6909
X2.0236Y4.5596
X2.0236Y4.4055
X2.0354Y6.7441
X2.0591Y4.9764
X2.0591Y4.8701
X2.0591Y4.6909
X2.0591Y4.5596
X2.0591Y4.4055
X2.065Y6.5669
X2.1102Y6.4882
X2.126Y6.0157
X2.126Y5.9685
X2.126Y5.8858
X2.1516Y5.2736
X2.1535Y6.4449
X2.1614Y6.0728
X2.1614Y5.1339
X2.1614Y5.1024
X2.1654Y5.5669
X2.1929Y5.1339
X2.1929Y5.1024
X2.2106Y6.1153
X2.3317Y3.927
X2.5059Y5.7205
X2.5276Y7.2087
X2.5276Y7.0906
X2.5474Y6.3169
X2.5551Y5.8189
X2.5669Y4.3622
X2.5669Y4.1811
X2.5866Y6.2717
X2.5866Y6.2244
X2.5965Y5.7815
X2.5984Y7.2087
X2.5984Y5.5177
X2.6063Y5.9055
X2.626Y4.56
X2.6378Y5.518
X2.6711Y5.7821
X2.6772Y6.9213
X2.6772Y5.8858
X2.6772Y5.5177
X2.6772Y5.3189
X2.6772Y5.2185
X2.6781Y6.8593
X2.6791Y6.6732
X2.6791Y6.1201
X2.6929Y4.3622
X2.6929Y4.1811
X2.7047Y6.0709
X2.7205Y5.4353
X2.7244Y7.2638
X2.7254Y7.0925
X2.7255Y5.6903
X2.7402Y6.2677
X2.7559Y6.8583
X2.7559Y6.7717
X2.7835Y7.2638
X2.7835Y7.2087
X2.7972Y6.6122
X2.8248Y6.4429
X2.8543Y6.6732
X2.8799Y6.4921
X2.8937Y6.3937
X2.937Y4.9724
X2.937Y4.8071
X2.9744Y6.6004
X3.0935Y5.8883
X3.0945Y6.6004
X3.1102Y4.9724
X3.1102Y4.8071
X3.1496Y6.6988
X3.3465Y6.5906
X3.3937Y4.5706
X3.4355Y6.5053
X3.5785Y5.2633
X3.6105Y6.8378
X3.6105Y6.2413
X3.6205Y7.2253
X3.628Y4.0079
X3.6396Y5.5752
X3.6405Y6.1993
X3.6405Y6.9153
X3.6705Y6.1293
X3.6705Y7.2253
X3.6705Y7.0353
X3.6732Y4.9724
X3.6732Y4.8071
X3.7201Y6.1697
X3.7205Y7.2253
X3.7205Y7.0353
X3.7705Y7.2253
X3.7705Y6.2353
X3.7953Y4.9724
X3.7953Y4.8071
X3.8205Y7.2253
X3.8205Y6.2813
X3.8505Y6.7087
X3.9567Y6.9606
X3.9567Y6.7087
X3.9567Y6.5276
X3.9567Y5.248
X4.0433Y4.5749
X4.1693Y5.248
X4.2362Y6.9606
X4.2362Y6.8031
X4.2362Y6.7087
X4.2362Y6.5276
X4.3406Y3.9744
X4.3504Y4.7126
X4.378Y5.248
X4.4213Y6.9606
X4.4213Y6.7087
X4.4213Y6.5276
X4.4606Y4.9646
X4.4606Y4.8583
X4.5551Y6.9055
X4.7008Y6.8858
X4.7047Y7.0197
X4.7598Y5.5157
X4.813Y5.9862
X4.813Y5.9469
X4.813Y5.9075
X4.813Y5.8681
X4.813Y5.8287
X4.815Y7.2598
X4.9823Y5.9862
X4.9823Y5.9469
X4.9823Y5.9075
X4.9823Y5.8681
X4.9823Y5.8287
X4.9882Y4.6693
X5.0344Y3.9596
X5.0413Y5.5217
X5.0413Y5.4882
X5.063Y5.9882
X5.0748Y5.5217
X5.0748Y5.4882
X5.0984Y5.9409
X5.0984Y5.9055
X5.122Y5.3543
X5.1496Y5.9409
X5.1496Y5.9055
X5.1575Y4.8504
X5.2008Y5.9409
X5.2008Y5.9055
X5.2323Y6.1142
X5.252Y5.3543
X5.252Y4.8504
X5.3453Y6.626
X5.3543Y6.1476
X5.3858Y5.3543
X5.3898Y6.2244
X5.3898Y6.1496
X5.3967Y4.5275
X5.4289Y7.0893
X5.4634Y6.7047
X5.4646Y5.1024
X5.4882Y6.7697
X5.5197Y7.0827
X5.5197Y6.7697
X5.5389Y6.057
X5.5452Y6.435
X5.5452Y6.3602
X5.5551Y6.0846
X5.5738Y6.1368
X5.5815Y6.626
X5.5846Y6.0236
X5.5984Y5.3543
X5.624Y6.4331
X5.624Y6.3583
X5.626Y5.8622
X5.6732Y4.8543
X5.7244Y5.9961
X5.739Y6.9409
X5.7441Y3.9369
X5.7539Y6.3071
X5.7539Y5.9114
X5.7559Y5.7323
X5.7559Y5.4961
X5.7783Y6.626
X5.8169Y6.3071
X5.8189Y5.9114
X5.8228Y5.7323
X5.8307Y6.4921
X5.8486Y6.1969
X5.8504Y6.2283
X5.8571Y7.0591
X5.8622Y6.4921
X5.8622Y6.0866
X5.8642Y6.0453
X5.8976Y4.8504
X5.9055Y5.6378
X5.9469Y5.8858
X5.9752Y6.9803
X6.0146Y6.626
X6.0157Y5.8465
X6.0539Y7.0197
X6.0728Y6.1201
X6.0748Y6.7717
X6.0945Y4.5512
X6.1102Y6.7717
X6.1457Y6.7717
X6.1693Y5.3504
X6.1693Y5.1063
X6.185Y7.2087
X6.185Y7.1142
X6.2114Y6.626
X6.252Y6.2559
X6.2598Y7.2087
X6.2598Y7.1142
X6.2717Y6.8937
X6.3622Y7.0906
X6.437Y5.5551
X6.437Y5.3543
X6.437Y5.1024
X6.437Y4.8543
X6.4476Y6.5079
X6.4537Y4.2963
X6.4626Y6.2579
X6.6051Y7.2953
X6.6051Y7.0984
X6.6051Y6.9016
X6.6051Y6.7441
X6.6051Y6.5079
X6.6732Y5.8268
X6.6732Y5.5551
X6.8423Y5.15
X6.8465Y6.626
X6.9965Y4.2602
X7.0118Y6.6772
X7.0669Y5.4449
X7.0669Y5.1417
X7.1467Y4.0079
X7.2283Y5.7579
X7.2382Y5.2854
X7.2441Y4.9646
X7.2441Y4.8543
X7.2835Y6.6772
X7.2904Y3.9863
X7.4094Y5.1417
X7.4843Y6.6772
X7.5276Y4.6181
X7.6063Y5.1417
X7.7008Y6.2303
X7.7008Y5.7579
X7.7008Y5.2854
X7.7559Y6.6772
X7.7795Y5.1417
X7.7835Y4.9646
X7.7835Y4.8504
X7.8228Y5.3386
X7.8228Y5.2598
X7.8248Y3.9606
X7.8307Y5.8228
X7.9567Y4.9646
X7.9567Y4.8504
X7.9606Y6.6772
X7.9931Y4.0079
X8.1024Y5.7579
X8.1732Y5.7579
X8.1732Y5.2854
X8.1988Y5.5335
X8.2421Y4.556
X8.248Y6.6772
X8.2638Y5.3386
X8.2638Y5.1417
X8.2992Y6.2913
X8.3071Y5.8307
X8.3976Y5.2559
X8.3976Y5.1417
X8.4488Y6.6772
X8.4852Y3.936
X8.5709Y5.7579
X8.5866Y4.0079
X8.6457Y6.2303
X8.6457Y5.7579
X8.6732Y4.8504
X8.7028Y6.1732
X8.7028Y5.7008
X8.7047Y6.6772
X8.7126Y5.2559
X8.7126Y5.1417
X8.7785Y5.3533
X8.8425Y4.8504
X8.9055Y6.6772
X8.94Y4.5797
X8.9626Y6.2303
X8.9961Y5.1417
X9.1181Y5.7579
X9.1772Y6.2303
X9.1772Y5.1417
X9.1811Y4.8504
X9.2165Y6.9213
X9.2165Y6.4528
X9.2165Y5.9724
X9.2835Y5.1417
X9.2874Y6.2913
X9.2874Y6.2047
X9.2874Y6.122
X9.2874Y5.8386
X9.2874Y5.7638
X9.2874Y5.6457
X9.2874Y5.5276
X9.2874Y5.3898
X9.3583Y4.8504
X9.3819Y6.4528
X9.3819Y5.9724
X9.3858Y6.9213
X9.3858Y6.7677
X9.4045Y4.6053
X9.4606Y4.8504
X9.4882Y5.1417
X9.5748Y6.6772
X9.6024Y5.1417
X9.6654Y4.8504
X9.7539Y6.2303
X9.7539Y5.3583
X9.7913Y5.122
X9.8268Y5.7579
X9.9016Y6.6772
X9.9291Y5.8228
X9.9291Y5.7598
X9.9291Y5.2559
X9.9685Y4.8504
X10.1024Y6.6772
X10.1614Y5.7913
X10.2244Y5.3602
X10.252Y5.122
X10.3051Y5.8366
X10.3248Y5.2854
X10.3268Y5.7795
X10.3268Y5.5591
X10.3307Y6.2559
X10.3307Y6.0354
X10.3578Y6.1708
X10.3578Y5.6988
X10.3583Y5.2264
T4
X2.1535Y6.2697
X4.6575Y4.2874
X4.6852Y4.3542
X4.6852Y4.2206
X4.752Y4.3819
X4.752Y4.1929
X4.8188Y4.3542
X4.8188Y4.2206
X4.8465Y4.2874
X0.315Y6.0984
X5.5984Y5.6703
X9.6181Y4.311
X9.6458Y4.3778
X9.6458Y4.2442
X9.7126Y4.4055
X9.7126Y4.2165
X9.7794Y4.3778
X9.7794Y4.2442
X9.8071Y4.311
X0.315Y6.2244
X-0.4894Y6.8563
X-0.4617Y6.9231
X-0.4617Y6.7895
X-0.3949Y6.9508
X-0.3949Y6.7618
X-0.3281Y6.9231
X-0.3281Y6.7895
X-0.3004Y6.8563
X0.315Y6.1614
X2.6358Y6.0697
X9.1894Y6.6493
X9.217Y6.7161
X9.217Y6.5824
X9.2839Y6.7437
X9.2839Y6.5548
X9.3507Y6.7161
X9.3507Y6.5824
X9.3783Y6.6493
X2.1535Y6.3701
X-0.3032Y4.311
X-0.2756Y4.3778
X-0.2756Y4.2442
X-0.2088Y4.4055
X-0.2088Y4.2165
X-0.1419Y4.3778
X-0.1419Y4.2442
X-0.1143Y4.311
X1.2264Y6.0295
X2.5965Y6.6201
T5
X-0.5484Y7.2421
X-0.5484Y7.1634
X-0.4894Y7.2421
X-0.4894Y7.1634
X-0.4303Y7.2421
X-0.4303Y7.1634
T6
X0.185Y5.7047
X0.185Y5.6547
X0.185Y5.6047
X0.185Y5.5547
X0.185Y5.5047
X0.235Y5.7047
X0.235Y5.6547
X0.235Y5.6047
X0.235Y5.5547
X0.235Y5.5047
X1.3352Y6.3142
X1.3352Y6.2642
X1.3852Y6.3142
X1.3852Y6.2642
X1.4352Y6.3142
X1.4352Y6.2642
X1.4852Y6.3142
X1.4852Y6.2642
X1.5352Y6.3142
X1.5352Y6.2642
X-0.0661Y4.8256
X-0.0661Y4.7756
X-0.0161Y4.8256
X-0.0161Y4.7756
X0.0339Y4.8256
X0.0339Y4.7756
X0.0839Y4.8256
X0.0839Y4.7756
X0.1339Y4.8256
X0.1339Y4.7756
X0.185Y6.0276
X0.185Y5.9776
X0.185Y5.9276
X0.185Y5.8776
X0.185Y5.8276
X0.235Y6.0276
X0.235Y5.9776
X0.235Y5.9276
X0.235Y5.8776
X0.235Y5.8276
X-0.2657Y6.3276
X-0.2657Y6.2776
X-0.2157Y6.3276
X-0.2157Y6.2776
X-0.1657Y6.3276
X-0.1657Y6.2776
X-0.1157Y6.3276
X-0.1157Y6.2776
X-0.0657Y6.3276
X-0.0657Y6.2776
T7
X9.2744Y7.2303
X9.2744Y7.1555
T8
X5.7854Y6.7303
X5.7854Y6.5335
X6.002Y6.7303
X6.002Y6.5335
X6.2185Y6.7303
X6.2185Y6.5335
X5.5689Y6.7303
X5.5689Y6.5335
X5.3524Y6.7303
X5.3524Y6.5335
T9
X0.422Y6.8835
X0.422Y6.8047
X0.5205Y6.8835
X0.5205Y6.8047
T10
X-0.3071Y5.9803
X-0.3071Y5.4094
X-0.2087Y5.4094
X-0.1102Y5.9803
X-0.1102Y5.4094
X6.9807Y6.7694
X7.106Y6.6441
X7.1617Y6.9504
X7.287Y6.8251
X7.9256Y5.8245
X8.0509Y5.6992
X8.1066Y6.0055
X8.2319Y5.8802
X6.9807Y5.8245
X7.106Y5.6992
X7.1617Y6.0055
X7.287Y5.8802
X10.0516Y5.8245
X10.1769Y5.6992
X10.2326Y6.0055
X10.3578Y5.8802
X8.3981Y5.8245
X8.5233Y5.6992
X8.579Y6.0055
X8.7043Y5.8802
X9.5792Y5.3521
X9.7044Y5.2268
X9.7601Y5.533
X9.8854Y5.4078
X7.4532Y6.7694
X7.5785Y6.6441
X7.6341Y6.9504
X7.7594Y6.8251
X6.9807Y6.297
X7.106Y6.1717
X7.1617Y6.4779
X7.287Y6.3526
X2.7047Y6.5906
X2.7047Y6.3937
X3.2756Y6.5906
X3.2756Y6.4921
X3.2756Y6.3937
X8.3981Y6.7694
X8.5233Y6.6441
X8.579Y6.9504
X8.7043Y6.8251
X9.5792Y5.8245
X9.7044Y5.6992
X9.7601Y6.0055
X9.8854Y5.8802
X7.4532Y6.297
X7.5785Y6.1717
X7.6341Y6.4779
X7.7594Y6.3526
X10.0516Y5.3521
X10.1769Y5.2268
X10.2326Y5.533
X10.3578Y5.4078
X7.9256Y5.3521
X8.0509Y5.2268
X8.1066Y5.533
X8.2319Y5.4078
X7.9256Y6.297
X8.0509Y6.1717
X8.1066Y6.4779
X8.2319Y6.3526
X0.7559Y6.7677
X0.7559Y6.1969
X0.8543Y6.1969
X0.9528Y6.7677
X0.9528Y6.1969
X8.8705Y6.297
X8.9958Y6.1717
X9.0515Y6.4779
X9.1767Y6.3526
X8.8705Y5.8245
X8.9958Y5.6992
X9.0515Y6.0055
X9.1767Y5.8802
X1.8189Y5.9803
X1.8189Y5.4094
X1.9173Y5.4094
X2.0157Y5.9803
X2.0157Y5.4094
X8.8705Y5.3521
X8.9958Y5.2268
X9.0515Y5.533
X9.1767Y5.4078
X9.5792Y6.7694
X9.7044Y6.6441
X9.7601Y6.9504
X9.8854Y6.8251
X8.3981Y5.3521
X8.5233Y5.2268
X8.579Y5.533
X8.7043Y5.4078
X10.0516Y6.297
X10.1769Y6.1717
X10.2326Y6.4779
X10.3578Y6.3526
X4.9142Y7.2059
X4.9142Y7.1059
X4.9142Y7.0059
X4.9142Y6.9059
X5.0142Y7.2059
X5.0142Y7.1059
X5.0142Y7.0059
X5.0142Y6.9059
X8.8705Y6.7694
X8.9958Y6.6441
X9.0515Y6.9504
X9.1767Y6.8251
X7.4532Y5.8245
X7.5785Y5.6992
X7.6341Y6.0055
X7.7594Y5.8802
X6.6339Y4.9843
X6.7339Y4.9843
X6.8339Y4.9843
X8.3981Y6.297
X8.5233Y6.1717
X8.579Y6.4779
X8.7043Y6.3526
X9.5792Y6.297
X9.7044Y6.1717
X9.7601Y6.4779
X9.8854Y6.3526
X6.9807Y5.3521
X7.106Y5.2268
X7.1617Y5.533
X7.287Y5.4078
X10.0516Y6.7694
X10.1769Y6.6441
X10.2326Y6.9504
X10.3578Y6.8251
X7.4532Y5.3521
X7.5785Y5.2268
X7.6341Y5.533
X7.7594Y5.4078
X7.9256Y6.7694
X8.0509Y6.6441
X8.1066Y6.9504
X8.2319Y6.8251
T11
X2.3201Y6.9697
X2.3201Y6.8697
X2.3201Y6.7697
X2.3201Y6.6697
X2.3201Y6.5697
X2.3201Y6.4697
X2.3201Y6.3697
X2.3201Y6.2697
X2.3201Y6.1697
X2.3201Y6.0697
X2.3201Y5.9697
X2.3201Y5.8697
X2.3201Y5.7697
X2.3201Y5.6697
X2.3201Y5.5697
X2.3201Y5.4697
X2.3201Y5.3697
X2.3201Y5.2697
X2.3201Y5.1697
X2.3201Y5.0697
X2.4201Y6.9697
X2.4201Y6.8697
X2.4201Y6.7697
X2.4201Y6.6697
X2.4201Y6.5697
X2.4201Y6.4697
X2.4201Y6.3697
X2.4201Y6.2697
X2.4201Y6.1697
X2.4201Y6.0697
X2.4201Y5.9697
X2.4201Y5.8697
X2.4201Y5.7697
X2.4201Y5.6697
X2.4201Y5.5697
X2.4201Y5.4697
X2.4201Y5.3697
X2.4201Y5.2697
X2.4201Y5.1697
X2.4201Y5.0697
X4.9142Y6.3059
X4.9142Y6.2059
X5.0142Y6.3059
X5.0142Y6.2059
X5.1142Y6.3059
X5.1142Y6.2059
X6.3142Y6.3059
X6.3142Y6.2059
X6.4142Y6.3059
X6.4142Y6.2059
X6.5142Y6.3059
X6.5142Y6.2059
X6.6142Y6.3059
X6.6142Y6.2059
X6.7142Y6.3059
X6.7142Y6.2059
X6.8142Y6.3059
X6.8142Y6.2059
T12
X-0.6685Y7.2024
X-0.3102Y7.2028
T13
X9.2598Y4.1988
X9.2598Y3.7067
X9.4567Y4.1992
X9.4567Y3.7067
X3.7972Y4.6614
X3.7972Y4.4646
X4.2894Y4.6614
X4.2898Y4.4646
X4.1516Y4.0512
X4.1516Y3.8543
X4.6437Y4.0512
X4.6441Y3.8543
X6.9862Y4.0512
X6.9862Y3.8543
X7.4783Y4.0512
X7.4787Y3.8543
X2.0256Y4.0512
X2.0256Y3.8543
X2.5177Y4.0512
X2.5181Y3.8543
X2.7343Y4.0512
X2.7343Y3.8543
X3.2264Y4.0512
X3.2268Y3.8543
X6.2776Y4.0512
X6.2776Y3.8543
X6.7697Y4.0512
X6.7701Y3.8543
X9.9685Y4.1988
X9.9685Y3.7067
X10.1654Y4.1992
X10.1654Y3.7067
X8.0492Y4.6614
X8.0492Y4.4646
X8.5413Y4.6614
X8.5417Y4.4646
X7.6949Y4.0512
X7.6949Y3.8543
X8.187Y4.0512
X8.1874Y3.8543
X8.4035Y4.0512
X8.4035Y3.8543
X8.8957Y4.0512
X8.8961Y3.8543
X3.4429Y4.0512
X3.4429Y3.8543
X3.935Y4.0512
X3.9354Y3.8543
X5.2146Y4.6614
X5.2146Y4.4646
X5.7067Y4.6614
X5.7071Y4.4646
X1.3169Y4.0512
X1.3169Y3.8543
X1.8091Y4.0512
X1.8094Y3.8543
X-0.6616Y4.1988
X-0.6616Y3.7067
X-0.4648Y4.1992
X-0.4648Y3.7067
X8.7579Y4.6614
X8.7579Y4.4646
X9.25Y4.6614
X9.2504Y4.4646
X5.9232Y4.6614
X5.9232Y4.4646
X6.4154Y4.6614
X6.4157Y4.4646
X4.8602Y4.0512
X4.8602Y3.8543
X5.3524Y4.0512
X5.3528Y3.8543
X3.0886Y4.6614
X3.0886Y4.4646
X3.5807Y4.6614
X3.5811Y4.4646
X7.3406Y4.6614
X7.3406Y4.4646
X7.8327Y4.6614
X7.8331Y4.4646
X0.6083Y4.0512
X0.6083Y3.8543
X1.1004Y4.0512
X1.1008Y3.8543
X0.4016Y4.8091
X0.4016Y4.3165
X0.5984Y4.8091
X0.5984Y4.3169
X0.9626Y4.6614
X0.9626Y4.4646
X1.4547Y4.6614
X1.4551Y4.4646
X0.0472Y4.1988
X0.0472Y3.7067
X0.2441Y4.1992
X0.2441Y3.7067
X2.3799Y4.6614
X2.3799Y4.4646
X2.872Y4.6614
X2.8724Y4.4646
X5.5689Y4.0512
X5.5689Y3.8543
X6.061Y4.0512
X6.0614Y3.8543
T15
X0.2343Y6.9902
X0.7083Y6.9902
T16
X4.752Y4.2874
X9.7126Y4.311
X-0.3949Y6.8563
X9.2839Y6.6493
X-0.2088Y4.311
T17
X10.2941Y3.7461
X-0.7886Y7.2106
X-0.8083Y3.7461
T18
X5.2244Y7.2677
X5.2244Y6.9921
X2.0748Y7.2677
X2.0748Y6.9921
X5.815Y7.2677
X5.815Y6.9921
X1.6024Y7.2677
X1.6024Y6.9921
X1.1299Y7.2677
X1.1299Y6.9921
X6.4055Y7.2677
X6.4055Y6.9921
T19
X7.5866Y4.7402
X7.5866Y4.3858
X0.8543Y4.1299
X0.8543Y3.7756
X0.3228Y4.563
X0.6772Y4.563
X1.2087Y4.7402
X1.2087Y4.3858
X-0.0315Y3.9528
X0.3228Y3.9528
X2.626Y4.7402
X2.626Y4.3858
X5.815Y4.1299
X5.815Y3.7756
X9.1811Y3.9528
X9.5354Y3.9528
X4.0433Y4.7402
X4.0433Y4.3858
X4.3976Y4.1299
X4.3976Y3.7756
X7.2323Y4.1299
X7.2323Y3.7756
X2.2717Y4.1299
X2.2717Y3.7756
X2.9803Y4.1299
X2.9803Y3.7756
X6.5236Y4.1299
X6.5236Y3.7756
X9.8898Y3.9528
X10.2441Y3.9528
X8.2953Y4.7402
X8.2953Y4.3858
X7.9409Y4.1299
X7.9409Y3.7756
X8.6496Y4.1299
X8.6496Y3.7756
X3.689Y4.1299
X3.689Y3.7756
X5.4606Y4.7402
X5.4606Y4.3858
X1.563Y4.1299
X1.563Y3.7756
X-0.7404Y3.9528
X-0.386Y3.9528
X9.0039Y4.7402
X9.0039Y4.3858
X6.1693Y4.7402
X6.1693Y4.3858
X5.1063Y4.1299
X5.1063Y3.7756
X3.3346Y4.7402
X3.3346Y4.3858
T20
X2.3701Y6.9197
X2.3701Y5.1197
X4.9642Y6.2559
X5.0642Y6.2559
X6.3642Y6.2559
X6.7642Y6.2559
T21
X2.3701Y7.1614
X2.3701Y4.878
X4.2992Y7.1614
X4.2992Y4.878
T22
X-0.7705Y4.5866
X10.2744Y4.563
X4.752Y4.563
X10.2587Y7.185
X-0.7705Y6.9823
T2
G00X1.5079Y7.2677
M15
G01X1.5079Y7.2992
M16
G05
G00X1.5079Y7.1909
M15
G01X1.5079Y7.2224
M16
G05
G00X1.5079Y7.0807
M15
G01X1.5079Y7.1122
M16
G05
G00X1.5079Y6.9921
M15
G01X1.5079Y7.0236
M16
G05
G00X1.6969Y7.2323
M15
G01X1.6969Y7.2638
M16
G05
G00X1.6969Y7.1201
M15
G01X1.6969Y7.1516
M16
G05
G00X1.6969Y7.0079
M15
G01X1.6969Y7.0394
M16
G05
G00X1.6969Y6.9094
M15
G01X1.6969Y6.9409
M16
G05
G00X1.0354Y7.2677
M15
G01X1.0354Y7.2992
M16
G05
G00X1.0354Y7.1909
M15
G01X1.0354Y7.2224
M16
G05
G00X1.0354Y7.0807
M15
G01X1.0354Y7.1122
M16
G05
G00X1.0354Y6.9921
M15
G01X1.0354Y7.0236
M16
G05
G00X1.2244Y7.2323
M15
G01X1.2244Y7.2638
M16
G05
G00X1.2244Y7.1201
M15
G01X1.2244Y7.1516
M16
G05
G00X1.2244Y7.0079
M15
G01X1.2244Y7.0394
M16
G05
G00X1.2244Y6.9094
M15
G01X1.2244Y6.9409
M16
G05
G00X6.311Y7.2677
M15
G01X6.311Y7.2992
M16
G05
G00X6.311Y7.1909
M15
G01X6.311Y7.2224
M16
G05
G00X6.311Y7.0807
M15
G01X6.311Y7.1122
M16
G05
G00X6.311Y6.9921
M15
G01X6.311Y7.0236
M16
G05
G00X6.5Y7.2323
M15
G01X6.5Y7.2638
M16
G05
G00X6.5Y7.1201
M15
G01X6.5Y7.1516
M16
G05
G00X6.5Y7.0079
M15
G01X6.5Y7.0394
M16
G05
G00X6.5Y6.9094
M15
G01X6.5Y6.9409
M16
G05
G00X5.1299Y7.2677
M15
G01X5.1299Y7.2992
M16
G05
G00X5.1299Y7.1909
M15
G01X5.1299Y7.2224
M16
G05
G00X5.1299Y7.0807
M15
G01X5.1299Y7.1122
M16
G05
G00X5.1299Y6.9921
M15
G01X5.1299Y7.0236
M16
G05
G00X5.3189Y7.2323
M15
G01X5.3189Y7.2638
M16
G05
G00X5.3189Y7.1201
M15
G01X5.3189Y7.1516
M16
G05
G00X5.3189Y7.0079
M15
G01X5.3189Y7.0394
M16
G05
G00X5.3189Y6.9094
M15
G01X5.3189Y6.9409
M16
G05
G00X1.9803Y7.2677
M15
G01X1.9803Y7.2992
M16
G05
G00X1.9803Y7.1909
M15
G01X1.9803Y7.2224
M16
G05
G00X1.9803Y7.0807
M15
G01X1.9803Y7.1122
M16
G05
G00X1.9803Y6.9921
M15
G01X1.9803Y7.0236
M16
G05
G00X2.1693Y7.2323
M15
G01X2.1693Y7.2638
M16
G05
G00X2.1693Y7.1201
M15
G01X2.1693Y7.1516
M16
G05
G00X2.1693Y7.0079
M15
G01X2.1693Y7.0394
M16
G05
G00X2.1693Y6.9094
M15
G01X2.1693Y6.9409
M16
G05
G00X5.7205Y7.2677
M15
G01X5.7205Y7.2992
M16
G05
G00X5.7205Y7.1909
M15
G01X5.7205Y7.2224
M16
G05
G00X5.7205Y7.0807
M15
G01X5.7205Y7.1122
M16
G05
G00X5.7205Y6.9921
M15
G01X5.7205Y7.0236
M16
G05
G00X5.9094Y7.2323
M15
G01X5.9094Y7.2638
M16
G05
G00X5.9094Y7.1201
M15
G01X5.9094Y7.1516
M16
G05
G00X5.9094Y7.0079
M15
G01X5.9094Y7.0394
M16
G05
G00X5.9094Y6.9094
M15
G01X5.9094Y6.9409
M16
G05
T8
G00X-0.0366Y7.1024
M15
G01X-0.1232Y7.1024
M16
G05
G00X-0.0366Y6.8661
M15
G01X-0.1232Y6.8661
M16
G05
G00X0.1091Y6.9213
M15
G01X0.1091Y7.0079
M16
G05
T14
G00X3.002Y6.7087
M15
G01X2.9587Y6.7087
M16
G05
G00X3.002Y6.2756
M15
G01X2.9587Y6.2756
M16
G05
G00X1.7008Y5.6831
M15
G01X1.7008Y5.7264
M16
G05
G00X2.1339Y5.6831
M15
G01X2.1339Y5.7264
M16
G05
G00X-0.4252Y5.6831
M15
G01X-0.4252Y5.7264
M16
G05
G00X0.0079Y5.6831
M15
G01X0.0079Y5.7264
M16
G05
G00X0.6378Y6.4705
M15
G01X0.6378Y6.5138
M16
G05
G00X1.0709Y6.4705
M15
G01X1.0709Y6.5138
M16
G05
T0
M30
