M48
; DRILL file {KiCad 5.1.6} date Thu Nov  5 21:06:29 2020
; FORMAT={-:-/ absolute / inch / decimal}
; #@! TF.CreationDate,2020-11-05T21:06:29+01:00
; #@! TF.GenerationSoftware,Kicad,Pcbnew,5.1.6
; #@! TF.FileFunction,Plated,1,4,PTH
FMAT,2
INCH
T1C0.0118
T2C0.0157
T3C0.0177
T4C0.0197
T5C0.0236
T6C0.0256
T7C0.0276
T8C0.0315
T9C0.0374
T10C0.0394
T11C0.0402
T12C0.0433
T13C0.0472
T14C0.0591
T15C0.0906
T16C0.1260
%
G90
G05
T1
X0.7914Y-1.8453
X0.7914Y-1.8925
X0.8347Y-1.8453
X0.8347Y-1.8925
X0.8859Y-1.8453
X0.8859Y-1.8925
X0.9332Y-1.8453
X0.9332Y-1.8925
T3
X0.8869Y-1.6347
X0.924Y-1.2746
X0.924Y-1.3139
X0.9361Y-1.6347
X0.9361Y-1.6839
X0.9929Y-2.1299
X1.0883Y-3.727
X1.1209Y-2.1181
X1.1772Y-2.5433
X1.1785Y-2.1582
X1.252Y-1.9567
X1.252Y-2.0079
X1.2756Y-2.0866
X1.2972Y-2.4311
X1.2972Y-2.4646
X1.3169Y-2.7087
X1.3169Y-2.748
X1.3307Y-2.4311
X1.3307Y-2.4646
X1.3504Y-2.7087
X1.3504Y-2.748
X1.3701Y-1.3386
X1.3858Y-2.1575
X1.4Y-1.6589
X1.4055Y-2.7992
X1.4193Y-2.3957
X1.4587Y-2.3957
X1.4744Y-2.7992
X1.5709Y-2.5866
X1.5709Y-2.622
X1.5709Y-2.6575
X1.6024Y-1.8425
X1.689Y-2.0079
X1.8061Y-3.7264
X1.874Y-0.9882
X1.874Y-1.0276
X1.874Y-1.0669
X1.9469Y-2.0453
X1.9528Y-2.4291
X1.9567Y-2.3937
X1.9665Y-1.3543
X2.0354Y-1.0945
X2.0354Y-1.2815
X2.0492Y-3.0964
X2.0728Y-2.7343
X2.0827Y-2.1732
X2.0827Y-2.3189
X2.0828Y-2.0945
X2.1004Y-2.752
X2.1024Y-1.882
X2.1378Y-3.5197
X2.1457Y-1.8976
X2.1602Y-3.2205
X2.1732Y-0.9882
X2.1732Y-1.0276
X2.1732Y-1.0669
X2.1732Y-1.1063
X2.1732Y-1.1457
X2.1752Y-1.6161
X2.201Y-1.6398
X2.2028Y-2.4715
X2.2205Y-2.0512
X2.2458Y-2.5549
X2.2705Y-2.5745
X2.2873Y-2.7245
X2.2953Y-2.5551
X2.2953Y-1.3484
X2.3071Y-1.9252
X2.3307Y-1.7599
X2.3336Y-2.5856
X2.3387Y-1.9254
X2.3464Y-2.7009
X2.3583Y-2.4016
X2.3678Y-3.41
X2.3702Y-1.9252
X2.378Y-1.6929
X2.4016Y-2.0669
X2.4017Y-1.9252
X2.4018Y-3.4091
X2.4065Y-1.1083
X2.4128Y-3.0964
X2.4253Y-2.6142
X2.4478Y-3.77
X2.4488Y-1.2402
X2.4488Y-1.3484
X2.4685Y-3.0472
X2.4778Y-3.4725
X2.4806Y-2.6499
X2.4862Y-2.7047
X2.4902Y-2.3268
X2.4921Y-1.8072
X2.5049Y-1.0404
X2.5079Y-1.6929
X2.5118Y-1.9567
X2.5128Y-1.0787
X2.5177Y-2.872
X2.5197Y-2.2992
X2.5274Y-1.8071
X2.5354Y-1.2972
X2.5354Y-2.1476
X2.5354Y-2.1831
X2.5432Y-2.2736
X2.5438Y-2.6772
X2.563Y-2.7047
X2.5669Y-2.6181
X2.5709Y-2.2475
X2.5748Y-2.8583
X2.5825Y-2.0434
X2.5825Y-2.0807
X2.5825Y-2.1181
X2.5854Y-0.4016
X2.5866Y-2.3701
X2.5873Y-1.33
X2.6063Y-2.748
X2.6102Y-1.9291
X2.6142Y-1.8051
X2.624Y-1.5571
X2.6457Y-2.748
X2.6535Y-3.374
X2.6695Y-2.3503
X2.689Y-2.5236
X2.6911Y-1.9716
X2.7047Y-1.8051
X2.7128Y-1.9945
X2.7146Y-1.4823
X2.7146Y-2.248
X2.7392Y-2.6033
X2.7392Y-2.6841
X2.7392Y-3.1171
X2.8248Y-2.2677
X2.8268Y-2.2283
X2.8307Y-2.4528
X2.8314Y-2.0989
X2.8407Y-2.3042
X2.8418Y-2.194
X2.8484Y-1.878
X2.8535Y-2.1259
X2.8562Y-1.6397
X2.874Y-2.8976
X2.8878Y-1.6102
X2.9094Y-0.9646
X2.9331Y-1.1063
X2.94Y-0.9065
X2.9528Y-3.374
X2.9783Y-1.0157
X3.0Y-2.8799
X3.0217Y-2.1535
X3.0232Y-2.2009
X3.0236Y-2.315
X3.0276Y-1.7303
X3.0315Y-1.8858
X3.0315Y-1.9686
X3.0315Y-2.0236
X3.0315Y-2.5768
X3.0315Y-2.6516
X3.0335Y-2.3524
X3.0394Y-2.4528
X3.1604Y-2.4508
X3.1713Y-1.6128
X3.2008Y-1.872
X3.2175Y-3.7856
X3.2264Y-1.5295
X3.2274Y-1.3455
X3.2283Y-2.1594
X3.2283Y-1.3858
X3.2323Y-2.1929
X3.2382Y-2.878
X3.249Y-1.2569
X3.2815Y-1.122
X3.2913Y-2.2657
X3.3071Y-1.6634
X3.3088Y-2.4291
X3.372Y-2.4291
X3.376Y-1.6929
X3.3957Y-0.7442
X3.3957Y-2.4921
X3.4331Y-1.0669
X3.4459Y-1.2904
X3.4488Y-3.5551
X3.4626Y-1.8386
X3.4705Y-0.7442
X3.4843Y-1.748
X3.5079Y-1.2559
X3.5118Y-2.1339
X3.5197Y-1.6615
X3.5512Y-1.6378
X3.561Y-1.8386
X3.5669Y-3.5551
X3.5827Y-2.6634
X3.6004Y-1.3189
X3.6102Y-2.1043
X3.6137Y-1.5655
X3.6181Y-2.7598
X3.6181Y-2.8661
X3.6181Y-3.0453
X3.6181Y-3.1766
X3.6181Y-3.3307
X3.6299Y-0.9921
X3.6535Y-2.7598
X3.6535Y-2.8661
X3.6535Y-3.0453
X3.6535Y-3.1766
X3.6535Y-3.3307
X3.6594Y-1.1693
X3.7047Y-1.248
X3.7205Y-1.7205
X3.7205Y-1.7677
X3.7205Y-1.8504
X3.7461Y-2.4626
X3.748Y-1.2913
X3.7559Y-1.6634
X3.7559Y-2.6024
X3.7559Y-2.6339
X3.7598Y-2.1693
X3.7874Y-2.6024
X3.7874Y-2.6339
X3.8051Y-1.6209
X3.9262Y-3.8092
X4.1004Y-2.0157
X4.122Y-0.5276
X4.122Y-0.6457
X4.1419Y-1.4193
X4.1496Y-1.9173
X4.1614Y-3.374
X4.1614Y-3.5551
X4.1811Y-1.4646
X4.1811Y-1.5118
X4.1909Y-1.9547
X4.1929Y-0.5276
X4.1929Y-2.2185
X4.2008Y-1.8307
X4.2205Y-3.1762
X4.2323Y-2.2183
X4.2656Y-1.9542
X4.2717Y-0.815
X4.2717Y-1.8504
X4.2717Y-2.2185
X4.2717Y-2.4173
X4.2717Y-2.5177
X4.2726Y-0.877
X4.2736Y-1.063
X4.2736Y-1.6161
X4.2874Y-3.374
X4.2874Y-3.5551
X4.2992Y-1.6654
X4.315Y-2.3009
X4.3189Y-0.4724
X4.3199Y-0.6437
X4.32Y-2.0459
X4.3346Y-1.4685
X4.3504Y-0.878
X4.3504Y-0.9646
X4.378Y-0.4724
X4.378Y-0.5276
X4.3917Y-1.124
X4.4193Y-1.2933
X4.4488Y-1.063
X4.4744Y-1.2441
X4.4882Y-1.3425
X4.5315Y-2.7638
X4.5315Y-2.9291
X4.5689Y-1.1358
X4.688Y-1.8479
X4.689Y-1.1358
X4.7047Y-2.7638
X4.7047Y-2.9291
X4.7341Y-1.7024
X4.7441Y-1.0374
X4.7692Y-1.602
X4.7727Y-1.6536
X4.7869Y-1.4941
X4.9409Y-1.1457
X4.9882Y-3.1656
X5.03Y-1.2309
X5.0345Y-1.4929
X5.1597Y-1.652
X5.1609Y-1.6004
X5.1629Y-1.7024
X5.173Y-2.4729
X5.2224Y-3.7283
X5.2341Y-2.161
X5.2677Y-2.7638
X5.2677Y-2.9291
X5.3898Y-2.7638
X5.3898Y-2.9291
X5.445Y-1.0276
X5.5512Y-0.7756
X5.5512Y-1.0276
X5.5512Y-1.2087
X5.5512Y-2.4882
X5.6378Y-3.1614
X5.7638Y-2.4882
X5.8307Y-0.7756
X5.8307Y-0.9331
X5.8307Y-1.0276
X5.8307Y-1.2087
X5.935Y-3.7618
X5.9449Y-3.0236
X5.9724Y-2.4882
X6.0157Y-0.7756
X6.0157Y-1.0276
X6.0157Y-1.2087
X6.0551Y-2.7717
X6.0551Y-2.878
X6.1496Y-0.8307
X6.2953Y-0.8504
X6.2992Y-0.7165
X6.3543Y-2.2205
X6.4075Y-1.75
X6.4075Y-1.7894
X6.4075Y-1.8287
X6.4075Y-1.8681
X6.4075Y-1.9075
X6.4094Y-0.4764
X6.5768Y-1.75
X6.5768Y-1.7894
X6.5768Y-1.8287
X6.5768Y-1.8681
X6.5768Y-1.9075
X6.5827Y-3.0669
X6.6289Y-3.7766
X6.6358Y-2.2146
X6.6358Y-2.248
X6.6575Y-1.748
X6.6693Y-2.2146
X6.6693Y-2.248
X6.6929Y-1.7953
X6.6929Y-1.8307
X6.7165Y-2.3819
X6.7441Y-1.7953
X6.7441Y-1.8307
X6.752Y-2.8858
X6.7953Y-1.7953
X6.7953Y-1.8307
X6.8268Y-1.622
X6.8465Y-2.3819
X6.8465Y-2.8858
X6.9398Y-1.1102
X6.9488Y-1.5886
X6.9803Y-2.3819
X6.9843Y-1.5118
X6.9843Y-1.5866
X6.9911Y-3.2087
X7.0233Y-0.647
X7.0579Y-1.0315
X7.0591Y-2.6339
X7.0827Y-0.9665
X7.1142Y-0.6535
X7.1142Y-0.9665
X7.1334Y-1.6792
X7.1397Y-1.3012
X7.1397Y-1.376
X7.1496Y-1.6516
X7.1683Y-1.5994
X7.176Y-1.1102
X7.1791Y-1.7126
X7.1929Y-2.3819
X7.2185Y-1.3031
X7.2185Y-1.378
X7.2205Y-1.874
X7.2677Y-2.8819
X7.3189Y-1.7402
X7.3335Y-0.7953
X7.3386Y-3.7993
X7.3484Y-1.4291
X7.3484Y-1.8248
X7.3504Y-2.0039
X7.3504Y-2.2402
X7.3728Y-1.1102
X7.4114Y-1.4291
X7.4134Y-1.8248
X7.4173Y-2.0039
X7.4252Y-1.2441
X7.4431Y-1.5394
X7.4449Y-1.5079
X7.4516Y-0.6772
X7.4567Y-1.2441
X7.4567Y-1.6496
X7.4587Y-1.6909
X7.4921Y-2.8858
X7.5Y-2.0984
X7.5413Y-1.8504
X7.5697Y-0.7559
X7.6091Y-1.1102
X7.6102Y-1.8898
X7.6484Y-0.7165
X7.6673Y-1.6161
X7.6693Y-0.9646
X7.689Y-3.185
X7.7047Y-0.9646
X7.7402Y-0.9646
X7.7638Y-2.3858
X7.7638Y-2.6299
X7.7795Y-0.5276
X7.7795Y-0.622
X7.8059Y-1.1102
X7.8465Y-1.4803
X7.8543Y-0.5276
X7.8543Y-0.622
X7.8661Y-0.8425
X7.9567Y-0.6457
X8.0315Y-2.1811
X8.0315Y-2.3819
X8.0315Y-2.6339
X8.0315Y-2.8819
X8.0421Y-1.2283
X8.0482Y-3.44
X8.0571Y-1.4783
X8.1996Y-0.4409
X8.1996Y-0.6378
X8.1996Y-0.8346
X8.1996Y-0.9921
X8.1996Y-1.2283
X8.2677Y-1.9094
X8.2677Y-2.1811
X8.4368Y-2.5862
X8.4409Y-1.1102
X8.5909Y-3.476
X8.6063Y-1.0591
X8.6614Y-2.2913
X8.6614Y-2.5945
X8.7411Y-3.7283
X8.8228Y-1.9783
X8.8327Y-2.4508
X8.8386Y-2.7717
X8.8386Y-2.8819
X8.878Y-1.0591
X8.8848Y-3.7499
X9.0039Y-2.5945
X9.0787Y-1.0591
X9.122Y-3.1181
X9.2008Y-2.5945
X9.2953Y-1.5059
X9.2953Y-1.9783
X9.2953Y-2.4508
X9.3504Y-1.0591
X9.374Y-2.5945
X9.378Y-2.7717
X9.378Y-2.8858
X9.4173Y-2.3976
X9.4173Y-2.4764
X9.4193Y-3.7756
X9.4252Y-1.9134
X9.5512Y-2.7717
X9.5512Y-2.8858
X9.5551Y-1.0591
X9.5876Y-3.7283
X9.6969Y-1.9783
X9.7677Y-1.9783
X9.7677Y-2.4508
X9.7933Y-2.2028
X9.8366Y-3.1802
X9.8425Y-1.0591
X9.8583Y-2.3976
X9.8583Y-2.5945
X9.8937Y-1.4449
X9.9016Y-1.9055
X9.9921Y-2.4803
X9.9921Y-2.5945
X10.0433Y-1.0591
X10.0797Y-3.8002
X10.1654Y-1.9783
X10.1811Y-3.7283
X10.2402Y-1.5059
X10.2402Y-1.9783
X10.2677Y-2.8858
X10.2972Y-1.563
X10.2972Y-2.0354
X10.2992Y-1.0591
X10.3071Y-2.4803
X10.3071Y-2.5945
X10.373Y-2.3829
X10.437Y-2.8858
X10.5Y-1.0591
X10.5344Y-3.1565
X10.5571Y-1.5059
X10.5906Y-2.5945
X10.7126Y-1.9783
X10.7717Y-1.5059
X10.7717Y-2.5945
X10.7756Y-2.8858
X10.811Y-0.815
X10.811Y-1.2835
X10.811Y-1.7638
X10.878Y-2.5945
X10.8819Y-1.4449
X10.8819Y-1.5315
X10.8819Y-1.6142
X10.8819Y-1.8976
X10.8819Y-1.9724
X10.8819Y-2.0906
X10.8819Y-2.2087
X10.8819Y-2.3465
X10.9528Y-2.8858
X10.9764Y-1.2835
X10.9764Y-1.7638
X10.9803Y-0.815
X10.9803Y-0.9685
X10.999Y-3.1309
X11.0551Y-2.8858
X11.0827Y-2.5945
X11.1693Y-1.0591
X11.1969Y-2.5945
X11.2598Y-2.8858
X11.3484Y-1.5059
X11.3484Y-2.378
X11.3858Y-2.6142
X11.4213Y-1.9783
X11.4961Y-1.0591
X11.5236Y-1.9134
X11.5236Y-1.9764
X11.5236Y-2.4803
X11.563Y-2.8858
X11.6969Y-1.0591
X11.7559Y-1.9449
X11.8189Y-2.376
X11.8465Y-2.6142
X11.8996Y-1.8996
X11.9193Y-2.4508
X11.9213Y-1.9567
X11.9213Y-2.1772
X11.9252Y-1.4803
X11.9252Y-1.7008
X11.9523Y-1.5654
X11.9523Y-2.0374
X11.9528Y-2.5098
T4
X1.9094Y-1.6378
X10.7839Y-1.087
X10.8115Y-1.0202
X10.8115Y-1.1538
X10.8783Y-0.9925
X10.8783Y-1.1815
X10.9452Y-1.0202
X10.9452Y-1.1538
X10.9728Y-1.087
X7.1929Y-2.0659
X4.1909Y-1.1161
X11.2126Y-3.4252
X11.2403Y-3.3584
X11.2403Y-3.492
X11.3071Y-3.3307
X11.3071Y-3.5197
X11.3739Y-3.3584
X11.3739Y-3.492
X11.4016Y-3.4252
X1.1051Y-0.8799
X1.1328Y-0.8131
X1.1328Y-0.9467
X1.1996Y-0.7854
X1.1996Y-0.9744
X1.2664Y-0.8131
X1.2664Y-0.9467
X1.2941Y-0.8799
X6.252Y-3.4488
X6.2796Y-3.382
X6.2796Y-3.5156
X6.3465Y-3.3543
X6.3465Y-3.5433
X6.4133Y-3.382
X6.4133Y-3.5156
X6.4409Y-3.4488
X1.9094Y-1.5748
X1.2912Y-3.4252
X1.3189Y-3.3584
X1.3189Y-3.492
X1.3857Y-3.3307
X1.3857Y-3.5197
X1.4525Y-3.3584
X1.4525Y-3.492
X1.4802Y-3.4252
X4.2303Y-1.6665
X2.8209Y-1.7067
X3.748Y-1.3661
X3.748Y-1.4665
X1.9094Y-1.5118
T5
X1.0461Y-0.4941
X1.0461Y-0.5728
X1.1051Y-0.4941
X1.1051Y-0.5728
X1.1642Y-0.4941
X1.1642Y-0.5728
T6
X1.3287Y-1.4087
X1.3287Y-1.4587
X1.3787Y-1.4087
X1.3787Y-1.4587
X1.4287Y-1.4087
X1.4287Y-1.4587
X1.4787Y-1.4087
X1.4787Y-1.4587
X1.5287Y-1.4087
X1.5287Y-1.4587
X1.5283Y-2.9106
X1.5283Y-2.9606
X1.5783Y-2.9106
X1.5783Y-2.9606
X1.6283Y-2.9106
X1.6283Y-2.9606
X1.6783Y-2.9106
X1.6783Y-2.9606
X1.7283Y-2.9106
X1.7283Y-2.9606
X1.7795Y-2.0315
X1.7795Y-2.0815
X1.7795Y-2.1315
X1.7795Y-2.1815
X1.7795Y-2.2315
X1.8295Y-2.0315
X1.8295Y-2.0815
X1.8295Y-2.1315
X1.8295Y-2.1815
X1.8295Y-2.2315
X2.9297Y-1.422
X2.9297Y-1.472
X2.9797Y-1.422
X2.9797Y-1.472
X3.0297Y-1.422
X3.0297Y-1.472
X3.0797Y-1.422
X3.0797Y-1.472
X3.1297Y-1.422
X3.1297Y-1.472
X1.7795Y-1.7087
X1.7795Y-1.7587
X1.7795Y-1.8087
X1.7795Y-1.8587
X1.7795Y-1.9087
X1.8295Y-1.7087
X1.8295Y-1.7587
X1.8295Y-1.8087
X1.8295Y-1.8587
X1.8295Y-1.9087
T7
X10.8689Y-0.5059
X10.8689Y-0.5807
T8
X6.9469Y-1.0059
X6.9469Y-1.2028
X7.813Y-1.0059
X7.813Y-1.2028
X7.3799Y-1.0059
X7.3799Y-1.2028
X7.1634Y-1.0059
X7.1634Y-1.2028
X7.5965Y-1.0059
X7.5965Y-1.2028
T9
X2.0165Y-0.8528
X2.0165Y-0.9315
X2.115Y-0.8528
X2.115Y-0.9315
T10
X3.4134Y-1.7559
X3.4134Y-2.3268
X3.5118Y-2.3268
X3.6102Y-1.7559
X3.6102Y-2.3268
X9.5201Y-1.4393
X9.6454Y-1.5645
X9.7011Y-1.2583
X9.8263Y-1.3836
X11.6461Y-0.9668
X11.7714Y-1.0921
X11.8271Y-0.7859
X11.9523Y-0.9111
X9.5201Y-1.9117
X9.6454Y-2.037
X9.7011Y-1.7307
X9.8263Y-1.856
X9.5201Y-2.3841
X9.6454Y-2.5094
X9.7011Y-2.2032
X9.8263Y-2.3285
X9.9926Y-1.4393
X10.1178Y-1.5645
X10.1735Y-1.2583
X10.2988Y-1.3836
X8.5752Y-1.9117
X8.7005Y-2.037
X8.7562Y-1.7307
X8.8815Y-1.856
X9.0477Y-2.3841
X9.1729Y-2.5094
X9.2286Y-2.2032
X9.3539Y-2.3285
X9.0477Y-0.9668
X9.1729Y-1.0921
X9.2286Y-0.7859
X9.3539Y-0.9111
X10.465Y-1.4393
X10.5903Y-1.5645
X10.6459Y-1.2583
X10.7712Y-1.3836
X1.2874Y-1.7559
X1.2874Y-2.3268
X1.3858Y-2.3268
X1.4843Y-1.7559
X1.4843Y-2.3268
X11.1737Y-0.9668
X11.2989Y-1.0921
X11.3546Y-0.7859
X11.4799Y-0.9111
X11.1737Y-1.9117
X11.2989Y-2.037
X11.3546Y-1.7307
X11.4799Y-1.856
X11.1737Y-1.4393
X11.2989Y-1.5645
X11.3546Y-1.2583
X11.4799Y-1.3836
X10.465Y-1.9117
X10.5903Y-2.037
X10.6459Y-1.7307
X10.7712Y-1.856
X10.465Y-0.9668
X10.5903Y-1.0921
X10.6459Y-0.7859
X10.7712Y-0.9111
X11.6461Y-2.3841
X11.7714Y-2.5094
X11.8271Y-2.2032
X11.9523Y-2.3285
X11.6461Y-1.9117
X11.7714Y-2.037
X11.8271Y-1.7307
X11.9523Y-1.856
X8.5752Y-1.4393
X8.7005Y-1.5645
X8.7562Y-1.2583
X8.8815Y-1.3836
X11.1737Y-2.3841
X11.2989Y-2.5094
X11.3546Y-2.2032
X11.4799Y-2.3285
X9.9926Y-2.3841
X10.1178Y-2.5094
X10.1735Y-2.2032
X10.2988Y-2.3285
X9.5201Y-0.9668
X9.6454Y-1.0921
X9.7011Y-0.7859
X9.8263Y-0.9111
X9.9926Y-1.9117
X10.1178Y-2.037
X10.1735Y-1.7307
X10.2988Y-1.856
X9.0477Y-1.9117
X9.1729Y-2.037
X9.2286Y-1.7307
X9.3539Y-1.856
X8.5752Y-2.3841
X8.7005Y-2.5094
X8.7562Y-2.2032
X8.8815Y-2.3285
X4.2992Y-1.1457
X4.2992Y-1.3425
X4.8701Y-1.1457
X4.8701Y-1.2441
X4.8701Y-1.3425
X9.9926Y-0.9668
X10.1178Y-1.0921
X10.1735Y-0.7859
X10.2988Y-0.9111
X8.5752Y-0.9668
X8.7005Y-1.0921
X8.7562Y-0.7859
X8.8815Y-0.9111
X2.3504Y-0.9685
X2.3504Y-1.5394
X2.4488Y-1.5394
X2.5472Y-0.9685
X2.5472Y-1.5394
X8.2283Y-2.752
X8.3283Y-2.752
X8.4283Y-2.752
X6.5087Y-0.5303
X6.5087Y-0.6303
X6.5087Y-0.7303
X6.5087Y-0.8303
X6.6087Y-0.5303
X6.6087Y-0.6303
X6.6087Y-0.7303
X6.6087Y-0.8303
X10.465Y-2.3841
X10.5903Y-2.5094
X10.6459Y-2.2032
X10.7712Y-2.3285
X11.6461Y-1.4393
X11.7714Y-1.5645
X11.8271Y-1.2583
X11.9523Y-1.3836
X9.0477Y-1.4393
X9.1729Y-1.5645
X9.2286Y-1.2583
X9.3539Y-1.3836
T11
X7.9087Y-1.4303
X7.9087Y-1.5303
X8.0087Y-1.4303
X8.0087Y-1.5303
X8.1087Y-1.4303
X8.1087Y-1.5303
X8.2087Y-1.4303
X8.2087Y-1.5303
X8.3087Y-1.4303
X8.3087Y-1.5303
X8.4087Y-1.4303
X8.4087Y-1.5303
X6.5087Y-1.4303
X6.5087Y-1.5303
X6.6087Y-1.4303
X6.6087Y-1.5303
X6.7087Y-1.4303
X6.7087Y-1.5303
X3.9146Y-0.7665
X3.9146Y-0.8665
X3.9146Y-0.9665
X3.9146Y-1.0665
X3.9146Y-1.1665
X3.9146Y-1.2665
X3.9146Y-1.3665
X3.9146Y-1.4665
X3.9146Y-1.5665
X3.9146Y-1.6665
X3.9146Y-1.7665
X3.9146Y-1.8665
X3.9146Y-1.9665
X3.9146Y-2.0665
X3.9146Y-2.1665
X3.9146Y-2.2665
X3.9146Y-2.3665
X3.9146Y-2.4665
X3.9146Y-2.5665
X3.9146Y-2.6665
X4.0146Y-0.7665
X4.0146Y-0.8665
X4.0146Y-0.9665
X4.0146Y-1.0665
X4.0146Y-1.1665
X4.0146Y-1.2665
X4.0146Y-1.3665
X4.0146Y-1.4665
X4.0146Y-1.5665
X4.0146Y-1.6665
X4.0146Y-1.7665
X4.0146Y-1.8665
X4.0146Y-1.9665
X4.0146Y-2.0665
X4.0146Y-2.1665
X4.0146Y-2.2665
X4.0146Y-2.3665
X4.0146Y-2.4665
X4.0146Y-2.5665
X4.0146Y-2.6665
T12
X0.926Y-0.5339
X1.2843Y-0.5335
T13
X0.9329Y-3.5374
X0.9329Y-4.0295
X1.1297Y-3.537
X1.1297Y-4.0295
X8.935Y-3.0748
X8.935Y-3.2717
X9.4272Y-3.0748
X9.4276Y-3.2717
X11.563Y-3.5374
X11.563Y-4.0295
X11.7598Y-3.537
X11.7598Y-4.0295
X7.1634Y-3.685
X7.1634Y-3.8819
X7.6555Y-3.685
X7.6559Y-3.8819
X2.2028Y-3.685
X2.2028Y-3.8819
X2.6949Y-3.685
X2.6953Y-3.8819
X9.6437Y-3.0748
X9.6437Y-3.2717
X10.1358Y-3.0748
X10.1362Y-3.2717
X7.872Y-3.685
X7.872Y-3.8819
X8.3642Y-3.685
X8.3646Y-3.8819
X6.4547Y-3.685
X6.4547Y-3.8819
X6.9469Y-3.685
X6.9472Y-3.8819
X5.3917Y-3.0748
X5.3917Y-3.2717
X5.8839Y-3.0748
X5.8843Y-3.2717
X5.7461Y-3.685
X5.7461Y-3.8819
X6.2382Y-3.685
X6.2386Y-3.8819
X5.0374Y-3.685
X5.0374Y-3.8819
X5.5295Y-3.685
X5.5299Y-3.8819
X4.3287Y-3.685
X4.3287Y-3.8819
X4.8209Y-3.685
X4.8213Y-3.8819
X9.2894Y-3.685
X9.2894Y-3.8819
X9.7815Y-3.685
X9.7819Y-3.8819
X2.5571Y-3.0748
X2.5571Y-3.2717
X3.0492Y-3.0748
X3.0496Y-3.2717
X4.6831Y-3.0748
X4.6831Y-3.2717
X5.1752Y-3.0748
X5.1756Y-3.2717
X8.5807Y-3.685
X8.5807Y-3.8819
X9.0728Y-3.685
X9.0732Y-3.8819
X1.9961Y-2.9272
X1.9961Y-3.4197
X2.1929Y-2.9272
X2.1929Y-3.4193
X1.6417Y-3.5374
X1.6417Y-4.0295
X1.8386Y-3.537
X1.8386Y-4.0295
X6.8091Y-3.0748
X6.8091Y-3.2717
X7.3012Y-3.0748
X7.3016Y-3.2717
X10.8543Y-3.5374
X10.8543Y-4.0295
X11.0512Y-3.537
X11.0512Y-4.0295
X2.9114Y-3.685
X2.9114Y-3.8819
X3.4035Y-3.685
X3.4039Y-3.8819
X7.5177Y-3.0748
X7.5177Y-3.2717
X8.0098Y-3.0748
X8.0102Y-3.2717
X10.3524Y-3.0748
X10.3524Y-3.2717
X10.8445Y-3.0748
X10.8449Y-3.2717
X3.6201Y-3.685
X3.6201Y-3.8819
X4.1122Y-3.685
X4.1126Y-3.8819
X9.998Y-3.685
X9.998Y-3.8819
X10.4902Y-3.685
X10.4906Y-3.8819
X3.9744Y-3.0748
X3.9744Y-3.2717
X4.4665Y-3.0748
X4.4669Y-3.2717
T15
X1.8287Y-0.7461
X2.3028Y-0.7461
T16
X10.8783Y-1.087
X11.3071Y-3.4252
X1.1996Y-0.8799
X6.3465Y-3.4488
X1.3857Y-3.4252
T2
G00X7.9055Y-0.4685
M15
G01X7.9055Y-0.437
M16
G05
G00X7.9055Y-0.5453
M15
G01X7.9055Y-0.5138
M16
G05
G00X7.9055Y-0.6555
M15
G01X7.9055Y-0.624
M16
G05
G00X7.9055Y-0.7441
M15
G01X7.9055Y-0.7126
M16
G05
G00X8.0945Y-0.5039
M15
G01X8.0945Y-0.4724
M16
G05
G00X8.0945Y-0.6161
M15
G01X8.0945Y-0.5846
M16
G05
G00X8.0945Y-0.7283
M15
G01X8.0945Y-0.6969
M16
G05
G00X8.0945Y-0.8268
M15
G01X8.0945Y-0.7953
M16
G05
G00X3.1024Y-0.4685
M15
G01X3.1024Y-0.437
M16
G05
G00X3.1024Y-0.5453
M15
G01X3.1024Y-0.5138
M16
G05
G00X3.1024Y-0.6555
M15
G01X3.1024Y-0.624
M16
G05
G00X3.1024Y-0.7441
M15
G01X3.1024Y-0.7126
M16
G05
G00X3.2913Y-0.5039
M15
G01X3.2913Y-0.4724
M16
G05
G00X3.2913Y-0.6161
M15
G01X3.2913Y-0.5846
M16
G05
G00X3.2913Y-0.7283
M15
G01X3.2913Y-0.6969
M16
G05
G00X3.2913Y-0.8268
M15
G01X3.2913Y-0.7953
M16
G05
G00X3.5748Y-0.4685
M15
G01X3.5748Y-0.437
M16
G05
G00X3.5748Y-0.5453
M15
G01X3.5748Y-0.5138
M16
G05
G00X3.5748Y-0.6555
M15
G01X3.5748Y-0.624
M16
G05
G00X3.5748Y-0.7441
M15
G01X3.5748Y-0.7126
M16
G05
G00X3.7638Y-0.5039
M15
G01X3.7638Y-0.4724
M16
G05
G00X3.7638Y-0.6161
M15
G01X3.7638Y-0.5846
M16
G05
G00X3.7638Y-0.7283
M15
G01X3.7638Y-0.6969
M16
G05
G00X3.7638Y-0.8268
M15
G01X3.7638Y-0.7953
M16
G05
G00X2.6299Y-0.4685
M15
G01X2.6299Y-0.437
M16
G05
G00X2.6299Y-0.5453
M15
G01X2.6299Y-0.5138
M16
G05
G00X2.6299Y-0.6555
M15
G01X2.6299Y-0.624
M16
G05
G00X2.6299Y-0.7441
M15
G01X2.6299Y-0.7126
M16
G05
G00X2.8189Y-0.5039
M15
G01X2.8189Y-0.4724
M16
G05
G00X2.8189Y-0.6161
M15
G01X2.8189Y-0.5846
M16
G05
G00X2.8189Y-0.7283
M15
G01X2.8189Y-0.6969
M16
G05
G00X2.8189Y-0.8268
M15
G01X2.8189Y-0.7953
M16
G05
G00X6.7244Y-0.4685
M15
G01X6.7244Y-0.437
M16
G05
G00X6.7244Y-0.5453
M15
G01X6.7244Y-0.5138
M16
G05
G00X6.7244Y-0.6555
M15
G01X6.7244Y-0.624
M16
G05
G00X6.7244Y-0.7441
M15
G01X6.7244Y-0.7126
M16
G05
G00X6.9134Y-0.5039
M15
G01X6.9134Y-0.4724
M16
G05
G00X6.9134Y-0.6161
M15
G01X6.9134Y-0.5846
M16
G05
G00X6.9134Y-0.7283
M15
G01X6.9134Y-0.6969
M16
G05
G00X6.9134Y-0.8268
M15
G01X6.9134Y-0.7953
M16
G05
G00X7.315Y-0.4685
M15
G01X7.315Y-0.437
M16
G05
G00X7.315Y-0.5453
M15
G01X7.315Y-0.5138
M16
G05
G00X7.315Y-0.6555
M15
G01X7.315Y-0.624
M16
G05
G00X7.315Y-0.7441
M15
G01X7.315Y-0.7126
M16
G05
G00X7.5039Y-0.5039
M15
G01X7.5039Y-0.4724
M16
G05
G00X7.5039Y-0.6161
M15
G01X7.5039Y-0.5846
M16
G05
G00X7.5039Y-0.7283
M15
G01X7.5039Y-0.6969
M16
G05
G00X7.5039Y-0.8268
M15
G01X7.5039Y-0.7953
M16
G05
T8
G00X1.5579Y-0.6339
M15
G01X1.4713Y-0.6339
M16
G05
G00X1.5579Y-0.8701
M15
G01X1.4713Y-0.8701
M16
G05
G00X1.7035Y-0.815
M15
G01X1.7035Y-0.7283
M16
G05
T14
G00X1.1693Y-2.0531
M15
G01X1.1693Y-2.0098
M16
G05
G00X1.6024Y-2.0531
M15
G01X1.6024Y-2.0098
M16
G05
G00X4.5965Y-1.0276
M15
G01X4.5531Y-1.0276
M16
G05
G00X4.5965Y-1.4606
M15
G01X4.5531Y-1.4606
M16
G05
G00X2.2323Y-1.2657
M15
G01X2.2323Y-1.2224
M16
G05
G00X2.6654Y-1.2657
M15
G01X2.6654Y-1.2224
M16
G05
G00X3.2953Y-2.0531
M15
G01X3.2953Y-2.0098
M16
G05
G00X3.7283Y-2.0531
M15
G01X3.7283Y-2.0098
M16
G05
T0
M30
