%TF.GenerationSoftware,KiCad,Pcbnew,5.1.6*%
%TF.CreationDate,2020-06-25T18:17:16+02:00*%
%TF.ProjectId,OTTOdiy_SMD,4f54544f-6469-4795-9f53-4d442e6b6963,rev?*%
%TF.SameCoordinates,PX269fb20PYbb65a20*%
%TF.FileFunction,Legend,Top*%
%TF.FilePolarity,Positive*%
%FSLAX46Y46*%
G04 Gerber Fmt 4.6, Leading zero omitted, Abs format (unit mm)*
G04 Created by KiCad (PCBNEW 5.1.6) date 2020-06-25 18:17:16*
%MOMM*%
%LPD*%
G01*
G04 APERTURE LIST*
%ADD10C,0.150000*%
%ADD11C,0.200000*%
%ADD12C,0.240000*%
%ADD13C,0.120000*%
%ADD14C,0.250000*%
%ADD15C,0.010000*%
G04 APERTURE END LIST*
D10*
X230667952Y178266620D02*
X230667952Y179266620D01*
X231001285Y178552334D01*
X231334619Y179266620D01*
X231334619Y178266620D01*
X231810809Y178266620D02*
X231810809Y179266620D01*
X232858428Y178361858D02*
X232810809Y178314239D01*
X232667952Y178266620D01*
X232572714Y178266620D01*
X232429857Y178314239D01*
X232334619Y178409477D01*
X232287000Y178504715D01*
X232239380Y178695191D01*
X232239380Y178838048D01*
X232287000Y179028524D01*
X232334619Y179123762D01*
X232429857Y179219000D01*
X232572714Y179266620D01*
X232667952Y179266620D01*
X232810809Y179219000D01*
X232858428Y179171381D01*
X233858428Y178266620D02*
X233525095Y178742810D01*
X233287000Y178266620D02*
X233287000Y179266620D01*
X233667952Y179266620D01*
X233763190Y179219000D01*
X233810809Y179171381D01*
X233858428Y179076143D01*
X233858428Y178933286D01*
X233810809Y178838048D01*
X233763190Y178790429D01*
X233667952Y178742810D01*
X233287000Y178742810D01*
X234477476Y179266620D02*
X234667952Y179266620D01*
X234763190Y179219000D01*
X234858428Y179123762D01*
X234906047Y178933286D01*
X234906047Y178599953D01*
X234858428Y178409477D01*
X234763190Y178314239D01*
X234667952Y178266620D01*
X234477476Y178266620D01*
X234382238Y178314239D01*
X234287000Y178409477D01*
X234239380Y178599953D01*
X234239380Y178933286D01*
X234287000Y179123762D01*
X234382238Y179219000D01*
X234477476Y179266620D01*
X235334619Y178266620D02*
X235334619Y179266620D01*
X235715571Y179266620D01*
X235810809Y179219000D01*
X235858428Y179171381D01*
X235906047Y179076143D01*
X235906047Y178933286D01*
X235858428Y178838048D01*
X235810809Y178790429D01*
X235715571Y178742810D01*
X235334619Y178742810D01*
X236334619Y178266620D02*
X236334619Y179266620D01*
X236334619Y178790429D02*
X236906047Y178790429D01*
X236906047Y178266620D02*
X236906047Y179266620D01*
X237572714Y179266620D02*
X237763190Y179266620D01*
X237858428Y179219000D01*
X237953666Y179123762D01*
X238001285Y178933286D01*
X238001285Y178599953D01*
X237953666Y178409477D01*
X237858428Y178314239D01*
X237763190Y178266620D01*
X237572714Y178266620D01*
X237477476Y178314239D01*
X237382238Y178409477D01*
X237334619Y178599953D01*
X237334619Y178933286D01*
X237382238Y179123762D01*
X237477476Y179219000D01*
X237572714Y179266620D01*
X238429857Y178266620D02*
X238429857Y179266620D01*
X239001285Y178266620D01*
X239001285Y179266620D01*
X239477476Y178790429D02*
X239810809Y178790429D01*
X239953666Y178266620D02*
X239477476Y178266620D01*
X239477476Y179266620D01*
X239953666Y179266620D01*
X173453000Y123425000D02*
X173707000Y123425000D01*
X173072000Y123806000D02*
X174088000Y123806000D01*
X172818000Y124187000D02*
X174342000Y124187000D01*
X173580000Y125203000D02*
X173580000Y124187000D01*
X171697142Y124974286D02*
X171697142Y124288572D01*
X170497142Y124631429D02*
X171697142Y124631429D01*
X171697142Y124002858D02*
X170497142Y123202858D01*
X171697142Y123202858D02*
X170497142Y124002858D01*
X167957142Y124260000D02*
X168528571Y124660000D01*
X167957142Y124945715D02*
X169157142Y124945715D01*
X169157142Y124488572D01*
X169100000Y124374286D01*
X169042857Y124317143D01*
X168928571Y124260000D01*
X168757142Y124260000D01*
X168642857Y124317143D01*
X168585714Y124374286D01*
X168528571Y124488572D01*
X168528571Y124945715D01*
X169157142Y123860000D02*
X167957142Y123060000D01*
X169157142Y123060000D02*
X167957142Y123860000D01*
X167928571Y128257143D02*
X167528571Y128828572D01*
X167242857Y128257143D02*
X167242857Y129457143D01*
X167700000Y129457143D01*
X167814285Y129400000D01*
X167871428Y129342858D01*
X167928571Y129228572D01*
X167928571Y129057143D01*
X167871428Y128942858D01*
X167814285Y128885715D01*
X167700000Y128828572D01*
X167242857Y128828572D01*
X168442857Y128257143D02*
X168442857Y129457143D01*
X168900000Y129457143D01*
X169014285Y129400000D01*
X169071428Y129342858D01*
X169128571Y129228572D01*
X169128571Y129057143D01*
X169071428Y128942858D01*
X169014285Y128885715D01*
X168900000Y128828572D01*
X168442857Y128828572D01*
X169642857Y128257143D02*
X169642857Y129457143D01*
X171128571Y129457143D02*
X171128571Y128485715D01*
X171185714Y128371429D01*
X171242857Y128314286D01*
X171357142Y128257143D01*
X171585714Y128257143D01*
X171700000Y128314286D01*
X171757142Y128371429D01*
X171814285Y128485715D01*
X171814285Y129457143D01*
X172328571Y128600000D02*
X172900000Y128600000D01*
X172214285Y128257143D02*
X172614285Y129457143D01*
X173014285Y128257143D01*
X174100000Y128257143D02*
X173700000Y128828572D01*
X173414285Y128257143D02*
X173414285Y129457143D01*
X173871428Y129457143D01*
X173985714Y129400000D01*
X174042857Y129342858D01*
X174100000Y129228572D01*
X174100000Y129057143D01*
X174042857Y128942858D01*
X173985714Y128885715D01*
X173871428Y128828572D01*
X173414285Y128828572D01*
X174442857Y129457143D02*
X175128571Y129457143D01*
X174785714Y128257143D02*
X174785714Y129457143D01*
X-3306910Y182477000D02*
G75*
G03*
X-3306910Y182477000I-555090J0D01*
G01*
X328833Y182477000D02*
G75*
G03*
X328833Y182477000I-540833J0D01*
G01*
X74098571Y141183620D02*
X74098571Y142183620D01*
X74431904Y141469334D01*
X74765238Y142183620D01*
X74765238Y141183620D01*
X75193809Y141469334D02*
X75670000Y141469334D01*
X75098571Y141183620D02*
X75431904Y142183620D01*
X75765238Y141183620D01*
X76098571Y141183620D02*
X76098571Y142183620D01*
X76574761Y141183620D02*
X76574761Y142183620D01*
X77146190Y141183620D01*
X77146190Y142183620D01*
X78717619Y141707429D02*
X78860476Y141659810D01*
X78908095Y141612191D01*
X78955714Y141516953D01*
X78955714Y141374096D01*
X78908095Y141278858D01*
X78860476Y141231239D01*
X78765238Y141183620D01*
X78384285Y141183620D01*
X78384285Y142183620D01*
X78717619Y142183620D01*
X78812857Y142136000D01*
X78860476Y142088381D01*
X78908095Y141993143D01*
X78908095Y141897905D01*
X78860476Y141802667D01*
X78812857Y141755048D01*
X78717619Y141707429D01*
X78384285Y141707429D01*
X79574761Y142183620D02*
X79765238Y142183620D01*
X79860476Y142136000D01*
X79955714Y142040762D01*
X80003333Y141850286D01*
X80003333Y141516953D01*
X79955714Y141326477D01*
X79860476Y141231239D01*
X79765238Y141183620D01*
X79574761Y141183620D01*
X79479523Y141231239D01*
X79384285Y141326477D01*
X79336666Y141516953D01*
X79336666Y141850286D01*
X79384285Y142040762D01*
X79479523Y142136000D01*
X79574761Y142183620D01*
X80384285Y141469334D02*
X80860476Y141469334D01*
X80289047Y141183620D02*
X80622380Y142183620D01*
X80955714Y141183620D01*
X81860476Y141183620D02*
X81527142Y141659810D01*
X81289047Y141183620D02*
X81289047Y142183620D01*
X81670000Y142183620D01*
X81765238Y142136000D01*
X81812857Y142088381D01*
X81860476Y141993143D01*
X81860476Y141850286D01*
X81812857Y141755048D01*
X81765238Y141707429D01*
X81670000Y141659810D01*
X81289047Y141659810D01*
X82289047Y141183620D02*
X82289047Y142183620D01*
X82527142Y142183620D01*
X82670000Y142136000D01*
X82765238Y142040762D01*
X82812857Y141945524D01*
X82860476Y141755048D01*
X82860476Y141612191D01*
X82812857Y141421715D01*
X82765238Y141326477D01*
X82670000Y141231239D01*
X82527142Y141183620D01*
X82289047Y141183620D01*
X83908095Y142183620D02*
X84241428Y141183620D01*
X84574761Y142183620D01*
X85098571Y142183620D02*
X85193809Y142183620D01*
X85289047Y142136000D01*
X85336666Y142088381D01*
X85384285Y141993143D01*
X85431904Y141802667D01*
X85431904Y141564572D01*
X85384285Y141374096D01*
X85336666Y141278858D01*
X85289047Y141231239D01*
X85193809Y141183620D01*
X85098571Y141183620D01*
X85003333Y141231239D01*
X84955714Y141278858D01*
X84908095Y141374096D01*
X84860476Y141564572D01*
X84860476Y141802667D01*
X84908095Y141993143D01*
X84955714Y142088381D01*
X85003333Y142136000D01*
X85098571Y142183620D01*
X85860476Y141278858D02*
X85908095Y141231239D01*
X85860476Y141183620D01*
X85812857Y141231239D01*
X85860476Y141278858D01*
X85860476Y141183620D01*
X86860476Y141183620D02*
X86289047Y141183620D01*
X86574761Y141183620D02*
X86574761Y142183620D01*
X86479523Y142040762D01*
X86384285Y141945524D01*
X86289047Y141897905D01*
X87289047Y141278858D02*
X87336666Y141231239D01*
X87289047Y141183620D01*
X87241428Y141231239D01*
X87289047Y141278858D01*
X87289047Y141183620D01*
X87955714Y142183620D02*
X88050952Y142183620D01*
X88146190Y142136000D01*
X88193809Y142088381D01*
X88241428Y141993143D01*
X88289047Y141802667D01*
X88289047Y141564572D01*
X88241428Y141374096D01*
X88193809Y141278858D01*
X88146190Y141231239D01*
X88050952Y141183620D01*
X87955714Y141183620D01*
X87860476Y141231239D01*
X87812857Y141278858D01*
X87765238Y141374096D01*
X87717619Y141564572D01*
X87717619Y141802667D01*
X87765238Y141993143D01*
X87812857Y142088381D01*
X87860476Y142136000D01*
X87955714Y142183620D01*
D11*
X83756485Y129418143D02*
X83970771Y129346715D01*
X84042200Y129275286D01*
X84113628Y129132429D01*
X84113628Y128918143D01*
X84042200Y128775286D01*
X83970771Y128703858D01*
X83827914Y128632429D01*
X83256485Y128632429D01*
X83256485Y130132429D01*
X83756485Y130132429D01*
X83899342Y130061000D01*
X83970771Y129989572D01*
X84042200Y129846715D01*
X84042200Y129703858D01*
X83970771Y129561000D01*
X83899342Y129489572D01*
X83756485Y129418143D01*
X83256485Y129418143D01*
X85042200Y129346715D02*
X85042200Y128632429D01*
X84542200Y130132429D02*
X85042200Y129346715D01*
X85542200Y130132429D01*
X87685057Y129418143D02*
X87899342Y129346715D01*
X87970771Y129275286D01*
X88042200Y129132429D01*
X88042200Y128918143D01*
X87970771Y128775286D01*
X87899342Y128703858D01*
X87756485Y128632429D01*
X87185057Y128632429D01*
X87185057Y130132429D01*
X87685057Y130132429D01*
X87827914Y130061000D01*
X87899342Y129989572D01*
X87970771Y129846715D01*
X87970771Y129703858D01*
X87899342Y129561000D01*
X87827914Y129489572D01*
X87685057Y129418143D01*
X87185057Y129418143D01*
X88685057Y128632429D02*
X88685057Y130132429D01*
X89185057Y130132429D02*
X90042200Y130132429D01*
X89613628Y128632429D02*
X89613628Y130132429D01*
X91042200Y129418143D02*
X90542200Y129418143D01*
X90542200Y128632429D02*
X90542200Y130132429D01*
X91256485Y130132429D01*
X91827914Y128632429D02*
X91827914Y130132429D01*
X92542200Y129418143D02*
X93042200Y129418143D01*
X93256485Y128632429D02*
X92542200Y128632429D01*
X92542200Y130132429D01*
X93256485Y130132429D01*
X94613628Y128632429D02*
X93899342Y128632429D01*
X93899342Y130132429D01*
X95113628Y128632429D02*
X95113628Y130132429D01*
X95470771Y130132429D01*
X95685057Y130061000D01*
X95827914Y129918143D01*
X95899342Y129775286D01*
X95970771Y129489572D01*
X95970771Y129275286D01*
X95899342Y128989572D01*
X95827914Y128846715D01*
X95685057Y128703858D01*
X95470771Y128632429D01*
X95113628Y128632429D01*
X97685057Y129061000D02*
X98399342Y129061000D01*
X97542200Y128632429D02*
X98042200Y130132429D01*
X98542200Y128632429D01*
X99042200Y130132429D02*
X99042200Y128918143D01*
X99113628Y128775286D01*
X99185057Y128703858D01*
X99327914Y128632429D01*
X99613628Y128632429D01*
X99756485Y128703858D01*
X99827914Y128775286D01*
X99899342Y128918143D01*
X99899342Y130132429D01*
X100613628Y128632429D02*
X100613628Y130132429D01*
X100970771Y130132429D01*
X101185057Y130061000D01*
X101327914Y129918143D01*
X101399342Y129775286D01*
X101470771Y129489572D01*
X101470771Y129275286D01*
X101399342Y128989572D01*
X101327914Y128846715D01*
X101185057Y128703858D01*
X100970771Y128632429D01*
X100613628Y128632429D01*
X102113628Y128632429D02*
X102113628Y130132429D01*
X103113628Y130132429D02*
X103399342Y130132429D01*
X103542200Y130061000D01*
X103685057Y129918143D01*
X103756485Y129632429D01*
X103756485Y129132429D01*
X103685057Y128846715D01*
X103542200Y128703858D01*
X103399342Y128632429D01*
X103113628Y128632429D01*
X102970771Y128703858D01*
X102827914Y128846715D01*
X102756485Y129132429D01*
X102756485Y129632429D01*
X102827914Y129918143D01*
X102970771Y130061000D01*
X103113628Y130132429D01*
D10*
X-212000Y182727000D02*
X-212000Y182227000D01*
X-462000Y182477000D02*
X38000Y182477000D01*
X-4112000Y182477000D02*
X-3612000Y182477000D01*
X-2537000Y182477000D02*
X-3306910Y182477000D01*
X-1937000Y182477000D02*
X-787000Y182477000D01*
D12*
X-1817000Y182477000D02*
G75*
G03*
X-1817000Y182477000I-120000J0D01*
G01*
D10*
X-1437000Y182227000D02*
G75*
G02*
X-1437000Y182727000I-500000J250000D01*
G01*
X-4596524Y185199620D02*
X-4406048Y185199620D01*
X-4310810Y185247239D01*
X-4263191Y185294858D01*
X-4167953Y185437715D01*
X-4120334Y185628191D01*
X-4120334Y186009143D01*
X-4167953Y186104381D01*
X-4215572Y186152000D01*
X-4310810Y186199620D01*
X-4501286Y186199620D01*
X-4596524Y186152000D01*
X-4644143Y186104381D01*
X-4691762Y186009143D01*
X-4691762Y185771048D01*
X-4644143Y185675810D01*
X-4596524Y185628191D01*
X-4501286Y185580572D01*
X-4310810Y185580572D01*
X-4215572Y185628191D01*
X-4167953Y185675810D01*
X-4120334Y185771048D01*
X-3691762Y185580572D02*
X-2929858Y185580572D01*
X-2501286Y186104381D02*
X-2453667Y186152000D01*
X-2358429Y186199620D01*
X-2120334Y186199620D01*
X-2025096Y186152000D01*
X-1977477Y186104381D01*
X-1929858Y186009143D01*
X-1929858Y185913905D01*
X-1977477Y185771048D01*
X-2548905Y185199620D01*
X-1929858Y185199620D01*
X-1072715Y185866286D02*
X-1072715Y185199620D01*
X-1310810Y186247239D02*
X-1548905Y185532953D01*
X-929858Y185532953D01*
X-691762Y186199620D02*
X-358429Y185199620D01*
X-25096Y186199620D01*
X308238Y185723429D02*
X1070142Y185723429D01*
X1070142Y185437715D02*
X308238Y185437715D01*
X-3596524Y184454381D02*
X-3548905Y184502000D01*
X-3453667Y184549620D01*
X-3215572Y184549620D01*
X-3120334Y184502000D01*
X-3072715Y184454381D01*
X-3025096Y184359143D01*
X-3025096Y184263905D01*
X-3072715Y184121048D01*
X-3644143Y183549620D01*
X-3025096Y183549620D01*
X-2596524Y183644858D02*
X-2548905Y183597239D01*
X-2596524Y183549620D01*
X-2644143Y183597239D01*
X-2596524Y183644858D01*
X-2596524Y183549620D01*
X-1644143Y184549620D02*
X-2120334Y184549620D01*
X-2167953Y184073429D01*
X-2120334Y184121048D01*
X-2025096Y184168667D01*
X-1787000Y184168667D01*
X-1691762Y184121048D01*
X-1644143Y184073429D01*
X-1596524Y183978191D01*
X-1596524Y183740096D01*
X-1644143Y183644858D01*
X-1691762Y183597239D01*
X-1787000Y183549620D01*
X-2025096Y183549620D01*
X-2120334Y183597239D01*
X-2167953Y183644858D01*
X-453667Y183835334D02*
X22523Y183835334D01*
X-548905Y183549620D02*
X-215572Y184549620D01*
X117761Y183549620D01*
X10647095Y185567620D02*
X10647095Y184758096D01*
X10694714Y184662858D01*
X10742333Y184615239D01*
X10837571Y184567620D01*
X11028047Y184567620D01*
X11123285Y184615239D01*
X11170904Y184662858D01*
X11218523Y184758096D01*
X11218523Y185567620D01*
X11647095Y184615239D02*
X11789952Y184567620D01*
X12028047Y184567620D01*
X12123285Y184615239D01*
X12170904Y184662858D01*
X12218523Y184758096D01*
X12218523Y184853334D01*
X12170904Y184948572D01*
X12123285Y184996191D01*
X12028047Y185043810D01*
X11837571Y185091429D01*
X11742333Y185139048D01*
X11694714Y185186667D01*
X11647095Y185281905D01*
X11647095Y185377143D01*
X11694714Y185472381D01*
X11742333Y185520000D01*
X11837571Y185567620D01*
X12075666Y185567620D01*
X12218523Y185520000D01*
X12980428Y185091429D02*
X13123285Y185043810D01*
X13170904Y184996191D01*
X13218523Y184900953D01*
X13218523Y184758096D01*
X13170904Y184662858D01*
X13123285Y184615239D01*
X13028047Y184567620D01*
X12647095Y184567620D01*
X12647095Y185567620D01*
X12980428Y185567620D01*
X13075666Y185520000D01*
X13123285Y185472381D01*
X13170904Y185377143D01*
X13170904Y185281905D01*
X13123285Y185186667D01*
X13075666Y185139048D01*
X12980428Y185091429D01*
X12647095Y185091429D01*
X154302380Y185197620D02*
X153826190Y185197620D01*
X153826190Y186197620D01*
X154635714Y185197620D02*
X154635714Y186197620D01*
X155111904Y185197620D02*
X155111904Y186197620D01*
X155683333Y185197620D01*
X155683333Y186197620D01*
X156159523Y185721429D02*
X156492857Y185721429D01*
X156635714Y185197620D02*
X156159523Y185197620D01*
X156159523Y186197620D01*
X156635714Y186197620D01*
X157826190Y185197620D02*
X157826190Y186197620D01*
X158302380Y185197620D02*
X158302380Y186197620D01*
X158873809Y185197620D01*
X158873809Y186197620D01*
X138360714Y185172620D02*
X137884523Y185172620D01*
X137884523Y186172620D01*
X138694047Y185172620D02*
X138694047Y186172620D01*
X139170238Y185172620D02*
X139170238Y186172620D01*
X139741666Y185172620D01*
X139741666Y186172620D01*
X140217857Y185696429D02*
X140551190Y185696429D01*
X140694047Y185172620D02*
X140217857Y185172620D01*
X140217857Y186172620D01*
X140694047Y186172620D01*
X142075000Y186172620D02*
X142265476Y186172620D01*
X142360714Y186125000D01*
X142455952Y186029762D01*
X142503571Y185839286D01*
X142503571Y185505953D01*
X142455952Y185315477D01*
X142360714Y185220239D01*
X142265476Y185172620D01*
X142075000Y185172620D01*
X141979761Y185220239D01*
X141884523Y185315477D01*
X141836904Y185505953D01*
X141836904Y185839286D01*
X141884523Y186029762D01*
X141979761Y186125000D01*
X142075000Y186172620D01*
X142932142Y186172620D02*
X142932142Y185363096D01*
X142979761Y185267858D01*
X143027380Y185220239D01*
X143122619Y185172620D01*
X143313095Y185172620D01*
X143408333Y185220239D01*
X143455952Y185267858D01*
X143503571Y185363096D01*
X143503571Y186172620D01*
X143836904Y186172620D02*
X144408333Y186172620D01*
X144122619Y185172620D02*
X144122619Y186172620D01*
X119808333Y185097620D02*
X119808333Y186097620D01*
X119808333Y185621429D02*
X120379761Y185621429D01*
X120379761Y185097620D02*
X120379761Y186097620D01*
X120855952Y185621429D02*
X121189285Y185621429D01*
X121332142Y185097620D02*
X120855952Y185097620D01*
X120855952Y186097620D01*
X121332142Y186097620D01*
X121713095Y185383334D02*
X122189285Y185383334D01*
X121617857Y185097620D02*
X121951190Y186097620D01*
X122284523Y185097620D01*
X122617857Y185097620D02*
X122617857Y186097620D01*
X122855952Y186097620D01*
X122998809Y186050000D01*
X123094047Y185954762D01*
X123141666Y185859524D01*
X123189285Y185669048D01*
X123189285Y185526191D01*
X123141666Y185335715D01*
X123094047Y185240477D01*
X122998809Y185145239D01*
X122855952Y185097620D01*
X122617857Y185097620D01*
X123617857Y185097620D02*
X123617857Y186097620D01*
X123998809Y186097620D01*
X124094047Y186050000D01*
X124141666Y186002381D01*
X124189285Y185907143D01*
X124189285Y185764286D01*
X124141666Y185669048D01*
X124094047Y185621429D01*
X123998809Y185573810D01*
X123617857Y185573810D01*
X124617857Y185097620D02*
X124617857Y186097620D01*
X124617857Y185621429D02*
X125189285Y185621429D01*
X125189285Y185097620D02*
X125189285Y186097620D01*
X125855952Y186097620D02*
X126046428Y186097620D01*
X126141666Y186050000D01*
X126236904Y185954762D01*
X126284523Y185764286D01*
X126284523Y185430953D01*
X126236904Y185240477D01*
X126141666Y185145239D01*
X126046428Y185097620D01*
X125855952Y185097620D01*
X125760714Y185145239D01*
X125665476Y185240477D01*
X125617857Y185430953D01*
X125617857Y185764286D01*
X125665476Y185954762D01*
X125760714Y186050000D01*
X125855952Y186097620D01*
X126713095Y185097620D02*
X126713095Y186097620D01*
X127284523Y185097620D01*
X127284523Y186097620D01*
X127760714Y185621429D02*
X128094047Y185621429D01*
X128236904Y185097620D02*
X127760714Y185097620D01*
X127760714Y186097620D01*
X128236904Y186097620D01*
X128617857Y185145239D02*
X128760714Y185097620D01*
X128998809Y185097620D01*
X129094047Y185145239D01*
X129141666Y185192858D01*
X129189285Y185288096D01*
X129189285Y185383334D01*
X129141666Y185478572D01*
X129094047Y185526191D01*
X128998809Y185573810D01*
X128808333Y185621429D01*
X128713095Y185669048D01*
X128665476Y185716667D01*
X128617857Y185811905D01*
X128617857Y185907143D01*
X128665476Y186002381D01*
X128713095Y186050000D01*
X128808333Y186097620D01*
X129046428Y186097620D01*
X129189285Y186050000D01*
X51390476Y181522620D02*
X51390476Y182522620D01*
X51723809Y181808334D01*
X52057142Y182522620D01*
X52057142Y181522620D01*
X52533333Y181522620D02*
X52533333Y182522620D01*
X53009523Y181522620D02*
X53009523Y182522620D01*
X53247619Y182522620D01*
X53390476Y182475000D01*
X53485714Y182379762D01*
X53533333Y182284524D01*
X53580952Y182094048D01*
X53580952Y181951191D01*
X53533333Y181760715D01*
X53485714Y181665477D01*
X53390476Y181570239D01*
X53247619Y181522620D01*
X53009523Y181522620D01*
X54009523Y181522620D02*
X54009523Y182522620D01*
X51700000Y180872620D02*
X51890476Y180872620D01*
X51985714Y180825000D01*
X52080952Y180729762D01*
X52128571Y180539286D01*
X52128571Y180205953D01*
X52080952Y180015477D01*
X51985714Y179920239D01*
X51890476Y179872620D01*
X51700000Y179872620D01*
X51604761Y179920239D01*
X51509523Y180015477D01*
X51461904Y180205953D01*
X51461904Y180539286D01*
X51509523Y180729762D01*
X51604761Y180825000D01*
X51700000Y180872620D01*
X52557142Y180872620D02*
X52557142Y180063096D01*
X52604761Y179967858D01*
X52652380Y179920239D01*
X52747619Y179872620D01*
X52938095Y179872620D01*
X53033333Y179920239D01*
X53080952Y179967858D01*
X53128571Y180063096D01*
X53128571Y180872620D01*
X53461904Y180872620D02*
X54033333Y180872620D01*
X53747619Y179872620D02*
X53747619Y180872620D01*
X39390476Y181272620D02*
X39390476Y182272620D01*
X39723809Y181558334D01*
X40057142Y182272620D01*
X40057142Y181272620D01*
X40533333Y181272620D02*
X40533333Y182272620D01*
X41009523Y181272620D02*
X41009523Y182272620D01*
X41247619Y182272620D01*
X41390476Y182225000D01*
X41485714Y182129762D01*
X41533333Y182034524D01*
X41580952Y181844048D01*
X41580952Y181701191D01*
X41533333Y181510715D01*
X41485714Y181415477D01*
X41390476Y181320239D01*
X41247619Y181272620D01*
X41009523Y181272620D01*
X42009523Y181272620D02*
X42009523Y182272620D01*
X38866666Y180622620D02*
X39438095Y180622620D01*
X39152380Y179622620D02*
X39152380Y180622620D01*
X39771428Y179622620D02*
X39771428Y180622620D01*
X39771428Y180146429D02*
X40342857Y180146429D01*
X40342857Y179622620D02*
X40342857Y180622620D01*
X41390476Y179622620D02*
X41057142Y180098810D01*
X40819047Y179622620D02*
X40819047Y180622620D01*
X41200000Y180622620D01*
X41295238Y180575000D01*
X41342857Y180527381D01*
X41390476Y180432143D01*
X41390476Y180289286D01*
X41342857Y180194048D01*
X41295238Y180146429D01*
X41200000Y180098810D01*
X40819047Y180098810D01*
X41819047Y180622620D02*
X41819047Y179813096D01*
X41866666Y179717858D01*
X41914285Y179670239D01*
X42009523Y179622620D01*
X42200000Y179622620D01*
X42295238Y179670239D01*
X42342857Y179717858D01*
X42390476Y179813096D01*
X42390476Y180622620D01*
X27390476Y181522620D02*
X27390476Y182522620D01*
X27723809Y181808334D01*
X28057142Y182522620D01*
X28057142Y181522620D01*
X28533333Y181522620D02*
X28533333Y182522620D01*
X29009523Y181522620D02*
X29009523Y182522620D01*
X29247619Y182522620D01*
X29390476Y182475000D01*
X29485714Y182379762D01*
X29533333Y182284524D01*
X29580952Y182094048D01*
X29580952Y181951191D01*
X29533333Y181760715D01*
X29485714Y181665477D01*
X29390476Y181570239D01*
X29247619Y181522620D01*
X29009523Y181522620D01*
X30009523Y181522620D02*
X30009523Y182522620D01*
X28176190Y179872620D02*
X28176190Y180872620D01*
X28652380Y179872620D02*
X28652380Y180872620D01*
X29223809Y179872620D01*
X29223809Y180872620D01*
X33191904Y157457620D02*
X33191904Y156743334D01*
X33144285Y156600477D01*
X33049047Y156505239D01*
X32906190Y156457620D01*
X32810952Y156457620D01*
X33525238Y157457620D02*
X34096666Y157457620D01*
X33810952Y156457620D02*
X33810952Y157457620D01*
X34382380Y156743334D02*
X34858571Y156743334D01*
X34287142Y156457620D02*
X34620476Y157457620D01*
X34953809Y156457620D01*
X35810952Y157410000D02*
X35715714Y157457620D01*
X35572857Y157457620D01*
X35430000Y157410000D01*
X35334761Y157314762D01*
X35287142Y157219524D01*
X35239523Y157029048D01*
X35239523Y156886191D01*
X35287142Y156695715D01*
X35334761Y156600477D01*
X35430000Y156505239D01*
X35572857Y156457620D01*
X35668095Y156457620D01*
X35810952Y156505239D01*
X35858571Y156552858D01*
X35858571Y156886191D01*
X35668095Y156886191D01*
X37001428Y157505239D02*
X36144285Y156219524D01*
X37287142Y156505239D02*
X37430000Y156457620D01*
X37668095Y156457620D01*
X37763333Y156505239D01*
X37810952Y156552858D01*
X37858571Y156648096D01*
X37858571Y156743334D01*
X37810952Y156838572D01*
X37763333Y156886191D01*
X37668095Y156933810D01*
X37477619Y156981429D01*
X37382380Y157029048D01*
X37334761Y157076667D01*
X37287142Y157171905D01*
X37287142Y157267143D01*
X37334761Y157362381D01*
X37382380Y157410000D01*
X37477619Y157457620D01*
X37715714Y157457620D01*
X37858571Y157410000D01*
X38191904Y157457620D02*
X38430000Y156457620D01*
X38620476Y157171905D01*
X38810952Y156457620D01*
X39049047Y157457620D01*
X39430000Y156457620D02*
X39430000Y157457620D01*
X39668095Y157457620D01*
X39810952Y157410000D01*
X39906190Y157314762D01*
X39953809Y157219524D01*
X40001428Y157029048D01*
X40001428Y156886191D01*
X39953809Y156695715D01*
X39906190Y156600477D01*
X39810952Y156505239D01*
X39668095Y156457620D01*
X39430000Y156457620D01*
D11*
X97991247Y131853858D02*
X98276961Y131758620D01*
X98372200Y131663381D01*
X98467438Y131472905D01*
X98467438Y131187191D01*
X98372200Y130996715D01*
X98276961Y130901477D01*
X98086485Y130806239D01*
X97324580Y130806239D01*
X97324580Y132806239D01*
X97991247Y132806239D01*
X98181723Y132711000D01*
X98276961Y132615762D01*
X98372200Y132425286D01*
X98372200Y132234810D01*
X98276961Y132044334D01*
X98181723Y131949096D01*
X97991247Y131853858D01*
X97324580Y131853858D01*
X99324580Y131853858D02*
X99991247Y131853858D01*
X100276961Y130806239D02*
X99324580Y130806239D01*
X99324580Y132806239D01*
X100276961Y132806239D01*
X100848390Y132806239D02*
X101991247Y132806239D01*
X101419819Y130806239D02*
X101419819Y132806239D01*
X102562676Y131377667D02*
X103515057Y131377667D01*
X102372200Y130806239D02*
X103038866Y132806239D01*
X103705533Y130806239D01*
D13*
X174910000Y125270000D02*
X174910000Y127930000D01*
X169770000Y125270000D02*
X174910000Y125270000D01*
X169770000Y127930000D02*
X174910000Y127930000D01*
X169770000Y125270000D02*
X169770000Y127930000D01*
X168500000Y125270000D02*
X167170000Y125270000D01*
X167170000Y125270000D02*
X167170000Y126600000D01*
D10*
X238570000Y182700000D02*
G75*
G03*
X238570000Y182700000I-3000000J0D01*
G01*
D14*
X234520000Y181650000D02*
X233520000Y180650000D01*
D10*
X225310913Y173003553D02*
X228846447Y176539087D01*
X227962563Y169644796D02*
X226194796Y171412563D01*
X233089087Y172296447D02*
X229553553Y168760913D01*
X230437437Y175655204D02*
X232205204Y173887437D01*
X243310913Y173003553D02*
X246846447Y176539087D01*
X245962563Y169644796D02*
X244194796Y171412563D01*
X251089087Y172296447D02*
X247553553Y168760913D01*
X248437437Y175655204D02*
X250205204Y173887437D01*
X177310913Y173003553D02*
X180846447Y176539087D01*
X179962563Y169644796D02*
X178194796Y171412563D01*
X185089087Y172296447D02*
X181553553Y168760913D01*
X182437437Y175655204D02*
X184205204Y173887437D01*
X189310913Y173003553D02*
X192846447Y176539087D01*
X191962563Y169644796D02*
X190194796Y171412563D01*
X197089087Y172296447D02*
X193553553Y168760913D01*
X194437437Y175655204D02*
X196205204Y173887437D01*
X201310913Y173003553D02*
X204846447Y176539087D01*
X203962563Y169644796D02*
X202194796Y171412563D01*
X209089087Y172296447D02*
X205553553Y168760913D01*
X206437437Y175655204D02*
X208205204Y173887437D01*
X213310913Y173003553D02*
X216846447Y176539087D01*
X215962563Y169644796D02*
X214194796Y171412563D01*
X221089087Y172296447D02*
X217553553Y168760913D01*
X218437437Y175655204D02*
X220205204Y173887437D01*
X255310913Y173003553D02*
X258846447Y176539087D01*
X257962563Y169644796D02*
X256194796Y171412563D01*
X263089087Y172296447D02*
X259553553Y168760913D01*
X260437437Y175655204D02*
X262205204Y173887437D01*
X255310913Y161003553D02*
X258846447Y164539087D01*
X257962563Y157644796D02*
X256194796Y159412563D01*
X263089087Y160296447D02*
X259553553Y156760913D01*
X260437437Y163655204D02*
X262205204Y161887437D01*
X243310913Y161003553D02*
X246846447Y164539087D01*
X245962563Y157644796D02*
X244194796Y159412563D01*
X251089087Y160296447D02*
X247553553Y156760913D01*
X248437437Y163655204D02*
X250205204Y161887437D01*
X225310913Y161003553D02*
X228846447Y164539087D01*
X227962563Y157644796D02*
X226194796Y159412563D01*
X233089087Y160296447D02*
X229553553Y156760913D01*
X230437437Y163655204D02*
X232205204Y161887437D01*
X213310913Y161003553D02*
X216846447Y164539087D01*
X215962563Y157644796D02*
X214194796Y159412563D01*
X221089087Y160296447D02*
X217553553Y156760913D01*
X218437437Y163655204D02*
X220205204Y161887437D01*
X201310913Y161003553D02*
X204846447Y164539087D01*
X203962563Y157644796D02*
X202194796Y159412563D01*
X209089087Y160296447D02*
X205553553Y156760913D01*
X206437437Y163655204D02*
X208205204Y161887437D01*
X189310913Y161003553D02*
X192846447Y164539087D01*
X191962563Y157644796D02*
X190194796Y159412563D01*
X197089087Y160296447D02*
X193553553Y156760913D01*
X194437437Y163655204D02*
X196205204Y161887437D01*
X177310913Y161003553D02*
X180846447Y164539087D01*
X179962563Y157644796D02*
X178194796Y159412563D01*
X185089087Y160296447D02*
X181553553Y156760913D01*
X182437437Y163655204D02*
X184205204Y161887437D01*
X255310913Y149003553D02*
X258846447Y152539087D01*
X257962563Y145644796D02*
X256194796Y147412563D01*
X263089087Y148296447D02*
X259553553Y144760913D01*
X260437437Y151655204D02*
X262205204Y149887437D01*
X243310913Y149003553D02*
X246846447Y152539087D01*
X245962563Y145644796D02*
X244194796Y147412563D01*
X251089087Y148296447D02*
X247553553Y144760913D01*
X248437437Y151655204D02*
X250205204Y149887437D01*
X225310913Y149003553D02*
X228846447Y152539087D01*
X227962563Y145644796D02*
X226194796Y147412563D01*
X233089087Y148296447D02*
X229553553Y144760913D01*
X230437437Y151655204D02*
X232205204Y149887437D01*
X213310913Y149003553D02*
X216846447Y152539087D01*
X215962563Y145644796D02*
X214194796Y147412563D01*
X221089087Y148296447D02*
X217553553Y144760913D01*
X218437437Y151655204D02*
X220205204Y149887437D01*
X201310913Y149003553D02*
X204846447Y152539087D01*
X203962563Y145644796D02*
X202194796Y147412563D01*
X209089087Y148296447D02*
X205553553Y144760913D01*
X206437437Y151655204D02*
X208205204Y149887437D01*
X189310913Y149003553D02*
X192846447Y152539087D01*
X191962563Y145644796D02*
X190194796Y147412563D01*
X197089087Y148296447D02*
X193553553Y144760913D01*
X194437437Y151655204D02*
X196205204Y149887437D01*
X177310913Y149003553D02*
X180846447Y152539087D01*
X179962563Y145644796D02*
X178194796Y147412563D01*
X185089087Y148296447D02*
X181553553Y144760913D01*
X182437437Y151655204D02*
X184205204Y149887437D01*
X255310913Y137003553D02*
X258846447Y140539087D01*
X257962563Y133644796D02*
X256194796Y135412563D01*
X263089087Y136296447D02*
X259553553Y132760913D01*
X260437437Y139655204D02*
X262205204Y137887437D01*
X243310913Y137003553D02*
X246846447Y140539087D01*
X245962563Y133644796D02*
X244194796Y135412563D01*
X251089087Y136296447D02*
X247553553Y132760913D01*
X248437437Y139655204D02*
X250205204Y137887437D01*
X225310913Y137003553D02*
X228846447Y140539087D01*
X227962563Y133644796D02*
X226194796Y135412563D01*
X233089087Y136296447D02*
X229553553Y132760913D01*
X230437437Y139655204D02*
X232205204Y137887437D01*
X213310913Y137003553D02*
X216846447Y140539087D01*
X215962563Y133644796D02*
X214194796Y135412563D01*
X221089087Y136296447D02*
X217553553Y132760913D01*
X218437437Y139655204D02*
X220205204Y137887437D01*
X201310913Y137003553D02*
X204846447Y140539087D01*
X203962563Y133644796D02*
X202194796Y135412563D01*
X209089087Y136296447D02*
X205553553Y132760913D01*
X206437437Y139655204D02*
X208205204Y137887437D01*
X189310913Y137003553D02*
X192846447Y140539087D01*
X191962563Y133644796D02*
X190194796Y135412563D01*
X197089087Y136296447D02*
X193553553Y132760913D01*
X194437437Y139655204D02*
X196205204Y137887437D01*
X177310913Y137003553D02*
X180846447Y140539087D01*
X179962563Y133644796D02*
X178194796Y135412563D01*
X185089087Y136296447D02*
X181553553Y132760913D01*
X182437437Y139655204D02*
X184205204Y137887437D01*
D13*
X-18400000Y126675000D02*
X-16940000Y126675000D01*
X-21060000Y120325000D02*
X-21060000Y120265000D01*
X-21060000Y126735000D02*
X-21060000Y126675000D01*
X-21060000Y120265000D02*
X-18400000Y120265000D01*
X-18400000Y120325000D02*
X-18400000Y120265000D01*
X-18400000Y126735000D02*
X-18400000Y126675000D01*
X-21060000Y126735000D02*
X-18400000Y126735000D01*
D15*
G36*
X99267069Y140552072D02*
G01*
X99316175Y140546895D01*
X99377143Y140538677D01*
X99454374Y140527298D01*
X99469438Y140525041D01*
X99550662Y140508752D01*
X99635294Y140484795D01*
X99712310Y140456410D01*
X99730664Y140448269D01*
X99758638Y140435837D01*
X99777563Y140428463D01*
X99781160Y140427588D01*
X99792694Y140422597D01*
X99818234Y140409299D01*
X99853008Y140390209D01*
X99866394Y140382672D01*
X99986772Y140305345D01*
X100102488Y140213623D01*
X100207067Y140112960D01*
X100264060Y140047727D01*
X100303173Y139999240D01*
X100330547Y139964758D01*
X100348204Y139941546D01*
X100358168Y139926871D01*
X100362462Y139917997D01*
X100363177Y139913781D01*
X100369774Y139898220D01*
X100378363Y139886693D01*
X100391154Y139867931D01*
X100408675Y139837103D01*
X100422597Y139809995D01*
X100440176Y139774425D01*
X100455347Y139744266D01*
X100462805Y139729870D01*
X100476194Y139699799D01*
X100492228Y139656505D01*
X100508275Y139607785D01*
X100521706Y139561435D01*
X100527170Y139539121D01*
X100535745Y139501497D01*
X100546788Y139454671D01*
X100555185Y139419937D01*
X100560714Y139385291D01*
X100565326Y139332449D01*
X100569018Y139264760D01*
X100571790Y139185569D01*
X100573640Y139098225D01*
X100574565Y139006075D01*
X100574565Y138912466D01*
X100573638Y138820744D01*
X100571783Y138734259D01*
X100568996Y138656356D01*
X100565279Y138590383D01*
X100560627Y138539687D01*
X100555619Y138509800D01*
X100544340Y138463964D01*
X100533468Y138418260D01*
X100527154Y138390615D01*
X100486755Y138255225D01*
X100426791Y138121587D01*
X100349356Y137992213D01*
X100256543Y137869616D01*
X100150443Y137756310D01*
X100033150Y137654804D01*
X99906756Y137567614D01*
X99789069Y137504445D01*
X99736941Y137480539D01*
X99692009Y137461386D01*
X99650034Y137445789D01*
X99606775Y137432547D01*
X99557991Y137420463D01*
X99499441Y137408338D01*
X99426884Y137394974D01*
X99361088Y137383479D01*
X99312637Y137377856D01*
X99251475Y137374658D01*
X99185202Y137373901D01*
X99121419Y137375602D01*
X99067726Y137379776D01*
X99046874Y137382826D01*
X99012869Y137388946D01*
X98968137Y137396812D01*
X98929652Y137403467D01*
X98885335Y137412800D01*
X98832453Y137426510D01*
X98777588Y137442610D01*
X98727321Y137459114D01*
X98688233Y137474033D01*
X98674531Y137480494D01*
X98656183Y137489738D01*
X98624910Y137504965D01*
X98587393Y137522923D01*
X98586388Y137523399D01*
X98454466Y137597131D01*
X98328247Y137689333D01*
X98210779Y137796969D01*
X98105107Y137917003D01*
X98014277Y138046398D01*
X97955510Y138152246D01*
X97926099Y138217272D01*
X97898653Y138287502D01*
X97875608Y138355986D01*
X97859403Y138415774D01*
X97854765Y138439372D01*
X97849019Y138472581D01*
X97840825Y138517098D01*
X97832438Y138560809D01*
X97827283Y138595205D01*
X97823283Y138641136D01*
X97820355Y138700718D01*
X97818417Y138776066D01*
X97817388Y138869297D01*
X97817164Y138956285D01*
X97817313Y139050486D01*
X97817856Y139126545D01*
X97818996Y139187990D01*
X97820938Y139238348D01*
X97823883Y139281147D01*
X97828035Y139319914D01*
X97833598Y139358176D01*
X97840775Y139399461D01*
X97843563Y139414519D01*
X97859208Y139494647D01*
X97873842Y139559327D01*
X97889431Y139614575D01*
X97907940Y139666409D01*
X97931332Y139720846D01*
X97961574Y139783901D01*
X97969158Y139799160D01*
X98016745Y139885513D01*
X98072070Y139967354D01*
X98113986Y140021277D01*
X98156011Y140069856D01*
X98205573Y140122101D01*
X98258345Y140173899D01*
X98309999Y140221137D01*
X98356207Y140259703D01*
X98390890Y140284421D01*
X98415520Y140299806D01*
X98449333Y140321240D01*
X98472621Y140336134D01*
X98506435Y140356474D01*
X98547894Y140378632D01*
X98600531Y140404368D01*
X98667880Y140435439D01*
X98710990Y140454781D01*
X98782056Y140480949D01*
X98872914Y140504863D01*
X98984292Y140526700D01*
X99045305Y140536503D01*
X99101168Y140544748D01*
X99146872Y140550546D01*
X99186821Y140553778D01*
X99225419Y140554327D01*
X99267069Y140552072D01*
G37*
X99267069Y140552072D02*
X99316175Y140546895D01*
X99377143Y140538677D01*
X99454374Y140527298D01*
X99469438Y140525041D01*
X99550662Y140508752D01*
X99635294Y140484795D01*
X99712310Y140456410D01*
X99730664Y140448269D01*
X99758638Y140435837D01*
X99777563Y140428463D01*
X99781160Y140427588D01*
X99792694Y140422597D01*
X99818234Y140409299D01*
X99853008Y140390209D01*
X99866394Y140382672D01*
X99986772Y140305345D01*
X100102488Y140213623D01*
X100207067Y140112960D01*
X100264060Y140047727D01*
X100303173Y139999240D01*
X100330547Y139964758D01*
X100348204Y139941546D01*
X100358168Y139926871D01*
X100362462Y139917997D01*
X100363177Y139913781D01*
X100369774Y139898220D01*
X100378363Y139886693D01*
X100391154Y139867931D01*
X100408675Y139837103D01*
X100422597Y139809995D01*
X100440176Y139774425D01*
X100455347Y139744266D01*
X100462805Y139729870D01*
X100476194Y139699799D01*
X100492228Y139656505D01*
X100508275Y139607785D01*
X100521706Y139561435D01*
X100527170Y139539121D01*
X100535745Y139501497D01*
X100546788Y139454671D01*
X100555185Y139419937D01*
X100560714Y139385291D01*
X100565326Y139332449D01*
X100569018Y139264760D01*
X100571790Y139185569D01*
X100573640Y139098225D01*
X100574565Y139006075D01*
X100574565Y138912466D01*
X100573638Y138820744D01*
X100571783Y138734259D01*
X100568996Y138656356D01*
X100565279Y138590383D01*
X100560627Y138539687D01*
X100555619Y138509800D01*
X100544340Y138463964D01*
X100533468Y138418260D01*
X100527154Y138390615D01*
X100486755Y138255225D01*
X100426791Y138121587D01*
X100349356Y137992213D01*
X100256543Y137869616D01*
X100150443Y137756310D01*
X100033150Y137654804D01*
X99906756Y137567614D01*
X99789069Y137504445D01*
X99736941Y137480539D01*
X99692009Y137461386D01*
X99650034Y137445789D01*
X99606775Y137432547D01*
X99557991Y137420463D01*
X99499441Y137408338D01*
X99426884Y137394974D01*
X99361088Y137383479D01*
X99312637Y137377856D01*
X99251475Y137374658D01*
X99185202Y137373901D01*
X99121419Y137375602D01*
X99067726Y137379776D01*
X99046874Y137382826D01*
X99012869Y137388946D01*
X98968137Y137396812D01*
X98929652Y137403467D01*
X98885335Y137412800D01*
X98832453Y137426510D01*
X98777588Y137442610D01*
X98727321Y137459114D01*
X98688233Y137474033D01*
X98674531Y137480494D01*
X98656183Y137489738D01*
X98624910Y137504965D01*
X98587393Y137522923D01*
X98586388Y137523399D01*
X98454466Y137597131D01*
X98328247Y137689333D01*
X98210779Y137796969D01*
X98105107Y137917003D01*
X98014277Y138046398D01*
X97955510Y138152246D01*
X97926099Y138217272D01*
X97898653Y138287502D01*
X97875608Y138355986D01*
X97859403Y138415774D01*
X97854765Y138439372D01*
X97849019Y138472581D01*
X97840825Y138517098D01*
X97832438Y138560809D01*
X97827283Y138595205D01*
X97823283Y138641136D01*
X97820355Y138700718D01*
X97818417Y138776066D01*
X97817388Y138869297D01*
X97817164Y138956285D01*
X97817313Y139050486D01*
X97817856Y139126545D01*
X97818996Y139187990D01*
X97820938Y139238348D01*
X97823883Y139281147D01*
X97828035Y139319914D01*
X97833598Y139358176D01*
X97840775Y139399461D01*
X97843563Y139414519D01*
X97859208Y139494647D01*
X97873842Y139559327D01*
X97889431Y139614575D01*
X97907940Y139666409D01*
X97931332Y139720846D01*
X97961574Y139783901D01*
X97969158Y139799160D01*
X98016745Y139885513D01*
X98072070Y139967354D01*
X98113986Y140021277D01*
X98156011Y140069856D01*
X98205573Y140122101D01*
X98258345Y140173899D01*
X98309999Y140221137D01*
X98356207Y140259703D01*
X98390890Y140284421D01*
X98415520Y140299806D01*
X98449333Y140321240D01*
X98472621Y140336134D01*
X98506435Y140356474D01*
X98547894Y140378632D01*
X98600531Y140404368D01*
X98667880Y140435439D01*
X98710990Y140454781D01*
X98782056Y140480949D01*
X98872914Y140504863D01*
X98984292Y140526700D01*
X99045305Y140536503D01*
X99101168Y140544748D01*
X99146872Y140550546D01*
X99186821Y140553778D01*
X99225419Y140554327D01*
X99267069Y140552072D01*
G36*
X75402281Y140553525D02*
G01*
X75430912Y140550839D01*
X75460842Y140547157D01*
X75559691Y140533763D01*
X75641470Y140520715D01*
X75710723Y140506777D01*
X75771992Y140490710D01*
X75829820Y140471281D01*
X75888751Y140447251D01*
X75953325Y140417386D01*
X75973219Y140407720D01*
X76074539Y140350360D01*
X76177843Y140277814D01*
X76278139Y140194441D01*
X76370434Y140104600D01*
X76449736Y140012648D01*
X76490335Y139956267D01*
X76512144Y139923393D01*
X76532374Y139893137D01*
X76537731Y139885193D01*
X76572530Y139825422D01*
X76607879Y139749776D01*
X76641663Y139663885D01*
X76671768Y139573381D01*
X76696077Y139483892D01*
X76706397Y139436189D01*
X76711922Y139396243D01*
X76716904Y139338633D01*
X76721270Y139267017D01*
X76724951Y139185057D01*
X76727876Y139096414D01*
X76729973Y139004748D01*
X76731173Y138913719D01*
X76731404Y138826989D01*
X76730595Y138748217D01*
X76728676Y138681063D01*
X76725577Y138629190D01*
X76722504Y138602933D01*
X76714337Y138553742D01*
X76705132Y138498511D01*
X76699773Y138466460D01*
X76687159Y138405504D01*
X76669417Y138338177D01*
X76649235Y138273827D01*
X76629684Y138222673D01*
X76607759Y138174952D01*
X76584822Y138128616D01*
X76563648Y138088975D01*
X76547012Y138061337D01*
X76541441Y138053878D01*
X76529038Y138034548D01*
X76526400Y138024791D01*
X76519768Y138010737D01*
X76501815Y137984071D01*
X76475459Y137948522D01*
X76443615Y137907814D01*
X76409201Y137865674D01*
X76375134Y137825828D01*
X76344331Y137792003D01*
X76343500Y137791134D01*
X76289448Y137739429D01*
X76223092Y137683208D01*
X76151364Y137627857D01*
X76081195Y137578761D01*
X76027992Y137545992D01*
X75973523Y137516065D01*
X75927855Y137493349D01*
X75882584Y137474130D01*
X75829305Y137454696D01*
X75795040Y137443070D01*
X75762941Y137432873D01*
X75730541Y137423984D01*
X75693737Y137415552D01*
X75648427Y137406726D01*
X75590511Y137396654D01*
X75515885Y137384485D01*
X75502496Y137382347D01*
X75460386Y137377833D01*
X75406567Y137375162D01*
X75347361Y137374303D01*
X75289091Y137375226D01*
X75238078Y137377904D01*
X75200644Y137382305D01*
X75193700Y137383782D01*
X75162342Y137390652D01*
X75119979Y137398780D01*
X75085350Y137404800D01*
X74948393Y137437164D01*
X74809813Y137488711D01*
X74673476Y137557660D01*
X74543245Y137642228D01*
X74501456Y137673899D01*
X74388993Y137772899D01*
X74286906Y137883555D01*
X74197319Y138002691D01*
X74122357Y138127129D01*
X74064143Y138253694D01*
X74024803Y138379207D01*
X74022201Y138390615D01*
X74013579Y138428210D01*
X74002409Y138475003D01*
X73993855Y138509800D01*
X73988969Y138532712D01*
X73985043Y138559856D01*
X73981982Y138593692D01*
X73979690Y138636679D01*
X73978070Y138691278D01*
X73977026Y138759950D01*
X73976462Y138845154D01*
X73976282Y138949350D01*
X73976282Y138959451D01*
X73976364Y139061623D01*
X73976693Y139144913D01*
X73977410Y139212107D01*
X73978654Y139265993D01*
X73980565Y139309357D01*
X73983282Y139344988D01*
X73986944Y139375670D01*
X73991691Y139404193D01*
X73997664Y139433343D01*
X74000702Y139447024D01*
X74012686Y139497482D01*
X74024852Y139544111D01*
X74035383Y139580143D01*
X74039940Y139593296D01*
X74052055Y139626758D01*
X74061379Y139656638D01*
X74061821Y139658306D01*
X74076753Y139700744D01*
X74101568Y139755236D01*
X74133306Y139816377D01*
X74169012Y139878766D01*
X74205729Y139936998D01*
X74240498Y139985671D01*
X74242130Y139987754D01*
X74333476Y140093079D01*
X74435117Y140191475D01*
X74542608Y140279220D01*
X74651501Y140352592D01*
X74727796Y140394199D01*
X74807656Y140429808D01*
X74894717Y140463038D01*
X74982265Y140491669D01*
X75063586Y140513477D01*
X75123273Y140525061D01*
X75201378Y140536345D01*
X75261818Y140544684D01*
X75308360Y140550325D01*
X75344773Y140553515D01*
X75374824Y140554499D01*
X75402281Y140553525D01*
G37*
X75402281Y140553525D02*
X75430912Y140550839D01*
X75460842Y140547157D01*
X75559691Y140533763D01*
X75641470Y140520715D01*
X75710723Y140506777D01*
X75771992Y140490710D01*
X75829820Y140471281D01*
X75888751Y140447251D01*
X75953325Y140417386D01*
X75973219Y140407720D01*
X76074539Y140350360D01*
X76177843Y140277814D01*
X76278139Y140194441D01*
X76370434Y140104600D01*
X76449736Y140012648D01*
X76490335Y139956267D01*
X76512144Y139923393D01*
X76532374Y139893137D01*
X76537731Y139885193D01*
X76572530Y139825422D01*
X76607879Y139749776D01*
X76641663Y139663885D01*
X76671768Y139573381D01*
X76696077Y139483892D01*
X76706397Y139436189D01*
X76711922Y139396243D01*
X76716904Y139338633D01*
X76721270Y139267017D01*
X76724951Y139185057D01*
X76727876Y139096414D01*
X76729973Y139004748D01*
X76731173Y138913719D01*
X76731404Y138826989D01*
X76730595Y138748217D01*
X76728676Y138681063D01*
X76725577Y138629190D01*
X76722504Y138602933D01*
X76714337Y138553742D01*
X76705132Y138498511D01*
X76699773Y138466460D01*
X76687159Y138405504D01*
X76669417Y138338177D01*
X76649235Y138273827D01*
X76629684Y138222673D01*
X76607759Y138174952D01*
X76584822Y138128616D01*
X76563648Y138088975D01*
X76547012Y138061337D01*
X76541441Y138053878D01*
X76529038Y138034548D01*
X76526400Y138024791D01*
X76519768Y138010737D01*
X76501815Y137984071D01*
X76475459Y137948522D01*
X76443615Y137907814D01*
X76409201Y137865674D01*
X76375134Y137825828D01*
X76344331Y137792003D01*
X76343500Y137791134D01*
X76289448Y137739429D01*
X76223092Y137683208D01*
X76151364Y137627857D01*
X76081195Y137578761D01*
X76027992Y137545992D01*
X75973523Y137516065D01*
X75927855Y137493349D01*
X75882584Y137474130D01*
X75829305Y137454696D01*
X75795040Y137443070D01*
X75762941Y137432873D01*
X75730541Y137423984D01*
X75693737Y137415552D01*
X75648427Y137406726D01*
X75590511Y137396654D01*
X75515885Y137384485D01*
X75502496Y137382347D01*
X75460386Y137377833D01*
X75406567Y137375162D01*
X75347361Y137374303D01*
X75289091Y137375226D01*
X75238078Y137377904D01*
X75200644Y137382305D01*
X75193700Y137383782D01*
X75162342Y137390652D01*
X75119979Y137398780D01*
X75085350Y137404800D01*
X74948393Y137437164D01*
X74809813Y137488711D01*
X74673476Y137557660D01*
X74543245Y137642228D01*
X74501456Y137673899D01*
X74388993Y137772899D01*
X74286906Y137883555D01*
X74197319Y138002691D01*
X74122357Y138127129D01*
X74064143Y138253694D01*
X74024803Y138379207D01*
X74022201Y138390615D01*
X74013579Y138428210D01*
X74002409Y138475003D01*
X73993855Y138509800D01*
X73988969Y138532712D01*
X73985043Y138559856D01*
X73981982Y138593692D01*
X73979690Y138636679D01*
X73978070Y138691278D01*
X73977026Y138759950D01*
X73976462Y138845154D01*
X73976282Y138949350D01*
X73976282Y138959451D01*
X73976364Y139061623D01*
X73976693Y139144913D01*
X73977410Y139212107D01*
X73978654Y139265993D01*
X73980565Y139309357D01*
X73983282Y139344988D01*
X73986944Y139375670D01*
X73991691Y139404193D01*
X73997664Y139433343D01*
X74000702Y139447024D01*
X74012686Y139497482D01*
X74024852Y139544111D01*
X74035383Y139580143D01*
X74039940Y139593296D01*
X74052055Y139626758D01*
X74061379Y139656638D01*
X74061821Y139658306D01*
X74076753Y139700744D01*
X74101568Y139755236D01*
X74133306Y139816377D01*
X74169012Y139878766D01*
X74205729Y139936998D01*
X74240498Y139985671D01*
X74242130Y139987754D01*
X74333476Y140093079D01*
X74435117Y140191475D01*
X74542608Y140279220D01*
X74651501Y140352592D01*
X74727796Y140394199D01*
X74807656Y140429808D01*
X74894717Y140463038D01*
X74982265Y140491669D01*
X75063586Y140513477D01*
X75123273Y140525061D01*
X75201378Y140536345D01*
X75261818Y140544684D01*
X75308360Y140550325D01*
X75344773Y140553515D01*
X75374824Y140554499D01*
X75402281Y140553525D01*
G36*
X91794840Y140554588D02*
G01*
X92054434Y140554209D01*
X92293254Y140553849D01*
X92512198Y140553498D01*
X92712161Y140553148D01*
X92894040Y140552787D01*
X93058732Y140552406D01*
X93207132Y140551996D01*
X93340138Y140551547D01*
X93458646Y140551048D01*
X93563552Y140550491D01*
X93655753Y140549865D01*
X93736145Y140549161D01*
X93805624Y140548369D01*
X93865088Y140547479D01*
X93915433Y140546481D01*
X93957554Y140545366D01*
X93992350Y140544124D01*
X94020715Y140542745D01*
X94043547Y140541220D01*
X94061742Y140539538D01*
X94076196Y140537690D01*
X94087806Y140535666D01*
X94097469Y140533456D01*
X94106080Y140531051D01*
X94111548Y140529376D01*
X94199752Y140492779D01*
X94270632Y140443213D01*
X94324473Y140380339D01*
X94361560Y140303818D01*
X94382178Y140213311D01*
X94383015Y140206416D01*
X94386317Y140164744D01*
X94388943Y140105605D01*
X94390898Y140032826D01*
X94392187Y139950233D01*
X94392813Y139861653D01*
X94392781Y139770913D01*
X94392095Y139681841D01*
X94390761Y139598263D01*
X94388782Y139524006D01*
X94386163Y139462898D01*
X94382909Y139418765D01*
X94382092Y139411586D01*
X94361316Y139318804D01*
X94323977Y139239990D01*
X94270016Y139175076D01*
X94199377Y139123993D01*
X94112001Y139086674D01*
X94107510Y139085267D01*
X94092531Y139080802D01*
X94077507Y139076958D01*
X94060774Y139073689D01*
X94040667Y139070947D01*
X94015521Y139068686D01*
X93983669Y139066858D01*
X93943448Y139065417D01*
X93893192Y139064316D01*
X93831236Y139063508D01*
X93755915Y139062945D01*
X93665563Y139062582D01*
X93558515Y139062371D01*
X93433107Y139062264D01*
X93289658Y139062217D01*
X93164437Y139062067D01*
X93045449Y139061687D01*
X92934487Y139061099D01*
X92833346Y139060323D01*
X92743818Y139059380D01*
X92667697Y139058291D01*
X92606776Y139057075D01*
X92562850Y139055755D01*
X92537711Y139054351D01*
X92532375Y139053466D01*
X92530102Y139047802D01*
X92528053Y139033162D01*
X92526213Y139008517D01*
X92524568Y138972838D01*
X92523103Y138925098D01*
X92521802Y138864267D01*
X92520650Y138789317D01*
X92519632Y138699219D01*
X92518735Y138592946D01*
X92517941Y138469469D01*
X92517238Y138327758D01*
X92516609Y138166787D01*
X92516040Y137985526D01*
X92515856Y137918669D01*
X92512857Y136792458D01*
X92486370Y136727448D01*
X92449994Y136650488D01*
X92409013Y136590979D01*
X92359194Y136544706D01*
X92296303Y136507454D01*
X92242516Y136484594D01*
X92222860Y136477529D01*
X92203478Y136471914D01*
X92181592Y136467549D01*
X92154425Y136464234D01*
X92119202Y136461769D01*
X92073144Y136459955D01*
X92013475Y136458592D01*
X91937418Y136457480D01*
X91852458Y136456526D01*
X91764963Y136455930D01*
X91679481Y136455945D01*
X91599828Y136456527D01*
X91529822Y136457628D01*
X91473281Y136459206D01*
X91434021Y136461213D01*
X91429894Y136461545D01*
X91346724Y136473142D01*
X91278307Y136493468D01*
X91218697Y136524840D01*
X91169191Y136563081D01*
X91105446Y136631824D01*
X91061111Y136708058D01*
X91042824Y136762337D01*
X91040539Y136778553D01*
X91038458Y136808265D01*
X91036570Y136852247D01*
X91034865Y136911272D01*
X91033331Y136986115D01*
X91031959Y137077548D01*
X91030738Y137186347D01*
X91029656Y137313284D01*
X91028703Y137459134D01*
X91027869Y137624670D01*
X91027143Y137810666D01*
X91026777Y137924711D01*
X91026220Y138104824D01*
X91025672Y138264505D01*
X91025110Y138404994D01*
X91024509Y138527529D01*
X91023846Y138633349D01*
X91023098Y138723693D01*
X91022239Y138799800D01*
X91021247Y138862909D01*
X91020098Y138914257D01*
X91018768Y138955085D01*
X91017233Y138986630D01*
X91015470Y139010132D01*
X91013454Y139026829D01*
X91011162Y139037960D01*
X91008570Y139044764D01*
X91005655Y139048479D01*
X91005198Y139048839D01*
X90996854Y139051614D01*
X90978990Y139054012D01*
X90950344Y139056057D01*
X90909656Y139057770D01*
X90855665Y139059175D01*
X90787107Y139060293D01*
X90702723Y139061147D01*
X90601251Y139061760D01*
X90481429Y139062153D01*
X90341996Y139062350D01*
X90243219Y139062383D01*
X90098127Y139062397D01*
X89973040Y139062471D01*
X89866294Y139062652D01*
X89776226Y139062988D01*
X89701169Y139063526D01*
X89639461Y139064313D01*
X89589437Y139065396D01*
X89549432Y139066824D01*
X89517782Y139068643D01*
X89492823Y139070900D01*
X89472891Y139073644D01*
X89456320Y139076921D01*
X89441447Y139080778D01*
X89426607Y139085264D01*
X89425379Y139085649D01*
X89338670Y139121514D01*
X89267632Y139170803D01*
X89209202Y139236054D01*
X89173260Y139294263D01*
X89143716Y139349509D01*
X89143716Y140270481D01*
X89173251Y140325710D01*
X89212409Y140386078D01*
X89260590Y140440856D01*
X89311465Y140483075D01*
X89322493Y140490046D01*
X89350776Y140503024D01*
X89392574Y140517747D01*
X89440182Y140531582D01*
X89454487Y140535176D01*
X89548559Y140557847D01*
X91794840Y140554588D01*
G37*
X91794840Y140554588D02*
X92054434Y140554209D01*
X92293254Y140553849D01*
X92512198Y140553498D01*
X92712161Y140553148D01*
X92894040Y140552787D01*
X93058732Y140552406D01*
X93207132Y140551996D01*
X93340138Y140551547D01*
X93458646Y140551048D01*
X93563552Y140550491D01*
X93655753Y140549865D01*
X93736145Y140549161D01*
X93805624Y140548369D01*
X93865088Y140547479D01*
X93915433Y140546481D01*
X93957554Y140545366D01*
X93992350Y140544124D01*
X94020715Y140542745D01*
X94043547Y140541220D01*
X94061742Y140539538D01*
X94076196Y140537690D01*
X94087806Y140535666D01*
X94097469Y140533456D01*
X94106080Y140531051D01*
X94111548Y140529376D01*
X94199752Y140492779D01*
X94270632Y140443213D01*
X94324473Y140380339D01*
X94361560Y140303818D01*
X94382178Y140213311D01*
X94383015Y140206416D01*
X94386317Y140164744D01*
X94388943Y140105605D01*
X94390898Y140032826D01*
X94392187Y139950233D01*
X94392813Y139861653D01*
X94392781Y139770913D01*
X94392095Y139681841D01*
X94390761Y139598263D01*
X94388782Y139524006D01*
X94386163Y139462898D01*
X94382909Y139418765D01*
X94382092Y139411586D01*
X94361316Y139318804D01*
X94323977Y139239990D01*
X94270016Y139175076D01*
X94199377Y139123993D01*
X94112001Y139086674D01*
X94107510Y139085267D01*
X94092531Y139080802D01*
X94077507Y139076958D01*
X94060774Y139073689D01*
X94040667Y139070947D01*
X94015521Y139068686D01*
X93983669Y139066858D01*
X93943448Y139065417D01*
X93893192Y139064316D01*
X93831236Y139063508D01*
X93755915Y139062945D01*
X93665563Y139062582D01*
X93558515Y139062371D01*
X93433107Y139062264D01*
X93289658Y139062217D01*
X93164437Y139062067D01*
X93045449Y139061687D01*
X92934487Y139061099D01*
X92833346Y139060323D01*
X92743818Y139059380D01*
X92667697Y139058291D01*
X92606776Y139057075D01*
X92562850Y139055755D01*
X92537711Y139054351D01*
X92532375Y139053466D01*
X92530102Y139047802D01*
X92528053Y139033162D01*
X92526213Y139008517D01*
X92524568Y138972838D01*
X92523103Y138925098D01*
X92521802Y138864267D01*
X92520650Y138789317D01*
X92519632Y138699219D01*
X92518735Y138592946D01*
X92517941Y138469469D01*
X92517238Y138327758D01*
X92516609Y138166787D01*
X92516040Y137985526D01*
X92515856Y137918669D01*
X92512857Y136792458D01*
X92486370Y136727448D01*
X92449994Y136650488D01*
X92409013Y136590979D01*
X92359194Y136544706D01*
X92296303Y136507454D01*
X92242516Y136484594D01*
X92222860Y136477529D01*
X92203478Y136471914D01*
X92181592Y136467549D01*
X92154425Y136464234D01*
X92119202Y136461769D01*
X92073144Y136459955D01*
X92013475Y136458592D01*
X91937418Y136457480D01*
X91852458Y136456526D01*
X91764963Y136455930D01*
X91679481Y136455945D01*
X91599828Y136456527D01*
X91529822Y136457628D01*
X91473281Y136459206D01*
X91434021Y136461213D01*
X91429894Y136461545D01*
X91346724Y136473142D01*
X91278307Y136493468D01*
X91218697Y136524840D01*
X91169191Y136563081D01*
X91105446Y136631824D01*
X91061111Y136708058D01*
X91042824Y136762337D01*
X91040539Y136778553D01*
X91038458Y136808265D01*
X91036570Y136852247D01*
X91034865Y136911272D01*
X91033331Y136986115D01*
X91031959Y137077548D01*
X91030738Y137186347D01*
X91029656Y137313284D01*
X91028703Y137459134D01*
X91027869Y137624670D01*
X91027143Y137810666D01*
X91026777Y137924711D01*
X91026220Y138104824D01*
X91025672Y138264505D01*
X91025110Y138404994D01*
X91024509Y138527529D01*
X91023846Y138633349D01*
X91023098Y138723693D01*
X91022239Y138799800D01*
X91021247Y138862909D01*
X91020098Y138914257D01*
X91018768Y138955085D01*
X91017233Y138986630D01*
X91015470Y139010132D01*
X91013454Y139026829D01*
X91011162Y139037960D01*
X91008570Y139044764D01*
X91005655Y139048479D01*
X91005198Y139048839D01*
X90996854Y139051614D01*
X90978990Y139054012D01*
X90950344Y139056057D01*
X90909656Y139057770D01*
X90855665Y139059175D01*
X90787107Y139060293D01*
X90702723Y139061147D01*
X90601251Y139061760D01*
X90481429Y139062153D01*
X90341996Y139062350D01*
X90243219Y139062383D01*
X90098127Y139062397D01*
X89973040Y139062471D01*
X89866294Y139062652D01*
X89776226Y139062988D01*
X89701169Y139063526D01*
X89639461Y139064313D01*
X89589437Y139065396D01*
X89549432Y139066824D01*
X89517782Y139068643D01*
X89492823Y139070900D01*
X89472891Y139073644D01*
X89456320Y139076921D01*
X89441447Y139080778D01*
X89426607Y139085264D01*
X89425379Y139085649D01*
X89338670Y139121514D01*
X89267632Y139170803D01*
X89209202Y139236054D01*
X89173260Y139294263D01*
X89143716Y139349509D01*
X89143716Y140270481D01*
X89173251Y140325710D01*
X89212409Y140386078D01*
X89260590Y140440856D01*
X89311465Y140483075D01*
X89322493Y140490046D01*
X89350776Y140503024D01*
X89392574Y140517747D01*
X89440182Y140531582D01*
X89454487Y140535176D01*
X89548559Y140557847D01*
X91794840Y140554588D01*
G36*
X82060482Y140555736D02*
G01*
X82270033Y140555588D01*
X82498720Y140555340D01*
X82747435Y140555004D01*
X82971313Y140554664D01*
X83227228Y140554256D01*
X83462384Y140553870D01*
X83677689Y140553494D01*
X83874053Y140553119D01*
X84052387Y140552735D01*
X84213599Y140552330D01*
X84358600Y140551895D01*
X84488298Y140551421D01*
X84603605Y140550895D01*
X84705430Y140550310D01*
X84794682Y140549653D01*
X84872272Y140548915D01*
X84939108Y140548087D01*
X84996101Y140547156D01*
X85044160Y140546115D01*
X85084196Y140544951D01*
X85117117Y140543656D01*
X85143834Y140542218D01*
X85165256Y140540629D01*
X85182294Y140538876D01*
X85195856Y140536951D01*
X85206853Y140534843D01*
X85216194Y140532542D01*
X85224789Y140530038D01*
X85226877Y140529395D01*
X85314352Y140493353D01*
X85384478Y140444479D01*
X85437784Y140382131D01*
X85474802Y140305666D01*
X85496059Y140214443D01*
X85497711Y140201312D01*
X85501219Y140157394D01*
X85504006Y140095835D01*
X85506072Y140020653D01*
X85507418Y139935864D01*
X85508045Y139845486D01*
X85507953Y139753536D01*
X85507143Y139664031D01*
X85505615Y139580988D01*
X85503370Y139508424D01*
X85500409Y139450358D01*
X85497605Y139417750D01*
X85478439Y139324854D01*
X85443494Y139246496D01*
X85392072Y139181824D01*
X85323473Y139129985D01*
X85237000Y139090126D01*
X85226114Y139086351D01*
X85211962Y139081694D01*
X85198084Y139077684D01*
X85182829Y139074271D01*
X85164547Y139071407D01*
X85141590Y139069045D01*
X85112308Y139067136D01*
X85075052Y139065631D01*
X85028171Y139064483D01*
X84970017Y139063644D01*
X84898940Y139063064D01*
X84813290Y139062697D01*
X84711418Y139062493D01*
X84591675Y139062404D01*
X84452411Y139062383D01*
X84406139Y139062383D01*
X84259250Y139062342D01*
X84132526Y139062198D01*
X84024465Y139061918D01*
X83933560Y139061467D01*
X83858310Y139060813D01*
X83797209Y139059921D01*
X83748753Y139058759D01*
X83711439Y139057293D01*
X83683761Y139055490D01*
X83664217Y139053315D01*
X83651302Y139050737D01*
X83643513Y139047721D01*
X83640329Y139045356D01*
X83637567Y139040972D01*
X83635118Y139032849D01*
X83632962Y139019765D01*
X83631081Y139000496D01*
X83629457Y138973820D01*
X83628071Y138938512D01*
X83626906Y138893349D01*
X83625942Y138837108D01*
X83625163Y138768565D01*
X83624548Y138686497D01*
X83624080Y138589681D01*
X83623741Y138476893D01*
X83623513Y138346910D01*
X83623376Y138198508D01*
X83623313Y138030465D01*
X83623303Y137908649D01*
X83623303Y136788968D01*
X83599258Y136725703D01*
X83561493Y136644740D01*
X83515188Y136581535D01*
X83457158Y136532848D01*
X83384217Y136495437D01*
X83366022Y136488461D01*
X83343062Y136480231D01*
X83322475Y136473696D01*
X83301453Y136468641D01*
X83277190Y136464854D01*
X83246881Y136462121D01*
X83207720Y136460230D01*
X83156900Y136458965D01*
X83091615Y136458116D01*
X83009059Y136457467D01*
X82953455Y136457108D01*
X82865813Y136456822D01*
X82780894Y136457048D01*
X82702310Y136457738D01*
X82633672Y136458844D01*
X82578592Y136460321D01*
X82540678Y136462119D01*
X82534389Y136462606D01*
X82484333Y136469241D01*
X82434714Y136479488D01*
X82395861Y136491192D01*
X82394271Y136491824D01*
X82340439Y136521068D01*
X82285001Y136563621D01*
X82235322Y136613065D01*
X82199764Y136661267D01*
X82190261Y136677838D01*
X82181803Y136694136D01*
X82174329Y136711458D01*
X82167777Y136731100D01*
X82162088Y136754360D01*
X82157200Y136782536D01*
X82153053Y136816924D01*
X82149585Y136858821D01*
X82146736Y136909526D01*
X82144445Y136970335D01*
X82142652Y137042545D01*
X82141295Y137127454D01*
X82140313Y137226359D01*
X82139647Y137340556D01*
X82139235Y137471344D01*
X82139016Y137620020D01*
X82138929Y137787880D01*
X82138914Y137959544D01*
X82138905Y138136387D01*
X82138862Y138292825D01*
X82138761Y138430124D01*
X82138578Y138549550D01*
X82138288Y138652367D01*
X82137868Y138739841D01*
X82137292Y138813238D01*
X82136536Y138873822D01*
X82135577Y138922860D01*
X82134389Y138961617D01*
X82132949Y138991357D01*
X82131233Y139013347D01*
X82129215Y139028852D01*
X82126872Y139039137D01*
X82124180Y139045468D01*
X82121113Y139049110D01*
X82117955Y139051167D01*
X82102086Y139053712D01*
X82064681Y139055934D01*
X82005869Y139057831D01*
X81925782Y139059402D01*
X81824551Y139060643D01*
X81702306Y139061553D01*
X81559178Y139062131D01*
X81395298Y139062374D01*
X81355914Y139062383D01*
X81211091Y139062397D01*
X81086270Y139062472D01*
X80979783Y139062655D01*
X80889963Y139062993D01*
X80815142Y139063535D01*
X80753652Y139064327D01*
X80703825Y139065418D01*
X80663994Y139066854D01*
X80632490Y139068684D01*
X80607647Y139070954D01*
X80587796Y139073713D01*
X80571269Y139077007D01*
X80556399Y139080886D01*
X80541519Y139085395D01*
X80540800Y139085620D01*
X80457283Y139119340D01*
X80389213Y139164595D01*
X80332671Y139224680D01*
X80284866Y139300752D01*
X80259046Y139349509D01*
X80259046Y139804919D01*
X80259096Y139916805D01*
X80259305Y140009164D01*
X80259763Y140084142D01*
X80260561Y140143881D01*
X80261789Y140190527D01*
X80263536Y140226222D01*
X80265893Y140253111D01*
X80268950Y140273338D01*
X80272796Y140289046D01*
X80277522Y140302380D01*
X80280208Y140308745D01*
X80323479Y140383608D01*
X80381279Y140446914D01*
X80449898Y140495382D01*
X80525623Y140525733D01*
X80525796Y140525778D01*
X80541620Y140529510D01*
X80559594Y140532942D01*
X80580614Y140536086D01*
X80605573Y140538952D01*
X80635365Y140541550D01*
X80670884Y140543890D01*
X80713023Y140545985D01*
X80762677Y140547843D01*
X80820739Y140549477D01*
X80888104Y140550895D01*
X80965665Y140552109D01*
X81054316Y140553130D01*
X81154951Y140553967D01*
X81268464Y140554632D01*
X81395749Y140555134D01*
X81537699Y140555486D01*
X81695209Y140555696D01*
X81869172Y140555776D01*
X82060482Y140555736D01*
G37*
X82060482Y140555736D02*
X82270033Y140555588D01*
X82498720Y140555340D01*
X82747435Y140555004D01*
X82971313Y140554664D01*
X83227228Y140554256D01*
X83462384Y140553870D01*
X83677689Y140553494D01*
X83874053Y140553119D01*
X84052387Y140552735D01*
X84213599Y140552330D01*
X84358600Y140551895D01*
X84488298Y140551421D01*
X84603605Y140550895D01*
X84705430Y140550310D01*
X84794682Y140549653D01*
X84872272Y140548915D01*
X84939108Y140548087D01*
X84996101Y140547156D01*
X85044160Y140546115D01*
X85084196Y140544951D01*
X85117117Y140543656D01*
X85143834Y140542218D01*
X85165256Y140540629D01*
X85182294Y140538876D01*
X85195856Y140536951D01*
X85206853Y140534843D01*
X85216194Y140532542D01*
X85224789Y140530038D01*
X85226877Y140529395D01*
X85314352Y140493353D01*
X85384478Y140444479D01*
X85437784Y140382131D01*
X85474802Y140305666D01*
X85496059Y140214443D01*
X85497711Y140201312D01*
X85501219Y140157394D01*
X85504006Y140095835D01*
X85506072Y140020653D01*
X85507418Y139935864D01*
X85508045Y139845486D01*
X85507953Y139753536D01*
X85507143Y139664031D01*
X85505615Y139580988D01*
X85503370Y139508424D01*
X85500409Y139450358D01*
X85497605Y139417750D01*
X85478439Y139324854D01*
X85443494Y139246496D01*
X85392072Y139181824D01*
X85323473Y139129985D01*
X85237000Y139090126D01*
X85226114Y139086351D01*
X85211962Y139081694D01*
X85198084Y139077684D01*
X85182829Y139074271D01*
X85164547Y139071407D01*
X85141590Y139069045D01*
X85112308Y139067136D01*
X85075052Y139065631D01*
X85028171Y139064483D01*
X84970017Y139063644D01*
X84898940Y139063064D01*
X84813290Y139062697D01*
X84711418Y139062493D01*
X84591675Y139062404D01*
X84452411Y139062383D01*
X84406139Y139062383D01*
X84259250Y139062342D01*
X84132526Y139062198D01*
X84024465Y139061918D01*
X83933560Y139061467D01*
X83858310Y139060813D01*
X83797209Y139059921D01*
X83748753Y139058759D01*
X83711439Y139057293D01*
X83683761Y139055490D01*
X83664217Y139053315D01*
X83651302Y139050737D01*
X83643513Y139047721D01*
X83640329Y139045356D01*
X83637567Y139040972D01*
X83635118Y139032849D01*
X83632962Y139019765D01*
X83631081Y139000496D01*
X83629457Y138973820D01*
X83628071Y138938512D01*
X83626906Y138893349D01*
X83625942Y138837108D01*
X83625163Y138768565D01*
X83624548Y138686497D01*
X83624080Y138589681D01*
X83623741Y138476893D01*
X83623513Y138346910D01*
X83623376Y138198508D01*
X83623313Y138030465D01*
X83623303Y137908649D01*
X83623303Y136788968D01*
X83599258Y136725703D01*
X83561493Y136644740D01*
X83515188Y136581535D01*
X83457158Y136532848D01*
X83384217Y136495437D01*
X83366022Y136488461D01*
X83343062Y136480231D01*
X83322475Y136473696D01*
X83301453Y136468641D01*
X83277190Y136464854D01*
X83246881Y136462121D01*
X83207720Y136460230D01*
X83156900Y136458965D01*
X83091615Y136458116D01*
X83009059Y136457467D01*
X82953455Y136457108D01*
X82865813Y136456822D01*
X82780894Y136457048D01*
X82702310Y136457738D01*
X82633672Y136458844D01*
X82578592Y136460321D01*
X82540678Y136462119D01*
X82534389Y136462606D01*
X82484333Y136469241D01*
X82434714Y136479488D01*
X82395861Y136491192D01*
X82394271Y136491824D01*
X82340439Y136521068D01*
X82285001Y136563621D01*
X82235322Y136613065D01*
X82199764Y136661267D01*
X82190261Y136677838D01*
X82181803Y136694136D01*
X82174329Y136711458D01*
X82167777Y136731100D01*
X82162088Y136754360D01*
X82157200Y136782536D01*
X82153053Y136816924D01*
X82149585Y136858821D01*
X82146736Y136909526D01*
X82144445Y136970335D01*
X82142652Y137042545D01*
X82141295Y137127454D01*
X82140313Y137226359D01*
X82139647Y137340556D01*
X82139235Y137471344D01*
X82139016Y137620020D01*
X82138929Y137787880D01*
X82138914Y137959544D01*
X82138905Y138136387D01*
X82138862Y138292825D01*
X82138761Y138430124D01*
X82138578Y138549550D01*
X82138288Y138652367D01*
X82137868Y138739841D01*
X82137292Y138813238D01*
X82136536Y138873822D01*
X82135577Y138922860D01*
X82134389Y138961617D01*
X82132949Y138991357D01*
X82131233Y139013347D01*
X82129215Y139028852D01*
X82126872Y139039137D01*
X82124180Y139045468D01*
X82121113Y139049110D01*
X82117955Y139051167D01*
X82102086Y139053712D01*
X82064681Y139055934D01*
X82005869Y139057831D01*
X81925782Y139059402D01*
X81824551Y139060643D01*
X81702306Y139061553D01*
X81559178Y139062131D01*
X81395298Y139062374D01*
X81355914Y139062383D01*
X81211091Y139062397D01*
X81086270Y139062472D01*
X80979783Y139062655D01*
X80889963Y139062993D01*
X80815142Y139063535D01*
X80753652Y139064327D01*
X80703825Y139065418D01*
X80663994Y139066854D01*
X80632490Y139068684D01*
X80607647Y139070954D01*
X80587796Y139073713D01*
X80571269Y139077007D01*
X80556399Y139080886D01*
X80541519Y139085395D01*
X80540800Y139085620D01*
X80457283Y139119340D01*
X80389213Y139164595D01*
X80332671Y139224680D01*
X80284866Y139300752D01*
X80259046Y139349509D01*
X80259046Y139804919D01*
X80259096Y139916805D01*
X80259305Y140009164D01*
X80259763Y140084142D01*
X80260561Y140143881D01*
X80261789Y140190527D01*
X80263536Y140226222D01*
X80265893Y140253111D01*
X80268950Y140273338D01*
X80272796Y140289046D01*
X80277522Y140302380D01*
X80280208Y140308745D01*
X80323479Y140383608D01*
X80381279Y140446914D01*
X80449898Y140495382D01*
X80525623Y140525733D01*
X80525796Y140525778D01*
X80541620Y140529510D01*
X80559594Y140532942D01*
X80580614Y140536086D01*
X80605573Y140538952D01*
X80635365Y140541550D01*
X80670884Y140543890D01*
X80713023Y140545985D01*
X80762677Y140547843D01*
X80820739Y140549477D01*
X80888104Y140550895D01*
X80965665Y140552109D01*
X81054316Y140553130D01*
X81154951Y140553967D01*
X81268464Y140554632D01*
X81395749Y140555134D01*
X81537699Y140555486D01*
X81695209Y140555696D01*
X81869172Y140555776D01*
X82060482Y140555736D01*
G36*
X87420359Y136606167D02*
G01*
X87496712Y136593834D01*
X87567234Y136575260D01*
X87625566Y136551192D01*
X87626821Y136550522D01*
X87696424Y136509421D01*
X87757226Y136466346D01*
X87803519Y136425369D01*
X87806437Y136422291D01*
X87867370Y136350575D01*
X87915298Y136278426D01*
X87951959Y136201554D01*
X87979093Y136115671D01*
X87998435Y136016487D01*
X88009889Y135920243D01*
X88027675Y135787896D01*
X88055903Y135649148D01*
X88092165Y135515048D01*
X88110255Y135459757D01*
X88121464Y135425473D01*
X88132337Y135389331D01*
X88142160Y135358985D01*
X88157040Y135317592D01*
X88174162Y135272510D01*
X88190711Y135231100D01*
X88203873Y135200720D01*
X88206633Y135195067D01*
X88214763Y135178879D01*
X88230175Y135147912D01*
X88250558Y135106818D01*
X88270642Y135066233D01*
X88375338Y134878483D01*
X88497568Y134702518D01*
X88636059Y134539696D01*
X88789537Y134391375D01*
X88956729Y134258915D01*
X89134626Y134144668D01*
X89329196Y134043030D01*
X89524575Y133960733D01*
X89674630Y133911047D01*
X89724520Y133896395D01*
X89772765Y133881994D01*
X89811212Y133870287D01*
X89820902Y133867259D01*
X89863928Y133855624D01*
X89909156Y133846199D01*
X89918416Y133844718D01*
X89959982Y133837215D01*
X90006156Y133826884D01*
X90021348Y133822981D01*
X90057209Y133815075D01*
X90106046Y133806611D01*
X90159258Y133799027D01*
X90178455Y133796717D01*
X90230148Y133790164D01*
X90279766Y133782677D01*
X90319171Y133775524D01*
X90330145Y133773067D01*
X90346063Y133771234D01*
X90378814Y133769488D01*
X90428789Y133767825D01*
X90496380Y133766241D01*
X90581978Y133764730D01*
X90685975Y133763290D01*
X90808763Y133761916D01*
X90950733Y133760604D01*
X91112277Y133759349D01*
X91293786Y133758147D01*
X91495652Y133756995D01*
X91718268Y133755887D01*
X91962024Y133754819D01*
X92052904Y133754452D01*
X92241758Y133753661D01*
X92424752Y133752808D01*
X92600710Y133751902D01*
X92768455Y133750953D01*
X92926809Y133749970D01*
X93074595Y133748963D01*
X93210637Y133747941D01*
X93333757Y133746915D01*
X93442779Y133745892D01*
X93536524Y133744884D01*
X93613816Y133743899D01*
X93673478Y133742947D01*
X93714332Y133742037D01*
X93735203Y133741179D01*
X93737741Y133740828D01*
X93751553Y133737945D01*
X93783389Y133734175D01*
X93829638Y133729854D01*
X93886688Y133725321D01*
X93949023Y133721036D01*
X94019091Y133716012D01*
X94087556Y133710110D01*
X94149126Y133703856D01*
X94198507Y133697780D01*
X94225315Y133693472D01*
X94278929Y133684209D01*
X94338278Y133675699D01*
X94377004Y133671200D01*
X94419491Y133665959D01*
X94456692Y133659555D01*
X94479613Y133653664D01*
X94503705Y133646441D01*
X94540954Y133637220D01*
X94582545Y133628156D01*
X94638387Y133615687D01*
X94702517Y133599519D01*
X94771416Y133580741D01*
X94841562Y133560436D01*
X94909434Y133539692D01*
X94971511Y133519592D01*
X95024272Y133501224D01*
X95064196Y133485672D01*
X95087762Y133474023D01*
X95091267Y133471303D01*
X95111190Y133461429D01*
X95117612Y133460707D01*
X95135046Y133456333D01*
X95165170Y133445115D01*
X95201294Y133429909D01*
X95236731Y133413570D01*
X95264793Y133398955D01*
X95270889Y133395260D01*
X95293520Y133383158D01*
X95314229Y133374008D01*
X95341243Y133361818D01*
X95357569Y133352897D01*
X95376716Y133341991D01*
X95406332Y133326338D01*
X95420857Y133318941D01*
X95485284Y133282712D01*
X95560157Y133234312D01*
X95640894Y133177182D01*
X95722913Y133114763D01*
X95801630Y133050497D01*
X95872465Y132987824D01*
X95910152Y132951537D01*
X95978623Y132878625D01*
X96048698Y132796398D01*
X96116319Y132710130D01*
X96177425Y132625097D01*
X96227958Y132546573D01*
X96245932Y132515198D01*
X96273128Y132463968D01*
X96300501Y132409936D01*
X96326192Y132357062D01*
X96348344Y132309306D01*
X96365098Y132270626D01*
X96374597Y132244984D01*
X96376055Y132237905D01*
X96380636Y132221485D01*
X96391661Y132196821D01*
X96391773Y132196603D01*
X96407304Y132159552D01*
X96425161Y132106076D01*
X96444039Y132041117D01*
X96462635Y131969614D01*
X96479644Y131896507D01*
X96493762Y131826735D01*
X96501413Y131781287D01*
X96509636Y131727212D01*
X96518436Y131670550D01*
X96526038Y131622726D01*
X96526682Y131618763D01*
X96530686Y131583050D01*
X96534110Y131531402D01*
X96536684Y131469552D01*
X96538139Y131403234D01*
X96538362Y131370322D01*
X96538053Y131299596D01*
X96536650Y131245890D01*
X96533734Y131204569D01*
X96528884Y131170992D01*
X96521683Y131140524D01*
X96515839Y131121118D01*
X96471249Y131009511D01*
X96413405Y130913993D01*
X96340879Y130832493D01*
X96283958Y130785142D01*
X96234805Y130750985D01*
X96188339Y130724683D01*
X96136471Y130702201D01*
X96073879Y130680402D01*
X96015463Y130666047D01*
X95948938Y130656984D01*
X95880614Y130653395D01*
X95816800Y130655464D01*
X95763806Y130663376D01*
X95740539Y130670703D01*
X95710229Y130681408D01*
X95685779Y130686801D01*
X95682820Y130686956D01*
X95660168Y130692780D01*
X95625226Y130708312D01*
X95583325Y130730645D01*
X95539792Y130756869D01*
X95499957Y130784075D01*
X95487588Y130793518D01*
X95434188Y130841932D01*
X95382060Y130899745D01*
X95339236Y130957885D01*
X95332547Y130968665D01*
X95302298Y131023974D01*
X95280419Y131076904D01*
X95265132Y131133759D01*
X95254661Y131200841D01*
X95248516Y131266626D01*
X95241325Y131350902D01*
X95232843Y131432713D01*
X95223541Y131508698D01*
X95213894Y131575501D01*
X95204373Y131629761D01*
X95195452Y131668121D01*
X95189787Y131683773D01*
X95177441Y131714428D01*
X95168204Y131746970D01*
X95149876Y131799513D01*
X95117095Y131860335D01*
X95072866Y131924874D01*
X95020189Y131988566D01*
X94985172Y132025074D01*
X94927740Y132079737D01*
X94880473Y132121107D01*
X94844582Y132148203D01*
X94821279Y132160047D01*
X94817720Y132160511D01*
X94802708Y132166452D01*
X94782068Y132179823D01*
X94757681Y132194881D01*
X94722406Y132213089D01*
X94696636Y132224904D01*
X94654931Y132242923D01*
X94613482Y132260807D01*
X94593704Y132269328D01*
X94529084Y132293812D01*
X94449301Y132318856D01*
X94360741Y132342756D01*
X94269791Y132363805D01*
X94182838Y132380297D01*
X94171140Y132382178D01*
X94119402Y132390549D01*
X94068393Y132399245D01*
X94027199Y132406705D01*
X94018699Y132408352D01*
X93990741Y132412953D01*
X93954637Y132417176D01*
X93909495Y132421038D01*
X93854425Y132424555D01*
X93788536Y132427745D01*
X93710938Y132430625D01*
X93620740Y132433213D01*
X93517052Y132435525D01*
X93398984Y132437578D01*
X93265644Y132439389D01*
X93116143Y132440977D01*
X92949591Y132442357D01*
X92765095Y132443547D01*
X92561767Y132444564D01*
X92338716Y132445425D01*
X92095050Y132446148D01*
X92047487Y132446268D01*
X91813527Y132446908D01*
X91600169Y132447636D01*
X91406348Y132448474D01*
X91230996Y132449445D01*
X91073046Y132450572D01*
X90931430Y132451875D01*
X90805083Y132453379D01*
X90692938Y132455104D01*
X90593926Y132457074D01*
X90506982Y132459311D01*
X90431038Y132461836D01*
X90365028Y132464673D01*
X90307884Y132467843D01*
X90258540Y132471370D01*
X90215928Y132475274D01*
X90178982Y132479579D01*
X90146635Y132484307D01*
X90135116Y132486256D01*
X90098675Y132492082D01*
X90048461Y132499345D01*
X89992222Y132506948D01*
X89956339Y132511525D01*
X89905024Y132518551D01*
X89859345Y132525999D01*
X89825051Y132532863D01*
X89810067Y132537101D01*
X89785018Y132544024D01*
X89747338Y132551099D01*
X89712552Y132555888D01*
X89673032Y132561510D01*
X89640390Y132568169D01*
X89623572Y132573644D01*
X89603853Y132580785D01*
X89570255Y132590004D01*
X89531475Y132598990D01*
X89459919Y132615802D01*
X89379256Y132637413D01*
X89297117Y132661579D01*
X89221134Y132686058D01*
X89159969Y132708200D01*
X89123487Y132720945D01*
X89082828Y132732993D01*
X89076455Y132734652D01*
X89046957Y132744019D01*
X89027414Y132753738D01*
X89024350Y132756729D01*
X89009000Y132766096D01*
X89000226Y132767269D01*
X88980217Y132771641D01*
X88950109Y132782682D01*
X88935855Y132788939D01*
X88895949Y132807269D01*
X88851803Y132827316D01*
X88837629Y132833697D01*
X88795099Y132853447D01*
X88742337Y132878934D01*
X88684816Y132907407D01*
X88628007Y132936117D01*
X88577383Y132962314D01*
X88538416Y132983248D01*
X88526123Y132990229D01*
X88491165Y133010485D01*
X88457716Y133029526D01*
X88450279Y133033687D01*
X88402752Y133062024D01*
X88342813Y133100666D01*
X88275019Y133146448D01*
X88203930Y133196204D01*
X88134106Y133246765D01*
X88070105Y133294966D01*
X88039008Y133319348D01*
X87922765Y133417909D01*
X87803415Y133529681D01*
X87685492Y133649874D01*
X87573529Y133773696D01*
X87472060Y133896354D01*
X87393725Y134001410D01*
X87369599Y134033387D01*
X87348666Y134056846D01*
X87334994Y134067296D01*
X87333909Y134067465D01*
X87321581Y134064316D01*
X87305832Y134053467D01*
X87284630Y134032812D01*
X87255944Y134000248D01*
X87217745Y133953668D01*
X87187560Y133915775D01*
X87088698Y133798617D01*
X86974660Y133676941D01*
X86850050Y133555083D01*
X86719471Y133437377D01*
X86587529Y133328156D01*
X86467843Y133238147D01*
X86431739Y133212632D01*
X86400744Y133191346D01*
X86369800Y133171017D01*
X86333852Y133148377D01*
X86287843Y133120155D01*
X86247584Y133095715D01*
X86194861Y133063925D01*
X86152241Y133038783D01*
X86114317Y133017359D01*
X86075686Y132996722D01*
X86030940Y132973942D01*
X85974674Y132946089D01*
X85941985Y132930055D01*
X85886168Y132902667D01*
X85835044Y132877492D01*
X85792758Y132856576D01*
X85763456Y132841967D01*
X85754204Y132837275D01*
X85729057Y132826105D01*
X85711600Y132821444D01*
X85711576Y132821444D01*
X85694998Y132817258D01*
X85667481Y132806734D01*
X85655571Y132801541D01*
X85589632Y132773789D01*
X85509924Y132744060D01*
X85413879Y132711437D01*
X85313557Y132679530D01*
X85265550Y132665077D01*
X85215274Y132650971D01*
X85157144Y132635717D01*
X85085578Y132617822D01*
X85053518Y132609975D01*
X85006199Y132598176D01*
X84957767Y132585683D01*
X84928916Y132577974D01*
X84884212Y132567539D01*
X84834392Y132558459D01*
X84815149Y132555730D01*
X84768293Y132548475D01*
X84719325Y132538775D01*
X84701382Y132534531D01*
X84662027Y132526398D01*
X84612241Y132518653D01*
X84565945Y132513296D01*
X84512208Y132507304D01*
X84450921Y132498888D01*
X84398003Y132490324D01*
X84365221Y132484928D01*
X84329149Y132480012D01*
X84288687Y132475551D01*
X84242737Y132471521D01*
X84190201Y132467895D01*
X84129980Y132464649D01*
X84060974Y132461757D01*
X83982086Y132459195D01*
X83892216Y132456937D01*
X83790266Y132454959D01*
X83675137Y132453234D01*
X83545730Y132451739D01*
X83400947Y132450447D01*
X83239689Y132449334D01*
X83060858Y132448375D01*
X82863354Y132447544D01*
X82646079Y132446817D01*
X82474796Y132446337D01*
X82228369Y132445602D01*
X82002724Y132444727D01*
X81796978Y132443694D01*
X81610243Y132442486D01*
X81441634Y132441086D01*
X81290265Y132439476D01*
X81155249Y132437639D01*
X81035701Y132435557D01*
X80930735Y132433214D01*
X80839465Y132430591D01*
X80761004Y132427672D01*
X80694468Y132424438D01*
X80638969Y132420873D01*
X80593622Y132416959D01*
X80557541Y132412679D01*
X80530672Y132408184D01*
X80493021Y132401051D01*
X80443615Y132392291D01*
X80392108Y132383607D01*
X80383648Y132382230D01*
X80322212Y132371409D01*
X80259615Y132358851D01*
X80200621Y132345665D01*
X80149994Y132332958D01*
X80112499Y132321839D01*
X80096121Y132315343D01*
X80070604Y132305698D01*
X80038298Y132297469D01*
X80037189Y132297255D01*
X80002177Y132287838D01*
X79963454Y132273657D01*
X79955927Y132270383D01*
X79920335Y132254536D01*
X79877139Y132235630D01*
X79852735Y132225084D01*
X79817428Y132208825D01*
X79788581Y132193605D01*
X79776037Y132185420D01*
X79758162Y132173791D01*
X79750401Y132171346D01*
X79734510Y132164469D01*
X79706443Y132145775D01*
X79669925Y132118168D01*
X79628683Y132084554D01*
X79586442Y132047839D01*
X79556369Y132020036D01*
X79479241Y131931820D01*
X79416256Y131828586D01*
X79368528Y131712632D01*
X79337171Y131586258D01*
X79332846Y131559129D01*
X79327461Y131517062D01*
X79321104Y131459758D01*
X79314433Y131393588D01*
X79308109Y131324923D01*
X79305701Y131296712D01*
X79300134Y131231218D01*
X79295208Y131182430D01*
X79289774Y131145459D01*
X79282684Y131115416D01*
X79272789Y131087412D01*
X79258940Y131056558D01*
X79240408Y131018808D01*
X79177520Y130914999D01*
X79100050Y130827034D01*
X79008738Y130755539D01*
X78904324Y130701141D01*
X78837984Y130677651D01*
X78750580Y130659857D01*
X78654865Y130654509D01*
X78559515Y130661519D01*
X78473203Y130680797D01*
X78471277Y130681422D01*
X78367636Y130722122D01*
X78280730Y130771872D01*
X78206555Y130833436D01*
X78141482Y130909073D01*
X78107325Y130958226D01*
X78081022Y131004692D01*
X78058541Y131056560D01*
X78036742Y131119152D01*
X78026706Y131152354D01*
X78019629Y131183156D01*
X78015016Y131216449D01*
X78012373Y131257125D01*
X78011205Y131310077D01*
X78011009Y131373774D01*
X78011821Y131439684D01*
X78013912Y131504068D01*
X78017002Y131561090D01*
X78020813Y131604909D01*
X78022689Y131618763D01*
X78030067Y131665029D01*
X78038826Y131721309D01*
X78047190Y131776178D01*
X78047958Y131781287D01*
X78057066Y131833174D01*
X78069749Y131893292D01*
X78084926Y131957658D01*
X78101516Y132022288D01*
X78118439Y132083196D01*
X78134614Y132136399D01*
X78148962Y132177911D01*
X78160402Y132203750D01*
X78163850Y132208727D01*
X78172635Y132228312D01*
X78173315Y132234978D01*
X78178467Y132254250D01*
X78192683Y132288645D01*
X78214105Y132334572D01*
X78240875Y132388438D01*
X78271133Y132446653D01*
X78303022Y132505623D01*
X78334682Y132561758D01*
X78364255Y132611464D01*
X78384684Y132643472D01*
X78500022Y132798002D01*
X78633849Y132944422D01*
X78783870Y133080765D01*
X78947792Y133205064D01*
X79123323Y133315352D01*
X79240559Y133377607D01*
X79315510Y133413937D01*
X79372632Y133439995D01*
X79411587Y133455633D01*
X79431758Y133460707D01*
X79453194Y133467468D01*
X79458103Y133471303D01*
X79475432Y133481342D01*
X79510068Y133495704D01*
X79558376Y133513147D01*
X79616723Y133532429D01*
X79681471Y133552307D01*
X79748987Y133571539D01*
X79760638Y133574698D01*
X79805732Y133587196D01*
X79851139Y133600354D01*
X79874405Y133607409D01*
X79913256Y133617727D01*
X79960661Y133627872D01*
X79990290Y133633071D01*
X80029149Y133640213D01*
X80061379Y133648079D01*
X80076970Y133653635D01*
X80097001Y133659580D01*
X80131539Y133665794D01*
X80173475Y133671021D01*
X80177784Y133671440D01*
X80229676Y133677578D01*
X80284016Y133685932D01*
X80324056Y133693651D01*
X80357371Y133699346D01*
X80406924Y133705585D01*
X80467315Y133711791D01*
X80533140Y133717386D01*
X80572012Y133720146D01*
X80633301Y133724555D01*
X80687323Y133729197D01*
X80730238Y133733685D01*
X80758209Y133737626D01*
X80767041Y133739970D01*
X80779061Y133740898D01*
X80811573Y133741878D01*
X80863398Y133742898D01*
X80933358Y133743950D01*
X81020275Y133745023D01*
X81122970Y133746107D01*
X81240265Y133747192D01*
X81370982Y133748268D01*
X81513943Y133749326D01*
X81667969Y133750354D01*
X81831882Y133751344D01*
X82004504Y133752285D01*
X82184657Y133753167D01*
X82371161Y133753979D01*
X82453126Y133754306D01*
X82699099Y133755310D01*
X82923945Y133756343D01*
X83128208Y133757410D01*
X83312433Y133758518D01*
X83477163Y133759671D01*
X83622943Y133760877D01*
X83750315Y133762140D01*
X83859823Y133763468D01*
X83952012Y133764865D01*
X84027425Y133766338D01*
X84086606Y133767893D01*
X84130099Y133769536D01*
X84158447Y133771272D01*
X84172067Y133773072D01*
X84200129Y133778980D01*
X84243907Y133786133D01*
X84297550Y133793653D01*
X84355209Y133800664D01*
X84358791Y133801063D01*
X84412465Y133807408D01*
X84458558Y133813611D01*
X84492671Y133819027D01*
X84510405Y133823009D01*
X84511509Y133823517D01*
X84526827Y133828456D01*
X84557512Y133835430D01*
X84597526Y133843094D01*
X84606494Y133844656D01*
X84679767Y133858446D01*
X84751128Y133874137D01*
X84814821Y133890331D01*
X84865090Y133905628D01*
X84880159Y133911185D01*
X84917445Y133924200D01*
X84957717Y133935752D01*
X84961421Y133936658D01*
X85002019Y133947672D01*
X85046251Y133961704D01*
X85088313Y133976662D01*
X85122399Y133990457D01*
X85142708Y134000999D01*
X85144771Y134002694D01*
X85164693Y134012568D01*
X85171115Y134013290D01*
X85187793Y134017056D01*
X85218110Y134028762D01*
X85263432Y134049016D01*
X85325127Y134078429D01*
X85400237Y134115453D01*
X85491582Y134162734D01*
X85572421Y134208928D01*
X85649037Y134258088D01*
X85727717Y134314266D01*
X85814745Y134381517D01*
X85822800Y134387931D01*
X85964636Y134511164D01*
X86096973Y134646185D01*
X86216660Y134789279D01*
X86320544Y134936732D01*
X86391678Y135058199D01*
X86411739Y135095803D01*
X86428985Y135127756D01*
X86439896Y135147544D01*
X86440359Y135148351D01*
X86452938Y135173341D01*
X86462033Y135194301D01*
X86474147Y135221305D01*
X86482941Y135237641D01*
X86500615Y135271535D01*
X86522293Y135321376D01*
X86546191Y135382227D01*
X86570526Y135449152D01*
X86593513Y135517217D01*
X86613368Y135581485D01*
X86628308Y135637020D01*
X86630185Y135645039D01*
X86640039Y135684868D01*
X86649966Y135719586D01*
X86656059Y135737136D01*
X86662774Y135760565D01*
X86670286Y135797796D01*
X86677049Y135841088D01*
X86677487Y135844398D01*
X86690464Y135940911D01*
X86702006Y136019050D01*
X86712868Y136082000D01*
X86723805Y136132947D01*
X86735572Y136175076D01*
X86748924Y136211571D01*
X86764614Y136245619D01*
X86778879Y136272379D01*
X86793730Y136299632D01*
X86804356Y136319636D01*
X86822678Y136346034D01*
X86852867Y136380914D01*
X86889903Y136419179D01*
X86928765Y136455730D01*
X86964432Y136485472D01*
X86975869Y136493768D01*
X87009029Y136514440D01*
X87048735Y136536273D01*
X87089217Y136556442D01*
X87124702Y136572125D01*
X87149419Y136580496D01*
X87154511Y136581176D01*
X87171891Y136584362D01*
X87201462Y136592480D01*
X87219915Y136598260D01*
X87275601Y136609126D01*
X87344536Y136611513D01*
X87420359Y136606167D01*
G37*
X87420359Y136606167D02*
X87496712Y136593834D01*
X87567234Y136575260D01*
X87625566Y136551192D01*
X87626821Y136550522D01*
X87696424Y136509421D01*
X87757226Y136466346D01*
X87803519Y136425369D01*
X87806437Y136422291D01*
X87867370Y136350575D01*
X87915298Y136278426D01*
X87951959Y136201554D01*
X87979093Y136115671D01*
X87998435Y136016487D01*
X88009889Y135920243D01*
X88027675Y135787896D01*
X88055903Y135649148D01*
X88092165Y135515048D01*
X88110255Y135459757D01*
X88121464Y135425473D01*
X88132337Y135389331D01*
X88142160Y135358985D01*
X88157040Y135317592D01*
X88174162Y135272510D01*
X88190711Y135231100D01*
X88203873Y135200720D01*
X88206633Y135195067D01*
X88214763Y135178879D01*
X88230175Y135147912D01*
X88250558Y135106818D01*
X88270642Y135066233D01*
X88375338Y134878483D01*
X88497568Y134702518D01*
X88636059Y134539696D01*
X88789537Y134391375D01*
X88956729Y134258915D01*
X89134626Y134144668D01*
X89329196Y134043030D01*
X89524575Y133960733D01*
X89674630Y133911047D01*
X89724520Y133896395D01*
X89772765Y133881994D01*
X89811212Y133870287D01*
X89820902Y133867259D01*
X89863928Y133855624D01*
X89909156Y133846199D01*
X89918416Y133844718D01*
X89959982Y133837215D01*
X90006156Y133826884D01*
X90021348Y133822981D01*
X90057209Y133815075D01*
X90106046Y133806611D01*
X90159258Y133799027D01*
X90178455Y133796717D01*
X90230148Y133790164D01*
X90279766Y133782677D01*
X90319171Y133775524D01*
X90330145Y133773067D01*
X90346063Y133771234D01*
X90378814Y133769488D01*
X90428789Y133767825D01*
X90496380Y133766241D01*
X90581978Y133764730D01*
X90685975Y133763290D01*
X90808763Y133761916D01*
X90950733Y133760604D01*
X91112277Y133759349D01*
X91293786Y133758147D01*
X91495652Y133756995D01*
X91718268Y133755887D01*
X91962024Y133754819D01*
X92052904Y133754452D01*
X92241758Y133753661D01*
X92424752Y133752808D01*
X92600710Y133751902D01*
X92768455Y133750953D01*
X92926809Y133749970D01*
X93074595Y133748963D01*
X93210637Y133747941D01*
X93333757Y133746915D01*
X93442779Y133745892D01*
X93536524Y133744884D01*
X93613816Y133743899D01*
X93673478Y133742947D01*
X93714332Y133742037D01*
X93735203Y133741179D01*
X93737741Y133740828D01*
X93751553Y133737945D01*
X93783389Y133734175D01*
X93829638Y133729854D01*
X93886688Y133725321D01*
X93949023Y133721036D01*
X94019091Y133716012D01*
X94087556Y133710110D01*
X94149126Y133703856D01*
X94198507Y133697780D01*
X94225315Y133693472D01*
X94278929Y133684209D01*
X94338278Y133675699D01*
X94377004Y133671200D01*
X94419491Y133665959D01*
X94456692Y133659555D01*
X94479613Y133653664D01*
X94503705Y133646441D01*
X94540954Y133637220D01*
X94582545Y133628156D01*
X94638387Y133615687D01*
X94702517Y133599519D01*
X94771416Y133580741D01*
X94841562Y133560436D01*
X94909434Y133539692D01*
X94971511Y133519592D01*
X95024272Y133501224D01*
X95064196Y133485672D01*
X95087762Y133474023D01*
X95091267Y133471303D01*
X95111190Y133461429D01*
X95117612Y133460707D01*
X95135046Y133456333D01*
X95165170Y133445115D01*
X95201294Y133429909D01*
X95236731Y133413570D01*
X95264793Y133398955D01*
X95270889Y133395260D01*
X95293520Y133383158D01*
X95314229Y133374008D01*
X95341243Y133361818D01*
X95357569Y133352897D01*
X95376716Y133341991D01*
X95406332Y133326338D01*
X95420857Y133318941D01*
X95485284Y133282712D01*
X95560157Y133234312D01*
X95640894Y133177182D01*
X95722913Y133114763D01*
X95801630Y133050497D01*
X95872465Y132987824D01*
X95910152Y132951537D01*
X95978623Y132878625D01*
X96048698Y132796398D01*
X96116319Y132710130D01*
X96177425Y132625097D01*
X96227958Y132546573D01*
X96245932Y132515198D01*
X96273128Y132463968D01*
X96300501Y132409936D01*
X96326192Y132357062D01*
X96348344Y132309306D01*
X96365098Y132270626D01*
X96374597Y132244984D01*
X96376055Y132237905D01*
X96380636Y132221485D01*
X96391661Y132196821D01*
X96391773Y132196603D01*
X96407304Y132159552D01*
X96425161Y132106076D01*
X96444039Y132041117D01*
X96462635Y131969614D01*
X96479644Y131896507D01*
X96493762Y131826735D01*
X96501413Y131781287D01*
X96509636Y131727212D01*
X96518436Y131670550D01*
X96526038Y131622726D01*
X96526682Y131618763D01*
X96530686Y131583050D01*
X96534110Y131531402D01*
X96536684Y131469552D01*
X96538139Y131403234D01*
X96538362Y131370322D01*
X96538053Y131299596D01*
X96536650Y131245890D01*
X96533734Y131204569D01*
X96528884Y131170992D01*
X96521683Y131140524D01*
X96515839Y131121118D01*
X96471249Y131009511D01*
X96413405Y130913993D01*
X96340879Y130832493D01*
X96283958Y130785142D01*
X96234805Y130750985D01*
X96188339Y130724683D01*
X96136471Y130702201D01*
X96073879Y130680402D01*
X96015463Y130666047D01*
X95948938Y130656984D01*
X95880614Y130653395D01*
X95816800Y130655464D01*
X95763806Y130663376D01*
X95740539Y130670703D01*
X95710229Y130681408D01*
X95685779Y130686801D01*
X95682820Y130686956D01*
X95660168Y130692780D01*
X95625226Y130708312D01*
X95583325Y130730645D01*
X95539792Y130756869D01*
X95499957Y130784075D01*
X95487588Y130793518D01*
X95434188Y130841932D01*
X95382060Y130899745D01*
X95339236Y130957885D01*
X95332547Y130968665D01*
X95302298Y131023974D01*
X95280419Y131076904D01*
X95265132Y131133759D01*
X95254661Y131200841D01*
X95248516Y131266626D01*
X95241325Y131350902D01*
X95232843Y131432713D01*
X95223541Y131508698D01*
X95213894Y131575501D01*
X95204373Y131629761D01*
X95195452Y131668121D01*
X95189787Y131683773D01*
X95177441Y131714428D01*
X95168204Y131746970D01*
X95149876Y131799513D01*
X95117095Y131860335D01*
X95072866Y131924874D01*
X95020189Y131988566D01*
X94985172Y132025074D01*
X94927740Y132079737D01*
X94880473Y132121107D01*
X94844582Y132148203D01*
X94821279Y132160047D01*
X94817720Y132160511D01*
X94802708Y132166452D01*
X94782068Y132179823D01*
X94757681Y132194881D01*
X94722406Y132213089D01*
X94696636Y132224904D01*
X94654931Y132242923D01*
X94613482Y132260807D01*
X94593704Y132269328D01*
X94529084Y132293812D01*
X94449301Y132318856D01*
X94360741Y132342756D01*
X94269791Y132363805D01*
X94182838Y132380297D01*
X94171140Y132382178D01*
X94119402Y132390549D01*
X94068393Y132399245D01*
X94027199Y132406705D01*
X94018699Y132408352D01*
X93990741Y132412953D01*
X93954637Y132417176D01*
X93909495Y132421038D01*
X93854425Y132424555D01*
X93788536Y132427745D01*
X93710938Y132430625D01*
X93620740Y132433213D01*
X93517052Y132435525D01*
X93398984Y132437578D01*
X93265644Y132439389D01*
X93116143Y132440977D01*
X92949591Y132442357D01*
X92765095Y132443547D01*
X92561767Y132444564D01*
X92338716Y132445425D01*
X92095050Y132446148D01*
X92047487Y132446268D01*
X91813527Y132446908D01*
X91600169Y132447636D01*
X91406348Y132448474D01*
X91230996Y132449445D01*
X91073046Y132450572D01*
X90931430Y132451875D01*
X90805083Y132453379D01*
X90692938Y132455104D01*
X90593926Y132457074D01*
X90506982Y132459311D01*
X90431038Y132461836D01*
X90365028Y132464673D01*
X90307884Y132467843D01*
X90258540Y132471370D01*
X90215928Y132475274D01*
X90178982Y132479579D01*
X90146635Y132484307D01*
X90135116Y132486256D01*
X90098675Y132492082D01*
X90048461Y132499345D01*
X89992222Y132506948D01*
X89956339Y132511525D01*
X89905024Y132518551D01*
X89859345Y132525999D01*
X89825051Y132532863D01*
X89810067Y132537101D01*
X89785018Y132544024D01*
X89747338Y132551099D01*
X89712552Y132555888D01*
X89673032Y132561510D01*
X89640390Y132568169D01*
X89623572Y132573644D01*
X89603853Y132580785D01*
X89570255Y132590004D01*
X89531475Y132598990D01*
X89459919Y132615802D01*
X89379256Y132637413D01*
X89297117Y132661579D01*
X89221134Y132686058D01*
X89159969Y132708200D01*
X89123487Y132720945D01*
X89082828Y132732993D01*
X89076455Y132734652D01*
X89046957Y132744019D01*
X89027414Y132753738D01*
X89024350Y132756729D01*
X89009000Y132766096D01*
X89000226Y132767269D01*
X88980217Y132771641D01*
X88950109Y132782682D01*
X88935855Y132788939D01*
X88895949Y132807269D01*
X88851803Y132827316D01*
X88837629Y132833697D01*
X88795099Y132853447D01*
X88742337Y132878934D01*
X88684816Y132907407D01*
X88628007Y132936117D01*
X88577383Y132962314D01*
X88538416Y132983248D01*
X88526123Y132990229D01*
X88491165Y133010485D01*
X88457716Y133029526D01*
X88450279Y133033687D01*
X88402752Y133062024D01*
X88342813Y133100666D01*
X88275019Y133146448D01*
X88203930Y133196204D01*
X88134106Y133246765D01*
X88070105Y133294966D01*
X88039008Y133319348D01*
X87922765Y133417909D01*
X87803415Y133529681D01*
X87685492Y133649874D01*
X87573529Y133773696D01*
X87472060Y133896354D01*
X87393725Y134001410D01*
X87369599Y134033387D01*
X87348666Y134056846D01*
X87334994Y134067296D01*
X87333909Y134067465D01*
X87321581Y134064316D01*
X87305832Y134053467D01*
X87284630Y134032812D01*
X87255944Y134000248D01*
X87217745Y133953668D01*
X87187560Y133915775D01*
X87088698Y133798617D01*
X86974660Y133676941D01*
X86850050Y133555083D01*
X86719471Y133437377D01*
X86587529Y133328156D01*
X86467843Y133238147D01*
X86431739Y133212632D01*
X86400744Y133191346D01*
X86369800Y133171017D01*
X86333852Y133148377D01*
X86287843Y133120155D01*
X86247584Y133095715D01*
X86194861Y133063925D01*
X86152241Y133038783D01*
X86114317Y133017359D01*
X86075686Y132996722D01*
X86030940Y132973942D01*
X85974674Y132946089D01*
X85941985Y132930055D01*
X85886168Y132902667D01*
X85835044Y132877492D01*
X85792758Y132856576D01*
X85763456Y132841967D01*
X85754204Y132837275D01*
X85729057Y132826105D01*
X85711600Y132821444D01*
X85711576Y132821444D01*
X85694998Y132817258D01*
X85667481Y132806734D01*
X85655571Y132801541D01*
X85589632Y132773789D01*
X85509924Y132744060D01*
X85413879Y132711437D01*
X85313557Y132679530D01*
X85265550Y132665077D01*
X85215274Y132650971D01*
X85157144Y132635717D01*
X85085578Y132617822D01*
X85053518Y132609975D01*
X85006199Y132598176D01*
X84957767Y132585683D01*
X84928916Y132577974D01*
X84884212Y132567539D01*
X84834392Y132558459D01*
X84815149Y132555730D01*
X84768293Y132548475D01*
X84719325Y132538775D01*
X84701382Y132534531D01*
X84662027Y132526398D01*
X84612241Y132518653D01*
X84565945Y132513296D01*
X84512208Y132507304D01*
X84450921Y132498888D01*
X84398003Y132490324D01*
X84365221Y132484928D01*
X84329149Y132480012D01*
X84288687Y132475551D01*
X84242737Y132471521D01*
X84190201Y132467895D01*
X84129980Y132464649D01*
X84060974Y132461757D01*
X83982086Y132459195D01*
X83892216Y132456937D01*
X83790266Y132454959D01*
X83675137Y132453234D01*
X83545730Y132451739D01*
X83400947Y132450447D01*
X83239689Y132449334D01*
X83060858Y132448375D01*
X82863354Y132447544D01*
X82646079Y132446817D01*
X82474796Y132446337D01*
X82228369Y132445602D01*
X82002724Y132444727D01*
X81796978Y132443694D01*
X81610243Y132442486D01*
X81441634Y132441086D01*
X81290265Y132439476D01*
X81155249Y132437639D01*
X81035701Y132435557D01*
X80930735Y132433214D01*
X80839465Y132430591D01*
X80761004Y132427672D01*
X80694468Y132424438D01*
X80638969Y132420873D01*
X80593622Y132416959D01*
X80557541Y132412679D01*
X80530672Y132408184D01*
X80493021Y132401051D01*
X80443615Y132392291D01*
X80392108Y132383607D01*
X80383648Y132382230D01*
X80322212Y132371409D01*
X80259615Y132358851D01*
X80200621Y132345665D01*
X80149994Y132332958D01*
X80112499Y132321839D01*
X80096121Y132315343D01*
X80070604Y132305698D01*
X80038298Y132297469D01*
X80037189Y132297255D01*
X80002177Y132287838D01*
X79963454Y132273657D01*
X79955927Y132270383D01*
X79920335Y132254536D01*
X79877139Y132235630D01*
X79852735Y132225084D01*
X79817428Y132208825D01*
X79788581Y132193605D01*
X79776037Y132185420D01*
X79758162Y132173791D01*
X79750401Y132171346D01*
X79734510Y132164469D01*
X79706443Y132145775D01*
X79669925Y132118168D01*
X79628683Y132084554D01*
X79586442Y132047839D01*
X79556369Y132020036D01*
X79479241Y131931820D01*
X79416256Y131828586D01*
X79368528Y131712632D01*
X79337171Y131586258D01*
X79332846Y131559129D01*
X79327461Y131517062D01*
X79321104Y131459758D01*
X79314433Y131393588D01*
X79308109Y131324923D01*
X79305701Y131296712D01*
X79300134Y131231218D01*
X79295208Y131182430D01*
X79289774Y131145459D01*
X79282684Y131115416D01*
X79272789Y131087412D01*
X79258940Y131056558D01*
X79240408Y131018808D01*
X79177520Y130914999D01*
X79100050Y130827034D01*
X79008738Y130755539D01*
X78904324Y130701141D01*
X78837984Y130677651D01*
X78750580Y130659857D01*
X78654865Y130654509D01*
X78559515Y130661519D01*
X78473203Y130680797D01*
X78471277Y130681422D01*
X78367636Y130722122D01*
X78280730Y130771872D01*
X78206555Y130833436D01*
X78141482Y130909073D01*
X78107325Y130958226D01*
X78081022Y131004692D01*
X78058541Y131056560D01*
X78036742Y131119152D01*
X78026706Y131152354D01*
X78019629Y131183156D01*
X78015016Y131216449D01*
X78012373Y131257125D01*
X78011205Y131310077D01*
X78011009Y131373774D01*
X78011821Y131439684D01*
X78013912Y131504068D01*
X78017002Y131561090D01*
X78020813Y131604909D01*
X78022689Y131618763D01*
X78030067Y131665029D01*
X78038826Y131721309D01*
X78047190Y131776178D01*
X78047958Y131781287D01*
X78057066Y131833174D01*
X78069749Y131893292D01*
X78084926Y131957658D01*
X78101516Y132022288D01*
X78118439Y132083196D01*
X78134614Y132136399D01*
X78148962Y132177911D01*
X78160402Y132203750D01*
X78163850Y132208727D01*
X78172635Y132228312D01*
X78173315Y132234978D01*
X78178467Y132254250D01*
X78192683Y132288645D01*
X78214105Y132334572D01*
X78240875Y132388438D01*
X78271133Y132446653D01*
X78303022Y132505623D01*
X78334682Y132561758D01*
X78364255Y132611464D01*
X78384684Y132643472D01*
X78500022Y132798002D01*
X78633849Y132944422D01*
X78783870Y133080765D01*
X78947792Y133205064D01*
X79123323Y133315352D01*
X79240559Y133377607D01*
X79315510Y133413937D01*
X79372632Y133439995D01*
X79411587Y133455633D01*
X79431758Y133460707D01*
X79453194Y133467468D01*
X79458103Y133471303D01*
X79475432Y133481342D01*
X79510068Y133495704D01*
X79558376Y133513147D01*
X79616723Y133532429D01*
X79681471Y133552307D01*
X79748987Y133571539D01*
X79760638Y133574698D01*
X79805732Y133587196D01*
X79851139Y133600354D01*
X79874405Y133607409D01*
X79913256Y133617727D01*
X79960661Y133627872D01*
X79990290Y133633071D01*
X80029149Y133640213D01*
X80061379Y133648079D01*
X80076970Y133653635D01*
X80097001Y133659580D01*
X80131539Y133665794D01*
X80173475Y133671021D01*
X80177784Y133671440D01*
X80229676Y133677578D01*
X80284016Y133685932D01*
X80324056Y133693651D01*
X80357371Y133699346D01*
X80406924Y133705585D01*
X80467315Y133711791D01*
X80533140Y133717386D01*
X80572012Y133720146D01*
X80633301Y133724555D01*
X80687323Y133729197D01*
X80730238Y133733685D01*
X80758209Y133737626D01*
X80767041Y133739970D01*
X80779061Y133740898D01*
X80811573Y133741878D01*
X80863398Y133742898D01*
X80933358Y133743950D01*
X81020275Y133745023D01*
X81122970Y133746107D01*
X81240265Y133747192D01*
X81370982Y133748268D01*
X81513943Y133749326D01*
X81667969Y133750354D01*
X81831882Y133751344D01*
X82004504Y133752285D01*
X82184657Y133753167D01*
X82371161Y133753979D01*
X82453126Y133754306D01*
X82699099Y133755310D01*
X82923945Y133756343D01*
X83128208Y133757410D01*
X83312433Y133758518D01*
X83477163Y133759671D01*
X83622943Y133760877D01*
X83750315Y133762140D01*
X83859823Y133763468D01*
X83952012Y133764865D01*
X84027425Y133766338D01*
X84086606Y133767893D01*
X84130099Y133769536D01*
X84158447Y133771272D01*
X84172067Y133773072D01*
X84200129Y133778980D01*
X84243907Y133786133D01*
X84297550Y133793653D01*
X84355209Y133800664D01*
X84358791Y133801063D01*
X84412465Y133807408D01*
X84458558Y133813611D01*
X84492671Y133819027D01*
X84510405Y133823009D01*
X84511509Y133823517D01*
X84526827Y133828456D01*
X84557512Y133835430D01*
X84597526Y133843094D01*
X84606494Y133844656D01*
X84679767Y133858446D01*
X84751128Y133874137D01*
X84814821Y133890331D01*
X84865090Y133905628D01*
X84880159Y133911185D01*
X84917445Y133924200D01*
X84957717Y133935752D01*
X84961421Y133936658D01*
X85002019Y133947672D01*
X85046251Y133961704D01*
X85088313Y133976662D01*
X85122399Y133990457D01*
X85142708Y134000999D01*
X85144771Y134002694D01*
X85164693Y134012568D01*
X85171115Y134013290D01*
X85187793Y134017056D01*
X85218110Y134028762D01*
X85263432Y134049016D01*
X85325127Y134078429D01*
X85400237Y134115453D01*
X85491582Y134162734D01*
X85572421Y134208928D01*
X85649037Y134258088D01*
X85727717Y134314266D01*
X85814745Y134381517D01*
X85822800Y134387931D01*
X85964636Y134511164D01*
X86096973Y134646185D01*
X86216660Y134789279D01*
X86320544Y134936732D01*
X86391678Y135058199D01*
X86411739Y135095803D01*
X86428985Y135127756D01*
X86439896Y135147544D01*
X86440359Y135148351D01*
X86452938Y135173341D01*
X86462033Y135194301D01*
X86474147Y135221305D01*
X86482941Y135237641D01*
X86500615Y135271535D01*
X86522293Y135321376D01*
X86546191Y135382227D01*
X86570526Y135449152D01*
X86593513Y135517217D01*
X86613368Y135581485D01*
X86628308Y135637020D01*
X86630185Y135645039D01*
X86640039Y135684868D01*
X86649966Y135719586D01*
X86656059Y135737136D01*
X86662774Y135760565D01*
X86670286Y135797796D01*
X86677049Y135841088D01*
X86677487Y135844398D01*
X86690464Y135940911D01*
X86702006Y136019050D01*
X86712868Y136082000D01*
X86723805Y136132947D01*
X86735572Y136175076D01*
X86748924Y136211571D01*
X86764614Y136245619D01*
X86778879Y136272379D01*
X86793730Y136299632D01*
X86804356Y136319636D01*
X86822678Y136346034D01*
X86852867Y136380914D01*
X86889903Y136419179D01*
X86928765Y136455730D01*
X86964432Y136485472D01*
X86975869Y136493768D01*
X87009029Y136514440D01*
X87048735Y136536273D01*
X87089217Y136556442D01*
X87124702Y136572125D01*
X87149419Y136580496D01*
X87154511Y136581176D01*
X87171891Y136584362D01*
X87201462Y136592480D01*
X87219915Y136598260D01*
X87275601Y136609126D01*
X87344536Y136611513D01*
X87420359Y136606167D01*
D13*
X39650000Y158025000D02*
X33250000Y158025000D01*
X33250000Y161475000D02*
X39650000Y161475000D01*
X39650000Y158025000D02*
X39650000Y161475000D01*
X33250000Y161475000D02*
X33250000Y158025000D01*
G36*
X34450000Y157750000D02*
G01*
X33250000Y157750000D01*
X33250000Y158450000D01*
X34450000Y158450000D01*
X34450000Y157750000D01*
G37*
X34450000Y157750000D02*
X33250000Y157750000D01*
X33250000Y158450000D01*
X34450000Y158450000D01*
X34450000Y157750000D01*
D10*
X234700000Y120900000D02*
X234700000Y119700000D01*
X222700000Y120900000D02*
X222700000Y119700000D01*
X222700000Y110900000D02*
X222700000Y112100000D01*
X234700000Y110900000D02*
X234700000Y112100000D01*
X234700000Y117100000D02*
X234700000Y114700000D01*
X223700000Y121900000D02*
X233700000Y121900000D01*
X222700000Y114700000D02*
X222700000Y117100000D01*
X233700000Y109900000D02*
X223700000Y109900000D01*
X233700000Y121900000D02*
G75*
G02*
X234700000Y120900000I0J-1000000D01*
G01*
X222700000Y120900000D02*
G75*
G02*
X223700000Y121900000I1000000J0D01*
G01*
X223700000Y109900000D02*
G75*
G02*
X222700000Y110900000I0J1000000D01*
G01*
X234700000Y110900000D02*
G75*
G02*
X233700000Y109900000I-1000000J0D01*
G01*
X216700000Y120900000D02*
X216700000Y119700000D01*
X204700000Y120900000D02*
X204700000Y119700000D01*
X204700000Y110900000D02*
X204700000Y112100000D01*
X216700000Y110900000D02*
X216700000Y112100000D01*
X216700000Y117100000D02*
X216700000Y114700000D01*
X205700000Y121900000D02*
X215700000Y121900000D01*
X204700000Y114700000D02*
X204700000Y117100000D01*
X215700000Y109900000D02*
X205700000Y109900000D01*
X215700000Y121900000D02*
G75*
G02*
X216700000Y120900000I0J-1000000D01*
G01*
X204700000Y120900000D02*
G75*
G02*
X205700000Y121900000I1000000J0D01*
G01*
X205700000Y109900000D02*
G75*
G02*
X204700000Y110900000I0J1000000D01*
G01*
X216700000Y110900000D02*
G75*
G02*
X215700000Y109900000I-1000000J0D01*
G01*
X198700000Y120900000D02*
X198700000Y119700000D01*
X186700000Y120900000D02*
X186700000Y119700000D01*
X186700000Y110900000D02*
X186700000Y112100000D01*
X198700000Y110900000D02*
X198700000Y112100000D01*
X198700000Y117100000D02*
X198700000Y114700000D01*
X187700000Y121900000D02*
X197700000Y121900000D01*
X186700000Y114700000D02*
X186700000Y117100000D01*
X197700000Y109900000D02*
X187700000Y109900000D01*
X197700000Y121900000D02*
G75*
G02*
X198700000Y120900000I0J-1000000D01*
G01*
X186700000Y120900000D02*
G75*
G02*
X187700000Y121900000I1000000J0D01*
G01*
X187700000Y109900000D02*
G75*
G02*
X186700000Y110900000I0J1000000D01*
G01*
X198700000Y110900000D02*
G75*
G02*
X197700000Y109900000I-1000000J0D01*
G01*
X162700000Y120900000D02*
X162700000Y119700000D01*
X150700000Y120900000D02*
X150700000Y119700000D01*
X150700000Y110900000D02*
X150700000Y112100000D01*
X162700000Y110900000D02*
X162700000Y112100000D01*
X162700000Y117100000D02*
X162700000Y114700000D01*
X151700000Y121900000D02*
X161700000Y121900000D01*
X150700000Y114700000D02*
X150700000Y117100000D01*
X161700000Y109900000D02*
X151700000Y109900000D01*
X161700000Y121900000D02*
G75*
G02*
X162700000Y120900000I0J-1000000D01*
G01*
X150700000Y120900000D02*
G75*
G02*
X151700000Y121900000I1000000J0D01*
G01*
X151700000Y109900000D02*
G75*
G02*
X150700000Y110900000I0J1000000D01*
G01*
X162700000Y110900000D02*
G75*
G02*
X161700000Y109900000I-1000000J0D01*
G01*
X144700000Y120900000D02*
X144700000Y119700000D01*
X132700000Y120900000D02*
X132700000Y119700000D01*
X132700000Y110900000D02*
X132700000Y112100000D01*
X144700000Y110900000D02*
X144700000Y112100000D01*
X144700000Y117100000D02*
X144700000Y114700000D01*
X133700000Y121900000D02*
X143700000Y121900000D01*
X132700000Y114700000D02*
X132700000Y117100000D01*
X143700000Y109900000D02*
X133700000Y109900000D01*
X143700000Y121900000D02*
G75*
G02*
X144700000Y120900000I0J-1000000D01*
G01*
X132700000Y120900000D02*
G75*
G02*
X133700000Y121900000I1000000J0D01*
G01*
X133700000Y109900000D02*
G75*
G02*
X132700000Y110900000I0J1000000D01*
G01*
X144700000Y110900000D02*
G75*
G02*
X143700000Y109900000I-1000000J0D01*
G01*
X108700000Y120900000D02*
X108700000Y119700000D01*
X96700000Y120900000D02*
X96700000Y119700000D01*
X96700000Y110900000D02*
X96700000Y112100000D01*
X108700000Y110900000D02*
X108700000Y112100000D01*
X108700000Y117100000D02*
X108700000Y114700000D01*
X97700000Y121900000D02*
X107700000Y121900000D01*
X96700000Y114700000D02*
X96700000Y117100000D01*
X107700000Y109900000D02*
X97700000Y109900000D01*
X107700000Y121900000D02*
G75*
G02*
X108700000Y120900000I0J-1000000D01*
G01*
X96700000Y120900000D02*
G75*
G02*
X97700000Y121900000I1000000J0D01*
G01*
X97700000Y109900000D02*
G75*
G02*
X96700000Y110900000I0J1000000D01*
G01*
X108700000Y110900000D02*
G75*
G02*
X107700000Y109900000I-1000000J0D01*
G01*
X90700000Y120900000D02*
X90700000Y119700000D01*
X78700000Y120900000D02*
X78700000Y119700000D01*
X78700000Y110900000D02*
X78700000Y112100000D01*
X90700000Y110900000D02*
X90700000Y112100000D01*
X90700000Y117100000D02*
X90700000Y114700000D01*
X79700000Y121900000D02*
X89700000Y121900000D01*
X78700000Y114700000D02*
X78700000Y117100000D01*
X89700000Y109900000D02*
X79700000Y109900000D01*
X89700000Y121900000D02*
G75*
G02*
X90700000Y120900000I0J-1000000D01*
G01*
X78700000Y120900000D02*
G75*
G02*
X79700000Y121900000I1000000J0D01*
G01*
X79700000Y109900000D02*
G75*
G02*
X78700000Y110900000I0J1000000D01*
G01*
X90700000Y110900000D02*
G75*
G02*
X89700000Y109900000I-1000000J0D01*
G01*
X72700000Y120900000D02*
X72700000Y119700000D01*
X60700000Y120900000D02*
X60700000Y119700000D01*
X60700000Y110900000D02*
X60700000Y112100000D01*
X72700000Y110900000D02*
X72700000Y112100000D01*
X72700000Y117100000D02*
X72700000Y114700000D01*
X61700000Y121900000D02*
X71700000Y121900000D01*
X60700000Y114700000D02*
X60700000Y117100000D01*
X71700000Y109900000D02*
X61700000Y109900000D01*
X71700000Y121900000D02*
G75*
G02*
X72700000Y120900000I0J-1000000D01*
G01*
X60700000Y120900000D02*
G75*
G02*
X61700000Y121900000I1000000J0D01*
G01*
X61700000Y109900000D02*
G75*
G02*
X60700000Y110900000I0J1000000D01*
G01*
X72700000Y110900000D02*
G75*
G02*
X71700000Y109900000I-1000000J0D01*
G01*
X36700000Y120900000D02*
X36700000Y119700000D01*
X24700000Y120900000D02*
X24700000Y119700000D01*
X24700000Y110900000D02*
X24700000Y112100000D01*
X36700000Y110900000D02*
X36700000Y112100000D01*
X36700000Y117100000D02*
X36700000Y114700000D01*
X25700000Y121900000D02*
X35700000Y121900000D01*
X24700000Y114700000D02*
X24700000Y117100000D01*
X35700000Y109900000D02*
X25700000Y109900000D01*
X35700000Y121900000D02*
G75*
G02*
X36700000Y120900000I0J-1000000D01*
G01*
X24700000Y120900000D02*
G75*
G02*
X25700000Y121900000I1000000J0D01*
G01*
X25700000Y109900000D02*
G75*
G02*
X24700000Y110900000I0J1000000D01*
G01*
X36700000Y110900000D02*
G75*
G02*
X35700000Y109900000I-1000000J0D01*
G01*
X17700000Y109900000D02*
X16500000Y109900000D01*
X17700000Y121900000D02*
X16500000Y121900000D01*
X7700000Y121900000D02*
X8900000Y121900000D01*
X7700000Y109900000D02*
X8900000Y109900000D01*
X13900000Y109900000D02*
X11500000Y109900000D01*
X18700000Y120900000D02*
X18700000Y110900000D01*
X11500000Y121900000D02*
X13900000Y121900000D01*
X6700000Y110900000D02*
X6700000Y120900000D01*
X18700000Y110900000D02*
G75*
G02*
X17700000Y109900000I-1000000J0D01*
G01*
X17700000Y121900000D02*
G75*
G02*
X18700000Y120900000I0J-1000000D01*
G01*
X6700000Y120900000D02*
G75*
G02*
X7700000Y121900000I1000000J0D01*
G01*
X7700000Y109900000D02*
G75*
G02*
X6700000Y110900000I0J1000000D01*
G01*
X261700000Y105400000D02*
X261700000Y95400000D01*
X256900000Y94400000D02*
X254500000Y94400000D01*
X249700000Y95400000D02*
X249700000Y105400000D01*
X254500000Y106400000D02*
X256900000Y106400000D01*
X260700000Y106400000D02*
X259500000Y106400000D01*
X260700000Y94400000D02*
X259500000Y94400000D01*
X250700000Y94400000D02*
X251900000Y94400000D01*
X250700000Y106400000D02*
X251900000Y106400000D01*
X260700000Y106400000D02*
G75*
G02*
X261700000Y105400000I0J-1000000D01*
G01*
X261700000Y95400000D02*
G75*
G02*
X260700000Y94400000I-1000000J0D01*
G01*
X250700000Y94400000D02*
G75*
G02*
X249700000Y95400000I0J1000000D01*
G01*
X249700000Y105400000D02*
G75*
G02*
X250700000Y106400000I1000000J0D01*
G01*
X243700000Y105400000D02*
X243700000Y95400000D01*
X238900000Y94400000D02*
X236500000Y94400000D01*
X231700000Y95400000D02*
X231700000Y105400000D01*
X236500000Y106400000D02*
X238900000Y106400000D01*
X242700000Y106400000D02*
X241500000Y106400000D01*
X242700000Y94400000D02*
X241500000Y94400000D01*
X232700000Y94400000D02*
X233900000Y94400000D01*
X232700000Y106400000D02*
X233900000Y106400000D01*
X242700000Y106400000D02*
G75*
G02*
X243700000Y105400000I0J-1000000D01*
G01*
X243700000Y95400000D02*
G75*
G02*
X242700000Y94400000I-1000000J0D01*
G01*
X232700000Y94400000D02*
G75*
G02*
X231700000Y95400000I0J1000000D01*
G01*
X231700000Y105400000D02*
G75*
G02*
X232700000Y106400000I1000000J0D01*
G01*
X224700000Y94400000D02*
X214700000Y94400000D01*
X213700000Y99200000D02*
X213700000Y101600000D01*
X214700000Y106400000D02*
X224700000Y106400000D01*
X225700000Y101600000D02*
X225700000Y99200000D01*
X225700000Y95400000D02*
X225700000Y96600000D01*
X213700000Y95400000D02*
X213700000Y96600000D01*
X213700000Y105400000D02*
X213700000Y104200000D01*
X225700000Y105400000D02*
X225700000Y104200000D01*
X225700000Y95400000D02*
G75*
G02*
X224700000Y94400000I-1000000J0D01*
G01*
X214700000Y94400000D02*
G75*
G02*
X213700000Y95400000I0J1000000D01*
G01*
X213700000Y105400000D02*
G75*
G02*
X214700000Y106400000I1000000J0D01*
G01*
X224700000Y106400000D02*
G75*
G02*
X225700000Y105400000I0J-1000000D01*
G01*
X206700000Y94400000D02*
X196700000Y94400000D01*
X195700000Y99200000D02*
X195700000Y101600000D01*
X196700000Y106400000D02*
X206700000Y106400000D01*
X207700000Y101600000D02*
X207700000Y99200000D01*
X207700000Y95400000D02*
X207700000Y96600000D01*
X195700000Y95400000D02*
X195700000Y96600000D01*
X195700000Y105400000D02*
X195700000Y104200000D01*
X207700000Y105400000D02*
X207700000Y104200000D01*
X207700000Y95400000D02*
G75*
G02*
X206700000Y94400000I-1000000J0D01*
G01*
X196700000Y94400000D02*
G75*
G02*
X195700000Y95400000I0J1000000D01*
G01*
X195700000Y105400000D02*
G75*
G02*
X196700000Y106400000I1000000J0D01*
G01*
X206700000Y106400000D02*
G75*
G02*
X207700000Y105400000I0J-1000000D01*
G01*
X188700000Y94400000D02*
X178700000Y94400000D01*
X177700000Y99200000D02*
X177700000Y101600000D01*
X178700000Y106400000D02*
X188700000Y106400000D01*
X189700000Y101600000D02*
X189700000Y99200000D01*
X189700000Y95400000D02*
X189700000Y96600000D01*
X177700000Y95400000D02*
X177700000Y96600000D01*
X177700000Y105400000D02*
X177700000Y104200000D01*
X189700000Y105400000D02*
X189700000Y104200000D01*
X189700000Y95400000D02*
G75*
G02*
X188700000Y94400000I-1000000J0D01*
G01*
X178700000Y94400000D02*
G75*
G02*
X177700000Y95400000I0J1000000D01*
G01*
X177700000Y105400000D02*
G75*
G02*
X178700000Y106400000I1000000J0D01*
G01*
X188700000Y106400000D02*
G75*
G02*
X189700000Y105400000I0J-1000000D01*
G01*
X170700000Y94400000D02*
X160700000Y94400000D01*
X159700000Y99200000D02*
X159700000Y101600000D01*
X160700000Y106400000D02*
X170700000Y106400000D01*
X171700000Y101600000D02*
X171700000Y99200000D01*
X171700000Y95400000D02*
X171700000Y96600000D01*
X159700000Y95400000D02*
X159700000Y96600000D01*
X159700000Y105400000D02*
X159700000Y104200000D01*
X171700000Y105400000D02*
X171700000Y104200000D01*
X171700000Y95400000D02*
G75*
G02*
X170700000Y94400000I-1000000J0D01*
G01*
X160700000Y94400000D02*
G75*
G02*
X159700000Y95400000I0J1000000D01*
G01*
X159700000Y105400000D02*
G75*
G02*
X160700000Y106400000I1000000J0D01*
G01*
X170700000Y106400000D02*
G75*
G02*
X171700000Y105400000I0J-1000000D01*
G01*
X152700000Y94400000D02*
X142700000Y94400000D01*
X141700000Y99200000D02*
X141700000Y101600000D01*
X142700000Y106400000D02*
X152700000Y106400000D01*
X153700000Y101600000D02*
X153700000Y99200000D01*
X153700000Y95400000D02*
X153700000Y96600000D01*
X141700000Y95400000D02*
X141700000Y96600000D01*
X141700000Y105400000D02*
X141700000Y104200000D01*
X153700000Y105400000D02*
X153700000Y104200000D01*
X153700000Y95400000D02*
G75*
G02*
X152700000Y94400000I-1000000J0D01*
G01*
X142700000Y94400000D02*
G75*
G02*
X141700000Y95400000I0J1000000D01*
G01*
X141700000Y105400000D02*
G75*
G02*
X142700000Y106400000I1000000J0D01*
G01*
X152700000Y106400000D02*
G75*
G02*
X153700000Y105400000I0J-1000000D01*
G01*
X134700000Y94400000D02*
X124700000Y94400000D01*
X123700000Y99200000D02*
X123700000Y101600000D01*
X124700000Y106400000D02*
X134700000Y106400000D01*
X135700000Y101600000D02*
X135700000Y99200000D01*
X135700000Y95400000D02*
X135700000Y96600000D01*
X123700000Y95400000D02*
X123700000Y96600000D01*
X123700000Y105400000D02*
X123700000Y104200000D01*
X135700000Y105400000D02*
X135700000Y104200000D01*
X135700000Y95400000D02*
G75*
G02*
X134700000Y94400000I-1000000J0D01*
G01*
X124700000Y94400000D02*
G75*
G02*
X123700000Y95400000I0J1000000D01*
G01*
X123700000Y105400000D02*
G75*
G02*
X124700000Y106400000I1000000J0D01*
G01*
X134700000Y106400000D02*
G75*
G02*
X135700000Y105400000I0J-1000000D01*
G01*
X116700000Y94400000D02*
X106700000Y94400000D01*
X105700000Y99200000D02*
X105700000Y101600000D01*
X106700000Y106400000D02*
X116700000Y106400000D01*
X117700000Y101600000D02*
X117700000Y99200000D01*
X117700000Y95400000D02*
X117700000Y96600000D01*
X105700000Y95400000D02*
X105700000Y96600000D01*
X105700000Y105400000D02*
X105700000Y104200000D01*
X117700000Y105400000D02*
X117700000Y104200000D01*
X117700000Y95400000D02*
G75*
G02*
X116700000Y94400000I-1000000J0D01*
G01*
X106700000Y94400000D02*
G75*
G02*
X105700000Y95400000I0J1000000D01*
G01*
X105700000Y105400000D02*
G75*
G02*
X106700000Y106400000I1000000J0D01*
G01*
X116700000Y106400000D02*
G75*
G02*
X117700000Y105400000I0J-1000000D01*
G01*
X98700000Y94400000D02*
X88700000Y94400000D01*
X87700000Y99200000D02*
X87700000Y101600000D01*
X88700000Y106400000D02*
X98700000Y106400000D01*
X99700000Y101600000D02*
X99700000Y99200000D01*
X99700000Y95400000D02*
X99700000Y96600000D01*
X87700000Y95400000D02*
X87700000Y96600000D01*
X87700000Y105400000D02*
X87700000Y104200000D01*
X99700000Y105400000D02*
X99700000Y104200000D01*
X99700000Y95400000D02*
G75*
G02*
X98700000Y94400000I-1000000J0D01*
G01*
X88700000Y94400000D02*
G75*
G02*
X87700000Y95400000I0J1000000D01*
G01*
X87700000Y105400000D02*
G75*
G02*
X88700000Y106400000I1000000J0D01*
G01*
X98700000Y106400000D02*
G75*
G02*
X99700000Y105400000I0J-1000000D01*
G01*
X80700000Y94400000D02*
X70700000Y94400000D01*
X69700000Y99200000D02*
X69700000Y101600000D01*
X70700000Y106400000D02*
X80700000Y106400000D01*
X81700000Y101600000D02*
X81700000Y99200000D01*
X81700000Y95400000D02*
X81700000Y96600000D01*
X69700000Y95400000D02*
X69700000Y96600000D01*
X69700000Y105400000D02*
X69700000Y104200000D01*
X81700000Y105400000D02*
X81700000Y104200000D01*
X81700000Y95400000D02*
G75*
G02*
X80700000Y94400000I-1000000J0D01*
G01*
X70700000Y94400000D02*
G75*
G02*
X69700000Y95400000I0J1000000D01*
G01*
X69700000Y105400000D02*
G75*
G02*
X70700000Y106400000I1000000J0D01*
G01*
X80700000Y106400000D02*
G75*
G02*
X81700000Y105400000I0J-1000000D01*
G01*
X62700000Y94400000D02*
X52700000Y94400000D01*
X51700000Y99200000D02*
X51700000Y101600000D01*
X52700000Y106400000D02*
X62700000Y106400000D01*
X63700000Y101600000D02*
X63700000Y99200000D01*
X63700000Y95400000D02*
X63700000Y96600000D01*
X51700000Y95400000D02*
X51700000Y96600000D01*
X51700000Y105400000D02*
X51700000Y104200000D01*
X63700000Y105400000D02*
X63700000Y104200000D01*
X63700000Y95400000D02*
G75*
G02*
X62700000Y94400000I-1000000J0D01*
G01*
X52700000Y94400000D02*
G75*
G02*
X51700000Y95400000I0J1000000D01*
G01*
X51700000Y105400000D02*
G75*
G02*
X52700000Y106400000I1000000J0D01*
G01*
X62700000Y106400000D02*
G75*
G02*
X63700000Y105400000I0J-1000000D01*
G01*
X44700000Y94400000D02*
X34700000Y94400000D01*
X33700000Y99200000D02*
X33700000Y101600000D01*
X34700000Y106400000D02*
X44700000Y106400000D01*
X45700000Y101600000D02*
X45700000Y99200000D01*
X45700000Y95400000D02*
X45700000Y96600000D01*
X33700000Y95400000D02*
X33700000Y96600000D01*
X33700000Y105400000D02*
X33700000Y104200000D01*
X45700000Y105400000D02*
X45700000Y104200000D01*
X45700000Y95400000D02*
G75*
G02*
X44700000Y94400000I-1000000J0D01*
G01*
X34700000Y94400000D02*
G75*
G02*
X33700000Y95400000I0J1000000D01*
G01*
X33700000Y105400000D02*
G75*
G02*
X34700000Y106400000I1000000J0D01*
G01*
X44700000Y106400000D02*
G75*
G02*
X45700000Y105400000I0J-1000000D01*
G01*
X26700000Y94400000D02*
X16700000Y94400000D01*
X15700000Y99200000D02*
X15700000Y101600000D01*
X16700000Y106400000D02*
X26700000Y106400000D01*
X27700000Y101600000D02*
X27700000Y99200000D01*
X27700000Y95400000D02*
X27700000Y96600000D01*
X15700000Y95400000D02*
X15700000Y96600000D01*
X15700000Y105400000D02*
X15700000Y104200000D01*
X27700000Y105400000D02*
X27700000Y104200000D01*
X27700000Y95400000D02*
G75*
G02*
X26700000Y94400000I-1000000J0D01*
G01*
X16700000Y94400000D02*
G75*
G02*
X15700000Y95400000I0J1000000D01*
G01*
X15700000Y105400000D02*
G75*
G02*
X16700000Y106400000I1000000J0D01*
G01*
X26700000Y106400000D02*
G75*
G02*
X27700000Y105400000I0J-1000000D01*
G01*
X9700000Y105400000D02*
X9700000Y95400000D01*
X4900000Y94400000D02*
X2500000Y94400000D01*
X-2300000Y95400000D02*
X-2300000Y105400000D01*
X2500000Y106400000D02*
X4900000Y106400000D01*
X8700000Y106400000D02*
X7500000Y106400000D01*
X8700000Y94400000D02*
X7500000Y94400000D01*
X-1300000Y94400000D02*
X-100000Y94400000D01*
X-1300000Y106400000D02*
X-100000Y106400000D01*
X8700000Y106400000D02*
G75*
G02*
X9700000Y105400000I0J-1000000D01*
G01*
X9700000Y95400000D02*
G75*
G02*
X8700000Y94400000I-1000000J0D01*
G01*
X-1300000Y94400000D02*
G75*
G02*
X-2300000Y95400000I0J1000000D01*
G01*
X-2300000Y105400000D02*
G75*
G02*
X-1300000Y106400000I1000000J0D01*
G01*
X-8305000Y105400000D02*
X-8305000Y95400000D01*
X-13105000Y94400000D02*
X-15505000Y94400000D01*
X-20305000Y95400000D02*
X-20305000Y105400000D01*
X-15505000Y106400000D02*
X-13105000Y106400000D01*
X-9305000Y106400000D02*
X-10505000Y106400000D01*
X-9305000Y94400000D02*
X-10505000Y94400000D01*
X-19305000Y94400000D02*
X-18105000Y94400000D01*
X-19305000Y106400000D02*
X-18105000Y106400000D01*
X-9305000Y106400000D02*
G75*
G02*
X-8305000Y105400000I0J-1000000D01*
G01*
X-8305000Y95400000D02*
G75*
G02*
X-9305000Y94400000I-1000000J0D01*
G01*
X-19305000Y94400000D02*
G75*
G02*
X-20305000Y95400000I0J1000000D01*
G01*
X-20305000Y105400000D02*
G75*
G02*
X-19305000Y106400000I1000000J0D01*
G01*
D13*
X91325000Y184830000D02*
X91325000Y186290000D01*
X97675000Y182170000D02*
X97735000Y182170000D01*
X91265000Y182170000D02*
X91325000Y182170000D01*
X97735000Y182170000D02*
X97735000Y184830000D01*
X97675000Y184830000D02*
X97735000Y184830000D01*
X91265000Y184830000D02*
X91325000Y184830000D01*
X91265000Y182170000D02*
X91265000Y184830000D01*
D10*
X-11150000Y138900000D02*
X-11150000Y142650000D01*
X550000Y138900000D02*
X550000Y142650000D01*
X550000Y138900000D02*
X-11150000Y138900000D01*
X-11150000Y147150000D02*
X-11150000Y150900000D01*
X-11150000Y150900000D02*
X-8550000Y150900000D01*
X-7050000Y150900000D02*
X-3550000Y150900000D01*
X-2050000Y150900000D02*
X550000Y150900000D01*
X550000Y150900000D02*
X550000Y147150000D01*
X81700000Y159050000D02*
X77950000Y159050000D01*
X81700000Y170750000D02*
X77950000Y170750000D01*
X81700000Y170750000D02*
X81700000Y159050000D01*
X73450000Y159050000D02*
X69700000Y159050000D01*
X69700000Y159050000D02*
X69700000Y161650000D01*
X69700000Y163150000D02*
X69700000Y166650000D01*
X69700000Y168150000D02*
X69700000Y170750000D01*
X69700000Y170750000D02*
X73450000Y170750000D01*
X42850000Y138900000D02*
X42850000Y142650000D01*
X54550000Y138900000D02*
X54550000Y142650000D01*
X54550000Y138900000D02*
X42850000Y138900000D01*
X42850000Y147150000D02*
X42850000Y150900000D01*
X42850000Y150900000D02*
X45450000Y150900000D01*
X46950000Y150900000D02*
X50450000Y150900000D01*
X51950000Y150900000D02*
X54550000Y150900000D01*
X54550000Y150900000D02*
X54550000Y147150000D01*
X15850000Y158900000D02*
X15850000Y162650000D01*
X27550000Y158900000D02*
X27550000Y162650000D01*
X27550000Y158900000D02*
X15850000Y158900000D01*
X15850000Y167150000D02*
X15850000Y170900000D01*
X15850000Y170900000D02*
X18450000Y170900000D01*
X19950000Y170900000D02*
X23450000Y170900000D01*
X24950000Y170900000D02*
X27550000Y170900000D01*
X27550000Y170900000D02*
X27550000Y167150000D01*
D13*
X31850000Y153150000D02*
G75*
G03*
X31850000Y153150000I-700000J0D01*
G01*
X66650000Y168150000D02*
G75*
G03*
X66650000Y168150000I-700000J0D01*
G01*
X67650000Y154170000D02*
G75*
G03*
X67650000Y154170000I-700000J0D01*
G01*
X55400000Y161800000D02*
G75*
G03*
X55400000Y161800000I-700000J0D01*
G01*
X55400000Y159250000D02*
G75*
G03*
X55400000Y159250000I-700000J0D01*
G01*
D10*
X-20063334Y128722620D02*
X-20063334Y128008334D01*
X-20110953Y127865477D01*
X-20206191Y127770239D01*
X-20349048Y127722620D01*
X-20444286Y127722620D01*
X-19444286Y128294048D02*
X-19539524Y128341667D01*
X-19587143Y128389286D01*
X-19634762Y128484524D01*
X-19634762Y128532143D01*
X-19587143Y128627381D01*
X-19539524Y128675000D01*
X-19444286Y128722620D01*
X-19253810Y128722620D01*
X-19158572Y128675000D01*
X-19110953Y128627381D01*
X-19063334Y128532143D01*
X-19063334Y128484524D01*
X-19110953Y128389286D01*
X-19158572Y128341667D01*
X-19253810Y128294048D01*
X-19444286Y128294048D01*
X-19539524Y128246429D01*
X-19587143Y128198810D01*
X-19634762Y128103572D01*
X-19634762Y127913096D01*
X-19587143Y127817858D01*
X-19539524Y127770239D01*
X-19444286Y127722620D01*
X-19253810Y127722620D01*
X-19158572Y127770239D01*
X-19110953Y127817858D01*
X-19063334Y127913096D01*
X-19063334Y128103572D01*
X-19110953Y128198810D01*
X-19158572Y128246429D01*
X-19253810Y128294048D01*
X40166666Y160297620D02*
X40166666Y159583334D01*
X40119047Y159440477D01*
X40023809Y159345239D01*
X39880952Y159297620D01*
X39785714Y159297620D01*
X41166666Y159297620D02*
X40595238Y159297620D01*
X40880952Y159297620D02*
X40880952Y160297620D01*
X40785714Y160154762D01*
X40690476Y160059524D01*
X40595238Y160011905D01*
X226890476Y115495239D02*
X227033333Y115447620D01*
X227271428Y115447620D01*
X227366666Y115495239D01*
X227414285Y115542858D01*
X227461904Y115638096D01*
X227461904Y115733334D01*
X227414285Y115828572D01*
X227366666Y115876191D01*
X227271428Y115923810D01*
X227080952Y115971429D01*
X226985714Y116019048D01*
X226938095Y116066667D01*
X226890476Y116161905D01*
X226890476Y116257143D01*
X226938095Y116352381D01*
X226985714Y116400000D01*
X227080952Y116447620D01*
X227319047Y116447620D01*
X227461904Y116400000D01*
X227795238Y116447620D02*
X228033333Y115447620D01*
X228223809Y116161905D01*
X228414285Y115447620D01*
X228652380Y116447620D01*
X228985714Y116352381D02*
X229033333Y116400000D01*
X229128571Y116447620D01*
X229366666Y116447620D01*
X229461904Y116400000D01*
X229509523Y116352381D01*
X229557142Y116257143D01*
X229557142Y116161905D01*
X229509523Y116019048D01*
X228938095Y115447620D01*
X229557142Y115447620D01*
X230414285Y116447620D02*
X230223809Y116447620D01*
X230128571Y116400000D01*
X230080952Y116352381D01*
X229985714Y116209524D01*
X229938095Y116019048D01*
X229938095Y115638096D01*
X229985714Y115542858D01*
X230033333Y115495239D01*
X230128571Y115447620D01*
X230319047Y115447620D01*
X230414285Y115495239D01*
X230461904Y115542858D01*
X230509523Y115638096D01*
X230509523Y115876191D01*
X230461904Y115971429D01*
X230414285Y116019048D01*
X230319047Y116066667D01*
X230128571Y116066667D01*
X230033333Y116019048D01*
X229985714Y115971429D01*
X229938095Y115876191D01*
X208890476Y115495239D02*
X209033333Y115447620D01*
X209271428Y115447620D01*
X209366666Y115495239D01*
X209414285Y115542858D01*
X209461904Y115638096D01*
X209461904Y115733334D01*
X209414285Y115828572D01*
X209366666Y115876191D01*
X209271428Y115923810D01*
X209080952Y115971429D01*
X208985714Y116019048D01*
X208938095Y116066667D01*
X208890476Y116161905D01*
X208890476Y116257143D01*
X208938095Y116352381D01*
X208985714Y116400000D01*
X209080952Y116447620D01*
X209319047Y116447620D01*
X209461904Y116400000D01*
X209795238Y116447620D02*
X210033333Y115447620D01*
X210223809Y116161905D01*
X210414285Y115447620D01*
X210652380Y116447620D01*
X210985714Y116352381D02*
X211033333Y116400000D01*
X211128571Y116447620D01*
X211366666Y116447620D01*
X211461904Y116400000D01*
X211509523Y116352381D01*
X211557142Y116257143D01*
X211557142Y116161905D01*
X211509523Y116019048D01*
X210938095Y115447620D01*
X211557142Y115447620D01*
X212461904Y116447620D02*
X211985714Y116447620D01*
X211938095Y115971429D01*
X211985714Y116019048D01*
X212080952Y116066667D01*
X212319047Y116066667D01*
X212414285Y116019048D01*
X212461904Y115971429D01*
X212509523Y115876191D01*
X212509523Y115638096D01*
X212461904Y115542858D01*
X212414285Y115495239D01*
X212319047Y115447620D01*
X212080952Y115447620D01*
X211985714Y115495239D01*
X211938095Y115542858D01*
X190890476Y115495239D02*
X191033333Y115447620D01*
X191271428Y115447620D01*
X191366666Y115495239D01*
X191414285Y115542858D01*
X191461904Y115638096D01*
X191461904Y115733334D01*
X191414285Y115828572D01*
X191366666Y115876191D01*
X191271428Y115923810D01*
X191080952Y115971429D01*
X190985714Y116019048D01*
X190938095Y116066667D01*
X190890476Y116161905D01*
X190890476Y116257143D01*
X190938095Y116352381D01*
X190985714Y116400000D01*
X191080952Y116447620D01*
X191319047Y116447620D01*
X191461904Y116400000D01*
X191795238Y116447620D02*
X192033333Y115447620D01*
X192223809Y116161905D01*
X192414285Y115447620D01*
X192652380Y116447620D01*
X192985714Y116352381D02*
X193033333Y116400000D01*
X193128571Y116447620D01*
X193366666Y116447620D01*
X193461904Y116400000D01*
X193509523Y116352381D01*
X193557142Y116257143D01*
X193557142Y116161905D01*
X193509523Y116019048D01*
X192938095Y115447620D01*
X193557142Y115447620D01*
X194414285Y116114286D02*
X194414285Y115447620D01*
X194176190Y116495239D02*
X193938095Y115780953D01*
X194557142Y115780953D01*
X154890476Y115495239D02*
X155033333Y115447620D01*
X155271428Y115447620D01*
X155366666Y115495239D01*
X155414285Y115542858D01*
X155461904Y115638096D01*
X155461904Y115733334D01*
X155414285Y115828572D01*
X155366666Y115876191D01*
X155271428Y115923810D01*
X155080952Y115971429D01*
X154985714Y116019048D01*
X154938095Y116066667D01*
X154890476Y116161905D01*
X154890476Y116257143D01*
X154938095Y116352381D01*
X154985714Y116400000D01*
X155080952Y116447620D01*
X155319047Y116447620D01*
X155461904Y116400000D01*
X155795238Y116447620D02*
X156033333Y115447620D01*
X156223809Y116161905D01*
X156414285Y115447620D01*
X156652380Y116447620D01*
X156985714Y116352381D02*
X157033333Y116400000D01*
X157128571Y116447620D01*
X157366666Y116447620D01*
X157461904Y116400000D01*
X157509523Y116352381D01*
X157557142Y116257143D01*
X157557142Y116161905D01*
X157509523Y116019048D01*
X156938095Y115447620D01*
X157557142Y115447620D01*
X157890476Y116447620D02*
X158509523Y116447620D01*
X158176190Y116066667D01*
X158319047Y116066667D01*
X158414285Y116019048D01*
X158461904Y115971429D01*
X158509523Y115876191D01*
X158509523Y115638096D01*
X158461904Y115542858D01*
X158414285Y115495239D01*
X158319047Y115447620D01*
X158033333Y115447620D01*
X157938095Y115495239D01*
X157890476Y115542858D01*
X136890476Y115495239D02*
X137033333Y115447620D01*
X137271428Y115447620D01*
X137366666Y115495239D01*
X137414285Y115542858D01*
X137461904Y115638096D01*
X137461904Y115733334D01*
X137414285Y115828572D01*
X137366666Y115876191D01*
X137271428Y115923810D01*
X137080952Y115971429D01*
X136985714Y116019048D01*
X136938095Y116066667D01*
X136890476Y116161905D01*
X136890476Y116257143D01*
X136938095Y116352381D01*
X136985714Y116400000D01*
X137080952Y116447620D01*
X137319047Y116447620D01*
X137461904Y116400000D01*
X137795238Y116447620D02*
X138033333Y115447620D01*
X138223809Y116161905D01*
X138414285Y115447620D01*
X138652380Y116447620D01*
X138985714Y116352381D02*
X139033333Y116400000D01*
X139128571Y116447620D01*
X139366666Y116447620D01*
X139461904Y116400000D01*
X139509523Y116352381D01*
X139557142Y116257143D01*
X139557142Y116161905D01*
X139509523Y116019048D01*
X138938095Y115447620D01*
X139557142Y115447620D01*
X139938095Y116352381D02*
X139985714Y116400000D01*
X140080952Y116447620D01*
X140319047Y116447620D01*
X140414285Y116400000D01*
X140461904Y116352381D01*
X140509523Y116257143D01*
X140509523Y116161905D01*
X140461904Y116019048D01*
X139890476Y115447620D01*
X140509523Y115447620D01*
X100890476Y115495239D02*
X101033333Y115447620D01*
X101271428Y115447620D01*
X101366666Y115495239D01*
X101414285Y115542858D01*
X101461904Y115638096D01*
X101461904Y115733334D01*
X101414285Y115828572D01*
X101366666Y115876191D01*
X101271428Y115923810D01*
X101080952Y115971429D01*
X100985714Y116019048D01*
X100938095Y116066667D01*
X100890476Y116161905D01*
X100890476Y116257143D01*
X100938095Y116352381D01*
X100985714Y116400000D01*
X101080952Y116447620D01*
X101319047Y116447620D01*
X101461904Y116400000D01*
X101795238Y116447620D02*
X102033333Y115447620D01*
X102223809Y116161905D01*
X102414285Y115447620D01*
X102652380Y116447620D01*
X102985714Y116352381D02*
X103033333Y116400000D01*
X103128571Y116447620D01*
X103366666Y116447620D01*
X103461904Y116400000D01*
X103509523Y116352381D01*
X103557142Y116257143D01*
X103557142Y116161905D01*
X103509523Y116019048D01*
X102938095Y115447620D01*
X103557142Y115447620D01*
X104509523Y115447620D02*
X103938095Y115447620D01*
X104223809Y115447620D02*
X104223809Y116447620D01*
X104128571Y116304762D01*
X104033333Y116209524D01*
X103938095Y116161905D01*
X82890476Y115495239D02*
X83033333Y115447620D01*
X83271428Y115447620D01*
X83366666Y115495239D01*
X83414285Y115542858D01*
X83461904Y115638096D01*
X83461904Y115733334D01*
X83414285Y115828572D01*
X83366666Y115876191D01*
X83271428Y115923810D01*
X83080952Y115971429D01*
X82985714Y116019048D01*
X82938095Y116066667D01*
X82890476Y116161905D01*
X82890476Y116257143D01*
X82938095Y116352381D01*
X82985714Y116400000D01*
X83080952Y116447620D01*
X83319047Y116447620D01*
X83461904Y116400000D01*
X83795238Y116447620D02*
X84033333Y115447620D01*
X84223809Y116161905D01*
X84414285Y115447620D01*
X84652380Y116447620D01*
X84985714Y116352381D02*
X85033333Y116400000D01*
X85128571Y116447620D01*
X85366666Y116447620D01*
X85461904Y116400000D01*
X85509523Y116352381D01*
X85557142Y116257143D01*
X85557142Y116161905D01*
X85509523Y116019048D01*
X84938095Y115447620D01*
X85557142Y115447620D01*
X86176190Y116447620D02*
X86271428Y116447620D01*
X86366666Y116400000D01*
X86414285Y116352381D01*
X86461904Y116257143D01*
X86509523Y116066667D01*
X86509523Y115828572D01*
X86461904Y115638096D01*
X86414285Y115542858D01*
X86366666Y115495239D01*
X86271428Y115447620D01*
X86176190Y115447620D01*
X86080952Y115495239D01*
X86033333Y115542858D01*
X85985714Y115638096D01*
X85938095Y115828572D01*
X85938095Y116066667D01*
X85985714Y116257143D01*
X86033333Y116352381D01*
X86080952Y116400000D01*
X86176190Y116447620D01*
X64890476Y115495239D02*
X65033333Y115447620D01*
X65271428Y115447620D01*
X65366666Y115495239D01*
X65414285Y115542858D01*
X65461904Y115638096D01*
X65461904Y115733334D01*
X65414285Y115828572D01*
X65366666Y115876191D01*
X65271428Y115923810D01*
X65080952Y115971429D01*
X64985714Y116019048D01*
X64938095Y116066667D01*
X64890476Y116161905D01*
X64890476Y116257143D01*
X64938095Y116352381D01*
X64985714Y116400000D01*
X65080952Y116447620D01*
X65319047Y116447620D01*
X65461904Y116400000D01*
X65795238Y116447620D02*
X66033333Y115447620D01*
X66223809Y116161905D01*
X66414285Y115447620D01*
X66652380Y116447620D01*
X67557142Y115447620D02*
X66985714Y115447620D01*
X67271428Y115447620D02*
X67271428Y116447620D01*
X67176190Y116304762D01*
X67080952Y116209524D01*
X66985714Y116161905D01*
X68033333Y115447620D02*
X68223809Y115447620D01*
X68319047Y115495239D01*
X68366666Y115542858D01*
X68461904Y115685715D01*
X68509523Y115876191D01*
X68509523Y116257143D01*
X68461904Y116352381D01*
X68414285Y116400000D01*
X68319047Y116447620D01*
X68128571Y116447620D01*
X68033333Y116400000D01*
X67985714Y116352381D01*
X67938095Y116257143D01*
X67938095Y116019048D01*
X67985714Y115923810D01*
X68033333Y115876191D01*
X68128571Y115828572D01*
X68319047Y115828572D01*
X68414285Y115876191D01*
X68461904Y115923810D01*
X68509523Y116019048D01*
X28890476Y115495239D02*
X29033333Y115447620D01*
X29271428Y115447620D01*
X29366666Y115495239D01*
X29414285Y115542858D01*
X29461904Y115638096D01*
X29461904Y115733334D01*
X29414285Y115828572D01*
X29366666Y115876191D01*
X29271428Y115923810D01*
X29080952Y115971429D01*
X28985714Y116019048D01*
X28938095Y116066667D01*
X28890476Y116161905D01*
X28890476Y116257143D01*
X28938095Y116352381D01*
X28985714Y116400000D01*
X29080952Y116447620D01*
X29319047Y116447620D01*
X29461904Y116400000D01*
X29795238Y116447620D02*
X30033333Y115447620D01*
X30223809Y116161905D01*
X30414285Y115447620D01*
X30652380Y116447620D01*
X31557142Y115447620D02*
X30985714Y115447620D01*
X31271428Y115447620D02*
X31271428Y116447620D01*
X31176190Y116304762D01*
X31080952Y116209524D01*
X30985714Y116161905D01*
X32128571Y116019048D02*
X32033333Y116066667D01*
X31985714Y116114286D01*
X31938095Y116209524D01*
X31938095Y116257143D01*
X31985714Y116352381D01*
X32033333Y116400000D01*
X32128571Y116447620D01*
X32319047Y116447620D01*
X32414285Y116400000D01*
X32461904Y116352381D01*
X32509523Y116257143D01*
X32509523Y116209524D01*
X32461904Y116114286D01*
X32414285Y116066667D01*
X32319047Y116019048D01*
X32128571Y116019048D01*
X32033333Y115971429D01*
X31985714Y115923810D01*
X31938095Y115828572D01*
X31938095Y115638096D01*
X31985714Y115542858D01*
X32033333Y115495239D01*
X32128571Y115447620D01*
X32319047Y115447620D01*
X32414285Y115495239D01*
X32461904Y115542858D01*
X32509523Y115638096D01*
X32509523Y115828572D01*
X32461904Y115923810D01*
X32414285Y115971429D01*
X32319047Y116019048D01*
X13104761Y114090477D02*
X13152380Y114233334D01*
X13152380Y114471429D01*
X13104761Y114566667D01*
X13057142Y114614286D01*
X12961904Y114661905D01*
X12866666Y114661905D01*
X12771428Y114614286D01*
X12723809Y114566667D01*
X12676190Y114471429D01*
X12628571Y114280953D01*
X12580952Y114185715D01*
X12533333Y114138096D01*
X12438095Y114090477D01*
X12342857Y114090477D01*
X12247619Y114138096D01*
X12200000Y114185715D01*
X12152380Y114280953D01*
X12152380Y114519048D01*
X12200000Y114661905D01*
X12152380Y114995239D02*
X13152380Y115233334D01*
X12438095Y115423810D01*
X13152380Y115614286D01*
X12152380Y115852381D01*
X13152380Y116757143D02*
X13152380Y116185715D01*
X13152380Y116471429D02*
X12152380Y116471429D01*
X12295238Y116376191D01*
X12390476Y116280953D01*
X12438095Y116185715D01*
X12152380Y117090477D02*
X12152380Y117757143D01*
X13152380Y117328572D01*
X256104761Y98590477D02*
X256152380Y98733334D01*
X256152380Y98971429D01*
X256104761Y99066667D01*
X256057142Y99114286D01*
X255961904Y99161905D01*
X255866666Y99161905D01*
X255771428Y99114286D01*
X255723809Y99066667D01*
X255676190Y98971429D01*
X255628571Y98780953D01*
X255580952Y98685715D01*
X255533333Y98638096D01*
X255438095Y98590477D01*
X255342857Y98590477D01*
X255247619Y98638096D01*
X255200000Y98685715D01*
X255152380Y98780953D01*
X255152380Y99019048D01*
X255200000Y99161905D01*
X255152380Y99495239D02*
X256152380Y99733334D01*
X255438095Y99923810D01*
X256152380Y100114286D01*
X255152380Y100352381D01*
X256152380Y101257143D02*
X256152380Y100685715D01*
X256152380Y100971429D02*
X255152380Y100971429D01*
X255295238Y100876191D01*
X255390476Y100780953D01*
X255438095Y100685715D01*
X255152380Y102114286D02*
X255152380Y101923810D01*
X255200000Y101828572D01*
X255247619Y101780953D01*
X255390476Y101685715D01*
X255580952Y101638096D01*
X255961904Y101638096D01*
X256057142Y101685715D01*
X256104761Y101733334D01*
X256152380Y101828572D01*
X256152380Y102019048D01*
X256104761Y102114286D01*
X256057142Y102161905D01*
X255961904Y102209524D01*
X255723809Y102209524D01*
X255628571Y102161905D01*
X255580952Y102114286D01*
X255533333Y102019048D01*
X255533333Y101828572D01*
X255580952Y101733334D01*
X255628571Y101685715D01*
X255723809Y101638096D01*
X238104761Y98590477D02*
X238152380Y98733334D01*
X238152380Y98971429D01*
X238104761Y99066667D01*
X238057142Y99114286D01*
X237961904Y99161905D01*
X237866666Y99161905D01*
X237771428Y99114286D01*
X237723809Y99066667D01*
X237676190Y98971429D01*
X237628571Y98780953D01*
X237580952Y98685715D01*
X237533333Y98638096D01*
X237438095Y98590477D01*
X237342857Y98590477D01*
X237247619Y98638096D01*
X237200000Y98685715D01*
X237152380Y98780953D01*
X237152380Y99019048D01*
X237200000Y99161905D01*
X237152380Y99495239D02*
X238152380Y99733334D01*
X237438095Y99923810D01*
X238152380Y100114286D01*
X237152380Y100352381D01*
X238152380Y101257143D02*
X238152380Y100685715D01*
X238152380Y100971429D02*
X237152380Y100971429D01*
X237295238Y100876191D01*
X237390476Y100780953D01*
X237438095Y100685715D01*
X237152380Y102161905D02*
X237152380Y101685715D01*
X237628571Y101638096D01*
X237580952Y101685715D01*
X237533333Y101780953D01*
X237533333Y102019048D01*
X237580952Y102114286D01*
X237628571Y102161905D01*
X237723809Y102209524D01*
X237961904Y102209524D01*
X238057142Y102161905D01*
X238104761Y102114286D01*
X238152380Y102019048D01*
X238152380Y101780953D01*
X238104761Y101685715D01*
X238057142Y101638096D01*
X217890476Y99995239D02*
X218033333Y99947620D01*
X218271428Y99947620D01*
X218366666Y99995239D01*
X218414285Y100042858D01*
X218461904Y100138096D01*
X218461904Y100233334D01*
X218414285Y100328572D01*
X218366666Y100376191D01*
X218271428Y100423810D01*
X218080952Y100471429D01*
X217985714Y100519048D01*
X217938095Y100566667D01*
X217890476Y100661905D01*
X217890476Y100757143D01*
X217938095Y100852381D01*
X217985714Y100900000D01*
X218080952Y100947620D01*
X218319047Y100947620D01*
X218461904Y100900000D01*
X218795238Y100947620D02*
X219033333Y99947620D01*
X219223809Y100661905D01*
X219414285Y99947620D01*
X219652380Y100947620D01*
X220557142Y99947620D02*
X219985714Y99947620D01*
X220271428Y99947620D02*
X220271428Y100947620D01*
X220176190Y100804762D01*
X220080952Y100709524D01*
X219985714Y100661905D01*
X221414285Y100614286D02*
X221414285Y99947620D01*
X221176190Y100995239D02*
X220938095Y100280953D01*
X221557142Y100280953D01*
X199890476Y99995239D02*
X200033333Y99947620D01*
X200271428Y99947620D01*
X200366666Y99995239D01*
X200414285Y100042858D01*
X200461904Y100138096D01*
X200461904Y100233334D01*
X200414285Y100328572D01*
X200366666Y100376191D01*
X200271428Y100423810D01*
X200080952Y100471429D01*
X199985714Y100519048D01*
X199938095Y100566667D01*
X199890476Y100661905D01*
X199890476Y100757143D01*
X199938095Y100852381D01*
X199985714Y100900000D01*
X200080952Y100947620D01*
X200319047Y100947620D01*
X200461904Y100900000D01*
X200795238Y100947620D02*
X201033333Y99947620D01*
X201223809Y100661905D01*
X201414285Y99947620D01*
X201652380Y100947620D01*
X202557142Y99947620D02*
X201985714Y99947620D01*
X202271428Y99947620D02*
X202271428Y100947620D01*
X202176190Y100804762D01*
X202080952Y100709524D01*
X201985714Y100661905D01*
X202890476Y100947620D02*
X203509523Y100947620D01*
X203176190Y100566667D01*
X203319047Y100566667D01*
X203414285Y100519048D01*
X203461904Y100471429D01*
X203509523Y100376191D01*
X203509523Y100138096D01*
X203461904Y100042858D01*
X203414285Y99995239D01*
X203319047Y99947620D01*
X203033333Y99947620D01*
X202938095Y99995239D01*
X202890476Y100042858D01*
X181890476Y99995239D02*
X182033333Y99947620D01*
X182271428Y99947620D01*
X182366666Y99995239D01*
X182414285Y100042858D01*
X182461904Y100138096D01*
X182461904Y100233334D01*
X182414285Y100328572D01*
X182366666Y100376191D01*
X182271428Y100423810D01*
X182080952Y100471429D01*
X181985714Y100519048D01*
X181938095Y100566667D01*
X181890476Y100661905D01*
X181890476Y100757143D01*
X181938095Y100852381D01*
X181985714Y100900000D01*
X182080952Y100947620D01*
X182319047Y100947620D01*
X182461904Y100900000D01*
X182795238Y100947620D02*
X183033333Y99947620D01*
X183223809Y100661905D01*
X183414285Y99947620D01*
X183652380Y100947620D01*
X184557142Y99947620D02*
X183985714Y99947620D01*
X184271428Y99947620D02*
X184271428Y100947620D01*
X184176190Y100804762D01*
X184080952Y100709524D01*
X183985714Y100661905D01*
X184938095Y100852381D02*
X184985714Y100900000D01*
X185080952Y100947620D01*
X185319047Y100947620D01*
X185414285Y100900000D01*
X185461904Y100852381D01*
X185509523Y100757143D01*
X185509523Y100661905D01*
X185461904Y100519048D01*
X184890476Y99947620D01*
X185509523Y99947620D01*
X163890476Y99995239D02*
X164033333Y99947620D01*
X164271428Y99947620D01*
X164366666Y99995239D01*
X164414285Y100042858D01*
X164461904Y100138096D01*
X164461904Y100233334D01*
X164414285Y100328572D01*
X164366666Y100376191D01*
X164271428Y100423810D01*
X164080952Y100471429D01*
X163985714Y100519048D01*
X163938095Y100566667D01*
X163890476Y100661905D01*
X163890476Y100757143D01*
X163938095Y100852381D01*
X163985714Y100900000D01*
X164080952Y100947620D01*
X164319047Y100947620D01*
X164461904Y100900000D01*
X164795238Y100947620D02*
X165033333Y99947620D01*
X165223809Y100661905D01*
X165414285Y99947620D01*
X165652380Y100947620D01*
X166557142Y99947620D02*
X165985714Y99947620D01*
X166271428Y99947620D02*
X166271428Y100947620D01*
X166176190Y100804762D01*
X166080952Y100709524D01*
X165985714Y100661905D01*
X167509523Y99947620D02*
X166938095Y99947620D01*
X167223809Y99947620D02*
X167223809Y100947620D01*
X167128571Y100804762D01*
X167033333Y100709524D01*
X166938095Y100661905D01*
X145890476Y99995239D02*
X146033333Y99947620D01*
X146271428Y99947620D01*
X146366666Y99995239D01*
X146414285Y100042858D01*
X146461904Y100138096D01*
X146461904Y100233334D01*
X146414285Y100328572D01*
X146366666Y100376191D01*
X146271428Y100423810D01*
X146080952Y100471429D01*
X145985714Y100519048D01*
X145938095Y100566667D01*
X145890476Y100661905D01*
X145890476Y100757143D01*
X145938095Y100852381D01*
X145985714Y100900000D01*
X146080952Y100947620D01*
X146319047Y100947620D01*
X146461904Y100900000D01*
X146795238Y100947620D02*
X147033333Y99947620D01*
X147223809Y100661905D01*
X147414285Y99947620D01*
X147652380Y100947620D01*
X148557142Y99947620D02*
X147985714Y99947620D01*
X148271428Y99947620D02*
X148271428Y100947620D01*
X148176190Y100804762D01*
X148080952Y100709524D01*
X147985714Y100661905D01*
X149176190Y100947620D02*
X149271428Y100947620D01*
X149366666Y100900000D01*
X149414285Y100852381D01*
X149461904Y100757143D01*
X149509523Y100566667D01*
X149509523Y100328572D01*
X149461904Y100138096D01*
X149414285Y100042858D01*
X149366666Y99995239D01*
X149271428Y99947620D01*
X149176190Y99947620D01*
X149080952Y99995239D01*
X149033333Y100042858D01*
X148985714Y100138096D01*
X148938095Y100328572D01*
X148938095Y100566667D01*
X148985714Y100757143D01*
X149033333Y100852381D01*
X149080952Y100900000D01*
X149176190Y100947620D01*
X128366666Y99995239D02*
X128509523Y99947620D01*
X128747619Y99947620D01*
X128842857Y99995239D01*
X128890476Y100042858D01*
X128938095Y100138096D01*
X128938095Y100233334D01*
X128890476Y100328572D01*
X128842857Y100376191D01*
X128747619Y100423810D01*
X128557142Y100471429D01*
X128461904Y100519048D01*
X128414285Y100566667D01*
X128366666Y100661905D01*
X128366666Y100757143D01*
X128414285Y100852381D01*
X128461904Y100900000D01*
X128557142Y100947620D01*
X128795238Y100947620D01*
X128938095Y100900000D01*
X129271428Y100947620D02*
X129509523Y99947620D01*
X129700000Y100661905D01*
X129890476Y99947620D01*
X130128571Y100947620D01*
X130557142Y99947620D02*
X130747619Y99947620D01*
X130842857Y99995239D01*
X130890476Y100042858D01*
X130985714Y100185715D01*
X131033333Y100376191D01*
X131033333Y100757143D01*
X130985714Y100852381D01*
X130938095Y100900000D01*
X130842857Y100947620D01*
X130652380Y100947620D01*
X130557142Y100900000D01*
X130509523Y100852381D01*
X130461904Y100757143D01*
X130461904Y100519048D01*
X130509523Y100423810D01*
X130557142Y100376191D01*
X130652380Y100328572D01*
X130842857Y100328572D01*
X130938095Y100376191D01*
X130985714Y100423810D01*
X131033333Y100519048D01*
X110366666Y99995239D02*
X110509523Y99947620D01*
X110747619Y99947620D01*
X110842857Y99995239D01*
X110890476Y100042858D01*
X110938095Y100138096D01*
X110938095Y100233334D01*
X110890476Y100328572D01*
X110842857Y100376191D01*
X110747619Y100423810D01*
X110557142Y100471429D01*
X110461904Y100519048D01*
X110414285Y100566667D01*
X110366666Y100661905D01*
X110366666Y100757143D01*
X110414285Y100852381D01*
X110461904Y100900000D01*
X110557142Y100947620D01*
X110795238Y100947620D01*
X110938095Y100900000D01*
X111271428Y100947620D02*
X111509523Y99947620D01*
X111700000Y100661905D01*
X111890476Y99947620D01*
X112128571Y100947620D01*
X112652380Y100519048D02*
X112557142Y100566667D01*
X112509523Y100614286D01*
X112461904Y100709524D01*
X112461904Y100757143D01*
X112509523Y100852381D01*
X112557142Y100900000D01*
X112652380Y100947620D01*
X112842857Y100947620D01*
X112938095Y100900000D01*
X112985714Y100852381D01*
X113033333Y100757143D01*
X113033333Y100709524D01*
X112985714Y100614286D01*
X112938095Y100566667D01*
X112842857Y100519048D01*
X112652380Y100519048D01*
X112557142Y100471429D01*
X112509523Y100423810D01*
X112461904Y100328572D01*
X112461904Y100138096D01*
X112509523Y100042858D01*
X112557142Y99995239D01*
X112652380Y99947620D01*
X112842857Y99947620D01*
X112938095Y99995239D01*
X112985714Y100042858D01*
X113033333Y100138096D01*
X113033333Y100328572D01*
X112985714Y100423810D01*
X112938095Y100471429D01*
X112842857Y100519048D01*
X92366666Y99995239D02*
X92509523Y99947620D01*
X92747619Y99947620D01*
X92842857Y99995239D01*
X92890476Y100042858D01*
X92938095Y100138096D01*
X92938095Y100233334D01*
X92890476Y100328572D01*
X92842857Y100376191D01*
X92747619Y100423810D01*
X92557142Y100471429D01*
X92461904Y100519048D01*
X92414285Y100566667D01*
X92366666Y100661905D01*
X92366666Y100757143D01*
X92414285Y100852381D01*
X92461904Y100900000D01*
X92557142Y100947620D01*
X92795238Y100947620D01*
X92938095Y100900000D01*
X93271428Y100947620D02*
X93509523Y99947620D01*
X93700000Y100661905D01*
X93890476Y99947620D01*
X94128571Y100947620D01*
X94414285Y100947620D02*
X95080952Y100947620D01*
X94652380Y99947620D01*
X74366666Y99995239D02*
X74509523Y99947620D01*
X74747619Y99947620D01*
X74842857Y99995239D01*
X74890476Y100042858D01*
X74938095Y100138096D01*
X74938095Y100233334D01*
X74890476Y100328572D01*
X74842857Y100376191D01*
X74747619Y100423810D01*
X74557142Y100471429D01*
X74461904Y100519048D01*
X74414285Y100566667D01*
X74366666Y100661905D01*
X74366666Y100757143D01*
X74414285Y100852381D01*
X74461904Y100900000D01*
X74557142Y100947620D01*
X74795238Y100947620D01*
X74938095Y100900000D01*
X75271428Y100947620D02*
X75509523Y99947620D01*
X75700000Y100661905D01*
X75890476Y99947620D01*
X76128571Y100947620D01*
X76938095Y100947620D02*
X76747619Y100947620D01*
X76652380Y100900000D01*
X76604761Y100852381D01*
X76509523Y100709524D01*
X76461904Y100519048D01*
X76461904Y100138096D01*
X76509523Y100042858D01*
X76557142Y99995239D01*
X76652380Y99947620D01*
X76842857Y99947620D01*
X76938095Y99995239D01*
X76985714Y100042858D01*
X77033333Y100138096D01*
X77033333Y100376191D01*
X76985714Y100471429D01*
X76938095Y100519048D01*
X76842857Y100566667D01*
X76652380Y100566667D01*
X76557142Y100519048D01*
X76509523Y100471429D01*
X76461904Y100376191D01*
X56366666Y99995239D02*
X56509523Y99947620D01*
X56747619Y99947620D01*
X56842857Y99995239D01*
X56890476Y100042858D01*
X56938095Y100138096D01*
X56938095Y100233334D01*
X56890476Y100328572D01*
X56842857Y100376191D01*
X56747619Y100423810D01*
X56557142Y100471429D01*
X56461904Y100519048D01*
X56414285Y100566667D01*
X56366666Y100661905D01*
X56366666Y100757143D01*
X56414285Y100852381D01*
X56461904Y100900000D01*
X56557142Y100947620D01*
X56795238Y100947620D01*
X56938095Y100900000D01*
X57271428Y100947620D02*
X57509523Y99947620D01*
X57700000Y100661905D01*
X57890476Y99947620D01*
X58128571Y100947620D01*
X58985714Y100947620D02*
X58509523Y100947620D01*
X58461904Y100471429D01*
X58509523Y100519048D01*
X58604761Y100566667D01*
X58842857Y100566667D01*
X58938095Y100519048D01*
X58985714Y100471429D01*
X59033333Y100376191D01*
X59033333Y100138096D01*
X58985714Y100042858D01*
X58938095Y99995239D01*
X58842857Y99947620D01*
X58604761Y99947620D01*
X58509523Y99995239D01*
X58461904Y100042858D01*
X38366666Y99995239D02*
X38509523Y99947620D01*
X38747619Y99947620D01*
X38842857Y99995239D01*
X38890476Y100042858D01*
X38938095Y100138096D01*
X38938095Y100233334D01*
X38890476Y100328572D01*
X38842857Y100376191D01*
X38747619Y100423810D01*
X38557142Y100471429D01*
X38461904Y100519048D01*
X38414285Y100566667D01*
X38366666Y100661905D01*
X38366666Y100757143D01*
X38414285Y100852381D01*
X38461904Y100900000D01*
X38557142Y100947620D01*
X38795238Y100947620D01*
X38938095Y100900000D01*
X39271428Y100947620D02*
X39509523Y99947620D01*
X39700000Y100661905D01*
X39890476Y99947620D01*
X40128571Y100947620D01*
X40938095Y100614286D02*
X40938095Y99947620D01*
X40700000Y100995239D02*
X40461904Y100280953D01*
X41080952Y100280953D01*
X20366666Y99995239D02*
X20509523Y99947620D01*
X20747619Y99947620D01*
X20842857Y99995239D01*
X20890476Y100042858D01*
X20938095Y100138096D01*
X20938095Y100233334D01*
X20890476Y100328572D01*
X20842857Y100376191D01*
X20747619Y100423810D01*
X20557142Y100471429D01*
X20461904Y100519048D01*
X20414285Y100566667D01*
X20366666Y100661905D01*
X20366666Y100757143D01*
X20414285Y100852381D01*
X20461904Y100900000D01*
X20557142Y100947620D01*
X20795238Y100947620D01*
X20938095Y100900000D01*
X21271428Y100947620D02*
X21509523Y99947620D01*
X21700000Y100661905D01*
X21890476Y99947620D01*
X22128571Y100947620D01*
X22414285Y100947620D02*
X23033333Y100947620D01*
X22700000Y100566667D01*
X22842857Y100566667D01*
X22938095Y100519048D01*
X22985714Y100471429D01*
X23033333Y100376191D01*
X23033333Y100138096D01*
X22985714Y100042858D01*
X22938095Y99995239D01*
X22842857Y99947620D01*
X22557142Y99947620D01*
X22461904Y99995239D01*
X22414285Y100042858D01*
X4104761Y99066667D02*
X4152380Y99209524D01*
X4152380Y99447620D01*
X4104761Y99542858D01*
X4057142Y99590477D01*
X3961904Y99638096D01*
X3866666Y99638096D01*
X3771428Y99590477D01*
X3723809Y99542858D01*
X3676190Y99447620D01*
X3628571Y99257143D01*
X3580952Y99161905D01*
X3533333Y99114286D01*
X3438095Y99066667D01*
X3342857Y99066667D01*
X3247619Y99114286D01*
X3200000Y99161905D01*
X3152380Y99257143D01*
X3152380Y99495239D01*
X3200000Y99638096D01*
X3152380Y99971429D02*
X4152380Y100209524D01*
X3438095Y100400000D01*
X4152380Y100590477D01*
X3152380Y100828572D01*
X3247619Y101161905D02*
X3200000Y101209524D01*
X3152380Y101304762D01*
X3152380Y101542858D01*
X3200000Y101638096D01*
X3247619Y101685715D01*
X3342857Y101733334D01*
X3438095Y101733334D01*
X3580952Y101685715D01*
X4152380Y101114286D01*
X4152380Y101733334D01*
X-13900239Y99066667D02*
X-13852620Y99209524D01*
X-13852620Y99447620D01*
X-13900239Y99542858D01*
X-13947858Y99590477D01*
X-14043096Y99638096D01*
X-14138334Y99638096D01*
X-14233572Y99590477D01*
X-14281191Y99542858D01*
X-14328810Y99447620D01*
X-14376429Y99257143D01*
X-14424048Y99161905D01*
X-14471667Y99114286D01*
X-14566905Y99066667D01*
X-14662143Y99066667D01*
X-14757381Y99114286D01*
X-14805000Y99161905D01*
X-14852620Y99257143D01*
X-14852620Y99495239D01*
X-14805000Y99638096D01*
X-14852620Y99971429D02*
X-13852620Y100209524D01*
X-14566905Y100400000D01*
X-13852620Y100590477D01*
X-14852620Y100828572D01*
X-13852620Y101733334D02*
X-13852620Y101161905D01*
X-13852620Y101447620D02*
X-14852620Y101447620D01*
X-14709762Y101352381D01*
X-14614524Y101257143D01*
X-14566905Y101161905D01*
X89277380Y183166667D02*
X89991666Y183166667D01*
X90134523Y183119048D01*
X90229761Y183023810D01*
X90277380Y182880953D01*
X90277380Y182785715D01*
X89277380Y183547620D02*
X89277380Y184214286D01*
X90277380Y183785715D01*
X-13357143Y143528572D02*
X-13357143Y143795239D01*
X-12938096Y143909524D02*
X-12938096Y143528572D01*
X-13738096Y143528572D01*
X-13738096Y143909524D01*
X-12938096Y144252381D02*
X-13738096Y144252381D01*
X-12938096Y144709524D01*
X-13738096Y144709524D01*
X-13014286Y145547620D02*
X-12976191Y145509524D01*
X-12938096Y145395239D01*
X-12938096Y145319048D01*
X-12976191Y145204762D01*
X-13052381Y145128572D01*
X-13128572Y145090477D01*
X-13280953Y145052381D01*
X-13395239Y145052381D01*
X-13547620Y145090477D01*
X-13623810Y145128572D01*
X-13700000Y145204762D01*
X-13738096Y145319048D01*
X-13738096Y145395239D01*
X-13700000Y145509524D01*
X-13661905Y145547620D01*
X-12938096Y146309524D02*
X-12938096Y145852381D01*
X-12938096Y146080953D02*
X-13738096Y146080953D01*
X-13623810Y146004762D01*
X-13547620Y145928572D01*
X-13509524Y145852381D01*
X74328571Y156957143D02*
X74595238Y156957143D01*
X74709523Y156538096D02*
X74328571Y156538096D01*
X74328571Y157338096D01*
X74709523Y157338096D01*
X75052380Y156538096D02*
X75052380Y157338096D01*
X75509523Y156538096D01*
X75509523Y157338096D01*
X76347619Y156614286D02*
X76309523Y156576191D01*
X76195238Y156538096D01*
X76119047Y156538096D01*
X76004761Y156576191D01*
X75928571Y156652381D01*
X75890476Y156728572D01*
X75852380Y156880953D01*
X75852380Y156995239D01*
X75890476Y157147620D01*
X75928571Y157223810D01*
X76004761Y157300000D01*
X76119047Y157338096D01*
X76195238Y157338096D01*
X76309523Y157300000D01*
X76347619Y157261905D01*
X77033333Y157071429D02*
X77033333Y156538096D01*
X76842857Y157376191D02*
X76652380Y156804762D01*
X77147619Y156804762D01*
X40642857Y143528572D02*
X40642857Y143795239D01*
X41061904Y143909524D02*
X41061904Y143528572D01*
X40261904Y143528572D01*
X40261904Y143909524D01*
X41061904Y144252381D02*
X40261904Y144252381D01*
X41061904Y144709524D01*
X40261904Y144709524D01*
X40985714Y145547620D02*
X41023809Y145509524D01*
X41061904Y145395239D01*
X41061904Y145319048D01*
X41023809Y145204762D01*
X40947619Y145128572D01*
X40871428Y145090477D01*
X40719047Y145052381D01*
X40604761Y145052381D01*
X40452380Y145090477D01*
X40376190Y145128572D01*
X40300000Y145204762D01*
X40261904Y145319048D01*
X40261904Y145395239D01*
X40300000Y145509524D01*
X40338095Y145547620D01*
X40261904Y145814286D02*
X40261904Y146309524D01*
X40566666Y146042858D01*
X40566666Y146157143D01*
X40604761Y146233334D01*
X40642857Y146271429D01*
X40719047Y146309524D01*
X40909523Y146309524D01*
X40985714Y146271429D01*
X41023809Y146233334D01*
X41061904Y146157143D01*
X41061904Y145928572D01*
X41023809Y145852381D01*
X40985714Y145814286D01*
X13642857Y163528572D02*
X13642857Y163795239D01*
X14061904Y163909524D02*
X14061904Y163528572D01*
X13261904Y163528572D01*
X13261904Y163909524D01*
X14061904Y164252381D02*
X13261904Y164252381D01*
X14061904Y164709524D01*
X13261904Y164709524D01*
X13985714Y165547620D02*
X14023809Y165509524D01*
X14061904Y165395239D01*
X14061904Y165319048D01*
X14023809Y165204762D01*
X13947619Y165128572D01*
X13871428Y165090477D01*
X13719047Y165052381D01*
X13604761Y165052381D01*
X13452380Y165090477D01*
X13376190Y165128572D01*
X13300000Y165204762D01*
X13261904Y165319048D01*
X13261904Y165395239D01*
X13300000Y165509524D01*
X13338095Y165547620D01*
X13338095Y165852381D02*
X13300000Y165890477D01*
X13261904Y165966667D01*
X13261904Y166157143D01*
X13300000Y166233334D01*
X13338095Y166271429D01*
X13414285Y166309524D01*
X13490476Y166309524D01*
X13604761Y166271429D01*
X14061904Y165814286D01*
X14061904Y166309524D01*
X31961904Y153747620D02*
X32533333Y153747620D01*
X32247619Y152747620D02*
X32247619Y153747620D01*
X32866666Y152747620D02*
X32866666Y153747620D01*
X33247619Y153747620D01*
X33342857Y153700000D01*
X33390476Y153652381D01*
X33438095Y153557143D01*
X33438095Y153414286D01*
X33390476Y153319048D01*
X33342857Y153271429D01*
X33247619Y153223810D01*
X32866666Y153223810D01*
X34390476Y152747620D02*
X33819047Y152747620D01*
X34104761Y152747620D02*
X34104761Y153747620D01*
X34009523Y153604762D01*
X33914285Y153509524D01*
X33819047Y153461905D01*
X34961904Y153319048D02*
X34866666Y153366667D01*
X34819047Y153414286D01*
X34771428Y153509524D01*
X34771428Y153557143D01*
X34819047Y153652381D01*
X34866666Y153700000D01*
X34961904Y153747620D01*
X35152380Y153747620D01*
X35247619Y153700000D01*
X35295238Y153652381D01*
X35342857Y153557143D01*
X35342857Y153509524D01*
X35295238Y153414286D01*
X35247619Y153366667D01*
X35152380Y153319048D01*
X34961904Y153319048D01*
X34866666Y153271429D01*
X34819047Y153223810D01*
X34771428Y153128572D01*
X34771428Y152938096D01*
X34819047Y152842858D01*
X34866666Y152795239D01*
X34961904Y152747620D01*
X35152380Y152747620D01*
X35247619Y152795239D01*
X35295238Y152842858D01*
X35342857Y152938096D01*
X35342857Y153128572D01*
X35295238Y153223810D01*
X35247619Y153271429D01*
X35152380Y153319048D01*
X140461904Y143124620D02*
X141033333Y143124620D01*
X140747619Y142124620D02*
X140747619Y143124620D01*
X141366666Y142124620D02*
X141366666Y143124620D01*
X141747619Y143124620D01*
X141842857Y143077000D01*
X141890476Y143029381D01*
X141938095Y142934143D01*
X141938095Y142791286D01*
X141890476Y142696048D01*
X141842857Y142648429D01*
X141747619Y142600810D01*
X141366666Y142600810D01*
X142890476Y142124620D02*
X142319047Y142124620D01*
X142604761Y142124620D02*
X142604761Y143124620D01*
X142509523Y142981762D01*
X142414285Y142886524D01*
X142319047Y142838905D01*
X143795238Y143124620D02*
X143319047Y143124620D01*
X143271428Y142648429D01*
X143319047Y142696048D01*
X143414285Y142743667D01*
X143652380Y142743667D01*
X143747619Y142696048D01*
X143795238Y142648429D01*
X143842857Y142553191D01*
X143842857Y142315096D01*
X143795238Y142219858D01*
X143747619Y142172239D01*
X143652380Y142124620D01*
X143414285Y142124620D01*
X143319047Y142172239D01*
X143271428Y142219858D01*
X64688095Y170145620D02*
X65259523Y170145620D01*
X64973809Y169145620D02*
X64973809Y170145620D01*
X65592857Y169145620D02*
X65592857Y170145620D01*
X65973809Y170145620D01*
X66069047Y170098000D01*
X66116666Y170050381D01*
X66164285Y169955143D01*
X66164285Y169812286D01*
X66116666Y169717048D01*
X66069047Y169669429D01*
X65973809Y169621810D01*
X65592857Y169621810D01*
X66640476Y169145620D02*
X66830952Y169145620D01*
X66926190Y169193239D01*
X66973809Y169240858D01*
X67069047Y169383715D01*
X67116666Y169574191D01*
X67116666Y169955143D01*
X67069047Y170050381D01*
X67021428Y170098000D01*
X66926190Y170145620D01*
X66735714Y170145620D01*
X66640476Y170098000D01*
X66592857Y170050381D01*
X66545238Y169955143D01*
X66545238Y169717048D01*
X66592857Y169621810D01*
X66640476Y169574191D01*
X66735714Y169526572D01*
X66926190Y169526572D01*
X67021428Y169574191D01*
X67069047Y169621810D01*
X67116666Y169717048D01*
X65638095Y153047620D02*
X66209523Y153047620D01*
X65923809Y152047620D02*
X65923809Y153047620D01*
X66542857Y152047620D02*
X66542857Y153047620D01*
X66923809Y153047620D01*
X67019047Y153000000D01*
X67066666Y152952381D01*
X67114285Y152857143D01*
X67114285Y152714286D01*
X67066666Y152619048D01*
X67019047Y152571429D01*
X66923809Y152523810D01*
X66542857Y152523810D01*
X67685714Y152619048D02*
X67590476Y152666667D01*
X67542857Y152714286D01*
X67495238Y152809524D01*
X67495238Y152857143D01*
X67542857Y152952381D01*
X67590476Y153000000D01*
X67685714Y153047620D01*
X67876190Y153047620D01*
X67971428Y153000000D01*
X68019047Y152952381D01*
X68066666Y152857143D01*
X68066666Y152809524D01*
X68019047Y152714286D01*
X67971428Y152666667D01*
X67876190Y152619048D01*
X67685714Y152619048D01*
X67590476Y152571429D01*
X67542857Y152523810D01*
X67495238Y152428572D01*
X67495238Y152238096D01*
X67542857Y152142858D01*
X67590476Y152095239D01*
X67685714Y152047620D01*
X67876190Y152047620D01*
X67971428Y152095239D01*
X68019047Y152142858D01*
X68066666Y152238096D01*
X68066666Y152428572D01*
X68019047Y152523810D01*
X67971428Y152571429D01*
X67876190Y152619048D01*
M02*
